<svg width="800" height="651" viewBox="0 0 800 651" fill="none" xmlns="http://www.w3.org/2000/svg">
<g opacity="0.02">
<path fill-rule="evenodd" clip-rule="evenodd" d="M375.714 65.3569C364.265 111.936 348.082 177.776 308.571 221.615C269.242 265.252 209.111 284.526 166.212 298.277C136.116 307.923 114.502 314.852 114.502 325.567C114.502 336.281 136.116 343.21 166.212 352.857C209.111 366.607 269.242 385.881 308.571 429.518C348.082 473.357 364.265 539.197 375.714 585.776C383.657 618.089 389.321 641.133 398.914 641.133C408.507 641.133 414.171 618.089 422.114 585.776C433.563 539.197 449.746 473.357 489.257 429.518C528.586 385.881 588.717 366.607 631.616 352.857C661.712 343.21 683.326 336.281 683.326 325.567C683.326 314.852 661.712 307.923 631.616 298.277C588.717 284.526 528.586 265.252 489.257 221.615C449.746 177.776 433.563 111.936 422.114 65.357C414.171 33.044 408.507 10 398.914 10C389.321 10 383.657 33.0439 375.714 65.3569ZM67.4849 647.305C63.8763 650.155 61.8354 659.215 73.0904 667.578C84.3454 675.941 96.914 681.613 96.914 681.613C95.0834 681.613 92.9419 681.693 90.5238 681.783C74.4313 682.383 46.0915 683.44 15.6334 664.459C-9.11277 649.038 -18 636.389 -18 628.592C-18 612.997 32.4501 578.689 74.4918 558.416C116.534 538.143 209.025 508.513 224.441 511.632C233.994 513.565 240.579 526.57 247.047 539.342C251.015 547.178 254.938 554.926 259.475 559.975C267.113 568.474 271.716 571.546 275.942 574.366C277.919 575.685 279.814 576.95 281.898 578.689C286.197 582.277 287.473 588.922 288.256 592.997C288.494 594.236 288.687 595.237 288.905 595.843C286.569 596.883 277.133 599.897 258.074 603.64C249.18 605.387 241.458 606.047 232.209 606.837C216.685 608.163 196.861 609.857 159.977 617.675C112.89 627.656 78.6412 638.493 67.4849 647.305ZM732.515 647.305C736.124 650.155 738.165 659.215 726.91 667.578C715.655 675.941 703.086 681.613 703.086 681.613C704.917 681.613 707.058 681.693 709.476 681.783C725.569 682.383 753.909 683.44 784.367 664.459C809.113 649.038 818 636.389 818 628.592C818 612.997 767.55 578.689 725.508 558.416C683.466 538.143 590.975 508.513 575.559 511.632C566.006 513.565 559.421 526.57 552.953 539.341C548.985 547.178 545.062 554.926 540.525 559.975C532.887 568.474 528.284 571.546 524.058 574.366C522.081 575.685 520.186 576.95 518.102 578.689C513.803 582.277 512.527 588.922 511.744 592.997L511.743 592.998C511.505 594.236 511.313 595.237 511.095 595.843C513.431 596.883 522.867 599.897 541.926 603.64C550.82 605.387 558.542 606.047 567.791 606.837C583.315 608.163 603.139 609.857 640.023 617.675C687.11 627.656 721.359 638.493 732.515 647.305Z" fill="#5E4373" fill-opacity="0.31"/>
<path d="M308.571 221.615L301.143 214.92L308.571 221.615ZM375.714 65.3569L366.003 62.97V62.97L375.714 65.3569ZM166.212 298.277L163.16 288.754H163.16L166.212 298.277ZM166.212 352.857L163.16 362.379H163.16L166.212 352.857ZM308.571 429.518L315.999 422.823L308.571 429.518ZM375.714 585.776L366.003 588.163L375.714 585.776ZM422.114 585.776L412.403 583.389L422.114 585.776ZM489.257 429.518L481.828 422.823L489.257 429.518ZM631.616 352.857L634.668 362.379L631.616 352.857ZM631.616 298.277L634.668 288.754L631.616 298.277ZM489.257 221.615L481.828 228.31L489.257 221.615ZM422.114 65.357L412.403 67.7439V67.7439L422.114 65.357ZM73.0904 667.578L67.1261 675.605L73.0904 667.578ZM67.4849 647.305L61.2864 639.458H61.2864L67.4849 647.305ZM96.914 681.613V691.613C101.626 691.613 105.699 688.324 106.69 683.717C107.682 679.11 105.322 674.437 101.027 672.498L96.914 681.613ZM90.5238 681.783L90.8963 691.776H90.8964L90.5238 681.783ZM15.6334 664.459L10.3446 672.946H10.3446L15.6334 664.459ZM224.441 511.632L226.424 501.831H226.424L224.441 511.632ZM247.047 539.342L255.968 534.824L247.047 539.342ZM259.475 559.975L266.913 553.291L259.475 559.975ZM275.942 574.366L281.493 566.048L281.493 566.048L275.942 574.366ZM281.898 578.689L288.305 571.011L288.305 571.011L281.898 578.689ZM288.256 592.997L298.077 591.11V591.11L288.256 592.997ZM288.905 595.843L292.971 604.979C297.756 602.849 300.087 597.389 298.315 592.461L288.905 595.843ZM258.074 603.64L260.001 613.453H260.001L258.074 603.64ZM232.209 606.837L233.061 616.801H233.061L232.209 606.837ZM159.977 617.675L157.903 607.893H157.903L159.977 617.675ZM732.515 647.305L726.317 655.152V655.152L732.515 647.305ZM703.086 681.613L698.973 672.498C694.677 674.437 692.318 679.11 693.31 683.717C694.301 688.324 698.374 691.613 703.086 691.613V681.613ZM709.476 681.783L709.104 691.776L709.476 681.783ZM784.367 664.459L789.655 672.946H789.655L784.367 664.459ZM725.508 558.416L721.165 567.423L725.508 558.416ZM575.559 511.632L573.576 501.831L575.559 511.632ZM552.953 539.341L544.032 534.824L552.953 539.341ZM540.525 559.975L533.087 553.291V553.291L540.525 559.975ZM524.058 574.366L518.507 566.048L518.507 566.048L524.058 574.366ZM518.102 578.689L524.51 586.366L524.51 586.366L518.102 578.689ZM511.744 592.997L521.445 595.422C521.49 595.244 521.529 595.064 521.564 594.884L511.744 592.997ZM511.743 592.998L502.042 590.572C501.997 590.751 501.958 590.93 501.923 591.111L511.743 592.998ZM511.095 595.843L501.685 592.461C499.913 597.389 502.245 602.849 507.029 604.979L511.095 595.843ZM541.926 603.64L539.999 613.453L541.926 603.64ZM567.791 606.837L566.939 616.801H566.939L567.791 606.837ZM640.023 617.675L642.097 607.893L640.023 617.675ZM315.999 228.31C357.492 182.272 374.11 113.78 385.425 67.7438L366.003 62.97C354.421 110.093 338.673 173.28 301.143 214.92L315.999 228.31ZM169.265 307.799C211.706 294.196 274.572 274.276 315.999 228.31L301.143 214.92C263.913 256.229 206.517 274.857 163.16 288.754L169.265 307.799ZM124.502 325.567C124.502 326.642 123.851 326.67 125.136 325.483C126.512 324.211 129.068 322.558 133.3 320.583C141.756 316.637 153.966 312.703 169.265 307.799L163.16 288.754C148.362 293.497 134.717 297.851 124.842 302.459C119.908 304.762 115.179 307.452 111.562 310.794C107.854 314.221 104.502 319.134 104.502 325.567H124.502ZM169.265 343.334C153.966 338.43 141.756 334.496 133.3 330.55C129.068 328.576 126.512 326.922 125.136 325.65C123.851 324.463 124.502 324.491 124.502 325.567H104.502C104.502 332 107.854 336.912 111.562 340.339C115.179 343.681 119.908 346.371 124.842 348.674C134.717 353.282 148.362 357.636 163.16 362.379L169.265 343.334ZM315.999 422.823C274.572 376.858 211.706 356.937 169.265 343.334L163.16 362.379C206.517 376.277 263.913 394.904 301.143 436.213L315.999 422.823ZM385.425 583.389C374.11 537.353 357.492 468.861 315.999 422.823L301.143 436.213C338.673 477.853 354.421 541.041 366.003 588.163L385.425 583.389ZM398.914 631.133C401.045 631.133 401.494 632.537 400.351 631.018C399.231 629.528 397.777 626.728 396.079 622.117C392.711 612.968 389.453 599.778 385.425 583.389L366.003 588.163C369.917 604.088 373.463 618.576 377.311 629.027C379.221 634.216 381.478 639.197 384.366 643.038C387.232 646.849 391.986 651.133 398.914 651.133V631.133ZM412.403 583.389C408.375 599.778 405.117 612.968 401.749 622.117C400.051 626.728 398.597 629.528 397.477 631.018C396.334 632.537 396.783 631.133 398.914 631.133V651.133C405.842 651.133 410.596 646.849 413.462 643.038C416.35 639.197 418.607 634.216 420.517 629.027C424.365 618.576 427.91 604.088 431.825 588.163L412.403 583.389ZM481.828 422.823C440.336 468.861 423.718 537.353 412.403 583.389L431.825 588.163C443.407 541.04 459.155 477.853 496.685 436.213L481.828 422.823ZM628.563 343.334C586.122 356.937 523.256 376.858 481.828 422.823L496.685 436.213C533.915 394.904 591.311 376.277 634.668 362.379L628.563 343.334ZM673.326 325.567C673.326 324.491 673.977 324.463 672.692 325.65C671.315 326.922 668.76 328.576 664.528 330.55C656.072 334.496 643.862 338.43 628.563 343.334L634.668 362.379C649.465 357.636 663.111 353.282 672.986 348.674C677.92 346.371 682.649 343.681 686.266 340.339C689.974 336.912 693.326 332 693.326 325.567H673.326ZM628.563 307.799C643.862 312.703 656.072 316.637 664.528 320.583C668.76 322.558 671.315 324.211 672.692 325.483C673.977 326.67 673.326 326.642 673.326 325.567H693.326C693.326 319.134 689.974 314.221 686.266 310.794C682.649 307.452 677.92 304.762 672.986 302.459C663.111 297.851 649.465 293.497 634.668 288.754L628.563 307.799ZM481.828 228.31C523.256 274.276 586.122 294.196 628.563 307.799L634.668 288.754C591.311 274.857 533.915 256.229 496.685 214.92L481.828 228.31ZM412.403 67.7439C423.718 113.78 440.336 182.272 481.828 228.31L496.685 214.92C459.155 173.28 443.407 110.093 431.825 62.9701L412.403 67.7439ZM398.914 20C396.783 20 396.334 18.5962 397.477 20.1155C398.597 21.6051 400.051 24.4054 401.749 29.016C405.117 38.1657 408.375 51.3555 412.403 67.7439L431.825 62.9701C427.91 47.0454 424.365 32.5568 420.517 22.1062C418.607 16.9167 416.35 11.9365 413.462 8.09549C410.596 4.2843 405.842 0 398.914 0V20ZM385.425 67.7438C389.453 51.3554 392.711 38.1656 396.079 29.016C397.777 24.4053 399.231 21.605 400.351 20.1155C401.494 18.5962 401.045 20 398.914 20V0C391.986 0 387.232 4.28431 384.366 8.09549C381.478 11.9365 379.221 16.9167 377.311 22.1062C373.463 32.5568 369.917 47.0454 366.003 62.97L385.425 67.7438ZM79.0547 659.551C75.0564 656.58 74.6788 654.481 74.6408 654.168C74.5617 653.517 74.9503 654.152 73.6834 655.152L61.2864 639.458C50.7645 647.769 52.5295 664.759 67.1261 675.605L79.0547 659.551ZM96.914 681.613C101.027 672.498 101.028 672.499 101.029 672.499C101.029 672.499 101.03 672.5 101.031 672.5C101.032 672.5 101.032 672.501 101.033 672.501C101.034 672.501 101.034 672.501 101.034 672.501C101.033 672.501 101.029 672.499 101.022 672.496C101.009 672.49 100.984 672.478 100.947 672.462C100.874 672.428 100.756 672.374 100.597 672.299C100.278 672.149 99.7927 671.919 99.1685 671.613C97.9185 671.002 96.1201 670.095 93.9847 668.938C89.6772 666.606 84.1669 663.35 79.0547 659.551L67.1261 675.605C73.2689 680.169 79.6704 683.931 84.461 686.525C86.8746 687.832 88.9218 688.866 90.3801 689.579C91.1101 689.936 91.695 690.214 92.1071 690.407C92.3132 690.504 92.4763 690.58 92.593 690.633C92.6513 690.66 92.6981 690.681 92.7328 690.697C92.7502 690.705 92.7646 690.712 92.7759 690.717C92.7816 690.719 92.7865 690.722 92.7906 690.723C92.7926 690.724 92.7945 690.725 92.7962 690.726C92.797 690.726 92.7981 690.727 92.7985 690.727C92.7996 690.728 92.8006 690.728 96.914 681.613ZM90.8964 691.776C93.3726 691.684 95.309 691.613 96.914 691.613V671.613C94.8578 671.613 92.5112 671.702 90.1512 671.79L90.8964 691.776ZM10.3446 672.946C43.5148 693.617 74.4957 692.388 90.8963 691.776L90.1513 671.79C74.3669 672.379 48.6682 673.262 20.9222 655.972L10.3446 672.946ZM-28 628.592C-28 636.047 -23.9465 643.454 -17.9836 650.258C-11.8122 657.299 -2.53994 664.917 10.3446 672.946L20.9222 655.972C9.06056 648.58 1.51609 642.163 -2.9426 637.075C-7.60993 631.75 -8 628.933 -8 628.592H-28ZM70.1483 549.408C48.6426 559.779 24.989 573.728 6.57911 587.185C-2.59841 593.893 -10.7637 600.689 -16.744 607.047C-19.7299 610.221 -22.39 613.515 -24.3564 616.838C-26.2472 620.034 -28 624.094 -28 628.592H-8C-8 629.19 -8.1762 628.767 -7.14385 627.023C-6.18702 625.406 -4.57726 623.302 -2.17655 620.75C2.61638 615.655 9.69117 609.683 18.3814 603.331C35.707 590.667 58.2992 577.326 78.8353 567.423L70.1483 549.408ZM226.424 501.831C222.703 501.078 218.098 501.447 213.959 502.005C209.448 502.614 204.076 503.667 198.169 505.032C186.331 507.767 171.742 511.893 156.445 516.715C125.929 526.333 91.7851 538.975 70.1483 549.408L78.8353 567.423C99.2402 557.584 132.363 545.275 162.457 535.789C177.465 531.059 191.518 527.096 202.671 524.519C208.26 523.228 212.971 522.32 216.633 521.826C218.463 521.579 219.914 521.451 221.008 521.415C222.188 521.376 222.579 521.458 222.458 521.433L226.424 501.831ZM255.968 534.824C252.829 528.625 249.213 521.433 245.028 515.595C240.979 509.948 235.028 503.572 226.424 501.831L222.458 521.433C223.406 521.625 225.525 522.718 228.774 527.249C231.886 531.59 234.797 537.287 238.125 543.859L255.968 534.824ZM266.913 553.291C263.457 549.445 260.149 543.081 255.968 534.824L238.125 543.859C241.88 551.275 246.42 560.408 252.037 566.659L266.913 553.291ZM281.493 566.048C277.701 563.517 273.815 560.972 266.913 553.291L252.037 566.659C260.41 575.976 265.732 579.575 270.391 582.684L281.493 566.048ZM288.305 571.011C285.76 568.887 283.45 567.354 281.493 566.048L270.391 582.684C272.389 584.017 273.868 585.012 275.49 586.366L288.305 571.011ZM298.077 591.11C297.699 589.143 297.057 585.711 295.791 582.236C294.54 578.804 292.362 574.397 288.305 571.011L275.49 586.366C275.732 586.568 276.342 587.278 277 589.084C277.642 590.847 278.031 592.775 278.436 594.884L298.077 591.11ZM298.315 592.461C298.391 592.67 298.421 592.791 298.414 592.764C298.41 592.749 298.391 592.677 298.358 592.523C298.285 592.191 298.203 591.767 298.077 591.11L278.436 594.884C278.595 595.713 278.944 597.695 279.494 599.225L298.315 592.461ZM260.001 613.453C279.104 609.701 289.516 606.517 292.971 604.979L284.838 586.707C284.847 586.703 284.804 586.722 284.698 586.764C284.595 586.805 284.452 586.86 284.264 586.928C283.887 587.066 283.374 587.243 282.712 587.456C281.389 587.883 279.558 588.428 277.167 589.07C272.39 590.353 265.492 591.993 256.147 593.828L260.001 613.453ZM233.061 616.801C242.256 616.015 250.497 615.319 260.001 613.453L256.147 593.828C247.863 595.454 240.659 596.078 231.358 596.873L233.061 616.801ZM162.05 627.458C198.393 619.755 217.776 618.107 233.061 616.801L231.358 596.873C215.595 598.22 195.33 599.96 157.903 607.893L162.05 627.458ZM73.6833 655.152C77.676 651.998 87.4029 647.53 103.298 642.454C118.721 637.53 138.709 632.405 162.05 627.458L157.903 607.893C134.158 612.926 113.478 618.21 97.2153 623.402C81.4257 628.443 68.4501 633.799 61.2864 639.458L73.6833 655.152ZM732.874 675.605C747.47 664.759 749.235 647.769 738.714 639.458L726.317 655.152C725.05 654.152 725.438 653.517 725.359 654.168C725.321 654.481 724.944 656.58 720.945 659.551L732.874 675.605ZM703.086 681.613C707.199 690.728 707.2 690.728 707.201 690.727C707.202 690.727 707.203 690.726 707.204 690.726C707.205 690.725 707.207 690.724 707.209 690.723C707.214 690.722 707.218 690.719 707.224 690.717C707.235 690.712 707.25 690.705 707.267 690.697C707.302 690.681 707.349 690.66 707.407 690.633C707.524 690.58 707.687 690.504 707.893 690.407C708.305 690.214 708.89 689.936 709.62 689.579C711.078 688.866 713.125 687.832 715.539 686.525C720.33 683.931 726.731 680.169 732.874 675.605L720.945 659.551C715.833 663.35 710.323 666.606 706.015 668.938C703.88 670.095 702.081 671.002 700.831 671.613C700.207 671.919 699.722 672.149 699.403 672.299C699.244 672.374 699.126 672.428 699.053 672.462C699.016 672.478 698.991 672.49 698.978 672.496C698.971 672.499 698.967 672.501 698.966 672.501C698.966 672.501 698.966 672.501 698.967 672.501C698.968 672.501 698.968 672.5 698.969 672.5C698.97 672.5 698.971 672.499 698.971 672.499C698.972 672.499 698.973 672.498 703.086 681.613ZM709.849 671.79C707.489 671.702 705.142 671.613 703.086 671.613V691.613C704.691 691.613 706.627 691.684 709.104 691.776L709.849 671.79ZM779.078 655.972C751.332 673.262 725.633 672.379 709.849 671.79L709.104 691.776C725.504 692.388 756.485 693.617 789.655 672.946L779.078 655.972ZM808 628.592C808 628.933 807.61 631.75 802.943 637.075C798.484 642.163 790.939 648.58 779.078 655.972L789.655 672.946C802.54 664.917 811.812 657.299 817.984 650.257C823.946 643.454 828 636.047 828 628.592H808ZM721.165 567.423C741.701 577.326 764.293 590.667 781.619 603.331C790.309 609.683 797.384 615.655 802.177 620.75C804.577 623.302 806.187 625.406 807.144 627.023C808.176 628.767 808 629.19 808 628.592H828C828 624.094 826.247 620.034 824.356 616.838C822.39 613.515 819.73 610.221 816.744 607.047C810.764 600.689 802.598 593.893 793.421 587.185C775.011 573.728 751.357 559.779 729.852 549.408L721.165 567.423ZM577.542 521.433C577.421 521.458 577.812 521.376 578.992 521.415C580.086 521.451 581.537 521.579 583.367 521.826C587.029 522.32 591.74 523.228 597.329 524.519C608.482 527.096 622.535 531.059 637.543 535.789C667.637 545.275 700.76 557.584 721.165 567.423L729.852 549.408C708.215 538.975 674.071 526.333 643.555 516.715C628.258 511.893 613.669 507.767 601.831 505.032C595.924 503.667 590.552 502.614 586.041 502.005C581.902 501.447 577.297 501.078 573.576 501.831L577.542 521.433ZM561.875 543.859C565.203 537.287 568.114 531.59 571.226 527.249C574.475 522.718 576.594 521.625 577.542 521.433L573.576 501.831C564.972 503.572 559.021 509.948 554.972 515.595C550.787 521.433 547.171 528.625 544.032 534.824L561.875 543.859ZM547.963 566.659C553.58 560.408 558.12 551.275 561.875 543.859L544.032 534.824C539.851 543.081 536.543 549.445 533.087 553.291L547.963 566.659ZM529.609 582.684C534.268 579.575 539.59 575.976 547.963 566.659L533.087 553.291C526.185 560.972 522.299 563.517 518.507 566.048L529.609 582.684ZM524.51 586.366C526.132 585.012 527.611 584.017 529.609 582.684L518.507 566.048C516.55 567.354 514.24 568.887 511.695 571.011L524.51 586.366ZM521.564 594.884C521.969 592.775 522.358 590.847 523 589.084C523.658 587.278 524.268 586.568 524.51 586.366L511.695 571.011C507.638 574.397 505.46 578.804 504.209 582.236C502.943 585.711 502.301 589.143 501.923 591.11L521.564 594.884ZM521.445 595.423L521.445 595.422L502.042 590.572L502.042 590.572L521.445 595.423ZM520.506 599.225C521.056 597.696 521.404 595.713 521.564 594.885L501.923 591.111C501.797 591.767 501.715 592.191 501.642 592.523C501.609 592.677 501.59 592.749 501.586 592.765C501.579 592.791 501.609 592.67 501.685 592.461L520.506 599.225ZM543.853 593.828C534.508 591.993 527.61 590.353 522.833 589.07C520.442 588.428 518.611 587.883 517.288 587.456C516.626 587.243 516.113 587.066 515.736 586.928C515.548 586.86 515.405 586.805 515.302 586.764C515.196 586.722 515.153 586.703 515.162 586.707L507.029 604.979C510.484 606.517 520.896 609.701 539.999 613.453L543.853 593.828ZM568.642 596.873C559.341 596.078 552.137 595.454 543.853 593.828L539.999 613.453C549.503 615.319 557.744 616.015 566.939 616.801L568.642 596.873ZM642.097 607.893C604.67 599.96 584.405 598.22 568.642 596.873L566.939 616.801C582.224 618.107 601.607 619.755 637.95 627.458L642.097 607.893ZM738.714 639.458C731.55 633.799 718.574 628.443 702.785 623.402C686.522 618.21 665.842 612.926 642.097 607.893L637.95 627.458C661.291 632.405 681.279 637.53 696.702 642.454C712.597 647.53 722.324 651.998 726.317 655.152L738.714 639.458Z" fill="#5A3973"/>
</g>
</svg>
