<svg width="80" height="1600" viewBox="0 0 80 1600" fill="none" xmlns="http://www.w3.org/2000/svg">
<g opacity="0.08">
<mask id="mask0_601_9629" style="mask-type:alpha" maskUnits="userSpaceOnUse" x="0" y="0" width="80" height="1600">
<rect width="80" height="1600" fill="#C4C4C4"/>
</mask>
<g mask="url(#mask0_601_9629)">
<path fill-rule="evenodd" clip-rule="evenodd" d="M68.0001 1.97093C64.5191 -3.83802 54.646 -18.7324 41.6966 -33.405C28.7472 -48.0775 8.06124 -64.7994 -0.597801 -71C-6.7331 -66.4529 -20.8443 -55.479 -28.2067 -47.96C-35.569 -40.441 -44.9373 -30.3808 -48.7012 -26.2906C-47.7221 -22.8531 -45.2158 -14.5944 -43.0228 -9.05955C-40.8297 -3.52472 -37.7577 2.3408 -36.4958 4.58171C-33.4499 1.16595 -25.7375 -6.46026 -20.6354 -11.2134C-13.9882 -17.4062 -7.39038 -20.8789 -2.60701 -23.3967C-1.89515 -23.7713 -1.22347 -24.1249 -0.597801 -24.4631C1.36028 -22.8313 5.95523 -18.6672 8.67043 -15.0643C11.3856 -11.4615 13.5874 -7.07972 14.3488 -5.33921C12.456 -3.42464 7.95247 1.08327 5.08062 3.79848C2.20878 6.51367 -1.38102 9.75973 -2.81695 11.0434C-2.3383 11.7831 -1.06773 13.628 0.18544 15.09C1.43861 16.5521 2.70918 17.7878 3.18782 18.223C5.42873 16.6565 11.2551 12.3879 16.6333 7.84516C22.0114 3.30243 26.7935 -1.3578 28.5123 -3.12006C26.9893 -6.47054 22.2334 -15.2601 15.3932 -23.6146C8.55294 -31.969 1.88243 -39.1051 -0.597801 -41.6289L-31.5354 -15.5865C-30.5999 -19.8725 -26.7577 -31.0814 -18.8732 -41.6289C-10.9887 -52.1764 -3.40437 -60.3829 -0.597801 -63.1677C4.3409 -57.9679 17.3121 -42.7776 29.6871 -23.6146C42.0621 -4.45155 50.3774 15.3076 52.9882 22.7918L68.0001 1.97093ZM-69 1.84042C-65.519 7.64938 -55.6459 22.5438 -42.6965 37.2163C-29.7471 51.8888 -9.06114 68.6108 -0.4021 74.8114C5.7332 70.2643 19.8444 59.2904 27.2068 51.7713C34.5691 44.2523 43.9374 34.1922 47.7013 30.102C46.7222 26.6645 44.2159 18.4057 42.0229 12.8709C39.8298 7.33608 36.7578 1.47056 35.4959 -0.770348C32.4501 2.64541 24.7376 10.2716 19.6355 15.0248C12.9883 21.2176 6.39046 24.6903 1.60707 27.208C0.895226 27.5827 0.223564 27.9362 -0.4021 28.2744C-2.36018 26.6427 -6.95512 22.4785 -9.67032 18.8757C-12.3855 15.2728 -14.5873 10.8911 -15.3487 9.15057C-13.4559 7.236 -8.95236 2.72808 -6.08052 0.012886C-3.20867 -2.70232 0.381126 -5.94837 1.81705 -7.232C1.33841 -7.97171 0.0678406 -9.81666 -1.18533 -11.2787C-2.4385 -12.7407 -3.70907 -13.9765 -4.18771 -14.4116C-6.42862 -12.8451 -12.255 -8.57654 -17.6332 -4.03381C-23.0113 0.508926 -27.7934 5.16915 -29.5121 6.93142C-27.9892 10.2819 -23.2333 19.0715 -16.393 27.4259C-9.55284 35.7804 -2.88233 42.9165 -0.4021 45.4402L30.5355 19.3978C29.6 23.6838 25.7578 34.8927 17.8733 45.4402C9.98875 55.9877 2.40447 64.1942 -0.4021 66.9791C-5.3408 61.7793 -18.312 46.589 -30.687 27.4259C-43.062 8.2629 -51.3773 -11.4963 -53.9881 -18.9804L-69 1.84042Z" fill="#E6B639"/>
<path fill-rule="evenodd" clip-rule="evenodd" d="M68.0001 176.971C64.5191 171.162 54.646 156.268 41.6966 141.595C28.7472 126.923 8.06124 110.201 -0.597801 104C-6.7331 108.547 -20.8443 119.521 -28.2067 127.04C-35.569 134.559 -44.9373 144.619 -48.7012 148.709C-47.7221 152.147 -45.2158 160.406 -43.0228 165.94C-40.8297 171.475 -37.7577 177.341 -36.4958 179.582C-33.4499 176.166 -25.7375 168.54 -20.6354 163.787C-13.9882 157.594 -7.39038 154.121 -2.60701 151.603C-1.89515 151.229 -1.22347 150.875 -0.597801 150.537C1.36028 152.169 5.95523 156.333 8.67043 159.936C11.3856 163.539 13.5874 167.92 14.3488 169.661C12.456 171.575 7.95247 176.083 5.08062 178.798C2.20878 181.514 -1.38102 184.76 -2.81695 186.043C-2.3383 186.783 -1.06773 188.628 0.18544 190.09C1.43861 191.552 2.70918 192.788 3.18782 193.223C5.42873 191.657 11.2551 187.388 16.6333 182.845C22.0114 178.302 26.7935 173.642 28.5123 171.88C26.9893 168.529 22.2334 159.74 15.3932 151.385C8.55294 143.031 1.88243 135.895 -0.597801 133.371L-31.5354 159.414C-30.5999 155.128 -26.7577 143.919 -18.8732 133.371C-10.9887 122.824 -3.40437 114.617 -0.597801 111.832C4.3409 117.032 17.3121 132.222 29.6871 151.385C42.0621 170.548 50.3774 190.308 52.9882 197.792L68.0001 176.971ZM-69 176.84C-65.519 182.649 -55.6459 197.544 -42.6965 212.216C-29.7471 226.889 -9.06114 243.611 -0.4021 249.811C5.7332 245.264 19.8444 234.29 27.2068 226.771C34.5691 219.252 43.9374 209.192 47.7013 205.102C46.7222 201.664 44.2159 193.406 42.0229 187.871C39.8298 182.336 36.7578 176.471 35.4959 174.23C32.4501 177.645 24.7376 185.272 19.6355 190.025C12.9883 196.218 6.39046 199.69 1.60707 202.208C0.895226 202.583 0.223564 202.936 -0.4021 203.274C-2.36018 201.643 -6.95512 197.479 -9.67032 193.876C-12.3855 190.273 -14.5873 185.891 -15.3487 184.151C-13.4559 182.236 -8.95236 177.728 -6.08052 175.013C-3.20867 172.298 0.381126 169.052 1.81705 167.768C1.33841 167.028 0.0678406 165.183 -1.18533 163.721C-2.4385 162.259 -3.70907 161.024 -4.18771 160.588C-6.42862 162.155 -12.255 166.423 -17.6332 170.966C-23.0113 175.509 -27.7934 180.169 -29.5121 181.931C-27.9892 185.282 -23.2333 194.071 -16.393 202.426C-9.55284 210.78 -2.88233 217.916 -0.4021 220.44L30.5355 194.398C29.6 198.684 25.7578 209.893 17.8733 220.44C9.98875 230.988 2.40447 239.194 -0.4021 241.979C-5.3408 236.779 -18.312 221.589 -30.687 202.426C-43.062 183.263 -51.3773 163.504 -53.9881 156.02L-69 176.84Z" fill="#E6B639"/>
<path fill-rule="evenodd" clip-rule="evenodd" d="M68.0001 351.971C64.5191 346.162 54.646 331.268 41.6966 316.595C28.7472 301.923 8.06124 285.201 -0.597801 279C-6.7331 283.547 -20.8443 294.521 -28.2067 302.04C-35.569 309.559 -44.9373 319.619 -48.7012 323.709C-47.7221 327.147 -45.2158 335.406 -43.0228 340.94C-40.8297 346.475 -37.7577 352.341 -36.4958 354.582C-33.4499 351.166 -25.7375 343.54 -20.6354 338.787C-13.9882 332.594 -7.39038 329.121 -2.60701 326.603C-1.89515 326.229 -1.22347 325.875 -0.597801 325.537C1.36028 327.169 5.95523 331.333 8.67043 334.936C11.3856 338.539 13.5874 342.92 14.3488 344.661C12.456 346.575 7.95247 351.083 5.08062 353.798C2.20878 356.514 -1.38102 359.76 -2.81695 361.043C-2.3383 361.783 -1.06773 363.628 0.18544 365.09C1.43861 366.552 2.70918 367.788 3.18782 368.223C5.42873 366.657 11.2551 362.388 16.6333 357.845C22.0114 353.302 26.7935 348.642 28.5123 346.88C26.9893 343.529 22.2334 334.74 15.3932 326.385C8.55294 318.031 1.88243 310.895 -0.597801 308.371L-31.5354 334.414C-30.5999 330.128 -26.7577 318.919 -18.8732 308.371C-10.9887 297.824 -3.40437 289.617 -0.597801 286.832C4.3409 292.032 17.3121 307.222 29.6871 326.385C42.0621 345.548 50.3774 365.308 52.9882 372.792L68.0001 351.971ZM-69 351.84C-65.519 357.649 -55.6459 372.544 -42.6965 387.216C-29.7471 401.889 -9.06114 418.611 -0.4021 424.811C5.7332 420.264 19.8444 409.29 27.2068 401.771C34.5691 394.252 43.9374 384.192 47.7013 380.102C46.7222 376.664 44.2159 368.406 42.0229 362.871C39.8298 357.336 36.7578 351.471 35.4959 349.23C32.4501 352.645 24.7376 360.272 19.6355 365.025C12.9883 371.218 6.39046 374.69 1.60707 377.208C0.895226 377.583 0.223564 377.936 -0.4021 378.274C-2.36018 376.643 -6.95512 372.479 -9.67032 368.876C-12.3855 365.273 -14.5873 360.891 -15.3487 359.151C-13.4559 357.236 -8.95236 352.728 -6.08052 350.013C-3.20867 347.298 0.381126 344.052 1.81705 342.768C1.33841 342.028 0.0678406 340.183 -1.18533 338.721C-2.4385 337.259 -3.70907 336.024 -4.18771 335.588C-6.42862 337.155 -12.255 341.423 -17.6332 345.966C-23.0113 350.509 -27.7934 355.169 -29.5121 356.931C-27.9892 360.282 -23.2333 369.071 -16.393 377.426C-9.55284 385.78 -2.88233 392.916 -0.4021 395.44L30.5355 369.398C29.6 373.684 25.7578 384.893 17.8733 395.44C9.98875 405.988 2.40447 414.194 -0.4021 416.979C-5.3408 411.779 -18.312 396.589 -30.687 377.426C-43.062 358.263 -51.3773 338.504 -53.9881 331.02L-69 351.84Z" fill="#E6B639"/>
<path fill-rule="evenodd" clip-rule="evenodd" d="M68.0001 526.971C64.5191 521.162 54.646 506.268 41.6966 491.595C28.7472 476.923 8.06124 460.201 -0.597801 454C-6.7331 458.547 -20.8443 469.521 -28.2067 477.04C-35.569 484.559 -44.9373 494.619 -48.7012 498.709C-47.7221 502.147 -45.2158 510.406 -43.0228 515.94C-40.8297 521.475 -37.7577 527.341 -36.4958 529.582C-33.4499 526.166 -25.7375 518.54 -20.6354 513.787C-13.9882 507.594 -7.39038 504.121 -2.60701 501.603C-1.89515 501.229 -1.22347 500.875 -0.597801 500.537C1.36028 502.169 5.95523 506.333 8.67043 509.936C11.3856 513.539 13.5874 517.92 14.3488 519.661C12.456 521.575 7.95247 526.083 5.08062 528.798C2.20878 531.514 -1.38102 534.76 -2.81695 536.043C-2.3383 536.783 -1.06773 538.628 0.18544 540.09C1.43861 541.552 2.70918 542.788 3.18782 543.223C5.42873 541.657 11.2551 537.388 16.6333 532.845C22.0114 528.302 26.7935 523.642 28.5123 521.88C26.9893 518.529 22.2334 509.74 15.3932 501.385C8.55294 493.031 1.88243 485.895 -0.597801 483.371L-31.5354 509.414C-30.5999 505.128 -26.7577 493.919 -18.8732 483.371C-10.9887 472.824 -3.40437 464.617 -0.597801 461.832C4.3409 467.032 17.3121 482.222 29.6871 501.385C42.0621 520.548 50.3774 540.308 52.9882 547.792L68.0001 526.971ZM-69 526.84C-65.519 532.649 -55.6459 547.544 -42.6965 562.216C-29.7471 576.889 -9.06114 593.611 -0.4021 599.811C5.7332 595.264 19.8444 584.29 27.2068 576.771C34.5691 569.252 43.9374 559.192 47.7013 555.102C46.7222 551.664 44.2159 543.406 42.0229 537.871C39.8298 532.336 36.7578 526.471 35.4959 524.23C32.4501 527.645 24.7376 535.272 19.6355 540.025C12.9883 546.218 6.39046 549.69 1.60707 552.208C0.895226 552.583 0.223564 552.936 -0.4021 553.274C-2.36018 551.643 -6.95512 547.479 -9.67032 543.876C-12.3855 540.273 -14.5873 535.891 -15.3487 534.151C-13.4559 532.236 -8.95236 527.728 -6.08052 525.013C-3.20867 522.298 0.381126 519.052 1.81705 517.768C1.33841 517.028 0.0678406 515.183 -1.18533 513.721C-2.4385 512.259 -3.70907 511.024 -4.18771 510.588C-6.42862 512.155 -12.255 516.423 -17.6332 520.966C-23.0113 525.509 -27.7934 530.169 -29.5121 531.931C-27.9892 535.282 -23.2333 544.071 -16.393 552.426C-9.55284 560.78 -2.88233 567.916 -0.4021 570.44L30.5355 544.398C29.6 548.684 25.7578 559.893 17.8733 570.44C9.98875 580.988 2.40447 589.194 -0.4021 591.979C-5.3408 586.779 -18.312 571.589 -30.687 552.426C-43.062 533.263 -51.3773 513.504 -53.9881 506.02L-69 526.84Z" fill="#E6B639"/>
<path fill-rule="evenodd" clip-rule="evenodd" d="M68.0001 701.971C64.5191 696.162 54.646 681.268 41.6966 666.595C28.7472 651.923 8.06124 635.201 -0.597801 629C-6.7331 633.547 -20.8443 644.521 -28.2067 652.04C-35.569 659.559 -44.9373 669.619 -48.7012 673.709C-47.7221 677.147 -45.2158 685.406 -43.0228 690.94C-40.8297 696.475 -37.7577 702.341 -36.4958 704.582C-33.4499 701.166 -25.7375 693.54 -20.6354 688.787C-13.9882 682.594 -7.39038 679.121 -2.60701 676.603C-1.89515 676.229 -1.22347 675.875 -0.597801 675.537C1.36028 677.169 5.95523 681.333 8.67043 684.936C11.3856 688.539 13.5874 692.92 14.3488 694.661C12.456 696.575 7.95247 701.083 5.08062 703.798C2.20878 706.514 -1.38102 709.76 -2.81695 711.043C-2.3383 711.783 -1.06773 713.628 0.18544 715.09C1.43861 716.552 2.70918 717.788 3.18782 718.223C5.42873 716.657 11.2551 712.388 16.6333 707.845C22.0114 703.302 26.7935 698.642 28.5123 696.88C26.9893 693.529 22.2334 684.74 15.3932 676.385C8.55294 668.031 1.88243 660.895 -0.597801 658.371L-31.5354 684.414C-30.5999 680.128 -26.7577 668.919 -18.8732 658.371C-10.9887 647.824 -3.40437 639.617 -0.597801 636.832C4.3409 642.032 17.3121 657.222 29.6871 676.385C42.0621 695.548 50.3774 715.308 52.9882 722.792L68.0001 701.971ZM-69 701.84C-65.519 707.649 -55.6459 722.544 -42.6965 737.216C-29.7471 751.889 -9.06114 768.611 -0.4021 774.811C5.7332 770.264 19.8444 759.29 27.2068 751.771C34.5691 744.252 43.9374 734.192 47.7013 730.102C46.7222 726.664 44.2159 718.406 42.0229 712.871C39.8298 707.336 36.7578 701.471 35.4959 699.23C32.4501 702.645 24.7376 710.272 19.6355 715.025C12.9883 721.218 6.39046 724.69 1.60707 727.208C0.895226 727.583 0.223564 727.936 -0.4021 728.274C-2.36018 726.643 -6.95512 722.479 -9.67032 718.876C-12.3855 715.273 -14.5873 710.891 -15.3487 709.151C-13.4559 707.236 -8.95236 702.728 -6.08052 700.013C-3.20867 697.298 0.381126 694.052 1.81705 692.768C1.33841 692.028 0.0678406 690.183 -1.18533 688.721C-2.4385 687.259 -3.70907 686.024 -4.18771 685.588C-6.42862 687.155 -12.255 691.423 -17.6332 695.966C-23.0113 700.509 -27.7934 705.169 -29.5121 706.931C-27.9892 710.282 -23.2333 719.071 -16.393 727.426C-9.55284 735.78 -2.88233 742.916 -0.4021 745.44L30.5355 719.398C29.6 723.684 25.7578 734.893 17.8733 745.44C9.98875 755.988 2.40447 764.194 -0.4021 766.979C-5.3408 761.779 -18.312 746.589 -30.687 727.426C-43.062 708.263 -51.3773 688.504 -53.9881 681.02L-69 701.84Z" fill="#E6B639"/>
<path fill-rule="evenodd" clip-rule="evenodd" d="M68.0001 876.971C64.5191 871.162 54.646 856.268 41.6966 841.595C28.7472 826.923 8.06124 810.201 -0.597801 804C-6.7331 808.547 -20.8443 819.521 -28.2067 827.04C-35.569 834.559 -44.9373 844.619 -48.7012 848.709C-47.7221 852.147 -45.2158 860.406 -43.0228 865.94C-40.8297 871.475 -37.7577 877.341 -36.4958 879.582C-33.4499 876.166 -25.7375 868.54 -20.6354 863.787C-13.9882 857.594 -7.39038 854.121 -2.60701 851.603C-1.89515 851.229 -1.22347 850.875 -0.597801 850.537C1.36028 852.169 5.95523 856.333 8.67043 859.936C11.3856 863.539 13.5874 867.92 14.3488 869.661C12.456 871.575 7.95247 876.083 5.08062 878.798C2.20878 881.514 -1.38102 884.76 -2.81695 886.043C-2.3383 886.783 -1.06773 888.628 0.18544 890.09C1.43861 891.552 2.70918 892.788 3.18782 893.223C5.42873 891.657 11.2551 887.388 16.6333 882.845C22.0114 878.302 26.7935 873.642 28.5123 871.88C26.9893 868.529 22.2334 859.74 15.3932 851.385C8.55294 843.031 1.88243 835.895 -0.597801 833.371L-31.5354 859.414C-30.5999 855.128 -26.7577 843.919 -18.8732 833.371C-10.9887 822.824 -3.40437 814.617 -0.597801 811.832C4.3409 817.032 17.3121 832.222 29.6871 851.385C42.0621 870.548 50.3774 890.308 52.9882 897.792L68.0001 876.971ZM-69 876.84C-65.519 882.649 -55.6459 897.544 -42.6965 912.216C-29.7471 926.889 -9.06114 943.611 -0.4021 949.811C5.7332 945.264 19.8444 934.29 27.2068 926.771C34.5691 919.252 43.9374 909.192 47.7013 905.102C46.7222 901.664 44.2159 893.406 42.0229 887.871C39.8298 882.336 36.7578 876.471 35.4959 874.23C32.4501 877.645 24.7376 885.272 19.6355 890.025C12.9883 896.218 6.39046 899.69 1.60707 902.208C0.895226 902.583 0.223564 902.936 -0.4021 903.274C-2.36018 901.643 -6.95512 897.479 -9.67032 893.876C-12.3855 890.273 -14.5873 885.891 -15.3487 884.151C-13.4559 882.236 -8.95236 877.728 -6.08052 875.013C-3.20867 872.298 0.381126 869.052 1.81705 867.768C1.33841 867.028 0.0678406 865.183 -1.18533 863.721C-2.4385 862.259 -3.70907 861.024 -4.18771 860.588C-6.42862 862.155 -12.255 866.423 -17.6332 870.966C-23.0113 875.509 -27.7934 880.169 -29.5121 881.931C-27.9892 885.282 -23.2333 894.071 -16.393 902.426C-9.55284 910.78 -2.88233 917.916 -0.4021 920.44L30.5355 894.398C29.6 898.684 25.7578 909.893 17.8733 920.44C9.98875 930.988 2.40447 939.194 -0.4021 941.979C-5.3408 936.779 -18.312 921.589 -30.687 902.426C-43.062 883.263 -51.3773 863.504 -53.9881 856.02L-69 876.84Z" fill="#E6B639"/>
<path fill-rule="evenodd" clip-rule="evenodd" d="M68.0001 1051.97C64.5191 1046.16 54.646 1031.27 41.6966 1016.6C28.7472 1001.92 8.06124 985.201 -0.597801 979C-6.7331 983.547 -20.8443 994.521 -28.2067 1002.04C-35.569 1009.56 -44.9373 1019.62 -48.7012 1023.71C-47.7221 1027.15 -45.2158 1035.41 -43.0228 1040.94C-40.8297 1046.48 -37.7577 1052.34 -36.4958 1054.58C-33.4499 1051.17 -25.7375 1043.54 -20.6354 1038.79C-13.9882 1032.59 -7.39038 1029.12 -2.60701 1026.6C-1.89515 1026.23 -1.22347 1025.88 -0.597801 1025.54C1.36028 1027.17 5.95523 1031.33 8.67043 1034.94C11.3856 1038.54 13.5874 1042.92 14.3488 1044.66C12.456 1046.58 7.95247 1051.08 5.08062 1053.8C2.20878 1056.51 -1.38102 1059.76 -2.81695 1061.04C-2.3383 1061.78 -1.06773 1063.63 0.18544 1065.09C1.43861 1066.55 2.70918 1067.79 3.18782 1068.22C5.42873 1066.66 11.2551 1062.39 16.6333 1057.85C22.0114 1053.3 26.7935 1048.64 28.5123 1046.88C26.9893 1043.53 22.2334 1034.74 15.3932 1026.39C8.55294 1018.03 1.88243 1010.89 -0.597801 1008.37L-31.5354 1034.41C-30.5999 1030.13 -26.7577 1018.92 -18.8732 1008.37C-10.9887 997.824 -3.40437 989.617 -0.597801 986.832C4.3409 992.032 17.3121 1007.22 29.6871 1026.39C42.0621 1045.55 50.3774 1065.31 52.9882 1072.79L68.0001 1051.97ZM-69 1051.84C-65.519 1057.65 -55.6459 1072.54 -42.6965 1087.22C-29.7471 1101.89 -9.06114 1118.61 -0.4021 1124.81C5.7332 1120.26 19.8444 1109.29 27.2068 1101.77C34.5691 1094.25 43.9374 1084.19 47.7013 1080.1C46.7222 1076.66 44.2159 1068.41 42.0229 1062.87C39.8298 1057.34 36.7578 1051.47 35.4959 1049.23C32.4501 1052.65 24.7376 1060.27 19.6355 1065.02C12.9883 1071.22 6.39046 1074.69 1.60707 1077.21C0.895226 1077.58 0.223564 1077.94 -0.4021 1078.27C-2.36018 1076.64 -6.95512 1072.48 -9.67032 1068.88C-12.3855 1065.27 -14.5873 1060.89 -15.3487 1059.15C-13.4559 1057.24 -8.95236 1052.73 -6.08052 1050.01C-3.20867 1047.3 0.381126 1044.05 1.81705 1042.77C1.33841 1042.03 0.0678406 1040.18 -1.18533 1038.72C-2.4385 1037.26 -3.70907 1036.02 -4.18771 1035.59C-6.42862 1037.15 -12.255 1041.42 -17.6332 1045.97C-23.0113 1050.51 -27.7934 1055.17 -29.5121 1056.93C-27.9892 1060.28 -23.2333 1069.07 -16.393 1077.43C-9.55284 1085.78 -2.88233 1092.92 -0.4021 1095.44L30.5355 1069.4C29.6 1073.68 25.7578 1084.89 17.8733 1095.44C9.98875 1105.99 2.40447 1114.19 -0.4021 1116.98C-5.3408 1111.78 -18.312 1096.59 -30.687 1077.43C-43.062 1058.26 -51.3773 1038.5 -53.9881 1031.02L-69 1051.84Z" fill="#E6B639"/>
<path fill-rule="evenodd" clip-rule="evenodd" d="M68.0001 1226.97C64.5191 1221.16 54.646 1206.27 41.6966 1191.6C28.7472 1176.92 8.06124 1160.2 -0.597801 1154C-6.7331 1158.55 -20.8443 1169.52 -28.2067 1177.04C-35.569 1184.56 -44.9373 1194.62 -48.7012 1198.71C-47.7221 1202.15 -45.2158 1210.41 -43.0228 1215.94C-40.8297 1221.48 -37.7577 1227.34 -36.4958 1229.58C-33.4499 1226.17 -25.7375 1218.54 -20.6354 1213.79C-13.9882 1207.59 -7.39038 1204.12 -2.60701 1201.6C-1.89515 1201.23 -1.22347 1200.88 -0.597801 1200.54C1.36028 1202.17 5.95523 1206.33 8.67043 1209.94C11.3856 1213.54 13.5874 1217.92 14.3488 1219.66C12.456 1221.58 7.95247 1226.08 5.08062 1228.8C2.20878 1231.51 -1.38102 1234.76 -2.81695 1236.04C-2.3383 1236.78 -1.06773 1238.63 0.18544 1240.09C1.43861 1241.55 2.70918 1242.79 3.18782 1243.22C5.42873 1241.66 11.2551 1237.39 16.6333 1232.85C22.0114 1228.3 26.7935 1223.64 28.5123 1221.88C26.9893 1218.53 22.2334 1209.74 15.3932 1201.39C8.55294 1193.03 1.88243 1185.89 -0.597801 1183.37L-31.5354 1209.41C-30.5999 1205.13 -26.7577 1193.92 -18.8732 1183.37C-10.9887 1172.82 -3.40437 1164.62 -0.597801 1161.83C4.3409 1167.03 17.3121 1182.22 29.6871 1201.39C42.0621 1220.55 50.3774 1240.31 52.9882 1247.79L68.0001 1226.97ZM-69 1226.84C-65.519 1232.65 -55.6459 1247.54 -42.6965 1262.22C-29.7471 1276.89 -9.06114 1293.61 -0.4021 1299.81C5.7332 1295.26 19.8444 1284.29 27.2068 1276.77C34.5691 1269.25 43.9374 1259.19 47.7013 1255.1C46.7222 1251.66 44.2159 1243.41 42.0229 1237.87C39.8298 1232.34 36.7578 1226.47 35.4959 1224.23C32.4501 1227.65 24.7376 1235.27 19.6355 1240.02C12.9883 1246.22 6.39046 1249.69 1.60707 1252.21C0.895226 1252.58 0.223564 1252.94 -0.4021 1253.27C-2.36018 1251.64 -6.95512 1247.48 -9.67032 1243.88C-12.3855 1240.27 -14.5873 1235.89 -15.3487 1234.15C-13.4559 1232.24 -8.95236 1227.73 -6.08052 1225.01C-3.20867 1222.3 0.381126 1219.05 1.81705 1217.77C1.33841 1217.03 0.0678406 1215.18 -1.18533 1213.72C-2.4385 1212.26 -3.70907 1211.02 -4.18771 1210.59C-6.42862 1212.15 -12.255 1216.42 -17.6332 1220.97C-23.0113 1225.51 -27.7934 1230.17 -29.5121 1231.93C-27.9892 1235.28 -23.2333 1244.07 -16.393 1252.43C-9.55284 1260.78 -2.88233 1267.92 -0.4021 1270.44L30.5355 1244.4C29.6 1248.68 25.7578 1259.89 17.8733 1270.44C9.98875 1280.99 2.40447 1289.19 -0.4021 1291.98C-5.3408 1286.78 -18.312 1271.59 -30.687 1252.43C-43.062 1233.26 -51.3773 1213.5 -53.9881 1206.02L-69 1226.84Z" fill="#E6B639"/>
<path fill-rule="evenodd" clip-rule="evenodd" d="M68.0001 1401.97C64.5191 1396.16 54.646 1381.27 41.6966 1366.6C28.7472 1351.92 8.06124 1335.2 -0.597801 1329C-6.7331 1333.55 -20.8443 1344.52 -28.2067 1352.04C-35.569 1359.56 -44.9373 1369.62 -48.7012 1373.71C-47.7221 1377.15 -45.2158 1385.41 -43.0228 1390.94C-40.8297 1396.48 -37.7577 1402.34 -36.4958 1404.58C-33.4499 1401.17 -25.7375 1393.54 -20.6354 1388.79C-13.9882 1382.59 -7.39038 1379.12 -2.60701 1376.6C-1.89515 1376.23 -1.22347 1375.88 -0.597801 1375.54C1.36028 1377.17 5.95523 1381.33 8.67043 1384.94C11.3856 1388.54 13.5874 1392.92 14.3488 1394.66C12.456 1396.58 7.95247 1401.08 5.08062 1403.8C2.20878 1406.51 -1.38102 1409.76 -2.81695 1411.04C-2.3383 1411.78 -1.06773 1413.63 0.18544 1415.09C1.43861 1416.55 2.70918 1417.79 3.18782 1418.22C5.42873 1416.66 11.2551 1412.39 16.6333 1407.85C22.0114 1403.3 26.7935 1398.64 28.5123 1396.88C26.9893 1393.53 22.2334 1384.74 15.3932 1376.39C8.55294 1368.03 1.88243 1360.89 -0.597801 1358.37L-31.5354 1384.41C-30.5999 1380.13 -26.7577 1368.92 -18.8732 1358.37C-10.9887 1347.82 -3.40437 1339.62 -0.597801 1336.83C4.3409 1342.03 17.3121 1357.22 29.6871 1376.39C42.0621 1395.55 50.3774 1415.31 52.9882 1422.79L68.0001 1401.97ZM-69 1401.84C-65.519 1407.65 -55.6459 1422.54 -42.6965 1437.22C-29.7471 1451.89 -9.06114 1468.61 -0.4021 1474.81C5.7332 1470.26 19.8444 1459.29 27.2068 1451.77C34.5691 1444.25 43.9374 1434.19 47.7013 1430.1C46.7222 1426.66 44.2159 1418.41 42.0229 1412.87C39.8298 1407.34 36.7578 1401.47 35.4959 1399.23C32.4501 1402.65 24.7376 1410.27 19.6355 1415.02C12.9883 1421.22 6.39046 1424.69 1.60707 1427.21C0.895226 1427.58 0.223564 1427.94 -0.4021 1428.27C-2.36018 1426.64 -6.95512 1422.48 -9.67032 1418.88C-12.3855 1415.27 -14.5873 1410.89 -15.3487 1409.15C-13.4559 1407.24 -8.95236 1402.73 -6.08052 1400.01C-3.20867 1397.3 0.381126 1394.05 1.81705 1392.77C1.33841 1392.03 0.0678406 1390.18 -1.18533 1388.72C-2.4385 1387.26 -3.70907 1386.02 -4.18771 1385.59C-6.42862 1387.15 -12.255 1391.42 -17.6332 1395.97C-23.0113 1400.51 -27.7934 1405.17 -29.5121 1406.93C-27.9892 1410.28 -23.2333 1419.07 -16.393 1427.43C-9.55284 1435.78 -2.88233 1442.92 -0.4021 1445.44L30.5355 1419.4C29.6 1423.68 25.7578 1434.89 17.8733 1445.44C9.98875 1455.99 2.40447 1464.19 -0.4021 1466.98C-5.3408 1461.78 -18.312 1446.59 -30.687 1427.43C-43.062 1408.26 -51.3773 1388.5 -53.9881 1381.02L-69 1401.84Z" fill="#E6B639"/>
<path fill-rule="evenodd" clip-rule="evenodd" d="M68.0001 1576.97C64.5191 1571.16 54.646 1556.27 41.6966 1541.6C28.7472 1526.92 8.06124 1510.2 -0.597801 1504C-6.7331 1508.55 -20.8443 1519.52 -28.2067 1527.04C-35.569 1534.56 -44.9373 1544.62 -48.7012 1548.71C-47.7221 1552.15 -45.2158 1560.41 -43.0228 1565.94C-40.8297 1571.48 -37.7577 1577.34 -36.4958 1579.58C-33.4499 1576.17 -25.7375 1568.54 -20.6354 1563.79C-13.9882 1557.59 -7.39038 1554.12 -2.60701 1551.6C-1.89515 1551.23 -1.22347 1550.88 -0.597801 1550.54C1.36028 1552.17 5.95523 1556.33 8.67043 1559.94C11.3856 1563.54 13.5874 1567.92 14.3488 1569.66C12.456 1571.58 7.95247 1576.08 5.08062 1578.8C2.20878 1581.51 -1.38102 1584.76 -2.81695 1586.04C-2.3383 1586.78 -1.06773 1588.63 0.18544 1590.09C1.43861 1591.55 2.70918 1592.79 3.18782 1593.22C5.42873 1591.66 11.2551 1587.39 16.6333 1582.85C22.0114 1578.3 26.7935 1573.64 28.5123 1571.88C26.9893 1568.53 22.2334 1559.74 15.3932 1551.39C8.55294 1543.03 1.88243 1535.89 -0.597801 1533.37L-31.5354 1559.41C-30.5999 1555.13 -26.7577 1543.92 -18.8732 1533.37C-10.9887 1522.82 -3.40437 1514.62 -0.597801 1511.83C4.3409 1517.03 17.3121 1532.22 29.6871 1551.39C42.0621 1570.55 50.3774 1590.31 52.9882 1597.79L68.0001 1576.97ZM-69 1576.84C-65.519 1582.65 -55.6459 1597.54 -42.6965 1612.22C-29.7471 1626.89 -9.06114 1643.61 -0.4021 1649.81C5.7332 1645.26 19.8444 1634.29 27.2068 1626.77C34.5691 1619.25 43.9374 1609.19 47.7013 1605.1C46.7222 1601.66 44.2159 1593.41 42.0229 1587.87C39.8298 1582.34 36.7578 1576.47 35.4959 1574.23C32.4501 1577.65 24.7376 1585.27 19.6355 1590.02C12.9883 1596.22 6.39046 1599.69 1.60707 1602.21C0.895226 1602.58 0.223564 1602.94 -0.4021 1603.27C-2.36018 1601.64 -6.95512 1597.48 -9.67032 1593.88C-12.3855 1590.27 -14.5873 1585.89 -15.3487 1584.15C-13.4559 1582.24 -8.95236 1577.73 -6.08052 1575.01C-3.20867 1572.3 0.381126 1569.05 1.81705 1567.77C1.33841 1567.03 0.0678406 1565.18 -1.18533 1563.72C-2.4385 1562.26 -3.70907 1561.02 -4.18771 1560.59C-6.42862 1562.15 -12.255 1566.42 -17.6332 1570.97C-23.0113 1575.51 -27.7934 1580.17 -29.5121 1581.93C-27.9892 1585.28 -23.2333 1594.07 -16.393 1602.43C-9.55284 1610.78 -2.88233 1617.92 -0.4021 1620.44L30.5355 1594.4C29.6 1598.68 25.7578 1609.89 17.8733 1620.44C9.98875 1630.99 2.40447 1639.19 -0.4021 1641.98C-5.3408 1636.78 -18.312 1621.59 -30.687 1602.43C-43.062 1583.26 -51.3773 1563.5 -53.9881 1556.02L-69 1576.84Z" fill="#E6B639"/>
</g>
</g>
</svg>
