<svg width="80" height="1600" viewBox="0 0 80 1600" fill="none" xmlns="http://www.w3.org/2000/svg">
<g opacity="0.08">
<mask id="mask0_601_9644" style="mask-type:alpha" maskUnits="userSpaceOnUse" x="0" y="0" width="80" height="1600">
<rect x="80" y="1600" width="80" height="1600" transform="rotate(180 80 1600)" fill="#C4C4C4"/>
</mask>
<g mask="url(#mask0_601_9644)">
<path fill-rule="evenodd" clip-rule="evenodd" d="M11.9999 1598.03C15.4809 1603.84 25.354 1618.73 38.3034 1633.4C51.2528 1648.08 71.9388 1664.8 80.5978 1671C86.7331 1666.45 100.844 1655.48 108.207 1647.96C115.569 1640.44 124.937 1630.38 128.701 1626.29C127.722 1622.85 125.216 1614.59 123.023 1609.06C120.83 1603.52 117.758 1597.66 116.496 1595.42C113.45 1598.83 105.737 1606.46 100.635 1611.21C93.9882 1617.41 87.3904 1620.88 82.607 1623.4C81.8951 1623.77 81.2235 1624.12 80.5978 1624.46C78.6397 1622.83 74.0448 1618.67 71.3296 1615.06C68.6144 1611.46 66.4126 1607.08 65.6512 1605.34C67.544 1603.42 72.0475 1598.92 74.9194 1596.2C77.7912 1593.49 81.381 1590.24 82.8169 1588.96C82.3383 1588.22 81.0677 1586.37 79.8146 1584.91C78.5614 1583.45 77.2908 1582.21 76.8122 1581.78C74.5713 1583.34 68.7449 1587.61 63.3667 1592.15C57.9886 1596.7 53.2065 1601.36 51.4877 1603.12C53.0107 1606.47 57.7666 1615.26 64.6068 1623.61C71.4471 1631.97 78.1176 1639.11 80.5978 1641.63L111.535 1615.59C110.6 1619.87 106.758 1631.08 98.8732 1641.63C90.9887 1652.18 83.4044 1660.38 80.5978 1663.17C75.6591 1657.97 62.6879 1642.78 50.3129 1623.61C37.9379 1604.45 29.6226 1584.69 27.0118 1577.21L11.9999 1598.03ZM149 1598.16C145.519 1592.35 135.646 1577.46 122.697 1562.78C109.747 1548.11 89.0611 1531.39 80.4021 1525.19C74.2668 1529.74 60.1556 1540.71 52.7932 1548.23C45.4309 1555.75 36.0626 1565.81 32.2987 1569.9C33.2778 1573.34 35.7841 1581.59 37.9771 1587.13C40.1702 1592.66 43.2422 1598.53 44.5041 1600.77C47.5499 1597.35 55.2624 1589.73 60.3645 1584.98C67.0117 1578.78 73.6095 1575.31 78.3929 1572.79C79.1048 1572.42 79.7764 1572.06 80.4021 1571.73C82.3602 1573.36 86.9551 1577.52 89.6703 1581.12C92.3855 1584.73 94.5873 1589.11 95.3487 1590.85C93.4559 1592.76 88.9524 1597.27 86.0805 1599.99C83.2087 1602.7 79.6189 1605.95 78.1829 1607.23C78.6616 1607.97 79.9322 1609.82 81.1853 1611.28C82.4385 1612.74 83.7091 1613.98 84.1877 1614.41C86.4286 1612.85 92.255 1608.58 97.6332 1604.03C103.011 1599.49 107.793 1594.83 109.512 1593.07C107.989 1589.72 103.233 1580.93 96.393 1572.57C89.5528 1564.22 82.8823 1557.08 80.4021 1554.56L49.4645 1580.6C50.4 1576.32 54.2422 1565.11 62.1267 1554.56C70.0112 1544.01 77.5955 1535.81 80.4021 1533.02C85.3408 1538.22 98.312 1553.41 110.687 1572.57C123.062 1591.74 131.377 1611.5 133.988 1618.98L149 1598.16Z" fill="#E6B639"/>
<path fill-rule="evenodd" clip-rule="evenodd" d="M11.9999 1423.03C15.4809 1428.84 25.354 1443.73 38.3034 1458.4C51.2528 1473.08 71.9388 1489.8 80.5978 1496C86.7331 1491.45 100.844 1480.48 108.207 1472.96C115.569 1465.44 124.937 1455.38 128.701 1451.29C127.722 1447.85 125.216 1439.59 123.023 1434.06C120.83 1428.52 117.758 1422.66 116.496 1420.42C113.45 1423.83 105.737 1431.46 100.635 1436.21C93.9882 1442.41 87.3904 1445.88 82.607 1448.4C81.8951 1448.77 81.2235 1449.12 80.5978 1449.46C78.6397 1447.83 74.0448 1443.67 71.3296 1440.06C68.6144 1436.46 66.4126 1432.08 65.6512 1430.34C67.544 1428.42 72.0475 1423.92 74.9194 1421.2C77.7912 1418.49 81.381 1415.24 82.8169 1413.96C82.3383 1413.22 81.0677 1411.37 79.8146 1409.91C78.5614 1408.45 77.2908 1407.21 76.8122 1406.78C74.5713 1408.34 68.7449 1412.61 63.3667 1417.15C57.9886 1421.7 53.2065 1426.36 51.4877 1428.12C53.0107 1431.47 57.7666 1440.26 64.6068 1448.61C71.4471 1456.97 78.1176 1464.11 80.5978 1466.63L111.535 1440.59C110.6 1444.87 106.758 1456.08 98.8732 1466.63C90.9887 1477.18 83.4044 1485.38 80.5978 1488.17C75.6591 1482.97 62.6879 1467.78 50.3129 1448.61C37.9379 1429.45 29.6226 1409.69 27.0118 1402.21L11.9999 1423.03ZM149 1423.16C145.519 1417.35 135.646 1402.46 122.697 1387.78C109.747 1373.11 89.0611 1356.39 80.4021 1350.19C74.2668 1354.74 60.1556 1365.71 52.7932 1373.23C45.4309 1380.75 36.0626 1390.81 32.2987 1394.9C33.2778 1398.34 35.7841 1406.59 37.9771 1412.13C40.1702 1417.66 43.2422 1423.53 44.5041 1425.77C47.5499 1422.35 55.2624 1414.73 60.3645 1409.98C67.0117 1403.78 73.6095 1400.31 78.3929 1397.79C79.1048 1397.42 79.7764 1397.06 80.4021 1396.73C82.3602 1398.36 86.9551 1402.52 89.6703 1406.12C92.3855 1409.73 94.5873 1414.11 95.3487 1415.85C93.4559 1417.76 88.9524 1422.27 86.0805 1424.99C83.2087 1427.7 79.6189 1430.95 78.1829 1432.23C78.6616 1432.97 79.9322 1434.82 81.1853 1436.28C82.4385 1437.74 83.7091 1438.98 84.1877 1439.41C86.4286 1437.85 92.255 1433.58 97.6332 1429.03C103.011 1424.49 107.793 1419.83 109.512 1418.07C107.989 1414.72 103.233 1405.93 96.393 1397.57C89.5528 1389.22 82.8823 1382.08 80.4021 1379.56L49.4645 1405.6C50.4 1401.32 54.2422 1390.11 62.1267 1379.56C70.0112 1369.01 77.5955 1360.81 80.4021 1358.02C85.3408 1363.22 98.312 1378.41 110.687 1397.57C123.062 1416.74 131.377 1436.5 133.988 1443.98L149 1423.16Z" fill="#E6B639"/>
<path fill-rule="evenodd" clip-rule="evenodd" d="M11.9999 1248.03C15.4809 1253.84 25.354 1268.73 38.3034 1283.4C51.2528 1298.08 71.9388 1314.8 80.5978 1321C86.7331 1316.45 100.844 1305.48 108.207 1297.96C115.569 1290.44 124.937 1280.38 128.701 1276.29C127.722 1272.85 125.216 1264.59 123.023 1259.06C120.83 1253.52 117.758 1247.66 116.496 1245.42C113.45 1248.83 105.737 1256.46 100.635 1261.21C93.9882 1267.41 87.3904 1270.88 82.607 1273.4C81.8951 1273.77 81.2235 1274.12 80.5978 1274.46C78.6397 1272.83 74.0448 1268.67 71.3296 1265.06C68.6144 1261.46 66.4126 1257.08 65.6512 1255.34C67.544 1253.42 72.0475 1248.92 74.9194 1246.2C77.7912 1243.49 81.381 1240.24 82.8169 1238.96C82.3383 1238.22 81.0677 1236.37 79.8146 1234.91C78.5614 1233.45 77.2908 1232.21 76.8122 1231.78C74.5713 1233.34 68.7449 1237.61 63.3667 1242.15C57.9886 1246.7 53.2065 1251.36 51.4877 1253.12C53.0107 1256.47 57.7666 1265.26 64.6068 1273.61C71.4471 1281.97 78.1176 1289.11 80.5978 1291.63L111.535 1265.59C110.6 1269.87 106.758 1281.08 98.8732 1291.63C90.9887 1302.18 83.4044 1310.38 80.5978 1313.17C75.6591 1307.97 62.6879 1292.78 50.3129 1273.61C37.9379 1254.45 29.6226 1234.69 27.0118 1227.21L11.9999 1248.03ZM149 1248.16C145.519 1242.35 135.646 1227.46 122.697 1212.78C109.747 1198.11 89.0611 1181.39 80.4021 1175.19C74.2668 1179.74 60.1556 1190.71 52.7932 1198.23C45.4309 1205.75 36.0626 1215.81 32.2987 1219.9C33.2778 1223.34 35.7841 1231.59 37.9771 1237.13C40.1702 1242.66 43.2422 1248.53 44.5041 1250.77C47.5499 1247.35 55.2624 1239.73 60.3645 1234.98C67.0117 1228.78 73.6095 1225.31 78.3929 1222.79C79.1048 1222.42 79.7764 1222.06 80.4021 1221.73C82.3602 1223.36 86.9551 1227.52 89.6703 1231.12C92.3855 1234.73 94.5873 1239.11 95.3487 1240.85C93.4559 1242.76 88.9524 1247.27 86.0805 1249.99C83.2087 1252.7 79.6189 1255.95 78.1829 1257.23C78.6616 1257.97 79.9322 1259.82 81.1853 1261.28C82.4385 1262.74 83.7091 1263.98 84.1877 1264.41C86.4286 1262.85 92.255 1258.58 97.6332 1254.03C103.011 1249.49 107.793 1244.83 109.512 1243.07C107.989 1239.72 103.233 1230.93 96.393 1222.57C89.5528 1214.22 82.8823 1207.08 80.4021 1204.56L49.4645 1230.6C50.4 1226.32 54.2422 1215.11 62.1267 1204.56C70.0112 1194.01 77.5955 1185.81 80.4021 1183.02C85.3408 1188.22 98.312 1203.41 110.687 1222.57C123.062 1241.74 131.377 1261.5 133.988 1268.98L149 1248.16Z" fill="#E6B639"/>
<path fill-rule="evenodd" clip-rule="evenodd" d="M11.9999 1073.03C15.4809 1078.84 25.354 1093.73 38.3034 1108.4C51.2528 1123.08 71.9388 1139.8 80.5978 1146C86.7331 1141.45 100.844 1130.48 108.207 1122.96C115.569 1115.44 124.937 1105.38 128.701 1101.29C127.722 1097.85 125.216 1089.59 123.023 1084.06C120.83 1078.52 117.758 1072.66 116.496 1070.42C113.45 1073.83 105.737 1081.46 100.635 1086.21C93.9882 1092.41 87.3904 1095.88 82.607 1098.4C81.8951 1098.77 81.2235 1099.12 80.5978 1099.46C78.6397 1097.83 74.0448 1093.67 71.3296 1090.06C68.6144 1086.46 66.4126 1082.08 65.6512 1080.34C67.544 1078.42 72.0475 1073.92 74.9194 1071.2C77.7912 1068.49 81.381 1065.24 82.8169 1063.96C82.3383 1063.22 81.0677 1061.37 79.8146 1059.91C78.5614 1058.45 77.2908 1057.21 76.8122 1056.78C74.5713 1058.34 68.7449 1062.61 63.3667 1067.15C57.9886 1071.7 53.2065 1076.36 51.4877 1078.12C53.0107 1081.47 57.7666 1090.26 64.6068 1098.61C71.4471 1106.97 78.1176 1114.11 80.5978 1116.63L111.535 1090.59C110.6 1094.87 106.758 1106.08 98.8732 1116.63C90.9887 1127.18 83.4044 1135.38 80.5978 1138.17C75.6591 1132.97 62.6879 1117.78 50.3129 1098.61C37.9379 1079.45 29.6226 1059.69 27.0118 1052.21L11.9999 1073.03ZM149 1073.16C145.519 1067.35 135.646 1052.46 122.697 1037.78C109.747 1023.11 89.0611 1006.39 80.4021 1000.19C74.2668 1004.74 60.1556 1015.71 52.7932 1023.23C45.4309 1030.75 36.0626 1040.81 32.2987 1044.9C33.2778 1048.34 35.7841 1056.59 37.9771 1062.13C40.1702 1067.66 43.2422 1073.53 44.5041 1075.77C47.5499 1072.35 55.2624 1064.73 60.3645 1059.98C67.0117 1053.78 73.6095 1050.31 78.3929 1047.79C79.1048 1047.42 79.7764 1047.06 80.4021 1046.73C82.3602 1048.36 86.9551 1052.52 89.6703 1056.12C92.3855 1059.73 94.5873 1064.11 95.3487 1065.85C93.4559 1067.76 88.9524 1072.27 86.0805 1074.99C83.2087 1077.7 79.6189 1080.95 78.1829 1082.23C78.6616 1082.97 79.9322 1084.82 81.1853 1086.28C82.4385 1087.74 83.7091 1088.98 84.1877 1089.41C86.4286 1087.85 92.255 1083.58 97.6332 1079.03C103.011 1074.49 107.793 1069.83 109.512 1068.07C107.989 1064.72 103.233 1055.93 96.393 1047.57C89.5528 1039.22 82.8823 1032.08 80.4021 1029.56L49.4645 1055.6C50.4 1051.32 54.2422 1040.11 62.1267 1029.56C70.0112 1019.01 77.5955 1010.81 80.4021 1008.02C85.3408 1013.22 98.312 1028.41 110.687 1047.57C123.062 1066.74 131.377 1086.5 133.988 1093.98L149 1073.16Z" fill="#E6B639"/>
<path fill-rule="evenodd" clip-rule="evenodd" d="M11.9999 898.029C15.4809 903.838 25.354 918.732 38.3034 933.405C51.2528 948.077 71.9388 964.799 80.5978 971C86.7331 966.453 100.844 955.479 108.207 947.96C115.569 940.441 124.937 930.381 128.701 926.291C127.722 922.853 125.216 914.594 123.023 909.06C120.83 903.525 117.758 897.659 116.496 895.418C113.45 898.834 105.737 906.46 100.635 911.213C93.9882 917.406 87.3904 920.879 82.607 923.397C81.8951 923.771 81.2235 924.125 80.5978 924.463C78.6397 922.831 74.0448 918.667 71.3296 915.064C68.6144 911.461 66.4126 907.08 65.6512 905.339C67.544 903.425 72.0475 898.917 74.9194 896.202C77.7912 893.486 81.381 890.24 82.8169 888.957C82.3383 888.217 81.0677 886.372 79.8146 884.91C78.5614 883.448 77.2908 882.212 76.8122 881.777C74.5713 883.343 68.7449 887.612 63.3667 892.155C57.9886 896.698 53.2065 901.358 51.4877 903.12C53.0107 906.471 57.7666 915.26 64.6068 923.615C71.4471 931.969 78.1176 939.105 80.5978 941.629L111.535 915.586C110.6 919.872 106.758 931.081 98.8732 941.629C90.9887 952.176 83.4044 960.383 80.5978 963.168C75.6591 957.968 62.6879 942.778 50.3129 923.615C37.9379 904.452 29.6226 884.692 27.0118 877.208L11.9999 898.029ZM149 898.16C145.519 892.351 135.646 877.456 122.697 862.784C109.747 848.111 89.0611 831.389 80.4021 825.189C74.2668 829.736 60.1556 840.71 52.7932 848.229C45.4309 855.748 36.0626 865.808 32.2987 869.898C33.2778 873.336 35.7841 881.594 37.9771 887.129C40.1702 892.664 43.2422 898.529 44.5041 900.77C47.5499 897.355 55.2624 889.728 60.3645 884.975C67.0117 878.782 73.6095 875.31 78.3929 872.792C79.1048 872.417 79.7764 872.064 80.4021 871.726C82.3602 873.357 86.9551 877.521 89.6703 881.124C92.3855 884.727 94.5873 889.109 95.3487 890.849C93.4559 892.764 88.9524 897.272 86.0805 899.987C83.2087 902.702 79.6189 905.948 78.1829 907.232C78.6616 907.972 79.9322 909.817 81.1853 911.279C82.4385 912.741 83.7091 913.976 84.1877 914.412C86.4286 912.845 92.255 908.577 97.6332 904.034C103.011 899.491 107.793 894.831 109.512 893.069C107.989 889.718 103.233 880.929 96.393 872.574C89.5528 864.22 82.8823 857.084 80.4021 854.56L49.4645 880.602C50.4 876.316 54.2422 865.107 62.1267 854.56C70.0112 844.012 77.5955 835.806 80.4021 833.021C85.3408 838.221 98.312 853.411 110.687 872.574C123.062 891.737 131.377 911.496 133.988 918.98L149 898.16Z" fill="#E6B639"/>
<path fill-rule="evenodd" clip-rule="evenodd" d="M11.9999 723.029C15.4809 728.838 25.354 743.732 38.3034 758.405C51.2528 773.077 71.9388 789.799 80.5978 796C86.7331 791.453 100.844 780.479 108.207 772.96C115.569 765.441 124.937 755.381 128.701 751.291C127.722 747.853 125.216 739.594 123.023 734.06C120.83 728.525 117.758 722.659 116.496 720.418C113.45 723.834 105.737 731.46 100.635 736.213C93.9882 742.406 87.3904 745.879 82.607 748.397C81.8951 748.771 81.2235 749.125 80.5978 749.463C78.6397 747.831 74.0448 743.667 71.3296 740.064C68.6144 736.461 66.4126 732.08 65.6512 730.339C67.544 728.425 72.0475 723.917 74.9194 721.202C77.7912 718.486 81.381 715.24 82.8169 713.957C82.3383 713.217 81.0677 711.372 79.8146 709.91C78.5614 708.448 77.2908 707.212 76.8122 706.777C74.5713 708.343 68.7449 712.612 63.3667 717.155C57.9886 721.698 53.2065 726.358 51.4877 728.12C53.0107 731.471 57.7666 740.26 64.6068 748.615C71.4471 756.969 78.1176 764.105 80.5978 766.629L111.535 740.586C110.6 744.872 106.758 756.081 98.8732 766.629C90.9887 777.176 83.4044 785.383 80.5978 788.168C75.6591 782.968 62.6879 767.778 50.3129 748.615C37.9379 729.452 29.6226 709.692 27.0118 702.208L11.9999 723.029ZM149 723.16C145.519 717.351 135.646 702.456 122.697 687.784C109.747 673.111 89.0611 656.389 80.4021 650.189C74.2668 654.736 60.1556 665.71 52.7932 673.229C45.4309 680.748 36.0626 690.808 32.2987 694.898C33.2778 698.336 35.7841 706.594 37.9771 712.129C40.1702 717.664 43.2422 723.529 44.5041 725.77C47.5499 722.355 55.2624 714.728 60.3645 709.975C67.0117 703.782 73.6095 700.31 78.3929 697.792C79.1048 697.417 79.7764 697.064 80.4021 696.726C82.3602 698.357 86.9551 702.521 89.6703 706.124C92.3855 709.727 94.5873 714.109 95.3487 715.849C93.4559 717.764 88.9524 722.272 86.0805 724.987C83.2087 727.702 79.6189 730.948 78.1829 732.232C78.6616 732.972 79.9322 734.817 81.1853 736.279C82.4385 737.741 83.7091 738.976 84.1877 739.412C86.4286 737.845 92.255 733.577 97.6332 729.034C103.011 724.491 107.793 719.831 109.512 718.069C107.989 714.718 103.233 705.929 96.393 697.574C89.5528 689.22 82.8823 682.084 80.4021 679.56L49.4645 705.602C50.4 701.316 54.2422 690.107 62.1267 679.56C70.0112 669.012 77.5955 660.806 80.4021 658.021C85.3408 663.221 98.312 678.411 110.687 697.574C123.062 716.737 131.377 736.496 133.988 743.98L149 723.16Z" fill="#E6B639"/>
<path fill-rule="evenodd" clip-rule="evenodd" d="M11.9999 548.029C15.4809 553.838 25.354 568.732 38.3034 583.405C51.2528 598.077 71.9388 614.799 80.5978 621C86.7331 616.453 100.844 605.479 108.207 597.96C115.569 590.441 124.937 580.381 128.701 576.291C127.722 572.853 125.216 564.594 123.023 559.06C120.83 553.525 117.758 547.659 116.496 545.418C113.45 548.834 105.737 556.46 100.635 561.213C93.9882 567.406 87.3904 570.879 82.607 573.397C81.8951 573.771 81.2235 574.125 80.5978 574.463C78.6397 572.831 74.0448 568.667 71.3296 565.064C68.6144 561.461 66.4126 557.08 65.6512 555.339C67.544 553.425 72.0475 548.917 74.9194 546.202C77.7912 543.486 81.381 540.24 82.8169 538.957C82.3383 538.217 81.0677 536.372 79.8146 534.91C78.5614 533.448 77.2908 532.212 76.8122 531.777C74.5713 533.343 68.7449 537.612 63.3667 542.155C57.9886 546.698 53.2065 551.358 51.4877 553.12C53.0107 556.471 57.7666 565.26 64.6068 573.615C71.4471 581.969 78.1176 589.105 80.5978 591.629L111.535 565.586C110.6 569.872 106.758 581.081 98.8732 591.629C90.9887 602.176 83.4044 610.383 80.5978 613.168C75.6591 607.968 62.6879 592.778 50.3129 573.615C37.9379 554.452 29.6226 534.692 27.0118 527.208L11.9999 548.029ZM149 548.16C145.519 542.351 135.646 527.456 122.697 512.784C109.747 498.111 89.0611 481.389 80.4021 475.189C74.2668 479.736 60.1556 490.71 52.7932 498.229C45.4309 505.748 36.0626 515.808 32.2987 519.898C33.2778 523.336 35.7841 531.594 37.9771 537.129C40.1702 542.664 43.2422 548.529 44.5041 550.77C47.5499 547.355 55.2624 539.728 60.3645 534.975C67.0117 528.782 73.6095 525.31 78.3929 522.792C79.1048 522.417 79.7764 522.064 80.4021 521.726C82.3602 523.357 86.9551 527.521 89.6703 531.124C92.3855 534.727 94.5873 539.109 95.3487 540.849C93.4559 542.764 88.9524 547.272 86.0805 549.987C83.2087 552.702 79.6189 555.948 78.1829 557.232C78.6616 557.972 79.9322 559.817 81.1853 561.279C82.4385 562.741 83.7091 563.976 84.1877 564.412C86.4286 562.845 92.255 558.577 97.6332 554.034C103.011 549.491 107.793 544.831 109.512 543.069C107.989 539.718 103.233 530.929 96.393 522.574C89.5528 514.22 82.8823 507.084 80.4021 504.56L49.4645 530.602C50.4 526.316 54.2422 515.107 62.1267 504.56C70.0112 494.012 77.5955 485.806 80.4021 483.021C85.3408 488.221 98.312 503.411 110.687 522.574C123.062 541.737 131.377 561.496 133.988 568.98L149 548.16Z" fill="#E6B639"/>
<path fill-rule="evenodd" clip-rule="evenodd" d="M11.9999 373.029C15.4809 378.838 25.354 393.732 38.3034 408.405C51.2528 423.077 71.9388 439.799 80.5978 446C86.7331 441.453 100.844 430.479 108.207 422.96C115.569 415.441 124.937 405.381 128.701 401.291C127.722 397.853 125.216 389.594 123.023 384.06C120.83 378.525 117.758 372.659 116.496 370.418C113.45 373.834 105.737 381.46 100.635 386.213C93.9882 392.406 87.3904 395.879 82.607 398.397C81.8951 398.771 81.2235 399.125 80.5978 399.463C78.6397 397.831 74.0448 393.667 71.3296 390.064C68.6144 386.461 66.4126 382.08 65.6512 380.339C67.544 378.425 72.0475 373.917 74.9194 371.202C77.7912 368.486 81.381 365.24 82.8169 363.957C82.3383 363.217 81.0677 361.372 79.8146 359.91C78.5614 358.448 77.2908 357.212 76.8122 356.777C74.5713 358.343 68.7449 362.612 63.3667 367.155C57.9886 371.698 53.2065 376.358 51.4877 378.12C53.0107 381.471 57.7666 390.26 64.6068 398.615C71.4471 406.969 78.1176 414.105 80.5978 416.629L111.535 390.586C110.6 394.872 106.758 406.081 98.8732 416.629C90.9887 427.176 83.4044 435.383 80.5978 438.168C75.6591 432.968 62.6879 417.778 50.3129 398.615C37.9379 379.452 29.6226 359.692 27.0118 352.208L11.9999 373.029ZM149 373.16C145.519 367.351 135.646 352.456 122.697 337.784C109.747 323.111 89.0611 306.389 80.4021 300.189C74.2668 304.736 60.1556 315.71 52.7932 323.229C45.4309 330.748 36.0626 340.808 32.2987 344.898C33.2778 348.336 35.7841 356.594 37.9771 362.129C40.1702 367.664 43.2422 373.529 44.5041 375.77C47.5499 372.355 55.2624 364.728 60.3645 359.975C67.0117 353.782 73.6095 350.31 78.3929 347.792C79.1048 347.417 79.7764 347.064 80.4021 346.726C82.3602 348.357 86.9551 352.521 89.6703 356.124C92.3855 359.727 94.5873 364.109 95.3487 365.849C93.4559 367.764 88.9524 372.272 86.0805 374.987C83.2087 377.702 79.6189 380.948 78.1829 382.232C78.6616 382.972 79.9322 384.817 81.1853 386.279C82.4385 387.741 83.7091 388.976 84.1877 389.412C86.4286 387.845 92.255 383.577 97.6332 379.034C103.011 374.491 107.793 369.831 109.512 368.069C107.989 364.718 103.233 355.929 96.393 347.574C89.5528 339.22 82.8823 332.084 80.4021 329.56L49.4645 355.602C50.4 351.316 54.2422 340.107 62.1267 329.56C70.0112 319.012 77.5955 310.806 80.4021 308.021C85.3408 313.221 98.312 328.411 110.687 347.574C123.062 366.737 131.377 386.496 133.988 393.98L149 373.16Z" fill="#E6B639"/>
<path fill-rule="evenodd" clip-rule="evenodd" d="M11.9999 198.029C15.4809 203.838 25.354 218.732 38.3034 233.405C51.2528 248.077 71.9388 264.799 80.5978 271C86.7331 266.453 100.844 255.479 108.207 247.96C115.569 240.441 124.937 230.381 128.701 226.291C127.722 222.853 125.216 214.594 123.023 209.06C120.83 203.525 117.758 197.659 116.496 195.418C113.45 198.834 105.737 206.46 100.635 211.213C93.9882 217.406 87.3904 220.879 82.607 223.397C81.8951 223.771 81.2235 224.125 80.5978 224.463C78.6397 222.831 74.0448 218.667 71.3296 215.064C68.6144 211.461 66.4126 207.08 65.6512 205.339C67.544 203.425 72.0475 198.917 74.9194 196.202C77.7912 193.486 81.381 190.24 82.8169 188.957C82.3383 188.217 81.0677 186.372 79.8146 184.91C78.5614 183.448 77.2908 182.212 76.8122 181.777C74.5713 183.343 68.7449 187.612 63.3667 192.155C57.9886 196.698 53.2065 201.358 51.4877 203.12C53.0107 206.471 57.7666 215.26 64.6068 223.615C71.4471 231.969 78.1176 239.105 80.5978 241.629L111.535 215.586C110.6 219.872 106.758 231.081 98.8732 241.629C90.9887 252.176 83.4044 260.383 80.5978 263.168C75.6591 257.968 62.6879 242.778 50.3129 223.615C37.9379 204.452 29.6226 184.692 27.0118 177.208L11.9999 198.029ZM149 198.16C145.519 192.351 135.646 177.456 122.697 162.784C109.747 148.111 89.0611 131.389 80.4021 125.189C74.2668 129.736 60.1556 140.71 52.7932 148.229C45.4309 155.748 36.0626 165.808 32.2987 169.898C33.2778 173.336 35.7841 181.594 37.9771 187.129C40.1702 192.664 43.2422 198.529 44.5041 200.77C47.5499 197.355 55.2624 189.728 60.3645 184.975C67.0117 178.782 73.6095 175.31 78.3929 172.792C79.1048 172.417 79.7764 172.064 80.4021 171.726C82.3602 173.357 86.9551 177.521 89.6703 181.124C92.3855 184.727 94.5873 189.109 95.3487 190.849C93.4559 192.764 88.9524 197.272 86.0805 199.987C83.2087 202.702 79.6189 205.948 78.1829 207.232C78.6616 207.972 79.9322 209.817 81.1853 211.279C82.4385 212.741 83.7091 213.976 84.1877 214.412C86.4286 212.845 92.255 208.577 97.6332 204.034C103.011 199.491 107.793 194.831 109.512 193.069C107.989 189.718 103.233 180.929 96.393 172.574C89.5528 164.22 82.8823 157.084 80.4021 154.56L49.4645 180.602C50.4 176.316 54.2422 165.107 62.1267 154.56C70.0112 144.012 77.5955 135.806 80.4021 133.021C85.3408 138.221 98.312 153.411 110.687 172.574C123.062 191.737 131.377 211.496 133.988 218.98L149 198.16Z" fill="#E6B639"/>
<path fill-rule="evenodd" clip-rule="evenodd" d="M11.9999 23.0291C15.4809 28.838 25.354 43.7324 38.3034 58.405C51.2528 73.0775 71.9388 89.7994 80.5978 96C86.7331 91.4529 100.844 80.479 108.207 72.96C115.569 65.441 124.937 55.3808 128.701 51.2906C127.722 47.8531 125.216 39.5944 123.023 34.0595C120.83 28.5247 117.758 22.6592 116.496 20.4183C113.45 23.834 105.737 31.4603 100.635 36.2134C93.9882 42.4062 87.3904 45.8789 82.607 48.3967C81.8951 48.7713 81.2235 49.1249 80.5978 49.4631C78.6397 47.8313 74.0448 43.6672 71.3296 40.0643C68.6144 36.4615 66.4126 32.0797 65.6512 30.3392C67.544 28.4246 72.0475 23.9167 74.9194 21.2015C77.7912 18.4863 81.381 15.2403 82.8169 13.9566C82.3383 13.2169 81.0677 11.372 79.8146 9.90996C78.5614 8.44793 77.2908 7.21217 76.8122 6.77704C74.5713 8.3435 68.7449 12.6121 63.3667 17.1548C57.9886 21.6976 53.2065 26.3578 51.4877 28.1201C53.0107 31.4705 57.7666 40.2601 64.6068 48.6146C71.4471 56.969 78.1176 64.1051 80.5978 66.6289L111.535 40.5865C110.6 44.8725 106.758 56.0814 98.8732 66.6289C90.9887 77.1764 83.4044 85.3829 80.5978 88.1677C75.6591 82.9679 62.6879 67.7776 50.3129 48.6146C37.9379 29.4516 29.6226 9.6924 27.0118 2.2082L11.9999 23.0291ZM149 23.1596C145.519 17.3506 135.646 2.4562 122.697 -12.2163C109.747 -26.8888 89.0611 -43.6108 80.4021 -49.8114C74.2668 -45.2643 60.1556 -34.2904 52.7932 -26.7713C45.4309 -19.2523 36.0626 -9.19218 32.2987 -5.10197C33.2778 -1.66447 35.7841 6.59426 37.9771 12.1291C40.1702 17.6639 43.2422 23.5294 44.5041 25.7703C47.5499 22.3546 55.2624 14.7284 60.3645 9.97521C67.0117 3.78245 73.6095 0.3097 78.3929 -2.20803C79.1048 -2.58271 79.7764 -2.93624 80.4021 -3.27444C82.3602 -1.64271 86.9551 2.52146 89.6703 6.12432C92.3855 9.72718 94.5873 14.1089 95.3487 15.8494C93.4559 17.764 88.9524 22.2719 86.0805 24.9871C83.2087 27.7023 79.6189 30.9484 78.1829 32.232C78.6616 32.9717 79.9322 34.8167 81.1853 36.2787C82.4385 37.7407 83.7091 38.9765 84.1877 39.4116C86.4286 37.8451 92.255 33.5765 97.6332 29.0338C103.011 24.4911 107.793 19.8308 109.512 18.0686C107.989 14.7181 103.233 5.92852 96.393 -2.42594C89.5528 -10.7804 82.8823 -17.9165 80.4021 -20.4402L49.4645 5.60217C50.4 1.31616 54.2422 -9.89273 62.1267 -20.4402C70.0112 -30.9877 77.5955 -39.1942 80.4021 -41.9791C85.3408 -36.7793 98.312 -21.589 110.687 -2.42594C123.062 16.7371 131.377 36.4963 133.988 43.9804L149 23.1596Z" fill="#E6B639"/>
</g>
</g>
</svg>
