<svg width="80" height="1600" viewBox="0 0 80 1600" fill="none" xmlns="http://www.w3.org/2000/svg">
<g opacity="0.12">
<mask id="mask0_601_9809" style="mask-type:alpha" maskUnits="userSpaceOnUse" x="0" y="0" width="80" height="1600">
<rect width="80" height="1600" fill="#C4C4C4"/>
</mask>
<g mask="url(#mask0_601_9809)">
<path d="M-2.32578 13.8132C-2.32578 16.8006 -5.5209 19.3093 -7.11847 20.1902C-7.7651 17.3751 -11.546 11.745 -21.4965 11.745C-33.9347 11.745 -43.8053 21.1094 -43.8053 36.3913C-43.8053 54.4308 -32.526 62.0346 -16.3044 68.7934C-8.03136 72.2405 -2.83929 77.4685 -0.385887 81.8922C2.0675 77.4685 7.25958 72.2405 15.5327 68.7934C31.7542 62.0346 42.8053 54.3159 42.8053 36.2764C42.8053 20.9945 33.1629 11.745 20.7247 11.745C10.7742 11.745 6.99332 17.3751 6.34669 20.1902C4.74913 19.3093 1.55401 16.8006 1.55401 13.8132C1.55401 10.0789 12.0523 3.41462 20.7247 3.41462C27.6627 3.41462 37.6893 9.77249 41.8354 12.9514C41.493 10.2704 42.0065 4.20744 46.7992 1.40385C51.5919 -1.39974 58.1913 -0.760121 60.892 -0.0898637C60.5306 3.54868 58.8037 11.4232 54.787 13.8132C50.7703 16.2031 45.7342 15.6899 43.7182 15.1346C45.1636 16.8006 48.2256 21.615 49.8232 28.0035C51.4207 34.392 50.9833 40.5852 50.5649 42.8832C51.6109 41.7533 54.399 39.6085 57.1834 40.0681C59.9677 40.5277 63.5546 44.3578 65 46.2153C63.2313 47.7857 58.7809 50.6161 55.1294 49.3751C51.4778 48.1342 50.4508 45.9855 50.3937 45.0663C49.8802 49.4709 46.6166 60.2678 36.7574 67.7593C24.4334 77.1238 19.0139 78.3297 13.7069 81.8922C9.9412 84.42 2.80923 91.7162 -0.5 102C-3.80923 91.7162 -10.713 84.42 -14.4787 81.8922C-19.7857 78.3297 -25.2051 77.1238 -37.5292 67.7593C-47.3884 60.2678 -50.8802 49.5858 -51.3937 45.1812C-51.4508 46.1004 -52.4778 48.2491 -56.1294 49.49C-59.7809 50.731 -64.2313 47.9006 -66 46.3302C-64.5546 44.4727 -60.9677 40.6426 -58.1834 40.183C-55.399 39.7234 -52.6109 41.8682 -51.5649 42.9981C-51.9833 40.7001 -52.4207 34.5069 -50.8232 28.1184C-49.2256 21.7299 -45.9354 16.8006 -44.49 15.1346C-46.506 15.6899 -51.5421 16.2031 -55.5588 13.8132C-59.5755 11.4232 -61.3024 3.54868 -61.6638 -0.0898637C-58.9631 -0.760121 -52.3637 -1.39974 -47.571 1.40385C-42.7783 4.20744 -42.2648 10.2704 -42.6071 12.9514C-38.4611 9.77249 -28.4345 3.41462 -21.4965 3.41462C-12.824 3.41462 -2.32578 10.0789 -2.32578 13.8132Z" fill="#8DE329"/>
<path d="M-10.3136 -7.04129C-10.3136 -14.5329 -3.77121 -22.8019 -0.500013 -26C2.7902 -23.07 9.37063 -15.1763 9.37063 -7.04129C9.37063 1.09372 2.7902 6.34471 -0.500013 7.95333C-3.77121 6.07661 -10.3136 0.450274 -10.3136 -7.04129Z" fill="#8DE329"/>
<path d="M21.6947 37.1957C21.6947 27.1763 12.8701 25.7822 8.4578 26.3375C9.14247 24.2693 11.1394 19.386 20.2113 19.386C27.9138 19.386 34.5893 25.131 34.5893 32.3698C34.5893 39.149 30.9378 42.4237 28.8267 45.009C29.9108 44.8558 32.5125 44.9515 34.247 46.5601C35.9815 48.1688 36.4531 50.3327 36.4722 51.2136C35.5022 50.4668 33.7905 48.9731 29.8537 48.9731C26.1451 48.9731 20.5536 52.1903 15.7609 55.1203C11.9268 57.4643 8.03939 59.3908 6.57496 60.061C11.8811 55.8097 21.6947 44.8366 21.6947 37.1957Z" fill="#8DE329"/>
<path d="M-2.32578 165.813C-2.32578 168.801 -5.5209 171.309 -7.11847 172.19C-7.7651 169.375 -11.546 163.745 -21.4965 163.745C-33.9347 163.745 -43.8053 173.109 -43.8053 188.391C-43.8053 206.431 -32.526 214.035 -16.3044 220.793C-8.03136 224.24 -2.83929 229.468 -0.385887 233.892C2.0675 229.468 7.25958 224.24 15.5327 220.793C31.7542 214.035 42.8053 206.316 42.8053 188.276C42.8053 172.995 33.1629 163.745 20.7247 163.745C10.7742 163.745 6.99332 169.375 6.34669 172.19C4.74913 171.309 1.55401 168.801 1.55401 165.813C1.55401 162.079 12.0523 155.415 20.7247 155.415C27.6627 155.415 37.6893 161.772 41.8354 164.951C41.493 162.27 42.0065 156.207 46.7992 153.404C51.5919 150.6 58.1913 151.24 60.892 151.91C60.5306 155.549 58.8037 163.423 54.787 165.813C50.7703 168.203 45.7342 167.69 43.7182 167.135C45.1636 168.801 48.2256 173.615 49.8232 180.003C51.4207 186.392 50.9833 192.585 50.5649 194.883C51.6109 193.753 54.399 191.609 57.1834 192.068C59.9677 192.528 63.5546 196.358 65 198.215C63.2313 199.786 58.7809 202.616 55.1294 201.375C51.4778 200.134 50.4508 197.986 50.3937 197.066C49.8802 201.471 46.6166 212.268 36.7574 219.759C24.4334 229.124 19.0139 230.33 13.7069 233.892C9.9412 236.42 2.80923 243.716 -0.5 254C-3.80923 243.716 -10.713 236.42 -14.4787 233.892C-19.7857 230.33 -25.2051 229.124 -37.5292 219.759C-47.3884 212.268 -50.8802 201.586 -51.3937 197.181C-51.4508 198.1 -52.4778 200.249 -56.1294 201.49C-59.7809 202.731 -64.2313 199.901 -66 198.33C-64.5546 196.473 -60.9677 192.643 -58.1834 192.183C-55.399 191.723 -52.6109 193.868 -51.5649 194.998C-51.9833 192.7 -52.4207 186.507 -50.8232 180.118C-49.2256 173.73 -45.9354 168.801 -44.49 167.135C-46.506 167.69 -51.5421 168.203 -55.5588 165.813C-59.5755 163.423 -61.3024 155.549 -61.6638 151.91C-58.9631 151.24 -52.3637 150.6 -47.571 153.404C-42.7783 156.207 -42.2648 162.27 -42.6071 164.951C-38.4611 161.772 -28.4345 155.415 -21.4965 155.415C-12.824 155.415 -2.32578 162.079 -2.32578 165.813Z" fill="#8DE329"/>
<path d="M-10.3136 144.959C-10.3136 137.467 -3.77121 129.198 -0.500013 126C2.7902 128.93 9.37063 136.824 9.37063 144.959C9.37063 153.094 2.7902 158.345 -0.500013 159.953C-3.77121 158.077 -10.3136 152.45 -10.3136 144.959Z" fill="#8DE329"/>
<path d="M21.6947 189.196C21.6947 179.176 12.8701 177.782 8.4578 178.338C9.14247 176.269 11.1394 171.386 20.2113 171.386C27.9138 171.386 34.5893 177.131 34.5893 184.37C34.5893 191.149 30.9378 194.424 28.8267 197.009C29.9108 196.856 32.5125 196.952 34.247 198.56C35.9815 200.169 36.4531 202.333 36.4722 203.214C35.5022 202.467 33.7905 200.973 29.8537 200.973C26.1451 200.973 20.5536 204.19 15.7609 207.12C11.9268 209.464 8.03939 211.391 6.57496 212.061C11.8811 207.81 21.6947 196.837 21.6947 189.196Z" fill="#8DE329"/>
<path d="M-2.32578 317.813C-2.32578 320.801 -5.5209 323.309 -7.11847 324.19C-7.7651 321.375 -11.546 315.745 -21.4965 315.745C-33.9347 315.745 -43.8053 325.109 -43.8053 340.391C-43.8053 358.431 -32.526 366.035 -16.3044 372.793C-8.03136 376.24 -2.83929 381.468 -0.385887 385.892C2.0675 381.468 7.25958 376.24 15.5327 372.793C31.7542 366.035 42.8053 358.316 42.8053 340.276C42.8053 324.995 33.1629 315.745 20.7247 315.745C10.7742 315.745 6.99332 321.375 6.34669 324.19C4.74913 323.309 1.55401 320.801 1.55401 317.813C1.55401 314.079 12.0523 307.415 20.7247 307.415C27.6627 307.415 37.6893 313.772 41.8354 316.951C41.493 314.27 42.0065 308.207 46.7992 305.404C51.5919 302.6 58.1913 303.24 60.892 303.91C60.5306 307.549 58.8037 315.423 54.787 317.813C50.7703 320.203 45.7342 319.69 43.7182 319.135C45.1636 320.801 48.2256 325.615 49.8232 332.003C51.4207 338.392 50.9833 344.585 50.5649 346.883C51.6109 345.753 54.399 343.609 57.1834 344.068C59.9677 344.528 63.5546 348.358 65 350.215C63.2313 351.786 58.7809 354.616 55.1294 353.375C51.4778 352.134 50.4508 349.986 50.3937 349.066C49.8802 353.471 46.6166 364.268 36.7574 371.759C24.4334 381.124 19.0139 382.33 13.7069 385.892C9.9412 388.42 2.80923 395.716 -0.5 406C-3.80923 395.716 -10.713 388.42 -14.4787 385.892C-19.7857 382.33 -25.2051 381.124 -37.5292 371.759C-47.3884 364.268 -50.8802 353.586 -51.3937 349.181C-51.4508 350.1 -52.4778 352.249 -56.1294 353.49C-59.7809 354.731 -64.2313 351.901 -66 350.33C-64.5546 348.473 -60.9677 344.643 -58.1834 344.183C-55.399 343.723 -52.6109 345.868 -51.5649 346.998C-51.9833 344.7 -52.4207 338.507 -50.8232 332.118C-49.2256 325.73 -45.9354 320.801 -44.49 319.135C-46.506 319.69 -51.5421 320.203 -55.5588 317.813C-59.5755 315.423 -61.3024 307.549 -61.6638 303.91C-58.9631 303.24 -52.3637 302.6 -47.571 305.404C-42.7783 308.207 -42.2648 314.27 -42.6071 316.951C-38.4611 313.772 -28.4345 307.415 -21.4965 307.415C-12.824 307.415 -2.32578 314.079 -2.32578 317.813Z" fill="#8DE329"/>
<path d="M-10.3136 296.959C-10.3136 289.467 -3.77121 281.198 -0.500013 278C2.7902 280.93 9.37063 288.824 9.37063 296.959C9.37063 305.094 2.7902 310.345 -0.500013 311.953C-3.77121 310.077 -10.3136 304.45 -10.3136 296.959Z" fill="#8DE329"/>
<path d="M21.6947 341.196C21.6947 331.176 12.8701 329.782 8.4578 330.338C9.14247 328.269 11.1394 323.386 20.2113 323.386C27.9138 323.386 34.5893 329.131 34.5893 336.37C34.5893 343.149 30.9378 346.424 28.8267 349.009C29.9108 348.856 32.5125 348.952 34.247 350.56C35.9815 352.169 36.4531 354.333 36.4722 355.214C35.5022 354.467 33.7905 352.973 29.8537 352.973C26.1451 352.973 20.5536 356.19 15.7609 359.12C11.9268 361.464 8.03939 363.391 6.57496 364.061C11.8811 359.81 21.6947 348.837 21.6947 341.196Z" fill="#8DE329"/>
<path d="M-2.32578 469.813C-2.32578 472.801 -5.5209 475.309 -7.11847 476.19C-7.7651 473.375 -11.546 467.745 -21.4965 467.745C-33.9347 467.745 -43.8053 477.109 -43.8053 492.391C-43.8053 510.431 -32.526 518.035 -16.3044 524.793C-8.03136 528.24 -2.83929 533.468 -0.385887 537.892C2.0675 533.468 7.25958 528.24 15.5327 524.793C31.7542 518.035 42.8053 510.316 42.8053 492.276C42.8053 476.995 33.1629 467.745 20.7247 467.745C10.7742 467.745 6.99332 473.375 6.34669 476.19C4.74913 475.309 1.55401 472.801 1.55401 469.813C1.55401 466.079 12.0523 459.415 20.7247 459.415C27.6627 459.415 37.6893 465.772 41.8354 468.951C41.493 466.27 42.0065 460.207 46.7992 457.404C51.5919 454.6 58.1913 455.24 60.892 455.91C60.5306 459.549 58.8037 467.423 54.787 469.813C50.7703 472.203 45.7342 471.69 43.7182 471.135C45.1636 472.801 48.2256 477.615 49.8232 484.003C51.4207 490.392 50.9833 496.585 50.5649 498.883C51.6109 497.753 54.399 495.609 57.1834 496.068C59.9677 496.528 63.5546 500.358 65 502.215C63.2313 503.786 58.7809 506.616 55.1294 505.375C51.4778 504.134 50.4508 501.986 50.3937 501.066C49.8802 505.471 46.6166 516.268 36.7574 523.759C24.4334 533.124 19.0139 534.33 13.7069 537.892C9.9412 540.42 2.80923 547.716 -0.5 558C-3.80923 547.716 -10.713 540.42 -14.4787 537.892C-19.7857 534.33 -25.2051 533.124 -37.5292 523.759C-47.3884 516.268 -50.8802 505.586 -51.3937 501.181C-51.4508 502.1 -52.4778 504.249 -56.1294 505.49C-59.7809 506.731 -64.2313 503.901 -66 502.33C-64.5546 500.473 -60.9677 496.643 -58.1834 496.183C-55.399 495.723 -52.6109 497.868 -51.5649 498.998C-51.9833 496.7 -52.4207 490.507 -50.8232 484.118C-49.2256 477.73 -45.9354 472.801 -44.49 471.135C-46.506 471.69 -51.5421 472.203 -55.5588 469.813C-59.5755 467.423 -61.3024 459.549 -61.6638 455.91C-58.9631 455.24 -52.3637 454.6 -47.571 457.404C-42.7783 460.207 -42.2648 466.27 -42.6071 468.951C-38.4611 465.772 -28.4345 459.415 -21.4965 459.415C-12.824 459.415 -2.32578 466.079 -2.32578 469.813Z" fill="#8DE329"/>
<path d="M-10.3136 448.959C-10.3136 441.467 -3.77121 433.198 -0.500013 430C2.7902 432.93 9.37063 440.824 9.37063 448.959C9.37063 457.094 2.7902 462.345 -0.500013 463.953C-3.77121 462.077 -10.3136 456.45 -10.3136 448.959Z" fill="#8DE329"/>
<path d="M21.6947 493.196C21.6947 483.176 12.8701 481.782 8.4578 482.338C9.14247 480.269 11.1394 475.386 20.2113 475.386C27.9138 475.386 34.5893 481.131 34.5893 488.37C34.5893 495.149 30.9378 498.424 28.8267 501.009C29.9108 500.856 32.5125 500.952 34.247 502.56C35.9815 504.169 36.4531 506.333 36.4722 507.214C35.5022 506.467 33.7905 504.973 29.8537 504.973C26.1451 504.973 20.5536 508.19 15.7609 511.12C11.9268 513.464 8.03939 515.391 6.57496 516.061C11.8811 511.81 21.6947 500.837 21.6947 493.196Z" fill="#8DE329"/>
<path d="M-2.32578 621.813C-2.32578 624.801 -5.5209 627.309 -7.11847 628.19C-7.7651 625.375 -11.546 619.745 -21.4965 619.745C-33.9347 619.745 -43.8053 629.109 -43.8053 644.391C-43.8053 662.431 -32.526 670.035 -16.3044 676.793C-8.03136 680.24 -2.83929 685.468 -0.385887 689.892C2.0675 685.468 7.25958 680.24 15.5327 676.793C31.7542 670.035 42.8053 662.316 42.8053 644.276C42.8053 628.995 33.1629 619.745 20.7247 619.745C10.7742 619.745 6.99332 625.375 6.34669 628.19C4.74913 627.309 1.55401 624.801 1.55401 621.813C1.55401 618.079 12.0523 611.415 20.7247 611.415C27.6627 611.415 37.6893 617.772 41.8354 620.951C41.493 618.27 42.0065 612.207 46.7992 609.404C51.5919 606.6 58.1913 607.24 60.892 607.91C60.5306 611.549 58.8037 619.423 54.787 621.813C50.7703 624.203 45.7342 623.69 43.7182 623.135C45.1636 624.801 48.2256 629.615 49.8232 636.003C51.4207 642.392 50.9833 648.585 50.5649 650.883C51.6109 649.753 54.399 647.609 57.1834 648.068C59.9677 648.528 63.5546 652.358 65 654.215C63.2313 655.786 58.7809 658.616 55.1294 657.375C51.4778 656.134 50.4508 653.986 50.3937 653.066C49.8802 657.471 46.6166 668.268 36.7574 675.759C24.4334 685.124 19.0139 686.33 13.7069 689.892C9.9412 692.42 2.80923 699.716 -0.5 710C-3.80923 699.716 -10.713 692.42 -14.4787 689.892C-19.7857 686.33 -25.2051 685.124 -37.5292 675.759C-47.3884 668.268 -50.8802 657.586 -51.3937 653.181C-51.4508 654.1 -52.4778 656.249 -56.1294 657.49C-59.7809 658.731 -64.2313 655.901 -66 654.33C-64.5546 652.473 -60.9677 648.643 -58.1834 648.183C-55.399 647.723 -52.6109 649.868 -51.5649 650.998C-51.9833 648.7 -52.4207 642.507 -50.8232 636.118C-49.2256 629.73 -45.9354 624.801 -44.49 623.135C-46.506 623.69 -51.5421 624.203 -55.5588 621.813C-59.5755 619.423 -61.3024 611.549 -61.6638 607.91C-58.9631 607.24 -52.3637 606.6 -47.571 609.404C-42.7783 612.207 -42.2648 618.27 -42.6071 620.951C-38.4611 617.772 -28.4345 611.415 -21.4965 611.415C-12.824 611.415 -2.32578 618.079 -2.32578 621.813Z" fill="#8DE329"/>
<path d="M-10.3136 600.959C-10.3136 593.467 -3.77121 585.198 -0.500013 582C2.7902 584.93 9.37063 592.824 9.37063 600.959C9.37063 609.094 2.7902 614.345 -0.500013 615.953C-3.77121 614.077 -10.3136 608.45 -10.3136 600.959Z" fill="#8DE329"/>
<path d="M21.6947 645.196C21.6947 635.176 12.8701 633.782 8.4578 634.338C9.14247 632.269 11.1394 627.386 20.2113 627.386C27.9138 627.386 34.5893 633.131 34.5893 640.37C34.5893 647.149 30.9378 650.424 28.8267 653.009C29.9108 652.856 32.5125 652.952 34.247 654.56C35.9815 656.169 36.4531 658.333 36.4722 659.214C35.5022 658.467 33.7905 656.973 29.8537 656.973C26.1451 656.973 20.5536 660.19 15.7609 663.12C11.9268 665.464 8.03939 667.391 6.57496 668.061C11.8811 663.81 21.6947 652.837 21.6947 645.196Z" fill="#8DE329"/>
<path d="M-2.32578 773.813C-2.32578 776.801 -5.5209 779.309 -7.11847 780.19C-7.7651 777.375 -11.546 771.745 -21.4965 771.745C-33.9347 771.745 -43.8053 781.109 -43.8053 796.391C-43.8053 814.431 -32.526 822.035 -16.3044 828.793C-8.03136 832.24 -2.83929 837.468 -0.385887 841.892C2.0675 837.468 7.25958 832.24 15.5327 828.793C31.7542 822.035 42.8053 814.316 42.8053 796.276C42.8053 780.995 33.1629 771.745 20.7247 771.745C10.7742 771.745 6.99332 777.375 6.34669 780.19C4.74913 779.309 1.55401 776.801 1.55401 773.813C1.55401 770.079 12.0523 763.415 20.7247 763.415C27.6627 763.415 37.6893 769.772 41.8354 772.951C41.493 770.27 42.0065 764.207 46.7992 761.404C51.5919 758.6 58.1913 759.24 60.892 759.91C60.5306 763.549 58.8037 771.423 54.787 773.813C50.7703 776.203 45.7342 775.69 43.7182 775.135C45.1636 776.801 48.2256 781.615 49.8232 788.003C51.4207 794.392 50.9833 800.585 50.5649 802.883C51.6109 801.753 54.399 799.609 57.1834 800.068C59.9677 800.528 63.5546 804.358 65 806.215C63.2313 807.786 58.7809 810.616 55.1294 809.375C51.4778 808.134 50.4508 805.986 50.3937 805.066C49.8802 809.471 46.6166 820.268 36.7574 827.759C24.4334 837.124 19.0139 838.33 13.7069 841.892C9.9412 844.42 2.80923 851.716 -0.5 862C-3.80923 851.716 -10.713 844.42 -14.4787 841.892C-19.7857 838.33 -25.2051 837.124 -37.5292 827.759C-47.3884 820.268 -50.8802 809.586 -51.3937 805.181C-51.4508 806.1 -52.4778 808.249 -56.1294 809.49C-59.7809 810.731 -64.2313 807.901 -66 806.33C-64.5546 804.473 -60.9677 800.643 -58.1834 800.183C-55.399 799.723 -52.6109 801.868 -51.5649 802.998C-51.9833 800.7 -52.4207 794.507 -50.8232 788.118C-49.2256 781.73 -45.9354 776.801 -44.49 775.135C-46.506 775.69 -51.5421 776.203 -55.5588 773.813C-59.5755 771.423 -61.3024 763.549 -61.6638 759.91C-58.9631 759.24 -52.3637 758.6 -47.571 761.404C-42.7783 764.207 -42.2648 770.27 -42.6071 772.951C-38.4611 769.772 -28.4345 763.415 -21.4965 763.415C-12.824 763.415 -2.32578 770.079 -2.32578 773.813Z" fill="#8DE329"/>
<path d="M-10.3136 752.959C-10.3136 745.467 -3.77121 737.198 -0.500013 734C2.7902 736.93 9.37063 744.824 9.37063 752.959C9.37063 761.094 2.7902 766.345 -0.500013 767.953C-3.77121 766.077 -10.3136 760.45 -10.3136 752.959Z" fill="#8DE329"/>
<path d="M21.6947 797.196C21.6947 787.176 12.8701 785.782 8.4578 786.338C9.14247 784.269 11.1394 779.386 20.2113 779.386C27.9138 779.386 34.5893 785.131 34.5893 792.37C34.5893 799.149 30.9378 802.424 28.8267 805.009C29.9108 804.856 32.5125 804.952 34.247 806.56C35.9815 808.169 36.4531 810.333 36.4722 811.214C35.5022 810.467 33.7905 808.973 29.8537 808.973C26.1451 808.973 20.5536 812.19 15.7609 815.12C11.9268 817.464 8.03939 819.391 6.57496 820.061C11.8811 815.81 21.6947 804.837 21.6947 797.196Z" fill="#8DE329"/>
<path d="M-2.32578 925.813C-2.32578 928.801 -5.5209 931.309 -7.11847 932.19C-7.7651 929.375 -11.546 923.745 -21.4965 923.745C-33.9347 923.745 -43.8053 933.109 -43.8053 948.391C-43.8053 966.431 -32.526 974.035 -16.3044 980.793C-8.03136 984.24 -2.83929 989.468 -0.385887 993.892C2.0675 989.468 7.25958 984.24 15.5327 980.793C31.7542 974.035 42.8053 966.316 42.8053 948.276C42.8053 932.995 33.1629 923.745 20.7247 923.745C10.7742 923.745 6.99332 929.375 6.34669 932.19C4.74913 931.309 1.55401 928.801 1.55401 925.813C1.55401 922.079 12.0523 915.415 20.7247 915.415C27.6627 915.415 37.6893 921.772 41.8354 924.951C41.493 922.27 42.0065 916.207 46.7992 913.404C51.5919 910.6 58.1913 911.24 60.892 911.91C60.5306 915.549 58.8037 923.423 54.787 925.813C50.7703 928.203 45.7342 927.69 43.7182 927.135C45.1636 928.801 48.2256 933.615 49.8232 940.003C51.4207 946.392 50.9833 952.585 50.5649 954.883C51.6109 953.753 54.399 951.609 57.1834 952.068C59.9677 952.528 63.5546 956.358 65 958.215C63.2313 959.786 58.7809 962.616 55.1294 961.375C51.4778 960.134 50.4508 957.986 50.3937 957.066C49.8802 961.471 46.6166 972.268 36.7574 979.759C24.4334 989.124 19.0139 990.33 13.7069 993.892C9.9412 996.42 2.80923 1003.72 -0.5 1014C-3.80923 1003.72 -10.713 996.42 -14.4787 993.892C-19.7857 990.33 -25.2051 989.124 -37.5292 979.759C-47.3884 972.268 -50.8802 961.586 -51.3937 957.181C-51.4508 958.1 -52.4778 960.249 -56.1294 961.49C-59.7809 962.731 -64.2313 959.901 -66 958.33C-64.5546 956.473 -60.9677 952.643 -58.1834 952.183C-55.399 951.723 -52.6109 953.868 -51.5649 954.998C-51.9833 952.7 -52.4207 946.507 -50.8232 940.118C-49.2256 933.73 -45.9354 928.801 -44.49 927.135C-46.506 927.69 -51.5421 928.203 -55.5588 925.813C-59.5755 923.423 -61.3024 915.549 -61.6638 911.91C-58.9631 911.24 -52.3637 910.6 -47.571 913.404C-42.7783 916.207 -42.2648 922.27 -42.6071 924.951C-38.4611 921.772 -28.4345 915.415 -21.4965 915.415C-12.824 915.415 -2.32578 922.079 -2.32578 925.813Z" fill="#8DE329"/>
<path d="M-10.3136 904.959C-10.3136 897.467 -3.77121 889.198 -0.500013 886C2.7902 888.93 9.37063 896.824 9.37063 904.959C9.37063 913.094 2.7902 918.345 -0.500013 919.953C-3.77121 918.077 -10.3136 912.45 -10.3136 904.959Z" fill="#8DE329"/>
<path d="M21.6947 949.196C21.6947 939.176 12.8701 937.782 8.4578 938.338C9.14247 936.269 11.1394 931.386 20.2113 931.386C27.9138 931.386 34.5893 937.131 34.5893 944.37C34.5893 951.149 30.9378 954.424 28.8267 957.009C29.9108 956.856 32.5125 956.952 34.247 958.56C35.9815 960.169 36.4531 962.333 36.4722 963.214C35.5022 962.467 33.7905 960.973 29.8537 960.973C26.1451 960.973 20.5536 964.19 15.7609 967.12C11.9268 969.464 8.03939 971.391 6.57496 972.061C11.8811 967.81 21.6947 956.837 21.6947 949.196Z" fill="#8DE329"/>
<path d="M-2.32578 1077.81C-2.32578 1080.8 -5.5209 1083.31 -7.11847 1084.19C-7.7651 1081.38 -11.546 1075.74 -21.4965 1075.74C-33.9347 1075.74 -43.8053 1085.11 -43.8053 1100.39C-43.8053 1118.43 -32.526 1126.03 -16.3044 1132.79C-8.03136 1136.24 -2.83929 1141.47 -0.385887 1145.89C2.0675 1141.47 7.25958 1136.24 15.5327 1132.79C31.7542 1126.03 42.8053 1118.32 42.8053 1100.28C42.8053 1084.99 33.1629 1075.74 20.7247 1075.74C10.7742 1075.74 6.99332 1081.38 6.34669 1084.19C4.74913 1083.31 1.55401 1080.8 1.55401 1077.81C1.55401 1074.08 12.0523 1067.41 20.7247 1067.41C27.6627 1067.41 37.6893 1073.77 41.8354 1076.95C41.493 1074.27 42.0065 1068.21 46.7992 1065.4C51.5919 1062.6 58.1913 1063.24 60.892 1063.91C60.5306 1067.55 58.8037 1075.42 54.787 1077.81C50.7703 1080.2 45.7342 1079.69 43.7182 1079.13C45.1636 1080.8 48.2256 1085.61 49.8232 1092C51.4207 1098.39 50.9833 1104.59 50.5649 1106.88C51.6109 1105.75 54.399 1103.61 57.1834 1104.07C59.9677 1104.53 63.5546 1108.36 65 1110.22C63.2313 1111.79 58.7809 1114.62 55.1294 1113.38C51.4778 1112.13 50.4508 1109.99 50.3937 1109.07C49.8802 1113.47 46.6166 1124.27 36.7574 1131.76C24.4334 1141.12 19.0139 1142.33 13.7069 1145.89C9.9412 1148.42 2.80923 1155.72 -0.5 1166C-3.80923 1155.72 -10.713 1148.42 -14.4787 1145.89C-19.7857 1142.33 -25.2051 1141.12 -37.5292 1131.76C-47.3884 1124.27 -50.8802 1113.59 -51.3937 1109.18C-51.4508 1110.1 -52.4778 1112.25 -56.1294 1113.49C-59.7809 1114.73 -64.2313 1111.9 -66 1110.33C-64.5546 1108.47 -60.9677 1104.64 -58.1834 1104.18C-55.399 1103.72 -52.6109 1105.87 -51.5649 1107C-51.9833 1104.7 -52.4207 1098.51 -50.8232 1092.12C-49.2256 1085.73 -45.9354 1080.8 -44.49 1079.13C-46.506 1079.69 -51.5421 1080.2 -55.5588 1077.81C-59.5755 1075.42 -61.3024 1067.55 -61.6638 1063.91C-58.9631 1063.24 -52.3637 1062.6 -47.571 1065.4C-42.7783 1068.21 -42.2648 1074.27 -42.6071 1076.95C-38.4611 1073.77 -28.4345 1067.41 -21.4965 1067.41C-12.824 1067.41 -2.32578 1074.08 -2.32578 1077.81Z" fill="#8DE329"/>
<path d="M-10.3136 1056.96C-10.3136 1049.47 -3.77121 1041.2 -0.500013 1038C2.7902 1040.93 9.37063 1048.82 9.37063 1056.96C9.37063 1065.09 2.7902 1070.34 -0.500013 1071.95C-3.77121 1070.08 -10.3136 1064.45 -10.3136 1056.96Z" fill="#8DE329"/>
<path d="M21.6947 1101.2C21.6947 1091.18 12.8701 1089.78 8.4578 1090.34C9.14247 1088.27 11.1394 1083.39 20.2113 1083.39C27.9138 1083.39 34.5893 1089.13 34.5893 1096.37C34.5893 1103.15 30.9378 1106.42 28.8267 1109.01C29.9108 1108.86 32.5125 1108.95 34.247 1110.56C35.9815 1112.17 36.4531 1114.33 36.4722 1115.21C35.5022 1114.47 33.7905 1112.97 29.8537 1112.97C26.1451 1112.97 20.5536 1116.19 15.7609 1119.12C11.9268 1121.46 8.03939 1123.39 6.57496 1124.06C11.8811 1119.81 21.6947 1108.84 21.6947 1101.2Z" fill="#8DE329"/>
<path d="M-2.32578 1229.81C-2.32578 1232.8 -5.5209 1235.31 -7.11847 1236.19C-7.7651 1233.38 -11.546 1227.75 -21.4965 1227.75C-33.9347 1227.75 -43.8053 1237.11 -43.8053 1252.39C-43.8053 1270.43 -32.526 1278.03 -16.3044 1284.79C-8.03136 1288.24 -2.83929 1293.47 -0.385887 1297.89C2.0675 1293.47 7.25958 1288.24 15.5327 1284.79C31.7542 1278.03 42.8053 1270.32 42.8053 1252.28C42.8053 1236.99 33.1629 1227.75 20.7247 1227.75C10.7742 1227.75 6.99332 1233.38 6.34669 1236.19C4.74913 1235.31 1.55401 1232.8 1.55401 1229.81C1.55401 1226.08 12.0523 1219.41 20.7247 1219.41C27.6627 1219.41 37.6893 1225.77 41.8354 1228.95C41.493 1226.27 42.0065 1220.21 46.7992 1217.4C51.5919 1214.6 58.1913 1215.24 60.892 1215.91C60.5306 1219.55 58.8037 1227.42 54.787 1229.81C50.7703 1232.2 45.7342 1231.69 43.7182 1231.13C45.1636 1232.8 48.2256 1237.62 49.8232 1244C51.4207 1250.39 50.9833 1256.59 50.5649 1258.88C51.6109 1257.75 54.399 1255.61 57.1834 1256.07C59.9677 1256.53 63.5546 1260.36 65 1262.22C63.2313 1263.79 58.7809 1266.62 55.1294 1265.38C51.4778 1264.13 50.4508 1261.99 50.3937 1261.07C49.8802 1265.47 46.6166 1276.27 36.7574 1283.76C24.4334 1293.12 19.0139 1294.33 13.7069 1297.89C9.9412 1300.42 2.80923 1307.72 -0.5 1318C-3.80923 1307.72 -10.713 1300.42 -14.4787 1297.89C-19.7857 1294.33 -25.2051 1293.12 -37.5292 1283.76C-47.3884 1276.27 -50.8802 1265.59 -51.3937 1261.18C-51.4508 1262.1 -52.4778 1264.25 -56.1294 1265.49C-59.7809 1266.73 -64.2313 1263.9 -66 1262.33C-64.5546 1260.47 -60.9677 1256.64 -58.1834 1256.18C-55.399 1255.72 -52.6109 1257.87 -51.5649 1259C-51.9833 1256.7 -52.4207 1250.51 -50.8232 1244.12C-49.2256 1237.73 -45.9354 1232.8 -44.49 1231.13C-46.506 1231.69 -51.5421 1232.2 -55.5588 1229.81C-59.5755 1227.42 -61.3024 1219.55 -61.6638 1215.91C-58.9631 1215.24 -52.3637 1214.6 -47.571 1217.4C-42.7783 1220.21 -42.2648 1226.27 -42.6071 1228.95C-38.4611 1225.77 -28.4345 1219.41 -21.4965 1219.41C-12.824 1219.41 -2.32578 1226.08 -2.32578 1229.81Z" fill="#8DE329"/>
<path d="M-10.3136 1208.96C-10.3136 1201.47 -3.77121 1193.2 -0.500013 1190C2.7902 1192.93 9.37063 1200.82 9.37063 1208.96C9.37063 1217.09 2.7902 1222.34 -0.500013 1223.95C-3.77121 1222.08 -10.3136 1216.45 -10.3136 1208.96Z" fill="#8DE329"/>
<path d="M21.6947 1253.2C21.6947 1243.18 12.8701 1241.78 8.4578 1242.34C9.14247 1240.27 11.1394 1235.39 20.2113 1235.39C27.9138 1235.39 34.5893 1241.13 34.5893 1248.37C34.5893 1255.15 30.9378 1258.42 28.8267 1261.01C29.9108 1260.86 32.5125 1260.95 34.247 1262.56C35.9815 1264.17 36.4531 1266.33 36.4722 1267.21C35.5022 1266.47 33.7905 1264.97 29.8537 1264.97C26.1451 1264.97 20.5536 1268.19 15.7609 1271.12C11.9268 1273.46 8.03939 1275.39 6.57496 1276.06C11.8811 1271.81 21.6947 1260.84 21.6947 1253.2Z" fill="#8DE329"/>
<path d="M-2.32578 1381.81C-2.32578 1384.8 -5.5209 1387.31 -7.11847 1388.19C-7.7651 1385.38 -11.546 1379.75 -21.4965 1379.75C-33.9347 1379.75 -43.8053 1389.11 -43.8053 1404.39C-43.8053 1422.43 -32.526 1430.03 -16.3044 1436.79C-8.03136 1440.24 -2.83929 1445.47 -0.385887 1449.89C2.0675 1445.47 7.25958 1440.24 15.5327 1436.79C31.7542 1430.03 42.8053 1422.32 42.8053 1404.28C42.8053 1388.99 33.1629 1379.75 20.7247 1379.75C10.7742 1379.75 6.99332 1385.38 6.34669 1388.19C4.74913 1387.31 1.55401 1384.8 1.55401 1381.81C1.55401 1378.08 12.0523 1371.41 20.7247 1371.41C27.6627 1371.41 37.6893 1377.77 41.8354 1380.95C41.493 1378.27 42.0065 1372.21 46.7992 1369.4C51.5919 1366.6 58.1913 1367.24 60.892 1367.91C60.5306 1371.55 58.8037 1379.42 54.787 1381.81C50.7703 1384.2 45.7342 1383.69 43.7182 1383.13C45.1636 1384.8 48.2256 1389.62 49.8232 1396C51.4207 1402.39 50.9833 1408.59 50.5649 1410.88C51.6109 1409.75 54.399 1407.61 57.1834 1408.07C59.9677 1408.53 63.5546 1412.36 65 1414.22C63.2313 1415.79 58.7809 1418.62 55.1294 1417.38C51.4778 1416.13 50.4508 1413.99 50.3937 1413.07C49.8802 1417.47 46.6166 1428.27 36.7574 1435.76C24.4334 1445.12 19.0139 1446.33 13.7069 1449.89C9.9412 1452.42 2.80923 1459.72 -0.5 1470C-3.80923 1459.72 -10.713 1452.42 -14.4787 1449.89C-19.7857 1446.33 -25.2051 1445.12 -37.5292 1435.76C-47.3884 1428.27 -50.8802 1417.59 -51.3937 1413.18C-51.4508 1414.1 -52.4778 1416.25 -56.1294 1417.49C-59.7809 1418.73 -64.2313 1415.9 -66 1414.33C-64.5546 1412.47 -60.9677 1408.64 -58.1834 1408.18C-55.399 1407.72 -52.6109 1409.87 -51.5649 1411C-51.9833 1408.7 -52.4207 1402.51 -50.8232 1396.12C-49.2256 1389.73 -45.9354 1384.8 -44.49 1383.13C-46.506 1383.69 -51.5421 1384.2 -55.5588 1381.81C-59.5755 1379.42 -61.3024 1371.55 -61.6638 1367.91C-58.9631 1367.24 -52.3637 1366.6 -47.571 1369.4C-42.7783 1372.21 -42.2648 1378.27 -42.6071 1380.95C-38.4611 1377.77 -28.4345 1371.41 -21.4965 1371.41C-12.824 1371.41 -2.32578 1378.08 -2.32578 1381.81Z" fill="#8DE329"/>
<path d="M-10.3136 1360.96C-10.3136 1353.47 -3.77121 1345.2 -0.500013 1342C2.7902 1344.93 9.37063 1352.82 9.37063 1360.96C9.37063 1369.09 2.7902 1374.34 -0.500013 1375.95C-3.77121 1374.08 -10.3136 1368.45 -10.3136 1360.96Z" fill="#8DE329"/>
<path d="M21.6947 1405.2C21.6947 1395.18 12.8701 1393.78 8.4578 1394.34C9.14247 1392.27 11.1394 1387.39 20.2113 1387.39C27.9138 1387.39 34.5893 1393.13 34.5893 1400.37C34.5893 1407.15 30.9378 1410.42 28.8267 1413.01C29.9108 1412.86 32.5125 1412.95 34.247 1414.56C35.9815 1416.17 36.4531 1418.33 36.4722 1419.21C35.5022 1418.47 33.7905 1416.97 29.8537 1416.97C26.1451 1416.97 20.5536 1420.19 15.7609 1423.12C11.9268 1425.46 8.03939 1427.39 6.57496 1428.06C11.8811 1423.81 21.6947 1412.84 21.6947 1405.2Z" fill="#8DE329"/>
<path d="M-2.32578 1533.81C-2.32578 1536.8 -5.5209 1539.31 -7.11847 1540.19C-7.7651 1537.38 -11.546 1531.75 -21.4965 1531.75C-33.9347 1531.75 -43.8053 1541.11 -43.8053 1556.39C-43.8053 1574.43 -32.526 1582.03 -16.3044 1588.79C-8.03136 1592.24 -2.83929 1597.47 -0.385887 1601.89C2.0675 1597.47 7.25958 1592.24 15.5327 1588.79C31.7542 1582.03 42.8053 1574.32 42.8053 1556.28C42.8053 1540.99 33.1629 1531.75 20.7247 1531.75C10.7742 1531.75 6.99332 1537.38 6.34669 1540.19C4.74913 1539.31 1.55401 1536.8 1.55401 1533.81C1.55401 1530.08 12.0523 1523.41 20.7247 1523.41C27.6627 1523.41 37.6893 1529.77 41.8354 1532.95C41.493 1530.27 42.0065 1524.21 46.7992 1521.4C51.5919 1518.6 58.1913 1519.24 60.892 1519.91C60.5306 1523.55 58.8037 1531.42 54.787 1533.81C50.7703 1536.2 45.7342 1535.69 43.7182 1535.13C45.1636 1536.8 48.2256 1541.62 49.8232 1548C51.4207 1554.39 50.9833 1560.59 50.5649 1562.88C51.6109 1561.75 54.399 1559.61 57.1834 1560.07C59.9677 1560.53 63.5546 1564.36 65 1566.22C63.2313 1567.79 58.7809 1570.62 55.1294 1569.38C51.4778 1568.13 50.4508 1565.99 50.3937 1565.07C49.8802 1569.47 46.6166 1580.27 36.7574 1587.76C24.4334 1597.12 19.0139 1598.33 13.7069 1601.89C9.9412 1604.42 2.80923 1611.72 -0.5 1622C-3.80923 1611.72 -10.713 1604.42 -14.4787 1601.89C-19.7857 1598.33 -25.2051 1597.12 -37.5292 1587.76C-47.3884 1580.27 -50.8802 1569.59 -51.3937 1565.18C-51.4508 1566.1 -52.4778 1568.25 -56.1294 1569.49C-59.7809 1570.73 -64.2313 1567.9 -66 1566.33C-64.5546 1564.47 -60.9677 1560.64 -58.1834 1560.18C-55.399 1559.72 -52.6109 1561.87 -51.5649 1563C-51.9833 1560.7 -52.4207 1554.51 -50.8232 1548.12C-49.2256 1541.73 -45.9354 1536.8 -44.49 1535.13C-46.506 1535.69 -51.5421 1536.2 -55.5588 1533.81C-59.5755 1531.42 -61.3024 1523.55 -61.6638 1519.91C-58.9631 1519.24 -52.3637 1518.6 -47.571 1521.4C-42.7783 1524.21 -42.2648 1530.27 -42.6071 1532.95C-38.4611 1529.77 -28.4345 1523.41 -21.4965 1523.41C-12.824 1523.41 -2.32578 1530.08 -2.32578 1533.81Z" fill="#8DE329"/>
<path d="M-10.3136 1512.96C-10.3136 1505.47 -3.77121 1497.2 -0.500013 1494C2.7902 1496.93 9.37063 1504.82 9.37063 1512.96C9.37063 1521.09 2.7902 1526.34 -0.500013 1527.95C-3.77121 1526.08 -10.3136 1520.45 -10.3136 1512.96Z" fill="#8DE329"/>
<path d="M21.6947 1557.2C21.6947 1547.18 12.8701 1545.78 8.4578 1546.34C9.14247 1544.27 11.1394 1539.39 20.2113 1539.39C27.9138 1539.39 34.5893 1545.13 34.5893 1552.37C34.5893 1559.15 30.9378 1562.42 28.8267 1565.01C29.9108 1564.86 32.5125 1564.95 34.247 1566.56C35.9815 1568.17 36.4531 1570.33 36.4722 1571.21C35.5022 1570.47 33.7905 1568.97 29.8537 1568.97C26.1451 1568.97 20.5536 1572.19 15.7609 1575.12C11.9268 1577.46 8.03939 1579.39 6.57496 1580.06C11.8811 1575.81 21.6947 1564.84 21.6947 1557.2Z" fill="#8DE329"/>
</g>
</g>
</svg>
