<svg width="80" height="1600" viewBox="0 0 80 1600" fill="none" xmlns="http://www.w3.org/2000/svg">
<g opacity="0.12">
<mask id="mask0_601_9822" style="mask-type:alpha" maskUnits="userSpaceOnUse" x="0" y="0" width="80" height="1600">
<rect x="80" y="1600" width="80" height="1600" transform="rotate(180 80 1600)" fill="#C4C4C4"/>
</mask>
<g mask="url(#mask0_601_9822)">
<path d="M82.3258 1586.19C82.3258 1583.2 85.5209 1580.69 87.1185 1579.81C87.7651 1582.62 91.546 1588.25 101.497 1588.25C113.935 1588.25 123.805 1578.89 123.805 1563.61C123.805 1545.57 112.526 1537.97 96.3044 1531.21C88.0314 1527.76 82.8393 1522.53 80.3859 1518.11C77.9325 1522.53 72.7404 1527.76 64.4673 1531.21C48.2458 1537.97 37.1947 1545.68 37.1947 1563.72C37.1947 1579.01 46.8371 1588.25 59.2753 1588.25C69.2258 1588.25 73.0067 1582.62 73.6533 1579.81C75.2509 1580.69 78.446 1583.2 78.446 1586.19C78.446 1589.92 67.9477 1596.59 59.2753 1596.59C52.3373 1596.59 42.3107 1590.23 38.1646 1587.05C38.507 1589.73 37.9935 1595.79 33.2008 1598.6C28.4081 1601.4 21.8087 1600.76 19.108 1600.09C19.4694 1596.45 21.1963 1588.58 25.213 1586.19C29.2297 1583.8 34.2658 1584.31 36.2818 1584.87C34.8364 1583.2 31.7744 1578.38 30.1768 1572C28.5793 1565.61 29.0167 1559.41 29.4351 1557.12C28.3891 1558.25 25.601 1560.39 22.8166 1559.93C20.0323 1559.47 16.4454 1555.64 15 1553.78C16.7687 1552.21 21.2191 1549.38 24.8706 1550.62C28.5222 1551.87 29.5492 1554.01 29.6063 1554.93C30.1198 1550.53 33.3834 1539.73 43.2426 1532.24C55.5666 1522.88 60.9861 1521.67 66.2931 1518.11C70.0588 1515.58 77.1908 1508.28 80.5 1498C83.8092 1508.28 90.713 1515.58 94.4787 1518.11C99.7857 1521.67 105.205 1522.88 117.529 1532.24C127.388 1539.73 130.88 1550.41 131.394 1554.82C131.451 1553.9 132.478 1551.75 136.129 1550.51C139.781 1549.27 144.231 1552.1 146 1553.67C144.555 1555.53 140.968 1559.36 138.183 1559.82C135.399 1560.28 132.611 1558.13 131.565 1557C131.983 1559.3 132.421 1565.49 130.823 1571.88C129.226 1578.27 125.935 1583.2 124.49 1584.87C126.506 1584.31 131.542 1583.8 135.559 1586.19C139.576 1588.58 141.302 1596.45 141.664 1600.09C138.963 1600.76 132.364 1601.4 127.571 1598.6C122.778 1595.79 122.265 1589.73 122.607 1587.05C118.461 1590.23 108.434 1596.59 101.497 1596.59C92.824 1596.59 82.3258 1589.92 82.3258 1586.19Z" fill="#8DE329"/>
<path d="M90.3135 1607.04C90.3135 1614.53 83.7711 1622.8 80.4999 1626C77.2097 1623.07 70.6292 1615.18 70.6292 1607.04C70.6292 1598.91 77.2097 1593.66 80.4999 1592.05C83.7711 1593.92 90.3135 1599.55 90.3135 1607.04Z" fill="#8DE329"/>
<path d="M58.3053 1562.8C58.3053 1572.82 67.1299 1574.22 71.5422 1573.66C70.8575 1575.73 68.8606 1580.61 59.7887 1580.61C52.0862 1580.61 45.4107 1574.87 45.4107 1567.63C45.4107 1560.85 49.0622 1557.58 51.1733 1554.99C50.0892 1555.14 47.4875 1555.05 45.753 1553.44C44.0185 1551.83 43.5469 1549.67 43.5278 1548.79C44.4978 1549.53 46.2095 1551.03 50.1463 1551.03C53.8549 1551.03 59.4464 1547.81 64.2391 1544.88C68.0732 1542.54 71.9606 1540.61 73.425 1539.94C68.1189 1544.19 58.3053 1555.16 58.3053 1562.8Z" fill="#8DE329"/>
<path d="M82.3258 1434.19C82.3258 1431.2 85.5209 1428.69 87.1185 1427.81C87.7651 1430.62 91.546 1436.25 101.497 1436.25C113.935 1436.25 123.805 1426.89 123.805 1411.61C123.805 1393.57 112.526 1385.97 96.3044 1379.21C88.0314 1375.76 82.8393 1370.53 80.3859 1366.11C77.9325 1370.53 72.7404 1375.76 64.4673 1379.21C48.2458 1385.97 37.1947 1393.68 37.1947 1411.72C37.1947 1427.01 46.8371 1436.25 59.2753 1436.25C69.2258 1436.25 73.0067 1430.62 73.6533 1427.81C75.2509 1428.69 78.446 1431.2 78.446 1434.19C78.446 1437.92 67.9477 1444.59 59.2753 1444.59C52.3373 1444.59 42.3107 1438.23 38.1646 1435.05C38.507 1437.73 37.9935 1443.79 33.2008 1446.6C28.4081 1449.4 21.8087 1448.76 19.108 1448.09C19.4694 1444.45 21.1963 1436.58 25.213 1434.19C29.2297 1431.8 34.2658 1432.31 36.2818 1432.87C34.8364 1431.2 31.7744 1426.38 30.1768 1420C28.5793 1413.61 29.0167 1407.41 29.4351 1405.12C28.3891 1406.25 25.601 1408.39 22.8166 1407.93C20.0323 1407.47 16.4454 1403.64 15 1401.78C16.7687 1400.21 21.2191 1397.38 24.8706 1398.62C28.5222 1399.87 29.5492 1402.01 29.6063 1402.93C30.1198 1398.53 33.3834 1387.73 43.2426 1380.24C55.5666 1370.88 60.9861 1369.67 66.2931 1366.11C70.0588 1363.58 77.1908 1356.28 80.5 1346C83.8092 1356.28 90.713 1363.58 94.4787 1366.11C99.7857 1369.67 105.205 1370.88 117.529 1380.24C127.388 1387.73 130.88 1398.41 131.394 1402.82C131.451 1401.9 132.478 1399.75 136.129 1398.51C139.781 1397.27 144.231 1400.1 146 1401.67C144.555 1403.53 140.968 1407.36 138.183 1407.82C135.399 1408.28 132.611 1406.13 131.565 1405C131.983 1407.3 132.421 1413.49 130.823 1419.88C129.226 1426.27 125.935 1431.2 124.49 1432.87C126.506 1432.31 131.542 1431.8 135.559 1434.19C139.576 1436.58 141.302 1444.45 141.664 1448.09C138.963 1448.76 132.364 1449.4 127.571 1446.6C122.778 1443.79 122.265 1437.73 122.607 1435.05C118.461 1438.23 108.434 1444.59 101.497 1444.59C92.824 1444.59 82.3258 1437.92 82.3258 1434.19Z" fill="#8DE329"/>
<path d="M90.3135 1455.04C90.3135 1462.53 83.7711 1470.8 80.4999 1474C77.2097 1471.07 70.6292 1463.18 70.6292 1455.04C70.6292 1446.91 77.2097 1441.66 80.4999 1440.05C83.7711 1441.92 90.3135 1447.55 90.3135 1455.04Z" fill="#8DE329"/>
<path d="M58.3053 1410.8C58.3053 1420.82 67.1299 1422.22 71.5422 1421.66C70.8575 1423.73 68.8606 1428.61 59.7887 1428.61C52.0862 1428.61 45.4107 1422.87 45.4107 1415.63C45.4107 1408.85 49.0622 1405.58 51.1733 1402.99C50.0892 1403.14 47.4875 1403.05 45.753 1401.44C44.0185 1399.83 43.5469 1397.67 43.5278 1396.79C44.4978 1397.53 46.2095 1399.03 50.1463 1399.03C53.8549 1399.03 59.4464 1395.81 64.2391 1392.88C68.0732 1390.54 71.9606 1388.61 73.425 1387.94C68.1189 1392.19 58.3053 1403.16 58.3053 1410.8Z" fill="#8DE329"/>
<path d="M82.3258 1282.19C82.3258 1279.2 85.5209 1276.69 87.1185 1275.81C87.7651 1278.62 91.546 1284.25 101.497 1284.25C113.935 1284.25 123.805 1274.89 123.805 1259.61C123.805 1241.57 112.526 1233.97 96.3044 1227.21C88.0314 1223.76 82.8393 1218.53 80.3859 1214.11C77.9325 1218.53 72.7404 1223.76 64.4673 1227.21C48.2458 1233.97 37.1947 1241.68 37.1947 1259.72C37.1947 1275.01 46.8371 1284.25 59.2753 1284.25C69.2258 1284.25 73.0067 1278.62 73.6533 1275.81C75.2509 1276.69 78.446 1279.2 78.446 1282.19C78.446 1285.92 67.9477 1292.59 59.2753 1292.59C52.3373 1292.59 42.3107 1286.23 38.1646 1283.05C38.507 1285.73 37.9935 1291.79 33.2008 1294.6C28.4081 1297.4 21.8087 1296.76 19.108 1296.09C19.4694 1292.45 21.1963 1284.58 25.213 1282.19C29.2297 1279.8 34.2658 1280.31 36.2818 1280.87C34.8364 1279.2 31.7744 1274.38 30.1768 1268C28.5793 1261.61 29.0167 1255.41 29.4351 1253.12C28.3891 1254.25 25.601 1256.39 22.8166 1255.93C20.0323 1255.47 16.4454 1251.64 15 1249.78C16.7687 1248.21 21.2191 1245.38 24.8706 1246.62C28.5222 1247.87 29.5492 1250.01 29.6063 1250.93C30.1198 1246.53 33.3834 1235.73 43.2426 1228.24C55.5666 1218.88 60.9861 1217.67 66.2931 1214.11C70.0588 1211.58 77.1908 1204.28 80.5 1194C83.8092 1204.28 90.713 1211.58 94.4787 1214.11C99.7857 1217.67 105.205 1218.88 117.529 1228.24C127.388 1235.73 130.88 1246.41 131.394 1250.82C131.451 1249.9 132.478 1247.75 136.129 1246.51C139.781 1245.27 144.231 1248.1 146 1249.67C144.555 1251.53 140.968 1255.36 138.183 1255.82C135.399 1256.28 132.611 1254.13 131.565 1253C131.983 1255.3 132.421 1261.49 130.823 1267.88C129.226 1274.27 125.935 1279.2 124.49 1280.87C126.506 1280.31 131.542 1279.8 135.559 1282.19C139.576 1284.58 141.302 1292.45 141.664 1296.09C138.963 1296.76 132.364 1297.4 127.571 1294.6C122.778 1291.79 122.265 1285.73 122.607 1283.05C118.461 1286.23 108.434 1292.59 101.497 1292.59C92.824 1292.59 82.3258 1285.92 82.3258 1282.19Z" fill="#8DE329"/>
<path d="M90.3135 1303.04C90.3135 1310.53 83.7711 1318.8 80.4999 1322C77.2097 1319.07 70.6292 1311.18 70.6292 1303.04C70.6292 1294.91 77.2097 1289.66 80.4999 1288.05C83.7711 1289.92 90.3135 1295.55 90.3135 1303.04Z" fill="#8DE329"/>
<path d="M58.3053 1258.8C58.3053 1268.82 67.1299 1270.22 71.5422 1269.66C70.8575 1271.73 68.8606 1276.61 59.7887 1276.61C52.0862 1276.61 45.4107 1270.87 45.4107 1263.63C45.4107 1256.85 49.0622 1253.58 51.1733 1250.99C50.0892 1251.14 47.4875 1251.05 45.753 1249.44C44.0185 1247.83 43.5469 1245.67 43.5278 1244.79C44.4978 1245.53 46.2095 1247.03 50.1463 1247.03C53.8549 1247.03 59.4464 1243.81 64.2391 1240.88C68.0732 1238.54 71.9606 1236.61 73.425 1235.94C68.1189 1240.19 58.3053 1251.16 58.3053 1258.8Z" fill="#8DE329"/>
<path d="M82.3258 1130.19C82.3258 1127.2 85.5209 1124.69 87.1185 1123.81C87.7651 1126.62 91.546 1132.25 101.497 1132.25C113.935 1132.25 123.805 1122.89 123.805 1107.61C123.805 1089.57 112.526 1081.97 96.3044 1075.21C88.0314 1071.76 82.8393 1066.53 80.3859 1062.11C77.9325 1066.53 72.7404 1071.76 64.4673 1075.21C48.2458 1081.97 37.1947 1089.68 37.1947 1107.72C37.1947 1123.01 46.8371 1132.25 59.2753 1132.25C69.2258 1132.25 73.0067 1126.62 73.6533 1123.81C75.2509 1124.69 78.446 1127.2 78.446 1130.19C78.446 1133.92 67.9477 1140.59 59.2753 1140.59C52.3373 1140.59 42.3107 1134.23 38.1646 1131.05C38.507 1133.73 37.9935 1139.79 33.2008 1142.6C28.4081 1145.4 21.8087 1144.76 19.108 1144.09C19.4694 1140.45 21.1963 1132.58 25.213 1130.19C29.2297 1127.8 34.2658 1128.31 36.2818 1128.87C34.8364 1127.2 31.7744 1122.38 30.1768 1116C28.5793 1109.61 29.0167 1103.41 29.4351 1101.12C28.3891 1102.25 25.601 1104.39 22.8166 1103.93C20.0323 1103.47 16.4454 1099.64 15 1097.78C16.7687 1096.21 21.2191 1093.38 24.8706 1094.62C28.5222 1095.87 29.5492 1098.01 29.6063 1098.93C30.1198 1094.53 33.3834 1083.73 43.2426 1076.24C55.5666 1066.88 60.9861 1065.67 66.2931 1062.11C70.0588 1059.58 77.1908 1052.28 80.5 1042C83.8092 1052.28 90.713 1059.58 94.4787 1062.11C99.7857 1065.67 105.205 1066.88 117.529 1076.24C127.388 1083.73 130.88 1094.41 131.394 1098.82C131.451 1097.9 132.478 1095.75 136.129 1094.51C139.781 1093.27 144.231 1096.1 146 1097.67C144.555 1099.53 140.968 1103.36 138.183 1103.82C135.399 1104.28 132.611 1102.13 131.565 1101C131.983 1103.3 132.421 1109.49 130.823 1115.88C129.226 1122.27 125.935 1127.2 124.49 1128.87C126.506 1128.31 131.542 1127.8 135.559 1130.19C139.576 1132.58 141.302 1140.45 141.664 1144.09C138.963 1144.76 132.364 1145.4 127.571 1142.6C122.778 1139.79 122.265 1133.73 122.607 1131.05C118.461 1134.23 108.434 1140.59 101.497 1140.59C92.824 1140.59 82.3258 1133.92 82.3258 1130.19Z" fill="#8DE329"/>
<path d="M90.3135 1151.04C90.3135 1158.53 83.7711 1166.8 80.4999 1170C77.2097 1167.07 70.6292 1159.18 70.6292 1151.04C70.6292 1142.91 77.2097 1137.66 80.4999 1136.05C83.7711 1137.92 90.3135 1143.55 90.3135 1151.04Z" fill="#8DE329"/>
<path d="M58.3053 1106.8C58.3053 1116.82 67.1299 1118.22 71.5422 1117.66C70.8575 1119.73 68.8606 1124.61 59.7887 1124.61C52.0862 1124.61 45.4107 1118.87 45.4107 1111.63C45.4107 1104.85 49.0622 1101.58 51.1733 1098.99C50.0892 1099.14 47.4875 1099.05 45.753 1097.44C44.0185 1095.83 43.5469 1093.67 43.5278 1092.79C44.4978 1093.53 46.2095 1095.03 50.1463 1095.03C53.8549 1095.03 59.4464 1091.81 64.2391 1088.88C68.0732 1086.54 71.9606 1084.61 73.425 1083.94C68.1189 1088.19 58.3053 1099.16 58.3053 1106.8Z" fill="#8DE329"/>
<path d="M82.3258 978.187C82.3258 975.199 85.5209 972.691 87.1185 971.81C87.7651 974.625 91.546 980.255 101.497 980.255C113.935 980.255 123.805 970.891 123.805 955.609C123.805 937.569 112.526 929.965 96.3044 923.207C88.0314 919.76 82.8393 914.532 80.3859 910.108C77.9325 914.532 72.7404 919.76 64.4673 923.207C48.2458 929.965 37.1947 937.684 37.1947 955.724C37.1947 971.005 46.8371 980.255 59.2753 980.255C69.2258 980.255 73.0067 974.625 73.6533 971.81C75.2509 972.691 78.446 975.199 78.446 978.187C78.446 981.921 67.9477 988.585 59.2753 988.585C52.3373 988.585 42.3107 982.228 38.1646 979.049C38.507 981.73 37.9935 987.793 33.2008 990.596C28.4081 993.4 21.8087 992.76 19.108 992.09C19.4694 988.451 21.1963 980.577 25.213 978.187C29.2297 975.797 34.2658 976.31 36.2818 976.865C34.8364 975.199 31.7744 970.385 30.1768 963.997C28.5793 957.608 29.0167 951.415 29.4351 949.117C28.3891 950.247 25.601 952.391 22.8166 951.932C20.0323 951.472 16.4454 947.642 15 945.785C16.7687 944.214 21.2191 941.384 24.8706 942.625C28.5222 943.866 29.5492 946.014 29.6063 946.934C30.1198 942.529 33.3834 931.732 43.2426 924.241C55.5666 914.876 60.9861 913.67 66.2931 910.108C70.0588 907.58 77.1908 900.284 80.5 890C83.8092 900.284 90.713 907.58 94.4787 910.108C99.7857 913.67 105.205 914.876 117.529 924.241C127.388 931.732 130.88 942.414 131.394 946.819C131.451 945.9 132.478 943.751 136.129 942.51C139.781 941.269 144.231 944.099 146 945.67C144.555 947.527 140.968 951.357 138.183 951.817C135.399 952.277 132.611 950.132 131.565 949.002C131.983 951.3 132.421 957.493 130.823 963.882C129.226 970.27 125.935 975.199 124.49 976.865C126.506 976.31 131.542 975.797 135.559 978.187C139.576 980.577 141.302 988.451 141.664 992.09C138.963 992.76 132.364 993.4 127.571 990.596C122.778 987.793 122.265 981.73 122.607 979.049C118.461 982.228 108.434 988.585 101.497 988.585C92.824 988.585 82.3258 981.921 82.3258 978.187Z" fill="#8DE329"/>
<path d="M90.3135 999.041C90.3135 1006.53 83.7711 1014.8 80.4999 1018C77.2097 1015.07 70.6292 1007.18 70.6292 999.041C70.6292 990.906 77.2097 985.655 80.4999 984.047C83.7711 985.923 90.3135 991.55 90.3135 999.041Z" fill="#8DE329"/>
<path d="M58.3053 954.804C58.3053 964.824 67.1299 966.218 71.5422 965.662C70.8575 967.731 68.8606 972.614 59.7887 972.614C52.0862 972.614 45.4107 966.869 45.4107 959.63C45.4107 952.851 49.0622 949.576 51.1733 946.991C50.0892 947.144 47.4875 947.048 45.753 945.44C44.0185 943.831 43.5469 941.667 43.5278 940.786C44.4978 941.533 46.2095 943.027 50.1463 943.027C53.8549 943.027 59.4464 939.81 64.2391 936.88C68.0732 934.536 71.9606 932.609 73.425 931.939C68.1189 936.19 58.3053 947.163 58.3053 954.804Z" fill="#8DE329"/>
<path d="M82.3258 826.187C82.3258 823.199 85.5209 820.691 87.1185 819.81C87.7651 822.625 91.546 828.255 101.497 828.255C113.935 828.255 123.805 818.891 123.805 803.609C123.805 785.569 112.526 777.965 96.3044 771.207C88.0314 767.76 82.8393 762.532 80.3859 758.108C77.9325 762.532 72.7404 767.76 64.4673 771.207C48.2458 777.965 37.1947 785.684 37.1947 803.724C37.1947 819.005 46.8371 828.255 59.2753 828.255C69.2258 828.255 73.0067 822.625 73.6533 819.81C75.2509 820.691 78.446 823.199 78.446 826.187C78.446 829.921 67.9477 836.585 59.2753 836.585C52.3373 836.585 42.3107 830.228 38.1646 827.049C38.507 829.73 37.9935 835.793 33.2008 838.596C28.4081 841.4 21.8087 840.76 19.108 840.09C19.4694 836.451 21.1963 828.577 25.213 826.187C29.2297 823.797 34.2658 824.31 36.2818 824.865C34.8364 823.199 31.7744 818.385 30.1768 811.997C28.5793 805.608 29.0167 799.415 29.4351 797.117C28.3891 798.247 25.601 800.391 22.8166 799.932C20.0323 799.472 16.4454 795.642 15 793.785C16.7687 792.214 21.2191 789.384 24.8706 790.625C28.5222 791.866 29.5492 794.014 29.6063 794.934C30.1198 790.529 33.3834 779.732 43.2426 772.241C55.5666 762.876 60.9861 761.67 66.2931 758.108C70.0588 755.58 77.1908 748.284 80.5 738C83.8092 748.284 90.713 755.58 94.4787 758.108C99.7857 761.67 105.205 762.876 117.529 772.241C127.388 779.732 130.88 790.414 131.394 794.819C131.451 793.9 132.478 791.751 136.129 790.51C139.781 789.269 144.231 792.099 146 793.67C144.555 795.527 140.968 799.357 138.183 799.817C135.399 800.277 132.611 798.132 131.565 797.002C131.983 799.3 132.421 805.493 130.823 811.882C129.226 818.27 125.935 823.199 124.49 824.865C126.506 824.31 131.542 823.797 135.559 826.187C139.576 828.577 141.302 836.451 141.664 840.09C138.963 840.76 132.364 841.4 127.571 838.596C122.778 835.793 122.265 829.73 122.607 827.049C118.461 830.228 108.434 836.585 101.497 836.585C92.824 836.585 82.3258 829.921 82.3258 826.187Z" fill="#8DE329"/>
<path d="M90.3135 847.041C90.3135 854.533 83.7711 862.802 80.4999 866C77.2097 863.07 70.6292 855.176 70.6292 847.041C70.6292 838.906 77.2097 833.655 80.4999 832.047C83.7711 833.923 90.3135 839.55 90.3135 847.041Z" fill="#8DE329"/>
<path d="M58.3053 802.804C58.3053 812.824 67.1299 814.218 71.5422 813.662C70.8575 815.731 68.8606 820.614 59.7887 820.614C52.0862 820.614 45.4107 814.869 45.4107 807.63C45.4107 800.851 49.0622 797.576 51.1733 794.991C50.0892 795.144 47.4875 795.048 45.753 793.44C44.0185 791.831 43.5469 789.667 43.5278 788.786C44.4978 789.533 46.2095 791.027 50.1463 791.027C53.8549 791.027 59.4464 787.81 64.2391 784.88C68.0732 782.536 71.9606 780.609 73.425 779.939C68.1189 784.19 58.3053 795.163 58.3053 802.804Z" fill="#8DE329"/>
<path d="M82.3258 674.187C82.3258 671.199 85.5209 668.691 87.1185 667.81C87.7651 670.625 91.546 676.255 101.497 676.255C113.935 676.255 123.805 666.891 123.805 651.609C123.805 633.569 112.526 625.965 96.3044 619.207C88.0314 615.76 82.8393 610.532 80.3859 606.108C77.9325 610.532 72.7404 615.76 64.4673 619.207C48.2458 625.965 37.1947 633.684 37.1947 651.724C37.1947 667.005 46.8371 676.255 59.2753 676.255C69.2258 676.255 73.0067 670.625 73.6533 667.81C75.2509 668.691 78.446 671.199 78.446 674.187C78.446 677.921 67.9477 684.585 59.2753 684.585C52.3373 684.585 42.3107 678.228 38.1646 675.049C38.507 677.73 37.9935 683.793 33.2008 686.596C28.4081 689.4 21.8087 688.76 19.108 688.09C19.4694 684.451 21.1963 676.577 25.213 674.187C29.2297 671.797 34.2658 672.31 36.2818 672.865C34.8364 671.199 31.7744 666.385 30.1768 659.997C28.5793 653.608 29.0167 647.415 29.4351 645.117C28.3891 646.247 25.601 648.391 22.8166 647.932C20.0323 647.472 16.4454 643.642 15 641.785C16.7687 640.214 21.2191 637.384 24.8706 638.625C28.5222 639.866 29.5492 642.014 29.6063 642.934C30.1198 638.529 33.3834 627.732 43.2426 620.241C55.5666 610.876 60.9861 609.67 66.2931 606.108C70.0588 603.58 77.1908 596.284 80.5 586C83.8092 596.284 90.713 603.58 94.4787 606.108C99.7857 609.67 105.205 610.876 117.529 620.241C127.388 627.732 130.88 638.414 131.394 642.819C131.451 641.9 132.478 639.751 136.129 638.51C139.781 637.269 144.231 640.099 146 641.67C144.555 643.527 140.968 647.357 138.183 647.817C135.399 648.277 132.611 646.132 131.565 645.002C131.983 647.3 132.421 653.493 130.823 659.882C129.226 666.27 125.935 671.199 124.49 672.865C126.506 672.31 131.542 671.797 135.559 674.187C139.576 676.577 141.302 684.451 141.664 688.09C138.963 688.76 132.364 689.4 127.571 686.596C122.778 683.793 122.265 677.73 122.607 675.049C118.461 678.228 108.434 684.585 101.497 684.585C92.824 684.585 82.3258 677.921 82.3258 674.187Z" fill="#8DE329"/>
<path d="M90.3135 695.041C90.3135 702.533 83.7711 710.802 80.4999 714C77.2097 711.07 70.6292 703.176 70.6292 695.041C70.6292 686.906 77.2097 681.655 80.4999 680.047C83.7711 681.923 90.3135 687.55 90.3135 695.041Z" fill="#8DE329"/>
<path d="M58.3053 650.804C58.3053 660.824 67.1299 662.218 71.5422 661.662C70.8575 663.731 68.8606 668.614 59.7887 668.614C52.0862 668.614 45.4107 662.869 45.4107 655.63C45.4107 648.851 49.0622 645.576 51.1733 642.991C50.0892 643.144 47.4875 643.048 45.753 641.44C44.0185 639.831 43.5469 637.667 43.5278 636.786C44.4978 637.533 46.2095 639.027 50.1463 639.027C53.8549 639.027 59.4464 635.81 64.2391 632.88C68.0732 630.536 71.9606 628.609 73.425 627.939C68.1189 632.19 58.3053 643.163 58.3053 650.804Z" fill="#8DE329"/>
<path d="M82.3258 522.187C82.3258 519.199 85.5209 516.691 87.1185 515.81C87.7651 518.625 91.546 524.255 101.497 524.255C113.935 524.255 123.805 514.891 123.805 499.609C123.805 481.569 112.526 473.965 96.3044 467.207C88.0314 463.76 82.8393 458.532 80.3859 454.108C77.9325 458.532 72.7404 463.76 64.4673 467.207C48.2458 473.965 37.1947 481.684 37.1947 499.724C37.1947 515.005 46.8371 524.255 59.2753 524.255C69.2258 524.255 73.0067 518.625 73.6533 515.81C75.2509 516.691 78.446 519.199 78.446 522.187C78.446 525.921 67.9477 532.585 59.2753 532.585C52.3373 532.585 42.3107 526.228 38.1646 523.049C38.507 525.73 37.9935 531.793 33.2008 534.596C28.4081 537.4 21.8087 536.76 19.108 536.09C19.4694 532.451 21.1963 524.577 25.213 522.187C29.2297 519.797 34.2658 520.31 36.2818 520.865C34.8364 519.199 31.7744 514.385 30.1768 507.997C28.5793 501.608 29.0167 495.415 29.4351 493.117C28.3891 494.247 25.601 496.391 22.8166 495.932C20.0323 495.472 16.4454 491.642 15 489.785C16.7687 488.214 21.2191 485.384 24.8706 486.625C28.5222 487.866 29.5492 490.014 29.6063 490.934C30.1198 486.529 33.3834 475.732 43.2426 468.241C55.5666 458.876 60.9861 457.67 66.2931 454.108C70.0588 451.58 77.1908 444.284 80.5 434C83.8092 444.284 90.713 451.58 94.4787 454.108C99.7857 457.67 105.205 458.876 117.529 468.241C127.388 475.732 130.88 486.414 131.394 490.819C131.451 489.9 132.478 487.751 136.129 486.51C139.781 485.269 144.231 488.099 146 489.67C144.555 491.527 140.968 495.357 138.183 495.817C135.399 496.277 132.611 494.132 131.565 493.002C131.983 495.3 132.421 501.493 130.823 507.882C129.226 514.27 125.935 519.199 124.49 520.865C126.506 520.31 131.542 519.797 135.559 522.187C139.576 524.577 141.302 532.451 141.664 536.09C138.963 536.76 132.364 537.4 127.571 534.596C122.778 531.793 122.265 525.73 122.607 523.049C118.461 526.228 108.434 532.585 101.497 532.585C92.824 532.585 82.3258 525.921 82.3258 522.187Z" fill="#8DE329"/>
<path d="M90.3135 543.041C90.3135 550.533 83.7711 558.802 80.4999 562C77.2097 559.07 70.6292 551.176 70.6292 543.041C70.6292 534.906 77.2097 529.655 80.4999 528.047C83.7711 529.923 90.3135 535.55 90.3135 543.041Z" fill="#8DE329"/>
<path d="M58.3053 498.804C58.3053 508.824 67.1299 510.218 71.5422 509.662C70.8575 511.731 68.8606 516.614 59.7887 516.614C52.0862 516.614 45.4107 510.869 45.4107 503.63C45.4107 496.851 49.0622 493.576 51.1733 490.991C50.0892 491.144 47.4875 491.048 45.753 489.44C44.0185 487.831 43.5469 485.667 43.5278 484.786C44.4978 485.533 46.2095 487.027 50.1463 487.027C53.8549 487.027 59.4464 483.81 64.2391 480.88C68.0732 478.536 71.9606 476.609 73.425 475.939C68.1189 480.19 58.3053 491.163 58.3053 498.804Z" fill="#8DE329"/>
<path d="M82.3258 370.187C82.3258 367.199 85.5209 364.691 87.1185 363.81C87.7651 366.625 91.546 372.255 101.497 372.255C113.935 372.255 123.805 362.891 123.805 347.609C123.805 329.569 112.526 321.965 96.3044 315.207C88.0314 311.76 82.8393 306.532 80.3859 302.108C77.9325 306.532 72.7404 311.76 64.4673 315.207C48.2458 321.965 37.1947 329.684 37.1947 347.724C37.1947 363.005 46.8371 372.255 59.2753 372.255C69.2258 372.255 73.0067 366.625 73.6533 363.81C75.2509 364.691 78.446 367.199 78.446 370.187C78.446 373.921 67.9477 380.585 59.2753 380.585C52.3373 380.585 42.3107 374.228 38.1646 371.049C38.507 373.73 37.9935 379.793 33.2008 382.596C28.4081 385.4 21.8087 384.76 19.108 384.09C19.4694 380.451 21.1963 372.577 25.213 370.187C29.2297 367.797 34.2658 368.31 36.2818 368.865C34.8364 367.199 31.7744 362.385 30.1768 355.997C28.5793 349.608 29.0167 343.415 29.4351 341.117C28.3891 342.247 25.601 344.391 22.8166 343.932C20.0323 343.472 16.4454 339.642 15 337.785C16.7687 336.214 21.2191 333.384 24.8706 334.625C28.5222 335.866 29.5492 338.014 29.6063 338.934C30.1198 334.529 33.3834 323.732 43.2426 316.241C55.5666 306.876 60.9861 305.67 66.2931 302.108C70.0588 299.58 77.1908 292.284 80.5 282C83.8092 292.284 90.713 299.58 94.4787 302.108C99.7857 305.67 105.205 306.876 117.529 316.241C127.388 323.732 130.88 334.414 131.394 338.819C131.451 337.9 132.478 335.751 136.129 334.51C139.781 333.269 144.231 336.099 146 337.67C144.555 339.527 140.968 343.357 138.183 343.817C135.399 344.277 132.611 342.132 131.565 341.002C131.983 343.3 132.421 349.493 130.823 355.882C129.226 362.27 125.935 367.199 124.49 368.865C126.506 368.31 131.542 367.797 135.559 370.187C139.576 372.577 141.302 380.451 141.664 384.09C138.963 384.76 132.364 385.4 127.571 382.596C122.778 379.793 122.265 373.73 122.607 371.049C118.461 374.228 108.434 380.585 101.497 380.585C92.824 380.585 82.3258 373.921 82.3258 370.187Z" fill="#8DE329"/>
<path d="M90.3135 391.041C90.3135 398.533 83.7711 406.802 80.4999 410C77.2097 407.07 70.6292 399.176 70.6292 391.041C70.6292 382.906 77.2097 377.655 80.4999 376.047C83.7711 377.923 90.3135 383.55 90.3135 391.041Z" fill="#8DE329"/>
<path d="M58.3053 346.804C58.3053 356.824 67.1299 358.218 71.5422 357.662C70.8575 359.731 68.8606 364.614 59.7887 364.614C52.0862 364.614 45.4107 358.869 45.4107 351.63C45.4107 344.851 49.0622 341.576 51.1733 338.991C50.0892 339.144 47.4875 339.048 45.753 337.44C44.0185 335.831 43.5469 333.667 43.5278 332.786C44.4978 333.533 46.2095 335.027 50.1463 335.027C53.8549 335.027 59.4464 331.81 64.2391 328.88C68.0732 326.536 71.9606 324.609 73.425 323.939C68.1189 328.19 58.3053 339.163 58.3053 346.804Z" fill="#8DE329"/>
<path d="M82.3258 218.187C82.3258 215.199 85.5209 212.691 87.1185 211.81C87.7651 214.625 91.546 220.255 101.497 220.255C113.935 220.255 123.805 210.891 123.805 195.609C123.805 177.569 112.526 169.965 96.3044 163.207C88.0314 159.76 82.8393 154.532 80.3859 150.108C77.9325 154.532 72.7404 159.76 64.4673 163.207C48.2458 169.965 37.1947 177.684 37.1947 195.724C37.1947 211.005 46.8371 220.255 59.2753 220.255C69.2258 220.255 73.0067 214.625 73.6533 211.81C75.2509 212.691 78.446 215.199 78.446 218.187C78.446 221.921 67.9477 228.585 59.2753 228.585C52.3373 228.585 42.3107 222.228 38.1646 219.049C38.507 221.73 37.9935 227.793 33.2008 230.596C28.4081 233.4 21.8087 232.76 19.108 232.09C19.4694 228.451 21.1963 220.577 25.213 218.187C29.2297 215.797 34.2658 216.31 36.2818 216.865C34.8364 215.199 31.7744 210.385 30.1768 203.997C28.5793 197.608 29.0167 191.415 29.4351 189.117C28.3891 190.247 25.601 192.391 22.8166 191.932C20.0323 191.472 16.4454 187.642 15 185.785C16.7687 184.214 21.2191 181.384 24.8706 182.625C28.5222 183.866 29.5492 186.014 29.6063 186.934C30.1198 182.529 33.3834 171.732 43.2426 164.241C55.5666 154.876 60.9861 153.67 66.2931 150.108C70.0588 147.58 77.1908 140.284 80.5 130C83.8092 140.284 90.713 147.58 94.4787 150.108C99.7857 153.67 105.205 154.876 117.529 164.241C127.388 171.732 130.88 182.414 131.394 186.819C131.451 185.9 132.478 183.751 136.129 182.51C139.781 181.269 144.231 184.099 146 185.67C144.555 187.527 140.968 191.357 138.183 191.817C135.399 192.277 132.611 190.132 131.565 189.002C131.983 191.3 132.421 197.493 130.823 203.882C129.226 210.27 125.935 215.199 124.49 216.865C126.506 216.31 131.542 215.797 135.559 218.187C139.576 220.577 141.302 228.451 141.664 232.09C138.963 232.76 132.364 233.4 127.571 230.596C122.778 227.793 122.265 221.73 122.607 219.049C118.461 222.228 108.434 228.585 101.497 228.585C92.824 228.585 82.3258 221.921 82.3258 218.187Z" fill="#8DE329"/>
<path d="M90.3135 239.041C90.3135 246.533 83.7711 254.802 80.4999 258C77.2097 255.07 70.6292 247.176 70.6292 239.041C70.6292 230.906 77.2097 225.655 80.4999 224.047C83.7711 225.923 90.3135 231.55 90.3135 239.041Z" fill="#8DE329"/>
<path d="M58.3053 194.804C58.3053 204.824 67.1299 206.218 71.5422 205.662C70.8575 207.731 68.8606 212.614 59.7887 212.614C52.0862 212.614 45.4107 206.869 45.4107 199.63C45.4107 192.851 49.0622 189.576 51.1733 186.991C50.0892 187.144 47.4875 187.048 45.753 185.44C44.0185 183.831 43.5469 181.667 43.5278 180.786C44.4978 181.533 46.2095 183.027 50.1463 183.027C53.8549 183.027 59.4464 179.81 64.2391 176.88C68.0732 174.536 71.9606 172.609 73.425 171.939C68.1189 176.19 58.3053 187.163 58.3053 194.804Z" fill="#8DE329"/>
<path d="M82.3258 66.1868C82.3258 63.1994 85.5209 60.6907 87.1185 59.8098C87.7651 62.6249 91.546 68.255 101.497 68.255C113.935 68.255 123.805 58.8906 123.805 43.6087C123.805 25.5692 112.526 17.9654 96.3044 11.2066C88.0314 7.75953 82.8393 2.53152 80.3859 -1.89218C77.9325 2.53152 72.7404 7.75952 64.4673 11.2066C48.2458 17.9654 37.1947 25.6841 37.1947 43.7236C37.1947 59.0055 46.8371 68.255 59.2753 68.255C69.2258 68.255 73.0067 62.6249 73.6533 59.8098C75.2509 60.6907 78.446 63.1994 78.446 66.1868C78.446 69.9211 67.9477 76.5854 59.2753 76.5854C52.3373 76.5854 42.3107 70.2275 38.1646 67.0486C38.507 69.7296 37.9935 75.7926 33.2008 78.5961C28.4081 81.3997 21.8087 80.7601 19.108 80.0899C19.4694 76.4513 21.1963 68.5768 25.213 66.1868C29.2297 63.7969 34.2658 64.3101 36.2818 64.8654C34.8364 63.1994 31.7744 58.385 30.1768 51.9965C28.5793 45.608 29.0167 39.4148 29.4351 37.1168C28.3891 38.2467 25.601 40.3915 22.8166 39.9319C20.0323 39.4723 16.4454 35.6422 15 33.7847C16.7687 32.2143 21.2191 29.3839 24.8706 30.6249C28.5222 31.8658 29.5492 34.0145 29.6063 34.9337C30.1198 30.5291 33.3834 19.7322 43.2426 12.2407C55.5666 2.87622 60.9861 1.67033 66.2931 -1.89218C70.0588 -4.42001 77.1908 -11.7162 80.5 -21.9999C83.8092 -11.7162 90.713 -4.42001 94.4787 -1.89218C99.7857 1.67033 105.205 2.87622 117.529 12.2407C127.388 19.7322 130.88 30.4142 131.394 34.8188C131.451 33.8996 132.478 31.7509 136.129 30.51C139.781 29.269 144.231 32.0994 146 33.6698C144.555 35.5273 140.968 39.3574 138.183 39.817C135.399 40.2766 132.611 38.1318 131.565 37.0019C131.983 39.2999 132.421 45.4931 130.823 51.8816C129.226 58.2701 125.935 63.1994 124.49 64.8654C126.506 64.3101 131.542 63.7969 135.559 66.1868C139.576 68.5768 141.302 76.4513 141.664 80.0899C138.963 80.7601 132.364 81.3997 127.571 78.5961C122.778 75.7926 122.265 69.7296 122.607 67.0486C118.461 70.2275 108.434 76.5854 101.497 76.5854C92.824 76.5854 82.3258 69.9211 82.3258 66.1868Z" fill="#8DE329"/>
<path d="M90.3135 87.0413C90.3135 94.5329 83.7711 102.802 80.4999 106C77.2097 103.07 70.6292 95.1763 70.6292 87.0413C70.6292 78.9063 77.2097 73.6553 80.4999 72.0467C83.7711 73.9234 90.3135 79.5497 90.3135 87.0413Z" fill="#8DE329"/>
<path d="M58.3053 42.8043C58.3053 52.8237 67.1299 54.2178 71.5422 53.6625C70.8575 55.7307 68.8606 60.614 59.7887 60.614C52.0862 60.614 45.4107 54.869 45.4107 47.6302C45.4107 40.851 49.0622 37.5763 51.1733 34.991C50.0892 35.1442 47.4875 35.0485 45.753 33.4399C44.0185 31.8312 43.5469 29.6673 43.5278 28.7864C44.4978 29.5332 46.2095 31.0269 50.1463 31.0269C53.8549 31.0269 59.4464 27.8097 64.2391 24.8797C68.0732 22.5357 71.9606 20.6092 73.425 19.939C68.1189 24.1903 58.3053 35.1634 58.3053 42.8043Z" fill="#8DE329"/>
</g>
</g>
</svg>
