<svg width="80" height="1600" viewBox="0 0 80 1600" fill="none" xmlns="http://www.w3.org/2000/svg">
<g opacity="0.08">
<mask id="mask0_601_9718" style="mask-type:alpha" maskUnits="userSpaceOnUse" x="0" y="0" width="80" height="1600">
<rect width="80" height="1600" fill="#C4C4C4"/>
</mask>
<g mask="url(#mask0_601_9718)">
<path d="M-61 -6.2131C-61 -29.8786 -45.2153 -47.549 -37.1268 -53.3979C-37.1268 -53.3979 -47.7745 -38.8882 -47.7745 -27.3591C-38.864 -37.9883 -26.311 -43.1624 -17.7928 -43.1624C-9.27469 -43.1624 -0.308224 -38.0446 2.54984 -35.1201C-1.65319 -34.389 -9.55489 -33.3205 -9.55489 -23.6473C-9.55489 -12.5681 2.15755 -7.67532 8.77032 -7.67532C15.3831 -7.67532 30.514 -12.1745 30.514 -32.4206C30.514 -48.6176 10.19 -61.4964 0.0840607 -65.9956C7.6682 -66.1268 26.5239 -63.3973 40.8254 -50.7547C55.127 -38.1121 60.1033 -19.6543 61 -12.1745C59.5429 -15.6051 56.0684 -22.86 52.0335 -27.5278C47.918 -32.2889 45.2526 -34.0516 44.0758 -34.6702C45.1966 -32.2519 46.4855 -26.1218 46.4855 -17.2923C46.4855 1.24426 32.5875 10.6212 25.3583 12.9645C25.9934 11.2961 27.2637 7.95923 27.2637 4.24743C27.2637 0.535629 22.4442 -5.42575 14.9348 -5.42575C7.42535 -5.42575 -4.17501 1.82913 -4.17501 14.9892C-4.17501 26.6307 5.51998 38.5535 21.5475 38.5535C33.2039 38.5535 47.2888 30.305 53.2664 26.1808C45.701 39.847 27.2637 57 0.476341 57C-11.1801 57 -20.1465 53.7756 -23.1727 52.1634C-21.3421 52.3509 -16.672 52.8945 -9.72301 52.4446C-2.774 51.9947 2.99816 49.7076 4.34313 48.6766C-0.438984 47.7205 -12.6483 43.525 -20.763 35.0666C-28.8776 26.6082 -28.702 13.5832 -27.5999 8.46539C-25.022 11.7835 -21.8838 15.4391 -16.5039 15.4391C-10.4515 15.4391 -4.17501 8.46539 -4.17501 0.479393C-4.17501 -10.5435 -10.9937 -20.8916 -27.5999 -20.8916C-46.5416 -20.8916 -55.452 1.99786 -52.706 26.1808C-54.7235 22.5252 -61 12.9645 -61 -6.2131Z" fill="#B573E5"/>
<path d="M-61 150.787C-61 127.121 -45.2153 109.451 -37.1268 103.602C-37.1268 103.602 -47.7745 118.112 -47.7745 129.641C-38.864 119.012 -26.311 113.838 -17.7928 113.838C-9.27469 113.838 -0.308224 118.955 2.54984 121.88C-1.65319 122.611 -9.55489 123.68 -9.55489 133.353C-9.55489 144.432 2.15755 149.325 8.77032 149.325C15.3831 149.325 30.514 144.826 30.514 124.579C30.514 108.382 10.19 95.5036 0.0840607 91.0044C7.6682 90.8732 26.5239 93.6027 40.8254 106.245C55.127 118.888 60.1033 137.346 61 144.826C59.5429 141.395 56.0684 134.14 52.0335 129.472C47.918 124.711 45.2526 122.948 44.0758 122.33C45.1966 124.748 46.4855 130.878 46.4855 139.708C46.4855 158.244 32.5875 167.621 25.3583 169.965C25.9934 168.296 27.2637 164.959 27.2637 161.247C27.2637 157.536 22.4442 151.574 14.9348 151.574C7.42535 151.574 -4.17501 158.829 -4.17501 171.989C-4.17501 183.631 5.51998 195.553 21.5475 195.553C33.2039 195.553 47.2888 187.305 53.2664 183.181C45.701 196.847 27.2637 214 0.476341 214C-11.1801 214 -20.1465 210.776 -23.1727 209.163C-21.3421 209.351 -16.672 209.895 -9.72301 209.445C-2.774 208.995 2.99816 206.708 4.34313 205.677C-0.438984 204.72 -12.6483 200.525 -20.763 192.067C-28.8776 183.608 -28.702 170.583 -27.5999 165.465C-25.022 168.784 -21.8838 172.439 -16.5039 172.439C-10.4515 172.439 -4.17501 165.465 -4.17501 157.479C-4.17501 146.456 -10.9937 136.108 -27.5999 136.108C-46.5416 136.108 -55.452 158.998 -52.706 183.181C-54.7235 179.525 -61 169.965 -61 150.787Z" fill="#B573E5"/>
<path d="M-61 307.787C-61 284.121 -45.2153 266.451 -37.1268 260.602C-37.1268 260.602 -47.7745 275.112 -47.7745 286.641C-38.864 276.012 -26.311 270.838 -17.7928 270.838C-9.27469 270.838 -0.308224 275.955 2.54984 278.88C-1.65319 279.611 -9.55489 280.68 -9.55489 290.353C-9.55489 301.432 2.15755 306.325 8.77032 306.325C15.3831 306.325 30.514 301.826 30.514 281.579C30.514 265.382 10.19 252.504 0.0840607 248.004C7.6682 247.873 26.5239 250.603 40.8254 263.245C55.127 275.888 60.1033 294.346 61 301.826C59.5429 298.395 56.0684 291.14 52.0335 286.472C47.918 281.711 45.2526 279.948 44.0758 279.33C45.1966 281.748 46.4855 287.878 46.4855 296.708C46.4855 315.244 32.5875 324.621 25.3583 326.965C25.9934 325.296 27.2637 321.959 27.2637 318.247C27.2637 314.536 22.4442 308.574 14.9348 308.574C7.42535 308.574 -4.17501 315.829 -4.17501 328.989C-4.17501 340.631 5.51998 352.553 21.5475 352.553C33.2039 352.553 47.2888 344.305 53.2664 340.181C45.701 353.847 27.2637 371 0.476341 371C-11.1801 371 -20.1465 367.776 -23.1727 366.163C-21.3421 366.351 -16.672 366.895 -9.72301 366.445C-2.774 365.995 2.99816 363.708 4.34313 362.677C-0.438984 361.72 -12.6483 357.525 -20.763 349.067C-28.8776 340.608 -28.702 327.583 -27.5999 322.465C-25.022 325.784 -21.8838 329.439 -16.5039 329.439C-10.4515 329.439 -4.17501 322.465 -4.17501 314.479C-4.17501 303.456 -10.9937 293.108 -27.5999 293.108C-46.5416 293.108 -55.452 315.998 -52.706 340.181C-54.7235 336.525 -61 326.965 -61 307.787Z" fill="#B573E5"/>
<path d="M-61 464.787C-61 441.121 -45.2153 423.451 -37.1268 417.602C-37.1268 417.602 -47.7745 432.112 -47.7745 443.641C-38.864 433.012 -26.311 427.838 -17.7928 427.838C-9.27469 427.838 -0.308224 432.955 2.54984 435.88C-1.65319 436.611 -9.55489 437.68 -9.55489 447.353C-9.55489 458.432 2.15755 463.325 8.77032 463.325C15.3831 463.325 30.514 458.826 30.514 438.579C30.514 422.382 10.19 409.504 0.0840607 405.004C7.6682 404.873 26.5239 407.603 40.8254 420.245C55.127 432.888 60.1033 451.346 61 458.826C59.5429 455.395 56.0684 448.14 52.0335 443.472C47.918 438.711 45.2526 436.948 44.0758 436.33C45.1966 438.748 46.4855 444.878 46.4855 453.708C46.4855 472.244 32.5875 481.621 25.3583 483.965C25.9934 482.296 27.2637 478.959 27.2637 475.247C27.2637 471.536 22.4442 465.574 14.9348 465.574C7.42535 465.574 -4.17501 472.829 -4.17501 485.989C-4.17501 497.631 5.51998 509.553 21.5475 509.553C33.2039 509.553 47.2888 501.305 53.2664 497.181C45.701 510.847 27.2637 528 0.476341 528C-11.1801 528 -20.1465 524.776 -23.1727 523.163C-21.3421 523.351 -16.672 523.895 -9.72301 523.445C-2.774 522.995 2.99816 520.708 4.34313 519.677C-0.438984 518.72 -12.6483 514.525 -20.763 506.067C-28.8776 497.608 -28.702 484.583 -27.5999 479.465C-25.022 482.784 -21.8838 486.439 -16.5039 486.439C-10.4515 486.439 -4.17501 479.465 -4.17501 471.479C-4.17501 460.456 -10.9937 450.108 -27.5999 450.108C-46.5416 450.108 -55.452 472.998 -52.706 497.181C-54.7235 493.525 -61 483.965 -61 464.787Z" fill="#B573E5"/>
<path d="M-61 621.787C-61 598.121 -45.2153 580.451 -37.1268 574.602C-37.1268 574.602 -47.7745 589.112 -47.7745 600.641C-38.864 590.012 -26.311 584.838 -17.7928 584.838C-9.27469 584.838 -0.308224 589.955 2.54984 592.88C-1.65319 593.611 -9.55489 594.68 -9.55489 604.353C-9.55489 615.432 2.15755 620.325 8.77032 620.325C15.3831 620.325 30.514 615.826 30.514 595.579C30.514 579.382 10.19 566.504 0.0840607 562.004C7.6682 561.873 26.5239 564.603 40.8254 577.245C55.127 589.888 60.1033 608.346 61 615.826C59.5429 612.395 56.0684 605.14 52.0335 600.472C47.918 595.711 45.2526 593.948 44.0758 593.33C45.1966 595.748 46.4855 601.878 46.4855 610.708C46.4855 629.244 32.5875 638.621 25.3583 640.965C25.9934 639.296 27.2637 635.959 27.2637 632.247C27.2637 628.536 22.4442 622.574 14.9348 622.574C7.42535 622.574 -4.17501 629.829 -4.17501 642.989C-4.17501 654.631 5.51998 666.553 21.5475 666.553C33.2039 666.553 47.2888 658.305 53.2664 654.181C45.701 667.847 27.2637 685 0.476341 685C-11.1801 685 -20.1465 681.776 -23.1727 680.163C-21.3421 680.351 -16.672 680.895 -9.72301 680.445C-2.774 679.995 2.99816 677.708 4.34313 676.677C-0.438984 675.72 -12.6483 671.525 -20.763 663.067C-28.8776 654.608 -28.702 641.583 -27.5999 636.465C-25.022 639.784 -21.8838 643.439 -16.5039 643.439C-10.4515 643.439 -4.17501 636.465 -4.17501 628.479C-4.17501 617.456 -10.9937 607.108 -27.5999 607.108C-46.5416 607.108 -55.452 629.998 -52.706 654.181C-54.7235 650.525 -61 640.965 -61 621.787Z" fill="#B573E5"/>
<path d="M-61 778.787C-61 755.121 -45.2153 737.451 -37.1268 731.602C-37.1268 731.602 -47.7745 746.112 -47.7745 757.641C-38.864 747.012 -26.311 741.838 -17.7928 741.838C-9.27469 741.838 -0.308224 746.955 2.54984 749.88C-1.65319 750.611 -9.55489 751.68 -9.55489 761.353C-9.55489 772.432 2.15755 777.325 8.77032 777.325C15.3831 777.325 30.514 772.826 30.514 752.579C30.514 736.382 10.19 723.504 0.0840607 719.004C7.6682 718.873 26.5239 721.603 40.8254 734.245C55.127 746.888 60.1033 765.346 61 772.826C59.5429 769.395 56.0684 762.14 52.0335 757.472C47.918 752.711 45.2526 750.948 44.0758 750.33C45.1966 752.748 46.4855 758.878 46.4855 767.708C46.4855 786.244 32.5875 795.621 25.3583 797.965C25.9934 796.296 27.2637 792.959 27.2637 789.247C27.2637 785.536 22.4442 779.574 14.9348 779.574C7.42535 779.574 -4.17501 786.829 -4.17501 799.989C-4.17501 811.631 5.51998 823.553 21.5475 823.553C33.2039 823.553 47.2888 815.305 53.2664 811.181C45.701 824.847 27.2637 842 0.476341 842C-11.1801 842 -20.1465 838.776 -23.1727 837.163C-21.3421 837.351 -16.672 837.895 -9.72301 837.445C-2.774 836.995 2.99816 834.708 4.34313 833.677C-0.438984 832.72 -12.6483 828.525 -20.763 820.067C-28.8776 811.608 -28.702 798.583 -27.5999 793.465C-25.022 796.784 -21.8838 800.439 -16.5039 800.439C-10.4515 800.439 -4.17501 793.465 -4.17501 785.479C-4.17501 774.456 -10.9937 764.108 -27.5999 764.108C-46.5416 764.108 -55.452 786.998 -52.706 811.181C-54.7235 807.525 -61 797.965 -61 778.787Z" fill="#B573E5"/>
<path d="M-61 935.787C-61 912.121 -45.2153 894.451 -37.1268 888.602C-37.1268 888.602 -47.7745 903.112 -47.7745 914.641C-38.864 904.012 -26.311 898.838 -17.7928 898.838C-9.27469 898.838 -0.308224 903.955 2.54984 906.88C-1.65319 907.611 -9.55489 908.68 -9.55489 918.353C-9.55489 929.432 2.15755 934.325 8.77032 934.325C15.3831 934.325 30.514 929.826 30.514 909.579C30.514 893.382 10.19 880.504 0.0840607 876.004C7.6682 875.873 26.5239 878.603 40.8254 891.245C55.127 903.888 60.1033 922.346 61 929.826C59.5429 926.395 56.0684 919.14 52.0335 914.472C47.918 909.711 45.2526 907.948 44.0758 907.33C45.1966 909.748 46.4855 915.878 46.4855 924.708C46.4855 943.244 32.5875 952.621 25.3583 954.965C25.9934 953.296 27.2637 949.959 27.2637 946.247C27.2637 942.536 22.4442 936.574 14.9348 936.574C7.42535 936.574 -4.17501 943.829 -4.17501 956.989C-4.17501 968.631 5.51998 980.553 21.5475 980.553C33.2039 980.553 47.2888 972.305 53.2664 968.181C45.701 981.847 27.2637 999 0.476341 999C-11.1801 999 -20.1465 995.776 -23.1727 994.163C-21.3421 994.351 -16.672 994.895 -9.72301 994.445C-2.774 993.995 2.99816 991.708 4.34313 990.677C-0.438984 989.72 -12.6483 985.525 -20.763 977.067C-28.8776 968.608 -28.702 955.583 -27.5999 950.465C-25.022 953.784 -21.8838 957.439 -16.5039 957.439C-10.4515 957.439 -4.17501 950.465 -4.17501 942.479C-4.17501 931.456 -10.9937 921.108 -27.5999 921.108C-46.5416 921.108 -55.452 943.998 -52.706 968.181C-54.7235 964.525 -61 954.965 -61 935.787Z" fill="#B573E5"/>
<path d="M-61 1092.79C-61 1069.12 -45.2153 1051.45 -37.1268 1045.6C-37.1268 1045.6 -47.7745 1060.11 -47.7745 1071.64C-38.864 1061.01 -26.311 1055.84 -17.7928 1055.84C-9.27469 1055.84 -0.308224 1060.96 2.54984 1063.88C-1.65319 1064.61 -9.55489 1065.68 -9.55489 1075.35C-9.55489 1086.43 2.15755 1091.32 8.77032 1091.32C15.3831 1091.32 30.514 1086.83 30.514 1066.58C30.514 1050.38 10.19 1037.5 0.0840607 1033C7.6682 1032.87 26.5239 1035.6 40.8254 1048.25C55.127 1060.89 60.1033 1079.35 61 1086.83C59.5429 1083.39 56.0684 1076.14 52.0335 1071.47C47.918 1066.71 45.2526 1064.95 44.0758 1064.33C45.1966 1066.75 46.4855 1072.88 46.4855 1081.71C46.4855 1100.24 32.5875 1109.62 25.3583 1111.96C25.9934 1110.3 27.2637 1106.96 27.2637 1103.25C27.2637 1099.54 22.4442 1093.57 14.9348 1093.57C7.42535 1093.57 -4.17501 1100.83 -4.17501 1113.99C-4.17501 1125.63 5.51998 1137.55 21.5475 1137.55C33.2039 1137.55 47.2888 1129.31 53.2664 1125.18C45.701 1138.85 27.2637 1156 0.476341 1156C-11.1801 1156 -20.1465 1152.78 -23.1727 1151.16C-21.3421 1151.35 -16.672 1151.89 -9.72301 1151.44C-2.774 1150.99 2.99816 1148.71 4.34313 1147.68C-0.438984 1146.72 -12.6483 1142.53 -20.763 1134.07C-28.8776 1125.61 -28.702 1112.58 -27.5999 1107.47C-25.022 1110.78 -21.8838 1114.44 -16.5039 1114.44C-10.4515 1114.44 -4.17501 1107.47 -4.17501 1099.48C-4.17501 1088.46 -10.9937 1078.11 -27.5999 1078.11C-46.5416 1078.11 -55.452 1101 -52.706 1125.18C-54.7235 1121.53 -61 1111.96 -61 1092.79Z" fill="#B573E5"/>
<path d="M-61 1249.79C-61 1226.12 -45.2153 1208.45 -37.1268 1202.6C-37.1268 1202.6 -47.7745 1217.11 -47.7745 1228.64C-38.864 1218.01 -26.311 1212.84 -17.7928 1212.84C-9.27469 1212.84 -0.308224 1217.96 2.54984 1220.88C-1.65319 1221.61 -9.55489 1222.68 -9.55489 1232.35C-9.55489 1243.43 2.15755 1248.32 8.77032 1248.32C15.3831 1248.32 30.514 1243.83 30.514 1223.58C30.514 1207.38 10.19 1194.5 0.0840607 1190C7.6682 1189.87 26.5239 1192.6 40.8254 1205.25C55.127 1217.89 60.1033 1236.35 61 1243.83C59.5429 1240.39 56.0684 1233.14 52.0335 1228.47C47.918 1223.71 45.2526 1221.95 44.0758 1221.33C45.1966 1223.75 46.4855 1229.88 46.4855 1238.71C46.4855 1257.24 32.5875 1266.62 25.3583 1268.96C25.9934 1267.3 27.2637 1263.96 27.2637 1260.25C27.2637 1256.54 22.4442 1250.57 14.9348 1250.57C7.42535 1250.57 -4.17501 1257.83 -4.17501 1270.99C-4.17501 1282.63 5.51998 1294.55 21.5475 1294.55C33.2039 1294.55 47.2888 1286.31 53.2664 1282.18C45.701 1295.85 27.2637 1313 0.476341 1313C-11.1801 1313 -20.1465 1309.78 -23.1727 1308.16C-21.3421 1308.35 -16.672 1308.89 -9.72301 1308.44C-2.774 1307.99 2.99816 1305.71 4.34313 1304.68C-0.438984 1303.72 -12.6483 1299.53 -20.763 1291.07C-28.8776 1282.61 -28.702 1269.58 -27.5999 1264.47C-25.022 1267.78 -21.8838 1271.44 -16.5039 1271.44C-10.4515 1271.44 -4.17501 1264.47 -4.17501 1256.48C-4.17501 1245.46 -10.9937 1235.11 -27.5999 1235.11C-46.5416 1235.11 -55.452 1258 -52.706 1282.18C-54.7235 1278.53 -61 1268.96 -61 1249.79Z" fill="#B573E5"/>
<path d="M-61 1406.79C-61 1383.12 -45.2153 1365.45 -37.1268 1359.6C-37.1268 1359.6 -47.7745 1374.11 -47.7745 1385.64C-38.864 1375.01 -26.311 1369.84 -17.7928 1369.84C-9.27469 1369.84 -0.308224 1374.96 2.54984 1377.88C-1.65319 1378.61 -9.55489 1379.68 -9.55489 1389.35C-9.55489 1400.43 2.15755 1405.32 8.77032 1405.32C15.3831 1405.32 30.514 1400.83 30.514 1380.58C30.514 1364.38 10.19 1351.5 0.0840607 1347C7.6682 1346.87 26.5239 1349.6 40.8254 1362.25C55.127 1374.89 60.1033 1393.35 61 1400.83C59.5429 1397.39 56.0684 1390.14 52.0335 1385.47C47.918 1380.71 45.2526 1378.95 44.0758 1378.33C45.1966 1380.75 46.4855 1386.88 46.4855 1395.71C46.4855 1414.24 32.5875 1423.62 25.3583 1425.96C25.9934 1424.3 27.2637 1420.96 27.2637 1417.25C27.2637 1413.54 22.4442 1407.57 14.9348 1407.57C7.42535 1407.57 -4.17501 1414.83 -4.17501 1427.99C-4.17501 1439.63 5.51998 1451.55 21.5475 1451.55C33.2039 1451.55 47.2888 1443.31 53.2664 1439.18C45.701 1452.85 27.2637 1470 0.476341 1470C-11.1801 1470 -20.1465 1466.78 -23.1727 1465.16C-21.3421 1465.35 -16.672 1465.89 -9.72301 1465.44C-2.774 1464.99 2.99816 1462.71 4.34313 1461.68C-0.438984 1460.72 -12.6483 1456.53 -20.763 1448.07C-28.8776 1439.61 -28.702 1426.58 -27.5999 1421.47C-25.022 1424.78 -21.8838 1428.44 -16.5039 1428.44C-10.4515 1428.44 -4.17501 1421.47 -4.17501 1413.48C-4.17501 1402.46 -10.9937 1392.11 -27.5999 1392.11C-46.5416 1392.11 -55.452 1415 -52.706 1439.18C-54.7235 1435.53 -61 1425.96 -61 1406.79Z" fill="#B573E5"/>
<path d="M-61 1563.79C-61 1540.12 -45.2153 1522.45 -37.1268 1516.6C-37.1268 1516.6 -47.7745 1531.11 -47.7745 1542.64C-38.864 1532.01 -26.311 1526.84 -17.7928 1526.84C-9.27469 1526.84 -0.308224 1531.96 2.54984 1534.88C-1.65319 1535.61 -9.55489 1536.68 -9.55489 1546.35C-9.55489 1557.43 2.15755 1562.32 8.77032 1562.32C15.3831 1562.32 30.514 1557.83 30.514 1537.58C30.514 1521.38 10.19 1508.5 0.0840607 1504C7.6682 1503.87 26.5239 1506.6 40.8254 1519.25C55.127 1531.89 60.1033 1550.35 61 1557.83C59.5429 1554.39 56.0684 1547.14 52.0335 1542.47C47.918 1537.71 45.2526 1535.95 44.0758 1535.33C45.1966 1537.75 46.4855 1543.88 46.4855 1552.71C46.4855 1571.24 32.5875 1580.62 25.3583 1582.96C25.9934 1581.3 27.2637 1577.96 27.2637 1574.25C27.2637 1570.54 22.4442 1564.57 14.9348 1564.57C7.42535 1564.57 -4.17501 1571.83 -4.17501 1584.99C-4.17501 1596.63 5.51998 1608.55 21.5475 1608.55C33.2039 1608.55 47.2888 1600.31 53.2664 1596.18C45.701 1609.85 27.2637 1627 0.476341 1627C-11.1801 1627 -20.1465 1623.78 -23.1727 1622.16C-21.3421 1622.35 -16.672 1622.89 -9.72301 1622.44C-2.774 1621.99 2.99816 1619.71 4.34313 1618.68C-0.438984 1617.72 -12.6483 1613.53 -20.763 1605.07C-28.8776 1596.61 -28.702 1583.58 -27.5999 1578.47C-25.022 1581.78 -21.8838 1585.44 -16.5039 1585.44C-10.4515 1585.44 -4.17501 1578.47 -4.17501 1570.48C-4.17501 1559.46 -10.9937 1549.11 -27.5999 1549.11C-46.5416 1549.11 -55.452 1572 -52.706 1596.18C-54.7235 1592.53 -61 1582.96 -61 1563.79Z" fill="#B573E5"/>
</g>
</g>
</svg>
