<svg width="80" height="1600" viewBox="0 0 80 1600" fill="none" xmlns="http://www.w3.org/2000/svg">
<g opacity="0.08">
<mask id="mask0_601_9732" style="mask-type:alpha" maskUnits="userSpaceOnUse" x="0" y="0" width="80" height="1600">
<rect x="80" y="1600" width="80" height="1600" transform="rotate(180 80 1600)" fill="#C4C4C4"/>
</mask>
<g mask="url(#mask0_601_9732)">
<path d="M141 1606.21C141 1629.88 125.215 1647.55 117.127 1653.4C117.127 1653.4 127.774 1638.89 127.774 1627.36C118.864 1637.99 106.311 1643.16 97.7928 1643.16C89.2747 1643.16 80.3082 1638.04 77.4502 1635.12C81.6532 1634.39 89.5549 1633.32 89.5549 1623.65C89.5549 1612.57 77.8424 1607.68 71.2297 1607.68C64.6169 1607.68 49.486 1612.17 49.486 1632.42C49.486 1648.62 69.81 1661.5 79.9159 1666C72.3318 1666.13 53.4761 1663.4 39.1746 1650.75C24.873 1638.11 19.8967 1619.65 19 1612.17C20.4571 1615.61 23.9316 1622.86 27.9665 1627.53C32.082 1632.29 34.7474 1634.05 35.9242 1634.67C34.8034 1632.25 33.5145 1626.12 33.5145 1617.29C33.5145 1598.76 47.4125 1589.38 54.6417 1587.04C54.0066 1588.7 52.7363 1592.04 52.7363 1595.75C52.7363 1599.46 57.5558 1605.43 65.0652 1605.43C72.5746 1605.43 84.175 1598.17 84.175 1585.01C84.175 1573.37 74.48 1561.45 58.4525 1561.45C46.7961 1561.45 32.7112 1569.69 26.7336 1573.82C34.299 1560.15 52.7363 1543 79.5237 1543C91.1801 1543 100.147 1546.22 103.173 1547.84C101.342 1547.65 96.672 1547.11 89.723 1547.56C82.774 1548.01 77.0018 1550.29 75.6569 1551.32C80.439 1552.28 92.6483 1556.47 100.763 1564.93C108.878 1573.39 108.702 1586.42 107.6 1591.53C105.022 1588.22 101.884 1584.56 96.5039 1584.56C90.4515 1584.56 84.175 1591.53 84.175 1599.52C84.175 1610.54 90.9937 1620.89 107.6 1620.89C126.542 1620.89 135.452 1598 132.706 1573.82C134.723 1577.47 141 1587.04 141 1606.21Z" fill="#B573E5"/>
<path d="M141 1449.21C141 1472.88 125.215 1490.55 117.127 1496.4C117.127 1496.4 127.774 1481.89 127.774 1470.36C118.864 1480.99 106.311 1486.16 97.7928 1486.16C89.2747 1486.16 80.3082 1481.04 77.4502 1478.12C81.6532 1477.39 89.5549 1476.32 89.5549 1466.65C89.5549 1455.57 77.8424 1450.68 71.2297 1450.68C64.6169 1450.68 49.486 1455.17 49.486 1475.42C49.486 1491.62 69.81 1504.5 79.9159 1509C72.3318 1509.13 53.4761 1506.4 39.1746 1493.75C24.873 1481.11 19.8967 1462.65 19 1455.17C20.4571 1458.61 23.9316 1465.86 27.9665 1470.53C32.082 1475.29 34.7474 1477.05 35.9242 1477.67C34.8034 1475.25 33.5145 1469.12 33.5145 1460.29C33.5145 1441.76 47.4125 1432.38 54.6417 1430.04C54.0066 1431.7 52.7363 1435.04 52.7363 1438.75C52.7363 1442.46 57.5558 1448.43 65.0652 1448.43C72.5746 1448.43 84.175 1441.17 84.175 1428.01C84.175 1416.37 74.48 1404.45 58.4525 1404.45C46.7961 1404.45 32.7112 1412.69 26.7336 1416.82C34.299 1403.15 52.7363 1386 79.5237 1386C91.1801 1386 100.147 1389.22 103.173 1390.84C101.342 1390.65 96.672 1390.11 89.723 1390.56C82.774 1391.01 77.0018 1393.29 75.6569 1394.32C80.439 1395.28 92.6483 1399.47 100.763 1407.93C108.878 1416.39 108.702 1429.42 107.6 1434.53C105.022 1431.22 101.884 1427.56 96.5039 1427.56C90.4515 1427.56 84.175 1434.53 84.175 1442.52C84.175 1453.54 90.9937 1463.89 107.6 1463.89C126.542 1463.89 135.452 1441 132.706 1416.82C134.723 1420.47 141 1430.04 141 1449.21Z" fill="#B573E5"/>
<path d="M141 1292.21C141 1315.88 125.215 1333.55 117.127 1339.4C117.127 1339.4 127.774 1324.89 127.774 1313.36C118.864 1323.99 106.311 1329.16 97.7928 1329.16C89.2747 1329.16 80.3082 1324.04 77.4502 1321.12C81.6532 1320.39 89.5549 1319.32 89.5549 1309.65C89.5549 1298.57 77.8424 1293.68 71.2297 1293.68C64.6169 1293.68 49.486 1298.17 49.486 1318.42C49.486 1334.62 69.81 1347.5 79.9159 1352C72.3318 1352.13 53.4761 1349.4 39.1746 1336.75C24.873 1324.11 19.8967 1305.65 19 1298.17C20.4571 1301.61 23.9316 1308.86 27.9665 1313.53C32.082 1318.29 34.7474 1320.05 35.9242 1320.67C34.8034 1318.25 33.5145 1312.12 33.5145 1303.29C33.5145 1284.76 47.4125 1275.38 54.6417 1273.04C54.0066 1274.7 52.7363 1278.04 52.7363 1281.75C52.7363 1285.46 57.5558 1291.43 65.0652 1291.43C72.5746 1291.43 84.175 1284.17 84.175 1271.01C84.175 1259.37 74.48 1247.45 58.4525 1247.45C46.7961 1247.45 32.7112 1255.69 26.7336 1259.82C34.299 1246.15 52.7363 1229 79.5237 1229C91.1801 1229 100.147 1232.22 103.173 1233.84C101.342 1233.65 96.672 1233.11 89.723 1233.56C82.774 1234.01 77.0018 1236.29 75.6569 1237.32C80.439 1238.28 92.6483 1242.47 100.763 1250.93C108.878 1259.39 108.702 1272.42 107.6 1277.53C105.022 1274.22 101.884 1270.56 96.5039 1270.56C90.4515 1270.56 84.175 1277.53 84.175 1285.52C84.175 1296.54 90.9937 1306.89 107.6 1306.89C126.542 1306.89 135.452 1284 132.706 1259.82C134.723 1263.47 141 1273.04 141 1292.21Z" fill="#B573E5"/>
<path d="M141 1135.21C141 1158.88 125.215 1176.55 117.127 1182.4C117.127 1182.4 127.774 1167.89 127.774 1156.36C118.864 1166.99 106.311 1172.16 97.7928 1172.16C89.2747 1172.16 80.3082 1167.04 77.4502 1164.12C81.6532 1163.39 89.5549 1162.32 89.5549 1152.65C89.5549 1141.57 77.8424 1136.68 71.2297 1136.68C64.6169 1136.68 49.486 1141.17 49.486 1161.42C49.486 1177.62 69.81 1190.5 79.9159 1195C72.3318 1195.13 53.4761 1192.4 39.1746 1179.75C24.873 1167.11 19.8967 1148.65 19 1141.17C20.4571 1144.61 23.9316 1151.86 27.9665 1156.53C32.082 1161.29 34.7474 1163.05 35.9242 1163.67C34.8034 1161.25 33.5145 1155.12 33.5145 1146.29C33.5145 1127.76 47.4125 1118.38 54.6417 1116.04C54.0066 1117.7 52.7363 1121.04 52.7363 1124.75C52.7363 1128.46 57.5558 1134.43 65.0652 1134.43C72.5746 1134.43 84.175 1127.17 84.175 1114.01C84.175 1102.37 74.48 1090.45 58.4525 1090.45C46.7961 1090.45 32.7112 1098.69 26.7336 1102.82C34.299 1089.15 52.7363 1072 79.5237 1072C91.1801 1072 100.147 1075.22 103.173 1076.84C101.342 1076.65 96.672 1076.11 89.723 1076.56C82.774 1077.01 77.0018 1079.29 75.6569 1080.32C80.439 1081.28 92.6483 1085.47 100.763 1093.93C108.878 1102.39 108.702 1115.42 107.6 1120.53C105.022 1117.22 101.884 1113.56 96.5039 1113.56C90.4515 1113.56 84.175 1120.53 84.175 1128.52C84.175 1139.54 90.9937 1149.89 107.6 1149.89C126.542 1149.89 135.452 1127 132.706 1102.82C134.723 1106.47 141 1116.04 141 1135.21Z" fill="#B573E5"/>
<path d="M141 978.213C141 1001.88 125.215 1019.55 117.127 1025.4C117.127 1025.4 127.774 1010.89 127.774 999.359C118.864 1009.99 106.311 1015.16 97.7928 1015.16C89.2747 1015.16 80.3082 1010.04 77.4502 1007.12C81.6532 1006.39 89.5549 1005.32 89.5549 995.647C89.5549 984.568 77.8424 979.675 71.2297 979.675C64.6169 979.675 49.486 984.174 49.486 1004.42C49.486 1020.62 69.81 1033.5 79.9159 1038C72.3318 1038.13 53.4761 1035.4 39.1746 1022.75C24.873 1010.11 19.8967 991.654 19 984.174C20.4571 987.605 23.9316 994.86 27.9665 999.528C32.082 1004.29 34.7474 1006.05 35.9242 1006.67C34.8034 1004.25 33.5145 998.122 33.5145 989.292C33.5145 970.756 47.4125 961.379 54.6417 959.035C54.0066 960.704 52.7363 964.041 52.7363 967.753C52.7363 971.464 57.5558 977.426 65.0652 977.426C72.5746 977.426 84.175 970.171 84.175 957.011C84.175 945.369 74.48 933.447 58.4525 933.447C46.7961 933.447 32.7112 941.695 26.7336 945.819C34.299 932.153 52.7363 915 79.5237 915C91.1801 915 100.147 918.224 103.173 919.837C101.342 919.649 96.672 919.105 89.723 919.555C82.774 920.005 77.0018 922.292 75.6569 923.323C80.439 924.28 92.6483 928.475 100.763 936.933C108.878 945.392 108.702 958.417 107.6 963.535C105.022 960.216 101.884 956.561 96.5039 956.561C90.4515 956.561 84.175 963.535 84.175 971.521C84.175 982.544 90.9937 992.892 107.6 992.892C126.542 992.892 135.452 970.002 132.706 945.819C134.723 949.475 141 959.035 141 978.213Z" fill="#B573E5"/>
<path d="M141 821.213C141 844.879 125.215 862.549 117.127 868.398C117.127 868.398 127.774 853.888 127.774 842.359C118.864 852.988 106.311 858.162 97.7928 858.162C89.2747 858.162 80.3082 853.045 77.4502 850.12C81.6532 849.389 89.5549 848.32 89.5549 838.647C89.5549 827.568 77.8424 822.675 71.2297 822.675C64.6169 822.675 49.486 827.174 49.486 847.421C49.486 863.618 69.81 876.496 79.9159 880.996C72.3318 881.127 53.4761 878.397 39.1746 865.755C24.873 853.112 19.8967 834.654 19 827.174C20.4571 830.605 23.9316 837.86 27.9665 842.528C32.082 847.289 34.7474 849.052 35.9242 849.67C34.8034 847.252 33.5145 841.122 33.5145 832.292C33.5145 813.756 47.4125 804.379 54.6417 802.035C54.0066 803.704 52.7363 807.041 52.7363 810.753C52.7363 814.464 57.5558 820.426 65.0652 820.426C72.5746 820.426 84.175 813.171 84.175 800.011C84.175 788.369 74.48 776.447 58.4525 776.447C46.7961 776.447 32.7112 784.695 26.7336 788.819C34.299 775.153 52.7363 758 79.5237 758C91.1801 758 100.147 761.224 103.173 762.837C101.342 762.649 96.672 762.105 89.723 762.555C82.774 763.005 77.0018 765.292 75.6569 766.323C80.439 767.28 92.6483 771.475 100.763 779.933C108.878 788.392 108.702 801.417 107.6 806.535C105.022 803.216 101.884 799.561 96.5039 799.561C90.4515 799.561 84.175 806.535 84.175 814.521C84.175 825.544 90.9937 835.892 107.6 835.892C126.542 835.892 135.452 813.002 132.706 788.819C134.723 792.475 141 802.035 141 821.213Z" fill="#B573E5"/>
<path d="M141 664.213C141 687.879 125.215 705.549 117.127 711.398C117.127 711.398 127.774 696.888 127.774 685.359C118.864 695.988 106.311 701.162 97.7928 701.162C89.2747 701.162 80.3082 696.045 77.4502 693.12C81.6532 692.389 89.5549 691.32 89.5549 681.647C89.5549 670.568 77.8424 665.675 71.2297 665.675C64.6169 665.675 49.486 670.174 49.486 690.421C49.486 706.618 69.81 719.496 79.9159 723.996C72.3318 724.127 53.4761 721.397 39.1746 708.755C24.873 696.112 19.8967 677.654 19 670.174C20.4571 673.605 23.9316 680.86 27.9665 685.528C32.082 690.289 34.7474 692.052 35.9242 692.67C34.8034 690.252 33.5145 684.122 33.5145 675.292C33.5145 656.756 47.4125 647.379 54.6417 645.035C54.0066 646.704 52.7363 650.041 52.7363 653.753C52.7363 657.464 57.5558 663.426 65.0652 663.426C72.5746 663.426 84.175 656.171 84.175 643.011C84.175 631.369 74.48 619.447 58.4525 619.447C46.7961 619.447 32.7112 627.695 26.7336 631.819C34.299 618.153 52.7363 601 79.5237 601C91.1801 601 100.147 604.224 103.173 605.837C101.342 605.649 96.672 605.105 89.723 605.555C82.774 606.005 77.0018 608.292 75.6569 609.323C80.439 610.28 92.6483 614.475 100.763 622.933C108.878 631.392 108.702 644.417 107.6 649.535C105.022 646.216 101.884 642.561 96.5039 642.561C90.4515 642.561 84.175 649.535 84.175 657.521C84.175 668.544 90.9937 678.892 107.6 678.892C126.542 678.892 135.452 656.002 132.706 631.819C134.723 635.475 141 645.035 141 664.213Z" fill="#B573E5"/>
<path d="M141 507.213C141 530.879 125.215 548.549 117.127 554.398C117.127 554.398 127.774 539.888 127.774 528.359C118.864 538.988 106.311 544.162 97.7928 544.162C89.2747 544.162 80.3082 539.045 77.4502 536.12C81.6532 535.389 89.5549 534.32 89.5549 524.647C89.5549 513.568 77.8424 508.675 71.2297 508.675C64.6169 508.675 49.486 513.174 49.486 533.421C49.486 549.618 69.81 562.496 79.9159 566.996C72.3318 567.127 53.4761 564.397 39.1746 551.755C24.873 539.112 19.8967 520.654 19 513.174C20.4571 516.605 23.9316 523.86 27.9665 528.528C32.082 533.289 34.7474 535.052 35.9242 535.67C34.8034 533.252 33.5145 527.122 33.5145 518.292C33.5145 499.756 47.4125 490.379 54.6417 488.035C54.0066 489.704 52.7363 493.041 52.7363 496.753C52.7363 500.464 57.5558 506.426 65.0652 506.426C72.5746 506.426 84.175 499.171 84.175 486.011C84.175 474.369 74.48 462.447 58.4525 462.447C46.7961 462.447 32.7112 470.695 26.7336 474.819C34.299 461.153 52.7363 444 79.5237 444C91.1801 444 100.147 447.224 103.173 448.837C101.342 448.649 96.672 448.105 89.723 448.555C82.774 449.005 77.0018 451.292 75.6569 452.323C80.439 453.28 92.6483 457.475 100.763 465.933C108.878 474.392 108.702 487.417 107.6 492.535C105.022 489.216 101.884 485.561 96.5039 485.561C90.4515 485.561 84.175 492.535 84.175 500.521C84.175 511.544 90.9937 521.892 107.6 521.892C126.542 521.892 135.452 499.002 132.706 474.819C134.723 478.475 141 488.035 141 507.213Z" fill="#B573E5"/>
<path d="M141 350.213C141 373.879 125.215 391.549 117.127 397.398C117.127 397.398 127.774 382.888 127.774 371.359C118.864 381.988 106.311 387.162 97.7928 387.162C89.2747 387.162 80.3082 382.045 77.4502 379.12C81.6532 378.389 89.5549 377.32 89.5549 367.647C89.5549 356.568 77.8424 351.675 71.2297 351.675C64.6169 351.675 49.486 356.174 49.486 376.421C49.486 392.618 69.81 405.496 79.9159 409.996C72.3318 410.127 53.4761 407.397 39.1746 394.755C24.873 382.112 19.8967 363.654 19 356.174C20.4571 359.605 23.9316 366.86 27.9665 371.528C32.082 376.289 34.7474 378.052 35.9242 378.67C34.8034 376.252 33.5145 370.122 33.5145 361.292C33.5145 342.756 47.4125 333.379 54.6417 331.035C54.0066 332.704 52.7363 336.041 52.7363 339.753C52.7363 343.464 57.5558 349.426 65.0652 349.426C72.5746 349.426 84.175 342.171 84.175 329.011C84.175 317.369 74.48 305.447 58.4525 305.447C46.7961 305.447 32.7112 313.695 26.7336 317.819C34.299 304.153 52.7363 287 79.5237 287C91.1801 287 100.147 290.224 103.173 291.837C101.342 291.649 96.672 291.105 89.723 291.555C82.774 292.005 77.0018 294.292 75.6569 295.323C80.439 296.28 92.6483 300.475 100.763 308.933C108.878 317.392 108.702 330.417 107.6 335.535C105.022 332.216 101.884 328.561 96.5039 328.561C90.4515 328.561 84.175 335.535 84.175 343.521C84.175 354.544 90.9937 364.892 107.6 364.892C126.542 364.892 135.452 342.002 132.706 317.819C134.723 321.475 141 331.035 141 350.213Z" fill="#B573E5"/>
<path d="M141 193.213C141 216.879 125.215 234.549 117.127 240.398C117.127 240.398 127.774 225.888 127.774 214.359C118.864 224.988 106.311 230.162 97.7928 230.162C89.2747 230.162 80.3082 225.045 77.4502 222.12C81.6532 221.389 89.5549 220.32 89.5549 210.647C89.5549 199.568 77.8424 194.675 71.2297 194.675C64.6169 194.675 49.486 199.174 49.486 219.421C49.486 235.618 69.81 248.496 79.9159 252.996C72.3318 253.127 53.4761 250.397 39.1746 237.755C24.873 225.112 19.8967 206.654 19 199.174C20.4571 202.605 23.9316 209.86 27.9665 214.528C32.082 219.289 34.7474 221.052 35.9242 221.67C34.8034 219.252 33.5145 213.122 33.5145 204.292C33.5145 185.756 47.4125 176.379 54.6417 174.035C54.0066 175.704 52.7363 179.041 52.7363 182.753C52.7363 186.464 57.5558 192.426 65.0652 192.426C72.5746 192.426 84.175 185.171 84.175 172.011C84.175 160.369 74.48 148.447 58.4525 148.447C46.7961 148.447 32.7112 156.695 26.7336 160.819C34.299 147.153 52.7363 130 79.5237 130C91.1801 130 100.147 133.224 103.173 134.837C101.342 134.649 96.672 134.105 89.723 134.555C82.774 135.005 77.0018 137.292 75.6569 138.323C80.439 139.28 92.6483 143.475 100.763 151.933C108.878 160.392 108.702 173.417 107.6 178.535C105.022 175.216 101.884 171.561 96.5039 171.561C90.4515 171.561 84.175 178.535 84.175 186.521C84.175 197.544 90.9937 207.892 107.6 207.892C126.542 207.892 135.452 185.002 132.706 160.819C134.723 164.475 141 174.035 141 193.213Z" fill="#B573E5"/>
<path d="M141 36.2131C141 59.8786 125.215 77.549 117.127 83.3979C117.127 83.3979 127.774 68.8882 127.774 57.3591C118.864 67.9883 106.311 73.1624 97.7928 73.1624C89.2747 73.1624 80.3082 68.0446 77.4502 65.1201C81.6532 64.389 89.5549 63.3205 89.5549 53.6473C89.5549 42.5681 77.8424 37.6753 71.2297 37.6753C64.6169 37.6753 49.486 42.1745 49.486 62.4206C49.486 78.6176 69.81 91.4964 79.9159 95.9956C72.3318 96.1268 53.4761 93.3973 39.1746 80.7547C24.873 68.1121 19.8967 49.6543 19 42.1745C20.4571 45.6051 23.9316 52.86 27.9665 57.5278C32.082 62.2889 34.7474 64.0516 35.9242 64.6702C34.8034 62.2519 33.5145 56.1218 33.5145 47.2923C33.5145 28.7557 47.4125 19.3788 54.6417 17.0355C54.0066 18.7039 52.7363 22.0408 52.7363 25.7526C52.7363 29.4644 57.5558 35.4257 65.0652 35.4257C72.5746 35.4257 84.175 28.1709 84.175 15.0108C84.175 3.36929 74.48 -8.55346 58.4525 -8.55346C46.7961 -8.55346 32.7112 -0.305016 26.7336 3.81921C34.299 -9.84697 52.7363 -27 79.5237 -27C91.1801 -27 100.147 -23.7756 103.173 -22.1634C101.342 -22.3509 96.672 -22.8945 89.723 -22.4446C82.774 -21.9947 77.0018 -19.7076 75.6569 -18.6766C80.439 -17.7205 92.6483 -13.525 100.763 -5.06662C108.878 3.39178 108.702 16.4168 107.6 21.5346C105.022 18.2165 101.884 14.5609 96.5039 14.5609C90.4515 14.5609 84.175 21.5346 84.175 29.5206C84.175 40.5435 90.9937 50.8916 107.6 50.8916C126.542 50.8916 135.452 28.0021 132.706 3.81921C134.723 7.47476 141 17.0355 141 36.2131Z" fill="#B573E5"/>
</g>
</g>
</svg>
