<svg width="80" height="1600" viewBox="0 0 80 1600" fill="none" xmlns="http://www.w3.org/2000/svg">
<g opacity="0.04">
<mask id="mask0_601_9285" style="mask-type:alpha" maskUnits="userSpaceOnUse" x="0" y="0" width="80" height="1600">
<rect width="80" height="1600" fill="#C4C4C4"/>
</mask>
<g mask="url(#mask0_601_9285)">
<g filter="url(#filter0_d_601_9285)">
<path d="M-7.11968 -32.7808C-2.99457 -40.0017 -2.10266 -47.269 -2.17234 -50C2.63564 -44.2603 12.4606 -31.9337 12.4606 -24.6572C12.4606 -12.801 -4.82021 -9.79869 -4.82021 4.5738C-4.82021 12.3502 0.707802 16.9096 3.68085 18.8074C2.05497 16.7707 -1.19681 11.5865 -1.19681 7.14279C-1.19681 -3.40601 10.8348 -12.3425 16.8505 -15.4921C15.5731 -12.4371 13.0181 -6.6048 13.0181 3.39345C13.0181 13.3917 24.0741 26.0747 29.6021 31.0969C28.3247 28.4122 28.7578 26.3061 24.167 20.7515C22.216 18.3908 20.0559 14.5998 20.0559 8.04541C20.0559 1.491 25.3516 -5.28559 27.9995 -7.85459L28.0497 -7.67159C29.6748 -1.75464 33.1884 11.0386 42.9809 18.3908C55.3144 27.6508 65 40.8175 65 52.2044C65 59.8419 56.5686 74.5616 37.8942 82.8934C19.2197 91.2253 7.14167 102.89 1.10266 109C-5.05248 103.931 -20.9722 92.2807 -35.4101 84.0044C-53.4574 73.6589 -66 65.3965 -66 55.676C-66 38.179 -50.7399 21.7236 -43.9809 13.3917C-38.5736 6.7262 -33.3197 -2.53144 -31.3686 -6.32708C-31.2293 -2.67031 -29.0273 7.22611 -21.3346 13.3917C-13.6418 19.5573 -3.1711 22.9271 1.10266 24.362C-3.19432 24.362 -13.6976 25.709 -21.3346 31.0969C-30.8808 37.8319 -35.4101 46.0943 -35.4101 55.676C-35.4101 63.3413 -29.8356 71.4603 -27.0484 74.5616C-35.4101 70.1873 -50.4612 61.5777 -50.4612 46.5803C-50.4612 38.915 -44.4686 29.8934 -41.333 26.5838C-46.8378 29.5694 -57.8473 38.5956 -57.8473 50.8157C-57.8473 66.0908 -41.333 72.6175 -27.0484 79.6301C-17.6938 84.2225 -4.47181 93.1 1.10266 96.7105C2.31046 94.8127 15.9447 85.5281 27.9995 79.6301C51.2729 68.2432 58.7984 60.1196 58.7984 48.941C58.7984 39.9982 48.5786 31.8607 43.7473 29.2223C45.1874 30.7729 48.625 37.7624 48.625 50.8157C48.625 70.6734 20.0559 82.8934 4.72607 82.8934C-3.00851 82.8934 -27.0484 79.6301 -27.0484 63.7996C-27.0484 51.1351 -13.7626 50.7926 -7.11968 52.2044C-9.76755 54.6576 -15.0633 56.648 -15.0633 65.3965C-15.0633 71.2288 -11.9973 79.6301 4.72607 79.6301C21.4495 79.6301 33.9223 66.5074 33.9223 55.676C33.9223 49.3576 31.2745 33.3188 10.4399 25.4035C-10.3947 17.4882 -23.3553 11.5684 -23.3553 -3.89695C-23.3553 -15.0755 -12.2761 -23.7546 -7.11968 -32.7808Z" fill="#DD2B2C"/>
<path d="M6.81649 69.4236C9.5805 65.2345 12.2516 54.4134 4.2383 47.8996C-0.0122299 44.4444 -8.1448 43.442 -20.0803 46.7192C-16.7661 39.5538 -13.3213 35.9498 -6.07447 33.7354C3.75128 30.7329 16.4743 33.9992 22.216 46.7192C26.6059 62.3415 13.5523 68.683 6.81649 69.4236Z" fill="#DD2B2C"/>
</g>
<g filter="url(#filter1_d_601_9285)">
<path d="M-7.11968 156.219C-2.99457 148.998 -2.10266 141.731 -2.17234 139C2.63564 144.74 12.4606 157.066 12.4606 164.343C12.4606 176.199 -4.82021 179.201 -4.82021 193.574C-4.82021 201.35 0.707802 205.91 3.68085 207.807C2.05497 205.771 -1.19681 200.586 -1.19681 196.143C-1.19681 185.594 10.8348 176.658 16.8505 173.508C15.5731 176.563 13.0181 182.395 13.0181 192.393C13.0181 202.392 24.0741 215.075 29.6021 220.097C28.3247 217.412 28.7578 215.306 24.167 209.752C22.216 207.391 20.0559 203.6 20.0559 197.045C20.0559 190.491 25.3516 183.714 27.9995 181.145L28.0497 181.328C29.6748 187.245 33.1884 200.039 42.9809 207.391C55.3144 216.651 65 229.817 65 241.204C65 248.842 56.5686 263.562 37.8942 271.893C19.2197 280.225 7.14167 291.89 1.10266 298C-5.05248 292.931 -20.9722 281.281 -35.4101 273.004C-53.4574 262.659 -66 254.396 -66 244.676C-66 227.179 -50.7399 210.724 -43.9809 202.392C-38.5736 195.726 -33.3197 186.469 -31.3686 182.673C-31.2293 186.33 -29.0273 196.226 -21.3346 202.392C-13.6418 208.557 -3.1711 211.927 1.10266 213.362C-3.19432 213.362 -13.6976 214.709 -21.3346 220.097C-30.8808 226.832 -35.4101 235.094 -35.4101 244.676C-35.4101 252.341 -29.8356 260.46 -27.0484 263.562C-35.4101 259.187 -50.4612 250.578 -50.4612 235.58C-50.4612 227.915 -44.4686 218.893 -41.333 215.584C-46.8378 218.569 -57.8473 227.596 -57.8473 239.816C-57.8473 255.091 -41.333 261.617 -27.0484 268.63C-17.6938 273.223 -4.47181 282.1 1.10266 285.71C2.31046 283.813 15.9447 274.528 27.9995 268.63C51.2729 257.243 58.7984 249.12 58.7984 237.941C58.7984 228.998 48.5786 220.861 43.7473 218.222C45.1874 219.773 48.625 226.762 48.625 239.816C48.625 259.673 20.0559 271.893 4.72607 271.893C-3.00851 271.893 -27.0484 268.63 -27.0484 252.8C-27.0484 240.135 -13.7626 239.793 -7.11968 241.204C-9.76755 243.658 -15.0633 245.648 -15.0633 254.396C-15.0633 260.229 -11.9973 268.63 4.72607 268.63C21.4495 268.63 33.9223 255.507 33.9223 244.676C33.9223 238.358 31.2745 222.319 10.4399 214.403C-10.3947 206.488 -23.3553 200.568 -23.3553 185.103C-23.3553 173.924 -12.2761 165.245 -7.11968 156.219Z" fill="#DD2B2C"/>
<path d="M6.81649 258.424C9.5805 254.234 12.2516 243.413 4.2383 236.9C-0.0122299 233.444 -8.1448 232.442 -20.0803 235.719C-16.7661 228.554 -13.3213 224.95 -6.07447 222.735C3.75128 219.733 16.4743 222.999 22.216 235.719C26.6059 251.341 13.5523 257.683 6.81649 258.424Z" fill="#DD2B2C"/>
</g>
<g filter="url(#filter2_d_601_9285)">
<path d="M-7.11968 345.219C-2.99457 337.998 -2.10266 330.731 -2.17234 328C2.63564 333.74 12.4606 346.066 12.4606 353.343C12.4606 365.199 -4.82021 368.201 -4.82021 382.574C-4.82021 390.35 0.707802 394.91 3.68085 396.807C2.05497 394.771 -1.19681 389.586 -1.19681 385.143C-1.19681 374.594 10.8348 365.658 16.8505 362.508C15.5731 365.563 13.0181 371.395 13.0181 381.393C13.0181 391.392 24.0741 404.075 29.6021 409.097C28.3247 406.412 28.7578 404.306 24.167 398.752C22.216 396.391 20.0559 392.6 20.0559 386.045C20.0559 379.491 25.3516 372.714 27.9995 370.145L28.0497 370.328C29.6748 376.245 33.1884 389.039 42.9809 396.391C55.3144 405.651 65 418.817 65 430.204C65 437.842 56.5686 452.562 37.8942 460.893C19.2197 469.225 7.14167 480.89 1.10266 487C-5.05248 481.931 -20.9722 470.281 -35.4101 462.004C-53.4574 451.659 -66 443.396 -66 433.676C-66 416.179 -50.7399 399.724 -43.9809 391.392C-38.5736 384.726 -33.3197 375.469 -31.3686 371.673C-31.2293 375.33 -29.0273 385.226 -21.3346 391.392C-13.6418 397.557 -3.1711 400.927 1.10266 402.362C-3.19432 402.362 -13.6976 403.709 -21.3346 409.097C-30.8808 415.832 -35.4101 424.094 -35.4101 433.676C-35.4101 441.341 -29.8356 449.46 -27.0484 452.562C-35.4101 448.187 -50.4612 439.578 -50.4612 424.58C-50.4612 416.915 -44.4686 407.893 -41.333 404.584C-46.8378 407.569 -57.8473 416.596 -57.8473 428.816C-57.8473 444.091 -41.333 450.617 -27.0484 457.63C-17.6938 462.223 -4.47181 471.1 1.10266 474.71C2.31046 472.813 15.9447 463.528 27.9995 457.63C51.2729 446.243 58.7984 438.12 58.7984 426.941C58.7984 417.998 48.5786 409.861 43.7473 407.222C45.1874 408.773 48.625 415.762 48.625 428.816C48.625 448.673 20.0559 460.893 4.72607 460.893C-3.00851 460.893 -27.0484 457.63 -27.0484 441.8C-27.0484 429.135 -13.7626 428.793 -7.11968 430.204C-9.76755 432.658 -15.0633 434.648 -15.0633 443.396C-15.0633 449.229 -11.9973 457.63 4.72607 457.63C21.4495 457.63 33.9223 444.507 33.9223 433.676C33.9223 427.358 31.2745 411.319 10.4399 403.403C-10.3947 395.488 -23.3553 389.568 -23.3553 374.103C-23.3553 362.924 -12.2761 354.245 -7.11968 345.219Z" fill="#DD2B2C"/>
<path d="M6.81649 447.424C9.5805 443.234 12.2516 432.413 4.2383 425.9C-0.0122299 422.444 -8.1448 421.442 -20.0803 424.719C-16.7661 417.554 -13.3213 413.95 -6.07447 411.735C3.75128 408.733 16.4743 411.999 22.216 424.719C26.6059 440.341 13.5523 446.683 6.81649 447.424Z" fill="#DD2B2C"/>
</g>
<g filter="url(#filter3_d_601_9285)">
<path d="M-7.11968 534.219C-2.99457 526.998 -2.10266 519.731 -2.17234 517C2.63564 522.74 12.4606 535.066 12.4606 542.343C12.4606 554.199 -4.82021 557.201 -4.82021 571.574C-4.82021 579.35 0.707802 583.91 3.68085 585.807C2.05497 583.771 -1.19681 578.586 -1.19681 574.143C-1.19681 563.594 10.8348 554.658 16.8505 551.508C15.5731 554.563 13.0181 560.395 13.0181 570.393C13.0181 580.392 24.0741 593.075 29.6021 598.097C28.3247 595.412 28.7578 593.306 24.167 587.752C22.216 585.391 20.0559 581.6 20.0559 575.045C20.0559 568.491 25.3516 561.714 27.9995 559.145L28.0497 559.328C29.6748 565.245 33.1884 578.039 42.9809 585.391C55.3144 594.651 65 607.817 65 619.204C65 626.842 56.5686 641.562 37.8942 649.893C19.2197 658.225 7.14167 669.89 1.10266 676C-5.05248 670.931 -20.9722 659.281 -35.4101 651.004C-53.4574 640.659 -66 632.396 -66 622.676C-66 605.179 -50.7399 588.724 -43.9809 580.392C-38.5736 573.726 -33.3197 564.469 -31.3686 560.673C-31.2293 564.33 -29.0273 574.226 -21.3346 580.392C-13.6418 586.557 -3.1711 589.927 1.10266 591.362C-3.19432 591.362 -13.6976 592.709 -21.3346 598.097C-30.8808 604.832 -35.4101 613.094 -35.4101 622.676C-35.4101 630.341 -29.8356 638.46 -27.0484 641.562C-35.4101 637.187 -50.4612 628.578 -50.4612 613.58C-50.4612 605.915 -44.4686 596.893 -41.333 593.584C-46.8378 596.569 -57.8473 605.596 -57.8473 617.816C-57.8473 633.091 -41.333 639.617 -27.0484 646.63C-17.6938 651.223 -4.47181 660.1 1.10266 663.71C2.31046 661.813 15.9447 652.528 27.9995 646.63C51.2729 635.243 58.7984 627.12 58.7984 615.941C58.7984 606.998 48.5786 598.861 43.7473 596.222C45.1874 597.773 48.625 604.762 48.625 617.816C48.625 637.673 20.0559 649.893 4.72607 649.893C-3.00851 649.893 -27.0484 646.63 -27.0484 630.8C-27.0484 618.135 -13.7626 617.793 -7.11968 619.204C-9.76755 621.658 -15.0633 623.648 -15.0633 632.396C-15.0633 638.229 -11.9973 646.63 4.72607 646.63C21.4495 646.63 33.9223 633.507 33.9223 622.676C33.9223 616.358 31.2745 600.319 10.4399 592.403C-10.3947 584.488 -23.3553 578.568 -23.3553 563.103C-23.3553 551.924 -12.2761 543.245 -7.11968 534.219Z" fill="#DD2B2C"/>
<path d="M6.81649 636.424C9.5805 632.234 12.2516 621.413 4.2383 614.9C-0.0122299 611.444 -8.1448 610.442 -20.0803 613.719C-16.7661 606.554 -13.3213 602.95 -6.07447 600.735C3.75128 597.733 16.4743 600.999 22.216 613.719C26.6059 629.341 13.5523 635.683 6.81649 636.424Z" fill="#DD2B2C"/>
</g>
<g filter="url(#filter4_d_601_9285)">
<path d="M-7.11968 723.219C-2.99457 715.998 -2.10266 708.731 -2.17234 706C2.63564 711.74 12.4606 724.066 12.4606 731.343C12.4606 743.199 -4.82021 746.201 -4.82021 760.574C-4.82021 768.35 0.707802 772.91 3.68085 774.807C2.05497 772.771 -1.19681 767.586 -1.19681 763.143C-1.19681 752.594 10.8348 743.658 16.8505 740.508C15.5731 743.563 13.0181 749.395 13.0181 759.393C13.0181 769.392 24.0741 782.075 29.6021 787.097C28.3247 784.412 28.7578 782.306 24.167 776.752C22.216 774.391 20.0559 770.6 20.0559 764.045C20.0559 757.491 25.3516 750.714 27.9995 748.145L28.0497 748.328C29.6748 754.245 33.1884 767.039 42.9809 774.391C55.3144 783.651 65 796.817 65 808.204C65 815.842 56.5686 830.562 37.8942 838.893C19.2197 847.225 7.14167 858.89 1.10266 865C-5.05248 859.931 -20.9722 848.281 -35.4101 840.004C-53.4574 829.659 -66 821.396 -66 811.676C-66 794.179 -50.7399 777.724 -43.9809 769.392C-38.5736 762.726 -33.3197 753.469 -31.3686 749.673C-31.2293 753.33 -29.0273 763.226 -21.3346 769.392C-13.6418 775.557 -3.1711 778.927 1.10266 780.362C-3.19432 780.362 -13.6976 781.709 -21.3346 787.097C-30.8808 793.832 -35.4101 802.094 -35.4101 811.676C-35.4101 819.341 -29.8356 827.46 -27.0484 830.562C-35.4101 826.187 -50.4612 817.578 -50.4612 802.58C-50.4612 794.915 -44.4686 785.893 -41.333 782.584C-46.8378 785.569 -57.8473 794.596 -57.8473 806.816C-57.8473 822.091 -41.333 828.617 -27.0484 835.63C-17.6938 840.223 -4.47181 849.1 1.10266 852.71C2.31046 850.813 15.9447 841.528 27.9995 835.63C51.2729 824.243 58.7984 816.12 58.7984 804.941C58.7984 795.998 48.5786 787.861 43.7473 785.222C45.1874 786.773 48.625 793.762 48.625 806.816C48.625 826.673 20.0559 838.893 4.72607 838.893C-3.00851 838.893 -27.0484 835.63 -27.0484 819.8C-27.0484 807.135 -13.7626 806.793 -7.11968 808.204C-9.76755 810.658 -15.0633 812.648 -15.0633 821.396C-15.0633 827.229 -11.9973 835.63 4.72607 835.63C21.4495 835.63 33.9223 822.507 33.9223 811.676C33.9223 805.358 31.2745 789.319 10.4399 781.403C-10.3947 773.488 -23.3553 767.568 -23.3553 752.103C-23.3553 740.924 -12.2761 732.245 -7.11968 723.219Z" fill="#DD2B2C"/>
<path d="M6.81649 825.424C9.5805 821.234 12.2516 810.413 4.2383 803.9C-0.0122299 800.444 -8.1448 799.442 -20.0803 802.719C-16.7661 795.554 -13.3213 791.95 -6.07447 789.735C3.75128 786.733 16.4743 789.999 22.216 802.719C26.6059 818.341 13.5523 824.683 6.81649 825.424Z" fill="#DD2B2C"/>
</g>
<g filter="url(#filter5_d_601_9285)">
<path d="M-7.11968 912.219C-2.99457 904.998 -2.10266 897.731 -2.17234 895C2.63564 900.74 12.4606 913.066 12.4606 920.343C12.4606 932.199 -4.82021 935.201 -4.82021 949.574C-4.82021 957.35 0.707802 961.91 3.68085 963.807C2.05497 961.771 -1.19681 956.586 -1.19681 952.143C-1.19681 941.594 10.8348 932.658 16.8505 929.508C15.5731 932.563 13.0181 938.395 13.0181 948.393C13.0181 958.392 24.0741 971.075 29.6021 976.097C28.3247 973.412 28.7578 971.306 24.167 965.752C22.216 963.391 20.0559 959.6 20.0559 953.045C20.0559 946.491 25.3516 939.714 27.9995 937.145L28.0497 937.328C29.6748 943.245 33.1884 956.039 42.9809 963.391C55.3144 972.651 65 985.817 65 997.204C65 1004.84 56.5686 1019.56 37.8942 1027.89C19.2197 1036.23 7.14167 1047.89 1.10266 1054C-5.05248 1048.93 -20.9722 1037.28 -35.4101 1029C-53.4574 1018.66 -66 1010.4 -66 1000.68C-66 983.179 -50.7399 966.724 -43.9809 958.392C-38.5736 951.726 -33.3197 942.469 -31.3686 938.673C-31.2293 942.33 -29.0273 952.226 -21.3346 958.392C-13.6418 964.557 -3.1711 967.927 1.10266 969.362C-3.19432 969.362 -13.6976 970.709 -21.3346 976.097C-30.8808 982.832 -35.4101 991.094 -35.4101 1000.68C-35.4101 1008.34 -29.8356 1016.46 -27.0484 1019.56C-35.4101 1015.19 -50.4612 1006.58 -50.4612 991.58C-50.4612 983.915 -44.4686 974.893 -41.333 971.584C-46.8378 974.569 -57.8473 983.596 -57.8473 995.816C-57.8473 1011.09 -41.333 1017.62 -27.0484 1024.63C-17.6938 1029.22 -4.47181 1038.1 1.10266 1041.71C2.31046 1039.81 15.9447 1030.53 27.9995 1024.63C51.2729 1013.24 58.7984 1005.12 58.7984 993.941C58.7984 984.998 48.5786 976.861 43.7473 974.222C45.1874 975.773 48.625 982.762 48.625 995.816C48.625 1015.67 20.0559 1027.89 4.72607 1027.89C-3.00851 1027.89 -27.0484 1024.63 -27.0484 1008.8C-27.0484 996.135 -13.7626 995.793 -7.11968 997.204C-9.76755 999.658 -15.0633 1001.65 -15.0633 1010.4C-15.0633 1016.23 -11.9973 1024.63 4.72607 1024.63C21.4495 1024.63 33.9223 1011.51 33.9223 1000.68C33.9223 994.358 31.2745 978.319 10.4399 970.403C-10.3947 962.488 -23.3553 956.568 -23.3553 941.103C-23.3553 929.924 -12.2761 921.245 -7.11968 912.219Z" fill="#DD2B2C"/>
<path d="M6.81649 1014.42C9.5805 1010.23 12.2516 999.413 4.2383 992.9C-0.0122299 989.444 -8.1448 988.442 -20.0803 991.719C-16.7661 984.554 -13.3213 980.95 -6.07447 978.735C3.75128 975.733 16.4743 978.999 22.216 991.719C26.6059 1007.34 13.5523 1013.68 6.81649 1014.42Z" fill="#DD2B2C"/>
</g>
<g filter="url(#filter6_d_601_9285)">
<path d="M-7.11968 1101.22C-2.99457 1094 -2.10266 1086.73 -2.17234 1084C2.63564 1089.74 12.4606 1102.07 12.4606 1109.34C12.4606 1121.2 -4.82021 1124.2 -4.82021 1138.57C-4.82021 1146.35 0.707802 1150.91 3.68085 1152.81C2.05497 1150.77 -1.19681 1145.59 -1.19681 1141.14C-1.19681 1130.59 10.8348 1121.66 16.8505 1118.51C15.5731 1121.56 13.0181 1127.4 13.0181 1137.39C13.0181 1147.39 24.0741 1160.07 29.6021 1165.1C28.3247 1162.41 28.7578 1160.31 24.167 1154.75C22.216 1152.39 20.0559 1148.6 20.0559 1142.05C20.0559 1135.49 25.3516 1128.71 27.9995 1126.15L28.0497 1126.33C29.6748 1132.25 33.1884 1145.04 42.9809 1152.39C55.3144 1161.65 65 1174.82 65 1186.2C65 1193.84 56.5686 1208.56 37.8942 1216.89C19.2197 1225.23 7.14167 1236.89 1.10266 1243C-5.05248 1237.93 -20.9722 1226.28 -35.4101 1218C-53.4574 1207.66 -66 1199.4 -66 1189.68C-66 1172.18 -50.7399 1155.72 -43.9809 1147.39C-38.5736 1140.73 -33.3197 1131.47 -31.3686 1127.67C-31.2293 1131.33 -29.0273 1141.23 -21.3346 1147.39C-13.6418 1153.56 -3.1711 1156.93 1.10266 1158.36C-3.19432 1158.36 -13.6976 1159.71 -21.3346 1165.1C-30.8808 1171.83 -35.4101 1180.09 -35.4101 1189.68C-35.4101 1197.34 -29.8356 1205.46 -27.0484 1208.56C-35.4101 1204.19 -50.4612 1195.58 -50.4612 1180.58C-50.4612 1172.92 -44.4686 1163.89 -41.333 1160.58C-46.8378 1163.57 -57.8473 1172.6 -57.8473 1184.82C-57.8473 1200.09 -41.333 1206.62 -27.0484 1213.63C-17.6938 1218.22 -4.47181 1227.1 1.10266 1230.71C2.31046 1228.81 15.9447 1219.53 27.9995 1213.63C51.2729 1202.24 58.7984 1194.12 58.7984 1182.94C58.7984 1174 48.5786 1165.86 43.7473 1163.22C45.1874 1164.77 48.625 1171.76 48.625 1184.82C48.625 1204.67 20.0559 1216.89 4.72607 1216.89C-3.00851 1216.89 -27.0484 1213.63 -27.0484 1197.8C-27.0484 1185.14 -13.7626 1184.79 -7.11968 1186.2C-9.76755 1188.66 -15.0633 1190.65 -15.0633 1199.4C-15.0633 1205.23 -11.9973 1213.63 4.72607 1213.63C21.4495 1213.63 33.9223 1200.51 33.9223 1189.68C33.9223 1183.36 31.2745 1167.32 10.4399 1159.4C-10.3947 1151.49 -23.3553 1145.57 -23.3553 1130.1C-23.3553 1118.92 -12.2761 1110.25 -7.11968 1101.22Z" fill="#DD2B2C"/>
<path d="M6.81649 1203.42C9.5805 1199.23 12.2516 1188.41 4.2383 1181.9C-0.0122299 1178.44 -8.1448 1177.44 -20.0803 1180.72C-16.7661 1173.55 -13.3213 1169.95 -6.07447 1167.74C3.75128 1164.73 16.4743 1168 22.216 1180.72C26.6059 1196.34 13.5523 1202.68 6.81649 1203.42Z" fill="#DD2B2C"/>
</g>
<g filter="url(#filter7_d_601_9285)">
<path d="M-7.11968 1290.22C-2.99457 1283 -2.10266 1275.73 -2.17234 1273C2.63564 1278.74 12.4606 1291.07 12.4606 1298.34C12.4606 1310.2 -4.82021 1313.2 -4.82021 1327.57C-4.82021 1335.35 0.707802 1339.91 3.68085 1341.81C2.05497 1339.77 -1.19681 1334.59 -1.19681 1330.14C-1.19681 1319.59 10.8348 1310.66 16.8505 1307.51C15.5731 1310.56 13.0181 1316.4 13.0181 1326.39C13.0181 1336.39 24.0741 1349.07 29.6021 1354.1C28.3247 1351.41 28.7578 1349.31 24.167 1343.75C22.216 1341.39 20.0559 1337.6 20.0559 1331.05C20.0559 1324.49 25.3516 1317.71 27.9995 1315.15L28.0497 1315.33C29.6748 1321.25 33.1884 1334.04 42.9809 1341.39C55.3144 1350.65 65 1363.82 65 1375.2C65 1382.84 56.5686 1397.56 37.8942 1405.89C19.2197 1414.23 7.14167 1425.89 1.10266 1432C-5.05248 1426.93 -20.9722 1415.28 -35.4101 1407C-53.4574 1396.66 -66 1388.4 -66 1378.68C-66 1361.18 -50.7399 1344.72 -43.9809 1336.39C-38.5736 1329.73 -33.3197 1320.47 -31.3686 1316.67C-31.2293 1320.33 -29.0273 1330.23 -21.3346 1336.39C-13.6418 1342.56 -3.1711 1345.93 1.10266 1347.36C-3.19432 1347.36 -13.6976 1348.71 -21.3346 1354.1C-30.8808 1360.83 -35.4101 1369.09 -35.4101 1378.68C-35.4101 1386.34 -29.8356 1394.46 -27.0484 1397.56C-35.4101 1393.19 -50.4612 1384.58 -50.4612 1369.58C-50.4612 1361.92 -44.4686 1352.89 -41.333 1349.58C-46.8378 1352.57 -57.8473 1361.6 -57.8473 1373.82C-57.8473 1389.09 -41.333 1395.62 -27.0484 1402.63C-17.6938 1407.22 -4.47181 1416.1 1.10266 1419.71C2.31046 1417.81 15.9447 1408.53 27.9995 1402.63C51.2729 1391.24 58.7984 1383.12 58.7984 1371.94C58.7984 1363 48.5786 1354.86 43.7473 1352.22C45.1874 1353.77 48.625 1360.76 48.625 1373.82C48.625 1393.67 20.0559 1405.89 4.72607 1405.89C-3.00851 1405.89 -27.0484 1402.63 -27.0484 1386.8C-27.0484 1374.14 -13.7626 1373.79 -7.11968 1375.2C-9.76755 1377.66 -15.0633 1379.65 -15.0633 1388.4C-15.0633 1394.23 -11.9973 1402.63 4.72607 1402.63C21.4495 1402.63 33.9223 1389.51 33.9223 1378.68C33.9223 1372.36 31.2745 1356.32 10.4399 1348.4C-10.3947 1340.49 -23.3553 1334.57 -23.3553 1319.1C-23.3553 1307.92 -12.2761 1299.25 -7.11968 1290.22Z" fill="#DD2B2C"/>
<path d="M6.81649 1392.42C9.5805 1388.23 12.2516 1377.41 4.2383 1370.9C-0.0122299 1367.44 -8.1448 1366.44 -20.0803 1369.72C-16.7661 1362.55 -13.3213 1358.95 -6.07447 1356.74C3.75128 1353.73 16.4743 1357 22.216 1369.72C26.6059 1385.34 13.5523 1391.68 6.81649 1392.42Z" fill="#DD2B2C"/>
</g>
<g filter="url(#filter8_d_601_9285)">
<path d="M-7.11968 1479.22C-2.99457 1472 -2.10266 1464.73 -2.17234 1462C2.63564 1467.74 12.4606 1480.07 12.4606 1487.34C12.4606 1499.2 -4.82021 1502.2 -4.82021 1516.57C-4.82021 1524.35 0.707802 1528.91 3.68085 1530.81C2.05497 1528.77 -1.19681 1523.59 -1.19681 1519.14C-1.19681 1508.59 10.8348 1499.66 16.8505 1496.51C15.5731 1499.56 13.0181 1505.4 13.0181 1515.39C13.0181 1525.39 24.0741 1538.07 29.6021 1543.1C28.3247 1540.41 28.7578 1538.31 24.167 1532.75C22.216 1530.39 20.0559 1526.6 20.0559 1520.05C20.0559 1513.49 25.3516 1506.71 27.9995 1504.15L28.0497 1504.33C29.6748 1510.25 33.1884 1523.04 42.9809 1530.39C55.3144 1539.65 65 1552.82 65 1564.2C65 1571.84 56.5686 1586.56 37.8942 1594.89C19.2197 1603.23 7.14167 1614.89 1.10266 1621C-5.05248 1615.93 -20.9722 1604.28 -35.4101 1596C-53.4574 1585.66 -66 1577.4 -66 1567.68C-66 1550.18 -50.7399 1533.72 -43.9809 1525.39C-38.5736 1518.73 -33.3197 1509.47 -31.3686 1505.67C-31.2293 1509.33 -29.0273 1519.23 -21.3346 1525.39C-13.6418 1531.56 -3.1711 1534.93 1.10266 1536.36C-3.19432 1536.36 -13.6976 1537.71 -21.3346 1543.1C-30.8808 1549.83 -35.4101 1558.09 -35.4101 1567.68C-35.4101 1575.34 -29.8356 1583.46 -27.0484 1586.56C-35.4101 1582.19 -50.4612 1573.58 -50.4612 1558.58C-50.4612 1550.92 -44.4686 1541.89 -41.333 1538.58C-46.8378 1541.57 -57.8473 1550.6 -57.8473 1562.82C-57.8473 1578.09 -41.333 1584.62 -27.0484 1591.63C-17.6938 1596.22 -4.47181 1605.1 1.10266 1608.71C2.31046 1606.81 15.9447 1597.53 27.9995 1591.63C51.2729 1580.24 58.7984 1572.12 58.7984 1560.94C58.7984 1552 48.5786 1543.86 43.7473 1541.22C45.1874 1542.77 48.625 1549.76 48.625 1562.82C48.625 1582.67 20.0559 1594.89 4.72607 1594.89C-3.00851 1594.89 -27.0484 1591.63 -27.0484 1575.8C-27.0484 1563.14 -13.7626 1562.79 -7.11968 1564.2C-9.76755 1566.66 -15.0633 1568.65 -15.0633 1577.4C-15.0633 1583.23 -11.9973 1591.63 4.72607 1591.63C21.4495 1591.63 33.9223 1578.51 33.9223 1567.68C33.9223 1561.36 31.2745 1545.32 10.4399 1537.4C-10.3947 1529.49 -23.3553 1523.57 -23.3553 1508.1C-23.3553 1496.92 -12.2761 1488.25 -7.11968 1479.22Z" fill="#DD2B2C"/>
<path d="M6.81649 1581.42C9.5805 1577.23 12.2516 1566.41 4.2383 1559.9C-0.0122299 1556.44 -8.1448 1555.44 -20.0803 1558.72C-16.7661 1551.55 -13.3213 1547.95 -6.07447 1545.74C3.75128 1542.73 16.4743 1546 22.216 1558.72C26.6059 1574.34 13.5523 1580.68 6.81649 1581.42Z" fill="#DD2B2C"/>
</g>
</g>
</g>
<defs>
<filter id="filter0_d_601_9285" x="-76" y="-55" width="151" height="179" filterUnits="userSpaceOnUse" color-interpolation-filters="sRGB">
<feFlood flood-opacity="0" result="BackgroundImageFix"/>
<feColorMatrix in="SourceAlpha" type="matrix" values="0 0 0 0 0 0 0 0 0 0 0 0 0 0 0 0 0 0 127 0" result="hardAlpha"/>
<feOffset dy="5"/>
<feGaussianBlur stdDeviation="5"/>
<feComposite in2="hardAlpha" operator="out"/>
<feColorMatrix type="matrix" values="0 0 0 0 0 0 0 0 0 0 0 0 0 0 0 0 0 0 0.1 0"/>
<feBlend mode="normal" in2="BackgroundImageFix" result="effect1_dropShadow_601_9285"/>
<feBlend mode="normal" in="SourceGraphic" in2="effect1_dropShadow_601_9285" result="shape"/>
</filter>
<filter id="filter1_d_601_9285" x="-76" y="134" width="151" height="179" filterUnits="userSpaceOnUse" color-interpolation-filters="sRGB">
<feFlood flood-opacity="0" result="BackgroundImageFix"/>
<feColorMatrix in="SourceAlpha" type="matrix" values="0 0 0 0 0 0 0 0 0 0 0 0 0 0 0 0 0 0 127 0" result="hardAlpha"/>
<feOffset dy="5"/>
<feGaussianBlur stdDeviation="5"/>
<feComposite in2="hardAlpha" operator="out"/>
<feColorMatrix type="matrix" values="0 0 0 0 0 0 0 0 0 0 0 0 0 0 0 0 0 0 0.1 0"/>
<feBlend mode="normal" in2="BackgroundImageFix" result="effect1_dropShadow_601_9285"/>
<feBlend mode="normal" in="SourceGraphic" in2="effect1_dropShadow_601_9285" result="shape"/>
</filter>
<filter id="filter2_d_601_9285" x="-76" y="323" width="151" height="179" filterUnits="userSpaceOnUse" color-interpolation-filters="sRGB">
<feFlood flood-opacity="0" result="BackgroundImageFix"/>
<feColorMatrix in="SourceAlpha" type="matrix" values="0 0 0 0 0 0 0 0 0 0 0 0 0 0 0 0 0 0 127 0" result="hardAlpha"/>
<feOffset dy="5"/>
<feGaussianBlur stdDeviation="5"/>
<feComposite in2="hardAlpha" operator="out"/>
<feColorMatrix type="matrix" values="0 0 0 0 0 0 0 0 0 0 0 0 0 0 0 0 0 0 0.1 0"/>
<feBlend mode="normal" in2="BackgroundImageFix" result="effect1_dropShadow_601_9285"/>
<feBlend mode="normal" in="SourceGraphic" in2="effect1_dropShadow_601_9285" result="shape"/>
</filter>
<filter id="filter3_d_601_9285" x="-76" y="512" width="151" height="179" filterUnits="userSpaceOnUse" color-interpolation-filters="sRGB">
<feFlood flood-opacity="0" result="BackgroundImageFix"/>
<feColorMatrix in="SourceAlpha" type="matrix" values="0 0 0 0 0 0 0 0 0 0 0 0 0 0 0 0 0 0 127 0" result="hardAlpha"/>
<feOffset dy="5"/>
<feGaussianBlur stdDeviation="5"/>
<feComposite in2="hardAlpha" operator="out"/>
<feColorMatrix type="matrix" values="0 0 0 0 0 0 0 0 0 0 0 0 0 0 0 0 0 0 0.1 0"/>
<feBlend mode="normal" in2="BackgroundImageFix" result="effect1_dropShadow_601_9285"/>
<feBlend mode="normal" in="SourceGraphic" in2="effect1_dropShadow_601_9285" result="shape"/>
</filter>
<filter id="filter4_d_601_9285" x="-76" y="701" width="151" height="179" filterUnits="userSpaceOnUse" color-interpolation-filters="sRGB">
<feFlood flood-opacity="0" result="BackgroundImageFix"/>
<feColorMatrix in="SourceAlpha" type="matrix" values="0 0 0 0 0 0 0 0 0 0 0 0 0 0 0 0 0 0 127 0" result="hardAlpha"/>
<feOffset dy="5"/>
<feGaussianBlur stdDeviation="5"/>
<feComposite in2="hardAlpha" operator="out"/>
<feColorMatrix type="matrix" values="0 0 0 0 0 0 0 0 0 0 0 0 0 0 0 0 0 0 0.1 0"/>
<feBlend mode="normal" in2="BackgroundImageFix" result="effect1_dropShadow_601_9285"/>
<feBlend mode="normal" in="SourceGraphic" in2="effect1_dropShadow_601_9285" result="shape"/>
</filter>
<filter id="filter5_d_601_9285" x="-76" y="890" width="151" height="179" filterUnits="userSpaceOnUse" color-interpolation-filters="sRGB">
<feFlood flood-opacity="0" result="BackgroundImageFix"/>
<feColorMatrix in="SourceAlpha" type="matrix" values="0 0 0 0 0 0 0 0 0 0 0 0 0 0 0 0 0 0 127 0" result="hardAlpha"/>
<feOffset dy="5"/>
<feGaussianBlur stdDeviation="5"/>
<feComposite in2="hardAlpha" operator="out"/>
<feColorMatrix type="matrix" values="0 0 0 0 0 0 0 0 0 0 0 0 0 0 0 0 0 0 0.1 0"/>
<feBlend mode="normal" in2="BackgroundImageFix" result="effect1_dropShadow_601_9285"/>
<feBlend mode="normal" in="SourceGraphic" in2="effect1_dropShadow_601_9285" result="shape"/>
</filter>
<filter id="filter6_d_601_9285" x="-76" y="1079" width="151" height="179" filterUnits="userSpaceOnUse" color-interpolation-filters="sRGB">
<feFlood flood-opacity="0" result="BackgroundImageFix"/>
<feColorMatrix in="SourceAlpha" type="matrix" values="0 0 0 0 0 0 0 0 0 0 0 0 0 0 0 0 0 0 127 0" result="hardAlpha"/>
<feOffset dy="5"/>
<feGaussianBlur stdDeviation="5"/>
<feComposite in2="hardAlpha" operator="out"/>
<feColorMatrix type="matrix" values="0 0 0 0 0 0 0 0 0 0 0 0 0 0 0 0 0 0 0.1 0"/>
<feBlend mode="normal" in2="BackgroundImageFix" result="effect1_dropShadow_601_9285"/>
<feBlend mode="normal" in="SourceGraphic" in2="effect1_dropShadow_601_9285" result="shape"/>
</filter>
<filter id="filter7_d_601_9285" x="-76" y="1268" width="151" height="179" filterUnits="userSpaceOnUse" color-interpolation-filters="sRGB">
<feFlood flood-opacity="0" result="BackgroundImageFix"/>
<feColorMatrix in="SourceAlpha" type="matrix" values="0 0 0 0 0 0 0 0 0 0 0 0 0 0 0 0 0 0 127 0" result="hardAlpha"/>
<feOffset dy="5"/>
<feGaussianBlur stdDeviation="5"/>
<feComposite in2="hardAlpha" operator="out"/>
<feColorMatrix type="matrix" values="0 0 0 0 0 0 0 0 0 0 0 0 0 0 0 0 0 0 0.1 0"/>
<feBlend mode="normal" in2="BackgroundImageFix" result="effect1_dropShadow_601_9285"/>
<feBlend mode="normal" in="SourceGraphic" in2="effect1_dropShadow_601_9285" result="shape"/>
</filter>
<filter id="filter8_d_601_9285" x="-76" y="1457" width="151" height="179" filterUnits="userSpaceOnUse" color-interpolation-filters="sRGB">
<feFlood flood-opacity="0" result="BackgroundImageFix"/>
<feColorMatrix in="SourceAlpha" type="matrix" values="0 0 0 0 0 0 0 0 0 0 0 0 0 0 0 0 0 0 127 0" result="hardAlpha"/>
<feOffset dy="5"/>
<feGaussianBlur stdDeviation="5"/>
<feComposite in2="hardAlpha" operator="out"/>
<feColorMatrix type="matrix" values="0 0 0 0 0 0 0 0 0 0 0 0 0 0 0 0 0 0 0.1 0"/>
<feBlend mode="normal" in2="BackgroundImageFix" result="effect1_dropShadow_601_9285"/>
<feBlend mode="normal" in="SourceGraphic" in2="effect1_dropShadow_601_9285" result="shape"/>
</filter>
</defs>
</svg>
