<svg width="80" height="1600" viewBox="0 0 80 1600" fill="none" xmlns="http://www.w3.org/2000/svg">
<g opacity="0.04">
<mask id="mask0_601_9297" style="mask-type:alpha" maskUnits="userSpaceOnUse" x="0" y="0" width="80" height="1600">
<rect x="80" y="1600" width="80" height="1600" transform="rotate(180 80 1600)" fill="#C4C4C4"/>
</mask>
<g mask="url(#mask0_601_9297)">
<g filter="url(#filter0_d_601_9297)">
<path d="M87.1197 1632.78C82.9946 1640 82.1027 1647.27 82.1723 1650C77.3644 1644.26 67.5394 1631.93 67.5394 1624.66C67.5394 1612.8 84.8202 1609.8 84.8202 1595.43C84.8202 1587.65 79.2922 1583.09 76.3191 1581.19C77.945 1583.23 81.1968 1588.41 81.1968 1592.86C81.1968 1603.41 69.1652 1612.34 63.1495 1615.49C64.4269 1612.44 66.9819 1606.6 66.9819 1596.61C66.9819 1586.61 55.9259 1573.93 50.3979 1568.9C51.6753 1571.59 51.2422 1573.69 55.833 1579.25C57.784 1581.61 59.9441 1585.4 59.9441 1591.95C59.9441 1598.51 54.6484 1605.29 52.0005 1607.85L51.9503 1607.67C50.3252 1601.75 46.8116 1588.96 37.0191 1581.61C24.6856 1572.35 15 1559.18 15 1547.8C15 1540.16 23.4314 1525.44 42.1058 1517.11C60.7803 1508.77 72.8583 1497.11 78.8973 1491C85.0525 1496.07 100.972 1507.72 115.41 1516C133.457 1526.34 146 1534.6 146 1544.32C146 1561.82 130.74 1578.28 123.981 1586.61C118.574 1593.27 113.32 1602.53 111.369 1606.33C111.229 1602.67 109.027 1592.77 101.335 1586.61C93.6418 1580.44 83.1711 1577.07 78.8973 1575.64C83.1943 1575.64 93.6976 1574.29 101.335 1568.9C110.881 1562.17 115.41 1553.91 115.41 1544.32C115.41 1536.66 109.836 1528.54 107.048 1525.44C115.41 1529.81 130.461 1538.42 130.461 1553.42C130.461 1561.08 124.469 1570.11 121.333 1573.42C126.838 1570.43 137.847 1561.4 137.847 1549.18C137.847 1533.91 121.333 1527.38 107.048 1520.37C97.6938 1515.78 84.4718 1506.9 78.8973 1503.29C77.6895 1505.19 64.0553 1514.47 52.0005 1520.37C28.7271 1531.76 21.2016 1539.88 21.2016 1551.06C21.2016 1560 31.4214 1568.14 36.2527 1570.78C34.8126 1569.23 31.375 1562.24 31.375 1549.18C31.375 1529.33 59.9441 1517.11 75.2739 1517.11C83.0085 1517.11 107.048 1520.37 107.048 1536.2C107.048 1548.86 93.7626 1549.21 87.1197 1547.8C89.7676 1545.34 95.0633 1543.35 95.0633 1534.6C95.0633 1528.77 91.9973 1520.37 75.2739 1520.37C58.5505 1520.37 46.0777 1533.49 46.0777 1544.32C46.0777 1550.64 48.7255 1566.68 69.5601 1574.6C90.3947 1582.51 103.355 1588.43 103.355 1603.9C103.355 1615.08 92.2761 1623.75 87.1197 1632.78Z" fill="#DD2B2C"/>
<path d="M73.1835 1530.58C70.4195 1534.77 67.7484 1545.59 75.7617 1552.1C80.0122 1555.56 88.1448 1556.56 100.08 1553.28C96.7661 1560.45 93.3213 1564.05 86.0745 1566.26C76.2487 1569.27 63.5257 1566 57.784 1553.28C53.3941 1537.66 66.4477 1531.32 73.1835 1530.58Z" fill="#DD2B2C"/>
</g>
<g filter="url(#filter1_d_601_9297)">
<path d="M87.1197 1443.78C82.9946 1451 82.1027 1458.27 82.1723 1461C77.3644 1455.26 67.5394 1442.93 67.5394 1435.66C67.5394 1423.8 84.8202 1420.8 84.8202 1406.43C84.8202 1398.65 79.2922 1394.09 76.3191 1392.19C77.945 1394.23 81.1968 1399.41 81.1968 1403.86C81.1968 1414.41 69.1652 1423.34 63.1495 1426.49C64.4269 1423.44 66.9819 1417.6 66.9819 1407.61C66.9819 1397.61 55.9259 1384.93 50.3979 1379.9C51.6753 1382.59 51.2422 1384.69 55.833 1390.25C57.784 1392.61 59.9441 1396.4 59.9441 1402.95C59.9441 1409.51 54.6484 1416.29 52.0005 1418.85L51.9503 1418.67C50.3252 1412.75 46.8116 1399.96 37.0191 1392.61C24.6856 1383.35 15 1370.18 15 1358.8C15 1351.16 23.4314 1336.44 42.1058 1328.11C60.7803 1319.77 72.8583 1308.11 78.8973 1302C85.0525 1307.07 100.972 1318.72 115.41 1327C133.457 1337.34 146 1345.6 146 1355.32C146 1372.82 130.74 1389.28 123.981 1397.61C118.574 1404.27 113.32 1413.53 111.369 1417.33C111.229 1413.67 109.027 1403.77 101.335 1397.61C93.6418 1391.44 83.1711 1388.07 78.8973 1386.64C83.1943 1386.64 93.6976 1385.29 101.335 1379.9C110.881 1373.17 115.41 1364.91 115.41 1355.32C115.41 1347.66 109.836 1339.54 107.048 1336.44C115.41 1340.81 130.461 1349.42 130.461 1364.42C130.461 1372.08 124.469 1381.11 121.333 1384.42C126.838 1381.43 137.847 1372.4 137.847 1360.18C137.847 1344.91 121.333 1338.38 107.048 1331.37C97.6938 1326.78 84.4718 1317.9 78.8973 1314.29C77.6895 1316.19 64.0553 1325.47 52.0005 1331.37C28.7271 1342.76 21.2016 1350.88 21.2016 1362.06C21.2016 1371 31.4214 1379.14 36.2527 1381.78C34.8126 1380.23 31.375 1373.24 31.375 1360.18C31.375 1340.33 59.9441 1328.11 75.2739 1328.11C83.0085 1328.11 107.048 1331.37 107.048 1347.2C107.048 1359.86 93.7626 1360.21 87.1197 1358.8C89.7676 1356.34 95.0633 1354.35 95.0633 1345.6C95.0633 1339.77 91.9973 1331.37 75.2739 1331.37C58.5505 1331.37 46.0777 1344.49 46.0777 1355.32C46.0777 1361.64 48.7255 1377.68 69.5601 1385.6C90.3947 1393.51 103.355 1399.43 103.355 1414.9C103.355 1426.08 92.2761 1434.75 87.1197 1443.78Z" fill="#DD2B2C"/>
<path d="M73.1835 1341.58C70.4195 1345.77 67.7484 1356.59 75.7617 1363.1C80.0122 1366.56 88.1448 1367.56 100.08 1364.28C96.7661 1371.45 93.3213 1375.05 86.0745 1377.26C76.2487 1380.27 63.5257 1377 57.784 1364.28C53.3941 1348.66 66.4477 1342.32 73.1835 1341.58Z" fill="#DD2B2C"/>
</g>
<g filter="url(#filter2_d_601_9297)">
<path d="M87.1197 1254.78C82.9946 1262 82.1027 1269.27 82.1723 1272C77.3644 1266.26 67.5394 1253.93 67.5394 1246.66C67.5394 1234.8 84.8202 1231.8 84.8202 1217.43C84.8202 1209.65 79.2922 1205.09 76.3191 1203.19C77.945 1205.23 81.1968 1210.41 81.1968 1214.86C81.1968 1225.41 69.1652 1234.34 63.1495 1237.49C64.4269 1234.44 66.9819 1228.6 66.9819 1218.61C66.9819 1208.61 55.9259 1195.93 50.3979 1190.9C51.6753 1193.59 51.2422 1195.69 55.833 1201.25C57.784 1203.61 59.9441 1207.4 59.9441 1213.95C59.9441 1220.51 54.6484 1227.29 52.0005 1229.85L51.9503 1229.67C50.3252 1223.75 46.8116 1210.96 37.0191 1203.61C24.6856 1194.35 15 1181.18 15 1169.8C15 1162.16 23.4314 1147.44 42.1058 1139.11C60.7803 1130.77 72.8583 1119.11 78.8973 1113C85.0525 1118.07 100.972 1129.72 115.41 1138C133.457 1148.34 146 1156.6 146 1166.32C146 1183.82 130.74 1200.28 123.981 1208.61C118.574 1215.27 113.32 1224.53 111.369 1228.33C111.229 1224.67 109.027 1214.77 101.335 1208.61C93.6418 1202.44 83.1711 1199.07 78.8973 1197.64C83.1943 1197.64 93.6976 1196.29 101.335 1190.9C110.881 1184.17 115.41 1175.91 115.41 1166.32C115.41 1158.66 109.836 1150.54 107.048 1147.44C115.41 1151.81 130.461 1160.42 130.461 1175.42C130.461 1183.08 124.469 1192.11 121.333 1195.42C126.838 1192.43 137.847 1183.4 137.847 1171.18C137.847 1155.91 121.333 1149.38 107.048 1142.37C97.6938 1137.78 84.4718 1128.9 78.8973 1125.29C77.6895 1127.19 64.0553 1136.47 52.0005 1142.37C28.7271 1153.76 21.2016 1161.88 21.2016 1173.06C21.2016 1182 31.4214 1190.14 36.2527 1192.78C34.8126 1191.23 31.375 1184.24 31.375 1171.18C31.375 1151.33 59.9441 1139.11 75.2739 1139.11C83.0085 1139.11 107.048 1142.37 107.048 1158.2C107.048 1170.86 93.7626 1171.21 87.1197 1169.8C89.7676 1167.34 95.0633 1165.35 95.0633 1156.6C95.0633 1150.77 91.9973 1142.37 75.2739 1142.37C58.5505 1142.37 46.0777 1155.49 46.0777 1166.32C46.0777 1172.64 48.7255 1188.68 69.5601 1196.6C90.3947 1204.51 103.355 1210.43 103.355 1225.9C103.355 1237.08 92.2761 1245.75 87.1197 1254.78Z" fill="#DD2B2C"/>
<path d="M73.1835 1152.58C70.4195 1156.77 67.7484 1167.59 75.7617 1174.1C80.0122 1177.56 88.1448 1178.56 100.08 1175.28C96.7661 1182.45 93.3213 1186.05 86.0745 1188.26C76.2487 1191.27 63.5257 1188 57.784 1175.28C53.3941 1159.66 66.4477 1153.32 73.1835 1152.58Z" fill="#DD2B2C"/>
</g>
<g filter="url(#filter3_d_601_9297)">
<path d="M87.1197 1065.78C82.9946 1073 82.1027 1080.27 82.1723 1083C77.3644 1077.26 67.5394 1064.93 67.5394 1057.66C67.5394 1045.8 84.8202 1042.8 84.8202 1028.43C84.8202 1020.65 79.2922 1016.09 76.3191 1014.19C77.945 1016.23 81.1968 1021.41 81.1968 1025.86C81.1968 1036.41 69.1652 1045.34 63.1495 1048.49C64.4269 1045.44 66.9819 1039.6 66.9819 1029.61C66.9819 1019.61 55.9259 1006.93 50.3979 1001.9C51.6753 1004.59 51.2422 1006.69 55.833 1012.25C57.784 1014.61 59.9441 1018.4 59.9441 1024.95C59.9441 1031.51 54.6484 1038.29 52.0005 1040.85L51.9503 1040.67C50.3252 1034.75 46.8116 1021.96 37.0191 1014.61C24.6856 1005.35 15 992.183 15 980.796C15 973.158 23.4314 958.438 42.1058 950.107C60.7803 941.775 72.8583 930.11 78.8973 924C85.0525 929.069 100.972 940.719 115.41 948.996C133.457 959.341 146 967.604 146 977.324C146 994.821 130.74 1011.28 123.981 1019.61C118.574 1026.27 113.32 1035.53 111.369 1039.33C111.229 1035.67 109.027 1025.77 101.335 1019.61C93.6418 1013.44 83.1711 1010.07 78.8973 1008.64C83.1943 1008.64 93.6976 1007.29 101.335 1001.9C110.881 995.168 115.41 986.906 115.41 977.324C115.41 969.659 109.836 961.54 107.048 958.438C115.41 962.813 130.461 971.422 130.461 986.42C130.461 994.085 124.469 1003.11 121.333 1006.42C126.838 1003.43 137.847 994.404 137.847 982.184C137.847 966.909 121.333 960.383 107.048 953.37C97.6938 948.777 84.4718 939.9 78.8973 936.29C77.6895 938.187 64.0553 947.472 52.0005 953.37C28.7271 964.757 21.2016 972.88 21.2016 984.059C21.2016 993.002 31.4214 1001.14 36.2527 1003.78C34.8126 1002.23 31.375 995.238 31.375 982.184C31.375 962.327 59.9441 950.107 75.2739 950.107C83.0085 950.107 107.048 953.37 107.048 969.2C107.048 981.865 93.7626 982.207 87.1197 980.796C89.7676 978.342 95.0633 976.352 95.0633 967.604C95.0633 961.771 91.9973 953.37 75.2739 953.37C58.5505 953.37 46.0777 966.493 46.0777 977.324C46.0777 983.642 48.7255 999.681 69.5601 1007.6C90.3947 1015.51 103.355 1021.43 103.355 1036.9C103.355 1048.08 92.2761 1056.75 87.1197 1065.78Z" fill="#DD2B2C"/>
<path d="M73.1835 963.576C70.4195 967.766 67.7484 978.587 75.7617 985.1C80.0122 988.556 88.1448 989.558 100.08 986.281C96.7661 993.446 93.3213 997.05 86.0745 999.265C76.2487 1002.27 63.5257 999.001 57.784 986.281C53.3941 970.659 66.4477 964.317 73.1835 963.576Z" fill="#DD2B2C"/>
</g>
<g filter="url(#filter4_d_601_9297)">
<path d="M87.1197 876.781C82.9946 884.002 82.1027 891.269 82.1723 894C77.3644 888.26 67.5394 875.934 67.5394 868.657C67.5394 856.801 84.8202 853.799 84.8202 839.426C84.8202 831.65 79.2922 827.09 76.3191 825.193C77.945 827.229 81.1968 832.414 81.1968 836.857C81.1968 847.406 69.1652 856.342 63.1495 859.492C64.4269 856.437 66.9819 850.605 66.9819 840.607C66.9819 830.608 55.9259 817.925 50.3979 812.903C51.6753 815.588 51.2422 817.694 55.833 823.248C57.784 825.609 59.9441 829.4 59.9441 835.955C59.9441 842.509 54.6484 849.286 52.0005 851.855L51.9503 851.672C50.3252 845.755 46.8116 832.961 37.0191 825.609C24.6856 816.349 15 803.183 15 791.796C15 784.158 23.4314 769.438 42.1058 761.107C60.7803 752.775 72.8583 741.11 78.8973 735C85.0525 740.069 100.972 751.719 115.41 759.996C133.457 770.341 146 778.604 146 788.324C146 805.821 130.74 822.276 123.981 830.608C118.574 837.274 113.32 846.531 111.369 850.327C111.229 846.67 109.027 836.774 101.335 830.608C93.6418 824.443 83.1711 821.073 78.8973 819.638C83.1943 819.638 93.6976 818.291 101.335 812.903C110.881 806.168 115.41 797.906 115.41 788.324C115.41 780.659 109.836 772.54 107.048 769.438C115.41 773.813 130.461 782.422 130.461 797.42C130.461 805.085 124.469 814.107 121.333 817.416C126.838 814.431 137.847 805.404 137.847 793.184C137.847 777.909 121.333 771.383 107.048 764.37C97.6938 759.777 84.4718 750.9 78.8973 747.29C77.6895 749.187 64.0553 758.472 52.0005 764.37C28.7271 775.757 21.2016 783.88 21.2016 795.059C21.2016 804.002 31.4214 812.139 36.2527 814.778C34.8126 813.227 31.375 806.238 31.375 793.184C31.375 773.327 59.9441 761.107 75.2739 761.107C83.0085 761.107 107.048 764.37 107.048 780.2C107.048 792.865 93.7626 793.207 87.1197 791.796C89.7676 789.342 95.0633 787.352 95.0633 778.604C95.0633 772.771 91.9973 764.37 75.2739 764.37C58.5505 764.37 46.0777 777.493 46.0777 788.324C46.0777 794.642 48.7255 810.681 69.5601 818.597C90.3947 826.512 103.355 832.432 103.355 847.897C103.355 859.076 92.2761 867.755 87.1197 876.781Z" fill="#DD2B2C"/>
<path d="M73.1835 774.576C70.4195 778.766 67.7484 789.587 75.7617 796.1C80.0122 799.556 88.1448 800.558 100.08 797.281C96.7661 804.446 93.3213 808.05 86.0745 810.265C76.2487 813.267 63.5257 810.001 57.784 797.281C53.3941 781.659 66.4477 775.317 73.1835 774.576Z" fill="#DD2B2C"/>
</g>
<g filter="url(#filter5_d_601_9297)">
<path d="M87.1197 687.781C82.9946 695.002 82.1027 702.269 82.1723 705C77.3644 699.26 67.5394 686.934 67.5394 679.657C67.5394 667.801 84.8202 664.799 84.8202 650.426C84.8202 642.65 79.2922 638.09 76.3191 636.193C77.945 638.229 81.1968 643.414 81.1968 647.857C81.1968 658.406 69.1652 667.342 63.1495 670.492C64.4269 667.437 66.9819 661.605 66.9819 651.607C66.9819 641.608 55.9259 628.925 50.3979 623.903C51.6753 626.588 51.2422 628.694 55.833 634.248C57.784 636.609 59.9441 640.4 59.9441 646.955C59.9441 653.509 54.6484 660.286 52.0005 662.855L51.9503 662.672C50.3252 656.755 46.8116 643.961 37.0191 636.609C24.6856 627.349 15 614.183 15 602.796C15 595.158 23.4314 580.438 42.1058 572.107C60.7803 563.775 72.8583 552.11 78.8973 546C85.0525 551.069 100.972 562.719 115.41 570.996C133.457 581.341 146 589.604 146 599.324C146 616.821 130.74 633.276 123.981 641.608C118.574 648.274 113.32 657.531 111.369 661.327C111.229 657.67 109.027 647.774 101.335 641.608C93.6418 635.443 83.1711 632.073 78.8973 630.638C83.1943 630.638 93.6976 629.291 101.335 623.903C110.881 617.168 115.41 608.906 115.41 599.324C115.41 591.659 109.836 583.54 107.048 580.438C115.41 584.813 130.461 593.422 130.461 608.42C130.461 616.085 124.469 625.107 121.333 628.416C126.838 625.431 137.847 616.404 137.847 604.184C137.847 588.909 121.333 582.383 107.048 575.37C97.6938 570.777 84.4718 561.9 78.8973 558.29C77.6895 560.187 64.0553 569.472 52.0005 575.37C28.7271 586.757 21.2016 594.88 21.2016 606.059C21.2016 615.002 31.4214 623.139 36.2527 625.778C34.8126 624.227 31.375 617.238 31.375 604.184C31.375 584.327 59.9441 572.107 75.2739 572.107C83.0085 572.107 107.048 575.37 107.048 591.2C107.048 603.865 93.7626 604.207 87.1197 602.796C89.7676 600.342 95.0633 598.352 95.0633 589.604C95.0633 583.771 91.9973 575.37 75.2739 575.37C58.5505 575.37 46.0777 588.493 46.0777 599.324C46.0777 605.642 48.7255 621.681 69.5601 629.597C90.3947 637.512 103.355 643.432 103.355 658.897C103.355 670.076 92.2761 678.755 87.1197 687.781Z" fill="#DD2B2C"/>
<path d="M73.1835 585.576C70.4195 589.766 67.7484 600.587 75.7617 607.1C80.0122 610.556 88.1448 611.558 100.08 608.281C96.7661 615.446 93.3213 619.05 86.0745 621.265C76.2487 624.267 63.5257 621.001 57.784 608.281C53.3941 592.659 66.4477 586.317 73.1835 585.576Z" fill="#DD2B2C"/>
</g>
<g filter="url(#filter6_d_601_9297)">
<path d="M87.1197 498.781C82.9946 506.002 82.1027 513.269 82.1723 516C77.3644 510.26 67.5394 497.934 67.5394 490.657C67.5394 478.801 84.8202 475.799 84.8202 461.426C84.8202 453.65 79.2922 449.09 76.3191 447.193C77.945 449.229 81.1968 454.414 81.1968 458.857C81.1968 469.406 69.1652 478.342 63.1495 481.492C64.4269 478.437 66.9819 472.605 66.9819 462.607C66.9819 452.608 55.9259 439.925 50.3979 434.903C51.6753 437.588 51.2422 439.694 55.833 445.248C57.784 447.609 59.9441 451.4 59.9441 457.955C59.9441 464.509 54.6484 471.286 52.0005 473.855L51.9503 473.672C50.3252 467.755 46.8116 454.961 37.0191 447.609C24.6856 438.349 15 425.183 15 413.796C15 406.158 23.4314 391.438 42.1058 383.107C60.7803 374.775 72.8583 363.11 78.8973 357C85.0525 362.069 100.972 373.719 115.41 381.996C133.457 392.341 146 400.604 146 410.324C146 427.821 130.74 444.276 123.981 452.608C118.574 459.274 113.32 468.531 111.369 472.327C111.229 468.67 109.027 458.774 101.335 452.608C93.6418 446.443 83.1711 443.073 78.8973 441.638C83.1943 441.638 93.6976 440.291 101.335 434.903C110.881 428.168 115.41 419.906 115.41 410.324C115.41 402.659 109.836 394.54 107.048 391.438C115.41 395.813 130.461 404.422 130.461 419.42C130.461 427.085 124.469 436.107 121.333 439.416C126.838 436.431 137.847 427.404 137.847 415.184C137.847 399.909 121.333 393.383 107.048 386.37C97.6938 381.777 84.4718 372.9 78.8973 369.29C77.6895 371.187 64.0553 380.472 52.0005 386.37C28.7271 397.757 21.2016 405.88 21.2016 417.059C21.2016 426.002 31.4214 434.139 36.2527 436.778C34.8126 435.227 31.375 428.238 31.375 415.184C31.375 395.327 59.9441 383.107 75.2739 383.107C83.0085 383.107 107.048 386.37 107.048 402.2C107.048 414.865 93.7626 415.207 87.1197 413.796C89.7676 411.342 95.0633 409.352 95.0633 400.604C95.0633 394.771 91.9973 386.37 75.2739 386.37C58.5505 386.37 46.0777 399.493 46.0777 410.324C46.0777 416.642 48.7255 432.681 69.5601 440.597C90.3947 448.512 103.355 454.432 103.355 469.897C103.355 481.076 92.2761 489.755 87.1197 498.781Z" fill="#DD2B2C"/>
<path d="M73.1835 396.576C70.4195 400.766 67.7484 411.587 75.7617 418.1C80.0122 421.556 88.1448 422.558 100.08 419.281C96.7661 426.446 93.3213 430.05 86.0745 432.265C76.2487 435.267 63.5257 432.001 57.784 419.281C53.3941 403.659 66.4477 397.317 73.1835 396.576Z" fill="#DD2B2C"/>
</g>
<g filter="url(#filter7_d_601_9297)">
<path d="M87.1197 309.781C82.9946 317.002 82.1027 324.269 82.1723 327C77.3644 321.26 67.5394 308.934 67.5394 301.657C67.5394 289.801 84.8202 286.799 84.8202 272.426C84.8202 264.65 79.2922 260.09 76.3191 258.193C77.945 260.229 81.1968 265.414 81.1968 269.857C81.1968 280.406 69.1652 289.342 63.1495 292.492C64.4269 289.437 66.9819 283.605 66.9819 273.607C66.9819 263.608 55.9259 250.925 50.3979 245.903C51.6753 248.588 51.2422 250.694 55.833 256.248C57.784 258.609 59.9441 262.4 59.9441 268.955C59.9441 275.509 54.6484 282.286 52.0005 284.855L51.9503 284.672C50.3252 278.755 46.8116 265.961 37.0191 258.609C24.6856 249.349 15 236.183 15 224.796C15 217.158 23.4314 202.438 42.1058 194.107C60.7803 185.775 72.8583 174.11 78.8973 168C85.0525 173.069 100.972 184.719 115.41 192.996C133.457 203.341 146 211.604 146 221.324C146 238.821 130.74 255.276 123.981 263.608C118.574 270.274 113.32 279.531 111.369 283.327C111.229 279.67 109.027 269.774 101.335 263.608C93.6418 257.443 83.1711 254.073 78.8973 252.638C83.1943 252.638 93.6976 251.291 101.335 245.903C110.881 239.168 115.41 230.906 115.41 221.324C115.41 213.659 109.836 205.54 107.048 202.438C115.41 206.813 130.461 215.422 130.461 230.42C130.461 238.085 124.469 247.107 121.333 250.416C126.838 247.431 137.847 238.404 137.847 226.184C137.847 210.909 121.333 204.383 107.048 197.37C97.6938 192.777 84.4718 183.9 78.8973 180.29C77.6895 182.187 64.0553 191.472 52.0005 197.37C28.7271 208.757 21.2016 216.88 21.2016 228.059C21.2016 237.002 31.4214 245.139 36.2527 247.778C34.8126 246.227 31.375 239.238 31.375 226.184C31.375 206.327 59.9441 194.107 75.2739 194.107C83.0085 194.107 107.048 197.37 107.048 213.2C107.048 225.865 93.7626 226.207 87.1197 224.796C89.7676 222.342 95.0633 220.352 95.0633 211.604C95.0633 205.771 91.9973 197.37 75.2739 197.37C58.5505 197.37 46.0777 210.493 46.0777 221.324C46.0777 227.642 48.7255 243.681 69.5601 251.597C90.3947 259.512 103.355 265.432 103.355 280.897C103.355 292.076 92.2761 300.755 87.1197 309.781Z" fill="#DD2B2C"/>
<path d="M73.1835 207.576C70.4195 211.766 67.7484 222.587 75.7617 229.1C80.0122 232.556 88.1448 233.558 100.08 230.281C96.7661 237.446 93.3213 241.05 86.0745 243.265C76.2487 246.267 63.5257 243.001 57.784 230.281C53.3941 214.659 66.4477 208.317 73.1835 207.576Z" fill="#DD2B2C"/>
</g>
<g filter="url(#filter8_d_601_9297)">
<path d="M87.1197 120.781C82.9946 128.002 82.1027 135.269 82.1723 138C77.3644 132.26 67.5394 119.934 67.5394 112.657C67.5394 100.801 84.8202 97.7987 84.8202 83.4262C84.8202 75.6498 79.2922 71.0904 76.3191 69.1926C77.945 71.2293 81.1968 76.4135 81.1968 80.8572C81.1968 91.406 69.1652 100.342 63.1495 103.492C64.4269 100.437 66.9819 94.6048 66.9819 84.6066C66.9819 74.6083 55.9259 61.9253 50.3979 56.9031C51.6753 59.5878 51.2422 61.6939 55.833 67.2485C57.784 69.6092 59.9441 73.4002 59.9441 79.9546C59.9441 86.509 54.6484 93.2856 52.0005 95.8546L51.9503 95.6716C50.3252 89.7546 46.8116 76.9614 37.0191 69.6092C24.6856 60.3492 15 47.1825 15 35.7956C15 28.1581 23.4314 13.4384 42.1058 5.10655C60.7803 -3.22533 72.8583 -14.89 78.8973 -21C85.0525 -15.9314 100.972 -4.28069 115.41 3.99564C133.457 14.3411 146 22.6035 146 32.324C146 49.821 130.74 66.2764 123.981 74.6083C118.574 81.2738 113.32 90.5314 111.369 94.3271C111.229 90.6703 109.027 80.7739 101.335 74.6083C93.6418 68.4427 83.1711 65.0729 78.8973 63.638C83.1943 63.638 93.6976 62.291 101.335 56.9031C110.881 50.1681 115.41 41.9057 115.41 32.324C115.41 24.6587 109.836 16.5397 107.048 13.4384C115.41 17.8127 130.461 26.4223 130.461 41.4197C130.461 49.085 124.469 58.1066 121.333 61.4162C126.838 58.4306 137.847 49.4044 137.847 37.1843C137.847 21.9092 121.333 15.3825 107.048 8.36987C97.6938 3.77748 84.4718 -5.09999 78.8973 -8.71048C77.6895 -6.81265 64.0553 2.47188 52.0005 8.36987C28.7271 19.7568 21.2016 27.8804 21.2016 39.059C21.2016 48.0018 31.4214 56.1393 36.2527 58.7777C34.8126 57.2271 31.375 50.2376 31.375 37.1843C31.375 17.3266 59.9441 5.10655 75.2739 5.10655C83.0085 5.10655 107.048 8.36987 107.048 24.2004C107.048 36.8649 93.7626 37.2074 87.1197 35.7956C89.7676 33.3424 95.0633 31.352 95.0633 22.6035C95.0633 16.7712 91.9973 8.36987 75.2739 8.36987C58.5505 8.36987 46.0777 21.4926 46.0777 32.324C46.0777 38.6424 48.7255 54.6812 69.5601 62.5965C90.3947 70.5118 103.355 76.4316 103.355 91.8969C103.355 103.076 92.2761 111.755 87.1197 120.781Z" fill="#DD2B2C"/>
<path d="M73.1835 18.5764C70.4195 22.7655 67.7484 33.5866 75.7617 40.1004C80.0122 43.5556 88.1448 44.558 100.08 41.2808C96.7661 48.4462 93.3213 52.0502 86.0745 54.2646C76.2487 57.2671 63.5257 54.0008 57.784 41.2808C53.3941 25.6585 66.4477 19.317 73.1835 18.5764Z" fill="#DD2B2C"/>
</g>
</g>
</g>
<defs>
<filter id="filter0_d_601_9297" x="5" y="1486" width="151" height="179" filterUnits="userSpaceOnUse" color-interpolation-filters="sRGB">
<feFlood flood-opacity="0" result="BackgroundImageFix"/>
<feColorMatrix in="SourceAlpha" type="matrix" values="0 0 0 0 0 0 0 0 0 0 0 0 0 0 0 0 0 0 127 0" result="hardAlpha"/>
<feOffset dy="5"/>
<feGaussianBlur stdDeviation="5"/>
<feComposite in2="hardAlpha" operator="out"/>
<feColorMatrix type="matrix" values="0 0 0 0 0 0 0 0 0 0 0 0 0 0 0 0 0 0 0.1 0"/>
<feBlend mode="normal" in2="BackgroundImageFix" result="effect1_dropShadow_601_9297"/>
<feBlend mode="normal" in="SourceGraphic" in2="effect1_dropShadow_601_9297" result="shape"/>
</filter>
<filter id="filter1_d_601_9297" x="5" y="1297" width="151" height="179" filterUnits="userSpaceOnUse" color-interpolation-filters="sRGB">
<feFlood flood-opacity="0" result="BackgroundImageFix"/>
<feColorMatrix in="SourceAlpha" type="matrix" values="0 0 0 0 0 0 0 0 0 0 0 0 0 0 0 0 0 0 127 0" result="hardAlpha"/>
<feOffset dy="5"/>
<feGaussianBlur stdDeviation="5"/>
<feComposite in2="hardAlpha" operator="out"/>
<feColorMatrix type="matrix" values="0 0 0 0 0 0 0 0 0 0 0 0 0 0 0 0 0 0 0.1 0"/>
<feBlend mode="normal" in2="BackgroundImageFix" result="effect1_dropShadow_601_9297"/>
<feBlend mode="normal" in="SourceGraphic" in2="effect1_dropShadow_601_9297" result="shape"/>
</filter>
<filter id="filter2_d_601_9297" x="5" y="1108" width="151" height="179" filterUnits="userSpaceOnUse" color-interpolation-filters="sRGB">
<feFlood flood-opacity="0" result="BackgroundImageFix"/>
<feColorMatrix in="SourceAlpha" type="matrix" values="0 0 0 0 0 0 0 0 0 0 0 0 0 0 0 0 0 0 127 0" result="hardAlpha"/>
<feOffset dy="5"/>
<feGaussianBlur stdDeviation="5"/>
<feComposite in2="hardAlpha" operator="out"/>
<feColorMatrix type="matrix" values="0 0 0 0 0 0 0 0 0 0 0 0 0 0 0 0 0 0 0.1 0"/>
<feBlend mode="normal" in2="BackgroundImageFix" result="effect1_dropShadow_601_9297"/>
<feBlend mode="normal" in="SourceGraphic" in2="effect1_dropShadow_601_9297" result="shape"/>
</filter>
<filter id="filter3_d_601_9297" x="5" y="919" width="151" height="179" filterUnits="userSpaceOnUse" color-interpolation-filters="sRGB">
<feFlood flood-opacity="0" result="BackgroundImageFix"/>
<feColorMatrix in="SourceAlpha" type="matrix" values="0 0 0 0 0 0 0 0 0 0 0 0 0 0 0 0 0 0 127 0" result="hardAlpha"/>
<feOffset dy="5"/>
<feGaussianBlur stdDeviation="5"/>
<feComposite in2="hardAlpha" operator="out"/>
<feColorMatrix type="matrix" values="0 0 0 0 0 0 0 0 0 0 0 0 0 0 0 0 0 0 0.1 0"/>
<feBlend mode="normal" in2="BackgroundImageFix" result="effect1_dropShadow_601_9297"/>
<feBlend mode="normal" in="SourceGraphic" in2="effect1_dropShadow_601_9297" result="shape"/>
</filter>
<filter id="filter4_d_601_9297" x="5" y="730" width="151" height="179" filterUnits="userSpaceOnUse" color-interpolation-filters="sRGB">
<feFlood flood-opacity="0" result="BackgroundImageFix"/>
<feColorMatrix in="SourceAlpha" type="matrix" values="0 0 0 0 0 0 0 0 0 0 0 0 0 0 0 0 0 0 127 0" result="hardAlpha"/>
<feOffset dy="5"/>
<feGaussianBlur stdDeviation="5"/>
<feComposite in2="hardAlpha" operator="out"/>
<feColorMatrix type="matrix" values="0 0 0 0 0 0 0 0 0 0 0 0 0 0 0 0 0 0 0.1 0"/>
<feBlend mode="normal" in2="BackgroundImageFix" result="effect1_dropShadow_601_9297"/>
<feBlend mode="normal" in="SourceGraphic" in2="effect1_dropShadow_601_9297" result="shape"/>
</filter>
<filter id="filter5_d_601_9297" x="5" y="541" width="151" height="179" filterUnits="userSpaceOnUse" color-interpolation-filters="sRGB">
<feFlood flood-opacity="0" result="BackgroundImageFix"/>
<feColorMatrix in="SourceAlpha" type="matrix" values="0 0 0 0 0 0 0 0 0 0 0 0 0 0 0 0 0 0 127 0" result="hardAlpha"/>
<feOffset dy="5"/>
<feGaussianBlur stdDeviation="5"/>
<feComposite in2="hardAlpha" operator="out"/>
<feColorMatrix type="matrix" values="0 0 0 0 0 0 0 0 0 0 0 0 0 0 0 0 0 0 0.1 0"/>
<feBlend mode="normal" in2="BackgroundImageFix" result="effect1_dropShadow_601_9297"/>
<feBlend mode="normal" in="SourceGraphic" in2="effect1_dropShadow_601_9297" result="shape"/>
</filter>
<filter id="filter6_d_601_9297" x="5" y="352" width="151" height="179" filterUnits="userSpaceOnUse" color-interpolation-filters="sRGB">
<feFlood flood-opacity="0" result="BackgroundImageFix"/>
<feColorMatrix in="SourceAlpha" type="matrix" values="0 0 0 0 0 0 0 0 0 0 0 0 0 0 0 0 0 0 127 0" result="hardAlpha"/>
<feOffset dy="5"/>
<feGaussianBlur stdDeviation="5"/>
<feComposite in2="hardAlpha" operator="out"/>
<feColorMatrix type="matrix" values="0 0 0 0 0 0 0 0 0 0 0 0 0 0 0 0 0 0 0.1 0"/>
<feBlend mode="normal" in2="BackgroundImageFix" result="effect1_dropShadow_601_9297"/>
<feBlend mode="normal" in="SourceGraphic" in2="effect1_dropShadow_601_9297" result="shape"/>
</filter>
<filter id="filter7_d_601_9297" x="5" y="163" width="151" height="179" filterUnits="userSpaceOnUse" color-interpolation-filters="sRGB">
<feFlood flood-opacity="0" result="BackgroundImageFix"/>
<feColorMatrix in="SourceAlpha" type="matrix" values="0 0 0 0 0 0 0 0 0 0 0 0 0 0 0 0 0 0 127 0" result="hardAlpha"/>
<feOffset dy="5"/>
<feGaussianBlur stdDeviation="5"/>
<feComposite in2="hardAlpha" operator="out"/>
<feColorMatrix type="matrix" values="0 0 0 0 0 0 0 0 0 0 0 0 0 0 0 0 0 0 0.1 0"/>
<feBlend mode="normal" in2="BackgroundImageFix" result="effect1_dropShadow_601_9297"/>
<feBlend mode="normal" in="SourceGraphic" in2="effect1_dropShadow_601_9297" result="shape"/>
</filter>
<filter id="filter8_d_601_9297" x="5" y="-26" width="151" height="179" filterUnits="userSpaceOnUse" color-interpolation-filters="sRGB">
<feFlood flood-opacity="0" result="BackgroundImageFix"/>
<feColorMatrix in="SourceAlpha" type="matrix" values="0 0 0 0 0 0 0 0 0 0 0 0 0 0 0 0 0 0 127 0" result="hardAlpha"/>
<feOffset dy="5"/>
<feGaussianBlur stdDeviation="5"/>
<feComposite in2="hardAlpha" operator="out"/>
<feColorMatrix type="matrix" values="0 0 0 0 0 0 0 0 0 0 0 0 0 0 0 0 0 0 0.1 0"/>
<feBlend mode="normal" in2="BackgroundImageFix" result="effect1_dropShadow_601_9297"/>
<feBlend mode="normal" in="SourceGraphic" in2="effect1_dropShadow_601_9297" result="shape"/>
</filter>
</defs>
</svg>
