<svg width="17" height="338" viewBox="0 0 17 338" fill="none" xmlns="http://www.w3.org/2000/svg">
<g opacity="0.04">
<mask id="mask0_1230_10837" style="mask-type:alpha" maskUnits="userSpaceOnUse" x="0" y="0" width="17" height="338">
<rect x="0.0262451" width="16.9" height="338" fill="#C4C4C4"/>
</mask>
<g mask="url(#mask0_1230_10837)">
<g filter="url(#filter0_d_1230_10837)">
<path d="M-1.47779 -6.92494C-0.606364 -8.45037 -0.417947 -9.98558 -0.432667 -10.5625C0.583018 -9.34998 2.65855 -6.746 2.65855 -5.20883C2.65855 -2.70421 -0.99203 -2.06997 -0.99203 0.966215C-0.99203 2.60898 0.175763 3.57215 0.80382 3.97307C0.460351 3.54282 -0.226585 2.44764 -0.226585 1.50891C-0.226585 -0.719519 2.31508 -2.60735 3.58591 -3.27271C3.31605 -2.62734 2.77631 -1.39526 2.77631 0.716866C2.77631 2.829 5.1119 5.50827 6.27969 6.56923C6.00982 6.00208 6.10132 5.55717 5.13152 4.38376C4.71936 3.88506 4.26304 3.08421 4.26304 1.69959C4.26304 0.314975 5.38177 -1.11658 5.94113 -1.65928L5.95175 -1.62063C6.29504 -0.37067 7.03728 2.33191 9.10594 3.88506C11.7114 5.84124 13.7575 8.62269 13.7575 11.0282C13.7575 12.6416 11.9764 15.7511 8.03138 17.5112C4.0864 19.2714 1.53492 21.7355 0.259177 23.0262C-1.0411 21.9555 -4.40414 19.4943 -7.45414 17.7459C-11.2666 15.5605 -13.9163 13.815 -13.9163 11.7616C-13.9163 8.06532 -10.6926 4.58911 -9.26471 2.829C-8.12244 1.42091 -7.01254 -0.534767 -6.60038 -1.33659C-6.57094 -0.564102 -6.10579 1.52652 -4.48069 2.829C-2.85559 4.13148 -0.643655 4.84334 0.259177 5.14647C-0.648561 5.14647 -2.86737 5.43103 -4.48069 6.56923C-6.49734 7.99198 -7.45414 9.73742 -7.45414 11.7616C-7.45414 13.3809 -6.27654 15.096 -5.68774 15.7511C-7.45414 14.8271 -10.6337 13.0083 -10.6337 9.8401C-10.6337 8.2208 -9.36776 6.31499 -8.70535 5.61584C-9.86824 6.24654 -12.194 8.15333 -12.194 10.7348C-12.194 13.9617 -8.70535 15.3404 -5.68774 16.8219C-3.71159 17.792 -0.918429 19.6674 0.259177 20.4301C0.514325 20.0292 3.39455 18.0678 5.94113 16.8219C10.8576 14.4164 12.4474 12.7003 12.4474 10.3388C12.4474 8.44961 10.2885 6.73057 9.26787 6.1732C9.57208 6.50078 10.2983 7.97732 10.2983 10.7348C10.2983 14.9297 4.26304 17.5112 1.02462 17.5112C-0.609308 17.5112 -5.68774 16.8219 -5.68774 13.4777C-5.68774 10.8023 -2.88111 10.7299 -1.47779 11.0282C-2.03716 11.5464 -3.15588 11.9669 -3.15588 13.815C-3.15588 15.0471 -2.5082 16.8219 1.02462 16.8219C4.55744 16.8219 7.19234 14.0497 7.19234 11.7616C7.19234 10.4268 6.63297 7.03859 2.23167 5.36649C-2.16964 3.69438 -4.90757 2.44382 -4.90757 -0.82323C-4.90757 -3.18471 -2.56708 -5.01816 -1.47779 -6.92494Z" fill="#DD2B2C"/>
<path d="M1.46622 14.6657C2.05012 13.7808 2.61439 11.4948 0.921581 10.1188C0.0236559 9.38888 -1.69435 9.17712 -4.21573 9.86943C-3.51561 8.35574 -2.78788 7.59439 -1.25699 7.1266C0.818697 6.49232 3.50643 7.18233 4.71936 9.86943C5.64673 13.1696 2.88916 14.5093 1.46622 14.6657Z" fill="#DD2B2C"/>
</g>
</g>
</g>
<defs>
<filter id="filter0_d_1230_10837" x="-16.0288" y="-11.6188" width="31.8987" height="37.8139" filterUnits="userSpaceOnUse" color-interpolation-filters="sRGB">
<feFlood flood-opacity="0" result="BackgroundImageFix"/>
<feColorMatrix in="SourceAlpha" type="matrix" values="0 0 0 0 0 0 0 0 0 0 0 0 0 0 0 0 0 0 127 0" result="hardAlpha"/>
<feOffset dy="1.05625"/>
<feGaussianBlur stdDeviation="1.05625"/>
<feComposite in2="hardAlpha" operator="out"/>
<feColorMatrix type="matrix" values="0 0 0 0 0 0 0 0 0 0 0 0 0 0 0 0 0 0 0.1 0"/>
<feBlend mode="normal" in2="BackgroundImageFix" result="effect1_dropShadow_1230_10837"/>
<feBlend mode="normal" in="SourceGraphic" in2="effect1_dropShadow_1230_10837" result="shape"/>
</filter>
</defs>
</svg>
