<svg width="80" height="1600" viewBox="0 0 80 1600" fill="none" xmlns="http://www.w3.org/2000/svg">
<g opacity="0.04">
<mask id="mask0_601_9544" style="mask-type:alpha" maskUnits="userSpaceOnUse" x="0" y="0" width="80" height="1600">
<rect width="80" height="1600" fill="#C4C4C4"/>
</mask>
<g mask="url(#mask0_601_9544)">
<path fill-rule="evenodd" clip-rule="evenodd" d="M0.446144 31.4918C30.8409 31.4918 55.4806 56.0407 55.4806 86.3234C55.4806 107.409 44.619 125.627 27.1025 134.801C39.5128 126.207 48.6572 112.564 48.6572 95.6632C48.6572 68.6604 26.8258 47.3758 0.446144 47.3758C-6.28288 47.3758 -11.9892 48.3165 -18.3663 50.9973C-20.2464 51.7877 -24.7179 55.2034 -23.0853 62.1161C-21.4528 69.0289 -15.2773 69.5173 -12.4993 68.6604C-8.29044 67.3621 -3.95161 66.6907 0.509972 66.6907C20.7262 66.6907 37.1146 83.0188 37.1146 103.16C37.1146 123.302 19.9608 139.821 -0.255325 139.821C-28.3783 139.821 -40.2398 128.829 -40.2398 128.829C-40.2398 128.829 -31.5669 147 -0.255325 147C37.9934 147 69.0001 116.108 69.0001 78.0002C69.0001 39.8924 37.9934 9 -0.255325 9C-26.749 9 -49.1275 23.0594 -60.7741 44.8343C-62.2381 48.0747 -62.4066 52.357 -58.2232 55.5084C-54.0398 58.6598 -46.9945 57.7957 -45.469 55.5084C-35.6106 40.7266 -18.7022 31.4918 0.446144 31.4918ZM-49.3585 79.0166C-49.3585 84.4205 -53.7554 88.8012 -59.1792 88.8012C-64.6031 88.8012 -69 84.4205 -69 79.0166C-69 73.6128 -64.6031 69.2321 -59.1792 69.2321C-53.7554 69.2321 -49.3585 73.6128 -49.3585 79.0166ZM-24.6153 110.848C-24.6153 124.428 -13.5659 135.437 0.0641327 135.437C9.29083 135.437 16.949 130.799 21.2361 123.365C21.4926 122.92 21.2361 121.84 20.2796 122.92C16.4533 127.24 10.2686 131.879 1.53087 131.879C-7.02755 131.879 -16.5801 124.839 -16.5801 116.312C-16.5801 107.785 -10.79 101.699 -2.23163 101.699C2.55121 101.699 4.50088 105.185 6.31371 111.738C9.05586 121.649 28.5698 116.312 22.4838 100.555C19.0541 91.6757 10.0056 86.2597 0.0641327 86.2597C-13.5659 86.2597 -24.6153 97.2684 -24.6153 110.848ZM-46.6801 116.122C-42.8059 116.122 -39.6653 112.993 -39.6653 109.133C-39.6653 105.273 -42.8059 102.144 -46.6801 102.144C-50.5543 102.144 -53.6949 105.273 -53.6949 109.133C-53.6949 112.993 -50.5543 116.122 -46.6801 116.122Z" fill="#009DFE"/>
<path fill-rule="evenodd" clip-rule="evenodd" d="M0.446144 211.492C30.8409 211.492 55.4806 236.041 55.4806 266.323C55.4806 287.409 44.619 305.627 27.1025 314.801C39.5128 306.207 48.6572 292.564 48.6572 275.663C48.6572 248.66 26.8258 227.376 0.446144 227.376C-6.28288 227.376 -11.9892 228.317 -18.3663 230.997C-20.2464 231.788 -24.7179 235.203 -23.0853 242.116C-21.4528 249.029 -15.2773 249.517 -12.4993 248.66C-8.29044 247.362 -3.95161 246.691 0.509972 246.691C20.7262 246.691 37.1146 263.019 37.1146 283.16C37.1146 303.302 19.9608 319.821 -0.255325 319.821C-28.3783 319.821 -40.2398 308.829 -40.2398 308.829C-40.2398 308.829 -31.5669 327 -0.255325 327C37.9934 327 69.0001 296.108 69.0001 258C69.0001 219.892 37.9934 189 -0.255325 189C-26.749 189 -49.1275 203.059 -60.7741 224.834C-62.2381 228.075 -62.4066 232.357 -58.2232 235.508C-54.0398 238.66 -46.9945 237.796 -45.469 235.508C-35.6106 220.727 -18.7022 211.492 0.446144 211.492ZM-49.3585 259.017C-49.3585 264.42 -53.7554 268.801 -59.1792 268.801C-64.6031 268.801 -69 264.42 -69 259.017C-69 253.613 -64.6031 249.232 -59.1792 249.232C-53.7554 249.232 -49.3585 253.613 -49.3585 259.017ZM-24.6153 290.848C-24.6153 304.428 -13.5659 315.437 0.0641327 315.437C9.29083 315.437 16.949 310.799 21.2361 303.365C21.4926 302.92 21.2361 301.84 20.2796 302.92C16.4533 307.24 10.2686 311.879 1.53087 311.879C-7.02755 311.879 -16.5801 304.839 -16.5801 296.312C-16.5801 287.785 -10.79 281.699 -2.23163 281.699C2.55121 281.699 4.50088 285.185 6.31371 291.738C9.05586 301.649 28.5698 296.312 22.4838 280.555C19.0541 271.676 10.0056 266.26 0.0641327 266.26C-13.5659 266.26 -24.6153 277.268 -24.6153 290.848ZM-46.6801 296.122C-42.8059 296.122 -39.6653 292.993 -39.6653 289.133C-39.6653 285.273 -42.8059 282.144 -46.6801 282.144C-50.5543 282.144 -53.6949 285.273 -53.6949 289.133C-53.6949 292.993 -50.5543 296.122 -46.6801 296.122Z" fill="#009DFE"/>
<path fill-rule="evenodd" clip-rule="evenodd" d="M0.446144 391.492C30.8409 391.492 55.4806 416.041 55.4806 446.323C55.4806 467.409 44.619 485.627 27.1025 494.801C39.5128 486.207 48.6572 472.564 48.6572 455.663C48.6572 428.66 26.8258 407.376 0.446144 407.376C-6.28288 407.376 -11.9892 408.317 -18.3663 410.997C-20.2464 411.788 -24.7179 415.203 -23.0853 422.116C-21.4528 429.029 -15.2773 429.517 -12.4993 428.66C-8.29044 427.362 -3.95161 426.691 0.509972 426.691C20.7262 426.691 37.1146 443.019 37.1146 463.16C37.1146 483.302 19.9608 499.821 -0.255325 499.821C-28.3783 499.821 -40.2398 488.829 -40.2398 488.829C-40.2398 488.829 -31.5669 507 -0.255325 507C37.9934 507 69.0001 476.108 69.0001 438C69.0001 399.892 37.9934 369 -0.255325 369C-26.749 369 -49.1275 383.059 -60.7741 404.834C-62.2381 408.075 -62.4066 412.357 -58.2232 415.508C-54.0398 418.66 -46.9945 417.796 -45.469 415.508C-35.6106 400.727 -18.7022 391.492 0.446144 391.492ZM-49.3585 439.017C-49.3585 444.42 -53.7554 448.801 -59.1792 448.801C-64.6031 448.801 -69 444.42 -69 439.017C-69 433.613 -64.6031 429.232 -59.1792 429.232C-53.7554 429.232 -49.3585 433.613 -49.3585 439.017ZM-24.6153 470.848C-24.6153 484.428 -13.5659 495.437 0.0641327 495.437C9.29083 495.437 16.949 490.799 21.2361 483.365C21.4926 482.92 21.2361 481.84 20.2796 482.92C16.4533 487.24 10.2686 491.879 1.53087 491.879C-7.02755 491.879 -16.5801 484.839 -16.5801 476.312C-16.5801 467.785 -10.79 461.699 -2.23163 461.699C2.55121 461.699 4.50088 465.185 6.31371 471.738C9.05586 481.649 28.5698 476.312 22.4838 460.555C19.0541 451.676 10.0056 446.26 0.0641327 446.26C-13.5659 446.26 -24.6153 457.268 -24.6153 470.848ZM-46.6801 476.122C-42.8059 476.122 -39.6653 472.993 -39.6653 469.133C-39.6653 465.273 -42.8059 462.144 -46.6801 462.144C-50.5543 462.144 -53.6949 465.273 -53.6949 469.133C-53.6949 472.993 -50.5543 476.122 -46.6801 476.122Z" fill="#009DFE"/>
<path fill-rule="evenodd" clip-rule="evenodd" d="M0.446144 571.492C30.8409 571.492 55.4806 596.041 55.4806 626.323C55.4806 647.409 44.619 665.627 27.1025 674.801C39.5128 666.207 48.6572 652.564 48.6572 635.663C48.6572 608.66 26.8258 587.376 0.446144 587.376C-6.28288 587.376 -11.9892 588.317 -18.3663 590.997C-20.2464 591.788 -24.7179 595.203 -23.0853 602.116C-21.4528 609.029 -15.2773 609.517 -12.4993 608.66C-8.29044 607.362 -3.95161 606.691 0.509972 606.691C20.7262 606.691 37.1146 623.019 37.1146 643.16C37.1146 663.302 19.9608 679.821 -0.255325 679.821C-28.3783 679.821 -40.2398 668.829 -40.2398 668.829C-40.2398 668.829 -31.5669 687 -0.255325 687C37.9934 687 69.0001 656.108 69.0001 618C69.0001 579.892 37.9934 549 -0.255325 549C-26.749 549 -49.1275 563.059 -60.7741 584.834C-62.2381 588.075 -62.4066 592.357 -58.2232 595.508C-54.0398 598.66 -46.9945 597.796 -45.469 595.508C-35.6106 580.727 -18.7022 571.492 0.446144 571.492ZM-49.3585 619.017C-49.3585 624.42 -53.7554 628.801 -59.1792 628.801C-64.6031 628.801 -69 624.42 -69 619.017C-69 613.613 -64.6031 609.232 -59.1792 609.232C-53.7554 609.232 -49.3585 613.613 -49.3585 619.017ZM-24.6153 650.848C-24.6153 664.428 -13.5659 675.437 0.0641327 675.437C9.29083 675.437 16.949 670.799 21.2361 663.365C21.4926 662.92 21.2361 661.84 20.2796 662.92C16.4533 667.24 10.2686 671.879 1.53087 671.879C-7.02755 671.879 -16.5801 664.839 -16.5801 656.312C-16.5801 647.785 -10.79 641.699 -2.23163 641.699C2.55121 641.699 4.50088 645.185 6.31371 651.738C9.05586 661.649 28.5698 656.312 22.4838 640.555C19.0541 631.676 10.0056 626.26 0.0641327 626.26C-13.5659 626.26 -24.6153 637.268 -24.6153 650.848ZM-46.6801 656.122C-42.8059 656.122 -39.6653 652.993 -39.6653 649.133C-39.6653 645.273 -42.8059 642.144 -46.6801 642.144C-50.5543 642.144 -53.6949 645.273 -53.6949 649.133C-53.6949 652.993 -50.5543 656.122 -46.6801 656.122Z" fill="#009DFE"/>
<path fill-rule="evenodd" clip-rule="evenodd" d="M0.446144 751.492C30.8409 751.492 55.4806 776.041 55.4806 806.323C55.4806 827.409 44.619 845.627 27.1025 854.801C39.5128 846.207 48.6572 832.564 48.6572 815.663C48.6572 788.66 26.8258 767.376 0.446144 767.376C-6.28288 767.376 -11.9892 768.317 -18.3663 770.997C-20.2464 771.788 -24.7179 775.203 -23.0853 782.116C-21.4528 789.029 -15.2773 789.517 -12.4993 788.66C-8.29044 787.362 -3.95161 786.691 0.509972 786.691C20.7262 786.691 37.1146 803.019 37.1146 823.16C37.1146 843.302 19.9608 859.821 -0.255325 859.821C-28.3783 859.821 -40.2398 848.829 -40.2398 848.829C-40.2398 848.829 -31.5669 867 -0.255325 867C37.9934 867 69.0001 836.108 69.0001 798C69.0001 759.892 37.9934 729 -0.255325 729C-26.749 729 -49.1275 743.059 -60.7741 764.834C-62.2381 768.075 -62.4066 772.357 -58.2232 775.508C-54.0398 778.66 -46.9945 777.796 -45.469 775.508C-35.6106 760.727 -18.7022 751.492 0.446144 751.492ZM-49.3585 799.017C-49.3585 804.42 -53.7554 808.801 -59.1792 808.801C-64.6031 808.801 -69 804.42 -69 799.017C-69 793.613 -64.6031 789.232 -59.1792 789.232C-53.7554 789.232 -49.3585 793.613 -49.3585 799.017ZM-24.6153 830.848C-24.6153 844.428 -13.5659 855.437 0.0641327 855.437C9.29083 855.437 16.949 850.799 21.2361 843.365C21.4926 842.92 21.2361 841.84 20.2796 842.92C16.4533 847.24 10.2686 851.879 1.53087 851.879C-7.02755 851.879 -16.5801 844.839 -16.5801 836.312C-16.5801 827.785 -10.79 821.699 -2.23163 821.699C2.55121 821.699 4.50088 825.185 6.31371 831.738C9.05586 841.649 28.5698 836.312 22.4838 820.555C19.0541 811.676 10.0056 806.26 0.0641327 806.26C-13.5659 806.26 -24.6153 817.268 -24.6153 830.848ZM-46.6801 836.122C-42.8059 836.122 -39.6653 832.993 -39.6653 829.133C-39.6653 825.273 -42.8059 822.144 -46.6801 822.144C-50.5543 822.144 -53.6949 825.273 -53.6949 829.133C-53.6949 832.993 -50.5543 836.122 -46.6801 836.122Z" fill="#009DFE"/>
<path fill-rule="evenodd" clip-rule="evenodd" d="M0.446144 931.492C30.8409 931.492 55.4806 956.041 55.4806 986.323C55.4806 1007.41 44.619 1025.63 27.1025 1034.8C39.5128 1026.21 48.6572 1012.56 48.6572 995.663C48.6572 968.66 26.8258 947.376 0.446144 947.376C-6.28288 947.376 -11.9892 948.317 -18.3663 950.997C-20.2464 951.788 -24.7179 955.203 -23.0853 962.116C-21.4528 969.029 -15.2773 969.517 -12.4993 968.66C-8.29044 967.362 -3.95161 966.691 0.509972 966.691C20.7262 966.691 37.1146 983.019 37.1146 1003.16C37.1146 1023.3 19.9608 1039.82 -0.255325 1039.82C-28.3783 1039.82 -40.2398 1028.83 -40.2398 1028.83C-40.2398 1028.83 -31.5669 1047 -0.255325 1047C37.9934 1047 69.0001 1016.11 69.0001 978C69.0001 939.892 37.9934 909 -0.255325 909C-26.749 909 -49.1275 923.059 -60.7741 944.834C-62.2381 948.075 -62.4066 952.357 -58.2232 955.508C-54.0398 958.66 -46.9945 957.796 -45.469 955.508C-35.6106 940.727 -18.7022 931.492 0.446144 931.492ZM-49.3585 979.017C-49.3585 984.42 -53.7554 988.801 -59.1792 988.801C-64.6031 988.801 -69 984.42 -69 979.017C-69 973.613 -64.6031 969.232 -59.1792 969.232C-53.7554 969.232 -49.3585 973.613 -49.3585 979.017ZM-24.6153 1010.85C-24.6153 1024.43 -13.5659 1035.44 0.0641327 1035.44C9.29083 1035.44 16.949 1030.8 21.2361 1023.36C21.4926 1022.92 21.2361 1021.84 20.2796 1022.92C16.4533 1027.24 10.2686 1031.88 1.53087 1031.88C-7.02755 1031.88 -16.5801 1024.84 -16.5801 1016.31C-16.5801 1007.79 -10.79 1001.7 -2.23163 1001.7C2.55121 1001.7 4.50088 1005.19 6.31371 1011.74C9.05586 1021.65 28.5698 1016.31 22.4838 1000.56C19.0541 991.676 10.0056 986.26 0.0641327 986.26C-13.5659 986.26 -24.6153 997.268 -24.6153 1010.85ZM-46.6801 1016.12C-42.8059 1016.12 -39.6653 1012.99 -39.6653 1009.13C-39.6653 1005.27 -42.8059 1002.14 -46.6801 1002.14C-50.5543 1002.14 -53.6949 1005.27 -53.6949 1009.13C-53.6949 1012.99 -50.5543 1016.12 -46.6801 1016.12Z" fill="#009DFE"/>
<path fill-rule="evenodd" clip-rule="evenodd" d="M0.446144 1111.49C30.8409 1111.49 55.4806 1136.04 55.4806 1166.32C55.4806 1187.41 44.619 1205.63 27.1025 1214.8C39.5128 1206.21 48.6572 1192.56 48.6572 1175.66C48.6572 1148.66 26.8258 1127.38 0.446144 1127.38C-6.28288 1127.38 -11.9892 1128.32 -18.3663 1131C-20.2464 1131.79 -24.7179 1135.2 -23.0853 1142.12C-21.4528 1149.03 -15.2773 1149.52 -12.4993 1148.66C-8.29044 1147.36 -3.95161 1146.69 0.509972 1146.69C20.7262 1146.69 37.1146 1163.02 37.1146 1183.16C37.1146 1203.3 19.9608 1219.82 -0.255325 1219.82C-28.3783 1219.82 -40.2398 1208.83 -40.2398 1208.83C-40.2398 1208.83 -31.5669 1227 -0.255325 1227C37.9934 1227 69.0001 1196.11 69.0001 1158C69.0001 1119.89 37.9934 1089 -0.255325 1089C-26.749 1089 -49.1275 1103.06 -60.7741 1124.83C-62.2381 1128.07 -62.4066 1132.36 -58.2232 1135.51C-54.0398 1138.66 -46.9945 1137.8 -45.469 1135.51C-35.6106 1120.73 -18.7022 1111.49 0.446144 1111.49ZM-49.3585 1159.02C-49.3585 1164.42 -53.7554 1168.8 -59.1792 1168.8C-64.6031 1168.8 -69 1164.42 -69 1159.02C-69 1153.61 -64.6031 1149.23 -59.1792 1149.23C-53.7554 1149.23 -49.3585 1153.61 -49.3585 1159.02ZM-24.6153 1190.85C-24.6153 1204.43 -13.5659 1215.44 0.0641327 1215.44C9.29083 1215.44 16.949 1210.8 21.2361 1203.36C21.4926 1202.92 21.2361 1201.84 20.2796 1202.92C16.4533 1207.24 10.2686 1211.88 1.53087 1211.88C-7.02755 1211.88 -16.5801 1204.84 -16.5801 1196.31C-16.5801 1187.79 -10.79 1181.7 -2.23163 1181.7C2.55121 1181.7 4.50088 1185.19 6.31371 1191.74C9.05586 1201.65 28.5698 1196.31 22.4838 1180.56C19.0541 1171.68 10.0056 1166.26 0.0641327 1166.26C-13.5659 1166.26 -24.6153 1177.27 -24.6153 1190.85ZM-46.6801 1196.12C-42.8059 1196.12 -39.6653 1192.99 -39.6653 1189.13C-39.6653 1185.27 -42.8059 1182.14 -46.6801 1182.14C-50.5543 1182.14 -53.6949 1185.27 -53.6949 1189.13C-53.6949 1192.99 -50.5543 1196.12 -46.6801 1196.12Z" fill="#009DFE"/>
<path fill-rule="evenodd" clip-rule="evenodd" d="M0.446144 1291.49C30.8409 1291.49 55.4806 1316.04 55.4806 1346.32C55.4806 1367.41 44.619 1385.63 27.1025 1394.8C39.5128 1386.21 48.6572 1372.56 48.6572 1355.66C48.6572 1328.66 26.8258 1307.38 0.446144 1307.38C-6.28288 1307.38 -11.9892 1308.32 -18.3663 1311C-20.2464 1311.79 -24.7179 1315.2 -23.0853 1322.12C-21.4528 1329.03 -15.2773 1329.52 -12.4993 1328.66C-8.29044 1327.36 -3.95161 1326.69 0.509972 1326.69C20.7262 1326.69 37.1146 1343.02 37.1146 1363.16C37.1146 1383.3 19.9608 1399.82 -0.255325 1399.82C-28.3783 1399.82 -40.2398 1388.83 -40.2398 1388.83C-40.2398 1388.83 -31.5669 1407 -0.255325 1407C37.9934 1407 69.0001 1376.11 69.0001 1338C69.0001 1299.89 37.9934 1269 -0.255325 1269C-26.749 1269 -49.1275 1283.06 -60.7741 1304.83C-62.2381 1308.07 -62.4066 1312.36 -58.2232 1315.51C-54.0398 1318.66 -46.9945 1317.8 -45.469 1315.51C-35.6106 1300.73 -18.7022 1291.49 0.446144 1291.49ZM-49.3585 1339.02C-49.3585 1344.42 -53.7554 1348.8 -59.1792 1348.8C-64.6031 1348.8 -69 1344.42 -69 1339.02C-69 1333.61 -64.6031 1329.23 -59.1792 1329.23C-53.7554 1329.23 -49.3585 1333.61 -49.3585 1339.02ZM-24.6153 1370.85C-24.6153 1384.43 -13.5659 1395.44 0.0641327 1395.44C9.29083 1395.44 16.949 1390.8 21.2361 1383.36C21.4926 1382.92 21.2361 1381.84 20.2796 1382.92C16.4533 1387.24 10.2686 1391.88 1.53087 1391.88C-7.02755 1391.88 -16.5801 1384.84 -16.5801 1376.31C-16.5801 1367.79 -10.79 1361.7 -2.23163 1361.7C2.55121 1361.7 4.50088 1365.19 6.31371 1371.74C9.05586 1381.65 28.5698 1376.31 22.4838 1360.56C19.0541 1351.68 10.0056 1346.26 0.0641327 1346.26C-13.5659 1346.26 -24.6153 1357.27 -24.6153 1370.85ZM-46.6801 1376.12C-42.8059 1376.12 -39.6653 1372.99 -39.6653 1369.13C-39.6653 1365.27 -42.8059 1362.14 -46.6801 1362.14C-50.5543 1362.14 -53.6949 1365.27 -53.6949 1369.13C-53.6949 1372.99 -50.5543 1376.12 -46.6801 1376.12Z" fill="#009DFE"/>
<path fill-rule="evenodd" clip-rule="evenodd" d="M0.446144 1471.49C30.8409 1471.49 55.4806 1496.04 55.4806 1526.32C55.4806 1547.41 44.619 1565.63 27.1025 1574.8C39.5128 1566.21 48.6572 1552.56 48.6572 1535.66C48.6572 1508.66 26.8258 1487.38 0.446144 1487.38C-6.28288 1487.38 -11.9892 1488.32 -18.3663 1491C-20.2464 1491.79 -24.7179 1495.2 -23.0853 1502.12C-21.4528 1509.03 -15.2773 1509.52 -12.4993 1508.66C-8.29044 1507.36 -3.95161 1506.69 0.509972 1506.69C20.7262 1506.69 37.1146 1523.02 37.1146 1543.16C37.1146 1563.3 19.9608 1579.82 -0.255325 1579.82C-28.3783 1579.82 -40.2398 1568.83 -40.2398 1568.83C-40.2398 1568.83 -31.5669 1587 -0.255325 1587C37.9934 1587 69.0001 1556.11 69.0001 1518C69.0001 1479.89 37.9934 1449 -0.255325 1449C-26.749 1449 -49.1275 1463.06 -60.7741 1484.83C-62.2381 1488.07 -62.4066 1492.36 -58.2232 1495.51C-54.0398 1498.66 -46.9945 1497.8 -45.469 1495.51C-35.6106 1480.73 -18.7022 1471.49 0.446144 1471.49ZM-49.3585 1519.02C-49.3585 1524.42 -53.7554 1528.8 -59.1792 1528.8C-64.6031 1528.8 -69 1524.42 -69 1519.02C-69 1513.61 -64.6031 1509.23 -59.1792 1509.23C-53.7554 1509.23 -49.3585 1513.61 -49.3585 1519.02ZM-24.6153 1550.85C-24.6153 1564.43 -13.5659 1575.44 0.0641327 1575.44C9.29083 1575.44 16.949 1570.8 21.2361 1563.36C21.4926 1562.92 21.2361 1561.84 20.2796 1562.92C16.4533 1567.24 10.2686 1571.88 1.53087 1571.88C-7.02755 1571.88 -16.5801 1564.84 -16.5801 1556.31C-16.5801 1547.79 -10.79 1541.7 -2.23163 1541.7C2.55121 1541.7 4.50088 1545.19 6.31371 1551.74C9.05586 1561.65 28.5698 1556.31 22.4838 1540.56C19.0541 1531.68 10.0056 1526.26 0.0641327 1526.26C-13.5659 1526.26 -24.6153 1537.27 -24.6153 1550.85ZM-46.6801 1556.12C-42.8059 1556.12 -39.6653 1552.99 -39.6653 1549.13C-39.6653 1545.27 -42.8059 1542.14 -46.6801 1542.14C-50.5543 1542.14 -53.6949 1545.27 -53.6949 1549.13C-53.6949 1552.99 -50.5543 1556.12 -46.6801 1556.12Z" fill="#009DFE"/>
</g>
</g>
</svg>
