<svg width="80" height="1600" viewBox="0 0 80 1600" fill="none" xmlns="http://www.w3.org/2000/svg">
<g opacity="0.04">
<mask id="mask0_601_9558" style="mask-type:alpha" maskUnits="userSpaceOnUse" x="0" y="0" width="80" height="1600">
<rect x="80" y="1600" width="80" height="1600" transform="rotate(180 80 1600)" fill="#C4C4C4"/>
</mask>
<g mask="url(#mask0_601_9558)">
<path fill-rule="evenodd" clip-rule="evenodd" d="M79.5539 1568.51C49.1591 1568.51 24.5194 1543.96 24.5194 1513.68C24.5194 1492.59 35.381 1474.37 52.8975 1465.2C40.4872 1473.79 31.3428 1487.44 31.3428 1504.34C31.3428 1531.34 53.1742 1552.62 79.5539 1552.62C86.2829 1552.62 91.9892 1551.68 98.3663 1549C100.246 1548.21 104.718 1544.8 103.085 1537.88C101.453 1530.97 95.2773 1530.48 92.4993 1531.34C88.2904 1532.64 83.9516 1533.31 79.49 1533.31C59.2738 1533.31 42.8854 1516.98 42.8854 1496.84C42.8854 1476.7 60.0392 1460.18 80.2553 1460.18C108.378 1460.18 120.24 1471.17 120.24 1471.17C120.24 1471.17 111.567 1453 80.2553 1453C42.0066 1453 10.9999 1483.89 10.9999 1522C10.9999 1560.11 42.0066 1591 80.2553 1591C106.749 1591 129.128 1576.94 140.774 1555.17C142.238 1551.93 142.407 1547.64 138.223 1544.49C134.04 1541.34 126.994 1542.2 125.469 1544.49C115.611 1559.27 98.7022 1568.51 79.5539 1568.51ZM129.358 1520.98C129.358 1515.58 133.755 1511.2 139.179 1511.2C144.603 1511.2 149 1515.58 149 1520.98C149 1526.39 144.603 1530.77 139.179 1530.77C133.755 1530.77 129.358 1526.39 129.358 1520.98ZM104.615 1489.15C104.615 1475.57 93.5659 1464.56 79.9359 1464.56C70.7092 1464.56 63.051 1469.2 58.7639 1476.64C58.5074 1477.08 58.7639 1478.16 59.7204 1477.08C63.5467 1472.76 69.7314 1468.12 78.4691 1468.12C87.0275 1468.12 96.5801 1475.16 96.5801 1483.69C96.5801 1492.21 90.79 1498.3 82.2316 1498.3C77.4488 1498.3 75.4991 1494.81 73.6863 1488.26C70.9441 1478.35 51.4302 1483.69 57.5162 1499.44C60.9459 1508.32 69.9944 1513.74 79.9359 1513.74C93.5659 1513.74 104.615 1502.73 104.615 1489.15ZM126.68 1483.88C122.806 1483.88 119.665 1487.01 119.665 1490.87C119.665 1494.73 122.806 1497.86 126.68 1497.86C130.554 1497.86 133.695 1494.73 133.695 1490.87C133.695 1487.01 130.554 1483.88 126.68 1483.88Z" fill="#009DFE"/>
<path fill-rule="evenodd" clip-rule="evenodd" d="M79.5539 1388.51C49.1591 1388.51 24.5194 1363.96 24.5194 1333.68C24.5194 1312.59 35.381 1294.37 52.8975 1285.2C40.4872 1293.79 31.3428 1307.44 31.3428 1324.34C31.3428 1351.34 53.1742 1372.62 79.5539 1372.62C86.2829 1372.62 91.9892 1371.68 98.3663 1369C100.246 1368.21 104.718 1364.8 103.085 1357.88C101.453 1350.97 95.2773 1350.48 92.4993 1351.34C88.2904 1352.64 83.9516 1353.31 79.49 1353.31C59.2738 1353.31 42.8854 1336.98 42.8854 1316.84C42.8854 1296.7 60.0392 1280.18 80.2553 1280.18C108.378 1280.18 120.24 1291.17 120.24 1291.17C120.24 1291.17 111.567 1273 80.2553 1273C42.0066 1273 10.9999 1303.89 10.9999 1342C10.9999 1380.11 42.0066 1411 80.2553 1411C106.749 1411 129.128 1396.94 140.774 1375.17C142.238 1371.93 142.407 1367.64 138.223 1364.49C134.04 1361.34 126.994 1362.2 125.469 1364.49C115.611 1379.27 98.7022 1388.51 79.5539 1388.51ZM129.358 1340.98C129.358 1335.58 133.755 1331.2 139.179 1331.2C144.603 1331.2 149 1335.58 149 1340.98C149 1346.39 144.603 1350.77 139.179 1350.77C133.755 1350.77 129.358 1346.39 129.358 1340.98ZM104.615 1309.15C104.615 1295.57 93.5659 1284.56 79.9359 1284.56C70.7092 1284.56 63.051 1289.2 58.7639 1296.64C58.5074 1297.08 58.7639 1298.16 59.7204 1297.08C63.5467 1292.76 69.7314 1288.12 78.4691 1288.12C87.0275 1288.12 96.5801 1295.16 96.5801 1303.69C96.5801 1312.21 90.79 1318.3 82.2316 1318.3C77.4488 1318.3 75.4991 1314.81 73.6863 1308.26C70.9441 1298.35 51.4302 1303.69 57.5162 1319.44C60.9459 1328.32 69.9944 1333.74 79.9359 1333.74C93.5659 1333.74 104.615 1322.73 104.615 1309.15ZM126.68 1303.88C122.806 1303.88 119.665 1307.01 119.665 1310.87C119.665 1314.73 122.806 1317.86 126.68 1317.86C130.554 1317.86 133.695 1314.73 133.695 1310.87C133.695 1307.01 130.554 1303.88 126.68 1303.88Z" fill="#009DFE"/>
<path fill-rule="evenodd" clip-rule="evenodd" d="M79.5539 1208.51C49.1591 1208.51 24.5194 1183.96 24.5194 1153.68C24.5194 1132.59 35.381 1114.37 52.8975 1105.2C40.4872 1113.79 31.3428 1127.44 31.3428 1144.34C31.3428 1171.34 53.1742 1192.62 79.5539 1192.62C86.2829 1192.62 91.9892 1191.68 98.3663 1189C100.246 1188.21 104.718 1184.8 103.085 1177.88C101.453 1170.97 95.2773 1170.48 92.4993 1171.34C88.2904 1172.64 83.9516 1173.31 79.49 1173.31C59.2738 1173.31 42.8854 1156.98 42.8854 1136.84C42.8854 1116.7 60.0392 1100.18 80.2553 1100.18C108.378 1100.18 120.24 1111.17 120.24 1111.17C120.24 1111.17 111.567 1093 80.2553 1093C42.0066 1093 10.9999 1123.89 10.9999 1162C10.9999 1200.11 42.0066 1231 80.2553 1231C106.749 1231 129.128 1216.94 140.774 1195.17C142.238 1191.93 142.407 1187.64 138.223 1184.49C134.04 1181.34 126.994 1182.2 125.469 1184.49C115.611 1199.27 98.7022 1208.51 79.5539 1208.51ZM129.358 1160.98C129.358 1155.58 133.755 1151.2 139.179 1151.2C144.603 1151.2 149 1155.58 149 1160.98C149 1166.39 144.603 1170.77 139.179 1170.77C133.755 1170.77 129.358 1166.39 129.358 1160.98ZM104.615 1129.15C104.615 1115.57 93.5659 1104.56 79.9359 1104.56C70.7092 1104.56 63.051 1109.2 58.7639 1116.64C58.5074 1117.08 58.7639 1118.16 59.7204 1117.08C63.5467 1112.76 69.7314 1108.12 78.4691 1108.12C87.0275 1108.12 96.5801 1115.16 96.5801 1123.69C96.5801 1132.21 90.79 1138.3 82.2316 1138.3C77.4488 1138.3 75.4991 1134.81 73.6863 1128.26C70.9441 1118.35 51.4302 1123.69 57.5162 1139.44C60.9459 1148.32 69.9944 1153.74 79.9359 1153.74C93.5659 1153.74 104.615 1142.73 104.615 1129.15ZM126.68 1123.88C122.806 1123.88 119.665 1127.01 119.665 1130.87C119.665 1134.73 122.806 1137.86 126.68 1137.86C130.554 1137.86 133.695 1134.73 133.695 1130.87C133.695 1127.01 130.554 1123.88 126.68 1123.88Z" fill="#009DFE"/>
<path fill-rule="evenodd" clip-rule="evenodd" d="M79.5539 1028.51C49.1591 1028.51 24.5194 1003.96 24.5194 973.677C24.5194 952.591 35.381 934.373 52.8975 925.199C40.4872 933.793 31.3428 947.436 31.3428 964.337C31.3428 991.34 53.1742 1012.62 79.5539 1012.62C86.2829 1012.62 91.9892 1011.68 98.3663 1009C100.246 1008.21 104.718 1004.8 103.085 997.884C101.453 990.971 95.2773 990.483 92.4993 991.34C88.2904 992.638 83.9516 993.309 79.49 993.309C59.2738 993.309 42.8854 976.981 42.8854 956.84C42.8854 936.698 60.0392 920.179 80.2553 920.179C108.378 920.179 120.24 931.171 120.24 931.171C120.24 931.171 111.567 913 80.2553 913C42.0066 913 10.9999 943.892 10.9999 982C10.9999 1020.11 42.0066 1051 80.2553 1051C106.749 1051 129.128 1036.94 140.774 1015.17C142.238 1011.93 142.407 1007.64 138.223 1004.49C134.04 1001.34 126.994 1002.2 125.469 1004.49C115.611 1019.27 98.7022 1028.51 79.5539 1028.51ZM129.358 980.983C129.358 975.58 133.755 971.199 139.179 971.199C144.603 971.199 149 975.58 149 980.983C149 986.387 144.603 990.768 139.179 990.768C133.755 990.768 129.358 986.387 129.358 980.983ZM104.615 949.152C104.615 935.572 93.5659 924.563 79.9359 924.563C70.7092 924.563 63.051 929.201 58.7639 936.635C58.5074 937.08 58.7639 938.16 59.7204 937.08C63.5467 932.76 69.7314 928.121 78.4691 928.121C87.0275 928.121 96.5801 935.161 96.5801 943.688C96.5801 952.215 90.79 958.301 82.2316 958.301C77.4488 958.301 75.4991 954.815 73.6863 948.262C70.9441 938.351 51.4302 943.688 57.5162 959.445C60.9459 968.324 69.9944 973.74 79.9359 973.74C93.5659 973.74 104.615 962.732 104.615 949.152ZM126.68 943.878C122.806 943.878 119.665 947.007 119.665 950.867C119.665 954.727 122.806 957.856 126.68 957.856C130.554 957.856 133.695 954.727 133.695 950.867C133.695 947.007 130.554 943.878 126.68 943.878Z" fill="#009DFE"/>
<path fill-rule="evenodd" clip-rule="evenodd" d="M79.5539 848.508C49.1591 848.508 24.5194 823.959 24.5194 793.677C24.5194 772.591 35.381 754.373 52.8975 745.199C40.4872 753.793 31.3428 767.436 31.3428 784.337C31.3428 811.34 53.1742 832.624 79.5539 832.624C86.2829 832.624 91.9892 831.683 98.3663 829.003C100.246 828.212 104.718 824.797 103.085 817.884C101.453 810.971 95.2773 810.483 92.4993 811.34C88.2904 812.638 83.9516 813.309 79.49 813.309C59.2738 813.309 42.8854 796.981 42.8854 776.84C42.8854 756.698 60.0392 740.179 80.2553 740.179C108.378 740.179 120.24 751.171 120.24 751.171C120.24 751.171 111.567 733 80.2553 733C42.0066 733 10.9999 763.892 10.9999 802C10.9999 840.108 42.0066 871 80.2553 871C106.749 871 129.128 856.941 140.774 835.166C142.238 831.925 142.407 827.643 138.223 824.492C134.04 821.34 126.994 822.204 125.469 824.492C115.611 839.273 98.7022 848.508 79.5539 848.508ZM129.358 800.983C129.358 795.58 133.755 791.199 139.179 791.199C144.603 791.199 149 795.58 149 800.983C149 806.387 144.603 810.768 139.179 810.768C133.755 810.768 129.358 806.387 129.358 800.983ZM104.615 769.152C104.615 755.572 93.5659 744.563 79.9359 744.563C70.7092 744.563 63.051 749.201 58.7639 756.635C58.5074 757.08 58.7639 758.16 59.7204 757.08C63.5467 752.76 69.7314 748.121 78.4691 748.121C87.0275 748.121 96.5801 755.161 96.5801 763.688C96.5801 772.215 90.79 778.301 82.2316 778.301C77.4488 778.301 75.4991 774.815 73.6863 768.262C70.9441 758.351 51.4302 763.688 57.5162 779.445C60.9459 788.324 69.9944 793.74 79.9359 793.74C93.5659 793.74 104.615 782.732 104.615 769.152ZM126.68 763.878C122.806 763.878 119.665 767.007 119.665 770.867C119.665 774.727 122.806 777.856 126.68 777.856C130.554 777.856 133.695 774.727 133.695 770.867C133.695 767.007 130.554 763.878 126.68 763.878Z" fill="#009DFE"/>
<path fill-rule="evenodd" clip-rule="evenodd" d="M79.5539 668.508C49.1591 668.508 24.5194 643.959 24.5194 613.677C24.5194 592.591 35.381 574.373 52.8975 565.199C40.4872 573.793 31.3428 587.436 31.3428 604.337C31.3428 631.34 53.1742 652.624 79.5539 652.624C86.2829 652.624 91.9892 651.683 98.3663 649.003C100.246 648.212 104.718 644.797 103.085 637.884C101.453 630.971 95.2773 630.483 92.4993 631.34C88.2904 632.638 83.9516 633.309 79.49 633.309C59.2738 633.309 42.8854 616.981 42.8854 596.84C42.8854 576.698 60.0392 560.179 80.2553 560.179C108.378 560.179 120.24 571.171 120.24 571.171C120.24 571.171 111.567 553 80.2553 553C42.0066 553 10.9999 583.892 10.9999 622C10.9999 660.108 42.0066 691 80.2553 691C106.749 691 129.128 676.941 140.774 655.166C142.238 651.925 142.407 647.643 138.223 644.492C134.04 641.34 126.994 642.204 125.469 644.492C115.611 659.273 98.7022 668.508 79.5539 668.508ZM129.358 620.983C129.358 615.58 133.755 611.199 139.179 611.199C144.603 611.199 149 615.58 149 620.983C149 626.387 144.603 630.768 139.179 630.768C133.755 630.768 129.358 626.387 129.358 620.983ZM104.615 589.152C104.615 575.572 93.5659 564.563 79.9359 564.563C70.7092 564.563 63.051 569.201 58.7639 576.635C58.5074 577.08 58.7639 578.16 59.7204 577.08C63.5467 572.76 69.7314 568.121 78.4691 568.121C87.0275 568.121 96.5801 575.161 96.5801 583.688C96.5801 592.215 90.79 598.301 82.2316 598.301C77.4488 598.301 75.4991 594.815 73.6863 588.262C70.9441 578.351 51.4302 583.688 57.5162 599.445C60.9459 608.324 69.9944 613.74 79.9359 613.74C93.5659 613.74 104.615 602.732 104.615 589.152ZM126.68 583.878C122.806 583.878 119.665 587.007 119.665 590.867C119.665 594.727 122.806 597.856 126.68 597.856C130.554 597.856 133.695 594.727 133.695 590.867C133.695 587.007 130.554 583.878 126.68 583.878Z" fill="#009DFE"/>
<path fill-rule="evenodd" clip-rule="evenodd" d="M79.5539 488.508C49.1591 488.508 24.5194 463.959 24.5194 433.677C24.5194 412.591 35.381 394.373 52.8975 385.199C40.4872 393.793 31.3428 407.436 31.3428 424.337C31.3428 451.34 53.1742 472.624 79.5539 472.624C86.2829 472.624 91.9892 471.683 98.3663 469.003C100.246 468.212 104.718 464.797 103.085 457.884C101.453 450.971 95.2773 450.483 92.4993 451.34C88.2904 452.638 83.9516 453.309 79.49 453.309C59.2738 453.309 42.8854 436.981 42.8854 416.84C42.8854 396.698 60.0392 380.179 80.2553 380.179C108.378 380.179 120.24 391.171 120.24 391.171C120.24 391.171 111.567 373 80.2553 373C42.0066 373 10.9999 403.892 10.9999 442C10.9999 480.108 42.0066 511 80.2553 511C106.749 511 129.128 496.941 140.774 475.166C142.238 471.925 142.407 467.643 138.223 464.492C134.04 461.34 126.994 462.204 125.469 464.492C115.611 479.273 98.7022 488.508 79.5539 488.508ZM129.358 440.983C129.358 435.58 133.755 431.199 139.179 431.199C144.603 431.199 149 435.58 149 440.983C149 446.387 144.603 450.768 139.179 450.768C133.755 450.768 129.358 446.387 129.358 440.983ZM104.615 409.152C104.615 395.572 93.5659 384.563 79.9359 384.563C70.7092 384.563 63.051 389.201 58.7639 396.635C58.5074 397.08 58.7639 398.16 59.7204 397.08C63.5467 392.76 69.7314 388.121 78.4691 388.121C87.0275 388.121 96.5801 395.161 96.5801 403.688C96.5801 412.215 90.79 418.301 82.2316 418.301C77.4488 418.301 75.4991 414.815 73.6863 408.262C70.9441 398.351 51.4302 403.688 57.5162 419.445C60.9459 428.324 69.9944 433.74 79.9359 433.74C93.5659 433.74 104.615 422.732 104.615 409.152ZM126.68 403.878C122.806 403.878 119.665 407.007 119.665 410.867C119.665 414.727 122.806 417.856 126.68 417.856C130.554 417.856 133.695 414.727 133.695 410.867C133.695 407.007 130.554 403.878 126.68 403.878Z" fill="#009DFE"/>
<path fill-rule="evenodd" clip-rule="evenodd" d="M79.5539 308.508C49.1591 308.508 24.5194 283.959 24.5194 253.677C24.5194 232.591 35.381 214.373 52.8975 205.199C40.4872 213.793 31.3428 227.436 31.3428 244.337C31.3428 271.34 53.1742 292.624 79.5539 292.624C86.2829 292.624 91.9892 291.683 98.3663 289.003C100.246 288.212 104.718 284.797 103.085 277.884C101.453 270.971 95.2773 270.483 92.4993 271.34C88.2904 272.638 83.9516 273.309 79.49 273.309C59.2738 273.309 42.8854 256.981 42.8854 236.84C42.8854 216.698 60.0392 200.179 80.2553 200.179C108.378 200.179 120.24 211.171 120.24 211.171C120.24 211.171 111.567 193 80.2553 193C42.0066 193 10.9999 223.892 10.9999 262C10.9999 300.108 42.0066 331 80.2553 331C106.749 331 129.128 316.941 140.774 295.166C142.238 291.925 142.407 287.643 138.223 284.492C134.04 281.34 126.994 282.204 125.469 284.492C115.611 299.273 98.7022 308.508 79.5539 308.508ZM129.358 260.983C129.358 255.58 133.755 251.199 139.179 251.199C144.603 251.199 149 255.58 149 260.983C149 266.387 144.603 270.768 139.179 270.768C133.755 270.768 129.358 266.387 129.358 260.983ZM104.615 229.152C104.615 215.572 93.5659 204.563 79.9359 204.563C70.7092 204.563 63.051 209.201 58.7639 216.635C58.5074 217.08 58.7639 218.16 59.7204 217.08C63.5467 212.76 69.7314 208.121 78.4691 208.121C87.0275 208.121 96.5801 215.161 96.5801 223.688C96.5801 232.215 90.79 238.301 82.2316 238.301C77.4488 238.301 75.4991 234.815 73.6863 228.262C70.9441 218.351 51.4302 223.688 57.5162 239.445C60.9459 248.324 69.9944 253.74 79.9359 253.74C93.5659 253.74 104.615 242.732 104.615 229.152ZM126.68 223.878C122.806 223.878 119.665 227.007 119.665 230.867C119.665 234.727 122.806 237.856 126.68 237.856C130.554 237.856 133.695 234.727 133.695 230.867C133.695 227.007 130.554 223.878 126.68 223.878Z" fill="#009DFE"/>
<path fill-rule="evenodd" clip-rule="evenodd" d="M79.5539 128.508C49.1591 128.508 24.5194 103.959 24.5194 73.6766C24.5194 52.5912 35.381 34.373 52.8975 25.1986C40.4872 33.7933 31.3428 47.4362 31.3428 64.3368C31.3428 91.3396 53.1742 112.624 79.5539 112.624C86.2829 112.624 91.9892 111.683 98.3663 109.003C100.246 108.212 104.718 104.797 103.085 97.8839C101.453 90.9711 95.2773 90.4827 92.4993 91.3396C88.2904 92.6379 83.9516 93.3093 79.49 93.3093C59.2738 93.3093 42.8854 76.9812 42.8854 56.8396C42.8854 36.6979 60.0392 20.1792 80.2553 20.1792C108.378 20.1792 120.24 31.171 120.24 31.171C120.24 31.171 111.567 12.9997 80.2553 12.9997C42.0066 12.9997 10.9999 43.8921 10.9999 81.9998C10.9999 120.108 42.0066 151 80.2553 151C106.749 151 129.128 136.941 140.774 115.166C142.238 111.925 142.407 107.643 138.223 104.492C134.04 101.34 126.994 102.204 125.469 104.492C115.611 119.273 98.7022 128.508 79.5539 128.508ZM129.358 80.9834C129.358 75.5795 133.755 71.1988 139.179 71.1988C144.603 71.1988 149 75.5795 149 80.9834C149 86.3872 144.603 90.7679 139.179 90.7679C133.755 90.7679 129.358 86.3872 129.358 80.9834ZM104.615 49.1518C104.615 35.572 93.5659 24.5634 79.9359 24.5634C70.7092 24.5634 63.051 29.2015 58.7639 36.6352C58.5074 37.08 58.7639 38.1601 59.7204 37.08C63.5467 32.7595 69.7314 28.1214 78.4691 28.1214C87.0275 28.1214 96.5801 35.1608 96.5801 43.6877C96.5801 52.2146 90.79 58.301 82.2316 58.301C77.4488 58.301 75.4991 54.8148 73.6863 48.2623C70.9441 38.3507 51.4302 43.6877 57.5162 59.4447C60.9459 68.3243 69.9944 73.7403 79.9359 73.7403C93.5659 73.7403 104.615 62.7316 104.615 49.1518ZM126.68 43.8783C122.806 43.8783 119.665 47.0074 119.665 50.8673C119.665 54.7272 122.806 57.8563 126.68 57.8563C130.554 57.8563 133.695 54.7272 133.695 50.8673C133.695 47.0074 130.554 43.8783 126.68 43.8783Z" fill="#009DFE"/>
</g>
</g>
</svg>
