<svg width="17" height="336" viewBox="0 0 17 336" fill="none" xmlns="http://www.w3.org/2000/svg">
<g opacity="0.04">
<mask id="mask0_1230_10753" style="mask-type:alpha" maskUnits="userSpaceOnUse" x="0" y="0" width="17" height="336">
<rect width="16.8" height="336" fill="#C4C4C4"/>
</mask>
<g mask="url(#mask0_1230_10753)">
<path fill-rule="evenodd" clip-rule="evenodd" d="M0.0937033 6.61292C6.47659 6.61292 11.6509 11.7682 11.6509 18.1276C11.6509 22.5555 9.37001 26.3813 5.69154 28.3079C8.2977 26.503 10.218 23.638 10.218 20.0889C10.218 14.4183 5.63343 9.94856 0.0937033 9.94856C-1.31939 9.94856 -2.51771 10.1461 -3.85691 10.7091C-4.25174 10.8751 -5.19074 11.5924 -4.84791 13.044C-4.50508 14.4957 -3.20823 14.5983 -2.62485 14.4183C-1.74098 14.1457 -0.829826 14.0047 0.107107 14.0047C4.3525 14.0047 7.79408 17.4336 7.79408 21.6633C7.79408 25.8931 4.19179 29.362 -0.053606 29.362C-5.95944 29.362 -8.45035 27.0537 -8.45035 27.0537C-8.45035 27.0537 -6.62905 30.8697 -0.053606 30.8697C7.97862 30.8697 14.49 24.3823 14.49 16.3797C14.49 8.37706 7.97862 1.88965 -0.053606 1.88965C-5.61727 1.88965 -10.3168 4.84212 -12.7625 9.41486C-13.07 10.0953 -13.1054 10.9946 -12.2269 11.6564C-11.3484 12.3182 -9.86883 12.1367 -9.54848 11.6564C-7.47822 8.55223 -3.92744 6.61292 0.0937033 6.61292ZM-10.3653 16.5931C-10.3653 17.7279 -11.2886 18.6479 -12.4276 18.6479C-13.5666 18.6479 -14.49 17.7279 -14.49 16.5931C-14.49 15.4583 -13.5666 14.5384 -12.4276 14.5384C-11.2886 14.5384 -10.3653 15.4583 -10.3653 16.5931ZM-5.1692 23.2777C-5.1692 26.1295 -2.84884 28.4413 0.0134773 28.4413C1.95108 28.4413 3.55931 27.4673 4.4596 25.9062C4.51346 25.8128 4.4596 25.586 4.25872 25.8128C3.4552 26.7201 2.15641 27.6941 0.321492 27.6941C-1.47578 27.6941 -3.48182 26.2159 -3.48182 24.4252C-3.48182 22.6346 -2.2659 21.3564 -0.468632 21.3564C0.535763 21.3564 0.945195 22.0885 1.32589 23.4645C1.90174 25.546 5.99967 24.4252 4.7216 21.1162C4.00136 19.2515 2.10119 18.1142 0.0134773 18.1142C-2.84884 18.1142 -5.1692 20.426 -5.1692 23.2777ZM-9.80281 24.3852C-8.98923 24.3852 -8.3297 23.7281 -8.3297 22.9175C-8.3297 22.1069 -8.98923 21.4498 -9.80281 21.4498C-10.6164 21.4498 -11.2759 22.1069 -11.2759 22.9175C-11.2759 23.7281 -10.6164 24.3852 -9.80281 24.3852Z" fill="#009DFE"/>
</g>
</g>
</svg>
