<svg width="61" height="57" viewBox="0 0 61 57" fill="none" xmlns="http://www.w3.org/2000/svg">
<g id="Group 45">
<ellipse id="Ellipse 36" cx="44.5494" cy="8.92176" rx="8.41194" ry="8.92176" fill="#D3BC8E"/>
<ellipse id="Ellipse 37" cx="15.5493" cy="8.92176" rx="8.41194" ry="8.92176" fill="#D3BC8E"/>
<path id="Vector 87" d="M29 36.0997V39.337C29 39.337 37.5994 43.2371 45.5015 43.2371C53.4036 43.2371 60.6085 39.337 60.6085 39.337V36.0997C60.6085 27.3712 53.5327 20.2954 44.8043 20.2954C36.0758 20.2954 29 27.3712 29 36.0997Z" fill="#D3BC8E"/>
<path id="Vector 88" d="M0 36.0997V39.337C0 39.337 8.59937 43.2371 16.5015 43.2371C24.4036 43.2371 31.6085 39.337 31.6085 39.337V36.0997C31.6085 27.3712 24.5327 20.2954 15.8043 20.2954C7.0758 20.2954 0 27.3712 0 36.0997Z" fill="#D3BC8E"/>
<circle id="Ellipse 35" cx="29.3536" cy="15.8042" r="10.6865" fill="#EDE4D8" stroke="#606A7B" stroke-width="2"/>
<path id="Vector 86" d="M11.2748 50.6666V51.3076L11.8573 51.5753L12.2748 50.6666C11.8573 51.5753 11.8575 51.5753 11.8577 51.5755L11.8583 51.5757L11.8602 51.5766L11.8666 51.5795L11.8897 51.59C11.9095 51.599 11.9383 51.6119 11.9756 51.6286C12.0504 51.6619 12.1597 51.7101 12.301 51.7711C12.5837 51.8929 12.9946 52.0658 13.5137 52.2727C14.5516 52.6862 16.025 53.2367 17.7736 53.7871C21.2566 54.8836 25.8927 56 30.3732 56C34.862 56 39.1235 54.8803 42.2416 53.7759C43.8054 53.2221 45.0932 52.6679 45.9927 52.2509C46.4426 52.0423 46.7961 51.8677 47.039 51.7441C47.1605 51.6824 47.2544 51.6333 47.3189 51.5992C47.3512 51.5821 47.3762 51.5687 47.3936 51.5593L47.414 51.5483L47.42 51.5451L47.4219 51.544L47.4225 51.5437C47.4228 51.5435 47.423 51.5434 46.9422 50.6666L47.423 51.5434L47.9422 51.2587V50.6666V46.843C47.9422 36.7176 39.7339 28.5093 29.6085 28.5093C19.4831 28.5093 11.2748 36.7176 11.2748 46.843V50.6666Z" fill="#EDE4D8" stroke="#606A7B" stroke-width="2"/>
</g>
</svg>
