<svg width="63" height="58" viewBox="0 0 63 58" fill="none" xmlns="http://www.w3.org/2000/svg">
<path fill-rule="evenodd" clip-rule="evenodd" d="M26 10.6143C26 10.5552 26.0004 10.4962 26.0012 10.4373L0 12.3509L2.52206 57.5L52 54.2435L62.1498 42.5L59.1176 8L50.8422 8.60905C50.946 9.26223 51 9.93201 51 10.6143C51 14.1406 48.221 19.1551 45.5 23.228C44.4415 24.807 43.3082 26.1066 42.1361 27.4505L42.1361 27.4506C41.5588 28.1125 40.9722 28.7851 40.3805 29.5072C40.146 29.8024 39.8513 30.0406 39.5174 30.2048C39.1834 30.3691 38.8185 30.4554 38.4485 30.4575H38.4445C38.0721 30.455 37.7047 30.368 37.3687 30.2025C37.0326 30.037 36.736 29.7971 36.5 29.5C35.9992 28.8887 35.511 28.313 35.0329 27.7493C33.8012 26.297 32.637 24.9242 31.5 23.2285C28.779 19.1551 26 14.1406 26 10.6143ZM19.5078 30C19.3309 31.0794 18.623 34.1206 16.5 36.0635C14.377 38.0063 12.0615 38.6349 11 38.9048C12.3269 38.9947 15.0139 40.4889 16.5 42C17.9861 43.5111 19.0655 45.6508 19.5078 47C19.5544 46.8341 19.6016 46.6483 19.6529 46.4467C19.9906 45.1176 20.5025 43.1027 22.1616 41.6032C24.0724 39.8762 27.1154 38.9048 28 38.9048C27.0269 38.6349 23.8601 37.6095 22.1616 35.6667C20.8581 34.1756 20.2528 32.2712 19.8418 30.9783C19.7173 30.5866 19.6107 30.251 19.5078 30Z" fill="#ECE5D8"/>
<path d="M33.8334 10.703C33.8334 8.07931 35.9262 5.94606 38.5 5.94606C41.0738 5.94606 43.1666 8.07931 43.1666 10.703C43.1666 13.3263 41.0738 15.4599 38.5 15.4599C35.9262 15.4599 33.8334 13.3263 33.8334 10.703ZM38.5118 0H38.4882C32.7048 0.006125 28 4.8055 28 10.703C28 13.6951 30.3344 17.9498 32.62 21.406C33.9458 23.4033 35.3634 25.3327 36.8679 27.1876C37.0661 27.4397 37.3152 27.6432 37.5976 27.7836C37.8799 27.924 38.1884 27.9979 38.5013 28H38.5046C38.8154 27.9982 39.122 27.925 39.4025 27.7856C39.683 27.6462 39.9305 27.4441 40.1275 27.1937C41.6338 25.3369 43.0529 23.4052 44.38 21.4056C46.6656 17.9497 49 13.6951 49 10.703C49 4.8055 44.2947 0.006125 38.5118 0Z" fill="#D3BC8E"/>
</svg>
