<svg width="47" height="48" viewBox="0 0 47 48" fill="none" xmlns="http://www.w3.org/2000/svg">
<path fill-rule="evenodd" clip-rule="evenodd" d="M9 0V44.6792L21.9906 38.4481C22.532 38.1884 23.1615 38.1857 23.7052 38.4408L37 44.6792V0H9ZM25.2657 18.4189C24.6391 19.8891 24.1344 22.4009 23.9603 23.4729H23.1771H22.3939C22.2199 22.4009 21.7151 19.8891 21.0886 18.4189C20.8538 17.868 20.5722 17.3585 20.2928 16.8531L20.2928 16.853C19.6401 15.6722 19 14.5141 19 12.9053C19 10.608 21.0886 8.99993 23.1771 8.99993C25.2657 8.99993 27.3542 10.608 27.3542 12.9053C27.3542 14.5141 26.7141 15.6722 26.0614 16.853C25.7821 17.3585 25.5004 17.868 25.2657 18.4189ZM26 28.9999C26 30.6568 24.6569 31.9999 23 31.9999C21.3431 31.9999 20 30.6568 20 28.9999C20 27.3431 21.3431 25.9999 23 25.9999C24.6569 25.9999 26 27.3431 26 28.9999Z" fill="#ECE5D8"/>
<path d="M6.07698 0H7V45.283L2.8 48L3.36 6.9434H2.84377C2.51032 6.9434 2.24 7.21372 2.24 7.54717C2.24 7.88062 1.96968 8.15094 1.63623 8.15094H1.12C0.501441 8.15094 0 7.6495 0 7.03094V2.62943C0 2.01088 0.501441 1.50943 1.12 1.50943H1.63623C1.96968 1.50943 2.24 1.77975 2.24 2.11321C2.24 2.44666 2.51032 2.71698 2.84377 2.71698H3.36C3.36 1.21643 4.57643 0 6.07698 0Z" fill="#D3BC8E"/>
<path d="M40.443 0H39V45.283L43.8 48L43.16 6.9434H43.8362C44.1697 6.9434 44.44 7.21372 44.44 7.54717C44.44 7.88062 44.7103 8.15094 45.0438 8.15094H45.72C46.4269 8.15094 47 7.57787 47 6.87094V2.78943C47 2.08251 46.4269 1.50943 45.72 1.50943H45.0438C44.7103 1.50943 44.44 1.77975 44.44 2.11321C44.44 2.44666 44.1697 2.71698 43.8362 2.71698H43.16C43.16 1.21643 41.9436 0 40.443 0Z" fill="#D3BC8E"/>
</svg>
