<svg width="48" height="59" viewBox="0 0 48 59" fill="none" xmlns="http://www.w3.org/2000/svg">
<g id="&#230;&#175;&#143;&#230;&#151;&#165;&#231;&#173;&#190;&#229;&#136;&#176;">
<path id="Intersect" fill-rule="evenodd" clip-rule="evenodd" d="M12.3692 48.7003V3.49072H24H35.9832V48.5184C35.41 48.8185 34.8271 49.1012 34.2462 49.383L34.2461 49.3831C33.7486 49.6245 33.2525 49.8651 32.7652 50.1153C29.2363 51.9271 25.2522 56.1267 24 58.4725C22.7478 56.1267 18.7636 51.9271 15.2348 50.1153C14.7475 49.8651 14.2514 49.6244 13.7539 49.3831L13.7538 49.383C13.2916 49.1588 12.8281 48.9339 12.3692 48.7003ZM21.5 24.0632C23.623 22.1204 24.3309 19.0791 24.5078 17.9998C24.6106 18.2507 24.7173 18.5863 24.8418 18.9781C25.2528 20.271 25.8581 22.1753 27.1616 23.6664C28.86 25.6093 32.0269 26.6347 33 26.9045C32.1154 26.9045 29.0723 27.8759 27.1616 29.6029C25.5025 31.1024 24.9905 33.1173 24.6528 34.4464L24.6528 34.4466C24.6016 34.6481 24.5544 34.8339 24.5078 34.9998C24.0655 33.6505 22.9861 31.5109 21.5 29.9998C20.0138 28.4886 17.3269 26.9945 16 26.9045C17.0615 26.6347 19.3769 26.0061 21.5 24.0632Z" fill="#ECE5D8"/>
<path id="Subtract" fill-rule="evenodd" clip-rule="evenodd" d="M10.1203 3.49072H5.23639L5.23639 36.9197C5.23639 42.7955 7.3806 45.5675 10.1203 47.407V3.49072ZM38.2322 47.1626C40.8011 45.3216 42.7637 42.5411 42.7637 36.9197V3.49072H38.2322V47.1626Z" fill="#D3BC8E"/>
<rect id="Rectangle 53" x="44.5091" width="3.49091" height="12.2182" rx="1.74545" fill="#ECE5D8"/>
<rect id="Rectangle 54" width="3.49091" height="12.2182" rx="1.74545" fill="#ECE5D8"/>
</g>
</svg>
