<svg width="51" height="52" viewBox="0 0 51 52" fill="none" xmlns="http://www.w3.org/2000/svg">
<g id="Group 2">
<path id="Subtract" fill-rule="evenodd" clip-rule="evenodd" d="M4 0C1.79086 0 0 1.79086 0 4V47H25.3091C23.8465 44.6846 23 41.9412 23 39C23 30.7157 29.7157 24 38 24C41.3768 24 44.493 25.1158 47 26.9989V0H4Z" fill="#ECE5D8"/>
<circle id="Ellipse 25" cx="38" cy="39" r="13" fill="#D3BC8E"/>
<rect id="Rectangle 57" x="33" y="35" width="10" height="2" rx="1" fill="#4F5B6E"/>
<rect id="Rectangle 58" x="33" y="41" width="10" height="2" rx="1" fill="#4F5B6E"/>
<path id="Union" fill-rule="evenodd" clip-rule="evenodd" d="M11.9571 18C11.9571 18.5523 12.4049 19 12.9571 19C13.5094 19 13.9571 18.5523 13.9571 18V15.0858H17C17.5523 15.0858 18 14.638 18 14.0858C18 13.5335 17.5523 13.0858 17 13.0858H13.9571V10C13.9571 9.44772 13.5094 9 12.9571 9C12.4049 9 11.9571 9.44772 11.9571 10L11.9571 13.0858H9C8.44771 13.0858 8 13.5335 8 14.0858C8 14.638 8.44771 15.0858 9 15.0858H11.9571L11.9571 18Z" fill="#4F5B6E"/>
<path id="Union_2" fill-rule="evenodd" clip-rule="evenodd" d="M30.0355 16.6823C29.6422 17.0757 29.6422 17.7133 30.0355 18.1067C30.4288 18.5 31.0665 18.5 31.4598 18.1067L34.0711 15.4954L36.6823 18.1067C37.0756 18.5 37.7133 18.5 38.1066 18.1067C38.5 17.7134 38.5 17.0757 38.1066 16.6824L35.4954 14.0711L38.1066 11.4599C38.5 11.0665 38.5 10.4289 38.1066 10.0355C37.7133 9.64222 37.0756 9.64222 36.6823 10.0355L34.0711 12.6468L31.4598 10.0356C31.0665 9.64227 30.4288 9.64227 30.0355 10.0356C29.6422 10.4289 29.6422 11.0666 30.0355 11.4599L32.6467 14.0711L30.0355 16.6823Z" fill="#4F5B6E"/>
<rect id="Rectangle 56" x="8" y="35" width="10" height="2" rx="1" fill="#4F5B6E"/>
</g>
</svg>
