<svg width="54" height="51" viewBox="0 0 54 51" fill="none" xmlns="http://www.w3.org/2000/svg">
<g id="&#232;&#174;&#190;&#231;&#189;&#174;">
<path id="Subtract" fill-rule="evenodd" clip-rule="evenodd" d="M36.6151 1.18831e-05C34.1668 2.48392 30.7632 4.02371 27 4.02371C23.2368 4.02371 19.8332 2.48392 17.3849 0C14.6704 1.03477 12.1659 2.49489 9.95271 4.2989C10.8773 7.65932 10.5082 11.3739 8.6279 14.6308C6.74697 17.8886 3.7132 20.0659 0.339398 20.9449C0.116038 22.3429 0 23.7768 0 25.2378C0 26.6989 0.116069 28.133 0.339489 29.5312C3.71327 30.4102 6.74701 32.5875 8.62793 35.8453C10.5082 39.102 10.8773 42.8164 9.95286 46.1767C12.1661 47.9808 14.6707 49.4409 17.3853 50.4757C19.8336 47.992 23.237 46.4524 27 46.4524C30.763 46.4524 34.1665 47.992 36.6147 50.4757C39.3293 49.4409 41.8339 47.9808 44.0472 46.1767C43.1228 42.8164 43.4919 39.102 45.3721 35.8454C47.253 32.5875 50.2867 30.4103 53.6605 29.5313C53.8839 28.133 54 26.699 54 25.2378C54 23.7768 53.884 22.3429 53.6606 20.9448C50.2868 20.0658 47.2531 17.8885 45.3721 14.6307C43.4918 11.3739 43.1227 7.65931 44.0473 4.29892C41.8342 2.49491 39.3296 1.03478 36.6151 1.18831e-05ZM42.4286 25.2377C42.4286 33.7586 35.521 40.6662 27 40.6662C18.479 40.6662 11.5714 33.7586 11.5714 25.2377C11.5714 16.7167 18.479 9.80911 27 9.80911C35.521 9.80911 42.4286 16.7167 42.4286 25.2377Z" fill="#ECE5D8"/>
<circle id="Ellipse 13" cx="27" cy="25.2379" r="9.57143" stroke="#D3BC8E" stroke-width="4"/>
</g>
</svg>
