<svg width="57" height="49" viewBox="0 0 57 49" fill="none" xmlns="http://www.w3.org/2000/svg">
<path d="M57 13.6514C57 11.0825 54.9175 9 52.3486 9C49.7796 9 47.6971 11.0825 47.6971 13.6514V19.1514C47.6971 29.0089 39.706 37 29.8486 37H16.4591C13.9964 37 12 38.9964 12 41.4591C12 42.1979 12.5989 42.7968 13.3377 42.7968H39.7698C40.6987 42.7968 41.5972 43.122 42.3363 43.6847C43.6499 44.6846 45.8715 46.2743 47.6971 47.0749C48.9607 47.6289 50.6084 48.0567 52.0967 48.3666C53.108 48.5773 53.6448 47.2913 52.8705 46.6076C52.5431 46.3186 52.2482 46.0387 52.024 45.7914C51.7258 45.4626 51.462 45.0916 51.2358 44.7255C50.6845 43.8332 51.3945 42.7968 52.4434 42.7968C54.9599 42.7968 57 40.7567 57 38.2402V13.6514Z" fill="#D3BC8E"/>
<path fill-rule="evenodd" clip-rule="evenodd" d="M6 0C2.68629 0 0 2.68629 0 6V34.2951C0 37.1983 2.35354 39.5519 5.25679 39.5519C6.46316 39.5519 7.28289 40.7409 6.65992 41.774C6.39475 42.2137 6.08368 42.6611 5.73086 43.0565C5.36287 43.4688 4.82944 43.959 4.25796 44.4469C3.47466 45.1156 4.01501 46.3979 5.02524 46.1976C6.88852 45.8281 9.08028 45.2865 10.7142 44.5585C12.8965 43.5861 15.5699 41.619 17.0557 40.461C17.7969 39.8834 18.7043 39.5519 19.644 39.5519H45.8269C49.1406 39.5519 51.8269 36.8656 51.8269 33.5519V6C51.8269 2.68629 49.1406 0 45.8269 0H6ZM25.5059 9.19509C25.271 10.6281 24.3312 14.6658 21.5126 17.2452C18.694 19.8246 15.6199 20.6591 14.2106 21.0174C15.9723 21.1368 19.5396 22.5937 21.5126 24.5999C23.4857 26.6061 24.9187 29.9736 25.5059 31.7649C25.5678 31.5447 25.6304 31.2979 25.6985 31.0303C26.1468 29.2657 26.8265 26.5907 29.0292 24.5999C31.5659 22.3071 35.606 21.0174 36.7804 21.0174C35.4885 20.6591 31.2841 19.2978 29.0292 16.7184C27.2986 14.7387 26.495 12.2105 25.9493 10.4939C25.784 9.97386 25.6424 9.5283 25.5059 9.19509Z" fill="#ECE5D8"/>
</svg>
