<svg width="660" height="758" viewBox="0 0 660 758" fill="none" xmlns="http://www.w3.org/2000/svg">
<g opacity="0.2" filter="url(#filter0_d_601_9361)">
<path fill-rule="evenodd" clip-rule="evenodd" d="M330.11 5.69103C318.916 30.0441 297.538 73.3491 283.791 98.9075C267.567 129.071 252.44 152.047 241.967 167.955L241.966 167.955C237.899 174.133 234.534 179.245 232.079 183.297C232.079 183.297 248.259 179.49 261.266 173.145C270.572 181.394 287.387 206.881 300.288 236.279C316.529 273.286 322.715 307.611 327.472 334.006C328.384 339.065 329.243 343.831 330.11 348.27C330.977 343.836 331.835 339.074 332.746 334.022L332.748 334.011L332.748 334.007L332.748 334.006L332.749 334.006C337.506 307.611 343.692 273.286 359.932 236.279C372.833 206.881 389.649 181.394 398.955 173.145C411.962 179.49 428.142 183.297 428.142 183.297C425.687 179.245 422.321 174.133 418.254 167.955L418.254 167.954C407.78 152.047 392.654 129.07 376.43 98.9075C362.682 73.3491 341.305 30.0441 330.11 5.69103ZM330.112 120.798C321.863 133.171 305.176 147.828 296.8 154.427C325.67 213.754 329.795 265.466 329.795 265.466C329.795 265.466 334.236 213.754 363.106 154.427C354.731 147.828 338.36 133.171 330.112 120.798ZM10.7571 557.504C37.4449 555.022 85.6367 551.883 114.645 551.009C148.879 549.978 176.34 551.591 195.353 552.707L195.358 552.707C202.74 553.14 208.848 553.499 213.585 553.599C213.585 553.599 202.198 541.49 190.199 533.398C192.689 521.214 206.355 493.908 225.363 468.037C249.292 435.469 275.925 412.948 296.406 395.631L296.408 395.629C300.332 392.311 304.03 389.184 307.439 386.214C303.165 387.682 298.61 389.32 293.778 391.058L293.771 391.06L293.767 391.062L293.767 391.062C268.53 400.139 235.71 411.945 195.541 416.383C163.631 419.91 133.151 418.091 121.355 414.156C120.346 399.719 115.553 383.803 115.553 383.803C113.271 387.956 110.526 393.426 107.21 400.038C98.6698 417.062 86.3353 441.65 68.3253 470.782C53.0647 495.467 26.2501 535.633 10.7571 557.504ZM110.443 499.951C125.283 500.908 146.32 508.031 156.223 511.985C193.166 457.319 235.889 427.891 235.889 427.891C235.889 427.891 188.883 449.901 123.07 454.562C121.543 465.115 117.034 486.621 110.443 499.951ZM68.3264 277.218C53.0658 252.533 26.2511 212.368 10.7581 190.496C37.4459 192.978 85.6377 196.117 114.646 196.991C148.88 198.022 176.341 196.41 195.354 195.293C202.738 194.86 208.848 194.501 213.586 194.401C213.586 194.401 202.199 206.51 190.2 214.602C192.69 226.786 206.356 254.092 225.364 279.964C249.293 312.531 275.926 335.052 296.406 352.369L296.407 352.369L296.408 352.371C300.332 355.689 304.03 358.816 307.44 361.786C303.163 360.318 298.606 358.678 293.77 356.939L293.769 356.938C268.531 347.861 235.711 336.056 195.542 331.617C163.632 328.091 133.152 329.909 121.356 333.844C120.347 348.282 115.554 364.197 115.554 364.197C113.272 360.045 110.528 354.575 107.211 347.963L107.211 347.962C98.6709 330.938 86.3364 306.35 68.3264 277.218ZM122.912 293.713C121.385 283.16 117.035 261.38 110.444 248.05C125.284 247.093 146.163 240.244 156.065 236.29C193.009 290.956 235.572 320.659 235.572 320.659C235.572 320.659 188.726 298.374 122.912 293.713ZM330.112 742.309C341.307 717.956 362.684 674.651 376.431 649.092C392.655 618.93 407.781 595.954 418.255 580.046L418.255 580.045C422.323 573.867 425.688 568.755 428.144 564.703C428.144 564.703 411.964 568.51 398.956 574.855C389.65 566.606 372.835 541.119 359.934 511.721C343.694 474.714 337.507 440.389 332.75 413.994C331.838 408.935 330.979 404.169 330.112 399.73C329.245 404.164 328.387 408.926 327.477 413.978L327.475 413.989L327.474 413.993L327.474 413.994L327.474 413.994C322.717 440.389 316.53 474.714 300.29 511.721C287.389 541.119 270.574 566.606 261.267 574.855C248.26 568.51 232.08 564.703 232.08 564.703C234.535 568.755 237.9 573.866 241.966 580.042L241.968 580.044L241.968 580.045L241.969 580.046L241.97 580.048L241.971 580.049L241.972 580.051C252.445 595.959 267.57 618.933 283.793 649.092C297.54 674.651 318.917 717.956 330.112 742.309ZM330.112 627.202C338.361 614.829 355.048 600.172 363.424 593.573C334.553 534.246 330.429 482.534 330.429 482.534C330.429 482.534 325.988 534.246 297.117 593.573C305.493 600.172 321.863 614.829 330.112 627.202ZM545.576 196.991C574.584 196.117 622.775 192.978 649.463 190.496C633.97 212.368 607.155 252.534 591.895 277.218C573.885 306.35 561.55 330.939 553.01 347.963C549.694 354.574 546.949 360.045 544.667 364.198C544.667 364.198 539.874 348.282 538.866 333.844C527.069 329.909 496.589 328.091 464.679 331.617C424.51 336.056 391.69 347.861 366.453 356.939L366.452 356.939C361.616 358.679 357.058 360.318 352.781 361.786C356.191 358.816 359.888 355.689 363.812 352.371L363.815 352.369C384.295 335.052 410.928 312.532 434.857 279.964C453.866 254.092 467.531 226.786 470.021 214.602C458.023 206.51 446.636 194.401 446.636 194.401C451.371 194.501 457.478 194.86 464.858 195.293L464.862 195.293L464.864 195.293L464.867 195.294C483.88 196.41 511.341 198.022 545.576 196.991ZM503.999 236.016C513.901 239.97 534.939 247.093 549.778 248.05C543.187 261.38 538.679 282.886 537.152 293.439C471.338 298.1 424.333 320.109 424.333 320.109C424.333 320.109 467.055 290.681 503.999 236.016ZM649.466 557.504C633.973 535.632 607.158 495.467 591.897 470.782C573.889 441.652 561.555 417.066 553.015 400.042L553.014 400.039L553.013 400.038C549.696 393.426 546.952 387.955 544.67 383.803C544.67 383.803 539.877 399.718 538.868 414.156C527.072 418.091 496.591 419.909 464.682 416.383C424.513 411.944 391.693 400.139 366.455 391.062C361.619 389.322 357.061 387.683 352.783 386.214C356.187 389.179 359.878 392.3 363.794 395.611L363.807 395.623L363.817 395.631L363.817 395.631C384.297 412.948 410.931 435.469 434.86 468.036C453.868 493.908 467.533 521.214 470.024 533.398C458.025 541.49 446.638 553.599 446.638 553.599C451.375 553.499 457.483 553.14 464.865 552.707L464.87 552.707C483.883 551.59 511.344 549.978 545.578 551.009C574.586 551.883 622.778 555.022 649.466 557.504ZM549.779 499.951C543.188 486.621 538.839 464.84 537.312 454.287C471.498 449.626 424.651 427.342 424.651 427.342C424.651 427.342 467.215 457.044 504.158 511.71C514.061 507.756 534.94 500.908 549.779 499.951ZM273.004 277.205L268.563 319.082L326.938 372.699L252.7 350.491L218.754 374.285L252.7 400.617L326.938 375.554L268.563 430.439L273.004 472.951L312.661 454.868L329.476 376.823L347.242 454.868L387.216 472.951L391.658 430.439L332.331 375.554L405.934 400.617L442.736 374.285L405.934 350.491L332.331 372.699L387.216 319.082V277.205L347.242 294.654L329.476 369.843L312.661 294.654L273.004 277.205Z" fill="#87E7EB"/>
</g>
<defs>
<filter id="filter0_d_601_9361" x="0.75708" y="0.690918" width="658.708" height="756.618" filterUnits="userSpaceOnUse" color-interpolation-filters="sRGB">
<feFlood flood-opacity="0" result="BackgroundImageFix"/>
<feColorMatrix in="SourceAlpha" type="matrix" values="0 0 0 0 0 0 0 0 0 0 0 0 0 0 0 0 0 0 127 0" result="hardAlpha"/>
<feOffset dy="5"/>
<feGaussianBlur stdDeviation="5"/>
<feComposite in2="hardAlpha" operator="out"/>
<feColorMatrix type="matrix" values="0 0 0 0 0 0 0 0 0 0 0 0 0 0 0 0 0 0 0.1 0"/>
<feBlend mode="normal" in2="BackgroundImageFix" result="effect1_dropShadow_601_9361"/>
<feBlend mode="normal" in="SourceGraphic" in2="effect1_dropShadow_601_9361" result="shape"/>
</filter>
</defs>
</svg>
