<svg width="590" height="627" viewBox="0 0 590 627" fill="none" xmlns="http://www.w3.org/2000/svg">
<g opacity="0.1">
<path fill-rule="evenodd" clip-rule="evenodd" d="M590 313.781C575.009 288.802 532.49 224.754 476.722 161.662C420.955 98.5687 331.869 26.6629 294.579 0C268.156 19.5528 207.386 66.7416 175.679 99.0739C143.973 131.406 103.628 174.666 87.4182 192.254C91.6345 207.035 102.428 242.549 111.873 266.349C121.317 290.149 134.547 315.371 139.981 325.007C153.099 310.319 186.313 277.526 208.285 257.087C236.912 230.458 265.326 215.524 285.926 204.698C288.991 203.087 291.884 201.567 294.579 200.112C303.011 207.129 322.8 225.035 334.493 240.528C346.186 256.02 355.668 274.862 358.947 282.346C350.796 290.579 331.401 309.964 319.033 321.639C306.665 333.315 291.206 347.273 285.022 352.793C287.083 355.974 292.555 363.907 297.952 370.194C303.349 376.481 308.82 381.794 310.882 383.666C320.532 376.93 345.624 358.574 368.785 339.04C391.947 319.506 412.541 299.467 419.943 291.889C413.384 277.482 392.902 239.686 363.445 203.761C333.987 167.836 305.26 137.15 294.579 126.298L161.344 238.282C165.373 219.852 181.919 171.653 215.875 126.298C249.83 80.9431 282.492 45.6544 294.579 33.6795C315.847 56.0389 371.709 121.358 425.003 203.761C478.296 286.163 514.107 371.129 525.35 403.312L590 313.781ZM0 313.219C14.9913 338.198 57.5102 402.246 113.278 465.338C169.045 528.431 258.131 600.337 295.421 627C321.843 607.447 382.614 560.259 414.321 527.926C446.027 495.594 486.372 452.334 502.582 434.746C498.365 419.965 487.572 384.452 478.127 360.651C468.683 336.851 455.453 311.629 450.019 301.993C436.901 316.681 403.687 349.474 381.715 369.913C353.088 396.542 324.674 411.476 304.074 422.302C301.008 423.913 298.116 425.433 295.421 426.888C286.989 419.871 267.2 401.965 255.507 386.472C243.814 370.98 234.332 352.138 231.053 344.654C239.204 336.421 258.599 317.036 270.967 305.361C283.335 293.685 298.794 279.727 304.978 274.207C302.917 271.026 297.445 263.093 292.048 256.806C286.651 250.519 281.18 245.206 279.118 243.334C269.468 250.07 244.376 268.426 221.215 287.96C198.053 307.494 177.459 327.533 170.057 335.111C176.616 349.518 197.098 387.314 226.555 423.239C256.013 459.164 284.74 489.85 295.421 500.702L428.656 388.718C424.627 407.148 408.081 455.347 374.125 500.702C340.17 546.057 307.508 581.346 295.421 593.321C274.153 570.961 218.291 505.642 164.997 423.239C111.704 340.837 75.8932 255.871 64.6498 223.688L0 313.219Z" fill="#E6B639"/>
</g>
</svg>
