<svg width="573" height="573" viewBox="0 0 573 573" fill="none" xmlns="http://www.w3.org/2000/svg">
<g opacity="0.06">
<path fill-rule="evenodd" clip-rule="evenodd" d="M288.352 93.3895C414.556 93.3895 516.865 195.321 516.865 321.059C516.865 408.609 471.766 484.255 399.034 522.348C450.564 486.661 488.533 430.014 488.533 359.84C488.533 247.72 397.885 159.343 288.352 159.343C260.412 159.343 236.719 163.249 210.24 174.38C202.433 177.662 183.867 191.844 190.645 220.547C197.424 249.25 223.066 251.278 234.6 247.72C252.076 242.329 270.092 239.541 288.617 239.541C372.558 239.541 440.606 307.338 440.606 390.97C440.606 474.601 369.381 543.189 285.44 543.189C168.668 543.189 119.417 497.55 119.417 497.55C119.417 497.55 155.428 573 285.44 573C444.255 573 573 444.73 573 286.5C573 128.27 444.255 0 285.44 0C175.433 0 82.5139 58.3769 34.1553 148.79C28.0766 162.244 27.3769 180.025 44.747 193.11C62.1171 206.196 91.3706 202.608 97.7046 193.11C138.638 131.734 208.845 93.3895 288.352 93.3895ZM81.5549 290.72C81.5549 313.158 63.2982 331.348 40.7774 331.348C18.2567 331.348 0 313.158 0 290.72C0 268.283 18.2567 250.093 40.7774 250.093C63.2982 250.093 81.5549 268.283 81.5549 290.72ZM184.293 422.89C184.293 479.276 230.172 524.986 286.766 524.986C325.077 524.986 356.875 505.727 374.676 474.861C375.741 473.015 374.676 468.53 370.704 473.015C354.817 490.954 329.137 510.212 292.856 510.212C257.32 510.212 217.656 480.983 217.656 445.578C217.656 410.173 241.698 384.901 277.234 384.901C297.093 384.901 305.188 399.377 312.715 426.584C324.101 467.738 405.126 445.578 379.856 380.153C365.615 343.283 328.045 320.795 286.766 320.795C230.172 320.795 184.293 366.505 184.293 422.89ZM92.676 444.787C108.762 444.787 121.803 431.794 121.803 415.767C121.803 399.741 108.762 386.748 92.676 386.748C76.5897 386.748 63.5493 399.741 63.5493 415.767C63.5493 431.794 76.5897 444.787 92.676 444.787Z" fill="#009DFE"/>
</g>
</svg>
