<svg width="648" height="782" viewBox="0 0 648 782" fill="none" xmlns="http://www.w3.org/2000/svg">
<g opacity="0.06">
<g filter="url(#filter0_d_601_9278)">
<path d="M292.266 87.5223C312.041 52.9162 316.317 18.0882 315.983 5C339.032 32.5074 386.132 91.5818 386.132 126.454C386.132 183.275 303.289 197.663 303.289 266.542C303.289 303.81 329.79 325.661 344.043 334.756C336.248 324.996 320.66 300.15 320.66 278.854C320.66 228.3 378.338 185.472 407.177 170.377C401.052 185.018 388.804 212.969 388.804 260.886C388.804 308.802 441.806 369.584 468.306 393.653C462.182 380.787 464.259 370.693 442.251 344.073C432.898 332.76 422.543 314.592 422.543 283.18C422.543 251.768 447.93 219.292 460.623 206.98L460.864 207.857C468.655 236.213 485.498 297.525 532.443 332.76C591.568 377.138 638 440.238 638 494.81C638 531.412 597.581 601.955 508.057 641.886C418.534 681.816 360.633 737.718 331.683 767C302.176 742.709 225.858 686.874 156.645 647.21C70.1277 597.63 10 558.032 10 511.447C10 427.594 83.1553 348.732 115.557 308.802C141.479 276.858 166.666 232.491 176.019 214.3C176.687 231.825 187.243 279.253 224.121 308.802C261 338.35 311.195 354.5 331.683 361.376C311.084 361.376 260.732 367.832 224.121 393.653C178.357 425.93 156.645 465.528 156.645 511.447C156.645 548.183 183.368 587.093 196.73 601.955C156.645 580.992 84.4915 539.731 84.4915 467.857C84.4915 431.121 113.219 387.886 128.251 372.024C101.862 386.333 49.083 429.59 49.083 488.155C49.083 561.36 128.251 592.638 196.73 626.246C241.575 648.255 304.96 690.8 331.683 708.103C337.473 699.008 402.834 654.512 460.623 626.246C572.194 571.675 608.27 532.743 608.27 479.17C608.27 436.312 559.277 397.314 536.117 384.669C543.021 392.1 559.5 425.597 559.5 488.155C559.5 583.321 422.543 641.886 349.053 641.886C311.974 641.886 196.73 626.246 196.73 550.379C196.73 489.685 260.421 488.044 292.266 494.81C279.572 506.567 254.185 516.106 254.185 558.032C254.185 585.983 268.883 626.246 349.053 626.246C429.223 626.246 489.017 563.356 489.017 511.447C489.017 481.167 476.323 404.301 376.445 366.368C276.566 328.434 214.434 300.064 214.434 225.947C214.434 172.374 267.547 130.78 292.266 87.5223Z" fill="#DD2B2C"/>
<path d="M359.074 577.332C372.325 557.256 385.13 505.396 346.715 474.179C326.338 457.62 287.352 452.816 230.134 468.522C246.022 434.182 262.536 416.91 297.277 406.298C344.38 391.909 405.373 407.562 432.898 468.522C453.943 543.391 391.365 573.783 359.074 577.332Z" fill="#DD2B2C"/>
</g>
</g>
<defs>
<filter id="filter0_d_601_9278" x="0" y="0" width="648" height="782" filterUnits="userSpaceOnUse" color-interpolation-filters="sRGB">
<feFlood flood-opacity="0" result="BackgroundImageFix"/>
<feColorMatrix in="SourceAlpha" type="matrix" values="0 0 0 0 0 0 0 0 0 0 0 0 0 0 0 0 0 0 127 0" result="hardAlpha"/>
<feOffset dy="5"/>
<feGaussianBlur stdDeviation="5"/>
<feComposite in2="hardAlpha" operator="out"/>
<feColorMatrix type="matrix" values="0 0 0 0 0 0 0 0 0 0 0 0 0 0 0 0 0 0 0.1 0"/>
<feBlend mode="normal" in2="BackgroundImageFix" result="effect1_dropShadow_601_9278"/>
<feBlend mode="normal" in="SourceGraphic" in2="effect1_dropShadow_601_9278" result="shape"/>
</filter>
</defs>
</svg>
