<svg width="591" height="578" viewBox="0 0 591 578" fill="none" xmlns="http://www.w3.org/2000/svg">
<g opacity="0.1">
<path d="M287.263 179.782C287.263 193.272 272.848 204.6 265.641 208.578C262.724 195.866 245.667 170.443 200.775 170.443C144.661 170.443 100.13 212.729 100.13 281.736C100.13 363.196 151.016 397.532 224.199 428.052C261.523 443.618 284.946 467.225 296.015 487.201C307.083 467.225 330.507 443.618 367.831 428.052C441.013 397.532 490.87 362.677 490.87 281.217C490.87 212.21 447.368 170.443 391.254 170.443C346.363 170.443 329.306 195.866 326.388 208.578C319.181 204.6 304.767 193.272 304.767 179.782C304.767 162.919 352.129 132.826 391.254 132.826C422.555 132.826 467.789 161.536 486.494 175.891C484.949 163.784 487.266 136.406 508.888 123.746C530.51 111.086 560.283 113.974 572.467 117.001C570.837 133.431 563.046 168.99 544.925 179.782C526.803 190.574 504.083 188.257 494.988 185.749C501.509 193.272 515.323 215.012 522.53 243.86C529.738 272.708 527.764 300.674 525.877 311.051C530.596 305.949 543.174 296.264 555.736 298.339C568.297 300.415 584.479 317.71 591 326.098C583.02 333.189 562.943 345.97 546.469 340.366C529.995 334.763 525.362 325.06 525.105 320.909C522.788 340.799 508.064 389.553 463.585 423.383C407.986 465.669 383.536 471.114 359.594 487.201C342.605 498.616 310.429 531.563 295.5 578C280.571 531.563 249.425 498.616 232.436 487.201C208.494 471.114 184.044 465.669 128.445 423.383C83.9652 389.553 68.2121 341.318 65.8955 321.428C65.6381 325.579 61.0048 335.282 44.5309 340.885C28.0571 346.489 7.97953 333.708 0 326.617C6.52091 318.229 22.703 300.934 35.2644 298.858C47.8257 296.783 60.4042 306.468 65.1233 311.57C63.2356 301.193 61.2622 273.227 68.4695 244.379C75.6768 215.531 90.5205 193.272 97.0414 185.749C87.9464 188.257 65.2262 190.574 47.105 179.782C28.9837 168.99 21.1929 133.431 19.5627 117.001C31.7465 113.974 61.5196 111.086 83.1415 123.746C104.764 136.406 107.08 163.784 105.536 175.891C124.24 161.536 169.475 132.826 200.775 132.826C239.901 132.826 287.263 162.919 287.263 179.782Z" fill="#8DE329"/>
<path d="M251.227 85.6104C251.227 51.7813 280.742 14.4414 295.5 0C310.344 13.2307 340.031 48.8758 340.031 85.6104C340.031 122.345 310.344 146.057 295.5 153.32C280.742 144.846 251.227 119.44 251.227 85.6104Z" fill="#8DE329"/>
<path d="M196.142 285.368C196.142 240.124 235.954 233.829 255.86 236.337C252.771 226.997 243.762 204.946 202.835 204.946C168.085 204.946 137.969 230.889 137.969 263.576C137.969 294.188 154.443 308.976 163.967 320.65C159.076 319.958 147.338 320.39 139.513 327.654C131.688 334.918 129.56 344.69 129.474 348.668C133.85 345.295 141.572 338.55 159.333 338.55C176.065 338.55 201.29 353.078 222.912 366.309C240.21 376.893 257.747 385.593 264.354 388.619C240.416 369.422 196.142 319.872 196.142 285.368Z" fill="#8DE329"/>
<path d="M395.63 285.368C395.63 240.124 355.818 233.829 335.912 236.337C339.001 226.997 348.01 204.946 388.938 204.946C423.687 204.946 453.804 230.889 453.804 263.576C453.804 294.188 437.33 308.976 427.806 320.65C432.696 319.958 444.434 320.39 452.259 327.654C460.084 334.918 462.212 344.69 462.298 348.668C457.922 345.295 450.2 338.55 432.439 338.55C415.708 338.55 390.482 353.078 368.86 366.309C351.563 376.893 334.025 385.593 327.418 388.619C351.357 369.422 395.63 319.872 395.63 285.368Z" fill="#8DE329"/>
</g>
</svg>
