<svg width="620" height="628" viewBox="0 0 620 628" fill="none" xmlns="http://www.w3.org/2000/svg">
<g opacity="0.08" filter="url(#filter0_d_601_9711)">
<path d="M10 300.532C10 183.551 87.6298 96.2047 127.409 67.2931C127.409 67.2931 75.0436 139.016 75.0436 196.005C118.865 143.464 180.602 117.888 222.494 117.888C264.387 117.888 308.484 143.186 322.54 157.642C301.87 161.256 263.009 166.538 263.009 214.353C263.009 269.118 320.611 293.304 353.133 293.304C385.655 293.304 460.069 271.064 460.069 170.986C460.069 90.9228 360.115 27.2616 310.413 5.02191C347.712 4.37325 440.446 17.8653 510.781 80.3589C581.116 142.853 605.59 234.091 610 271.064C602.834 254.107 585.746 218.245 565.903 195.171C545.663 171.637 532.554 162.924 526.766 159.866C532.278 171.82 538.617 202.121 538.617 245.767C538.617 337.394 470.266 383.746 434.713 395.329C437.836 387.082 444.084 370.587 444.084 352.239C444.084 333.892 420.381 304.424 383.45 304.424C346.518 304.424 289.467 340.285 289.467 405.337C289.467 462.882 337.147 521.817 415.971 521.817C473.298 521.817 542.568 481.044 571.966 460.658C534.759 528.211 444.084 613 312.343 613C255.016 613 210.919 597.062 196.036 589.092C205.039 590.019 228.006 592.706 262.182 590.482C296.357 588.258 324.745 576.953 331.36 571.856C307.841 567.131 247.795 546.392 207.887 504.581C167.979 462.771 168.842 398.387 174.263 373.089C186.941 389.491 202.375 407.561 228.833 407.561C258.599 407.561 289.467 373.089 289.467 333.614C289.467 279.126 255.933 227.975 174.263 227.975C81.107 227.975 37.2853 341.12 50.7901 460.658C40.8682 442.588 10 395.329 10 300.532Z" fill="#B573E5"/>
</g>
<defs>
<filter id="filter0_d_601_9711" x="0" y="0" width="620" height="628" filterUnits="userSpaceOnUse" color-interpolation-filters="sRGB">
<feFlood flood-opacity="0" result="BackgroundImageFix"/>
<feColorMatrix in="SourceAlpha" type="matrix" values="0 0 0 0 0 0 0 0 0 0 0 0 0 0 0 0 0 0 127 0" result="hardAlpha"/>
<feOffset dy="5"/>
<feGaussianBlur stdDeviation="5"/>
<feComposite in2="hardAlpha" operator="out"/>
<feColorMatrix type="matrix" values="0 0 0 0 0 0 0 0 0 0 0 0 0 0 0 0 0 0 0.1 0"/>
<feBlend mode="normal" in2="BackgroundImageFix" result="effect1_dropShadow_601_9711"/>
<feBlend mode="normal" in="SourceGraphic" in2="effect1_dropShadow_601_9711" result="shape"/>
</filter>
</defs>
</svg>
