<svg width="614" height="606" viewBox="0 0 614 606" fill="none" xmlns="http://www.w3.org/2000/svg">
<g opacity="0.06">
<path fill-rule="evenodd" clip-rule="evenodd" d="M181.13 105.858C181.13 53.0825 199.55 13.2962 208.76 0C174.99 0 107.45 46.0253 107.45 128.871C107.45 231.968 240.995 282.289 279.37 282.289C274.751 277.094 269.479 271.534 263.832 265.577C229.449 229.306 181.13 178.335 181.13 105.858ZM431.335 105.858C431.335 53.0825 412.915 13.2962 403.705 0C437.475 0 505.015 46.0253 505.015 128.871C505.015 231.968 371.47 282.289 333.095 282.289C337.714 277.095 342.985 271.535 348.631 265.579L348.633 265.577C383.016 229.306 431.335 178.335 431.335 105.858ZM9.21 210.182C23.025 236.263 53.725 283.823 98.24 302.233C126.411 313.884 137.984 313.86 153.967 313.828C163.239 313.809 173.996 313.787 190.34 316.041C244.934 323.567 274.765 352.861 274.765 388.147C274.765 423.433 251.74 437.241 233.32 437.241C218.584 437.241 207.737 419.853 204.155 411.16C221.04 410.137 256.345 403.489 256.345 378.942C256.345 358.997 245.6 343.656 221.04 343.656C210.186 343.656 199.095 349.101 185.627 355.713C164.811 365.934 138.316 378.942 98.24 378.942C41.445 378.942 0 320.643 0 276.152C0 240.559 6.14 217.342 9.21 210.182ZM515.76 302.233C560.275 283.823 590.975 236.263 604.79 210.182C607.86 217.342 614 240.559 614 276.152C614 320.643 572.555 378.942 515.76 378.942C475.684 378.942 449.189 365.934 428.373 355.713C414.905 349.101 403.814 343.656 392.96 343.656C368.4 343.656 357.655 358.997 357.655 378.942C357.655 403.489 392.96 410.137 409.845 411.16C406.263 419.853 395.416 437.241 380.68 437.241C362.26 437.241 339.235 423.433 339.235 388.147C339.235 352.861 369.066 323.567 423.66 316.041C440.004 313.787 450.761 313.809 460.033 313.828C476.016 313.86 487.589 313.884 515.76 302.233ZM73.6799 88.9823C77.2616 123.246 96.6399 198.199 139.685 231.661C178.978 262.206 197.316 271.118 218.43 281.378L218.43 281.378C227.009 285.547 236.047 289.939 247.135 296.096C273.23 310.586 294.72 331.382 308.535 355.929C322.35 331.382 343.84 310.586 369.935 296.096C381.023 289.939 390.061 285.547 398.64 281.378L398.64 281.378C419.754 271.118 438.092 262.206 477.385 231.661C520.43 198.199 539.808 123.246 543.39 88.9823C568.462 130.916 595.58 216.319 540.32 263.878C513.931 286.59 488.078 291.255 456.062 297.033L456.062 297.033C435.578 300.73 412.57 304.881 385.285 314.506C359.19 323.711 319.28 355.929 319.28 395.818C319.28 426.501 346.343 455.651 380.68 455.651C381.064 455.651 381.831 454.979 382.983 453.973C386.436 450.952 393.344 444.911 403.705 444.911C417.52 444.911 425.195 449.514 425.195 449.514C409.333 461.276 380.598 490.091 357.655 521.62C338.604 547.802 323.555 577.06 314.658 594.358C312.085 599.36 310.027 603.362 308.535 606C307.043 603.362 304.985 599.36 302.412 594.358C293.515 577.06 278.466 547.802 259.415 521.62C236.472 490.091 207.737 461.276 191.875 449.514C191.875 449.514 199.55 444.911 213.365 444.911C223.726 444.911 230.634 450.952 234.087 453.973C235.239 454.979 236.006 455.651 236.39 455.651C270.727 455.651 297.79 426.501 297.79 395.818C297.79 355.929 257.88 323.711 231.785 314.506C204.5 304.881 181.492 300.73 161.008 297.033L161.008 297.033C128.992 291.255 103.139 286.59 76.75 263.878C21.49 216.319 48.6083 130.916 73.6799 88.9823ZM256.345 480.198C264.532 478.663 277.835 475.595 288.58 464.856C296.164 457.276 300.434 450.461 303.549 445.488L303.55 445.488C304.848 443.415 305.946 441.663 307 440.309C307.845 441.395 308.805 442.738 309.918 444.296C313.523 449.342 318.746 456.651 326.955 464.856C337.7 475.595 351.003 478.663 359.19 480.198C352.027 481.22 335.551 482.652 326.955 480.198C318.359 477.743 309.558 470.992 307 467.924C304.442 470.992 297.176 477.743 288.58 480.198C279.984 482.652 263.508 481.22 256.345 480.198ZM296.255 497.073C302.395 492.471 307 486.334 307 486.334C307 486.334 310.07 492.471 316.21 497.073C323.885 502.827 333.095 506.278 333.095 506.278C333.095 506.278 323.885 513.949 316.21 526.223C308.535 538.496 307 550.77 307 550.77C307 550.77 303.93 538.496 296.255 526.223C288.58 513.949 279.37 506.278 279.37 506.278C279.37 506.278 288.58 502.827 296.255 497.073Z" fill="#1FB18E"/>
</g>
</svg>
