<svg width="80" height="1600" viewBox="0 0 80 1600" fill="none" xmlns="http://www.w3.org/2000/svg">
<g opacity="0.06">
<mask id="mask0_601_9181" style="mask-type:alpha" maskUnits="userSpaceOnUse" x="0" y="0" width="80" height="1600">
<rect width="80" height="1600" fill="#C4C4C4"/>
</mask>
<g mask="url(#mask0_601_9181)">
<path fill-rule="evenodd" clip-rule="evenodd" d="M-29.52 -5.19494C-29.52 -17.5615 -25.2 -26.8844 -23.04 -30C-30.96 -30 -46.8 -19.2152 -46.8 0.197468C-46.8 24.3554 -15.48 36.1468 -6.48 36.1468C-7.5634 34.9297 -8.79963 33.6268 -10.124 32.2309C-18.1879 23.7318 -29.52 11.788 -29.52 -5.19494ZM29.16 -5.19494C29.16 -17.5615 24.84 -26.8844 22.68 -30C30.6 -30 46.44 -19.2152 46.44 0.197468C46.44 24.3554 15.12 36.1468 6.12 36.1468C7.2034 34.9297 8.43962 33.6268 9.764 32.2309C17.8279 23.7318 29.16 11.788 29.16 -5.19494ZM-69.84 19.2506C-66.6 25.362 -59.4 36.5063 -48.96 40.8203C-42.3531 43.5503 -39.639 43.5448 -35.8905 43.5372H-35.8905C-33.7158 43.5329 -31.193 43.5278 -27.36 44.0557C-14.5563 45.8193 -7.56 52.6835 -7.56 60.9519C-7.56 69.2203 -12.96 72.4557 -17.28 72.4557C-20.736 72.4557 -23.28 68.3814 -24.12 66.3443C-20.16 66.1046 -11.88 64.5468 -11.88 58.7949C-11.88 54.1215 -14.4 50.5266 -20.16 50.5266C-22.7056 50.5266 -25.3067 51.8026 -28.4653 53.352C-33.3473 55.7468 -39.5611 58.7949 -48.96 58.7949C-62.28 58.7949 -72 45.1342 -72 34.7089C-72 26.3686 -70.56 20.9283 -69.84 19.2506ZM48.96 40.8203C59.4 36.5063 66.6 25.362 69.84 19.2506C70.56 20.9283 72 26.3686 72 34.7089C72 45.1342 62.28 58.7949 48.96 58.7949C39.5611 58.7949 33.3473 55.7468 28.4653 53.352C25.3067 51.8026 22.7056 50.5266 20.16 50.5266C14.4 50.5266 11.88 54.1215 11.88 58.7949C11.88 64.5468 20.16 66.1046 24.12 66.3443C23.28 68.3814 20.736 72.4557 17.28 72.4557C12.96 72.4557 7.56 69.2203 7.56 60.9519C7.56 52.6835 14.5563 45.8193 27.36 44.0557C31.193 43.5278 33.7158 43.5329 35.8905 43.5372H35.8905C39.639 43.5448 42.3531 43.5503 48.96 40.8203ZM-54.72 -9.14937C-53.88 -1.12068 -49.3353 16.4427 -39.24 24.2835C-30.0247 31.4409 -25.7239 33.5292 -20.7722 35.9334L-20.772 35.9336C-18.7599 36.9105 -16.6404 37.9397 -14.04 39.3823C-7.92001 42.7775 -2.88001 47.6506 0.359985 53.4025C3.59999 47.6506 8.63999 42.7775 14.76 39.3823C17.3605 37.9396 19.4801 36.9104 21.4922 35.9334C26.4438 33.5292 30.7447 31.4409 39.96 24.2835C50.0553 16.4427 54.6 -1.12068 55.44 -9.14937C61.32 0.676792 67.68 20.6886 54.72 31.8329C48.5311 37.1548 42.4679 38.248 34.9592 39.6018L34.959 39.6018C30.1549 40.468 24.7591 41.4409 18.36 43.6962C12.24 45.8532 2.88 53.4025 2.88 62.7494C2.88 69.9392 9.22707 76.7696 17.28 76.7696C17.37 76.7696 17.55 76.6124 17.82 76.3765L17.82 76.3764C18.63 75.6687 20.25 74.2532 22.68 74.2532C25.92 74.2532 27.72 75.3316 27.72 75.3316C24 78.0878 17.2607 84.8397 11.88 92.2278C7.41195 98.3628 3.88256 105.219 1.79595 109.272L1.79584 109.272C1.19254 110.444 0.709869 111.382 0.359985 112C0.0100861 111.382 -0.472626 110.444 -1.07596 109.272C-3.16256 105.219 -6.69196 98.3628 -11.16 92.2278C-16.5408 84.8397 -23.28 78.0878 -27 75.3316C-27 75.3316 -25.2 74.2532 -21.96 74.2532C-19.53 74.2532 -17.91 75.6687 -17.1 76.3764C-16.83 76.6123 -16.65 76.7696 -16.56 76.7696C-8.5071 76.7696 -2.16003 69.9392 -2.16003 62.7494C-2.16003 53.4025 -11.52 45.8532 -17.64 43.6962C-24.0392 41.4409 -29.435 40.468 -34.2392 39.6018C-41.7479 38.2479 -47.8111 37.1548 -54 31.8329C-66.96 20.6886 -60.6 0.676792 -54.72 -9.14937ZM-11.88 82.5215C-9.96 82.162 -6.84 81.443 -4.32 78.9266C-2.54142 77.1505 -1.53992 75.5535 -0.809258 74.3884L-0.809219 74.3883L-0.809013 74.3879C-0.504524 73.9024 -0.24707 73.4919 0 73.1747C0.198112 73.429 0.422913 73.7434 0.683876 74.1083L0.684265 74.1088L0.684357 74.109C1.52985 75.2912 2.7547 77.004 4.68 78.9266C7.2 81.443 10.32 82.162 12.24 82.5215C10.56 82.7612 6.696 83.0967 4.68 82.5215C2.664 81.9463 0.599998 80.3646 0 79.6456C-0.600006 80.3646 -2.304 81.9463 -4.32 82.5215C-6.33601 83.0967 -10.2 82.7612 -11.88 82.5215ZM-2.52 86.476C-1.08 85.3975 0 83.9595 0 83.9595C0 83.9595 0.720001 85.3975 2.16 86.476C3.96 87.8241 6.12 88.6329 6.12 88.6329C6.12 88.6329 3.96 90.4304 2.16 93.3063C0.360001 96.1823 0 99.0582 0 99.0582C0 99.0582 -0.720001 96.1823 -2.52 93.3063C-4.32 90.4304 -6.48 88.6329 -6.48 88.6329C-6.48 88.6329 -4.32 87.8241 -2.52 86.476Z" fill="#1FB18E"/>
<path fill-rule="evenodd" clip-rule="evenodd" d="M-29.52 167.805C-29.52 155.438 -25.2 146.116 -23.04 143C-30.96 143 -46.8 153.785 -46.8 173.197C-46.8 197.355 -15.48 209.147 -6.48 209.147C-7.5634 207.93 -8.79963 206.627 -10.124 205.231C-18.1879 196.732 -29.52 184.788 -29.52 167.805ZM29.16 167.805C29.16 155.438 24.84 146.116 22.68 143C30.6 143 46.44 153.785 46.44 173.197C46.44 197.355 15.12 209.147 6.12 209.147C7.2034 207.93 8.43962 206.627 9.764 205.231C17.8279 196.732 29.16 184.788 29.16 167.805ZM-69.84 192.251C-66.6 198.362 -59.4 209.506 -48.96 213.82C-42.3531 216.55 -39.639 216.545 -35.8905 216.537H-35.8905C-33.7158 216.533 -31.193 216.528 -27.36 217.056C-14.5563 218.819 -7.56 225.684 -7.56 233.952C-7.56 242.22 -12.96 245.456 -17.28 245.456C-20.736 245.456 -23.28 241.381 -24.12 239.344C-20.16 239.105 -11.88 237.547 -11.88 231.795C-11.88 227.122 -14.4 223.527 -20.16 223.527C-22.7056 223.527 -25.3067 224.803 -28.4653 226.352C-33.3473 228.747 -39.5611 231.795 -48.96 231.795C-62.28 231.795 -72 218.134 -72 207.709C-72 199.369 -70.56 193.928 -69.84 192.251ZM48.96 213.82C59.4 209.506 66.6 198.362 69.84 192.251C70.56 193.928 72 199.369 72 207.709C72 218.134 62.28 231.795 48.96 231.795C39.5611 231.795 33.3473 228.747 28.4653 226.352C25.3067 224.803 22.7056 223.527 20.16 223.527C14.4 223.527 11.88 227.122 11.88 231.795C11.88 237.547 20.16 239.105 24.12 239.344C23.28 241.381 20.736 245.456 17.28 245.456C12.96 245.456 7.56 242.22 7.56 233.952C7.56 225.684 14.5563 218.819 27.36 217.056C31.193 216.528 33.7158 216.533 35.8905 216.537H35.8905C39.639 216.545 42.3531 216.55 48.96 213.82ZM-54.72 163.851C-53.88 171.879 -49.3353 189.443 -39.24 197.284C-30.0247 204.441 -25.7239 206.529 -20.7722 208.933L-20.772 208.934C-18.7599 209.911 -16.6404 210.94 -14.04 212.382C-7.92001 215.777 -2.88001 220.651 0.359985 226.403C3.59999 220.651 8.63999 215.777 14.76 212.382C17.3605 210.94 19.4801 209.91 21.4922 208.933C26.4438 206.529 30.7447 204.441 39.96 197.284C50.0553 189.443 54.6 171.879 55.44 163.851C61.32 173.677 67.68 193.689 54.72 204.833C48.5311 210.155 42.4679 211.248 34.9592 212.602L34.959 212.602C30.1549 213.468 24.7591 214.441 18.36 216.696C12.24 218.853 2.88 226.403 2.88 235.749C2.88 242.939 9.22707 249.77 17.28 249.77C17.37 249.77 17.55 249.612 17.82 249.376L17.82 249.376C18.63 248.669 20.25 247.253 22.68 247.253C25.92 247.253 27.72 248.332 27.72 248.332C24 251.088 17.2607 257.84 11.88 265.228C7.41195 271.363 3.88256 278.219 1.79595 282.272L1.79584 282.272C1.19254 283.444 0.709869 284.382 0.359985 285C0.0100861 284.382 -0.472626 283.444 -1.07596 282.272C-3.16256 278.219 -6.69196 271.363 -11.16 265.228C-16.5408 257.84 -23.28 251.088 -27 248.332C-27 248.332 -25.2 247.253 -21.96 247.253C-19.53 247.253 -17.91 248.669 -17.1 249.376C-16.83 249.612 -16.65 249.77 -16.56 249.77C-8.5071 249.77 -2.16003 242.939 -2.16003 235.749C-2.16003 226.403 -11.52 218.853 -17.64 216.696C-24.0392 214.441 -29.435 213.468 -34.2392 212.602C-41.7479 211.248 -47.8111 210.155 -54 204.833C-66.96 193.689 -60.6 173.677 -54.72 163.851ZM-11.88 255.522C-9.96 255.162 -6.84 254.443 -4.32 251.927C-2.54142 250.151 -1.53992 248.553 -0.809258 247.388L-0.809219 247.388L-0.809013 247.388C-0.504524 246.902 -0.24707 246.492 0 246.175C0.198112 246.429 0.422913 246.743 0.683876 247.108L0.684265 247.109L0.684357 247.109C1.52985 248.291 2.7547 250.004 4.68 251.927C7.2 254.443 10.32 255.162 12.24 255.522C10.56 255.761 6.696 256.097 4.68 255.522C2.664 254.946 0.599998 253.365 0 252.646C-0.600006 253.365 -2.304 254.946 -4.32 255.522C-6.33601 256.097 -10.2 255.761 -11.88 255.522ZM-2.52 259.476C-1.08 258.397 0 256.959 0 256.959C0 256.959 0.720001 258.397 2.16 259.476C3.96 260.824 6.12 261.633 6.12 261.633C6.12 261.633 3.96 263.43 2.16 266.306C0.360001 269.182 0 272.058 0 272.058C0 272.058 -0.720001 269.182 -2.52 266.306C-4.32 263.43 -6.48 261.633 -6.48 261.633C-6.48 261.633 -4.32 260.824 -2.52 259.476Z" fill="#1FB18E"/>
<path fill-rule="evenodd" clip-rule="evenodd" d="M-29.52 339.98C-29.52 327.526 -25.2 318.138 -23.04 315C-30.96 315 -46.8 325.861 -46.8 345.41C-46.8 369.738 -15.48 381.613 -6.48 381.613C-7.5634 380.387 -8.79963 379.075 -10.124 377.669C-18.1879 369.11 -29.52 357.082 -29.52 339.98ZM29.16 339.98C29.16 327.526 24.84 318.138 22.68 315C30.6 315 46.44 325.861 46.44 345.41C46.44 369.738 15.12 381.613 6.12 381.613C7.2034 380.387 8.43963 379.075 9.76401 377.669C17.8279 369.11 29.16 357.082 29.16 339.98ZM-69.84 364.597C-66.6 370.752 -59.4 381.975 -48.96 386.319C-42.3531 389.068 -39.639 389.063 -35.8905 389.055C-33.7159 389.051 -31.1931 389.046 -27.36 389.577C-14.5563 391.353 -7.56 398.266 -7.56 406.592C-7.56 414.919 -12.96 418.177 -17.28 418.177C-20.736 418.177 -23.28 414.074 -24.12 412.023C-20.16 411.781 -11.88 410.213 -11.88 404.42C-11.88 399.714 -14.4 396.094 -20.16 396.094C-22.7056 396.094 -25.3067 397.379 -28.4653 398.939C-33.3473 401.351 -39.5611 404.42 -48.96 404.42C-62.28 404.42 -72 390.663 -72 380.165C-72 371.766 -70.56 366.287 -69.84 364.597ZM48.96 386.319C59.4 381.975 66.6 370.752 69.84 364.597C70.56 366.287 72 371.766 72 380.165C72 390.663 62.28 404.42 48.96 404.42C39.5611 404.42 33.3473 401.351 28.4653 398.939C25.3067 397.379 22.7056 396.094 20.16 396.094C14.4 396.094 11.88 399.714 11.88 404.42C11.88 410.213 20.16 411.781 24.12 412.023C23.28 414.074 20.736 418.177 17.28 418.177C12.96 418.177 7.56 414.919 7.56 406.592C7.56 398.266 14.5563 391.353 27.36 389.577C31.1931 389.046 33.7159 389.051 35.8905 389.055C39.639 389.063 42.3531 389.068 48.96 386.319ZM-54.72 335.997C-53.88 344.083 -49.3353 361.77 -39.24 369.666C-30.0247 376.874 -25.7239 378.977 -20.7722 381.398L-20.7721 381.398C-18.76 382.382 -16.6405 383.418 -14.04 384.871C-7.92001 388.29 -2.88 393.197 0.359993 398.99C3.6 393.197 8.63999 388.29 14.76 384.871C17.3604 383.418 19.4799 382.382 21.4919 381.398L21.4922 381.398C26.4438 378.977 30.7447 376.874 39.96 369.666C50.0553 361.77 54.6 344.083 55.44 335.997C61.32 345.893 67.68 366.046 54.72 377.268C48.5311 382.628 42.4679 383.729 34.9592 385.092C30.1551 385.964 24.7592 386.944 18.36 389.215C12.24 391.387 2.88001 398.99 2.88001 408.403C2.88001 415.643 9.22708 422.522 17.28 422.522C17.37 422.522 17.55 422.363 17.82 422.126C18.63 421.413 20.25 419.987 22.68 419.987C25.92 419.987 27.72 421.073 27.72 421.073C24 423.849 17.2607 430.648 11.88 438.089C7.41196 444.267 3.88256 451.171 1.79595 455.253C1.19261 456.433 0.709892 457.377 0.359993 458C0.0100937 457.377 -0.472626 456.433 -1.07597 455.253C-3.16257 451.171 -6.69196 444.267 -11.16 438.089C-16.5408 430.648 -23.28 423.849 -27 421.073C-27 421.073 -25.2 419.987 -21.96 419.987C-19.53 419.987 -17.91 421.413 -17.1 422.126C-16.83 422.363 -16.65 422.522 -16.56 422.522C-8.50709 422.522 -2.16002 415.643 -2.16002 408.403C-2.16002 398.99 -11.52 391.387 -17.64 389.215C-24.0391 386.944 -29.435 385.964 -34.2391 385.092L-34.2392 385.092C-41.7479 383.729 -47.8111 382.628 -54 377.268C-66.96 366.046 -60.6 345.893 -54.72 335.997ZM-11.88 428.314C-9.96 427.952 -6.84 427.228 -4.32 424.694C-2.54142 422.905 -1.53993 421.297 -0.809258 420.123L-0.809196 420.123C-0.504639 419.634 -0.247124 419.221 0 418.901C0.198235 419.158 0.423203 419.474 0.684364 419.842C1.52985 421.033 2.75471 422.758 4.68 424.694C7.2 427.228 10.32 427.952 12.24 428.314C10.56 428.555 6.696 428.893 4.68 428.314C2.664 427.735 0.599998 426.142 0 425.418C-0.600006 426.142 -2.304 427.735 -4.32 428.314C-6.33601 428.893 -10.2 428.555 -11.88 428.314ZM-2.52 432.296C-1.08 431.21 0 429.762 0 429.762C0 429.762 0.720001 431.21 2.16 432.296C3.96 433.654 6.12 434.468 6.12 434.468C6.12 434.468 3.96 436.278 2.16 439.175C0.360001 442.071 0 444.967 0 444.967C0 444.967 -0.720001 442.071 -2.52 439.175C-4.32 436.278 -6.48 434.468 -6.48 434.468C-6.48 434.468 -4.32 433.654 -2.52 432.296Z" fill="#1FB18E"/>
<path fill-rule="evenodd" clip-rule="evenodd" d="M-29.52 512.805C-29.52 500.438 -25.2 491.116 -23.04 488C-30.96 488 -46.8 498.785 -46.8 518.197C-46.8 542.355 -15.48 554.147 -6.48 554.147C-7.5634 552.93 -8.79963 551.627 -10.124 550.231C-18.1879 541.732 -29.52 529.788 -29.52 512.805ZM29.16 512.805C29.16 500.438 24.84 491.116 22.68 488C30.6 488 46.44 498.785 46.44 518.197C46.44 542.355 15.12 554.147 6.12 554.147C7.2034 552.93 8.43962 551.627 9.764 550.231C17.8279 541.732 29.16 529.788 29.16 512.805ZM-69.84 537.251C-66.6 543.362 -59.4 554.506 -48.96 558.82C-42.3531 561.55 -39.639 561.545 -35.8905 561.537H-35.8905C-33.7158 561.533 -31.193 561.528 -27.36 562.056C-14.5563 563.819 -7.56 570.684 -7.56 578.952C-7.56 587.22 -12.96 590.456 -17.28 590.456C-20.736 590.456 -23.28 586.381 -24.12 584.344C-20.16 584.105 -11.88 582.547 -11.88 576.795C-11.88 572.122 -14.4 568.527 -20.16 568.527C-22.7056 568.527 -25.3067 569.803 -28.4653 571.352C-33.3473 573.747 -39.5611 576.795 -48.96 576.795C-62.28 576.795 -72 563.134 -72 552.709C-72 544.369 -70.56 538.928 -69.84 537.251ZM48.96 558.82C59.4 554.506 66.6 543.362 69.84 537.251C70.56 538.928 72 544.369 72 552.709C72 563.134 62.28 576.795 48.96 576.795C39.5611 576.795 33.3473 573.747 28.4653 571.352C25.3067 569.803 22.7056 568.527 20.16 568.527C14.4 568.527 11.88 572.122 11.88 576.795C11.88 582.547 20.16 584.105 24.12 584.344C23.28 586.381 20.736 590.456 17.28 590.456C12.96 590.456 7.56 587.22 7.56 578.952C7.56 570.684 14.5563 563.819 27.36 562.056C31.193 561.528 33.7158 561.533 35.8905 561.537H35.8905C39.639 561.545 42.3531 561.55 48.96 558.82ZM-54.72 508.851C-53.88 516.879 -49.3353 534.443 -39.24 542.284C-30.0247 549.441 -25.7239 551.529 -20.7722 553.933L-20.772 553.934C-18.7599 554.911 -16.6404 555.94 -14.04 557.382C-7.92001 560.777 -2.88001 565.651 0.359985 571.403C3.59999 565.651 8.63999 560.777 14.76 557.382C17.3605 555.94 19.4801 554.91 21.4922 553.933C26.4438 551.529 30.7447 549.441 39.96 542.284C50.0553 534.443 54.6 516.879 55.44 508.851C61.32 518.677 67.68 538.689 54.72 549.833C48.5311 555.155 42.4679 556.248 34.9592 557.602L34.959 557.602C30.1549 558.468 24.7591 559.441 18.36 561.696C12.24 563.853 2.88 571.403 2.88 580.749C2.88 587.939 9.22707 594.77 17.28 594.77C17.37 594.77 17.55 594.612 17.82 594.376L17.82 594.376C18.63 593.669 20.25 592.253 22.68 592.253C25.92 592.253 27.72 593.332 27.72 593.332C24 596.088 17.2607 602.84 11.88 610.228C7.41195 616.363 3.88256 623.219 1.79595 627.272L1.79584 627.272C1.19254 628.444 0.709869 629.382 0.359985 630C0.0100861 629.382 -0.472626 628.444 -1.07596 627.272C-3.16256 623.219 -6.69196 616.363 -11.16 610.228C-16.5408 602.84 -23.28 596.088 -27 593.332C-27 593.332 -25.2 592.253 -21.96 592.253C-19.53 592.253 -17.91 593.669 -17.1 594.376C-16.83 594.612 -16.65 594.77 -16.56 594.77C-8.5071 594.77 -2.16003 587.939 -2.16003 580.749C-2.16003 571.403 -11.52 563.853 -17.64 561.696C-24.0392 559.441 -29.435 558.468 -34.2392 557.602C-41.7479 556.248 -47.8111 555.155 -54 549.833C-66.96 538.689 -60.6 518.677 -54.72 508.851ZM-11.88 600.522C-9.96 600.162 -6.84 599.443 -4.32 596.927C-2.54142 595.151 -1.53992 593.553 -0.809258 592.388L-0.809219 592.388L-0.809013 592.388C-0.504524 591.902 -0.24707 591.492 0 591.175C0.198112 591.429 0.422913 591.743 0.683876 592.108L0.684265 592.109L0.684357 592.109C1.52985 593.291 2.7547 595.004 4.68 596.927C7.2 599.443 10.32 600.162 12.24 600.522C10.56 600.761 6.696 601.097 4.68 600.522C2.664 599.946 0.599998 598.365 0 597.646C-0.600006 598.365 -2.304 599.946 -4.32 600.522C-6.33601 601.097 -10.2 600.761 -11.88 600.522ZM-2.52 604.476C-1.08 603.397 0 601.959 0 601.959C0 601.959 0.720001 603.397 2.16 604.476C3.96 605.824 6.12 606.633 6.12 606.633C6.12 606.633 3.96 608.43 2.16 611.306C0.360001 614.182 0 617.058 0 617.058C0 617.058 -0.720001 614.182 -2.52 611.306C-4.32 608.43 -6.48 606.633 -6.48 606.633C-6.48 606.633 -4.32 605.824 -2.52 604.476Z" fill="#1FB18E"/>
<path fill-rule="evenodd" clip-rule="evenodd" d="M-29.52 685.805C-29.52 673.438 -25.2 664.116 -23.04 661C-30.96 661 -46.8 671.785 -46.8 691.197C-46.8 715.355 -15.48 727.147 -6.48 727.147C-7.5634 725.93 -8.79963 724.627 -10.124 723.231C-18.1879 714.732 -29.52 702.788 -29.52 685.805ZM29.16 685.805C29.16 673.438 24.84 664.116 22.68 661C30.6 661 46.44 671.785 46.44 691.197C46.44 715.355 15.12 727.147 6.12 727.147C7.2034 725.93 8.43962 724.627 9.764 723.231C17.8279 714.732 29.16 702.788 29.16 685.805ZM-69.84 710.251C-66.6 716.362 -59.4 727.506 -48.96 731.82C-42.3531 734.55 -39.639 734.545 -35.8905 734.537H-35.8905C-33.7158 734.533 -31.193 734.528 -27.36 735.056C-14.5563 736.819 -7.56 743.684 -7.56 751.952C-7.56 760.22 -12.96 763.456 -17.28 763.456C-20.736 763.456 -23.28 759.381 -24.12 757.344C-20.16 757.105 -11.88 755.547 -11.88 749.795C-11.88 745.122 -14.4 741.527 -20.16 741.527C-22.7056 741.527 -25.3067 742.803 -28.4653 744.352C-33.3473 746.747 -39.5611 749.795 -48.96 749.795C-62.28 749.795 -72 736.134 -72 725.709C-72 717.369 -70.56 711.928 -69.84 710.251ZM48.96 731.82C59.4 727.506 66.6 716.362 69.84 710.251C70.56 711.928 72 717.369 72 725.709C72 736.134 62.28 749.795 48.96 749.795C39.5611 749.795 33.3473 746.747 28.4653 744.352C25.3067 742.803 22.7056 741.527 20.16 741.527C14.4 741.527 11.88 745.122 11.88 749.795C11.88 755.547 20.16 757.105 24.12 757.344C23.28 759.381 20.736 763.456 17.28 763.456C12.96 763.456 7.56 760.22 7.56 751.952C7.56 743.684 14.5563 736.819 27.36 735.056C31.193 734.528 33.7158 734.533 35.8905 734.537H35.8905C39.639 734.545 42.3531 734.55 48.96 731.82ZM-54.72 681.851C-53.88 689.879 -49.3353 707.443 -39.24 715.284C-30.0247 722.441 -25.7239 724.529 -20.7722 726.933L-20.772 726.934C-18.7599 727.911 -16.6404 728.94 -14.04 730.382C-7.92001 733.777 -2.88001 738.651 0.359985 744.403C3.59999 738.651 8.63999 733.777 14.76 730.382C17.3605 728.94 19.4801 727.91 21.4922 726.933C26.4438 724.529 30.7447 722.441 39.96 715.284C50.0553 707.443 54.6 689.879 55.44 681.851C61.32 691.677 67.68 711.689 54.72 722.833C48.5311 728.155 42.4679 729.248 34.9592 730.602L34.959 730.602C30.1549 731.468 24.7591 732.441 18.36 734.696C12.24 736.853 2.88 744.403 2.88 753.749C2.88 760.939 9.22707 767.77 17.28 767.77C17.37 767.77 17.55 767.612 17.82 767.376L17.82 767.376C18.63 766.669 20.25 765.253 22.68 765.253C25.92 765.253 27.72 766.332 27.72 766.332C24 769.088 17.2607 775.84 11.88 783.228C7.41195 789.363 3.88256 796.219 1.79595 800.272L1.79584 800.272C1.19254 801.444 0.709869 802.382 0.359985 803C0.0100861 802.382 -0.472626 801.444 -1.07596 800.272C-3.16256 796.219 -6.69196 789.363 -11.16 783.228C-16.5408 775.84 -23.28 769.088 -27 766.332C-27 766.332 -25.2 765.253 -21.96 765.253C-19.53 765.253 -17.91 766.669 -17.1 767.376C-16.83 767.612 -16.65 767.77 -16.56 767.77C-8.5071 767.77 -2.16003 760.939 -2.16003 753.749C-2.16003 744.403 -11.52 736.853 -17.64 734.696C-24.0392 732.441 -29.435 731.468 -34.2392 730.602C-41.7479 729.248 -47.8111 728.155 -54 722.833C-66.96 711.689 -60.6 691.677 -54.72 681.851ZM-11.88 773.522C-9.96 773.162 -6.84 772.443 -4.32 769.927C-2.54142 768.151 -1.53992 766.553 -0.809258 765.388L-0.809219 765.388L-0.809013 765.388C-0.504524 764.902 -0.24707 764.492 0 764.175C0.198112 764.429 0.422913 764.743 0.683876 765.108L0.684265 765.109L0.684357 765.109C1.52985 766.291 2.7547 768.004 4.68 769.927C7.2 772.443 10.32 773.162 12.24 773.522C10.56 773.761 6.696 774.097 4.68 773.522C2.664 772.946 0.599998 771.365 0 770.646C-0.600006 771.365 -2.304 772.946 -4.32 773.522C-6.33601 774.097 -10.2 773.761 -11.88 773.522ZM-2.52 777.476C-1.08 776.397 0 774.959 0 774.959C0 774.959 0.720001 776.397 2.16 777.476C3.96 778.824 6.12 779.633 6.12 779.633C6.12 779.633 3.96 781.43 2.16 784.306C0.360001 787.182 0 790.058 0 790.058C0 790.058 -0.720001 787.182 -2.52 784.306C-4.32 781.43 -6.48 779.633 -6.48 779.633C-6.48 779.633 -4.32 778.824 -2.52 777.476Z" fill="#1FB18E"/>
<path fill-rule="evenodd" clip-rule="evenodd" d="M-29.52 857.98C-29.52 845.526 -25.2 836.138 -23.04 833C-30.96 833 -46.8 843.861 -46.8 863.41C-46.8 887.738 -15.48 899.613 -6.48 899.613C-7.5634 898.387 -8.79963 897.075 -10.124 895.669C-18.1879 887.11 -29.52 875.082 -29.52 857.98ZM29.16 857.98C29.16 845.526 24.84 836.138 22.68 833C30.6 833 46.44 843.861 46.44 863.41C46.44 887.738 15.12 899.613 6.12 899.613C7.2034 898.387 8.43963 897.075 9.76401 895.669C17.8279 887.11 29.16 875.082 29.16 857.98ZM-69.84 882.597C-66.6 888.752 -59.4 899.975 -48.96 904.319C-42.3531 907.068 -39.639 907.063 -35.8905 907.055C-33.7159 907.051 -31.1931 907.046 -27.36 907.577C-14.5563 909.353 -7.56 916.266 -7.56 924.592C-7.56 932.919 -12.96 936.177 -17.28 936.177C-20.736 936.177 -23.28 932.074 -24.12 930.023C-20.16 929.781 -11.88 928.213 -11.88 922.42C-11.88 917.714 -14.4 914.094 -20.16 914.094C-22.7056 914.094 -25.3067 915.379 -28.4653 916.939C-33.3473 919.351 -39.5611 922.42 -48.96 922.42C-62.28 922.42 -72 908.663 -72 898.165C-72 889.766 -70.56 884.287 -69.84 882.597ZM48.96 904.319C59.4 899.975 66.6 888.752 69.84 882.597C70.56 884.287 72 889.766 72 898.165C72 908.663 62.28 922.42 48.96 922.42C39.5611 922.42 33.3473 919.351 28.4653 916.939C25.3067 915.379 22.7056 914.094 20.16 914.094C14.4 914.094 11.88 917.714 11.88 922.42C11.88 928.213 20.16 929.781 24.12 930.023C23.28 932.074 20.736 936.177 17.28 936.177C12.96 936.177 7.56 932.919 7.56 924.592C7.56 916.266 14.5563 909.353 27.36 907.577C31.1931 907.046 33.7159 907.051 35.8905 907.055C39.639 907.063 42.3531 907.068 48.96 904.319ZM-54.72 853.997C-53.88 862.083 -49.3353 879.77 -39.24 887.666C-30.0247 894.874 -25.7239 896.977 -20.7722 899.398L-20.7721 899.398C-18.76 900.382 -16.6405 901.418 -14.04 902.871C-7.92001 906.29 -2.88 911.197 0.359993 916.99C3.6 911.197 8.63999 906.29 14.76 902.871C17.3604 901.418 19.4799 900.382 21.4919 899.398L21.4922 899.398C26.4438 896.977 30.7447 894.874 39.96 887.666C50.0553 879.77 54.6 862.083 55.44 853.997C61.32 863.893 67.68 884.046 54.72 895.268C48.5311 900.628 42.4679 901.729 34.9592 903.092C30.1551 903.964 24.7592 904.944 18.36 907.215C12.24 909.387 2.88001 916.99 2.88001 926.403C2.88001 933.643 9.22708 940.522 17.28 940.522C17.37 940.522 17.55 940.363 17.82 940.126C18.63 939.413 20.25 937.987 22.68 937.987C25.92 937.987 27.72 939.073 27.72 939.073C24 941.849 17.2607 948.648 11.88 956.089C7.41196 962.267 3.88256 969.171 1.79595 973.253C1.19261 974.433 0.709892 975.377 0.359993 976C0.0100937 975.377 -0.472626 974.433 -1.07597 973.253C-3.16257 969.171 -6.69196 962.267 -11.16 956.089C-16.5408 948.648 -23.28 941.849 -27 939.073C-27 939.073 -25.2 937.987 -21.96 937.987C-19.53 937.987 -17.91 939.413 -17.1 940.126C-16.83 940.363 -16.65 940.522 -16.56 940.522C-8.50709 940.522 -2.16002 933.643 -2.16002 926.403C-2.16002 916.99 -11.52 909.387 -17.64 907.215C-24.0391 904.944 -29.435 903.964 -34.2391 903.092L-34.2392 903.092C-41.7479 901.729 -47.8111 900.628 -54 895.268C-66.96 884.046 -60.6 863.893 -54.72 853.997ZM-11.88 946.314C-9.96 945.952 -6.84 945.228 -4.32 942.694C-2.54142 940.905 -1.53993 939.297 -0.809258 938.123L-0.809196 938.123C-0.504639 937.634 -0.247124 937.221 0 936.901C0.198235 937.158 0.423203 937.474 0.684364 937.842C1.52985 939.033 2.75471 940.758 4.68 942.694C7.2 945.228 10.32 945.952 12.24 946.314C10.56 946.555 6.696 946.893 4.68 946.314C2.664 945.735 0.599998 944.142 0 943.418C-0.600006 944.142 -2.304 945.735 -4.32 946.314C-6.33601 946.893 -10.2 946.555 -11.88 946.314ZM-2.52 950.296C-1.08 949.21 0 947.762 0 947.762C0 947.762 0.720001 949.21 2.16 950.296C3.96 951.654 6.12 952.468 6.12 952.468C6.12 952.468 3.96 954.278 2.16 957.175C0.360001 960.071 0 962.967 0 962.967C0 962.967 -0.720001 960.071 -2.52 957.175C-4.32 954.278 -6.48 952.468 -6.48 952.468C-6.48 952.468 -4.32 951.654 -2.52 950.296Z" fill="#1FB18E"/>
<path fill-rule="evenodd" clip-rule="evenodd" d="M-29.52 1030.81C-29.52 1018.44 -25.2 1009.12 -23.04 1006C-30.96 1006 -46.8 1016.78 -46.8 1036.2C-46.8 1060.36 -15.48 1072.15 -6.48 1072.15C-7.5634 1070.93 -8.79963 1069.63 -10.124 1068.23C-18.1879 1059.73 -29.52 1047.79 -29.52 1030.81ZM29.16 1030.81C29.16 1018.44 24.84 1009.12 22.68 1006C30.6 1006 46.44 1016.78 46.44 1036.2C46.44 1060.36 15.12 1072.15 6.12 1072.15C7.2034 1070.93 8.43962 1069.63 9.764 1068.23C17.8279 1059.73 29.16 1047.79 29.16 1030.81ZM-69.84 1055.25C-66.6 1061.36 -59.4 1072.51 -48.96 1076.82C-42.3531 1079.55 -39.639 1079.54 -35.8905 1079.54H-35.8905C-33.7158 1079.53 -31.193 1079.53 -27.36 1080.06C-14.5563 1081.82 -7.56 1088.68 -7.56 1096.95C-7.56 1105.22 -12.96 1108.46 -17.28 1108.46C-20.736 1108.46 -23.28 1104.38 -24.12 1102.34C-20.16 1102.1 -11.88 1100.55 -11.88 1094.79C-11.88 1090.12 -14.4 1086.53 -20.16 1086.53C-22.7056 1086.53 -25.3067 1087.8 -28.4653 1089.35C-33.3473 1091.75 -39.5611 1094.79 -48.96 1094.79C-62.28 1094.79 -72 1081.13 -72 1070.71C-72 1062.37 -70.56 1056.93 -69.84 1055.25ZM48.96 1076.82C59.4 1072.51 66.6 1061.36 69.84 1055.25C70.56 1056.93 72 1062.37 72 1070.71C72 1081.13 62.28 1094.79 48.96 1094.79C39.5611 1094.79 33.3473 1091.75 28.4653 1089.35C25.3067 1087.8 22.7056 1086.53 20.16 1086.53C14.4 1086.53 11.88 1090.12 11.88 1094.79C11.88 1100.55 20.16 1102.1 24.12 1102.34C23.28 1104.38 20.736 1108.46 17.28 1108.46C12.96 1108.46 7.56 1105.22 7.56 1096.95C7.56 1088.68 14.5563 1081.82 27.36 1080.06C31.193 1079.53 33.7158 1079.53 35.8905 1079.54H35.8905C39.639 1079.54 42.3531 1079.55 48.96 1076.82ZM-54.72 1026.85C-53.88 1034.88 -49.3353 1052.44 -39.24 1060.28C-30.0247 1067.44 -25.7239 1069.53 -20.7722 1071.93L-20.772 1071.93C-18.7599 1072.91 -16.6404 1073.94 -14.04 1075.38C-7.92001 1078.78 -2.88001 1083.65 0.359985 1089.4C3.59999 1083.65 8.63999 1078.78 14.76 1075.38C17.3605 1073.94 19.4801 1072.91 21.4922 1071.93C26.4438 1069.53 30.7447 1067.44 39.96 1060.28C50.0553 1052.44 54.6 1034.88 55.44 1026.85C61.32 1036.68 67.68 1056.69 54.72 1067.83C48.5311 1073.15 42.4679 1074.25 34.9592 1075.6L34.959 1075.6C30.1549 1076.47 24.7591 1077.44 18.36 1079.7C12.24 1081.85 2.88 1089.4 2.88 1098.75C2.88 1105.94 9.22707 1112.77 17.28 1112.77C17.37 1112.77 17.55 1112.61 17.82 1112.38L17.82 1112.38C18.63 1111.67 20.25 1110.25 22.68 1110.25C25.92 1110.25 27.72 1111.33 27.72 1111.33C24 1114.09 17.2607 1120.84 11.88 1128.23C7.41195 1134.36 3.88256 1141.22 1.79595 1145.27L1.79584 1145.27C1.19254 1146.44 0.709869 1147.38 0.359985 1148C0.0100861 1147.38 -0.472626 1146.44 -1.07596 1145.27C-3.16256 1141.22 -6.69196 1134.36 -11.16 1128.23C-16.5408 1120.84 -23.28 1114.09 -27 1111.33C-27 1111.33 -25.2 1110.25 -21.96 1110.25C-19.53 1110.25 -17.91 1111.67 -17.1 1112.38C-16.83 1112.61 -16.65 1112.77 -16.56 1112.77C-8.5071 1112.77 -2.16003 1105.94 -2.16003 1098.75C-2.16003 1089.4 -11.52 1081.85 -17.64 1079.7C-24.0392 1077.44 -29.435 1076.47 -34.2392 1075.6C-41.7479 1074.25 -47.8111 1073.15 -54 1067.83C-66.96 1056.69 -60.6 1036.68 -54.72 1026.85ZM-11.88 1118.52C-9.96 1118.16 -6.84 1117.44 -4.32 1114.93C-2.54142 1113.15 -1.53992 1111.55 -0.809258 1110.39L-0.809219 1110.39L-0.809013 1110.39C-0.504524 1109.9 -0.24707 1109.49 0 1109.17C0.198112 1109.43 0.422913 1109.74 0.683876 1110.11L0.684265 1110.11L0.684357 1110.11C1.52985 1111.29 2.7547 1113 4.68 1114.93C7.2 1117.44 10.32 1118.16 12.24 1118.52C10.56 1118.76 6.696 1119.1 4.68 1118.52C2.664 1117.95 0.599998 1116.36 0 1115.65C-0.600006 1116.36 -2.304 1117.95 -4.32 1118.52C-6.33601 1119.1 -10.2 1118.76 -11.88 1118.52ZM-2.52 1122.48C-1.08 1121.4 0 1119.96 0 1119.96C0 1119.96 0.720001 1121.4 2.16 1122.48C3.96 1123.82 6.12 1124.63 6.12 1124.63C6.12 1124.63 3.96 1126.43 2.16 1129.31C0.360001 1132.18 0 1135.06 0 1135.06C0 1135.06 -0.720001 1132.18 -2.52 1129.31C-4.32 1126.43 -6.48 1124.63 -6.48 1124.63C-6.48 1124.63 -4.32 1123.82 -2.52 1122.48Z" fill="#1FB18E"/>
<path fill-rule="evenodd" clip-rule="evenodd" d="M-29.52 1202.98C-29.52 1190.53 -25.2 1181.14 -23.04 1178C-30.96 1178 -46.8 1188.86 -46.8 1208.41C-46.8 1232.74 -15.48 1244.61 -6.48 1244.61C-7.5634 1243.39 -8.79963 1242.07 -10.124 1240.67C-18.1879 1232.11 -29.52 1220.08 -29.52 1202.98ZM29.16 1202.98C29.16 1190.53 24.84 1181.14 22.68 1178C30.6 1178 46.44 1188.86 46.44 1208.41C46.44 1232.74 15.12 1244.61 6.12 1244.61C7.2034 1243.39 8.43963 1242.07 9.76401 1240.67C17.8279 1232.11 29.16 1220.08 29.16 1202.98ZM-69.84 1227.6C-66.6 1233.75 -59.4 1244.97 -48.96 1249.32C-42.3531 1252.07 -39.639 1252.06 -35.8905 1252.06C-33.7159 1252.05 -31.1931 1252.05 -27.36 1252.58C-14.5563 1254.35 -7.56 1261.27 -7.56 1269.59C-7.56 1277.92 -12.96 1281.18 -17.28 1281.18C-20.736 1281.18 -23.28 1277.07 -24.12 1275.02C-20.16 1274.78 -11.88 1273.21 -11.88 1267.42C-11.88 1262.71 -14.4 1259.09 -20.16 1259.09C-22.7056 1259.09 -25.3067 1260.38 -28.4653 1261.94C-33.3473 1264.35 -39.5611 1267.42 -48.96 1267.42C-62.28 1267.42 -72 1253.66 -72 1243.16C-72 1234.77 -70.56 1229.29 -69.84 1227.6ZM48.96 1249.32C59.4 1244.97 66.6 1233.75 69.84 1227.6C70.56 1229.29 72 1234.77 72 1243.16C72 1253.66 62.28 1267.42 48.96 1267.42C39.5611 1267.42 33.3473 1264.35 28.4653 1261.94C25.3067 1260.38 22.7056 1259.09 20.16 1259.09C14.4 1259.09 11.88 1262.71 11.88 1267.42C11.88 1273.21 20.16 1274.78 24.12 1275.02C23.28 1277.07 20.736 1281.18 17.28 1281.18C12.96 1281.18 7.56 1277.92 7.56 1269.59C7.56 1261.27 14.5563 1254.35 27.36 1252.58C31.1931 1252.05 33.7159 1252.05 35.8905 1252.06C39.639 1252.06 42.3531 1252.07 48.96 1249.32ZM-54.72 1199C-53.88 1207.08 -49.3353 1224.77 -39.24 1232.67C-30.0247 1239.87 -25.7239 1241.98 -20.7722 1244.4L-20.7721 1244.4C-18.76 1245.38 -16.6405 1246.42 -14.04 1247.87C-7.92001 1251.29 -2.88 1256.2 0.359993 1261.99C3.6 1256.2 8.63999 1251.29 14.76 1247.87C17.3604 1246.42 19.4799 1245.38 21.4919 1244.4L21.4922 1244.4C26.4438 1241.98 30.7447 1239.87 39.96 1232.67C50.0553 1224.77 54.6 1207.08 55.44 1199C61.32 1208.89 67.68 1229.05 54.72 1240.27C48.5311 1245.63 42.4679 1246.73 34.9592 1248.09C30.1551 1248.96 24.7592 1249.94 18.36 1252.22C12.24 1254.39 2.88001 1261.99 2.88001 1271.4C2.88001 1278.64 9.22708 1285.52 17.28 1285.52C17.37 1285.52 17.55 1285.36 17.82 1285.13C18.63 1284.41 20.25 1282.99 22.68 1282.99C25.92 1282.99 27.72 1284.07 27.72 1284.07C24 1286.85 17.2607 1293.65 11.88 1301.09C7.41196 1307.27 3.88256 1314.17 1.79595 1318.25C1.19261 1319.43 0.709892 1320.38 0.359993 1321C0.0100937 1320.38 -0.472626 1319.43 -1.07597 1318.25C-3.16257 1314.17 -6.69196 1307.27 -11.16 1301.09C-16.5408 1293.65 -23.28 1286.85 -27 1284.07C-27 1284.07 -25.2 1282.99 -21.96 1282.99C-19.53 1282.99 -17.91 1284.41 -17.1 1285.13C-16.83 1285.36 -16.65 1285.52 -16.56 1285.52C-8.50709 1285.52 -2.16002 1278.64 -2.16002 1271.4C-2.16002 1261.99 -11.52 1254.39 -17.64 1252.22C-24.0391 1249.94 -29.435 1248.96 -34.2391 1248.09L-34.2392 1248.09C-41.7479 1246.73 -47.8111 1245.63 -54 1240.27C-66.96 1229.05 -60.6 1208.89 -54.72 1199ZM-11.88 1291.31C-9.96 1290.95 -6.84 1290.23 -4.32 1287.69C-2.54142 1285.91 -1.53993 1284.3 -0.809258 1283.12L-0.809196 1283.12C-0.504639 1282.63 -0.247124 1282.22 0 1281.9C0.198235 1282.16 0.423203 1282.47 0.684364 1282.84C1.52985 1284.03 2.75471 1285.76 4.68 1287.69C7.2 1290.23 10.32 1290.95 12.24 1291.31C10.56 1291.56 6.696 1291.89 4.68 1291.31C2.664 1290.73 0.599998 1289.14 0 1288.42C-0.600006 1289.14 -2.304 1290.73 -4.32 1291.31C-6.33601 1291.89 -10.2 1291.56 -11.88 1291.31ZM-2.52 1295.3C-1.08 1294.21 0 1292.76 0 1292.76C0 1292.76 0.720001 1294.21 2.16 1295.3C3.96 1296.65 6.12 1297.47 6.12 1297.47C6.12 1297.47 3.96 1299.28 2.16 1302.17C0.360001 1305.07 0 1307.97 0 1307.97C0 1307.97 -0.720001 1305.07 -2.52 1302.17C-4.32 1299.28 -6.48 1297.47 -6.48 1297.47C-6.48 1297.47 -4.32 1296.65 -2.52 1295.3Z" fill="#1FB18E"/>
<path fill-rule="evenodd" clip-rule="evenodd" d="M-29.52 1375.81C-29.52 1363.44 -25.2 1354.12 -23.04 1351C-30.96 1351 -46.8 1361.78 -46.8 1381.2C-46.8 1405.36 -15.48 1417.15 -6.48 1417.15C-7.5634 1415.93 -8.79963 1414.63 -10.124 1413.23C-18.1879 1404.73 -29.52 1392.79 -29.52 1375.81ZM29.16 1375.81C29.16 1363.44 24.84 1354.12 22.68 1351C30.6 1351 46.44 1361.78 46.44 1381.2C46.44 1405.36 15.12 1417.15 6.12 1417.15C7.2034 1415.93 8.43962 1414.63 9.764 1413.23C17.8279 1404.73 29.16 1392.79 29.16 1375.81ZM-69.84 1400.25C-66.6 1406.36 -59.4 1417.51 -48.96 1421.82C-42.3531 1424.55 -39.639 1424.54 -35.8905 1424.54H-35.8905C-33.7158 1424.53 -31.193 1424.53 -27.36 1425.06C-14.5563 1426.82 -7.56 1433.68 -7.56 1441.95C-7.56 1450.22 -12.96 1453.46 -17.28 1453.46C-20.736 1453.46 -23.28 1449.38 -24.12 1447.34C-20.16 1447.1 -11.88 1445.55 -11.88 1439.79C-11.88 1435.12 -14.4 1431.53 -20.16 1431.53C-22.7056 1431.53 -25.3067 1432.8 -28.4653 1434.35C-33.3473 1436.75 -39.5611 1439.79 -48.96 1439.79C-62.28 1439.79 -72 1426.13 -72 1415.71C-72 1407.37 -70.56 1401.93 -69.84 1400.25ZM48.96 1421.82C59.4 1417.51 66.6 1406.36 69.84 1400.25C70.56 1401.93 72 1407.37 72 1415.71C72 1426.13 62.28 1439.79 48.96 1439.79C39.5611 1439.79 33.3473 1436.75 28.4653 1434.35C25.3067 1432.8 22.7056 1431.53 20.16 1431.53C14.4 1431.53 11.88 1435.12 11.88 1439.79C11.88 1445.55 20.16 1447.1 24.12 1447.34C23.28 1449.38 20.736 1453.46 17.28 1453.46C12.96 1453.46 7.56 1450.22 7.56 1441.95C7.56 1433.68 14.5563 1426.82 27.36 1425.06C31.193 1424.53 33.7158 1424.53 35.8905 1424.54H35.8905C39.639 1424.54 42.3531 1424.55 48.96 1421.82ZM-54.72 1371.85C-53.88 1379.88 -49.3353 1397.44 -39.24 1405.28C-30.0247 1412.44 -25.7239 1414.53 -20.7722 1416.93L-20.772 1416.93C-18.7599 1417.91 -16.6404 1418.94 -14.04 1420.38C-7.92001 1423.78 -2.88001 1428.65 0.359985 1434.4C3.59999 1428.65 8.63999 1423.78 14.76 1420.38C17.3605 1418.94 19.4801 1417.91 21.4922 1416.93C26.4438 1414.53 30.7447 1412.44 39.96 1405.28C50.0553 1397.44 54.6 1379.88 55.44 1371.85C61.32 1381.68 67.68 1401.69 54.72 1412.83C48.5311 1418.15 42.4679 1419.25 34.9592 1420.6L34.959 1420.6C30.1549 1421.47 24.7591 1422.44 18.36 1424.7C12.24 1426.85 2.88 1434.4 2.88 1443.75C2.88 1450.94 9.22707 1457.77 17.28 1457.77C17.37 1457.77 17.55 1457.61 17.82 1457.38L17.82 1457.38C18.63 1456.67 20.25 1455.25 22.68 1455.25C25.92 1455.25 27.72 1456.33 27.72 1456.33C24 1459.09 17.2607 1465.84 11.88 1473.23C7.41195 1479.36 3.88256 1486.22 1.79595 1490.27L1.79584 1490.27C1.19254 1491.44 0.709869 1492.38 0.359985 1493C0.0100861 1492.38 -0.472626 1491.44 -1.07596 1490.27C-3.16256 1486.22 -6.69196 1479.36 -11.16 1473.23C-16.5408 1465.84 -23.28 1459.09 -27 1456.33C-27 1456.33 -25.2 1455.25 -21.96 1455.25C-19.53 1455.25 -17.91 1456.67 -17.1 1457.38C-16.83 1457.61 -16.65 1457.77 -16.56 1457.77C-8.5071 1457.77 -2.16003 1450.94 -2.16003 1443.75C-2.16003 1434.4 -11.52 1426.85 -17.64 1424.7C-24.0392 1422.44 -29.435 1421.47 -34.2392 1420.6C-41.7479 1419.25 -47.8111 1418.15 -54 1412.83C-66.96 1401.69 -60.6 1381.68 -54.72 1371.85ZM-11.88 1463.52C-9.96 1463.16 -6.84 1462.44 -4.32 1459.93C-2.54142 1458.15 -1.53992 1456.55 -0.809258 1455.39L-0.809219 1455.39L-0.809013 1455.39C-0.504524 1454.9 -0.24707 1454.49 0 1454.17C0.198112 1454.43 0.422913 1454.74 0.683876 1455.11L0.684265 1455.11L0.684357 1455.11C1.52985 1456.29 2.7547 1458 4.68 1459.93C7.2 1462.44 10.32 1463.16 12.24 1463.52C10.56 1463.76 6.696 1464.1 4.68 1463.52C2.664 1462.95 0.599998 1461.36 0 1460.65C-0.600006 1461.36 -2.304 1462.95 -4.32 1463.52C-6.33601 1464.1 -10.2 1463.76 -11.88 1463.52ZM-2.52 1467.48C-1.08 1466.4 0 1464.96 0 1464.96C0 1464.96 0.720001 1466.4 2.16 1467.48C3.96 1468.82 6.12 1469.63 6.12 1469.63C6.12 1469.63 3.96 1471.43 2.16 1474.31C0.360001 1477.18 0 1480.06 0 1480.06C0 1480.06 -0.720001 1477.18 -2.52 1474.31C-4.32 1471.43 -6.48 1469.63 -6.48 1469.63C-6.48 1469.63 -4.32 1468.82 -2.52 1467.48Z" fill="#1FB18E"/>
<path fill-rule="evenodd" clip-rule="evenodd" d="M-29.52 1548.81C-29.52 1536.44 -25.2 1527.12 -23.04 1524C-30.96 1524 -46.8 1534.78 -46.8 1554.2C-46.8 1578.36 -15.48 1590.15 -6.48 1590.15C-7.5634 1588.93 -8.79963 1587.63 -10.124 1586.23C-18.1879 1577.73 -29.52 1565.79 -29.52 1548.81ZM29.16 1548.81C29.16 1536.44 24.84 1527.12 22.68 1524C30.6 1524 46.44 1534.78 46.44 1554.2C46.44 1578.36 15.12 1590.15 6.12 1590.15C7.2034 1588.93 8.43962 1587.63 9.764 1586.23C17.8279 1577.73 29.16 1565.79 29.16 1548.81ZM-69.84 1573.25C-66.6 1579.36 -59.4 1590.51 -48.96 1594.82C-42.3531 1597.55 -39.639 1597.54 -35.8905 1597.54H-35.8905C-33.7158 1597.53 -31.193 1597.53 -27.36 1598.06C-14.5563 1599.82 -7.56 1606.68 -7.56 1614.95C-7.56 1623.22 -12.96 1626.46 -17.28 1626.46C-20.736 1626.46 -23.28 1622.38 -24.12 1620.34C-20.16 1620.1 -11.88 1618.55 -11.88 1612.79C-11.88 1608.12 -14.4 1604.53 -20.16 1604.53C-22.7056 1604.53 -25.3067 1605.8 -28.4653 1607.35C-33.3473 1609.75 -39.5611 1612.79 -48.96 1612.79C-62.28 1612.79 -72 1599.13 -72 1588.71C-72 1580.37 -70.56 1574.93 -69.84 1573.25ZM48.96 1594.82C59.4 1590.51 66.6 1579.36 69.84 1573.25C70.56 1574.93 72 1580.37 72 1588.71C72 1599.13 62.28 1612.79 48.96 1612.79C39.5611 1612.79 33.3473 1609.75 28.4653 1607.35C25.3067 1605.8 22.7056 1604.53 20.16 1604.53C14.4 1604.53 11.88 1608.12 11.88 1612.79C11.88 1618.55 20.16 1620.1 24.12 1620.34C23.28 1622.38 20.736 1626.46 17.28 1626.46C12.96 1626.46 7.56 1623.22 7.56 1614.95C7.56 1606.68 14.5563 1599.82 27.36 1598.06C31.193 1597.53 33.7158 1597.53 35.8905 1597.54H35.8905C39.639 1597.54 42.3531 1597.55 48.96 1594.82ZM-54.72 1544.85C-53.88 1552.88 -49.3353 1570.44 -39.24 1578.28C-30.0247 1585.44 -25.7239 1587.53 -20.7722 1589.93L-20.772 1589.93C-18.7599 1590.91 -16.6404 1591.94 -14.04 1593.38C-7.92001 1596.78 -2.88001 1601.65 0.359985 1607.4C3.59999 1601.65 8.63999 1596.78 14.76 1593.38C17.3605 1591.94 19.4801 1590.91 21.4922 1589.93C26.4438 1587.53 30.7447 1585.44 39.96 1578.28C50.0553 1570.44 54.6 1552.88 55.44 1544.85C61.32 1554.68 67.68 1574.69 54.72 1585.83C48.5311 1591.15 42.4679 1592.25 34.9592 1593.6L34.959 1593.6C30.1549 1594.47 24.7591 1595.44 18.36 1597.7C12.24 1599.85 2.88 1607.4 2.88 1616.75C2.88 1623.94 9.22707 1630.77 17.28 1630.77C17.37 1630.77 17.55 1630.61 17.82 1630.38L17.82 1630.38C18.63 1629.67 20.25 1628.25 22.68 1628.25C25.92 1628.25 27.72 1629.33 27.72 1629.33C24 1632.09 17.2607 1638.84 11.88 1646.23C7.41195 1652.36 3.88256 1659.22 1.79595 1663.27L1.79584 1663.27C1.19254 1664.44 0.709869 1665.38 0.359985 1666C0.0100861 1665.38 -0.472626 1664.44 -1.07596 1663.27C-3.16256 1659.22 -6.69196 1652.36 -11.16 1646.23C-16.5408 1638.84 -23.28 1632.09 -27 1629.33C-27 1629.33 -25.2 1628.25 -21.96 1628.25C-19.53 1628.25 -17.91 1629.67 -17.1 1630.38C-16.83 1630.61 -16.65 1630.77 -16.56 1630.77C-8.5071 1630.77 -2.16003 1623.94 -2.16003 1616.75C-2.16003 1607.4 -11.52 1599.85 -17.64 1597.7C-24.0392 1595.44 -29.435 1594.47 -34.2392 1593.6C-41.7479 1592.25 -47.8111 1591.15 -54 1585.83C-66.96 1574.69 -60.6 1554.68 -54.72 1544.85ZM-11.88 1636.52C-9.96 1636.16 -6.84 1635.44 -4.32 1632.93C-2.54142 1631.15 -1.53992 1629.55 -0.809258 1628.39L-0.809219 1628.39L-0.809013 1628.39C-0.504524 1627.9 -0.24707 1627.49 0 1627.17C0.198112 1627.43 0.422913 1627.74 0.683876 1628.11L0.684265 1628.11L0.684357 1628.11C1.52985 1629.29 2.7547 1631 4.68 1632.93C7.2 1635.44 10.32 1636.16 12.24 1636.52C10.56 1636.76 6.696 1637.1 4.68 1636.52C2.664 1635.95 0.599998 1634.36 0 1633.65C-0.600006 1634.36 -2.304 1635.95 -4.32 1636.52C-6.33601 1637.1 -10.2 1636.76 -11.88 1636.52ZM-2.52 1640.48C-1.08 1639.4 0 1637.96 0 1637.96C0 1637.96 0.720001 1639.4 2.16 1640.48C3.96 1641.82 6.12 1642.63 6.12 1642.63C6.12 1642.63 3.96 1644.43 2.16 1647.31C0.360001 1650.18 0 1653.06 0 1653.06C0 1653.06 -0.720001 1650.18 -2.52 1647.31C-4.32 1644.43 -6.48 1642.63 -6.48 1642.63C-6.48 1642.63 -4.32 1641.82 -2.52 1640.48Z" fill="#1FB18E"/>
</g>
</g>
</svg>
