<svg width="80" height="1600" viewBox="0 0 80 1600" fill="none" xmlns="http://www.w3.org/2000/svg">
<g opacity="0.06">
<mask id="mask0_601_9202" style="mask-type:alpha" maskUnits="userSpaceOnUse" x="0" y="0" width="80" height="1600">
<rect x="80" y="1600" width="80" height="1600" transform="rotate(180 80 1600)" fill="#C4C4C4"/>
</mask>
<g mask="url(#mask0_601_9202)">
<path fill-rule="evenodd" clip-rule="evenodd" d="M109.52 1605.19C109.52 1617.56 105.2 1626.88 103.04 1630C110.96 1630 126.8 1619.22 126.8 1599.8C126.8 1575.64 95.48 1563.85 86.48 1563.85C87.5634 1565.07 88.7996 1566.37 90.124 1567.77C98.1879 1576.27 109.52 1588.21 109.52 1605.19ZM50.84 1605.19C50.84 1617.56 55.16 1626.88 57.32 1630C49.4 1630 33.56 1619.22 33.56 1599.8C33.56 1575.64 64.88 1563.85 73.88 1563.85C72.7966 1565.07 71.5604 1566.37 70.236 1567.77C62.1721 1576.27 50.84 1588.21 50.84 1605.19ZM149.84 1580.75C146.6 1574.64 139.4 1563.49 128.96 1559.18C122.353 1556.45 119.639 1556.46 115.891 1556.46H115.89C113.716 1556.47 111.193 1556.47 107.36 1555.94C94.5563 1554.18 87.56 1547.32 87.56 1539.05C87.56 1530.78 92.96 1527.54 97.28 1527.54C100.736 1527.54 103.28 1531.62 104.12 1533.66C100.16 1533.9 91.88 1535.45 91.88 1541.21C91.88 1545.88 94.4 1549.47 100.16 1549.47C102.706 1549.47 105.307 1548.2 108.465 1546.65C113.347 1544.25 119.561 1541.21 128.96 1541.21C142.28 1541.21 152 1554.87 152 1565.29C152 1573.63 150.56 1579.07 149.84 1580.75ZM31.04 1559.18C20.6 1563.49 13.4 1574.64 10.16 1580.75C9.44 1579.07 8 1573.63 8 1565.29C8 1554.87 17.72 1541.21 31.04 1541.21C40.4389 1541.21 46.6527 1544.25 51.5347 1546.65C54.6933 1548.2 57.2944 1549.47 59.84 1549.47C65.6 1549.47 68.12 1545.88 68.12 1541.21C68.12 1535.45 59.84 1533.9 55.88 1533.66C56.72 1531.62 59.264 1527.54 62.72 1527.54C67.04 1527.54 72.44 1530.78 72.44 1539.05C72.44 1547.32 65.4437 1554.18 52.64 1555.94C48.807 1556.47 46.2842 1556.47 44.1095 1556.46H44.1095C40.361 1556.46 37.6469 1556.45 31.04 1559.18ZM134.72 1609.15C133.88 1601.12 129.335 1583.56 119.24 1575.72C110.025 1568.56 105.724 1566.47 100.772 1564.07L100.772 1564.07C98.7599 1563.09 96.6404 1562.06 94.04 1560.62C87.92 1557.22 82.88 1552.35 79.64 1546.6C76.4 1552.35 71.36 1557.22 65.24 1560.62C62.6395 1562.06 60.5199 1563.09 58.5078 1564.07C53.5562 1566.47 49.2553 1568.56 40.04 1575.72C29.9447 1583.56 25.4 1601.12 24.56 1609.15C18.68 1599.32 12.32 1579.31 25.28 1568.17C31.4689 1562.85 37.5321 1561.75 45.0408 1560.4L45.041 1560.4C49.8451 1559.53 55.2409 1558.56 61.64 1556.3C67.76 1554.15 77.12 1546.6 77.12 1537.25C77.12 1530.06 70.7729 1523.23 62.72 1523.23C62.63 1523.23 62.45 1523.39 62.18 1523.62L62.18 1523.62C61.37 1524.33 59.75 1525.75 57.32 1525.75C54.08 1525.75 52.28 1524.67 52.28 1524.67C56 1521.91 62.7393 1515.16 68.12 1507.77C72.5881 1501.64 76.1174 1494.78 78.204 1490.73L78.2042 1490.73C78.8075 1489.56 79.2901 1488.62 79.64 1488C79.9899 1488.62 80.4726 1489.56 81.076 1490.73C83.1626 1494.78 86.692 1501.64 91.16 1507.77C96.5408 1515.16 103.28 1521.91 107 1524.67C107 1524.67 105.2 1525.75 101.96 1525.75C99.53 1525.75 97.91 1524.33 97.1 1523.62C96.83 1523.39 96.65 1523.23 96.56 1523.23C88.5071 1523.23 82.16 1530.06 82.16 1537.25C82.16 1546.6 91.52 1554.15 97.64 1556.3C104.039 1558.56 109.435 1559.53 114.239 1560.4C121.748 1561.75 127.811 1562.85 134 1568.17C146.96 1579.31 140.6 1599.32 134.72 1609.15ZM91.88 1517.48C89.96 1517.84 86.84 1518.56 84.32 1521.07C82.5414 1522.85 81.5399 1524.45 80.8093 1525.61L80.8092 1525.61L80.809 1525.61C80.5045 1526.1 80.2471 1526.51 80 1526.83C79.8019 1526.57 79.5771 1526.26 79.3161 1525.89L79.3157 1525.89L79.3156 1525.89C78.4702 1524.71 77.2453 1523 75.32 1521.07C72.8 1518.56 69.68 1517.84 67.76 1517.48C69.44 1517.24 73.304 1516.9 75.32 1517.48C77.336 1518.05 79.4 1519.64 80 1520.35C80.6 1519.64 82.304 1518.05 84.32 1517.48C86.336 1516.9 90.2 1517.24 91.88 1517.48ZM82.52 1513.52C81.08 1514.6 80 1516.04 80 1516.04C80 1516.04 79.28 1514.6 77.84 1513.52C76.04 1512.18 73.88 1511.37 73.88 1511.37C73.88 1511.37 76.04 1509.57 77.84 1506.69C79.64 1503.82 80 1500.94 80 1500.94C80 1500.94 80.72 1503.82 82.52 1506.69C84.32 1509.57 86.48 1511.37 86.48 1511.37C86.48 1511.37 84.32 1512.18 82.52 1513.52Z" fill="#1FB18E"/>
<path fill-rule="evenodd" clip-rule="evenodd" d="M109.52 1432.19C109.52 1444.56 105.2 1453.88 103.04 1457C110.96 1457 126.8 1446.22 126.8 1426.8C126.8 1402.64 95.48 1390.85 86.48 1390.85C87.5634 1392.07 88.7996 1393.37 90.124 1394.77C98.1879 1403.27 109.52 1415.21 109.52 1432.19ZM50.84 1432.19C50.84 1444.56 55.16 1453.88 57.32 1457C49.4 1457 33.56 1446.22 33.56 1426.8C33.56 1402.64 64.88 1390.85 73.88 1390.85C72.7966 1392.07 71.5604 1393.37 70.236 1394.77C62.1721 1403.27 50.84 1415.21 50.84 1432.19ZM149.84 1407.75C146.6 1401.64 139.4 1390.49 128.96 1386.18C122.353 1383.45 119.639 1383.46 115.891 1383.46H115.89C113.716 1383.47 111.193 1383.47 107.36 1382.94C94.5563 1381.18 87.56 1374.32 87.56 1366.05C87.56 1357.78 92.96 1354.54 97.28 1354.54C100.736 1354.54 103.28 1358.62 104.12 1360.66C100.16 1360.9 91.88 1362.45 91.88 1368.21C91.88 1372.88 94.4 1376.47 100.16 1376.47C102.706 1376.47 105.307 1375.2 108.465 1373.65C113.347 1371.25 119.561 1368.21 128.96 1368.21C142.28 1368.21 152 1381.87 152 1392.29C152 1400.63 150.56 1406.07 149.84 1407.75ZM31.04 1386.18C20.6 1390.49 13.4 1401.64 10.16 1407.75C9.44 1406.07 8 1400.63 8 1392.29C8 1381.87 17.72 1368.21 31.04 1368.21C40.4389 1368.21 46.6527 1371.25 51.5347 1373.65C54.6933 1375.2 57.2944 1376.47 59.84 1376.47C65.6 1376.47 68.12 1372.88 68.12 1368.21C68.12 1362.45 59.84 1360.9 55.88 1360.66C56.72 1358.62 59.264 1354.54 62.72 1354.54C67.04 1354.54 72.44 1357.78 72.44 1366.05C72.44 1374.32 65.4437 1381.18 52.64 1382.94C48.807 1383.47 46.2842 1383.47 44.1095 1383.46H44.1095C40.361 1383.46 37.6469 1383.45 31.04 1386.18ZM134.72 1436.15C133.88 1428.12 129.335 1410.56 119.24 1402.72C110.025 1395.56 105.724 1393.47 100.772 1391.07L100.772 1391.07C98.7599 1390.09 96.6404 1389.06 94.04 1387.62C87.92 1384.22 82.88 1379.35 79.64 1373.6C76.4 1379.35 71.36 1384.22 65.24 1387.62C62.6395 1389.06 60.5199 1390.09 58.5078 1391.07C53.5562 1393.47 49.2553 1395.56 40.04 1402.72C29.9447 1410.56 25.4 1428.12 24.56 1436.15C18.68 1426.32 12.32 1406.31 25.28 1395.17C31.4689 1389.85 37.5321 1388.75 45.0408 1387.4L45.041 1387.4C49.8451 1386.53 55.2409 1385.56 61.64 1383.3C67.76 1381.15 77.12 1373.6 77.12 1364.25C77.12 1357.06 70.7729 1350.23 62.72 1350.23C62.63 1350.23 62.45 1350.39 62.18 1350.62L62.18 1350.62C61.37 1351.33 59.75 1352.75 57.32 1352.75C54.08 1352.75 52.28 1351.67 52.28 1351.67C56 1348.91 62.7393 1342.16 68.12 1334.77C72.5881 1328.64 76.1174 1321.78 78.204 1317.73L78.2042 1317.73C78.8075 1316.56 79.2901 1315.62 79.64 1315C79.9899 1315.62 80.4726 1316.56 81.076 1317.73C83.1626 1321.78 86.692 1328.64 91.16 1334.77C96.5408 1342.16 103.28 1348.91 107 1351.67C107 1351.67 105.2 1352.75 101.96 1352.75C99.53 1352.75 97.91 1351.33 97.1 1350.62C96.83 1350.39 96.65 1350.23 96.56 1350.23C88.5071 1350.23 82.16 1357.06 82.16 1364.25C82.16 1373.6 91.52 1381.15 97.64 1383.3C104.039 1385.56 109.435 1386.53 114.239 1387.4C121.748 1388.75 127.811 1389.85 134 1395.17C146.96 1406.31 140.6 1426.32 134.72 1436.15ZM91.88 1344.48C89.96 1344.84 86.84 1345.56 84.32 1348.07C82.5414 1349.85 81.5399 1351.45 80.8093 1352.61L80.8092 1352.61L80.809 1352.61C80.5045 1353.1 80.2471 1353.51 80 1353.83C79.8019 1353.57 79.5771 1353.26 79.3161 1352.89L79.3157 1352.89L79.3156 1352.89C78.4702 1351.71 77.2453 1350 75.32 1348.07C72.8 1345.56 69.68 1344.84 67.76 1344.48C69.44 1344.24 73.304 1343.9 75.32 1344.48C77.336 1345.05 79.4 1346.64 80 1347.35C80.6 1346.64 82.304 1345.05 84.32 1344.48C86.336 1343.9 90.2 1344.24 91.88 1344.48ZM82.52 1340.52C81.08 1341.6 80 1343.04 80 1343.04C80 1343.04 79.28 1341.6 77.84 1340.52C76.04 1339.18 73.88 1338.37 73.88 1338.37C73.88 1338.37 76.04 1336.57 77.84 1333.69C79.64 1330.82 80 1327.94 80 1327.94C80 1327.94 80.72 1330.82 82.52 1333.69C84.32 1336.57 86.48 1338.37 86.48 1338.37C86.48 1338.37 84.32 1339.18 82.52 1340.52Z" fill="#1FB18E"/>
<path fill-rule="evenodd" clip-rule="evenodd" d="M109.52 1260.02C109.52 1272.47 105.2 1281.86 103.04 1285C110.96 1285 126.8 1274.14 126.8 1254.59C126.8 1230.26 95.48 1218.39 86.48 1218.39C87.5634 1219.61 88.7996 1220.93 90.124 1222.33C98.1879 1230.89 109.52 1242.92 109.52 1260.02ZM50.84 1260.02C50.84 1272.47 55.16 1281.86 57.32 1285C49.4 1285 33.56 1274.14 33.56 1254.59C33.56 1230.26 64.88 1218.39 73.88 1218.39C72.7966 1219.61 71.5604 1220.93 70.236 1222.33C62.1721 1230.89 50.84 1242.92 50.84 1260.02ZM149.84 1235.4C146.6 1229.25 139.4 1218.03 128.96 1213.68C122.353 1210.93 119.639 1210.94 115.891 1210.94C113.716 1210.95 111.193 1210.95 107.36 1210.42C94.5563 1208.65 87.56 1201.73 87.56 1193.41C87.56 1185.08 92.96 1181.82 97.28 1181.82C100.736 1181.82 103.28 1185.93 104.12 1187.98C100.16 1188.22 91.88 1189.79 91.88 1195.58C91.88 1200.29 94.4 1203.91 100.16 1203.91C102.706 1203.91 105.307 1202.62 108.465 1201.06C113.347 1198.65 119.561 1195.58 128.96 1195.58C142.28 1195.58 152 1209.34 152 1219.84C152 1228.23 150.56 1233.71 149.84 1235.4ZM31.04 1213.68C20.6 1218.03 13.4 1229.25 10.16 1235.4C9.44 1233.71 8 1228.23 8 1219.84C8 1209.34 17.72 1195.58 31.04 1195.58C40.4389 1195.58 46.6527 1198.65 51.5347 1201.06C54.6933 1202.62 57.2944 1203.91 59.84 1203.91C65.6 1203.91 68.12 1200.29 68.12 1195.58C68.12 1189.79 59.84 1188.22 55.88 1187.98C56.72 1185.93 59.264 1181.82 62.72 1181.82C67.04 1181.82 72.44 1185.08 72.44 1193.41C72.44 1201.73 65.4437 1208.65 52.64 1210.42C48.8069 1210.95 46.2841 1210.95 44.1095 1210.94C40.361 1210.94 37.6469 1210.93 31.04 1213.68ZM134.72 1264C133.88 1255.92 129.335 1238.23 119.24 1230.33C110.025 1223.13 105.724 1221.02 100.772 1218.6L100.772 1218.6C98.76 1217.62 96.6405 1216.58 94.04 1215.13C87.92 1211.71 82.88 1206.8 79.64 1201.01C76.4 1206.8 71.36 1211.71 65.24 1215.13C62.6396 1216.58 60.5201 1217.62 58.5081 1218.6L58.5078 1218.6C53.5562 1221.02 49.2553 1223.13 40.04 1230.33C29.9447 1238.23 25.4 1255.92 24.56 1264C18.68 1254.11 12.32 1233.95 25.28 1222.73C31.4689 1217.37 37.5321 1216.27 45.0408 1214.91C49.8449 1214.04 55.2408 1213.06 61.64 1210.78C67.76 1208.61 77.12 1201.01 77.12 1191.6C77.12 1184.36 70.7729 1177.48 62.72 1177.48C62.63 1177.48 62.45 1177.64 62.18 1177.87C61.37 1178.59 59.75 1180.01 57.32 1180.01C54.08 1180.01 52.28 1178.93 52.28 1178.93C56 1176.15 62.7393 1169.35 68.12 1161.91C72.588 1155.73 76.1174 1148.83 78.204 1144.75C78.8074 1143.57 79.2901 1142.62 79.64 1142C79.9899 1142.62 80.4726 1143.57 81.076 1144.75C83.1626 1148.83 86.692 1155.73 91.16 1161.91C96.5408 1169.35 103.28 1176.15 107 1178.93C107 1178.93 105.2 1180.01 101.96 1180.01C99.53 1180.01 97.91 1178.59 97.1 1177.87C96.83 1177.64 96.65 1177.48 96.56 1177.48C88.5071 1177.48 82.16 1184.36 82.16 1191.6C82.16 1201.01 91.52 1208.61 97.64 1210.78C104.039 1213.06 109.435 1214.04 114.239 1214.91L114.239 1214.91C121.748 1216.27 127.811 1217.37 134 1222.73C146.96 1233.95 140.6 1254.11 134.72 1264ZM91.88 1171.69C89.96 1172.05 86.84 1172.77 84.32 1175.31C82.5414 1177.09 81.5399 1178.7 80.8093 1179.88L80.8092 1179.88C80.5046 1180.37 80.2471 1180.78 80 1181.1C79.8018 1180.84 79.5768 1180.53 79.3156 1180.16C78.4701 1178.97 77.2453 1177.24 75.32 1175.31C72.8 1172.77 69.68 1172.05 67.76 1171.69C69.44 1171.44 73.304 1171.11 75.32 1171.69C77.336 1172.27 79.4 1173.86 80 1174.58C80.6 1173.86 82.304 1172.27 84.32 1171.69C86.336 1171.11 90.2 1171.44 91.88 1171.69ZM82.52 1167.7C81.08 1168.79 80 1170.24 80 1170.24C80 1170.24 79.28 1168.79 77.84 1167.7C76.04 1166.35 73.88 1165.53 73.88 1165.53C73.88 1165.53 76.04 1163.72 77.84 1160.83C79.64 1157.93 80 1155.03 80 1155.03C80 1155.03 80.72 1157.93 82.52 1160.83C84.32 1163.72 86.48 1165.53 86.48 1165.53C86.48 1165.53 84.32 1166.35 82.52 1167.7Z" fill="#1FB18E"/>
<path fill-rule="evenodd" clip-rule="evenodd" d="M109.52 1087.19C109.52 1099.56 105.2 1108.88 103.04 1112C110.96 1112 126.8 1101.22 126.8 1081.8C126.8 1057.64 95.48 1045.85 86.48 1045.85C87.5634 1047.07 88.7996 1048.37 90.124 1049.77C98.1879 1058.27 109.52 1070.21 109.52 1087.19ZM50.84 1087.19C50.84 1099.56 55.16 1108.88 57.32 1112C49.4 1112 33.56 1101.22 33.56 1081.8C33.56 1057.64 64.88 1045.85 73.88 1045.85C72.7966 1047.07 71.5604 1048.37 70.236 1049.77C62.1721 1058.27 50.84 1070.21 50.84 1087.19ZM149.84 1062.75C146.6 1056.64 139.4 1045.49 128.96 1041.18C122.353 1038.45 119.639 1038.46 115.891 1038.46H115.89C113.716 1038.47 111.193 1038.47 107.36 1037.94C94.5563 1036.18 87.56 1029.32 87.56 1021.05C87.56 1012.78 92.96 1009.54 97.28 1009.54C100.736 1009.54 103.28 1013.62 104.12 1015.66C100.16 1015.9 91.88 1017.45 91.88 1023.21C91.88 1027.88 94.4 1031.47 100.16 1031.47C102.706 1031.47 105.307 1030.2 108.465 1028.65C113.347 1026.25 119.561 1023.21 128.96 1023.21C142.28 1023.21 152 1036.87 152 1047.29C152 1055.63 150.56 1061.07 149.84 1062.75ZM31.04 1041.18C20.6 1045.49 13.4 1056.64 10.16 1062.75C9.44 1061.07 8 1055.63 8 1047.29C8 1036.87 17.72 1023.21 31.04 1023.21C40.4389 1023.21 46.6527 1026.25 51.5347 1028.65C54.6933 1030.2 57.2944 1031.47 59.84 1031.47C65.6 1031.47 68.12 1027.88 68.12 1023.21C68.12 1017.45 59.84 1015.9 55.88 1015.66C56.72 1013.62 59.264 1009.54 62.72 1009.54C67.04 1009.54 72.44 1012.78 72.44 1021.05C72.44 1029.32 65.4437 1036.18 52.64 1037.94C48.807 1038.47 46.2842 1038.47 44.1095 1038.46H44.1095C40.361 1038.46 37.6469 1038.45 31.04 1041.18ZM134.72 1091.15C133.88 1083.12 129.335 1065.56 119.24 1057.72C110.025 1050.56 105.724 1048.47 100.772 1046.07L100.772 1046.07C98.7599 1045.09 96.6404 1044.06 94.04 1042.62C87.92 1039.22 82.88 1034.35 79.64 1028.6C76.4 1034.35 71.36 1039.22 65.24 1042.62C62.6395 1044.06 60.5199 1045.09 58.5078 1046.07C53.5562 1048.47 49.2553 1050.56 40.04 1057.72C29.9447 1065.56 25.4 1083.12 24.56 1091.15C18.68 1081.32 12.32 1061.31 25.28 1050.17C31.4689 1044.85 37.5321 1043.75 45.0408 1042.4L45.041 1042.4C49.8451 1041.53 55.2409 1040.56 61.64 1038.3C67.76 1036.15 77.12 1028.6 77.12 1019.25C77.12 1012.06 70.7729 1005.23 62.72 1005.23C62.63 1005.23 62.45 1005.39 62.18 1005.62L62.18 1005.62C61.37 1006.33 59.75 1007.75 57.32 1007.75C54.08 1007.75 52.28 1006.67 52.28 1006.67C56 1003.91 62.7393 997.16 68.12 989.772C72.5881 983.637 76.1174 976.781 78.204 972.728L78.2042 972.728C78.8075 971.556 79.2901 970.618 79.64 970C79.9899 970.618 80.4726 971.556 81.076 972.728C83.1626 976.781 86.692 983.637 91.16 989.772C96.5408 997.16 103.28 1003.91 107 1006.67C107 1006.67 105.2 1007.75 101.96 1007.75C99.53 1007.75 97.91 1006.33 97.1 1005.62C96.83 1005.39 96.65 1005.23 96.56 1005.23C88.5071 1005.23 82.16 1012.06 82.16 1019.25C82.16 1028.6 91.52 1036.15 97.64 1038.3C104.039 1040.56 109.435 1041.53 114.239 1042.4C121.748 1043.75 127.811 1044.85 134 1050.17C146.96 1061.31 140.6 1081.32 134.72 1091.15ZM91.88 999.478C89.96 999.838 86.84 1000.56 84.32 1003.07C82.5414 1004.85 81.5399 1006.45 80.8093 1007.61L80.8092 1007.61L80.809 1007.61C80.5045 1008.1 80.2471 1008.51 80 1008.83C79.8019 1008.57 79.5771 1008.26 79.3161 1007.89L79.3157 1007.89L79.3156 1007.89C78.4702 1006.71 77.2453 1005 75.32 1003.07C72.8 1000.56 69.68 999.838 67.76 999.478C69.44 999.239 73.304 998.903 75.32 999.478C77.336 1000.05 79.4 1001.64 80 1002.35C80.6 1001.64 82.304 1000.05 84.32 999.478C86.336 998.903 90.2 999.239 91.88 999.478ZM82.52 995.524C81.08 996.603 80 998.041 80 998.041C80 998.041 79.28 996.603 77.84 995.524C76.04 994.176 73.88 993.367 73.88 993.367C73.88 993.367 76.04 991.57 77.84 988.694C79.64 985.818 80 982.942 80 982.942C80 982.942 80.72 985.818 82.52 988.694C84.32 991.57 86.48 993.367 86.48 993.367C86.48 993.367 84.32 994.176 82.52 995.524Z" fill="#1FB18E"/>
<path fill-rule="evenodd" clip-rule="evenodd" d="M109.52 914.195C109.52 926.562 105.2 935.884 103.04 939C110.96 939 126.8 928.215 126.8 908.803C126.8 884.645 95.48 872.853 86.48 872.853C87.5634 874.07 88.7996 875.373 90.124 876.769C98.1879 885.268 109.52 897.212 109.52 914.195ZM50.84 914.195C50.84 926.562 55.16 935.884 57.32 939C49.4 939 33.56 928.215 33.56 908.803C33.56 884.645 64.88 872.853 73.88 872.853C72.7966 874.07 71.5604 875.373 70.236 876.769C62.1721 885.268 50.84 897.212 50.84 914.195ZM149.84 889.749C146.6 883.638 139.4 872.494 128.96 868.18C122.353 865.45 119.639 865.455 115.891 865.463H115.89C113.716 865.467 111.193 865.472 107.36 864.944C94.5563 863.181 87.56 856.316 87.56 848.048C87.56 839.78 92.96 836.544 97.28 836.544C100.736 836.544 103.28 840.619 104.12 842.656C100.16 842.895 91.88 844.453 91.88 850.205C91.88 854.878 94.4 858.473 100.16 858.473C102.706 858.473 105.307 857.197 108.465 855.648C113.347 853.253 119.561 850.205 128.96 850.205C142.28 850.205 152 863.866 152 874.291C152 882.631 150.56 888.072 149.84 889.749ZM31.04 868.18C20.6 872.494 13.4 883.638 10.16 889.749C9.44 888.072 8 882.631 8 874.291C8 863.866 17.72 850.205 31.04 850.205C40.4389 850.205 46.6527 853.253 51.5347 855.648C54.6933 857.197 57.2944 858.473 59.84 858.473C65.6 858.473 68.12 854.878 68.12 850.205C68.12 844.453 59.84 842.895 55.88 842.656C56.72 840.619 59.264 836.544 62.72 836.544C67.04 836.544 72.44 839.78 72.44 848.048C72.44 856.316 65.4437 863.181 52.64 864.944C48.807 865.472 46.2842 865.467 44.1095 865.463H44.1095C40.361 865.455 37.6469 865.45 31.04 868.18ZM134.72 918.149C133.88 910.121 129.335 892.557 119.24 884.716C110.025 877.559 105.724 875.471 100.772 873.067L100.772 873.066C98.7599 872.089 96.6404 871.06 94.04 869.618C87.92 866.223 82.88 861.349 79.64 855.597C76.4 861.349 71.36 866.223 65.24 869.618C62.6395 871.06 60.5199 872.09 58.5078 873.067C53.5562 875.471 49.2553 877.559 40.04 884.716C29.9447 892.557 25.4 910.121 24.56 918.149C18.68 908.323 12.32 888.311 25.28 877.167C31.4689 871.845 37.5321 870.752 45.0408 869.398L45.041 869.398C49.8451 868.532 55.2409 867.559 61.64 865.304C67.76 863.147 77.12 855.597 77.12 846.251C77.12 839.061 70.7729 832.23 62.72 832.23C62.63 832.23 62.45 832.388 62.18 832.624L62.18 832.624C61.37 833.331 59.75 834.747 57.32 834.747C54.08 834.747 52.28 833.668 52.28 833.668C56 830.912 62.7393 824.16 68.12 816.772C72.5881 810.637 76.1174 803.781 78.204 799.728L78.2042 799.728C78.8075 798.556 79.2901 797.618 79.64 797C79.9899 797.618 80.4726 798.556 81.076 799.728C83.1626 803.781 86.692 810.637 91.16 816.772C96.5408 824.16 103.28 830.912 107 833.668C107 833.668 105.2 834.747 101.96 834.747C99.53 834.747 97.91 833.331 97.1 832.624C96.83 832.388 96.65 832.23 96.56 832.23C88.5071 832.23 82.16 839.061 82.16 846.251C82.16 855.597 91.52 863.147 97.64 865.304C104.039 867.559 109.435 868.532 114.239 869.398C121.748 870.752 127.811 871.845 134 877.167C146.96 888.311 140.6 908.323 134.72 918.149ZM91.88 826.478C89.96 826.838 86.84 827.557 84.32 830.073C82.5414 831.849 81.5399 833.447 80.8093 834.612L80.8092 834.612L80.809 834.612C80.5045 835.098 80.2471 835.508 80 835.825C79.8019 835.571 79.5771 835.257 79.3161 834.892L79.3157 834.891L79.3156 834.891C78.4702 833.709 77.2453 831.996 75.32 830.073C72.8 827.557 69.68 826.838 67.76 826.478C69.44 826.239 73.304 825.903 75.32 826.478C77.336 827.054 79.4 828.635 80 829.354C80.6 828.635 82.304 827.054 84.32 826.478C86.336 825.903 90.2 826.239 91.88 826.478ZM82.52 822.524C81.08 823.603 80 825.041 80 825.041C80 825.041 79.28 823.603 77.84 822.524C76.04 821.176 73.88 820.367 73.88 820.367C73.88 820.367 76.04 818.57 77.84 815.694C79.64 812.818 80 809.942 80 809.942C80 809.942 80.72 812.818 82.52 815.694C84.32 818.57 86.48 820.367 86.48 820.367C86.48 820.367 84.32 821.176 82.52 822.524Z" fill="#1FB18E"/>
<path fill-rule="evenodd" clip-rule="evenodd" d="M109.52 742.02C109.52 754.474 105.2 763.862 103.04 767C110.96 767 126.8 756.139 126.8 736.59C126.8 712.262 95.48 700.387 86.48 700.387C87.5634 701.613 88.7996 702.925 90.124 704.331C98.1879 712.89 109.52 724.918 109.52 742.02ZM50.84 742.02C50.84 754.474 55.16 763.862 57.32 767C49.4 767 33.56 756.139 33.56 736.59C33.56 712.262 64.88 700.387 73.88 700.387C72.7966 701.613 71.5604 702.925 70.236 704.331C62.1721 712.89 50.84 724.918 50.84 742.02ZM149.84 717.403C146.6 711.248 139.4 700.025 128.96 695.681C122.353 692.932 119.639 692.937 115.891 692.945C113.716 692.949 111.193 692.954 107.36 692.423C94.5563 690.647 87.56 683.734 87.56 675.408C87.56 667.081 92.96 663.823 97.28 663.823C100.736 663.823 103.28 667.926 104.12 669.977C100.16 670.219 91.88 671.787 91.88 677.58C91.88 682.286 94.4 685.906 100.16 685.906C102.706 685.906 105.307 684.621 108.465 683.061C113.347 680.649 119.561 677.58 128.96 677.58C142.28 677.58 152 691.337 152 701.835C152 710.234 150.56 715.713 149.84 717.403ZM31.04 695.681C20.6 700.025 13.4 711.248 10.16 717.403C9.44 715.713 8 710.234 8 701.835C8 691.337 17.72 677.58 31.04 677.58C40.4389 677.58 46.6527 680.649 51.5347 683.061C54.6933 684.621 57.2944 685.906 59.84 685.906C65.6 685.906 68.12 682.286 68.12 677.58C68.12 671.787 59.84 670.219 55.88 669.977C56.72 667.926 59.264 663.823 62.72 663.823C67.04 663.823 72.44 667.081 72.44 675.408C72.44 683.734 65.4437 690.647 52.64 692.423C48.8069 692.954 46.2841 692.949 44.1095 692.945C40.361 692.937 37.6469 692.932 31.04 695.681ZM134.72 746.003C133.88 737.917 129.335 720.23 119.24 712.334C110.025 705.126 105.724 703.023 100.772 700.602L100.772 700.602C98.76 699.618 96.6405 698.582 94.04 697.129C87.92 693.71 82.88 688.803 79.64 683.01C76.4 688.803 71.36 693.71 65.24 697.129C62.6396 698.582 60.5201 699.618 58.5081 700.602L58.5078 700.602C53.5562 703.023 49.2553 705.126 40.04 712.334C29.9447 720.23 25.4 737.917 24.56 746.003C18.68 736.107 12.32 715.954 25.28 704.732C31.4689 699.372 37.5321 698.271 45.0408 696.908C49.8449 696.036 55.2408 695.056 61.64 692.785C67.76 690.613 77.12 683.01 77.12 673.597C77.12 666.357 70.7729 659.478 62.72 659.478C62.63 659.478 62.45 659.637 62.18 659.874C61.37 660.587 59.75 662.013 57.32 662.013C54.08 662.013 52.28 660.927 52.28 660.927C56 658.151 62.7393 651.352 68.12 643.911C72.588 637.733 76.1174 630.829 78.204 626.747C78.8074 625.567 79.2901 624.623 79.64 624C79.9899 624.623 80.4726 625.567 81.076 626.747C83.1626 630.829 86.692 637.733 91.16 643.911C96.5408 651.352 103.28 658.151 107 660.927C107 660.927 105.2 662.013 101.96 662.013C99.53 662.013 97.91 660.587 97.1 659.874C96.83 659.637 96.65 659.478 96.56 659.478C88.5071 659.478 82.16 666.357 82.16 673.597C82.16 683.01 91.52 690.613 97.64 692.785C104.039 695.056 109.435 696.036 114.239 696.908L114.239 696.908C121.748 698.271 127.811 699.372 134 704.732C146.96 715.954 140.6 736.107 134.72 746.003ZM91.88 653.686C89.96 654.048 86.84 654.772 84.32 657.306C82.5414 659.095 81.5399 660.703 80.8093 661.877L80.8092 661.877C80.5046 662.366 80.2471 662.779 80 663.099C79.8018 662.842 79.5768 662.526 79.3156 662.158C78.4701 660.967 77.2453 659.242 75.32 657.306C72.8 654.772 69.68 654.048 67.76 653.686C69.44 653.445 73.304 653.107 75.32 653.686C77.336 654.265 79.4 655.858 80 656.582C80.6 655.858 82.304 654.265 84.32 653.686C86.336 653.107 90.2 653.445 91.88 653.686ZM82.52 649.704C81.08 650.79 80 652.238 80 652.238C80 652.238 79.28 650.79 77.84 649.704C76.04 648.346 73.88 647.532 73.88 647.532C73.88 647.532 76.04 645.722 77.84 642.825C79.64 639.929 80 637.033 80 637.033C80 637.033 80.72 639.929 82.52 642.825C84.32 645.722 86.48 647.532 86.48 647.532C86.48 647.532 84.32 648.346 82.52 649.704Z" fill="#1FB18E"/>
<path fill-rule="evenodd" clip-rule="evenodd" d="M109.52 569.195C109.52 581.562 105.2 590.884 103.04 594C110.96 594 126.8 583.215 126.8 563.803C126.8 539.645 95.48 527.853 86.48 527.853C87.5634 529.07 88.7996 530.373 90.124 531.769C98.1879 540.268 109.52 552.212 109.52 569.195ZM50.84 569.195C50.84 581.562 55.16 590.884 57.32 594C49.4 594 33.56 583.215 33.56 563.803C33.56 539.645 64.88 527.853 73.88 527.853C72.7966 529.07 71.5604 530.373 70.236 531.769C62.1721 540.268 50.84 552.212 50.84 569.195ZM149.84 544.749C146.6 538.638 139.4 527.494 128.96 523.18C122.353 520.45 119.639 520.455 115.891 520.463H115.89C113.716 520.467 111.193 520.472 107.36 519.944C94.5563 518.181 87.56 511.316 87.56 503.048C87.56 494.78 92.96 491.544 97.28 491.544C100.736 491.544 103.28 495.619 104.12 497.656C100.16 497.895 91.88 499.453 91.88 505.205C91.88 509.878 94.4 513.473 100.16 513.473C102.706 513.473 105.307 512.197 108.465 510.648C113.347 508.253 119.561 505.205 128.96 505.205C142.28 505.205 152 518.866 152 529.291C152 537.631 150.56 543.072 149.84 544.749ZM31.04 523.18C20.6 527.494 13.4 538.638 10.16 544.749C9.44 543.072 8 537.631 8 529.291C8 518.866 17.72 505.205 31.04 505.205C40.4389 505.205 46.6527 508.253 51.5347 510.648C54.6933 512.197 57.2944 513.473 59.84 513.473C65.6 513.473 68.12 509.878 68.12 505.205C68.12 499.453 59.84 497.895 55.88 497.656C56.72 495.619 59.264 491.544 62.72 491.544C67.04 491.544 72.44 494.78 72.44 503.048C72.44 511.316 65.4437 518.181 52.64 519.944C48.807 520.472 46.2842 520.467 44.1095 520.463H44.1095C40.361 520.455 37.6469 520.45 31.04 523.18ZM134.72 573.149C133.88 565.121 129.335 547.557 119.24 539.716C110.025 532.559 105.724 530.471 100.772 528.067L100.772 528.066C98.7599 527.089 96.6404 526.06 94.04 524.618C87.92 521.223 82.88 516.349 79.64 510.597C76.4 516.349 71.36 521.223 65.24 524.618C62.6395 526.06 60.5199 527.09 58.5078 528.067C53.5562 530.471 49.2553 532.559 40.04 539.716C29.9447 547.557 25.4 565.121 24.56 573.149C18.68 563.323 12.32 543.311 25.28 532.167C31.4689 526.845 37.5321 525.752 45.0408 524.398L45.041 524.398C49.8451 523.532 55.2409 522.559 61.64 520.304C67.76 518.147 77.12 510.597 77.12 501.251C77.12 494.061 70.7729 487.23 62.72 487.23C62.63 487.23 62.45 487.388 62.18 487.624L62.18 487.624C61.37 488.331 59.75 489.747 57.32 489.747C54.08 489.747 52.28 488.668 52.28 488.668C56 485.912 62.7393 479.16 68.12 471.772C72.5881 465.637 76.1174 458.781 78.204 454.728L78.2042 454.728C78.8075 453.556 79.2901 452.618 79.64 452C79.9899 452.618 80.4726 453.556 81.076 454.728C83.1626 458.781 86.692 465.637 91.16 471.772C96.5408 479.16 103.28 485.912 107 488.668C107 488.668 105.2 489.747 101.96 489.747C99.53 489.747 97.91 488.331 97.1 487.624C96.83 487.388 96.65 487.23 96.56 487.23C88.5071 487.23 82.16 494.061 82.16 501.251C82.16 510.597 91.52 518.147 97.64 520.304C104.039 522.559 109.435 523.532 114.239 524.398C121.748 525.752 127.811 526.845 134 532.167C146.96 543.311 140.6 563.323 134.72 573.149ZM91.88 481.478C89.96 481.838 86.84 482.557 84.32 485.073C82.5414 486.849 81.5399 488.447 80.8093 489.612L80.8092 489.612L80.809 489.612C80.5045 490.098 80.2471 490.508 80 490.825C79.8019 490.571 79.5771 490.257 79.3161 489.892L79.3157 489.891L79.3156 489.891C78.4702 488.709 77.2453 486.996 75.32 485.073C72.8 482.557 69.68 481.838 67.76 481.478C69.44 481.239 73.304 480.903 75.32 481.478C77.336 482.054 79.4 483.635 80 484.354C80.6 483.635 82.304 482.054 84.32 481.478C86.336 480.903 90.2 481.239 91.88 481.478ZM82.52 477.524C81.08 478.603 80 480.041 80 480.041C80 480.041 79.28 478.603 77.84 477.524C76.04 476.176 73.88 475.367 73.88 475.367C73.88 475.367 76.04 473.57 77.84 470.694C79.64 467.818 80 464.942 80 464.942C80 464.942 80.72 467.818 82.52 470.694C84.32 473.57 86.48 475.367 86.48 475.367C86.48 475.367 84.32 476.176 82.52 477.524Z" fill="#1FB18E"/>
<path fill-rule="evenodd" clip-rule="evenodd" d="M109.52 397.02C109.52 409.474 105.2 418.862 103.04 422C110.96 422 126.8 411.139 126.8 391.59C126.8 367.262 95.48 355.387 86.48 355.387C87.5634 356.613 88.7996 357.925 90.124 359.331C98.1879 367.89 109.52 379.918 109.52 397.02ZM50.84 397.02C50.84 409.474 55.16 418.862 57.32 422C49.4 422 33.56 411.139 33.56 391.59C33.56 367.262 64.88 355.387 73.88 355.387C72.7966 356.613 71.5604 357.925 70.236 359.331C62.1721 367.89 50.84 379.918 50.84 397.02ZM149.84 372.403C146.6 366.248 139.4 355.025 128.96 350.681C122.353 347.932 119.639 347.937 115.891 347.945C113.716 347.949 111.193 347.954 107.36 347.423C94.5563 345.647 87.56 338.734 87.56 330.408C87.56 322.081 92.96 318.823 97.28 318.823C100.736 318.823 103.28 322.926 104.12 324.977C100.16 325.219 91.88 326.787 91.88 332.58C91.88 337.286 94.4 340.906 100.16 340.906C102.706 340.906 105.307 339.621 108.465 338.061C113.347 335.649 119.561 332.58 128.96 332.58C142.28 332.58 152 346.337 152 356.835C152 365.234 150.56 370.713 149.84 372.403ZM31.04 350.681C20.6 355.025 13.4 366.248 10.16 372.403C9.44 370.713 8 365.234 8 356.835C8 346.337 17.72 332.58 31.04 332.58C40.4389 332.58 46.6527 335.649 51.5347 338.061C54.6933 339.621 57.2944 340.906 59.84 340.906C65.6 340.906 68.12 337.286 68.12 332.58C68.12 326.787 59.84 325.219 55.88 324.977C56.72 322.926 59.264 318.823 62.72 318.823C67.04 318.823 72.44 322.081 72.44 330.408C72.44 338.734 65.4437 345.647 52.64 347.423C48.8069 347.954 46.2841 347.949 44.1095 347.945C40.361 347.937 37.6469 347.932 31.04 350.681ZM134.72 401.003C133.88 392.917 129.335 375.23 119.24 367.334C110.025 360.126 105.724 358.023 100.772 355.602L100.772 355.602C98.76 354.618 96.6405 353.582 94.04 352.129C87.92 348.71 82.88 343.803 79.64 338.01C76.4 343.803 71.36 348.71 65.24 352.129C62.6396 353.582 60.5201 354.618 58.5081 355.602L58.5078 355.602C53.5562 358.023 49.2553 360.126 40.04 367.334C29.9447 375.23 25.4 392.917 24.56 401.003C18.68 391.107 12.32 370.954 25.28 359.732C31.4689 354.372 37.5321 353.271 45.0408 351.908C49.8449 351.036 55.2408 350.056 61.64 347.785C67.76 345.613 77.12 338.01 77.12 328.597C77.12 321.357 70.7729 314.478 62.72 314.478C62.63 314.478 62.45 314.637 62.18 314.874C61.37 315.587 59.75 317.013 57.32 317.013C54.08 317.013 52.28 315.927 52.28 315.927C56 313.151 62.7393 306.352 68.12 298.911C72.588 292.733 76.1174 285.829 78.204 281.747C78.8074 280.567 79.2901 279.623 79.64 279C79.9899 279.623 80.4726 280.567 81.076 281.747C83.1626 285.829 86.692 292.733 91.16 298.911C96.5408 306.352 103.28 313.151 107 315.927C107 315.927 105.2 317.013 101.96 317.013C99.53 317.013 97.91 315.587 97.1 314.874C96.83 314.637 96.65 314.478 96.56 314.478C88.5071 314.478 82.16 321.357 82.16 328.597C82.16 338.01 91.52 345.613 97.64 347.785C104.039 350.056 109.435 351.036 114.239 351.908L114.239 351.908C121.748 353.271 127.811 354.372 134 359.732C146.96 370.954 140.6 391.107 134.72 401.003ZM91.88 308.686C89.96 309.048 86.84 309.772 84.32 312.306C82.5414 314.095 81.5399 315.703 80.8093 316.877L80.8092 316.877C80.5046 317.366 80.2471 317.779 80 318.099C79.8018 317.842 79.5768 317.526 79.3156 317.158C78.4701 315.967 77.2453 314.242 75.32 312.306C72.8 309.772 69.68 309.048 67.76 308.686C69.44 308.445 73.304 308.107 75.32 308.686C77.336 309.265 79.4 310.858 80 311.582C80.6 310.858 82.304 309.265 84.32 308.686C86.336 308.107 90.2 308.445 91.88 308.686ZM82.52 304.704C81.08 305.79 80 307.238 80 307.238C80 307.238 79.28 305.79 77.84 304.704C76.04 303.346 73.88 302.532 73.88 302.532C73.88 302.532 76.04 300.722 77.84 297.825C79.64 294.929 80 292.033 80 292.033C80 292.033 80.72 294.929 82.52 297.825C84.32 300.722 86.48 302.532 86.48 302.532C86.48 302.532 84.32 303.346 82.52 304.704Z" fill="#1FB18E"/>
<path fill-rule="evenodd" clip-rule="evenodd" d="M109.52 224.195C109.52 236.562 105.2 245.884 103.04 249C110.96 249 126.8 238.215 126.8 218.803C126.8 194.645 95.48 182.853 86.48 182.853C87.5634 184.07 88.7996 185.373 90.124 186.769C98.1879 195.268 109.52 207.212 109.52 224.195ZM50.84 224.195C50.84 236.562 55.16 245.884 57.32 249C49.4 249 33.56 238.215 33.56 218.803C33.56 194.645 64.88 182.853 73.88 182.853C72.7966 184.07 71.5604 185.373 70.236 186.769C62.1721 195.268 50.84 207.212 50.84 224.195ZM149.84 199.749C146.6 193.638 139.4 182.494 128.96 178.18C122.353 175.45 119.639 175.455 115.891 175.463H115.89C113.716 175.467 111.193 175.472 107.36 174.944C94.5563 173.181 87.56 166.316 87.56 158.048C87.56 149.78 92.96 146.544 97.28 146.544C100.736 146.544 103.28 150.619 104.12 152.656C100.16 152.895 91.88 154.453 91.88 160.205C91.88 164.878 94.4 168.473 100.16 168.473C102.706 168.473 105.307 167.197 108.465 165.648C113.347 163.253 119.561 160.205 128.96 160.205C142.28 160.205 152 173.866 152 184.291C152 192.631 150.56 198.072 149.84 199.749ZM31.04 178.18C20.6 182.494 13.4 193.638 10.16 199.749C9.44 198.072 8 192.631 8 184.291C8 173.866 17.72 160.205 31.04 160.205C40.4389 160.205 46.6527 163.253 51.5347 165.648C54.6933 167.197 57.2944 168.473 59.84 168.473C65.6 168.473 68.12 164.878 68.12 160.205C68.12 154.453 59.84 152.895 55.88 152.656C56.72 150.619 59.264 146.544 62.72 146.544C67.04 146.544 72.44 149.78 72.44 158.048C72.44 166.316 65.4437 173.181 52.64 174.944C48.807 175.472 46.2842 175.467 44.1095 175.463H44.1095C40.361 175.455 37.6469 175.45 31.04 178.18ZM134.72 228.149C133.88 220.121 129.335 202.557 119.24 194.716C110.025 187.559 105.724 185.471 100.772 183.067L100.772 183.066C98.7599 182.089 96.6404 181.06 94.04 179.618C87.92 176.223 82.88 171.349 79.64 165.597C76.4 171.349 71.36 176.223 65.24 179.618C62.6395 181.06 60.5199 182.09 58.5078 183.067C53.5562 185.471 49.2553 187.559 40.04 194.716C29.9447 202.557 25.4 220.121 24.56 228.149C18.68 218.323 12.32 198.311 25.28 187.167C31.4689 181.845 37.5321 180.752 45.0408 179.398L45.041 179.398C49.8451 178.532 55.2409 177.559 61.64 175.304C67.76 173.147 77.12 165.597 77.12 156.251C77.12 149.061 70.7729 142.23 62.72 142.23C62.63 142.23 62.45 142.388 62.18 142.624L62.18 142.624C61.37 143.331 59.75 144.747 57.32 144.747C54.08 144.747 52.28 143.668 52.28 143.668C56 140.912 62.7393 134.16 68.12 126.772C72.5881 120.637 76.1174 113.781 78.204 109.728L78.2042 109.728C78.8075 108.556 79.2901 107.618 79.64 107C79.9899 107.618 80.4726 108.556 81.076 109.728C83.1626 113.781 86.692 120.637 91.16 126.772C96.5408 134.16 103.28 140.912 107 143.668C107 143.668 105.2 144.747 101.96 144.747C99.53 144.747 97.91 143.331 97.1 142.624C96.83 142.388 96.65 142.23 96.56 142.23C88.5071 142.23 82.16 149.061 82.16 156.251C82.16 165.597 91.52 173.147 97.64 175.304C104.039 177.559 109.435 178.532 114.239 179.398C121.748 180.752 127.811 181.845 134 187.167C146.96 198.311 140.6 218.323 134.72 228.149ZM91.88 136.478C89.96 136.838 86.84 137.557 84.32 140.073C82.5414 141.849 81.5399 143.447 80.8093 144.612L80.8092 144.612L80.809 144.612C80.5045 145.098 80.2471 145.508 80 145.825C79.8019 145.571 79.5771 145.257 79.3161 144.892L79.3157 144.891L79.3156 144.891C78.4702 143.709 77.2453 141.996 75.32 140.073C72.8 137.557 69.68 136.838 67.76 136.478C69.44 136.239 73.304 135.903 75.32 136.478C77.336 137.054 79.4 138.635 80 139.354C80.6 138.635 82.304 137.054 84.32 136.478C86.336 135.903 90.2 136.239 91.88 136.478ZM82.52 132.524C81.08 133.603 80 135.041 80 135.041C80 135.041 79.28 133.603 77.84 132.524C76.04 131.176 73.88 130.367 73.88 130.367C73.88 130.367 76.04 128.57 77.84 125.694C79.64 122.818 80 119.942 80 119.942C80 119.942 80.72 122.818 82.52 125.694C84.32 128.57 86.48 130.367 86.48 130.367C86.48 130.367 84.32 131.176 82.52 132.524Z" fill="#1FB18E"/>
<path fill-rule="evenodd" clip-rule="evenodd" d="M109.52 51.1949C109.52 63.5615 105.2 72.8844 103.04 76C110.96 76 126.8 65.2152 126.8 45.8025C126.8 21.6446 95.48 9.85316 86.48 9.85316C87.5634 11.0703 88.7996 12.3732 90.124 13.7691C98.1879 22.2682 109.52 34.212 109.52 51.1949ZM50.84 51.1949C50.84 63.5615 55.16 72.8844 57.32 76C49.4 76 33.56 65.2152 33.56 45.8025C33.56 21.6446 64.88 9.85316 73.88 9.85316C72.7966 11.0703 71.5604 12.3732 70.236 13.7691C62.1721 22.2682 50.84 34.212 50.84 51.1949ZM149.84 26.7494C146.6 20.638 139.4 9.49367 128.96 5.17974C122.353 2.44968 119.639 2.45517 115.891 2.46275H115.89C113.716 2.46715 111.193 2.47224 107.36 1.9443C94.5563 0.180748 87.56 -6.68355 87.56 -14.9519C87.56 -23.2203 92.96 -26.4557 97.28 -26.4557C100.736 -26.4557 103.28 -22.3814 104.12 -20.3443C100.16 -20.1046 91.88 -18.5468 91.88 -12.7949C91.88 -8.12152 94.4 -4.52659 100.16 -4.52659C102.706 -4.52659 105.307 -5.80255 108.465 -7.35199C113.347 -9.74681 119.561 -12.7949 128.96 -12.7949C142.28 -12.7949 152 0.865814 152 11.2911C152 19.6314 150.56 25.0717 149.84 26.7494ZM31.04 5.17974C20.6 9.49367 13.4 20.638 10.16 26.7494C9.44 25.0717 8 19.6314 8 11.2911C8 0.865814 17.72 -12.7949 31.04 -12.7949C40.4389 -12.7949 46.6527 -9.74681 51.5347 -7.35199C54.6933 -5.80255 57.2944 -4.52659 59.84 -4.52659C65.6 -4.52659 68.12 -8.12152 68.12 -12.7949C68.12 -18.5468 59.84 -20.1046 55.88 -20.3443C56.72 -22.3814 59.264 -26.4557 62.72 -26.4557C67.04 -26.4557 72.44 -23.2203 72.44 -14.9519C72.44 -6.68355 65.4437 0.180748 52.64 1.9443C48.807 2.47224 46.2842 2.46715 44.1095 2.46275H44.1095C40.361 2.45517 37.6469 2.44968 31.04 5.17974ZM134.72 55.1494C133.88 47.1207 129.335 29.5573 119.24 21.7165C110.025 14.5591 105.724 12.4708 100.772 10.0666L100.772 10.0664C98.7599 9.08949 96.6404 8.06035 94.04 6.61772C87.92 3.2225 82.88 -1.65063 79.64 -7.40253C76.4 -1.65063 71.36 3.2225 65.24 6.61772C62.6395 8.0604 60.5199 9.08957 58.5078 10.0666C53.5562 12.4708 49.2553 14.5591 40.04 21.7165C29.9447 29.5573 25.4 47.1207 24.56 55.1494C18.68 45.3232 12.32 25.3114 25.28 14.1671C31.4689 8.84525 37.5321 7.75204 45.0408 6.39822L45.041 6.3982C49.8451 5.53201 55.2409 4.55913 61.64 2.3038C67.76 0.146835 77.12 -7.40253 77.12 -16.7494C77.12 -23.9392 70.7729 -30.7696 62.72 -30.7696C62.63 -30.7696 62.45 -30.6124 62.18 -30.3765L62.18 -30.3764C61.37 -29.6687 59.75 -28.2532 57.32 -28.2532C54.08 -28.2532 52.28 -29.3316 52.28 -29.3316C56 -32.0878 62.7393 -38.8397 68.12 -46.2278C72.5881 -52.3628 76.1174 -59.2188 78.204 -63.2721L78.2042 -63.2723C78.8075 -64.4442 79.2901 -65.3819 79.64 -66C79.9899 -65.3818 80.4726 -64.4441 81.076 -63.2721C83.1626 -59.2188 86.692 -52.3628 91.16 -46.2278C96.5408 -38.8397 103.28 -32.0878 107 -29.3316C107 -29.3316 105.2 -28.2532 101.96 -28.2532C99.53 -28.2532 97.91 -29.6687 97.1 -30.3764C96.83 -30.6123 96.65 -30.7696 96.56 -30.7696C88.5071 -30.7696 82.16 -23.9392 82.16 -16.7494C82.16 -7.40253 91.52 0.146835 97.64 2.3038C104.039 4.55914 109.435 5.53203 114.239 6.39822C121.748 7.75205 127.811 8.84525 134 14.1671C146.96 25.3114 140.6 45.3232 134.72 55.1494ZM91.88 -36.5215C89.96 -36.162 86.84 -35.443 84.32 -32.9266C82.5414 -31.1505 81.5399 -29.5535 80.8093 -28.3884L80.8092 -28.3883L80.809 -28.3879C80.5045 -27.9024 80.2471 -27.4919 80 -27.1747C79.8019 -27.429 79.5771 -27.7434 79.3161 -28.1083L79.3157 -28.1088L79.3156 -28.109C78.4702 -29.2912 77.2453 -31.004 75.32 -32.9266C72.8 -35.443 69.68 -36.162 67.76 -36.5215C69.44 -36.7612 73.304 -37.0967 75.32 -36.5215C77.336 -35.9463 79.4 -34.3646 80 -33.6456C80.6 -34.3646 82.304 -35.9463 84.32 -36.5215C86.336 -37.0967 90.2 -36.7612 91.88 -36.5215ZM82.52 -40.476C81.08 -39.3975 80 -37.9595 80 -37.9595C80 -37.9595 79.28 -39.3975 77.84 -40.476C76.04 -41.8241 73.88 -42.6329 73.88 -42.6329C73.88 -42.6329 76.04 -44.4304 77.84 -47.3063C79.64 -50.1823 80 -53.0582 80 -53.0582C80 -53.0582 80.72 -50.1823 82.52 -47.3063C84.32 -44.4304 86.48 -42.6329 86.48 -42.6329C86.48 -42.6329 84.32 -41.8241 82.52 -40.476Z" fill="#1FB18E"/>
</g>
</g>
</svg>
