<svg width="17" height="338" viewBox="0 0 17 338" fill="none" xmlns="http://www.w3.org/2000/svg">
<g opacity="0.06">
<mask id="mask0_1230_10806" style="mask-type:alpha" maskUnits="userSpaceOnUse" x="0" y="0" width="17" height="338">
<rect x="17" y="338" width="16.9" height="338" transform="rotate(180 17 338)" fill="#C4C4C4"/>
</mask>
<g mask="url(#mask0_1230_10806)">
<path fill-rule="evenodd" clip-rule="evenodd" d="M23.2361 302.551C23.2361 305.163 22.3235 307.133 21.8672 307.791C23.5403 307.791 26.8865 305.513 26.8865 301.412C26.8865 296.308 20.2701 293.817 18.3689 293.817C18.5977 294.075 18.8589 294.35 19.1387 294.645C20.8422 296.44 23.2361 298.963 23.2361 302.551ZM10.8399 302.551C10.8399 305.163 11.7525 307.133 12.2088 307.791C10.5357 307.791 7.18952 305.513 7.18952 301.412C7.18952 296.308 13.8059 293.817 15.7071 293.817C15.4783 294.075 15.2171 294.35 14.9373 294.645C13.2338 296.44 10.8399 298.963 10.8399 302.551ZM31.7537 297.387C31.0692 296.096 29.5482 293.741 27.3428 292.83C25.947 292.253 25.3737 292.255 24.5818 292.256C24.1224 292.257 23.5895 292.258 22.7798 292.147C20.075 291.774 18.597 290.324 18.597 288.577C18.597 286.831 19.7378 286.147 20.6504 286.147C21.3804 286.147 21.9179 287.008 22.0953 287.438C21.2588 287.489 19.5096 287.818 19.5096 289.033C19.5096 290.02 20.042 290.78 21.2588 290.78C21.7965 290.78 22.346 290.51 23.0133 290.183C24.0446 289.677 25.3572 289.033 27.3428 289.033C30.1566 289.033 32.21 291.919 32.21 294.121C32.21 295.883 31.9058 297.032 31.7537 297.387ZM6.65716 292.83C4.45171 293.741 2.93071 296.096 2.24626 297.387C2.09416 297.032 1.78996 295.883 1.78996 294.121C1.78996 291.919 3.84331 289.033 6.65716 289.033C8.64268 289.033 9.95535 289.677 10.9867 290.183C11.6539 290.51 12.2034 290.78 12.7412 290.78C13.958 290.78 14.4903 290.02 14.4903 289.033C14.4903 287.818 12.7412 287.489 11.9046 287.438C12.0821 287.008 12.6195 286.147 13.3496 286.147C14.2622 286.147 15.4029 286.831 15.4029 288.577C15.4029 290.324 13.9249 291.774 11.2202 292.147C10.4104 292.258 9.87748 292.257 9.41809 292.256C8.62623 292.255 8.05288 292.253 6.65716 292.83ZM28.5596 303.386C28.3821 301.69 27.4221 297.98 25.2894 296.323C23.3427 294.811 22.4342 294.37 21.3881 293.862C20.9631 293.656 20.5153 293.438 19.9659 293.134C18.6731 292.416 17.6084 291.387 16.9239 290.172C16.2395 291.387 15.1748 292.416 13.8819 293.134C13.3326 293.438 12.8848 293.656 12.4598 293.862C11.4137 294.37 10.5052 294.811 8.55844 296.323C6.42581 297.98 5.46574 301.69 5.28829 303.386C4.04613 301.31 2.70259 297.083 5.44039 294.728C6.7478 293.604 8.02864 293.373 9.61486 293.087C10.6297 292.904 11.7696 292.699 13.1214 292.222C14.4143 291.767 16.3916 290.172 16.3916 288.197C16.3916 286.678 15.0508 285.236 13.3496 285.236C13.3306 285.236 13.2926 285.269 13.2355 285.319C13.0644 285.468 12.7222 285.767 12.2088 285.767C11.5244 285.767 11.1441 285.539 11.1441 285.539C11.93 284.957 13.3537 283.531 14.4903 281.97C15.4342 280.674 16.1798 279.226 16.6206 278.369C16.7481 278.122 16.85 277.924 16.9239 277.793C16.9979 277.924 17.0998 278.122 17.2273 278.369L17.2273 278.369L17.2273 278.369C17.6681 279.226 18.4137 280.674 19.3575 281.97C20.4942 283.531 21.9179 284.957 22.7037 285.539C22.7037 285.539 22.3235 285.767 21.639 285.767C21.1257 285.767 20.7835 285.468 20.6124 285.319C20.5553 285.269 20.5173 285.236 20.4983 285.236C18.7971 285.236 17.4563 286.678 17.4563 288.197C17.4563 290.172 19.4336 291.767 20.7264 292.222C22.0783 292.699 23.2181 292.904 24.233 293.087C25.8192 293.373 27.1001 293.604 28.4075 294.728C31.1453 297.083 29.8017 301.31 28.5596 303.386ZM19.5096 284.02C19.104 284.096 18.4449 284.248 17.9126 284.78C17.5369 285.155 17.3253 285.492 17.171 285.739C17.1066 285.841 17.0522 285.928 17 285.995C16.9581 285.941 16.9106 285.875 16.8554 285.798C16.6768 285.548 16.4181 285.186 16.0113 284.78C15.479 284.248 14.8199 284.096 14.4143 284.02C14.7692 283.97 15.5855 283.899 16.0113 284.02C16.4372 284.142 16.8732 284.476 17 284.628C17.1267 284.476 17.4867 284.142 17.9126 284.02C18.3385 283.899 19.1547 283.97 19.5096 284.02ZM17.5323 283.185C17.2281 283.413 17 283.717 17 283.717C17 283.717 16.8479 283.413 16.5437 283.185C16.1634 282.9 15.7071 282.729 15.7071 282.729C15.7071 282.729 16.1634 282.35 16.5437 281.742C16.9239 281.135 17 280.527 17 280.527C17 280.527 17.1521 281.135 17.5323 281.742C17.9126 282.35 18.3689 282.729 18.3689 282.729C18.3689 282.729 17.9126 282.9 17.5323 283.185Z" fill="#1FB18E"/>
<path fill-rule="evenodd" clip-rule="evenodd" d="M23.2361 266.179C23.2361 268.81 22.3235 270.793 21.8672 271.456C23.5403 271.456 26.8865 269.162 26.8865 265.032C26.8865 259.893 20.2701 257.384 18.3689 257.384C18.5977 257.643 18.8589 257.92 19.1387 258.217C20.8422 260.025 23.2361 262.566 23.2361 266.179ZM10.8399 266.179C10.8399 268.81 11.7525 270.793 12.2088 271.456C10.5357 271.456 7.18952 269.162 7.18952 265.032C7.18952 259.893 13.8059 257.384 15.7071 257.384C15.4783 257.643 15.2171 257.92 14.9374 258.217L14.9373 258.217C13.2338 260.025 10.8399 262.566 10.8399 266.179ZM31.7537 260.979C31.0692 259.678 29.5482 257.308 27.3428 256.39C25.947 255.809 25.3737 255.81 24.5818 255.812C24.1224 255.813 23.5895 255.814 22.7798 255.702C20.075 255.326 18.597 253.866 18.597 252.107C18.597 250.348 19.7378 249.66 20.6504 249.66C21.3804 249.66 21.9179 250.527 22.0953 250.96C21.2588 251.011 19.5096 251.342 19.5096 252.566C19.5096 253.56 20.042 254.325 21.2588 254.325C21.7965 254.325 22.346 254.054 23.0133 253.724C24.0446 253.214 25.3572 252.566 27.3428 252.566C30.1566 252.566 32.21 255.472 32.21 257.69C32.21 259.464 31.9058 260.622 31.7537 260.979ZM6.65716 256.39C4.45171 257.308 2.93071 259.678 2.24626 260.979C2.09416 260.622 1.78996 259.464 1.78996 257.69C1.78996 255.472 3.84331 252.566 6.65716 252.566C8.64268 252.566 9.95535 253.214 10.9867 253.724C11.6539 254.054 12.2034 254.325 12.7412 254.325C13.958 254.325 14.4903 253.56 14.4903 252.566C14.4903 251.342 12.7412 251.011 11.9046 250.96C12.0821 250.527 12.6195 249.66 13.3496 249.66C14.2622 249.66 15.4029 250.348 15.4029 252.107C15.4029 253.866 13.9249 255.326 11.2202 255.702C10.4104 255.814 9.87748 255.813 9.41809 255.812C8.62623 255.81 8.05288 255.809 6.65716 256.39ZM28.5596 267.02C28.3821 265.312 27.422 261.576 25.2894 259.908C23.3427 258.385 22.4341 257.941 21.3881 257.43C20.963 257.222 20.5153 257.003 19.9659 256.696C18.6731 255.974 17.6084 254.937 16.9239 253.713C16.2395 254.937 15.1748 255.974 13.8819 256.696C13.3325 257.003 12.8848 257.222 12.4597 257.43C11.4137 257.941 10.5051 258.385 8.5584 259.908C6.42577 261.576 5.4657 265.312 5.28825 267.02C4.04609 264.93 2.70255 260.673 5.44035 258.302C6.74776 257.17 8.0286 256.937 9.61482 256.649L9.61485 256.649C10.6297 256.465 11.7696 256.258 13.1214 255.778C14.4142 255.319 16.3915 253.713 16.3915 251.725C16.3915 250.195 15.0507 248.742 13.3495 248.742C13.3305 248.742 13.2925 248.776 13.2355 248.826C13.0644 248.976 12.7221 249.278 12.2088 249.278C11.5243 249.278 11.1441 249.048 11.1441 249.048C11.9299 248.462 13.3536 247.025 14.4903 245.454C15.4342 244.149 16.1798 242.69 16.6206 241.828L16.6206 241.828C16.748 241.578 16.85 241.379 16.9239 241.247C16.9978 241.379 17.0998 241.578 17.2272 241.828C17.668 242.69 18.4136 244.149 19.3575 245.454C20.4942 247.025 21.9179 248.462 22.7037 249.048C22.7037 249.048 22.3235 249.278 21.639 249.278C21.1257 249.278 20.7834 248.976 20.6123 248.826C20.5553 248.776 20.5173 248.742 20.4983 248.742C18.7971 248.742 17.4563 250.195 17.4563 251.725C17.4563 253.713 19.4336 255.319 20.7264 255.778C22.0782 256.258 23.2181 256.465 24.233 256.649L24.233 256.649C25.8192 256.937 27.1 257.17 28.4075 258.302C31.1453 260.673 29.8017 264.93 28.5596 267.02ZM19.5096 247.518C19.104 247.595 18.4449 247.748 17.9126 248.283C17.5369 248.661 17.3253 249.001 17.171 249.249C17.1066 249.352 17.0522 249.439 17 249.507C16.9581 249.453 16.9106 249.386 16.8554 249.308C16.6768 249.057 16.4181 248.692 16.0114 248.283C15.479 247.748 14.8199 247.595 14.4143 247.518C14.7692 247.467 15.5855 247.396 16.0114 247.518C16.4372 247.641 16.8732 247.977 17 248.13C17.1267 247.977 17.4867 247.641 17.9126 247.518C18.3385 247.396 19.1547 247.467 19.5096 247.518ZM17.5323 246.677C17.2281 246.907 17 247.213 17 247.213C17 247.213 16.8479 246.907 16.5437 246.677C16.1634 246.39 15.7071 246.218 15.7071 246.218C15.7071 246.218 16.1634 245.836 16.5437 245.224C16.9239 244.612 17 244 17 244C17 244 17.1521 244.612 17.5323 245.224C17.9126 245.836 18.3689 246.218 18.3689 246.218C18.3689 246.218 17.9126 246.39 17.5323 246.677Z" fill="#1FB18E"/>
<path fill-rule="evenodd" clip-rule="evenodd" d="M23.2361 229.67C23.2361 232.283 22.3235 234.252 21.8672 234.91C23.5403 234.91 26.8865 232.632 26.8865 228.531C26.8865 223.428 20.2701 220.937 18.3689 220.937C18.5977 221.194 18.8589 221.469 19.1387 221.764C20.8422 223.559 23.2361 226.082 23.2361 229.67ZM10.8399 229.67C10.8399 232.283 11.7525 234.252 12.2088 234.91C10.5357 234.91 7.18952 232.632 7.18952 228.531C7.18952 223.428 13.8059 220.937 15.7071 220.937C15.4783 221.194 15.2171 221.469 14.9373 221.764C13.2338 223.559 10.8399 226.082 10.8399 229.67ZM31.7537 224.506C31.0692 223.215 29.5482 220.861 27.3428 219.949C25.947 219.373 25.3737 219.374 24.5818 219.375C24.1224 219.376 23.5895 219.377 22.7798 219.266C20.075 218.893 18.597 217.443 18.597 215.696C18.597 213.95 19.7378 213.266 20.6504 213.266C21.3804 213.266 21.9179 214.127 22.0953 214.557C21.2588 214.608 19.5096 214.937 19.5096 216.152C19.5096 217.139 20.042 217.899 21.2588 217.899C21.7965 217.899 22.346 217.629 23.0133 217.302C24.0446 216.796 25.3572 216.152 27.3428 216.152C30.1566 216.152 32.21 219.038 32.21 221.24C32.21 223.002 31.9058 224.151 31.7537 224.506ZM6.65716 219.949C4.45171 220.861 2.93071 223.215 2.24626 224.506C2.09416 224.151 1.78996 223.002 1.78996 221.24C1.78996 219.038 3.84331 216.152 6.65716 216.152C8.64268 216.152 9.95535 216.796 10.9867 217.302C11.6539 217.629 12.2034 217.899 12.7412 217.899C13.958 217.899 14.4903 217.139 14.4903 216.152C14.4903 214.937 12.7412 214.608 11.9046 214.557C12.0821 214.127 12.6195 213.266 13.3496 213.266C14.2622 213.266 15.4029 213.95 15.4029 215.696C15.4029 217.443 13.9249 218.893 11.2202 219.266C10.4104 219.377 9.87748 219.376 9.41809 219.375C8.62623 219.374 8.05288 219.373 6.65716 219.949ZM28.5596 230.505C28.3821 228.809 27.4221 225.099 25.2894 223.442C23.3427 221.93 22.4342 221.489 21.3881 220.981C20.9631 220.775 20.5153 220.558 19.9659 220.253C18.6731 219.536 17.6084 218.506 16.9239 217.291C16.2395 218.506 15.1748 219.536 13.8819 220.253C13.3326 220.558 12.8848 220.775 12.4598 220.981C11.4137 221.489 10.5052 221.93 8.55844 223.442C6.42581 225.099 5.46574 228.809 5.28829 230.505C4.04613 228.429 2.70259 224.202 5.44039 221.848C6.7478 220.723 8.02864 220.492 9.61486 220.206C10.6297 220.023 11.7696 219.818 13.1214 219.341C14.4143 218.886 16.3916 217.291 16.3916 215.316C16.3916 213.798 15.0508 212.355 13.3496 212.355C13.3306 212.355 13.2926 212.388 13.2355 212.438C13.0644 212.587 12.7222 212.886 12.2088 212.886C11.5244 212.886 11.1441 212.658 11.1441 212.658C11.93 212.076 13.3537 210.65 14.4903 209.089C15.4342 207.793 16.1798 206.345 16.6206 205.489C16.7481 205.241 16.85 205.043 16.9239 204.912C16.9979 205.043 17.0998 205.241 17.2273 205.488L17.2273 205.489L17.2273 205.489C17.6681 206.345 18.4137 207.793 19.3575 209.089C20.4942 210.65 21.9179 212.076 22.7037 212.658C22.7037 212.658 22.3235 212.886 21.639 212.886C21.1257 212.886 20.7835 212.587 20.6124 212.438C20.5553 212.388 20.5173 212.355 20.4983 212.355C18.7971 212.355 17.4563 213.798 17.4563 215.316C17.4563 217.291 19.4336 218.886 20.7264 219.341C22.0783 219.818 23.2181 220.023 24.233 220.206C25.8192 220.492 27.1001 220.723 28.4075 221.848C31.1453 224.202 29.8017 228.429 28.5596 230.505ZM19.5096 211.14C19.104 211.216 18.4449 211.367 17.9126 211.899C17.5369 212.274 17.3253 212.612 17.171 212.858C17.1066 212.96 17.0522 213.047 17 213.114C16.9581 213.06 16.9106 212.994 16.8554 212.917C16.6768 212.667 16.4181 212.305 16.0113 211.899C15.479 211.367 14.8199 211.216 14.4143 211.14C14.7692 211.089 15.5855 211.018 16.0113 211.14C16.4372 211.261 16.8732 211.595 17 211.747C17.1267 211.595 17.4867 211.261 17.9126 211.14C18.3385 211.018 19.1547 211.089 19.5096 211.14ZM17.5323 210.304C17.2281 210.532 17 210.836 17 210.836C17 210.836 16.8479 210.532 16.5437 210.304C16.1634 210.019 15.7071 209.848 15.7071 209.848C15.7071 209.848 16.1634 209.469 16.5437 208.861C16.9239 208.254 17 207.646 17 207.646C17 207.646 17.1521 208.254 17.5323 208.861C17.9126 209.469 18.3689 209.848 18.3689 209.848C18.3689 209.848 17.9126 210.019 17.5323 210.304Z" fill="#1FB18E"/>
<path fill-rule="evenodd" clip-rule="evenodd" d="M23.2361 193.123C23.2361 195.736 22.3235 197.705 21.8672 198.363C23.5403 198.363 26.8865 196.085 26.8865 191.984C26.8865 186.881 20.2701 184.39 18.3689 184.39C18.5977 184.647 18.8589 184.922 19.1387 185.217C20.8422 187.012 23.2361 189.536 23.2361 193.123ZM10.8399 193.123C10.8399 195.736 11.7525 197.705 12.2088 198.363C10.5357 198.363 7.18952 196.085 7.18952 191.984C7.18952 186.881 13.8059 184.39 15.7071 184.39C15.4783 184.647 15.2171 184.922 14.9373 185.217C13.2338 187.012 10.8399 189.536 10.8399 193.123ZM31.7537 187.959C31.0692 186.668 29.5482 184.314 27.3428 183.402C25.947 182.826 25.3737 182.827 24.5818 182.828C24.1224 182.829 23.5895 182.83 22.7798 182.719C20.075 182.346 18.597 180.896 18.597 179.15C18.597 177.403 19.7378 176.719 20.6504 176.719C21.3804 176.719 21.9179 177.58 22.0953 178.01C21.2588 178.061 19.5096 178.39 19.5096 179.605C19.5096 180.593 20.042 181.352 21.2588 181.352C21.7965 181.352 22.346 181.082 23.0133 180.755C24.0446 180.249 25.3572 179.605 27.3428 179.605C30.1566 179.605 32.21 182.491 32.21 184.693C32.21 186.455 31.9058 187.605 31.7537 187.959ZM6.65716 183.402C4.45171 184.314 2.93071 186.668 2.24626 187.959C2.09416 187.605 1.78996 186.455 1.78996 184.693C1.78996 182.491 3.84331 179.605 6.65716 179.605C8.64268 179.605 9.95535 180.249 10.9867 180.755C11.6539 181.082 12.2034 181.352 12.7412 181.352C13.958 181.352 14.4903 180.593 14.4903 179.605C14.4903 178.39 12.7412 178.061 11.9046 178.01C12.0821 177.58 12.6195 176.719 13.3496 176.719C14.2622 176.719 15.4029 177.403 15.4029 179.15C15.4029 180.896 13.9249 182.346 11.2202 182.719C10.4104 182.83 9.87748 182.829 9.41809 182.828C8.62623 182.827 8.05288 182.826 6.65716 183.402ZM28.5596 193.958C28.3821 192.262 27.4221 188.552 25.2894 186.896C23.3427 185.384 22.4342 184.942 21.3881 184.434C20.9631 184.228 20.5153 184.011 19.9659 183.706C18.6731 182.989 17.6084 181.959 16.9239 180.744C16.2395 181.959 15.1748 182.989 13.8819 183.706C13.3326 184.011 12.8848 184.228 12.4598 184.434C11.4137 184.942 10.5052 185.384 8.55844 186.896C6.42581 188.552 5.46574 192.262 5.28829 193.958C4.04613 191.882 2.70259 187.655 5.44039 185.301C6.7478 184.176 8.02864 183.946 9.61486 183.66C10.6297 183.477 11.7696 183.271 13.1214 182.795C14.4143 182.339 16.3916 180.744 16.3916 178.77C16.3916 177.251 15.0508 175.808 13.3496 175.808C13.3306 175.808 13.2926 175.841 13.2355 175.891C13.0644 176.04 12.7222 176.339 12.2088 176.339C11.5244 176.339 11.1441 176.112 11.1441 176.112C11.93 175.529 13.3537 174.103 14.4903 172.542C15.4342 171.246 16.1798 169.798 16.6206 168.942C16.7481 168.694 16.85 168.496 16.9239 168.365C16.9979 168.496 17.0998 168.694 17.2273 168.942L17.2273 168.942L17.2273 168.942C17.6681 169.798 18.4137 171.246 19.3575 172.542C20.4942 174.103 21.9179 175.529 22.7037 176.112C22.7037 176.112 22.3235 176.339 21.639 176.339C21.1257 176.339 20.7835 176.04 20.6124 175.891C20.5553 175.841 20.5173 175.808 20.4983 175.808C18.7971 175.808 17.4563 177.251 17.4563 178.77C17.4563 180.744 19.4336 182.339 20.7264 182.795C22.0783 183.271 23.2181 183.477 24.233 183.66C25.8192 183.946 27.1001 184.176 28.4075 185.301C31.1453 187.655 29.8017 191.882 28.5596 193.958ZM19.5096 174.593C19.104 174.669 18.4449 174.821 17.9126 175.352C17.5369 175.727 17.3253 176.065 17.171 176.311C17.1066 176.413 17.0522 176.5 17 176.567C16.9581 176.513 16.9106 176.447 16.8554 176.37C16.6768 176.12 16.4181 175.758 16.0113 175.352C15.479 174.821 14.8199 174.669 14.4143 174.593C14.7692 174.542 15.5855 174.471 16.0113 174.593C16.4372 174.714 16.8732 175.048 17 175.2C17.1267 175.048 17.4867 174.714 17.9126 174.593C18.3385 174.471 19.1547 174.542 19.5096 174.593ZM17.5323 173.757C17.2281 173.985 17 174.289 17 174.289C17 174.289 16.8479 173.985 16.5437 173.757C16.1634 173.472 15.7071 173.302 15.7071 173.302C15.7071 173.302 16.1634 172.922 16.5437 172.314C16.9239 171.707 17 171.099 17 171.099C17 171.099 17.1521 171.707 17.5323 172.314C17.9126 172.922 18.3689 173.302 18.3689 173.302C18.3689 173.302 17.9126 173.472 17.5323 173.757Z" fill="#1FB18E"/>
<path fill-rule="evenodd" clip-rule="evenodd" d="M23.2361 156.751C23.2361 159.382 22.3235 161.366 21.8672 162.028C23.5403 162.028 26.8865 159.734 26.8865 155.604C26.8865 150.465 20.2701 147.956 18.3689 147.956C18.5977 148.215 18.8589 148.493 19.1387 148.789C20.8422 150.598 23.2361 153.138 23.2361 156.751ZM10.8399 156.751C10.8399 159.382 11.7525 161.366 12.2088 162.028C10.5357 162.028 7.18952 159.734 7.18952 155.604C7.18952 150.465 13.8059 147.956 15.7071 147.956C15.4783 148.215 15.2171 148.492 14.9374 148.789L14.9373 148.789C13.2338 150.598 10.8399 153.138 10.8399 156.751ZM31.7537 151.551C31.0692 150.251 29.5482 147.88 27.3428 146.962C25.947 146.381 25.3737 146.383 24.5818 146.384C24.1224 146.385 23.5895 146.386 22.7798 146.274C20.075 145.899 18.597 144.438 18.597 142.679C18.597 140.92 19.7378 140.232 20.6504 140.232C21.3804 140.232 21.9179 141.099 22.0953 141.532C21.2588 141.583 19.5096 141.915 19.5096 143.138C19.5096 144.132 20.042 144.897 21.2588 144.897C21.7965 144.897 22.346 144.626 23.0133 144.296C24.0446 143.787 25.3572 143.138 27.3428 143.138C30.1566 143.138 32.21 146.044 32.21 148.262C32.21 150.037 31.9058 151.194 31.7537 151.551ZM6.65716 146.962C4.45171 147.88 2.93071 150.251 2.24626 151.551C2.09416 151.194 1.78996 150.037 1.78996 148.262C1.78996 146.044 3.84331 143.138 6.65716 143.138C8.64268 143.138 9.95535 143.787 10.9867 144.296C11.6539 144.626 12.2034 144.897 12.7412 144.897C13.958 144.897 14.4903 144.132 14.4903 143.138C14.4903 141.915 12.7412 141.583 11.9046 141.532C12.0821 141.099 12.6195 140.232 13.3496 140.232C14.2622 140.232 15.4029 140.92 15.4029 142.679C15.4029 144.438 13.9249 145.899 11.2202 146.274C10.4104 146.386 9.87748 146.385 9.41809 146.384C8.62623 146.383 8.05288 146.381 6.65716 146.962ZM28.5596 157.593C28.3821 155.885 27.422 152.148 25.2894 150.48C23.3427 148.958 22.4341 148.513 21.3881 148.002C20.963 147.794 20.5153 147.575 19.9659 147.268C18.6731 146.546 17.6084 145.509 16.9239 144.286C16.2395 145.509 15.1748 146.546 13.8819 147.268C13.3325 147.575 12.8848 147.794 12.4597 148.002C11.4137 148.513 10.5051 148.958 8.5584 150.48C6.42577 152.148 5.4657 155.885 5.28825 157.593C4.04609 155.502 2.70255 151.245 5.44035 148.874C6.74776 147.742 8.0286 147.509 9.61482 147.221L9.61485 147.221C10.6297 147.037 11.7696 146.83 13.1214 146.35C14.4142 145.892 16.3915 144.286 16.3915 142.297C16.3915 140.768 15.0507 139.314 13.3495 139.314C13.3305 139.314 13.2925 139.348 13.2355 139.398C13.0644 139.549 12.7221 139.85 12.2088 139.85C11.5243 139.85 11.1441 139.62 11.1441 139.62C11.9299 139.034 13.3536 137.598 14.4903 136.026C15.4342 134.721 16.1798 133.262 16.6206 132.4L16.6206 132.4C16.748 132.151 16.85 131.951 16.9239 131.82C16.9978 131.951 17.0998 132.151 17.2272 132.4C17.668 133.262 18.4136 134.721 19.3575 136.026C20.4942 137.598 21.9179 139.034 22.7037 139.62C22.7037 139.62 22.3235 139.85 21.639 139.85C21.1257 139.85 20.7834 139.549 20.6123 139.398C20.5553 139.348 20.5173 139.314 20.4983 139.314C18.7971 139.314 17.4563 140.768 17.4563 142.297C17.4563 144.286 19.4336 145.892 20.7264 146.35C22.0782 146.83 23.2181 147.037 24.233 147.221L24.233 147.221C25.8192 147.509 27.1 147.742 28.4075 148.874C31.1453 151.245 29.8017 155.502 28.5596 157.593ZM19.5096 138.091C19.104 138.167 18.4449 138.32 17.9126 138.855C17.5369 139.233 17.3253 139.573 17.171 139.821C17.1066 139.924 17.0522 140.012 17 140.079C16.9581 140.025 16.9106 139.958 16.8554 139.88C16.6768 139.629 16.4181 139.264 16.0114 138.855C15.479 138.32 14.8199 138.167 14.4143 138.091C14.7692 138.04 15.5855 137.968 16.0114 138.091C16.4372 138.213 16.8732 138.55 17 138.702C17.1267 138.55 17.4867 138.213 17.9126 138.091C18.3385 137.968 19.1547 138.04 19.5096 138.091ZM17.5323 137.249C17.2281 137.479 17 137.785 17 137.785C17 137.785 16.8479 137.479 16.5437 137.249C16.1634 136.963 15.7071 136.791 15.7071 136.791C15.7071 136.791 16.1634 136.408 16.5437 135.796C16.9239 135.185 17 134.573 17 134.573C17 134.573 17.1521 135.185 17.5323 135.796C17.9126 136.408 18.3689 136.791 18.3689 136.791C18.3689 136.791 17.9126 136.963 17.5323 137.249Z" fill="#1FB18E"/>
<path fill-rule="evenodd" clip-rule="evenodd" d="M23.2361 120.242C23.2361 122.855 22.3235 124.824 21.8672 125.482C23.5403 125.482 26.8865 123.204 26.8865 119.103C26.8865 114 20.2701 111.509 18.3689 111.509C18.5977 111.766 18.8589 112.041 19.1387 112.336C20.8422 114.132 23.2361 116.655 23.2361 120.242ZM10.8399 120.242C10.8399 122.855 11.7525 124.824 12.2088 125.482C10.5357 125.482 7.18952 123.204 7.18952 119.103C7.18952 114 13.8059 111.509 15.7071 111.509C15.4783 111.766 15.2171 112.041 14.9373 112.336C13.2338 114.132 10.8399 116.655 10.8399 120.242ZM31.7537 115.078C31.0692 113.787 29.5482 111.433 27.3428 110.522C25.947 109.945 25.3737 109.946 24.5818 109.948C24.1224 109.949 23.5895 109.95 22.7798 109.838C20.075 109.466 18.597 108.015 18.597 106.269C18.597 104.522 19.7378 103.839 20.6504 103.839C21.3804 103.839 21.9179 104.699 22.0953 105.13C21.2588 105.18 19.5096 105.509 19.5096 106.724C19.5096 107.712 20.042 108.471 21.2588 108.471C21.7965 108.471 22.346 108.202 23.0133 107.874C24.0446 107.368 25.3572 106.724 27.3428 106.724C30.1566 106.724 32.21 109.61 32.21 111.813C32.21 113.574 31.9058 114.724 31.7537 115.078ZM6.65716 110.522C4.45171 111.433 2.93071 113.787 2.24626 115.078C2.09416 114.724 1.78996 113.574 1.78996 111.813C1.78996 109.61 3.84331 106.724 6.65716 106.724C8.64268 106.724 9.95535 107.368 10.9867 107.874C11.6539 108.202 12.2034 108.471 12.7412 108.471C13.958 108.471 14.4903 107.712 14.4903 106.724C14.4903 105.509 12.7412 105.18 11.9046 105.13C12.0821 104.699 12.6195 103.839 13.3496 103.839C14.2622 103.839 15.4029 104.522 15.4029 106.269C15.4029 108.015 13.9249 109.466 11.2202 109.838C10.4104 109.95 9.87748 109.949 9.41809 109.948C8.62623 109.946 8.05288 109.945 6.65716 110.522ZM28.5596 121.077C28.3821 119.381 27.4221 115.671 25.2894 114.015C23.3427 112.503 22.4342 112.061 21.3881 111.554C20.9631 111.347 20.5153 111.13 19.9659 110.825C18.6731 110.108 17.6084 109.078 16.9239 107.863C16.2395 109.078 15.1748 110.108 13.8819 110.825C13.3326 111.13 12.8848 111.347 12.4598 111.554C11.4137 112.061 10.5052 112.503 8.55844 114.015C6.42581 115.671 5.46574 119.381 5.28829 121.077C4.04613 119.002 2.70259 114.774 5.44039 112.42C6.7478 111.296 8.02864 111.065 9.61486 110.779C10.6297 110.596 11.7696 110.39 13.1214 109.914C14.4143 109.458 16.3916 107.863 16.3916 105.889C16.3916 104.37 15.0508 102.927 13.3496 102.927C13.3306 102.927 13.2926 102.96 13.2355 103.01C13.0644 103.16 12.7222 103.459 12.2088 103.459C11.5244 103.459 11.1441 103.231 11.1441 103.231C11.93 102.649 13.3537 101.222 14.4903 99.6614C15.4342 98.3654 16.1798 96.9171 16.6206 96.0608C16.7481 95.8132 16.85 95.6151 16.9239 95.4845C16.9979 95.6151 17.0998 95.8132 17.2273 96.0608L17.2273 96.0608L17.2273 96.0608C17.6681 96.9171 18.4137 98.3654 19.3575 99.6614C20.4942 101.222 21.9179 102.649 22.7037 103.231C22.7037 103.231 22.3235 103.459 21.639 103.459C21.1257 103.459 20.7835 103.16 20.6124 103.01C20.5553 102.96 20.5173 102.927 20.4983 102.927C18.7971 102.927 17.4563 104.37 17.4563 105.889C17.4563 107.863 19.4336 109.458 20.7264 109.914C22.0783 110.39 23.2181 110.596 24.233 110.779C25.8192 111.065 27.1001 111.296 28.4075 112.42C31.1453 114.774 29.8017 119.002 28.5596 121.077ZM19.5096 101.712C19.104 101.788 18.4449 101.94 17.9126 102.471C17.5369 102.846 17.3253 103.184 17.171 103.43C17.1066 103.533 17.0522 103.619 17 103.686C16.9581 103.633 16.9106 103.566 16.8554 103.489C16.6768 103.239 16.4181 102.877 16.0113 102.471C15.479 101.94 14.8199 101.788 14.4143 101.712C14.7692 101.661 15.5855 101.59 16.0113 101.712C16.4372 101.833 16.8732 102.167 17 102.319C17.1267 102.167 17.4867 101.833 17.9126 101.712C18.3385 101.59 19.1547 101.661 19.5096 101.712ZM17.5323 100.876C17.2281 101.104 17 101.408 17 101.408C17 101.408 16.8479 101.104 16.5437 100.876C16.1634 100.592 15.7071 100.421 15.7071 100.421C15.7071 100.421 16.1634 100.041 16.5437 99.4335C16.9239 98.8259 17 98.2184 17 98.2184C17 98.2184 17.1521 98.8259 17.5323 99.4335C17.9126 100.041 18.3689 100.421 18.3689 100.421C18.3689 100.421 17.9126 100.592 17.5323 100.876Z" fill="#1FB18E"/>
<path fill-rule="evenodd" clip-rule="evenodd" d="M23.2361 83.8705C23.2361 86.5013 22.3235 88.4847 21.8672 89.1475C23.5403 89.1475 26.8865 86.8531 26.8865 82.7233C26.8865 77.584 20.2701 75.0755 18.3689 75.0755C18.5977 75.3345 18.8589 75.6116 19.1387 75.9086C20.8422 77.7167 23.2361 80.2576 23.2361 83.8705ZM10.8399 83.8705C10.8399 86.5013 11.7525 88.4847 12.2088 89.1475C10.5357 89.1475 7.18952 86.8531 7.18952 82.7233C7.18952 77.584 13.8059 75.0755 15.7071 75.0755C15.4783 75.3344 15.2171 75.6116 14.9374 75.9085L14.9373 75.9086C13.2338 77.7167 10.8399 80.2576 10.8399 83.8705ZM31.7537 78.67C31.0692 77.3698 29.5482 74.999 27.3428 74.0813C25.947 73.5005 25.3737 73.5017 24.5818 73.5033C24.1224 73.5042 23.5895 73.5053 22.7798 73.393C20.075 73.0178 18.597 71.5575 18.597 69.7985C18.597 68.0395 19.7378 67.3512 20.6504 67.3512C21.3804 67.3512 21.9179 68.218 22.0953 68.6514C21.2588 68.7023 19.5096 69.0337 19.5096 70.2574C19.5096 71.2516 20.042 72.0164 21.2588 72.0164C21.7965 72.0164 22.346 71.7449 23.0133 71.4153C24.0446 70.9058 25.3572 70.2574 27.3428 70.2574C30.1566 70.2574 32.21 73.1635 32.21 75.3814C32.21 77.1557 31.9058 78.3131 31.7537 78.67ZM6.65716 74.0813C4.45171 74.999 2.93071 77.3698 2.24626 78.67C2.09416 78.3131 1.78996 77.1557 1.78996 75.3814C1.78996 73.1635 3.84331 70.2574 6.65716 70.2574C8.64268 70.2574 9.95535 70.9058 10.9867 71.4153C11.6539 71.7449 12.2034 72.0164 12.7412 72.0164C13.958 72.0164 14.4903 71.2516 14.4903 70.2574C14.4903 69.0337 12.7412 68.7023 11.9046 68.6514C12.0821 68.218 12.6195 67.3512 13.3496 67.3512C14.2622 67.3512 15.4029 68.0395 15.4029 69.7985C15.4029 71.5575 13.9249 73.0178 11.2202 73.393C10.4104 73.5053 9.87748 73.5042 9.41809 73.5033C8.62623 73.5017 8.05288 73.5005 6.65716 74.0813ZM28.5596 84.7118C28.3821 83.0038 27.422 79.2674 25.2894 77.5994C23.3427 76.0767 22.4341 75.6325 21.3881 75.121C20.963 74.9132 20.5153 74.6942 19.9659 74.3873C18.6731 73.665 17.6084 72.6283 16.9239 71.4047C16.2395 72.6283 15.1748 73.665 13.8819 74.3873C13.3325 74.6942 12.8848 74.9132 12.4597 75.121C11.4137 75.6325 10.5051 76.0767 8.5584 77.5994C6.42577 79.2674 5.4657 83.0038 5.28825 84.7118C4.04609 82.6214 2.70255 78.3642 5.44035 75.9934C6.74776 74.8612 8.0286 74.6286 9.61482 74.3406L9.61485 74.3406C10.6297 74.1563 11.7696 73.9494 13.1214 73.4696C14.4142 73.0107 16.3915 71.4047 16.3915 69.4163C16.3915 67.8867 15.0507 66.4336 13.3495 66.4336C13.3305 66.4336 13.2925 66.4671 13.2355 66.5173C13.0644 66.6678 12.7221 66.969 12.2088 66.969C11.5243 66.969 11.1441 66.7395 11.1441 66.7395C11.9299 66.1532 13.3536 64.7168 14.4903 63.1451C15.4342 61.8399 16.1798 60.3814 16.6206 59.5191L16.6206 59.519C16.748 59.2697 16.85 59.0703 16.9239 58.9388C16.9978 59.0703 17.0998 59.2698 17.2272 59.5191C17.668 60.3814 18.4136 61.8399 19.3575 63.1451C20.4942 64.7168 21.9179 66.1532 22.7037 66.7395C22.7037 66.7395 22.3235 66.969 21.639 66.969C21.1257 66.969 20.7834 66.6678 20.6123 66.5173C20.5553 66.4671 20.5173 66.4336 20.4983 66.4336C18.7971 66.4336 17.4563 67.8867 17.4563 69.4163C17.4563 71.4047 19.4336 73.0107 20.7264 73.4696C22.0782 73.9494 23.2181 74.1563 24.233 74.3406L24.233 74.3406C25.8192 74.6286 27.1 74.8612 28.4075 75.9934C31.1453 78.3642 29.8017 82.6214 28.5596 84.7118ZM19.5096 65.2098C19.104 65.2863 18.4449 65.4392 17.9126 65.9746C17.5369 66.3524 17.3253 66.6921 17.171 66.94C17.1066 67.0433 17.0522 67.1307 17 67.1982C16.9581 67.1441 16.9106 67.0771 16.8554 66.9995C16.6768 66.7479 16.4181 66.3836 16.0114 65.9746C15.479 65.4392 14.8199 65.2863 14.4143 65.2098C14.7692 65.1588 15.5855 65.0874 16.0114 65.2098C16.4372 65.3321 16.8732 65.6687 17 65.8216C17.1267 65.6687 17.4867 65.3321 17.9126 65.2098C18.3385 65.0874 19.1547 65.1588 19.5096 65.2098ZM17.5323 64.3686C17.2281 64.5981 17 64.904 17 64.904C17 64.904 16.8479 64.5981 16.5437 64.3686C16.1634 64.0818 15.7071 63.9098 15.7071 63.9098C15.7071 63.9098 16.1634 63.5274 16.5437 62.9155C16.9239 62.3037 17 61.6919 17 61.6919C17 61.6919 17.1521 62.3037 17.5323 62.9155C17.9126 63.5274 18.3689 63.9098 18.3689 63.9098C18.3689 63.9098 17.9126 64.0818 17.5323 64.3686Z" fill="#1FB18E"/>
<path fill-rule="evenodd" clip-rule="evenodd" d="M23.2361 47.3615C23.2361 49.9739 22.3235 51.9434 21.8672 52.6016C23.5403 52.6016 26.8865 50.3233 26.8865 46.2223C26.8865 41.119 20.2701 38.628 18.3689 38.628C18.5977 38.8852 18.8589 39.1604 19.1387 39.4553C20.8422 41.2507 23.2361 43.7738 23.2361 47.3615ZM10.8399 47.3615C10.8399 49.9739 11.7525 51.9434 12.2088 52.6016C10.5357 52.6016 7.18952 50.3233 7.18952 46.2223C7.18952 41.119 13.8059 38.628 15.7071 38.628C15.4783 38.8852 15.2171 39.1604 14.9373 39.4553C13.2338 41.2507 10.8399 43.7738 10.8399 47.3615ZM31.7537 42.1973C31.0692 40.9063 29.5482 38.552 27.3428 37.6407C25.947 37.064 25.3737 37.0651 24.5818 37.0667C24.1224 37.0677 23.5895 37.0688 22.7798 36.9572C20.075 36.5847 18.597 35.1346 18.597 33.3879C18.597 31.6412 19.7378 30.9577 20.6504 30.9577C21.3804 30.9577 21.9179 31.8184 22.0953 32.2488C21.2588 32.2994 19.5096 32.6285 19.5096 33.8436C19.5096 34.8308 20.042 35.5902 21.2588 35.5902C21.7965 35.5902 22.346 35.3207 23.0133 34.9934C24.0446 34.4875 25.3572 33.8436 27.3428 33.8436C30.1566 33.8436 32.21 36.7294 32.21 38.9317C32.21 40.6936 31.9058 41.8429 31.7537 42.1973ZM6.65716 37.6407C4.45171 38.552 2.93071 40.9063 2.24626 42.1973C2.09416 41.8429 1.78996 40.6936 1.78996 38.9317C1.78996 36.7294 3.84331 33.8436 6.65716 33.8436C8.64268 33.8436 9.95535 34.4875 10.9867 34.9934C11.6539 35.3207 12.2034 35.5902 12.7412 35.5902C13.958 35.5902 14.4903 34.8308 14.4903 33.8436C14.4903 32.6285 12.7412 32.2994 11.9046 32.2488C12.0821 31.8184 12.6195 30.9577 13.3496 30.9577C14.2622 30.9577 15.4029 31.6412 15.4029 33.3879C15.4029 35.1346 13.9249 36.5847 11.2202 36.9572C10.4104 37.0688 9.87748 37.0677 9.41809 37.0667C8.62623 37.0651 8.05288 37.064 6.65716 37.6407ZM28.5596 48.1965C28.3821 46.5004 27.4221 42.7902 25.2894 41.1338C23.3427 39.6218 22.4342 39.1806 21.3881 38.6727C20.9631 38.4664 20.5153 38.2489 19.9659 37.9442C18.6731 37.2269 17.6084 36.1975 16.9239 34.9824C16.2395 36.1975 15.1748 37.2269 13.8819 37.9442C13.3326 38.2489 12.8848 38.4664 12.4598 38.6727C11.4137 39.1806 10.5052 39.6218 8.55844 41.1338C6.42581 42.7902 5.46574 46.5004 5.28829 48.1965C4.04613 46.1207 2.70259 41.8932 5.44039 39.539C6.7478 38.4147 8.02864 38.1838 9.61486 37.8978C10.6297 37.7148 11.7696 37.5093 13.1214 37.0329C14.4143 36.5772 16.3916 34.9824 16.3916 33.0079C16.3916 31.489 15.0508 30.0461 13.3496 30.0461C13.3306 30.0461 13.2926 30.0793 13.2355 30.1292C13.0644 30.2787 12.7222 30.5777 12.2088 30.5777C11.5244 30.5777 11.1441 30.3499 11.1441 30.3499C11.93 29.7676 13.3537 28.3413 14.4903 26.7805C15.4342 25.4845 16.1798 24.0362 16.6206 23.1799C16.7481 22.9324 16.85 22.7343 16.9239 22.6037C16.9979 22.7343 17.0998 22.9323 17.2273 23.1799L17.2273 23.1799L17.2273 23.18C17.6681 24.0362 18.4137 25.4845 19.3575 26.7805C20.4942 28.3413 21.9179 29.7676 22.7037 30.3499C22.7037 30.3499 22.3235 30.5777 21.639 30.5777C21.1257 30.5777 20.7835 30.2787 20.6124 30.1292C20.5553 30.0793 20.5173 30.0461 20.4983 30.0461C18.7971 30.0461 17.4563 31.489 17.4563 33.0079C17.4563 34.9824 19.4336 36.5772 20.7264 37.0329C22.0783 37.5093 23.2181 37.7148 24.233 37.8978C25.8192 38.1838 27.1001 38.4147 28.4075 39.539C31.1453 41.8932 29.8017 46.1207 28.5596 48.1965ZM19.5096 28.831C19.104 28.9069 18.4449 29.0588 17.9126 29.5904C17.5369 29.9656 17.3253 30.303 17.171 30.5491C17.1066 30.6517 17.0522 30.7385 17 30.8055C16.9581 30.7517 16.9106 30.6853 16.8554 30.6081C16.6768 30.3584 16.4181 29.9965 16.0113 29.5904C15.479 29.0588 14.8199 28.9069 14.4143 28.831C14.7692 28.7803 15.5855 28.7095 16.0113 28.831C16.4372 28.9525 16.8732 29.2866 17 29.4385C17.1267 29.2866 17.4867 28.9525 17.9126 28.831C18.3385 28.7095 19.1547 28.7803 19.5096 28.831ZM17.5323 27.9955C17.2281 28.2234 17 28.5271 17 28.5271C17 28.5271 16.8479 28.2234 16.5437 27.9955C16.1634 27.7107 15.7071 27.5399 15.7071 27.5399C15.7071 27.5399 16.1634 27.1602 16.5437 26.5526C16.9239 25.9451 17 25.3375 17 25.3375C17 25.3375 17.1521 25.9451 17.5323 26.5526C17.9126 27.1602 18.3689 27.5399 18.3689 27.5399C18.3689 27.5399 17.9126 27.7107 17.5323 27.9955Z" fill="#1FB18E"/>
<path fill-rule="evenodd" clip-rule="evenodd" d="M23.2361 10.8146C23.2361 13.4271 22.3235 15.3965 21.8672 16.0547C23.5403 16.0547 26.8865 13.7764 26.8865 9.67547C26.8865 4.5721 20.2701 2.08117 18.3689 2.08117C18.5977 2.33828 18.8589 2.61353 19.1387 2.9084C20.8422 4.70385 23.2361 7.22697 23.2361 10.8146ZM10.8399 10.8146C10.8399 13.4271 11.7525 15.3965 12.2088 16.0547C10.5357 16.0547 7.18952 13.7764 7.18952 9.67547C7.18952 4.5721 13.8059 2.08117 15.7071 2.08117C15.4783 2.33828 15.2171 2.61353 14.9373 2.90841C13.2338 4.70386 10.8399 7.22697 10.8399 10.8146ZM31.7537 5.65042C31.0692 4.35939 29.5482 2.00515 27.3428 1.09383C25.947 0.517109 25.3737 0.518269 24.5818 0.519871C24.1224 0.5208 23.5895 0.521877 22.7798 0.410347C20.075 0.0377979 18.597 -1.41228 18.597 -3.15898C18.597 -4.90567 19.7378 -5.58915 20.6504 -5.58915C21.3804 -5.58915 21.9179 -4.72847 22.0953 -4.29812C21.2588 -4.24749 19.5096 -3.91841 19.5096 -2.70332C19.5096 -1.71606 20.042 -0.956627 21.2588 -0.956627C21.7965 -0.956627 22.346 -1.22617 23.0133 -1.55349C24.0446 -2.0594 25.3572 -2.70332 27.3428 -2.70332C30.1566 -2.70332 32.21 0.182518 32.21 2.38487C32.21 4.14675 31.9058 5.29602 31.7537 5.65042ZM6.65716 1.09383C4.45171 2.00515 2.93071 4.35939 2.24626 5.65042C2.09416 5.29602 1.78996 4.14675 1.78996 2.38487C1.78996 0.182518 3.84331 -2.70332 6.65716 -2.70332C8.64268 -2.70332 9.95535 -2.0594 10.9867 -1.55349C11.6539 -1.22617 12.2034 -0.956627 12.7412 -0.956627C13.958 -0.956627 14.4903 -1.71606 14.4903 -2.70332C14.4903 -3.91841 12.7412 -4.24749 11.9046 -4.29812C12.0821 -4.72847 12.6195 -5.58915 13.3496 -5.58915C14.2622 -5.58915 15.4029 -4.90567 15.4029 -3.15898C15.4029 -1.41228 13.9249 0.0377979 11.2202 0.410347C10.4104 0.521877 9.87748 0.5208 9.41809 0.519871C8.62623 0.518269 8.05288 0.517109 6.65716 1.09383ZM28.5596 11.6496C28.3821 9.95355 27.4221 6.24328 25.2894 4.58691C23.3427 3.07491 22.4342 2.63377 21.3881 2.12587C20.9631 1.91948 20.5153 1.70207 19.9659 1.3973C18.6731 0.68006 17.6084 -0.34939 16.9239 -1.56448C16.2395 -0.34939 15.1748 0.68006 13.8819 1.3973C13.3326 1.70207 12.8848 1.91948 12.4598 2.12587C11.4137 2.63377 10.5052 3.07491 8.55844 4.58691C6.42581 6.24328 5.46574 9.95355 5.28829 11.6496C4.04613 9.57383 2.70259 5.34634 5.44039 2.9921C6.7478 1.86786 8.02864 1.63693 9.61486 1.35093C10.6297 1.16795 11.7696 0.962427 13.1214 0.485984C14.4143 0.0303268 16.3916 -1.56448 16.3916 -3.539C16.3916 -5.05786 15.0508 -6.50078 13.3496 -6.50078C13.3306 -6.50078 13.2926 -6.46755 13.2355 -6.41772C13.0644 -6.2682 12.7222 -5.96917 12.2088 -5.96917C11.5244 -5.96917 11.1441 -6.197 11.1441 -6.197C11.93 -6.77923 13.3537 -8.20559 14.4903 -9.76633C15.4342 -11.0623 16.1798 -12.5107 16.6206 -13.3669C16.7481 -13.6145 16.85 -13.8126 16.9239 -13.9432C16.9979 -13.8126 17.0998 -13.6145 17.2273 -13.367L17.2273 -13.3669L17.2273 -13.3669C17.6681 -12.5107 18.4137 -11.0623 19.3575 -9.76633C20.4942 -8.20559 21.9179 -6.77923 22.7037 -6.197C22.7037 -6.197 22.3235 -5.96917 21.639 -5.96917C21.1257 -5.96917 20.7835 -6.2682 20.6124 -6.41771C20.5553 -6.46755 20.5173 -6.50078 20.4983 -6.50078C18.7971 -6.50078 17.4563 -5.05786 17.4563 -3.539C17.4563 -1.56448 19.4336 0.0303268 20.7264 0.485984C22.0783 0.962427 23.2181 1.16795 24.233 1.35093C25.8192 1.63693 27.1001 1.86786 28.4075 2.9921C31.1453 5.34634 29.8017 9.57383 28.5596 11.6496ZM19.5096 -7.7159C19.104 -7.63996 18.4449 -7.48807 17.9126 -6.95647C17.5369 -6.58127 17.3253 -6.24391 17.171 -5.99777C17.1066 -5.89516 17.0522 -5.80841 17 -5.74138C16.9581 -5.79515 16.9106 -5.8616 16.8554 -5.93875C16.6768 -6.18851 16.4181 -6.55033 16.0113 -6.95647C15.479 -7.48807 14.8199 -7.63996 14.4143 -7.7159C14.7692 -7.76653 15.5855 -7.83741 16.0113 -7.7159C16.4372 -7.59439 16.8732 -7.26024 17 -7.10836C17.1267 -7.26024 17.4867 -7.59439 17.9126 -7.7159C18.3385 -7.83741 19.1547 -7.76653 19.5096 -7.7159ZM17.5323 -8.55135C17.2281 -8.32352 17 -8.01974 17 -8.01974C17 -8.01974 16.8479 -8.32352 16.5437 -8.55135C16.1634 -8.83613 15.7071 -9.007 15.7071 -9.007C15.7071 -9.007 16.1634 -9.38672 16.5437 -9.99426C16.9239 -10.6018 17 -11.2094 17 -11.2094C17 -11.2094 17.1521 -10.6018 17.5323 -9.99426C17.9126 -9.38672 18.3689 -9.007 18.3689 -9.007C18.3689 -9.007 17.9126 -8.83613 17.5323 -8.55135Z" fill="#1FB18E"/>
</g>
</g>
</svg>
