<svg width="17" height="338" viewBox="0 0 17 338" fill="none" xmlns="http://www.w3.org/2000/svg">
<g opacity="0.06">
<mask id="mask0_1230_10794" style="mask-type:alpha" maskUnits="userSpaceOnUse" x="0" y="0" width="17" height="338">
<rect width="16.9" height="338" fill="#C4C4C4"/>
</mask>
<g mask="url(#mask0_1230_10794)">
<path fill-rule="evenodd" clip-rule="evenodd" d="M-6.23606 -1.09782C-6.23606 -3.71026 -5.32346 -5.67972 -4.86716 -6.33789C-6.54026 -6.33789 -9.88646 -4.0596 -9.88646 0.0413246C-9.88646 5.1447 -3.27011 7.63563 -1.36886 7.63563C-1.59773 7.37852 -1.85888 7.10327 -2.13866 6.80839C-3.84216 5.01294 -6.23606 2.48983 -6.23606 -1.09782ZM6.16009 -1.09782C6.16009 -3.71026 5.24749 -5.67972 4.79119 -6.33789C6.46429 -6.33789 9.81049 -4.0596 9.81049 0.0413246C9.81049 5.1447 3.19414 7.63563 1.29289 7.63563C1.52174 7.37853 1.78288 7.1033 2.06264 6.80844L2.06269 6.80839L2.0627 6.80838L2.06271 6.80837L2.06272 6.80836C3.76621 5.01291 6.16009 2.48981 6.16009 -1.09782ZM-14.7537 4.0663C-14.0692 5.35733 -12.5482 7.71157 -10.3428 8.62288C-8.94705 9.19961 -8.37369 9.19845 -7.58184 9.19685C-7.12244 9.19592 -6.5895 9.19484 -5.77976 9.30637C-3.07497 9.67892 -1.59701 11.129 -1.59701 12.8757C-1.59701 14.6224 -2.73776 15.3059 -3.65036 15.3059C-4.38044 15.3059 -4.91786 14.4452 -5.09531 14.0148C-4.25876 13.9642 -2.50961 13.6351 -2.50961 12.42C-2.50961 11.4328 -3.04196 10.6733 -4.25876 10.6733C-4.79651 10.6733 -5.346 10.9429 -6.01326 11.2702C-7.04458 11.7761 -8.35724 12.42 -10.3428 12.42C-13.1566 12.42 -15.21 9.5342 -15.21 7.33185C-15.21 5.56997 -14.9058 4.4207 -14.7537 4.0663ZM10.3428 8.62288C12.5483 7.71157 14.0693 5.35733 14.7537 4.0663C14.9058 4.4207 15.21 5.56997 15.21 7.33185C15.21 9.5342 13.1567 12.42 10.3428 12.42C8.35731 12.42 7.04465 11.7761 6.01333 11.2702C5.34608 10.9429 4.79659 10.6733 4.25884 10.6733C3.04204 10.6733 2.50969 11.4328 2.50969 12.42C2.50969 13.6351 4.25884 13.9642 5.09539 14.0148C4.91794 14.4452 4.38052 15.3059 3.65044 15.3059C2.73784 15.3059 1.59709 14.6224 1.59709 12.8757C1.59709 11.129 3.07505 9.67892 5.77984 9.30637C6.58957 9.19484 7.12251 9.19592 7.58191 9.19685C8.37377 9.19845 8.94712 9.19961 10.3428 8.62288ZM-11.5596 -1.9332C-11.3821 -0.237143 -10.422 3.47313 -8.28942 5.1295C-6.34268 6.64149 -5.43413 7.08264 -4.38809 7.59054C-3.96303 7.79693 -3.51526 8.01434 -2.96591 8.31911C-1.67306 9.03635 -0.608363 10.0658 0.076087 11.2809C0.760537 10.0658 1.82524 9.03635 3.11809 8.31911C3.66744 8.01434 4.1152 7.79693 4.54026 7.59054C5.5863 7.08264 6.49485 6.64149 8.44159 5.1295C10.5742 3.47313 11.5343 -0.237143 11.7117 -1.9332C12.9539 0.142572 14.2974 4.37007 11.5596 6.7243C10.2522 7.84854 8.97138 8.07948 7.38517 8.36547C6.37029 8.54846 5.23041 8.75398 3.87859 9.23042C2.58574 9.68608 0.60844 11.2809 0.60844 13.2554C0.60844 14.7743 1.94926 16.2172 3.65044 16.2172C3.66945 16.2172 3.70748 16.184 3.76451 16.1341C3.93563 15.9846 4.27785 15.6856 4.79119 15.6856C5.47564 15.6856 5.85589 15.9134 5.85589 15.9134C5.07004 16.4956 3.64637 17.922 2.50969 19.4827C1.56581 20.7787 0.820229 22.2271 0.379433 23.0833C0.251977 23.3309 0.150003 23.529 0.076087 23.6596C0.00217056 23.529 -0.099803 23.3309 -0.227259 23.0833C-0.668054 22.2271 -1.41364 20.7787 -2.35752 19.4827C-3.4942 17.922 -4.91787 16.4956 -5.70372 15.9134C-5.70372 15.9134 -5.32347 15.6856 -4.63902 15.6856C-4.12568 15.6856 -3.78345 15.9846 -3.61234 16.1341C-3.5553 16.184 -3.51728 16.2172 -3.49827 16.2172C-1.79709 16.2172 -0.456266 14.7743 -0.456266 13.2554C-0.456266 11.2809 -2.43357 9.68608 -3.72642 9.23042C-5.07824 8.75398 -6.21812 8.54846 -7.23299 8.36547C-8.81921 8.07948 -10.1001 7.84854 -11.4075 6.7243C-14.1453 4.37007 -12.8017 0.142572 -11.5596 -1.9332ZM-2.50961 17.4323C-2.10401 17.3564 -1.44491 17.2045 -0.912564 16.6729C-0.536839 16.2977 -0.325274 15.9603 -0.170918 15.7142C-0.106574 15.6116 -0.0521717 15.5248 3.62396e-05 15.4578C0.0419149 15.5116 0.0894413 15.578 0.144614 15.6552C0.323223 15.9049 0.581971 16.2668 0.988686 16.6729C1.52104 17.2045 2.18014 17.3564 2.58574 17.4323C2.23084 17.483 1.41457 17.5538 0.988686 17.4323C0.562806 17.3108 0.126786 16.9767 3.62396e-05 16.8248C-0.126714 16.9767 -0.486684 17.3108 -0.912564 17.4323C-1.33844 17.5538 -2.15471 17.483 -2.50961 17.4323ZM-0.532313 18.2677C-0.228113 18.0399 3.62396e-05 17.7361 3.62396e-05 17.7361C3.62396e-05 17.7361 0.152137 18.0399 0.456337 18.2677C0.836588 18.5525 1.29289 18.7234 1.29289 18.7234C1.29289 18.7234 0.836588 19.1031 0.456337 19.7106C0.076087 20.3182 3.62396e-05 20.9257 3.62396e-05 20.9257C3.62396e-05 20.9257 -0.152063 20.3182 -0.532313 19.7106C-0.912563 19.1031 -1.36886 18.7234 -1.36886 18.7234C-1.36886 18.7234 -0.912563 18.5525 -0.532313 18.2677Z" fill="#1FB18E"/>
<path fill-rule="evenodd" clip-rule="evenodd" d="M-6.23607 35.4491C-6.23607 32.8366 -5.32347 30.8672 -4.86717 30.209C-6.54027 30.209 -9.88647 32.4873 -9.88647 36.5882C-9.88647 41.6916 -3.27012 44.1825 -1.36887 44.1825C-1.59774 43.9254 -1.85889 43.6501 -2.13866 43.3553C-3.84217 41.5598 -6.23607 39.0367 -6.23607 35.4491ZM6.16008 35.4491C6.16008 32.8366 5.24748 30.8672 4.79118 30.209C6.46428 30.209 9.81048 32.4873 9.81048 36.5882C9.81048 41.6916 3.19413 44.1825 1.29288 44.1825C1.52175 43.9254 1.7829 43.6501 2.06268 43.3553C3.76618 41.5598 6.16008 39.0367 6.16008 35.4491ZM-14.7537 40.6133C-14.0692 41.9043 -12.5482 44.2585 -10.3428 45.1698C-8.94704 45.7466 -8.37369 45.7454 -7.58183 45.7438C-7.12244 45.7429 -6.58949 45.7418 -5.77976 45.8533C-3.07497 46.2259 -1.59701 47.676 -1.59701 49.4226C-1.59701 51.1693 -2.73776 51.8528 -3.65036 51.8528C-4.38044 51.8528 -4.91786 50.9921 -5.09531 50.5618C-4.25876 50.5112 -2.50961 50.1821 -2.50961 48.967C-2.50961 47.9797 -3.04196 47.2203 -4.25876 47.2203C-4.79651 47.2203 -5.346 47.4898 -6.01326 47.8172C-7.04457 48.3231 -8.35724 48.967 -10.3428 48.967C-13.1566 48.967 -15.21 46.0812 -15.21 43.8788C-15.21 42.1169 -14.9058 40.9677 -14.7537 40.6133ZM10.3428 45.1698C12.5483 44.2585 14.0693 41.9043 14.7537 40.6133C14.9058 40.9677 15.21 42.1169 15.21 43.8788C15.21 46.0812 13.1567 48.967 10.3428 48.967C8.35732 48.967 7.04465 48.3231 6.01334 47.8172C5.34608 47.4898 4.79659 47.2203 4.25884 47.2203C3.04204 47.2203 2.50969 47.9797 2.50969 48.967C2.50969 50.1821 4.25884 50.5112 5.09539 50.5618C4.91794 50.9921 4.38052 51.8528 3.65044 51.8528C2.73784 51.8528 1.59709 51.1693 1.59709 49.4226C1.59709 47.676 3.07505 46.2259 5.77984 45.8533C6.58957 45.7418 7.12252 45.7429 7.58191 45.7438C8.37377 45.7454 8.94712 45.7466 10.3428 45.1698ZM-11.5596 34.6141C-11.3821 36.3101 -10.4221 40.0204 -8.28944 41.6768C-6.34271 43.1888 -5.43415 43.6299 -4.38812 44.1378C-3.96306 44.3442 -3.51529 44.5616 -2.96594 44.8664C-1.67309 45.5836 -0.608389 46.6131 0.0760612 47.8281C0.76051 46.6131 1.82521 45.5836 3.11806 44.8664C3.66741 44.5616 4.11518 44.3442 4.54024 44.1378C5.58627 43.6299 6.49483 43.1888 8.44156 41.6768C10.5742 40.0204 11.5343 36.3101 11.7117 34.6141C12.9539 36.6898 14.2974 40.9173 11.5596 43.2716C10.2522 44.3958 8.97136 44.6267 7.38514 44.9127C6.37026 45.0957 5.23038 45.3012 3.87856 45.7777C2.58571 46.2333 0.608415 47.8281 0.608415 49.8027C0.608415 51.3215 1.94923 52.7644 3.65041 52.7644C3.66942 52.7644 3.70745 52.7312 3.76449 52.6814C3.9356 52.5319 4.27782 52.2328 4.79116 52.2328C5.47561 52.2328 5.85586 52.4607 5.85586 52.4607C5.07001 53.0429 3.64634 54.4693 2.50966 56.03C1.56578 57.326 0.820196 58.7743 0.379402 59.6306C0.251948 59.8782 0.149977 60.0763 0.0760612 60.2069C0.00214958 60.0763 -0.0998154 59.8782 -0.22726 59.6306L-0.227274 59.6306L-0.227288 59.6306C-0.668085 58.7743 -1.41367 57.326 -2.35754 56.03C-3.49422 54.4693 -4.91789 53.0429 -5.70374 52.4607C-5.70374 52.4607 -5.32349 52.2328 -4.63904 52.2328C-4.12571 52.2328 -3.78348 52.5319 -3.61237 52.6814C-3.55533 52.7312 -3.5173 52.7644 -3.49829 52.7644C-1.79711 52.7644 -0.456293 51.3215 -0.456293 49.8027C-0.456293 47.8281 -2.43359 46.2333 -3.72644 45.7777C-5.07827 45.3012 -6.21815 45.0957 -7.23302 44.9127C-8.81924 44.6267 -10.1001 44.3958 -11.4075 43.2716C-14.1453 40.9173 -12.8017 36.6898 -11.5596 34.6141ZM-2.50965 53.9796C-2.10405 53.9036 -1.44495 53.7517 -0.912599 53.2201C-0.536873 52.8449 -0.325308 52.5076 -0.170953 52.2614C-0.106608 52.1588 -0.052206 52.0721 1.90735e-06 52.0051C0.0418797 52.0588 0.0894041 52.1253 0.144575 52.2024C0.323184 52.4522 0.581934 52.814 0.988651 53.2201C1.521 53.7517 2.1801 53.9036 2.5857 53.9796C2.2308 54.0302 1.41453 54.1011 0.988651 53.9796C0.562772 53.8581 0.126752 53.5239 1.90735e-06 53.372C-0.126748 53.5239 -0.486718 53.8581 -0.912599 53.9796C-1.33848 54.1011 -2.15475 54.0302 -2.50965 53.9796ZM-0.532344 54.815C-0.228144 54.5872 6.67572e-06 54.2834 6.67572e-06 54.2834C6.67572e-06 54.2834 0.152106 54.5872 0.456306 54.815C0.836555 55.0998 1.29286 55.2707 1.29286 55.2707C1.29286 55.2707 0.836555 55.6504 0.456306 56.2579C0.0760565 56.8655 6.67572e-06 57.473 6.67572e-06 57.473C6.67572e-06 57.473 -0.152094 56.8655 -0.532344 56.2579C-0.912594 55.6504 -1.36889 55.2707 -1.36889 55.2707C-1.36889 55.2707 -0.912594 55.0998 -0.532344 54.815Z" fill="#1FB18E"/>
<path fill-rule="evenodd" clip-rule="evenodd" d="M-6.23607 71.8209C-6.23607 69.1901 -5.32347 67.2068 -4.86717 66.5439C-6.54027 66.5439 -9.88647 68.8383 -9.88647 72.9681C-9.88647 78.1074 -3.27012 80.6159 -1.36887 80.6159C-1.59774 80.3569 -1.85889 80.0798 -2.13866 79.7828C-3.84217 77.9747 -6.23607 75.4338 -6.23607 71.8209ZM6.16008 71.8209C6.16008 69.1901 5.24748 67.2068 4.79118 66.5439C6.46428 66.5439 9.81048 68.8383 9.81048 72.9681C9.81048 78.1074 3.19413 80.6159 1.29288 80.6159C1.52173 80.357 1.78287 80.0798 2.06262 79.7829L2.06268 79.7828C3.76618 77.9747 6.16008 75.4338 6.16008 71.8209ZM-14.7537 77.0215C-14.0692 78.3216 -12.5482 80.6924 -10.3428 81.6101C-8.94704 82.1909 -8.37369 82.1897 -7.58183 82.1881C-7.12244 82.1872 -6.58949 82.1861 -5.77976 82.2984C-3.07497 82.6736 -1.59701 84.1339 -1.59701 85.8929C-1.59701 87.6519 -2.73776 88.3402 -3.65036 88.3402C-4.38044 88.3402 -4.91786 87.4734 -5.09531 87.0401C-4.25876 86.9891 -2.50961 86.6577 -2.50961 85.434C-2.50961 84.4398 -3.04196 83.675 -4.25876 83.675C-4.79651 83.675 -5.346 83.9465 -6.01326 84.2761C-7.04457 84.7856 -8.35724 85.434 -10.3428 85.434C-13.1566 85.434 -15.21 82.5279 -15.21 80.31C-15.21 78.5357 -14.9058 77.3783 -14.7537 77.0215ZM10.3428 81.6101C12.5483 80.6924 14.0693 78.3216 14.7537 77.0215C14.9058 77.3783 15.21 78.5357 15.21 80.31C15.21 82.5279 13.1567 85.434 10.3428 85.434C8.35732 85.434 7.04465 84.7856 6.01334 84.2761C5.34608 83.9465 4.79659 83.675 4.25884 83.675C3.04204 83.675 2.50969 84.4398 2.50969 85.434C2.50969 86.6577 4.25884 86.9891 5.09539 87.0401C4.91794 87.4734 4.38052 88.3402 3.65044 88.3402C2.73784 88.3402 1.59709 87.6519 1.59709 85.8929C1.59709 84.1339 3.07505 82.6736 5.77984 82.2984C6.58957 82.1861 7.12252 82.1872 7.58191 82.1881C8.37377 82.1897 8.94712 82.1909 10.3428 81.6101ZM-11.5596 70.9796C-11.3821 72.6876 -10.422 76.424 -8.28941 78.092C-6.34267 79.6147 -5.43412 80.0589 -4.38808 80.5704C-3.96302 80.7782 -3.51525 80.9972 -2.9659 81.3041C-1.67305 82.0264 -0.608351 83.0631 0.0760994 84.2867C0.760549 83.0631 1.82525 82.0264 3.1181 81.3041C3.66745 80.9972 4.11522 80.7782 4.54028 80.5704C5.58631 80.0589 6.49487 79.6147 8.4416 78.092C10.5742 76.424 11.5343 72.6876 11.7118 70.9796C12.9539 73.07 14.2974 77.3272 11.5596 79.6981C10.2522 80.8302 8.9714 81.0628 7.38518 81.3508L7.38515 81.3508C6.37029 81.5351 5.23041 81.742 3.8786 82.2218C2.58575 82.6807 0.608453 84.2867 0.608453 86.2751C0.608453 87.8047 1.94927 89.2578 3.65045 89.2578C3.66946 89.2578 3.70749 89.2243 3.76453 89.1741C3.93564 89.0236 4.27786 88.7224 4.7912 88.7224C5.47565 88.7224 5.8559 88.9519 5.8559 88.9519C5.07005 89.5382 3.64638 90.9746 2.5097 92.5463C1.56582 93.8515 0.820238 95.31 0.379443 96.1723L0.379389 96.1724C0.251959 96.4217 0.150004 96.6211 0.0760994 96.7526C0.00218201 96.6211 -0.0997925 96.4216 -0.227249 96.1723C-0.668045 95.31 -1.41363 93.8515 -2.3575 92.5463C-3.49419 90.9746 -4.91785 89.5382 -5.7037 88.9519C-5.7037 88.9519 -5.32345 88.7224 -4.639 88.7224C-4.12567 88.7224 -3.78344 89.0236 -3.61233 89.1741C-3.55529 89.2243 -3.51727 89.2578 -3.49825 89.2578C-1.79707 89.2578 -0.456255 87.8047 -0.456255 86.2751C-0.456255 84.2867 -2.43355 82.6807 -3.7264 82.2218C-5.07822 81.742 -6.2181 81.5351 -7.23297 81.3508L-7.23298 81.3508C-8.8192 81.0628 -10.1 80.8302 -11.4075 79.6981C-14.1453 77.3272 -12.8017 73.07 -11.5596 70.9796ZM-2.50965 90.4816C-2.10405 90.4051 -1.44495 90.2522 -0.9126 89.7168C-0.536875 89.339 -0.32531 88.9993 -0.170955 88.7514C-0.10661 88.6481 -0.0522079 88.5607 9.53674e-07 88.4932C0.0418787 88.5473 0.0894032 88.6143 0.144574 88.692C0.323184 88.9435 0.581933 89.3078 0.988649 89.7168C1.521 90.2522 2.1801 90.4051 2.5857 90.4816C2.2308 90.5326 1.41453 90.604 0.988649 90.4816C0.562771 90.3593 0.126751 90.0228 9.53674e-07 89.8698C-0.126749 90.0228 -0.486719 90.3593 -0.9126 90.4816C-1.33848 90.604 -2.15475 90.5326 -2.50965 90.4816ZM-0.532345 91.3228C-0.228145 91.0934 5.72205e-06 90.7874 5.72205e-06 90.7874C5.72205e-06 90.7874 0.152105 91.0934 0.456306 91.3228C0.836555 91.6096 1.29285 91.7817 1.29285 91.7817C1.29285 91.7817 0.836555 92.164 0.456306 92.7759C0.0760555 93.3877 5.72205e-06 93.9995 5.72205e-06 93.9995C5.72205e-06 93.9995 -0.152095 93.3877 -0.532345 92.7759C-0.912595 92.164 -1.36889 91.7817 -1.36889 91.7817C-1.36889 91.7817 -0.912595 91.6096 -0.532345 91.3228Z" fill="#1FB18E"/>
<path fill-rule="evenodd" clip-rule="evenodd" d="M-6.23607 108.33C-6.23607 105.717 -5.32347 103.748 -4.86717 103.09C-6.54027 103.09 -9.88647 105.368 -9.88647 109.469C-9.88647 114.572 -3.27012 117.063 -1.36887 117.063C-1.59774 116.806 -1.85889 116.531 -2.13866 116.236C-3.84217 114.441 -6.23607 111.918 -6.23607 108.33ZM6.16008 108.33C6.16008 105.717 5.24748 103.748 4.79118 103.09C6.46428 103.09 9.81048 105.368 9.81048 109.469C9.81048 114.572 3.19413 117.063 1.29288 117.063C1.52175 116.806 1.7829 116.531 2.06268 116.236C3.76618 114.441 6.16008 111.918 6.16008 108.33ZM-14.7537 113.494C-14.0692 114.785 -12.5482 117.139 -10.3428 118.051C-8.94704 118.627 -8.37369 118.626 -7.58183 118.625C-7.12244 118.624 -6.58949 118.623 -5.77976 118.734C-3.07497 119.107 -1.59701 120.557 -1.59701 122.304C-1.59701 124.05 -2.73776 124.734 -3.65036 124.734C-4.38044 124.734 -4.91786 123.873 -5.09531 123.443C-4.25876 123.392 -2.50961 123.063 -2.50961 121.848C-2.50961 120.861 -3.04196 120.101 -4.25876 120.101C-4.79651 120.101 -5.346 120.371 -6.01326 120.698C-7.04457 121.204 -8.35724 121.848 -10.3428 121.848C-13.1566 121.848 -15.21 118.962 -15.21 116.76C-15.21 114.998 -14.9058 113.849 -14.7537 113.494ZM10.3428 118.051C12.5483 117.139 14.0693 114.785 14.7537 113.494C14.9058 113.849 15.21 114.998 15.21 116.76C15.21 118.962 13.1567 121.848 10.3428 121.848C8.35732 121.848 7.04465 121.204 6.01334 120.698C5.34608 120.371 4.79659 120.101 4.25884 120.101C3.04204 120.101 2.50969 120.861 2.50969 121.848C2.50969 123.063 4.25884 123.392 5.09539 123.443C4.91794 123.873 4.38052 124.734 3.65044 124.734C2.73784 124.734 1.59709 124.05 1.59709 122.304C1.59709 120.557 3.07505 119.107 5.77984 118.734C6.58957 118.623 7.12252 118.624 7.58191 118.625C8.37377 118.626 8.94712 118.627 10.3428 118.051ZM-11.5596 107.495C-11.3821 109.191 -10.4221 112.901 -8.28944 114.558C-6.34271 116.07 -5.43415 116.511 -4.38812 117.019C-3.96306 117.225 -3.51529 117.442 -2.96594 117.747C-1.67309 118.464 -0.608389 119.494 0.0760612 120.709C0.76051 119.494 1.82521 118.464 3.11806 117.747C3.66741 117.442 4.11518 117.225 4.54024 117.019C5.58627 116.511 6.49483 116.07 8.44156 114.558C10.5742 112.901 11.5343 109.191 11.7117 107.495C12.9539 109.571 14.2974 113.798 11.5596 116.152C10.2522 117.277 8.97136 117.508 7.38514 117.794C6.37026 117.977 5.23038 118.182 3.87856 118.659C2.58571 119.114 0.608415 120.709 0.608415 122.684C0.608415 124.202 1.94923 125.645 3.65041 125.645C3.66942 125.645 3.70745 125.612 3.76449 125.562C3.9356 125.413 4.27782 125.114 4.79116 125.114C5.47561 125.114 5.85586 125.342 5.85586 125.342C5.07001 125.924 3.64634 127.35 2.50966 128.911C1.56578 130.207 0.820196 131.655 0.379402 132.511C0.251948 132.759 0.149977 132.957 0.0760612 133.088C0.00214958 132.957 -0.0998154 132.759 -0.22726 132.512L-0.227274 132.511L-0.227288 132.511C-0.668085 131.655 -1.41367 130.207 -2.35754 128.911C-3.49422 127.35 -4.91789 125.924 -5.70374 125.342C-5.70374 125.342 -5.32349 125.114 -4.63904 125.114C-4.12571 125.114 -3.78348 125.413 -3.61237 125.562C-3.55533 125.612 -3.5173 125.645 -3.49829 125.645C-1.79711 125.645 -0.456293 124.202 -0.456293 122.684C-0.456293 120.709 -2.43359 119.114 -3.72644 118.659C-5.07827 118.182 -6.21815 117.977 -7.23302 117.794C-8.81924 117.508 -10.1001 117.277 -11.4075 116.152C-14.1453 113.798 -12.8017 109.571 -11.5596 107.495ZM-2.50965 126.86C-2.10405 126.784 -1.44495 126.633 -0.912599 126.101C-0.536873 125.726 -0.325308 125.388 -0.170953 125.142C-0.106608 125.04 -0.052206 124.953 1.90735e-06 124.886C0.0418797 124.94 0.0894041 125.006 0.144575 125.083C0.323184 125.333 0.581934 125.695 0.988651 126.101C1.521 126.633 2.1801 126.784 2.5857 126.86C2.2308 126.911 1.41453 126.982 0.988651 126.86C0.562772 126.739 0.126752 126.405 1.90735e-06 126.253C-0.126748 126.405 -0.486718 126.739 -0.912599 126.86C-1.33848 126.982 -2.15475 126.911 -2.50965 126.86ZM-0.532344 127.696C-0.228144 127.468 6.67572e-06 127.164 6.67572e-06 127.164C6.67572e-06 127.164 0.152106 127.468 0.456306 127.696C0.836555 127.981 1.29286 128.152 1.29286 128.152C1.29286 128.152 0.836555 128.531 0.456306 129.139C0.0760565 129.746 6.67572e-06 130.354 6.67572e-06 130.354C6.67572e-06 130.354 -0.152094 129.746 -0.532344 129.139C-0.912594 128.531 -1.36889 128.152 -1.36889 128.152C-1.36889 128.152 -0.912594 127.981 -0.532344 127.696Z" fill="#1FB18E"/>
<path fill-rule="evenodd" clip-rule="evenodd" d="M-6.23607 144.877C-6.23607 142.264 -5.32347 140.295 -4.86717 139.637C-6.54027 139.637 -9.88647 141.915 -9.88647 146.016C-9.88647 151.119 -3.27012 153.61 -1.36887 153.61C-1.59774 153.353 -1.85889 153.078 -2.13866 152.783C-3.84217 150.988 -6.23607 148.464 -6.23607 144.877ZM6.16008 144.877C6.16008 142.264 5.24748 140.295 4.79118 139.637C6.46428 139.637 9.81048 141.915 9.81048 146.016C9.81048 151.119 3.19413 153.61 1.29288 153.61C1.52175 153.353 1.7829 153.078 2.06268 152.783C3.76618 150.988 6.16008 148.464 6.16008 144.877ZM-14.7537 150.041C-14.0692 151.332 -12.5482 153.686 -10.3428 154.598C-8.94704 155.174 -8.37369 155.173 -7.58183 155.172C-7.12244 155.171 -6.58949 155.17 -5.77976 155.281C-3.07497 155.654 -1.59701 157.104 -1.59701 158.85C-1.59701 160.597 -2.73776 161.281 -3.65036 161.281C-4.38044 161.281 -4.91786 160.42 -5.09531 159.99C-4.25876 159.939 -2.50961 159.61 -2.50961 158.395C-2.50961 157.407 -3.04196 156.648 -4.25876 156.648C-4.79651 156.648 -5.346 156.918 -6.01326 157.245C-7.04457 157.751 -8.35724 158.395 -10.3428 158.395C-13.1566 158.395 -15.21 155.509 -15.21 153.307C-15.21 151.545 -14.9058 150.395 -14.7537 150.041ZM10.3428 154.598C12.5483 153.686 14.0693 151.332 14.7537 150.041C14.9058 150.395 15.21 151.545 15.21 153.307C15.21 155.509 13.1567 158.395 10.3428 158.395C8.35732 158.395 7.04465 157.751 6.01334 157.245C5.34608 156.918 4.79659 156.648 4.25884 156.648C3.04204 156.648 2.50969 157.407 2.50969 158.395C2.50969 159.61 4.25884 159.939 5.09539 159.99C4.91794 160.42 4.38052 161.281 3.65044 161.281C2.73784 161.281 1.59709 160.597 1.59709 158.85C1.59709 157.104 3.07505 155.654 5.77984 155.281C6.58957 155.17 7.12252 155.171 7.58191 155.172C8.37377 155.173 8.94712 155.174 10.3428 154.598ZM-11.5596 144.042C-11.3821 145.738 -10.4221 149.448 -8.28944 151.104C-6.34271 152.616 -5.43415 153.058 -4.38812 153.566C-3.96306 153.772 -3.51529 153.989 -2.96594 154.294C-1.67309 155.011 -0.608389 156.041 0.0760612 157.256C0.76051 156.041 1.82521 155.011 3.11806 154.294C3.66741 153.989 4.11518 153.772 4.54024 153.566C5.58627 153.058 6.49483 152.616 8.44156 151.104C10.5742 149.448 11.5343 145.738 11.7117 144.042C12.9539 146.118 14.2974 150.345 11.5596 152.699C10.2522 153.824 8.97136 154.054 7.38514 154.34C6.37026 154.523 5.23038 154.729 3.87856 155.205C2.58571 155.661 0.608415 157.256 0.608415 159.23C0.608415 160.749 1.94923 162.192 3.65041 162.192C3.66942 162.192 3.70745 162.159 3.76449 162.109C3.9356 161.96 4.27782 161.661 4.79116 161.661C5.47561 161.661 5.85586 161.888 5.85586 161.888C5.07001 162.471 3.64634 163.897 2.50966 165.458C1.56578 166.754 0.820196 168.202 0.379402 169.058C0.251948 169.306 0.149977 169.504 0.0760612 169.635C0.00214958 169.504 -0.0998154 169.306 -0.22726 169.058L-0.227274 169.058L-0.227288 169.058C-0.668085 168.202 -1.41367 166.754 -2.35754 165.458C-3.49422 163.897 -4.91789 162.471 -5.70374 161.888C-5.70374 161.888 -5.32349 161.661 -4.63904 161.661C-4.12571 161.661 -3.78348 161.96 -3.61237 162.109C-3.55533 162.159 -3.5173 162.192 -3.49829 162.192C-1.79711 162.192 -0.456293 160.749 -0.456293 159.23C-0.456293 157.256 -2.43359 155.661 -3.72644 155.205C-5.07827 154.729 -6.21815 154.523 -7.23302 154.34C-8.81924 154.054 -10.1001 153.824 -11.4075 152.699C-14.1453 150.345 -12.8017 146.118 -11.5596 144.042ZM-2.50965 163.407C-2.10405 163.331 -1.44495 163.179 -0.912599 162.648C-0.536873 162.273 -0.325308 161.935 -0.170953 161.689C-0.106608 161.587 -0.052206 161.5 1.90735e-06 161.433C0.0418797 161.487 0.0894041 161.553 0.144575 161.63C0.323184 161.88 0.581934 162.242 0.988651 162.648C1.521 163.179 2.1801 163.331 2.5857 163.407C2.2308 163.458 1.41453 163.529 0.988651 163.407C0.562772 163.286 0.126752 162.952 1.90735e-06 162.8C-0.126748 162.952 -0.486718 163.286 -0.912599 163.407C-1.33848 163.529 -2.15475 163.458 -2.50965 163.407ZM-0.532344 164.243C-0.228144 164.015 6.67572e-06 163.711 6.67572e-06 163.711C6.67572e-06 163.711 0.152106 164.015 0.456306 164.243C0.836555 164.528 1.29286 164.698 1.29286 164.698C1.29286 164.698 0.836555 165.078 0.456306 165.686C0.0760565 166.293 6.67572e-06 166.901 6.67572e-06 166.901C6.67572e-06 166.901 -0.152094 166.293 -0.532344 165.686C-0.912594 165.078 -1.36889 164.698 -1.36889 164.698C-1.36889 164.698 -0.912594 164.528 -0.532344 164.243Z" fill="#1FB18E"/>
<path fill-rule="evenodd" clip-rule="evenodd" d="M-6.23607 181.249C-6.23607 178.618 -5.32347 176.634 -4.86717 175.972C-6.54027 175.972 -9.88647 178.266 -9.88647 182.396C-9.88647 187.535 -3.27012 190.044 -1.36887 190.044C-1.59774 189.785 -1.85889 189.507 -2.13866 189.211C-3.84217 187.402 -6.23607 184.862 -6.23607 181.249ZM6.16008 181.249C6.16008 178.618 5.24748 176.634 4.79118 175.972C6.46428 175.972 9.81048 178.266 9.81048 182.396C9.81048 187.535 3.19413 190.044 1.29288 190.044C1.52173 189.785 1.78287 189.508 2.06262 189.211L2.06268 189.211C3.76618 187.402 6.16008 184.862 6.16008 181.249ZM-14.7537 186.449C-14.0692 187.749 -12.5482 190.12 -10.3428 191.038C-8.94704 191.619 -8.37369 191.617 -7.58183 191.616C-7.12244 191.615 -6.58949 191.614 -5.77976 191.726C-3.07497 192.101 -1.59701 193.562 -1.59701 195.321C-1.59701 197.08 -2.73776 197.768 -3.65036 197.768C-4.38044 197.768 -4.91786 196.901 -5.09531 196.468C-4.25876 196.417 -2.50961 196.085 -2.50961 194.862C-2.50961 193.868 -3.04196 193.103 -4.25876 193.103C-4.79651 193.103 -5.346 193.374 -6.01326 193.704C-7.04457 194.213 -8.35724 194.862 -10.3428 194.862C-13.1566 194.862 -15.21 191.956 -15.21 189.738C-15.21 187.963 -14.9058 186.806 -14.7537 186.449ZM10.3428 191.038C12.5483 190.12 14.0693 187.749 14.7537 186.449C14.9058 186.806 15.21 187.963 15.21 189.738C15.21 191.956 13.1567 194.862 10.3428 194.862C8.35732 194.862 7.04465 194.213 6.01334 193.704C5.34608 193.374 4.79659 193.103 4.25884 193.103C3.04204 193.103 2.50969 193.868 2.50969 194.862C2.50969 196.085 4.25884 196.417 5.09539 196.468C4.91794 196.901 4.38052 197.768 3.65044 197.768C2.73784 197.768 1.59709 197.08 1.59709 195.321C1.59709 193.562 3.07505 192.101 5.77984 191.726C6.58957 191.614 7.12252 191.615 7.58191 191.616C8.37377 191.617 8.94712 191.619 10.3428 191.038ZM-11.5596 180.407C-11.3821 182.115 -10.422 185.852 -8.28941 187.52C-6.34267 189.042 -5.43412 189.487 -4.38808 189.998C-3.96302 190.206 -3.51525 190.425 -2.9659 190.732C-1.67305 191.454 -0.608351 192.491 0.0760994 193.714C0.760549 192.491 1.82525 191.454 3.1181 190.732C3.66745 190.425 4.11522 190.206 4.54028 189.998C5.58631 189.487 6.49487 189.042 8.4416 187.52C10.5742 185.852 11.5343 182.115 11.7118 180.407C12.9539 182.498 14.2974 186.755 11.5596 189.126C10.2522 190.258 8.9714 190.491 7.38518 190.779L7.38515 190.779C6.37029 190.963 5.23041 191.17 3.8786 191.65C2.58575 192.108 0.608453 193.714 0.608453 195.703C0.608453 197.232 1.94927 198.686 3.65045 198.686C3.66946 198.686 3.70749 198.652 3.76453 198.602C3.93564 198.451 4.27786 198.15 4.7912 198.15C5.47565 198.15 5.8559 198.38 5.8559 198.38C5.07005 198.966 3.64638 200.402 2.5097 201.974C1.56582 203.279 0.820238 204.738 0.379443 205.6L0.379389 205.6C0.251959 205.849 0.150004 206.049 0.0760994 206.18C0.00218201 206.049 -0.0997925 205.849 -0.227249 205.6C-0.668045 204.738 -1.41363 203.279 -2.3575 201.974C-3.49419 200.402 -4.91785 198.966 -5.7037 198.38C-5.7037 198.38 -5.32345 198.15 -4.639 198.15C-4.12567 198.15 -3.78344 198.451 -3.61233 198.602C-3.55529 198.652 -3.51727 198.686 -3.49825 198.686C-1.79707 198.686 -0.456255 197.232 -0.456255 195.703C-0.456255 193.714 -2.43355 192.108 -3.7264 191.65C-5.07822 191.17 -6.2181 190.963 -7.23297 190.779L-7.23298 190.779C-8.8192 190.491 -10.1 190.258 -11.4075 189.126C-14.1453 186.755 -12.8017 182.498 -11.5596 180.407ZM-2.50965 199.909C-2.10405 199.833 -1.44495 199.68 -0.9126 199.145C-0.536875 198.767 -0.32531 198.427 -0.170955 198.179C-0.10661 198.076 -0.0522079 197.988 9.53674e-07 197.921C0.0418787 197.975 0.0894032 198.042 0.144574 198.12C0.323184 198.371 0.581933 198.736 0.988649 199.145C1.521 199.68 2.1801 199.833 2.5857 199.909C2.2308 199.96 1.41453 200.032 0.988649 199.909C0.562771 199.787 0.126751 199.45 9.53674e-07 199.298C-0.126749 199.45 -0.486719 199.787 -0.9126 199.909C-1.33848 200.032 -2.15475 199.96 -2.50965 199.909ZM-0.532345 200.751C-0.228145 200.521 5.72205e-06 200.215 5.72205e-06 200.215C5.72205e-06 200.215 0.152105 200.521 0.456306 200.751C0.836555 201.037 1.29285 201.209 1.29285 201.209C1.29285 201.209 0.836555 201.592 0.456306 202.204C0.0760555 202.815 5.72205e-06 203.427 5.72205e-06 203.427C5.72205e-06 203.427 -0.152095 202.815 -0.532345 202.204C-0.912595 201.592 -1.36889 201.209 -1.36889 201.209C-1.36889 201.209 -0.912595 201.037 -0.532345 200.751Z" fill="#1FB18E"/>
<path fill-rule="evenodd" clip-rule="evenodd" d="M-6.23607 217.758C-6.23607 215.145 -5.32347 213.176 -4.86717 212.518C-6.54027 212.518 -9.88647 214.796 -9.88647 218.897C-9.88647 224 -3.27012 226.491 -1.36887 226.491C-1.59774 226.234 -1.85889 225.959 -2.13866 225.664C-3.84217 223.868 -6.23607 221.345 -6.23607 217.758ZM6.16008 217.758C6.16008 215.145 5.24748 213.176 4.79118 212.518C6.46428 212.518 9.81048 214.796 9.81048 218.897C9.81048 224 3.19413 226.491 1.29288 226.491C1.52175 226.234 1.7829 225.959 2.06268 225.664C3.76618 223.868 6.16008 221.345 6.16008 217.758ZM-14.7537 222.922C-14.0692 224.213 -12.5482 226.567 -10.3428 227.478C-8.94704 228.055 -8.37369 228.054 -7.58183 228.052C-7.12244 228.051 -6.58949 228.05 -5.77976 228.162C-3.07497 228.534 -1.59701 229.985 -1.59701 231.731C-1.59701 233.478 -2.73776 234.161 -3.65036 234.161C-4.38044 234.161 -4.91786 233.301 -5.09531 232.87C-4.25876 232.82 -2.50961 232.491 -2.50961 231.276C-2.50961 230.288 -3.04196 229.529 -4.25876 229.529C-4.79651 229.529 -5.346 229.798 -6.01326 230.126C-7.04457 230.632 -8.35724 231.276 -10.3428 231.276C-13.1566 231.276 -15.21 228.39 -15.21 226.187C-15.21 224.426 -14.9058 223.276 -14.7537 222.922ZM10.3428 227.478C12.5483 226.567 14.0693 224.213 14.7537 222.922C14.9058 223.276 15.21 224.426 15.21 226.187C15.21 228.39 13.1567 231.276 10.3428 231.276C8.35732 231.276 7.04465 230.632 6.01334 230.126C5.34608 229.798 4.79659 229.529 4.25884 229.529C3.04204 229.529 2.50969 230.288 2.50969 231.276C2.50969 232.491 4.25884 232.82 5.09539 232.87C4.91794 233.301 4.38052 234.161 3.65044 234.161C2.73784 234.161 1.59709 233.478 1.59709 231.731C1.59709 229.985 3.07505 228.534 5.77984 228.162C6.58957 228.05 7.12252 228.051 7.58191 228.052C8.37377 228.054 8.94712 228.055 10.3428 227.478ZM-11.5596 216.923C-11.3821 218.619 -10.4221 222.329 -8.28944 223.985C-6.34271 225.497 -5.43415 225.939 -4.38812 226.446C-3.96306 226.653 -3.51529 226.87 -2.96594 227.175C-1.67309 227.892 -0.608389 228.922 0.0760612 230.137C0.76051 228.922 1.82521 227.892 3.11806 227.175C3.66741 226.87 4.11518 226.653 4.54024 226.446C5.58627 225.939 6.49483 225.497 8.44156 223.985C10.5742 222.329 11.5343 218.619 11.7117 216.923C12.9539 218.998 14.2974 223.226 11.5596 225.58C10.2522 226.704 8.97136 226.935 7.38514 227.221C6.37026 227.404 5.23038 227.61 3.87856 228.086C2.58571 228.542 0.608415 230.137 0.608415 232.111C0.608415 233.63 1.94923 235.073 3.65041 235.073C3.66942 235.073 3.70745 235.04 3.76449 234.99C3.9356 234.84 4.27782 234.541 4.79116 234.541C5.47561 234.541 5.85586 234.769 5.85586 234.769C5.07001 235.351 3.64634 236.778 2.50966 238.339C1.56578 239.635 0.820196 241.083 0.379402 241.939C0.251948 242.187 0.149977 242.385 0.0760612 242.515C0.00214958 242.385 -0.0998154 242.187 -0.22726 241.939L-0.227274 241.939L-0.227288 241.939C-0.668085 241.083 -1.41367 239.635 -2.35754 238.339C-3.49422 236.778 -4.91789 235.351 -5.70374 234.769C-5.70374 234.769 -5.32349 234.541 -4.63904 234.541C-4.12571 234.541 -3.78348 234.84 -3.61237 234.99C-3.55533 235.04 -3.5173 235.073 -3.49829 235.073C-1.79711 235.073 -0.456293 233.63 -0.456293 232.111C-0.456293 230.137 -2.43359 228.542 -3.72644 228.086C-5.07827 227.61 -6.21815 227.404 -7.23302 227.221C-8.81924 226.935 -10.1001 226.704 -11.4075 225.58C-14.1453 223.226 -12.8017 218.998 -11.5596 216.923ZM-2.50965 236.288C-2.10405 236.212 -1.44495 236.06 -0.912599 235.529C-0.536873 235.154 -0.325308 234.816 -0.170953 234.57C-0.106608 234.467 -0.052206 234.381 1.90735e-06 234.314C0.0418797 234.367 0.0894041 234.434 0.144575 234.511C0.323184 234.761 0.581934 235.123 0.988651 235.529C1.521 236.06 2.1801 236.212 2.5857 236.288C2.2308 236.339 1.41453 236.41 0.988651 236.288C0.562772 236.167 0.126752 235.833 1.90735e-06 235.681C-0.126748 235.833 -0.486718 236.167 -0.912599 236.288C-1.33848 236.41 -2.15475 236.339 -2.50965 236.288ZM-0.532344 237.124C-0.228144 236.896 6.67572e-06 236.592 6.67572e-06 236.592C6.67572e-06 236.592 0.152106 236.896 0.456306 237.124C0.836555 237.408 1.29286 237.579 1.29286 237.579C1.29286 237.579 0.836555 237.959 0.456306 238.567C0.0760565 239.174 6.67572e-06 239.782 6.67572e-06 239.782C6.67572e-06 239.782 -0.152094 239.174 -0.532344 238.567C-0.912594 237.959 -1.36889 237.579 -1.36889 237.579C-1.36889 237.579 -0.912594 237.408 -0.532344 237.124Z" fill="#1FB18E"/>
<path fill-rule="evenodd" clip-rule="evenodd" d="M-6.23607 254.13C-6.23607 251.499 -5.32347 249.515 -4.86717 248.853C-6.54027 248.853 -9.88647 251.147 -9.88647 255.277C-9.88647 260.416 -3.27012 262.924 -1.36887 262.924C-1.59774 262.666 -1.85889 262.388 -2.13866 262.091C-3.84217 260.283 -6.23607 257.742 -6.23607 254.13ZM6.16008 254.13C6.16008 251.499 5.24748 249.515 4.79118 248.853C6.46428 248.853 9.81048 251.147 9.81048 255.277C9.81048 260.416 3.19413 262.924 1.29288 262.924C1.52173 262.666 1.78287 262.388 2.06262 262.091L2.06268 262.091C3.76618 260.283 6.16008 257.742 6.16008 254.13ZM-14.7537 259.33C-14.0692 260.63 -12.5482 263.001 -10.3428 263.919C-8.94704 264.5 -8.37369 264.498 -7.58183 264.497C-7.12244 264.496 -6.58949 264.495 -5.77976 264.607C-3.07497 264.982 -1.59701 266.442 -1.59701 268.201C-1.59701 269.96 -2.73776 270.649 -3.65036 270.649C-4.38044 270.649 -4.91786 269.782 -5.09531 269.349C-4.25876 269.298 -2.50961 268.966 -2.50961 267.743C-2.50961 266.748 -3.04196 265.984 -4.25876 265.984C-4.79651 265.984 -5.346 266.255 -6.01326 266.585C-7.04457 267.094 -8.35724 267.743 -10.3428 267.743C-13.1566 267.743 -15.21 264.836 -15.21 262.619C-15.21 260.844 -14.9058 259.687 -14.7537 259.33ZM10.3428 263.919C12.5483 263.001 14.0693 260.63 14.7537 259.33C14.9058 259.687 15.21 260.844 15.21 262.619C15.21 264.836 13.1567 267.743 10.3428 267.743C8.35732 267.743 7.04465 267.094 6.01334 266.585C5.34608 266.255 4.79659 265.984 4.25884 265.984C3.04204 265.984 2.50969 266.748 2.50969 267.743C2.50969 268.966 4.25884 269.298 5.09539 269.349C4.91794 269.782 4.38052 270.649 3.65044 270.649C2.73784 270.649 1.59709 269.96 1.59709 268.201C1.59709 266.442 3.07505 264.982 5.77984 264.607C6.58957 264.495 7.12252 264.496 7.58191 264.497C8.37377 264.498 8.94712 264.5 10.3428 263.919ZM-11.5596 253.288C-11.3821 254.996 -10.422 258.733 -8.28941 260.401C-6.34267 261.923 -5.43412 262.368 -4.38808 262.879C-3.96302 263.087 -3.51525 263.306 -2.9659 263.613C-1.67305 264.335 -0.608351 265.372 0.0760994 266.595C0.760549 265.372 1.82525 264.335 3.1181 263.613C3.66745 263.306 4.11522 263.087 4.54028 262.879C5.58631 262.368 6.49487 261.923 8.4416 260.401C10.5742 258.733 11.5343 254.996 11.7118 253.288C12.9539 255.379 14.2974 259.636 11.5596 262.007C10.2522 263.139 8.9714 263.371 7.38518 263.659L7.38515 263.659C6.37029 263.844 5.23041 264.051 3.8786 264.53C2.58575 264.989 0.608453 266.595 0.608453 268.584C0.608453 270.113 1.94927 271.566 3.65045 271.566C3.66946 271.566 3.70749 271.533 3.76453 271.483C3.93564 271.332 4.27786 271.031 4.7912 271.031C5.47565 271.031 5.8559 271.26 5.8559 271.26C5.07005 271.847 3.64638 273.283 2.5097 274.855C1.56582 276.16 0.820238 277.619 0.379443 278.481L0.379389 278.481C0.251959 278.73 0.150004 278.93 0.0760994 279.061C0.00218201 278.93 -0.0997925 278.73 -0.227249 278.481C-0.668045 277.619 -1.41363 276.16 -2.3575 274.855C-3.49419 273.283 -4.91785 271.847 -5.7037 271.26C-5.7037 271.26 -5.32345 271.031 -4.639 271.031C-4.12567 271.031 -3.78344 271.332 -3.61233 271.483C-3.55529 271.533 -3.51727 271.566 -3.49825 271.566C-1.79707 271.566 -0.456255 270.113 -0.456255 268.584C-0.456255 266.595 -2.43355 264.989 -3.7264 264.53C-5.07822 264.051 -6.2181 263.844 -7.23297 263.659L-7.23298 263.659C-8.8192 263.371 -10.1 263.139 -11.4075 262.007C-14.1453 259.636 -12.8017 255.379 -11.5596 253.288ZM-2.50965 272.79C-2.10405 272.714 -1.44495 272.561 -0.9126 272.025C-0.536875 271.648 -0.32531 271.308 -0.170955 271.06C-0.10661 270.957 -0.0522079 270.869 9.53674e-07 270.802C0.0418787 270.856 0.0894032 270.923 0.144574 271.001C0.323184 271.252 0.581933 271.616 0.988649 272.025C1.521 272.561 2.1801 272.714 2.5857 272.79C2.2308 272.841 1.41453 272.913 0.988649 272.79C0.562771 272.668 0.126751 272.331 9.53674e-07 272.178C-0.126749 272.331 -0.486719 272.668 -0.9126 272.79C-1.33848 272.913 -2.15475 272.841 -2.50965 272.79ZM-0.532345 273.631C-0.228145 273.402 5.72205e-06 273.096 5.72205e-06 273.096C5.72205e-06 273.096 0.152105 273.402 0.456306 273.631C0.836555 273.918 1.29285 274.09 1.29285 274.09C1.29285 274.09 0.836555 274.473 0.456306 275.084C0.0760555 275.696 5.72205e-06 276.308 5.72205e-06 276.308C5.72205e-06 276.308 -0.152095 275.696 -0.532345 275.084C-0.912595 274.473 -1.36889 274.09 -1.36889 274.09C-1.36889 274.09 -0.912595 273.918 -0.532345 273.631Z" fill="#1FB18E"/>
<path fill-rule="evenodd" clip-rule="evenodd" d="M-6.23607 290.639C-6.23607 288.026 -5.32347 286.057 -4.86717 285.398C-6.54027 285.398 -9.88647 287.677 -9.88647 291.778C-9.88647 296.881 -3.27012 299.372 -1.36887 299.372C-1.59774 299.115 -1.85889 298.84 -2.13866 298.545C-3.84217 296.749 -6.23607 294.226 -6.23607 290.639ZM6.16008 290.639C6.16008 288.026 5.24748 286.057 4.79118 285.398C6.46428 285.398 9.81048 287.677 9.81048 291.778C9.81048 296.881 3.19413 299.372 1.29288 299.372C1.52175 299.115 1.7829 298.84 2.06268 298.545C3.76618 296.749 6.16008 294.226 6.16008 290.639ZM-14.7537 295.803C-14.0692 297.094 -12.5482 299.448 -10.3428 300.359C-8.94704 300.936 -8.37369 300.935 -7.58183 300.933C-7.12244 300.932 -6.58949 300.931 -5.77976 301.043C-3.07497 301.415 -1.59701 302.865 -1.59701 304.612C-1.59701 306.359 -2.73776 307.042 -3.65036 307.042C-4.38044 307.042 -4.91786 306.182 -5.09531 305.751C-4.25876 305.701 -2.50961 305.372 -2.50961 304.156C-2.50961 303.169 -3.04196 302.41 -4.25876 302.41C-4.79651 302.41 -5.346 302.679 -6.01326 303.007C-7.04457 303.513 -8.35724 304.156 -10.3428 304.156C-13.1566 304.156 -15.21 301.271 -15.21 299.068C-15.21 297.306 -14.9058 296.157 -14.7537 295.803ZM10.3428 300.359C12.5483 299.448 14.0693 297.094 14.7537 295.803C14.9058 296.157 15.21 297.306 15.21 299.068C15.21 301.271 13.1567 304.156 10.3428 304.156C8.35732 304.156 7.04465 303.513 6.01334 303.007C5.34608 302.679 4.79659 302.41 4.25884 302.41C3.04204 302.41 2.50969 303.169 2.50969 304.156C2.50969 305.372 4.25884 305.701 5.09539 305.751C4.91794 306.182 4.38052 307.042 3.65044 307.042C2.73784 307.042 1.59709 306.359 1.59709 304.612C1.59709 302.865 3.07505 301.415 5.77984 301.043C6.58957 300.931 7.12252 300.932 7.58191 300.933C8.37377 300.935 8.94712 300.936 10.3428 300.359ZM-11.5596 289.804C-11.3821 291.5 -10.4221 295.21 -8.28944 296.866C-6.34271 298.378 -5.43415 298.819 -4.38812 299.327C-3.96306 299.534 -3.51529 299.751 -2.96594 300.056C-1.67309 300.773 -0.608389 301.803 0.0760612 303.018C0.76051 301.803 1.82521 300.773 3.11806 300.056C3.66741 299.751 4.11518 299.534 4.54024 299.327C5.58627 298.819 6.49483 298.378 8.44156 296.866C10.5742 295.21 11.5343 291.5 11.7117 289.804C12.9539 291.879 14.2974 296.107 11.5596 298.461C10.2522 299.585 8.97136 299.816 7.38514 300.102C6.37026 300.285 5.23038 300.491 3.87856 300.967C2.58571 301.423 0.608415 303.018 0.608415 304.992C0.608415 306.511 1.94923 307.954 3.65041 307.954C3.66942 307.954 3.70745 307.921 3.76449 307.871C3.9356 307.721 4.27782 307.422 4.79116 307.422C5.47561 307.422 5.85586 307.65 5.85586 307.65C5.07001 308.232 3.64634 309.659 2.50966 311.219C1.56578 312.515 0.820196 313.964 0.379402 314.82C0.251948 315.068 0.149977 315.266 0.0760612 315.396C0.00214958 315.266 -0.0998154 315.068 -0.22726 314.82L-0.227274 314.82L-0.227288 314.82C-0.668085 313.964 -1.41367 312.515 -2.35754 311.219C-3.49422 309.659 -4.91789 308.232 -5.70374 307.65C-5.70374 307.65 -5.32349 307.422 -4.63904 307.422C-4.12571 307.422 -3.78348 307.721 -3.61237 307.871C-3.55533 307.921 -3.5173 307.954 -3.49829 307.954C-1.79711 307.954 -0.456293 306.511 -0.456293 304.992C-0.456293 303.018 -2.43359 301.423 -3.72644 300.967C-5.07827 300.491 -6.21815 300.285 -7.23302 300.102C-8.81924 299.816 -10.1001 299.585 -11.4075 298.461C-14.1453 296.107 -12.8017 291.879 -11.5596 289.804ZM-2.50965 309.169C-2.10405 309.093 -1.44495 308.941 -0.912599 308.41C-0.536873 308.034 -0.325308 307.697 -0.170953 307.451C-0.106608 307.348 -0.052206 307.262 1.90735e-06 307.195C0.0418797 307.248 0.0894041 307.315 0.144575 307.392C0.323184 307.642 0.581934 308.003 0.988651 308.41C1.521 308.941 2.1801 309.093 2.5857 309.169C2.2308 309.22 1.41453 309.291 0.988651 309.169C0.562772 309.048 0.126752 308.713 1.90735e-06 308.561C-0.126748 308.713 -0.486718 309.048 -0.912599 309.169C-1.33848 309.291 -2.15475 309.22 -2.50965 309.169ZM-0.532344 310.004C-0.228144 309.777 6.67572e-06 309.473 6.67572e-06 309.473C6.67572e-06 309.473 0.152106 309.777 0.456306 310.004C0.836555 310.289 1.29286 310.46 1.29286 310.46C1.29286 310.46 0.836555 310.84 0.456306 311.447C0.0760565 312.055 6.67572e-06 312.662 6.67572e-06 312.662C6.67572e-06 312.662 -0.152094 312.055 -0.532344 311.447C-0.912594 310.84 -1.36889 310.46 -1.36889 310.46C-1.36889 310.46 -0.912594 310.289 -0.532344 310.004Z" fill="#1FB18E"/>
<path fill-rule="evenodd" clip-rule="evenodd" d="M-6.23607 327.185C-6.23607 324.573 -5.32347 322.603 -4.86717 321.945C-6.54027 321.945 -9.88647 324.224 -9.88647 328.325C-9.88647 333.428 -3.27012 335.919 -1.36887 335.919C-1.59774 335.662 -1.85889 335.386 -2.13866 335.092C-3.84217 333.296 -6.23607 330.773 -6.23607 327.185ZM6.16008 327.185C6.16008 324.573 5.24748 322.603 4.79118 321.945C6.46428 321.945 9.81048 324.224 9.81048 328.325C9.81048 333.428 3.19413 335.919 1.29288 335.919C1.52175 335.662 1.7829 335.386 2.06268 335.092C3.76618 333.296 6.16008 330.773 6.16008 327.185ZM-14.7537 332.35C-14.0692 333.641 -12.5482 335.995 -10.3428 336.906C-8.94704 337.483 -8.37369 337.482 -7.58183 337.48C-7.12244 337.479 -6.58949 337.478 -5.77976 337.59C-3.07497 337.962 -1.59701 339.412 -1.59701 341.159C-1.59701 342.906 -2.73776 343.589 -3.65036 343.589C-4.38044 343.589 -4.91786 342.728 -5.09531 342.298C-4.25876 342.247 -2.50961 341.918 -2.50961 340.703C-2.50961 339.716 -3.04196 338.957 -4.25876 338.957C-4.79651 338.957 -5.346 339.226 -6.01326 339.553C-7.04457 340.059 -8.35724 340.703 -10.3428 340.703C-13.1566 340.703 -15.21 337.817 -15.21 335.615C-15.21 333.853 -14.9058 332.704 -14.7537 332.35ZM10.3428 336.906C12.5483 335.995 14.0693 333.641 14.7537 332.35C14.9058 332.704 15.21 333.853 15.21 335.615C15.21 337.817 13.1567 340.703 10.3428 340.703C8.35732 340.703 7.04465 340.059 6.01334 339.553C5.34608 339.226 4.79659 338.957 4.25884 338.957C3.04204 338.957 2.50969 339.716 2.50969 340.703C2.50969 341.918 4.25884 342.247 5.09539 342.298C4.91794 342.728 4.38052 343.589 3.65044 343.589C2.73784 343.589 1.59709 342.906 1.59709 341.159C1.59709 339.412 3.07505 337.962 5.77984 337.59C6.58957 337.478 7.12252 337.479 7.58191 337.48C8.37377 337.482 8.94712 337.483 10.3428 336.906ZM-11.5596 326.35C-11.3821 328.046 -10.4221 331.757 -8.28944 333.413C-6.34271 334.925 -5.43415 335.366 -4.38812 335.874C-3.96306 336.081 -3.51529 336.298 -2.96594 336.603C-1.67309 337.32 -0.608389 338.349 0.0760612 339.564C0.76051 338.349 1.82521 337.32 3.11806 336.603C3.66741 336.298 4.11518 336.081 4.54024 335.874C5.58627 335.366 6.49483 334.925 8.44156 333.413C10.5742 331.757 11.5343 328.046 11.7117 326.35C12.9539 328.426 14.2974 332.654 11.5596 335.008C10.2522 336.132 8.97136 336.363 7.38514 336.649C6.37026 336.832 5.23038 337.038 3.87856 337.514C2.58571 337.97 0.608415 339.564 0.608415 341.539C0.608415 343.058 1.94923 344.501 3.65041 344.501C3.66942 344.501 3.70745 344.468 3.76449 344.418C3.9356 344.268 4.27782 343.969 4.79116 343.969C5.47561 343.969 5.85586 344.197 5.85586 344.197C5.07001 344.779 3.64634 346.206 2.50966 347.766C1.56578 349.062 0.820196 350.511 0.379402 351.367C0.251948 351.615 0.149977 351.813 0.0760612 351.943C0.00214958 351.813 -0.0998154 351.615 -0.22726 351.367L-0.227274 351.367L-0.227288 351.367C-0.668085 350.511 -1.41367 349.062 -2.35754 347.766C-3.49422 346.206 -4.91789 344.779 -5.70374 344.197C-5.70374 344.197 -5.32349 343.969 -4.63904 343.969C-4.12571 343.969 -3.78348 344.268 -3.61237 344.418C-3.55533 344.468 -3.5173 344.501 -3.49829 344.501C-1.79711 344.501 -0.456293 343.058 -0.456293 341.539C-0.456293 339.564 -2.43359 337.97 -3.72644 337.514C-5.07827 337.038 -6.21815 336.832 -7.23302 336.649C-8.81924 336.363 -10.1001 336.132 -11.4075 335.008C-14.1453 332.654 -12.8017 328.426 -11.5596 326.35ZM-2.50965 345.716C-2.10405 345.64 -1.44495 345.488 -0.912599 344.956C-0.536873 344.581 -0.325308 344.244 -0.170953 343.998C-0.106608 343.895 -0.052206 343.808 1.90735e-06 343.741C0.0418797 343.795 0.0894041 343.862 0.144575 343.939C0.323184 344.189 0.581934 344.55 0.988651 344.956C1.521 345.488 2.1801 345.64 2.5857 345.716C2.2308 345.767 1.41453 345.837 0.988651 345.716C0.562772 345.594 0.126752 345.26 1.90735e-06 345.108C-0.126748 345.26 -0.486718 345.594 -0.912599 345.716C-1.33848 345.837 -2.15475 345.767 -2.50965 345.716ZM-0.532344 346.551C-0.228144 346.324 6.67572e-06 346.02 6.67572e-06 346.02C6.67572e-06 346.02 0.152106 346.324 0.456306 346.551C0.836555 346.836 1.29286 347.007 1.29286 347.007C1.29286 347.007 0.836555 347.387 0.456306 347.994C0.0760565 348.602 6.67572e-06 349.209 6.67572e-06 349.209C6.67572e-06 349.209 -0.152094 348.602 -0.532344 347.994C-0.912594 347.387 -1.36889 347.007 -1.36889 347.007C-1.36889 347.007 -0.912594 346.836 -0.532344 346.551Z" fill="#1FB18E"/>
</g>
</g>
</svg>
