<svg width="31" height="35" viewBox="0 0 31 35" fill="none" xmlns="http://www.w3.org/2000/svg">
<g filter="url(#filter0_d_1230_10721)">
<path fill-rule="evenodd" clip-rule="evenodd" d="M15.9452 2.02794C15.4924 3.01278 14.628 4.76403 14.072 5.7976C13.4159 7.0174 12.8042 7.94655 12.3807 8.58985C12.2162 8.83969 12.0801 9.04642 11.9808 9.21031C11.9808 9.21031 12.6351 9.05636 13.1611 8.79976C13.5374 9.13334 14.2174 10.164 14.7392 11.3529C15.3959 12.8494 15.6461 14.2375 15.8385 15.305L15.8385 15.3052C15.8754 15.5097 15.9101 15.7024 15.9452 15.8818C15.9802 15.7023 16.015 15.5095 16.0518 15.3049C16.2442 14.2375 16.4944 12.8494 17.1512 11.3529C17.6729 10.164 18.3529 9.13334 18.7292 8.79976C19.2552 9.05636 19.9095 9.21031 19.9095 9.21031C19.8103 9.04643 19.6742 8.83972 19.5097 8.58991L19.5097 8.58985C19.0861 7.94654 18.4744 7.01739 17.8183 5.7976C17.2624 4.76403 16.3979 3.01278 15.9452 2.02794ZM15.9452 6.68274C15.6116 7.1831 14.9368 7.77583 14.5981 8.04269C15.7656 10.4419 15.9324 12.5331 15.9324 12.5331C15.9324 12.5331 16.112 10.4419 17.2795 8.04269C16.9408 7.77583 16.2788 7.1831 15.9452 6.68274ZM3.03062 24.3431C4.10986 24.2428 6.05873 24.1158 7.23181 24.0805C8.61615 24.0388 9.72664 24.104 10.4955 24.1491H10.4956H10.4956L10.4956 24.1491C10.7943 24.1667 11.0413 24.1812 11.2329 24.1852C11.2329 24.1852 10.7724 23.6955 10.2872 23.3683C10.3879 22.8756 10.9405 21.7713 11.7092 20.7251C12.6769 19.408 13.754 18.4973 14.5822 17.797L14.5822 17.797L14.5822 17.797L14.5823 17.7969L14.5826 17.7967L14.5827 17.7966L14.5829 17.7964L14.5829 17.7964L14.5833 17.7961C14.7416 17.6622 14.8908 17.5361 15.0284 17.4162C14.8557 17.4755 14.6716 17.5417 14.4764 17.6119L14.4763 17.6119L14.4759 17.6121L14.4759 17.6121L14.4758 17.6121L14.4756 17.6122L14.4755 17.6122C13.4549 17.9793 12.1277 18.4567 10.5032 18.6362C9.21283 18.7788 7.98021 18.7053 7.50315 18.5462C7.46236 17.9623 7.26854 17.3187 7.26854 17.3187C7.17625 17.4866 7.06527 17.7078 6.93114 17.9752L6.93113 17.9752L6.93111 17.9753C6.58576 18.6637 6.08696 19.658 5.35866 20.8361C4.74153 21.8344 3.65715 23.4586 3.03062 24.3431ZM7.06191 22.0158C7.66202 22.0545 8.51277 22.3426 8.91323 22.5025C10.4072 20.2918 12.1349 19.1017 12.1349 19.1017C12.1349 19.1017 10.234 19.9918 7.57252 20.1803C7.51076 20.6071 7.32845 21.4767 7.06191 22.0158ZM5.35867 13.0084C4.74153 12.0101 3.65715 10.3858 3.03062 9.50137C4.10987 9.60172 6.05873 9.72868 7.23181 9.76401C8.61621 9.80571 9.72673 9.74051 10.4956 9.69537H10.4956H10.4956H10.4956H10.4956C10.7943 9.67784 11.0413 9.66334 11.2329 9.65929C11.2329 9.65929 10.7724 10.149 10.2872 10.4762C10.3879 10.9689 10.9405 12.0732 11.7092 13.1194C12.6769 14.4365 13.754 15.3472 14.5822 16.0475L14.5824 16.0477C14.741 16.1818 14.8905 16.3082 15.0284 16.4283C14.8554 16.3689 14.6711 16.3026 14.4755 16.2323C13.4549 15.8652 12.1277 15.3878 10.5032 15.2083C9.21283 15.0657 7.98021 15.1392 7.50316 15.2983C7.46236 15.8822 7.26854 16.5258 7.26854 16.5258C7.17625 16.3579 7.06527 16.1367 6.93115 15.8693L6.93114 15.8693C6.58579 15.1808 6.08699 14.1865 5.35867 13.0084ZM7.56607 13.6754C7.50432 13.2487 7.32842 12.3679 7.06188 11.8288C7.66199 11.7901 8.50632 11.5131 8.90678 11.3532C10.4008 13.5639 12.122 14.7651 12.122 14.7651C12.122 14.7651 10.2276 13.8639 7.56607 13.6754ZM15.9452 31.8167C16.3979 30.8318 17.2624 29.0806 17.8184 28.047C18.4745 26.8272 19.0862 25.8981 19.5097 25.2547C19.6742 25.0049 19.8103 24.7982 19.9096 24.6343C19.9096 24.6343 19.2553 24.7882 18.7293 25.0448C18.3529 24.7113 17.6729 23.6806 17.1512 22.4917C16.4945 20.9952 16.2443 19.607 16.0519 18.5396L16.0519 18.5395C16.015 18.335 15.9803 18.1423 15.9452 17.9628C15.9102 18.1423 15.8754 18.3351 15.8386 18.5396L15.8385 18.5396L15.8385 18.5396C15.6462 19.6071 15.396 20.9952 14.7392 22.4917C14.2175 23.6806 13.5375 24.7113 13.1612 25.0448C12.6352 24.7882 11.9808 24.6343 11.9808 24.6343C12.0801 24.7982 12.2162 25.0049 12.3807 25.2547C12.8043 25.8981 13.416 26.8272 14.0721 28.047C14.628 29.0806 15.4925 30.8318 15.9452 31.8167ZM15.9452 27.1618C16.2788 26.6615 16.9536 26.0687 17.2923 25.8019C16.1248 23.4027 15.958 21.3115 15.958 21.3115C15.958 21.3115 15.7784 23.4027 14.6109 25.8019C14.9496 26.0687 15.6116 26.6615 15.9452 27.1618ZM24.6586 9.76396C25.8317 9.72863 27.7805 9.60167 28.8598 9.50132C28.2333 10.3858 27.1489 12.0101 26.5317 13.0083C25.8034 14.1864 25.3046 15.1807 24.9593 15.8692L24.9593 15.8692L24.9593 15.8692L24.9592 15.8693L24.9591 15.8696L24.959 15.8697C24.825 16.1368 24.7141 16.3579 24.6219 16.5258C24.6219 16.5258 24.428 15.8821 24.3872 15.2983C23.9102 15.1392 22.6776 15.0656 21.3872 15.2082C19.7627 15.3877 18.4355 15.8651 17.4149 16.2322L17.4148 16.2323L17.4146 16.2323L17.4145 16.2323C17.2191 16.3026 17.0349 16.3689 16.862 16.4282C16.9998 16.3082 17.1492 16.1819 17.3077 16.0478L17.3078 16.0478L17.3081 16.0475L17.3082 16.0474L17.3082 16.0474C18.1364 15.3471 19.2135 14.4364 20.1812 13.1194C20.9499 12.0731 21.5025 10.9689 21.6032 10.4762C21.118 10.1489 20.6575 9.65924 20.6575 9.65924C20.8491 9.66328 21.0961 9.67779 21.3948 9.69532C22.1636 9.74046 23.2742 9.80565 24.6586 9.76396ZM22.9772 11.342C23.3777 11.5019 24.2284 11.79 24.8285 11.8287C24.562 12.3677 24.3797 13.2374 24.3179 13.6642C21.6565 13.8527 19.7556 14.7427 19.7556 14.7427C19.7556 14.7427 21.4832 13.5527 22.9772 11.342ZM28.8599 24.3431C28.2333 23.4586 27.1489 21.8343 26.5318 20.8361C25.8035 19.658 25.3047 18.6637 24.9594 17.9753L24.9593 17.9752L24.9593 17.9752C24.8252 17.7078 24.7142 17.4866 24.6219 17.3186C24.6219 17.3186 24.4281 17.9623 24.3873 18.5461C23.9103 18.7052 22.6776 18.7788 21.3872 18.6362C19.7628 18.4567 18.4356 17.9793 17.415 17.6122L17.4149 17.6122C17.2194 17.5418 17.0351 17.4755 16.8621 17.4162C16.9999 17.5362 17.1494 17.6626 17.3081 17.7968L17.3083 17.797L17.3083 17.797C18.1365 18.4973 19.2136 19.408 20.1812 20.725C20.9499 21.7713 21.5026 22.8755 21.6033 23.3682C21.118 23.6955 20.6575 24.1851 20.6575 24.1851C20.8491 24.1811 21.0962 24.1666 21.3948 24.1491L21.3948 24.1491H21.3948C22.1637 24.1039 23.2742 24.0387 24.6587 24.0804C25.8317 24.1158 27.7806 24.2427 28.8599 24.3431ZM24.8286 22.0157C24.5621 21.4766 24.3862 20.5958 24.3244 20.1691C21.6629 19.9806 19.7684 19.0794 19.7684 19.0794C19.7684 19.0794 21.4897 20.2806 22.9837 22.4912C23.3842 22.3313 24.2285 22.0544 24.8286 22.0157ZM13.6358 13.0079L13.4562 14.7014L15.8169 16.8696L12.8147 15.9715L11.4419 16.9338L12.8147 17.9986L15.8169 16.9851L13.4562 19.2046L13.6358 20.9238L15.2395 20.1925L15.9195 17.0364L16.638 20.1925L18.2545 20.9238L18.4341 19.2046L16.035 16.9851L19.0115 17.9986L20.4997 16.9338L19.0115 15.9715L16.035 16.8696L18.2545 14.7014V13.0079L16.638 13.7135L15.9195 16.7542L15.2395 13.7135L13.6358 13.0079Z" fill="#87E7EB"/>
</g>
<defs>
<filter id="filter0_d_1230_10721" x="0.93064" y="0.97832" width="30.0292" height="33.9881" filterUnits="userSpaceOnUse" color-interpolation-filters="sRGB">
<feFlood flood-opacity="0" result="BackgroundImageFix"/>
<feColorMatrix in="SourceAlpha" type="matrix" values="0 0 0 0 0 0 0 0 0 0 0 0 0 0 0 0 0 0 127 0" result="hardAlpha"/>
<feOffset dy="1.05"/>
<feGaussianBlur stdDeviation="1.05"/>
<feComposite in2="hardAlpha" operator="out"/>
<feColorMatrix type="matrix" values="0 0 0 0 0 0 0 0 0 0 0 0 0 0 0 0 0 0 0.1 0"/>
<feBlend mode="normal" in2="BackgroundImageFix" result="effect1_dropShadow_1230_10721"/>
<feBlend mode="normal" in="SourceGraphic" in2="effect1_dropShadow_1230_10721" result="shape"/>
</filter>
</defs>
</svg>
