<svg width="100" height="105" viewBox="0 0 100 105" fill="none" xmlns="http://www.w3.org/2000/svg">
<g filter="url(#filter0_d_601_9657)">
<path fill-rule="evenodd" clip-rule="evenodd" d="M90 47.538C87.9673 44.1517 82.202 35.4691 74.6403 26.9158C67.0786 18.3626 54.9992 8.61459 49.9429 5C46.3602 7.6507 38.1201 14.0479 33.8209 18.4311C29.5217 22.8142 24.0512 28.6787 21.8533 31.0631C22.425 33.067 23.8886 37.8814 25.1692 41.1079C26.4498 44.3344 28.2437 47.7536 28.9805 49.06C30.7591 47.0688 35.2628 42.6231 38.2421 39.8523C42.1237 36.2422 45.9764 34.2178 48.7696 32.7501C49.1853 32.5317 49.5775 32.3256 49.9429 32.1285C51.0863 33.0797 53.7694 35.5072 55.355 37.6074C56.9405 39.7077 58.2262 42.262 58.6708 43.2766C57.5655 44.3927 54.9357 47.0206 53.2587 48.6034C51.5817 50.1862 49.4855 52.0785 48.647 52.8268C48.9265 53.258 49.6684 54.3335 50.4002 55.1858C51.132 56.038 51.8739 56.7584 52.1534 57.0121C53.462 56.0989 56.8643 53.6105 60.0048 50.9624C63.1453 48.3142 65.9378 45.5976 66.9414 44.5703C66.0521 42.6171 63.2749 37.4933 59.2806 32.6231C55.2864 27.7529 51.3912 23.593 49.9429 22.1217L31.8771 37.303C32.4234 34.8045 34.667 28.2704 39.2711 22.1217C43.8752 15.9731 48.304 11.1892 49.9429 9.5658C52.8268 12.597 60.4012 21.4521 67.6275 32.6231C74.8538 43.7941 79.7094 55.3126 81.2339 59.6755L90 47.538ZM10 47.462C12.0327 50.8483 17.798 59.5309 25.3597 68.0842C32.9214 76.6374 45.0008 86.3854 50.0571 90C53.6398 87.3493 61.8799 80.9521 66.1791 76.5689C70.4783 72.1858 75.9488 66.3212 78.1467 63.9369C77.575 61.933 76.1114 57.1186 74.8308 53.8921C73.5502 50.6656 71.7563 47.2463 71.0195 45.94C69.2409 47.9312 64.7372 52.3769 61.7579 55.1477C57.8763 58.7577 54.0236 60.7822 51.2304 62.2499C50.8147 62.4683 50.4225 62.6744 50.0571 62.8715C48.9137 61.9203 46.2306 59.4928 44.645 57.3926C43.0595 55.2923 41.7738 52.738 41.3292 51.7234C42.4345 50.6073 45.0643 47.9794 46.7413 46.3966C48.4183 44.8138 50.5145 42.9215 51.353 42.1732C51.0735 41.742 50.3316 40.6665 49.5998 39.8142C48.868 38.962 48.1261 38.2416 47.8466 37.9879C46.538 38.9011 43.1357 41.3894 39.9952 44.0376C36.8547 46.6858 34.0622 49.4024 33.0586 50.4297C33.9479 52.3829 36.7251 57.5067 40.7194 62.3769C44.7136 67.2471 48.6088 71.407 50.0571 72.8783L68.1229 57.697C67.5766 60.1955 65.333 66.7296 60.7289 72.8783C56.1248 79.0269 51.696 83.8108 50.0571 85.4342C47.1732 82.403 39.5988 73.5479 32.3725 62.3769C25.1462 51.2059 20.2906 39.6874 18.7661 35.3245L10 47.462Z" fill="#E6B639"/>
</g>
<defs>
<filter id="filter0_d_601_9657" x="0" y="0" width="100" height="105" filterUnits="userSpaceOnUse" color-interpolation-filters="sRGB">
<feFlood flood-opacity="0" result="BackgroundImageFix"/>
<feColorMatrix in="SourceAlpha" type="matrix" values="0 0 0 0 0 0 0 0 0 0 0 0 0 0 0 0 0 0 127 0" result="hardAlpha"/>
<feOffset dy="5"/>
<feGaussianBlur stdDeviation="5"/>
<feComposite in2="hardAlpha" operator="out"/>
<feColorMatrix type="matrix" values="0 0 0 0 0 0 0 0 0 0 0 0 0 0 0 0 0 0 0.1 0"/>
<feBlend mode="normal" in2="BackgroundImageFix" result="effect1_dropShadow_601_9657"/>
<feBlend mode="normal" in="SourceGraphic" in2="effect1_dropShadow_601_9657" result="shape"/>
</filter>
</defs>
</svg>
