<svg width="30" height="29" viewBox="0 0 30 29" fill="none" xmlns="http://www.w3.org/2000/svg">
<g filter="url(#filter0_d_1230_10781)">
<path fill-rule="evenodd" clip-rule="evenodd" d="M15.0776 5.04148C20.3636 5.04148 24.6488 9.31086 24.6488 14.5774C24.6488 18.2444 22.7598 21.4128 19.7135 23.0083C21.8718 21.5136 23.4621 19.1409 23.4621 16.2017C23.4621 11.5056 19.6653 7.80392 15.0776 7.80392C13.9073 7.80392 12.9149 7.96753 11.8059 8.43375C11.4789 8.57121 10.7012 9.16524 10.9851 10.3675C11.2691 11.5697 12.3431 11.6546 12.8262 11.5056C13.5582 11.2798 14.3127 11.163 15.0887 11.163C18.6045 11.163 21.4547 14.0027 21.4547 17.5056C21.4547 21.0085 18.4714 23.8813 14.9556 23.8813C10.0646 23.8813 8.00176 21.9697 8.00176 21.9697C8.00176 21.9697 9.51009 25.1299 14.9556 25.1299C21.6075 25.1299 27 19.7573 27 13.1299C27 6.50247 21.6075 1.12988 14.9556 1.12988C10.348 1.12988 6.45607 3.57499 4.43059 7.36193C4.17598 7.92546 4.14667 8.67021 4.87421 9.21828C5.60176 9.76635 6.82704 9.61607 7.09233 9.21828C8.80683 6.64754 11.7474 5.04148 15.0776 5.04148ZM6.41591 13.3067C6.41591 14.2465 5.65123 15.0084 4.70796 15.0084C3.76468 15.0084 3 14.2465 3 13.3067C3 12.3669 3.76468 11.6051 4.70796 11.6051C5.65123 11.6051 6.41591 12.3669 6.41591 13.3067ZM10.7191 18.8426C10.7191 21.2043 12.6407 23.1189 15.0111 23.1189C16.6158 23.1189 17.9476 22.3123 18.6932 21.0194C18.7378 20.9421 18.6932 20.7542 18.5269 20.9421C17.8614 21.6935 16.7858 22.5001 15.2662 22.5001C13.7778 22.5001 12.1165 21.2758 12.1165 19.7929C12.1165 18.31 13.1235 17.2515 14.6119 17.2515C15.4437 17.2515 15.7828 17.8578 16.098 18.9973C16.5749 20.7211 19.9687 19.7929 18.9102 17.0526C18.3137 15.5083 16.7401 14.5664 15.0111 14.5664C12.6407 14.5664 10.7191 16.4809 10.7191 18.8426ZM6.88172 19.7598C7.55549 19.7598 8.10169 19.2156 8.10169 18.5443C8.10169 17.873 7.55549 17.3288 6.88172 17.3288C6.20795 17.3288 5.66175 17.873 5.66175 18.5443C5.66175 19.2156 6.20795 19.7598 6.88172 19.7598Z" fill="#009DFE"/>
</g>
<defs>
<filter id="filter0_d_1230_10781" x="0.9" y="0.0798827" width="28.2" height="28.2" filterUnits="userSpaceOnUse" color-interpolation-filters="sRGB">
<feFlood flood-opacity="0" result="BackgroundImageFix"/>
<feColorMatrix in="SourceAlpha" type="matrix" values="0 0 0 0 0 0 0 0 0 0 0 0 0 0 0 0 0 0 127 0" result="hardAlpha"/>
<feOffset dy="1.05"/>
<feGaussianBlur stdDeviation="1.05"/>
<feComposite in2="hardAlpha" operator="out"/>
<feColorMatrix type="matrix" values="0 0 0 0 0 0 0 0 0 0 0 0 0 0 0 0 0 0 0.1 0"/>
<feBlend mode="normal" in2="BackgroundImageFix" result="effect1_dropShadow_1230_10781"/>
<feBlend mode="normal" in="SourceGraphic" in2="effect1_dropShadow_1230_10781" result="shape"/>
</filter>
</defs>
</svg>
