<svg width="26" height="30" viewBox="0 0 26 30" fill="none" xmlns="http://www.w3.org/2000/svg">
<g filter="url(#filter0_d_1230_10865)">
<path d="M11.9894 4.59913C12.6191 3.50917 12.7553 2.41223 12.7447 2C13.4787 2.86638 14.9787 4.72699 14.9787 5.82533C14.9787 7.61495 12.3404 8.06812 12.3404 10.2376C12.3404 11.4114 13.1844 12.0996 13.6383 12.386C13.3901 12.0786 12.8936 11.2961 12.8936 10.6253C12.8936 9.03306 14.7305 7.68415 15.6489 7.20873C15.4539 7.66987 15.0638 8.55022 15.0638 10.0594C15.0638 11.5686 16.7518 13.483 17.5957 14.241C17.4007 13.8358 17.4668 13.5179 16.766 12.6795C16.4681 12.3231 16.1383 11.7509 16.1383 10.7616C16.1383 9.77223 16.9468 8.74934 17.3511 8.36157L17.3587 8.38919C17.6068 9.28231 18.1433 11.2134 19.6383 12.3231C21.5213 13.7209 23 15.7083 23 17.4271C23 18.5799 21.7128 20.8017 18.8617 22.0594C16.0106 23.317 14.1667 25.0777 13.2447 26C12.305 25.2349 9.87447 23.4763 7.67021 22.2271C4.91489 20.6655 3 19.4183 3 17.9511C3 15.31 5.32979 12.8262 6.3617 11.5686C7.18723 10.5624 7.98936 9.16507 8.28723 8.59214C8.30851 9.1441 8.64468 10.6379 9.81915 11.5686C10.9936 12.4992 12.5922 13.0079 13.2447 13.2245C12.5887 13.2245 10.9851 13.4278 9.81915 14.241C8.3617 15.2576 7.67021 16.5048 7.67021 17.9511C7.67021 19.1081 8.52128 20.3336 8.94681 20.8017C7.67021 20.1415 5.37234 18.8419 5.37234 16.5782C5.37234 15.4211 6.28723 14.0594 6.76596 13.5598C5.92553 14.0105 4.24468 15.3729 4.24468 17.2175C4.24468 19.5231 6.76596 20.5083 8.94681 21.5668C10.375 22.26 12.3936 23.6 13.2447 24.145C13.4291 23.8585 15.5106 22.4571 17.3511 21.5668C20.9043 19.848 22.0532 18.6218 22.0532 16.9345C22.0532 15.5846 20.4929 14.3563 19.7553 13.9581C19.9752 14.1921 20.5 15.2472 20.5 17.2175C20.5 20.2148 16.1383 22.0594 13.7979 22.0594C12.617 22.0594 8.94681 21.5668 8.94681 19.1773C8.94681 17.2657 10.9752 17.214 11.9894 17.4271C11.5851 17.7974 10.7766 18.0978 10.7766 19.4183C10.7766 20.2987 11.2447 21.5668 13.7979 21.5668C16.3511 21.5668 18.2553 19.586 18.2553 17.9511C18.2553 16.9974 17.8511 14.5764 14.6702 13.3817C11.4894 12.1869 9.51064 11.2933 9.51064 8.95895C9.51064 7.27162 11.2021 5.96157 11.9894 4.59913Z" fill="#DD2B2C"/>
<path d="M14.117 20.0262C14.539 19.3939 14.9468 17.7605 13.7234 16.7773C13.0745 16.2558 11.8329 16.1045 10.0106 16.5991C10.5166 15.5176 11.0426 14.9736 12.1489 14.6393C13.649 14.1861 15.5915 14.6791 16.4681 16.5991C17.1383 18.9572 15.1454 19.9144 14.117 20.0262Z" fill="#DD2B2C"/>
</g>
<defs>
<filter id="filter0_d_1230_10865" x="0.8875" y="0.94375" width="24.225" height="28.225" filterUnits="userSpaceOnUse" color-interpolation-filters="sRGB">
<feFlood flood-opacity="0" result="BackgroundImageFix"/>
<feColorMatrix in="SourceAlpha" type="matrix" values="0 0 0 0 0 0 0 0 0 0 0 0 0 0 0 0 0 0 127 0" result="hardAlpha"/>
<feOffset dy="1.05625"/>
<feGaussianBlur stdDeviation="1.05625"/>
<feComposite in2="hardAlpha" operator="out"/>
<feColorMatrix type="matrix" values="0 0 0 0 0 0 0 0 0 0 0 0 0 0 0 0 0 0 0.1 0"/>
<feBlend mode="normal" in2="BackgroundImageFix" result="effect1_dropShadow_1230_10865"/>
<feBlend mode="normal" in="SourceGraphic" in2="effect1_dropShadow_1230_10865" result="shape"/>
</filter>
</defs>
</svg>
