<svg width="95" height="96" viewBox="0 0 95 96" fill="none" xmlns="http://www.w3.org/2000/svg">
<g filter="url(#filter0_d_601_9746)">
<path d="M10 41.9415C10 27.3189 19.7037 16.4006 24.6762 12.7866C24.6762 12.7866 18.1305 21.752 18.1305 28.8757C23.6082 22.308 31.3252 19.1111 36.5618 19.1111C41.7983 19.1111 47.3105 22.2733 49.0675 24.0802C46.4837 24.532 41.6261 25.1922 41.6261 31.1691C41.6261 38.0148 48.8264 41.038 52.8916 41.038C56.9568 41.038 66.2586 38.2581 66.2586 25.7482C66.2586 15.7403 53.7644 7.7827 47.5517 5.00274C52.2141 4.92166 63.8057 6.60817 72.5976 14.4199C81.3895 22.2316 84.4488 33.6364 85 38.2581C84.1043 36.1383 81.9683 31.6556 79.4878 28.7714C76.9578 25.8296 75.3192 24.7405 74.5958 24.3582C75.2848 25.8525 76.0772 29.6402 76.0772 35.0958C76.0772 46.5493 67.5333 52.3432 63.0891 53.7911C63.4796 52.7602 64.2604 50.6984 64.2604 48.4049C64.2604 46.1114 61.2977 42.428 56.6812 42.428C52.0648 42.428 44.9334 46.9107 44.9334 55.0421C44.9334 62.2352 50.8934 69.6021 60.7464 69.6021C67.9123 69.6021 76.571 64.5055 80.2458 61.9572C75.5949 70.4014 64.2604 81 47.7928 81C40.627 81 35.1148 79.0077 33.2545 78.0115C34.3799 78.1274 37.2508 78.4633 41.5227 78.1853C45.7947 77.9073 49.3431 76.4941 50.17 75.8571C47.2301 75.2663 39.7244 72.674 34.7359 67.4477C29.7474 62.2213 29.8553 54.1733 30.5328 51.0111C32.1176 53.0614 34.0469 55.3201 37.3542 55.3201C41.0749 55.3201 44.9334 51.0111 44.9334 46.0767C44.9334 39.2658 40.7416 32.8719 30.5328 32.8719C18.8884 32.8719 13.4107 47.0149 15.0988 61.9572C13.8585 59.6985 10 53.7911 10 41.9415Z" fill="#B573E5"/>
</g>
<defs>
<filter id="filter0_d_601_9746" x="0" y="0" width="95" height="96" filterUnits="userSpaceOnUse" color-interpolation-filters="sRGB">
<feFlood flood-opacity="0" result="BackgroundImageFix"/>
<feColorMatrix in="SourceAlpha" type="matrix" values="0 0 0 0 0 0 0 0 0 0 0 0 0 0 0 0 0 0 127 0" result="hardAlpha"/>
<feOffset dy="5"/>
<feGaussianBlur stdDeviation="5"/>
<feComposite in2="hardAlpha" operator="out"/>
<feColorMatrix type="matrix" values="0 0 0 0 0 0 0 0 0 0 0 0 0 0 0 0 0 0 0.1 0"/>
<feBlend mode="normal" in2="BackgroundImageFix" result="effect1_dropShadow_601_9746"/>
<feBlend mode="normal" in="SourceGraphic" in2="effect1_dropShadow_601_9746" result="shape"/>
</filter>
</defs>
</svg>
