<svg width="148" height="32" viewBox="0 0 148 32" fill="none" xmlns="http://www.w3.org/2000/svg">
<g filter="url(#filter0_d_601_1669)">
<path d="M44.6694 3.77693C44.8346 3.4532 45.2971 3.4532 45.4624 3.77693L48.8994 10.5119C48.9641 10.6386 49.0855 10.7268 49.226 10.7491L56.6934 11.9368C57.0523 11.9938 57.1953 12.4338 56.9384 12.6909L51.5953 18.041C51.4947 18.1416 51.4483 18.2843 51.4705 18.4249L52.6486 25.8938C52.7052 26.2528 52.331 26.5247 52.007 26.3599L45.2677 22.9315C45.1409 22.867 44.9909 22.867 44.864 22.9315L38.1247 26.3599C37.8008 26.5247 37.4265 26.2528 37.4832 25.8938L38.6612 18.4249C38.6834 18.2843 38.637 18.1416 38.5365 18.041L33.1933 12.6909C32.9365 12.4338 33.0794 11.9938 33.4383 11.9368L40.9057 10.7491C41.0463 10.7268 41.1676 10.6386 41.2323 10.5119L44.6694 3.77693Z" fill="#FFCC32"/>
</g>
<g filter="url(#filter1_d_601_1669)">
<path d="M102.538 3.77693C102.703 3.4532 103.165 3.4532 103.331 3.77693L106.768 10.5119C106.832 10.6386 106.954 10.7268 107.094 10.7491L114.562 11.9368C114.921 11.9938 115.064 12.4338 114.807 12.6909L109.464 18.041C109.363 18.1416 109.317 18.2843 109.339 18.4249L110.517 25.8938C110.573 26.2528 110.199 26.5247 109.875 26.3599L103.136 22.9315C103.009 22.867 102.859 22.867 102.732 22.9315L95.993 26.3599C95.6691 26.5247 95.2948 26.2528 95.3515 25.8938L96.5295 18.4249C96.5517 18.2843 96.5053 18.1416 96.4048 18.041L91.0616 12.6909C90.8048 12.4338 90.9477 11.9938 91.3066 11.9368L98.774 10.7491C98.9146 10.7268 99.0359 10.6386 99.1006 10.5119L102.538 3.77693Z" fill="#FFCC32"/>
</g>
<g filter="url(#filter2_d_601_1669)">
<path d="M73.6035 3.77693C73.7687 3.4532 74.2312 3.4532 74.3964 3.77693L77.8335 10.5119C77.8982 10.6386 78.0195 10.7268 78.1601 10.7491L85.6275 11.9368C85.9864 11.9938 86.1293 12.4338 85.8725 12.6909L80.5293 18.041C80.4288 18.1416 80.3824 18.2843 80.4046 18.4249L81.5826 25.8938C81.6393 26.2528 81.265 26.5247 80.9411 26.3599L74.2018 22.9315C74.075 22.867 73.9249 22.867 73.7981 22.9315L67.0588 26.3599C66.7348 26.5247 66.3606 26.2528 66.4172 25.8938L67.5953 18.4249C67.6175 18.2843 67.5711 18.1416 67.4706 18.041L62.1274 12.6909C61.8705 12.4338 62.0135 11.9938 62.3724 11.9368L69.8398 10.7491C69.9803 10.7268 70.1017 10.6386 70.1664 10.5119L73.6035 3.77693Z" fill="#FFCC32"/>
</g>
<g filter="url(#filter3_d_601_1669)">
<path d="M131.472 3.77693C131.637 3.4532 132.1 3.4532 132.265 3.77693L135.702 10.5119C135.767 10.6386 135.888 10.7268 136.028 10.7491L143.496 11.9368C143.855 11.9938 143.998 12.4338 143.741 12.6909L138.398 18.041C138.297 18.1416 138.251 18.2843 138.273 18.4249L139.451 25.8938C139.508 26.2528 139.133 26.5247 138.81 26.3599L132.07 22.9315C131.943 22.867 131.793 22.867 131.667 22.9315L124.927 26.3599C124.603 26.5247 124.229 26.2528 124.286 25.8938L125.464 18.4249C125.486 18.2843 125.44 18.1416 125.339 18.041L119.996 12.6909C119.739 12.4338 119.882 11.9938 120.241 11.9368L127.708 10.7491C127.849 10.7268 127.97 10.6386 128.035 10.5119L131.472 3.77693Z" fill="#FFCC32"/>
</g>
<g filter="url(#filter4_d_601_1669)">
<path d="M15.7352 3.77693C15.9004 3.4532 16.3629 3.4532 16.5282 3.77693L19.9652 10.5119C20.0299 10.6386 20.1513 10.7268 20.2918 10.7491L27.7592 11.9368C28.1181 11.9938 28.2611 12.4338 28.0042 12.6909L22.661 18.041C22.5605 18.1416 22.5141 18.2843 22.5363 18.4249L23.7144 25.8938C23.771 26.2528 23.3968 26.5247 23.0728 26.3599L16.3335 22.9315C16.2067 22.867 16.0566 22.867 15.9298 22.9315L9.1905 26.3599C8.86656 26.5247 8.49234 26.2528 8.54896 25.8938L9.72701 18.4249C9.74918 18.2843 9.70282 18.1416 9.60227 18.041L4.25909 12.6909C4.00226 12.4338 4.1452 11.9938 4.50414 11.9368L11.9715 10.7491C12.1121 10.7268 12.2334 10.6386 12.2981 10.5119L15.7352 3.77693Z" fill="#FFCC32"/>
</g>
<defs>
<filter id="filter0_d_601_1669" x="29.0627" y="0.534149" width="32.0064" height="30.8751" filterUnits="userSpaceOnUse" color-interpolation-filters="sRGB">
<feFlood flood-opacity="0" result="BackgroundImageFix"/>
<feColorMatrix in="SourceAlpha" type="matrix" values="0 0 0 0 0 0 0 0 0 0 0 0 0 0 0 0 0 0 127 0" result="hardAlpha"/>
<feOffset dy="1"/>
<feGaussianBlur stdDeviation="2"/>
<feComposite in2="hardAlpha" operator="out"/>
<feColorMatrix type="matrix" values="0 0 0 0 0 0 0 0 0 0 0 0 0 0 0 0 0 0 0.1 0"/>
<feBlend mode="normal" in2="BackgroundImageFix" result="effect1_dropShadow_601_1669"/>
<feBlend mode="normal" in="SourceGraphic" in2="effect1_dropShadow_601_1669" result="shape"/>
</filter>
<filter id="filter1_d_601_1669" x="86.9309" y="0.534149" width="32.0064" height="30.8751" filterUnits="userSpaceOnUse" color-interpolation-filters="sRGB">
<feFlood flood-opacity="0" result="BackgroundImageFix"/>
<feColorMatrix in="SourceAlpha" type="matrix" values="0 0 0 0 0 0 0 0 0 0 0 0 0 0 0 0 0 0 127 0" result="hardAlpha"/>
<feOffset dy="1"/>
<feGaussianBlur stdDeviation="2"/>
<feComposite in2="hardAlpha" operator="out"/>
<feColorMatrix type="matrix" values="0 0 0 0 0 0 0 0 0 0 0 0 0 0 0 0 0 0 0.1 0"/>
<feBlend mode="normal" in2="BackgroundImageFix" result="effect1_dropShadow_601_1669"/>
<feBlend mode="normal" in="SourceGraphic" in2="effect1_dropShadow_601_1669" result="shape"/>
</filter>
<filter id="filter2_d_601_1669" x="57.9968" y="0.534149" width="32.0064" height="30.8751" filterUnits="userSpaceOnUse" color-interpolation-filters="sRGB">
<feFlood flood-opacity="0" result="BackgroundImageFix"/>
<feColorMatrix in="SourceAlpha" type="matrix" values="0 0 0 0 0 0 0 0 0 0 0 0 0 0 0 0 0 0 127 0" result="hardAlpha"/>
<feOffset dy="1"/>
<feGaussianBlur stdDeviation="2"/>
<feComposite in2="hardAlpha" operator="out"/>
<feColorMatrix type="matrix" values="0 0 0 0 0 0 0 0 0 0 0 0 0 0 0 0 0 0 0.1 0"/>
<feBlend mode="normal" in2="BackgroundImageFix" result="effect1_dropShadow_601_1669"/>
<feBlend mode="normal" in="SourceGraphic" in2="effect1_dropShadow_601_1669" result="shape"/>
</filter>
<filter id="filter3_d_601_1669" x="115.865" y="0.534149" width="32.0064" height="30.8751" filterUnits="userSpaceOnUse" color-interpolation-filters="sRGB">
<feFlood flood-opacity="0" result="BackgroundImageFix"/>
<feColorMatrix in="SourceAlpha" type="matrix" values="0 0 0 0 0 0 0 0 0 0 0 0 0 0 0 0 0 0 127 0" result="hardAlpha"/>
<feOffset dy="1"/>
<feGaussianBlur stdDeviation="2"/>
<feComposite in2="hardAlpha" operator="out"/>
<feColorMatrix type="matrix" values="0 0 0 0 0 0 0 0 0 0 0 0 0 0 0 0 0 0 0.1 0"/>
<feBlend mode="normal" in2="BackgroundImageFix" result="effect1_dropShadow_601_1669"/>
<feBlend mode="normal" in="SourceGraphic" in2="effect1_dropShadow_601_1669" result="shape"/>
</filter>
<filter id="filter4_d_601_1669" x="0.128479" y="0.534149" width="32.0064" height="30.8751" filterUnits="userSpaceOnUse" color-interpolation-filters="sRGB">
<feFlood flood-opacity="0" result="BackgroundImageFix"/>
<feColorMatrix in="SourceAlpha" type="matrix" values="0 0 0 0 0 0 0 0 0 0 0 0 0 0 0 0 0 0 127 0" result="hardAlpha"/>
<feOffset dy="1"/>
<feGaussianBlur stdDeviation="2"/>
<feComposite in2="hardAlpha" operator="out"/>
<feColorMatrix type="matrix" values="0 0 0 0 0 0 0 0 0 0 0 0 0 0 0 0 0 0 0.1 0"/>
<feBlend mode="normal" in2="BackgroundImageFix" result="effect1_dropShadow_601_1669"/>
<feBlend mode="normal" in="SourceGraphic" in2="effect1_dropShadow_601_1669" result="shape"/>
</filter>
</defs>
</svg>
