<svg width="80" height="1600" viewBox="0 0 80 1600" fill="none" xmlns="http://www.w3.org/2000/svg">
<g opacity="0.15">
<mask id="mask0_601_9418" style="mask-type:alpha" maskUnits="userSpaceOnUse" x="0" y="0" width="80" height="1600">
<rect x="80" y="1600" width="80" height="1600" transform="rotate(180 80 1600)" fill="#C4C4C4"/>
</mask>
<g mask="url(#mask0_601_9418)">
<g filter="url(#filter0_d_601_9418)">
<path fill-rule="evenodd" clip-rule="evenodd" d="M87.5003 1620.84C90.0707 1615.26 94.979 1605.35 98.1356 1599.5C101.861 1592.59 105.334 1587.33 107.739 1583.68L107.739 1583.68L107.739 1583.68C108.673 1582.27 109.446 1581.1 110.009 1580.17C110.009 1580.17 106.294 1581.04 103.307 1582.5C101.171 1580.61 97.3099 1574.77 94.3476 1568.04C90.6187 1559.56 89.1983 1551.7 88.106 1545.66C87.8967 1544.5 87.6994 1543.41 87.5003 1542.39C87.3012 1543.41 87.104 1544.5 86.8948 1545.66L86.8946 1545.66L86.8945 1545.66C85.8023 1551.7 84.3818 1559.56 80.6529 1568.04C77.6907 1574.77 73.8298 1580.61 71.6931 1582.5C68.7064 1581.04 64.9914 1580.17 64.9914 1580.17C65.5551 1581.1 66.3279 1582.27 67.2618 1583.68L67.2619 1583.68C69.6667 1587.33 73.1399 1592.59 76.865 1599.5C80.0215 1605.35 84.9299 1615.26 87.5003 1620.84ZM87.5 1594.48C89.394 1591.65 93.2256 1588.29 95.1487 1586.78C88.5198 1573.2 87.5729 1561.35 87.5729 1561.35C87.5729 1561.35 86.553 1573.2 79.9242 1586.78C81.8473 1588.29 85.6061 1591.65 87.5 1594.48ZM160.815 1494.49C154.688 1495.06 143.623 1495.77 136.962 1495.97C129.102 1496.2 122.797 1495.82 118.431 1495.57C116.735 1495.47 115.332 1495.38 114.245 1495.36C114.245 1495.36 116.861 1498.13 119.617 1499.99C119.047 1502.78 115.913 1509.03 111.552 1514.96C106.062 1522.41 99.9493 1527.57 95.2492 1531.53L95.249 1531.53L95.2486 1531.53L95.2486 1531.53C94.3481 1532.29 93.4994 1533.01 92.717 1533.69C93.699 1533.35 94.7453 1532.98 95.8555 1532.58C101.649 1530.51 109.183 1527.81 118.406 1526.79C125.732 1525.99 132.731 1526.41 135.44 1527.31C135.673 1530.62 136.776 1534.27 136.776 1534.27C137.3 1533.32 137.929 1532.06 138.69 1530.55L138.69 1530.55C140.648 1526.65 143.477 1521.02 147.608 1514.35C151.109 1508.7 157.261 1499.5 160.815 1494.49ZM137.933 1507.66C134.526 1507.44 129.694 1505.81 127.42 1504.9C118.944 1517.42 109.138 1524.15 109.138 1524.15C109.138 1524.15 119.929 1519.12 135.04 1518.06C135.389 1515.64 136.422 1510.72 137.933 1507.66ZM147.608 1558.65C151.109 1564.3 157.261 1573.5 160.815 1578.51C154.688 1577.94 143.623 1577.23 136.962 1577.03C129.102 1576.8 122.796 1577.18 118.431 1577.43C116.735 1577.53 115.332 1577.62 114.245 1577.64C114.245 1577.64 116.861 1574.87 119.617 1573.01C119.047 1570.22 115.913 1563.97 111.551 1558.04C106.062 1550.59 99.9492 1545.43 95.2491 1541.47C94.3484 1540.71 93.4995 1539.99 92.7169 1539.31C93.6966 1539.65 94.7404 1540.02 95.8478 1540.42L95.851 1540.42L95.8512 1540.42L95.8522 1540.42L95.8533 1540.42L95.8554 1540.42C101.649 1542.49 109.183 1545.19 118.406 1546.21C125.732 1547.01 132.731 1546.59 135.44 1545.69C135.673 1542.38 136.776 1538.73 136.776 1538.73C137.299 1539.68 137.929 1540.94 138.689 1542.45L138.689 1542.45L138.689 1542.45C140.648 1546.35 143.477 1551.98 147.608 1558.65ZM135.077 1554.88C135.426 1557.3 136.422 1562.28 137.933 1565.34C134.526 1565.56 129.731 1567.13 127.456 1568.04C118.981 1555.52 109.211 1548.72 109.211 1548.72C109.211 1548.72 119.965 1553.82 135.077 1554.88ZM87.5 1452.16C84.9296 1457.74 80.0213 1467.65 76.8648 1473.5C73.1396 1480.41 69.6663 1485.67 67.2616 1489.32L67.2615 1489.32C66.3276 1490.73 65.5549 1491.9 64.9911 1492.83C64.9911 1492.83 68.7062 1491.96 71.6928 1490.5C73.8296 1492.39 77.6905 1498.23 80.6527 1504.96C84.3816 1513.44 85.802 1521.3 86.8943 1527.34C87.1036 1528.5 87.3009 1529.59 87.5 1530.61C87.6987 1529.59 87.8955 1528.51 88.1043 1527.35L88.1046 1527.35L88.1054 1527.34L88.1058 1527.34C89.198 1521.3 90.6185 1513.44 94.3474 1504.96C97.3096 1498.23 101.17 1492.39 103.307 1490.5C106.294 1491.96 110.009 1492.83 110.009 1492.83C109.445 1491.9 108.672 1490.73 107.738 1489.32C105.334 1485.67 101.861 1480.41 98.1353 1473.5C94.9788 1467.65 90.0705 1457.74 87.5 1452.16ZM87.4999 1478.52C85.6059 1481.35 81.7743 1484.71 79.8512 1486.22C86.4801 1499.8 87.4271 1511.65 87.4271 1511.65C87.4271 1511.65 88.4469 1499.8 95.0757 1486.22C93.1526 1484.71 89.3939 1481.35 87.4999 1478.52ZM38.0381 1577.03C31.3778 1577.23 20.313 1577.94 14.1855 1578.51C17.74 1573.5 23.8915 1564.3 27.3922 1558.65C31.5236 1551.98 34.3524 1546.35 36.311 1542.45L36.3111 1542.45L36.3111 1542.45C37.0717 1540.94 37.7011 1539.68 38.2245 1538.73C38.2245 1538.73 39.3272 1542.38 39.5607 1545.69C42.2698 1546.59 49.2686 1547.01 56.5949 1546.21C65.8174 1545.19 73.3516 1542.49 79.1451 1540.42C80.2553 1540.02 81.3016 1539.65 82.2836 1539.31C81.501 1539.99 80.6521 1540.71 79.7514 1541.47C75.0513 1545.43 68.939 1550.59 63.4491 1558.04C59.088 1563.97 55.9539 1570.22 55.3837 1573.01C58.1398 1574.87 60.756 1577.64 60.756 1577.64C59.6687 1577.62 58.2665 1577.53 56.572 1577.43L56.571 1577.43L56.5704 1577.43L56.5698 1577.43C52.204 1577.18 45.8985 1576.8 38.0381 1577.03ZM47.5803 1568.1C45.306 1567.19 40.4744 1565.56 37.0668 1565.34C38.5785 1562.28 39.6108 1557.36 39.9601 1554.94C55.0716 1553.88 65.8621 1548.85 65.8621 1548.85C65.8621 1548.85 56.056 1555.58 47.5803 1568.1ZM14.1852 1494.49C17.7396 1499.5 23.8912 1508.7 27.3918 1514.35C31.5233 1521.02 34.3521 1526.65 36.3107 1530.55C37.0713 1532.06 37.7007 1533.32 38.2242 1534.27C38.2242 1534.27 39.3268 1530.62 39.5603 1527.31C42.2694 1526.41 49.2682 1525.99 56.5945 1526.79C65.817 1527.81 73.3512 1530.51 79.1447 1532.58L79.1448 1532.58L79.1449 1532.58C80.2551 1532.98 81.3013 1533.35 82.2833 1533.69C81.5006 1533.01 80.6518 1532.29 79.7511 1531.53C75.051 1527.57 68.9386 1522.41 63.4487 1514.96C59.0876 1509.03 55.9536 1502.78 55.3834 1499.99C58.1395 1498.13 60.7556 1495.36 60.7556 1495.36C59.6679 1495.38 58.2649 1495.47 56.5694 1495.57C52.2037 1495.82 45.8981 1496.2 38.0378 1495.97C31.3774 1495.77 20.3126 1495.06 14.1852 1494.49ZM37.0668 1507.66C38.5785 1510.72 39.5744 1515.7 39.9236 1518.12C55.0351 1519.18 65.7891 1524.28 65.7891 1524.28C65.7891 1524.28 56.0196 1517.48 47.5439 1504.96C45.2695 1505.87 40.4744 1507.44 37.0668 1507.66ZM100.612 1558.67L101.632 1549.08L88.2286 1536.8L105.274 1541.88L113.069 1536.43L105.274 1530.4L88.2286 1536.14L101.632 1523.58L100.612 1513.84L91.5066 1517.98L87.6459 1535.85L83.5666 1517.98L74.3882 1513.84L73.3684 1523.58L86.9903 1536.14L70.0904 1530.4L61.6404 1536.43L70.0904 1541.88L86.9903 1536.8L74.3882 1549.08V1558.67L83.5666 1554.67L87.6459 1537.45L91.5066 1554.67L100.612 1558.67Z" fill="#87E7EB"/>
</g>
<g filter="url(#filter1_d_601_9418)">
<path fill-rule="evenodd" clip-rule="evenodd" d="M87.5003 1436.84C90.0707 1431.26 94.979 1421.35 98.1356 1415.5C101.861 1408.59 105.334 1403.33 107.739 1399.68L107.739 1399.68L107.739 1399.68C108.673 1398.27 109.446 1397.1 110.009 1396.17C110.009 1396.17 106.294 1397.04 103.307 1398.5C101.171 1396.61 97.3099 1390.77 94.3476 1384.04C90.6187 1375.56 89.1983 1367.7 88.106 1361.66C87.8967 1360.5 87.6994 1359.41 87.5003 1358.39C87.3012 1359.41 87.104 1360.5 86.8948 1361.66L86.8946 1361.66L86.8945 1361.66C85.8023 1367.7 84.3818 1375.56 80.6529 1384.04C77.6907 1390.77 73.8298 1396.61 71.6931 1398.5C68.7064 1397.04 64.9914 1396.17 64.9914 1396.17C65.5551 1397.1 66.3279 1398.27 67.2618 1399.68L67.2619 1399.68C69.6667 1403.33 73.1399 1408.59 76.865 1415.5C80.0215 1421.35 84.9299 1431.26 87.5003 1436.84ZM87.5 1410.48C89.394 1407.65 93.2256 1404.29 95.1487 1402.78C88.5198 1389.2 87.5729 1377.35 87.5729 1377.35C87.5729 1377.35 86.553 1389.2 79.9242 1402.78C81.8473 1404.29 85.6061 1407.65 87.5 1410.48ZM160.815 1310.49C154.688 1311.06 143.623 1311.77 136.962 1311.97C129.102 1312.2 122.797 1311.82 118.431 1311.57C116.735 1311.47 115.332 1311.38 114.245 1311.36C114.245 1311.36 116.861 1314.13 119.617 1315.99C119.047 1318.78 115.913 1325.03 111.552 1330.96C106.062 1338.41 99.9493 1343.57 95.2492 1347.53L95.249 1347.53L95.2486 1347.53L95.2486 1347.53C94.3481 1348.29 93.4994 1349.01 92.717 1349.69C93.699 1349.35 94.7453 1348.98 95.8555 1348.58C101.649 1346.51 109.183 1343.81 118.406 1342.79C125.732 1341.99 132.731 1342.41 135.44 1343.31C135.673 1346.62 136.776 1350.27 136.776 1350.27C137.3 1349.32 137.929 1348.06 138.69 1346.55L138.69 1346.55C140.648 1342.65 143.477 1337.02 147.608 1330.35C151.109 1324.7 157.261 1315.5 160.815 1310.49ZM137.933 1323.66C134.526 1323.44 129.694 1321.81 127.42 1320.9C118.944 1333.42 109.138 1340.15 109.138 1340.15C109.138 1340.15 119.929 1335.12 135.04 1334.06C135.389 1331.64 136.422 1326.72 137.933 1323.66ZM147.608 1374.65C151.109 1380.3 157.261 1389.5 160.815 1394.51C154.688 1393.94 143.623 1393.23 136.962 1393.03C129.102 1392.8 122.796 1393.18 118.431 1393.43C116.735 1393.53 115.332 1393.62 114.245 1393.64C114.245 1393.64 116.861 1390.87 119.617 1389.01C119.047 1386.22 115.913 1379.97 111.551 1374.04C106.062 1366.59 99.9492 1361.43 95.2491 1357.47C94.3484 1356.71 93.4995 1355.99 92.7169 1355.31C93.6966 1355.65 94.7404 1356.02 95.8478 1356.42L95.851 1356.42L95.8512 1356.42L95.8522 1356.42L95.8533 1356.42L95.8554 1356.42C101.649 1358.49 109.183 1361.19 118.406 1362.21C125.732 1363.01 132.731 1362.59 135.44 1361.69C135.673 1358.38 136.776 1354.73 136.776 1354.73C137.299 1355.68 137.929 1356.94 138.689 1358.45L138.689 1358.45L138.689 1358.45C140.648 1362.35 143.477 1367.98 147.608 1374.65ZM135.077 1370.88C135.426 1373.3 136.422 1378.28 137.933 1381.34C134.526 1381.56 129.731 1383.13 127.456 1384.04C118.981 1371.52 109.211 1364.72 109.211 1364.72C109.211 1364.72 119.965 1369.82 135.077 1370.88ZM87.5 1268.16C84.9296 1273.74 80.0213 1283.65 76.8648 1289.5C73.1396 1296.41 69.6663 1301.67 67.2616 1305.32L67.2615 1305.32C66.3276 1306.73 65.5549 1307.9 64.9911 1308.83C64.9911 1308.83 68.7062 1307.96 71.6928 1306.5C73.8296 1308.39 77.6905 1314.23 80.6527 1320.96C84.3816 1329.44 85.802 1337.3 86.8943 1343.34C87.1036 1344.5 87.3009 1345.59 87.5 1346.61C87.6987 1345.59 87.8955 1344.51 88.1043 1343.35L88.1046 1343.35L88.1054 1343.34L88.1058 1343.34C89.198 1337.3 90.6185 1329.44 94.3474 1320.96C97.3096 1314.23 101.17 1308.39 103.307 1306.5C106.294 1307.96 110.009 1308.83 110.009 1308.83C109.445 1307.9 108.672 1306.73 107.738 1305.32C105.334 1301.67 101.861 1296.41 98.1353 1289.5C94.9788 1283.65 90.0705 1273.74 87.5 1268.16ZM87.4999 1294.52C85.6059 1297.35 81.7743 1300.71 79.8512 1302.22C86.4801 1315.8 87.4271 1327.65 87.4271 1327.65C87.4271 1327.65 88.4469 1315.8 95.0757 1302.22C93.1526 1300.71 89.3939 1297.35 87.4999 1294.52ZM38.0381 1393.03C31.3778 1393.23 20.313 1393.94 14.1855 1394.51C17.74 1389.5 23.8915 1380.3 27.3922 1374.65C31.5236 1367.98 34.3524 1362.35 36.311 1358.45L36.3111 1358.45L36.3111 1358.45C37.0717 1356.94 37.7011 1355.68 38.2245 1354.73C38.2245 1354.73 39.3272 1358.38 39.5607 1361.69C42.2698 1362.59 49.2686 1363.01 56.5949 1362.21C65.8174 1361.19 73.3516 1358.49 79.1451 1356.42C80.2553 1356.02 81.3016 1355.65 82.2836 1355.31C81.501 1355.99 80.6521 1356.71 79.7514 1357.47C75.0513 1361.43 68.939 1366.59 63.4491 1374.04C59.088 1379.97 55.9539 1386.22 55.3837 1389.01C58.1398 1390.87 60.756 1393.64 60.756 1393.64C59.6687 1393.62 58.2665 1393.53 56.572 1393.43L56.571 1393.43L56.5704 1393.43L56.5698 1393.43C52.204 1393.18 45.8985 1392.8 38.0381 1393.03ZM47.5803 1384.1C45.306 1383.19 40.4744 1381.56 37.0668 1381.34C38.5785 1378.28 39.6108 1373.36 39.9601 1370.94C55.0716 1369.88 65.8621 1364.85 65.8621 1364.85C65.8621 1364.85 56.056 1371.58 47.5803 1384.1ZM14.1852 1310.49C17.7396 1315.5 23.8912 1324.7 27.3918 1330.35C31.5233 1337.02 34.3521 1342.65 36.3107 1346.55C37.0713 1348.06 37.7007 1349.32 38.2242 1350.27C38.2242 1350.27 39.3268 1346.62 39.5603 1343.31C42.2694 1342.41 49.2682 1341.99 56.5945 1342.79C65.817 1343.81 73.3512 1346.51 79.1447 1348.58L79.1448 1348.58L79.1449 1348.58C80.2551 1348.98 81.3013 1349.35 82.2833 1349.69C81.5006 1349.01 80.6518 1348.29 79.7511 1347.53C75.051 1343.57 68.9386 1338.41 63.4487 1330.96C59.0876 1325.03 55.9536 1318.78 55.3834 1315.99C58.1395 1314.13 60.7556 1311.36 60.7556 1311.36C59.6679 1311.38 58.2649 1311.47 56.5694 1311.57C52.2037 1311.82 45.8981 1312.2 38.0378 1311.97C31.3774 1311.77 20.3126 1311.06 14.1852 1310.49ZM37.0668 1323.66C38.5785 1326.72 39.5744 1331.7 39.9236 1334.12C55.0351 1335.18 65.7891 1340.28 65.7891 1340.28C65.7891 1340.28 56.0196 1333.48 47.5439 1320.96C45.2695 1321.87 40.4744 1323.44 37.0668 1323.66ZM100.612 1374.67L101.632 1365.08L88.2286 1352.8L105.274 1357.88L113.069 1352.43L105.274 1346.4L88.2286 1352.14L101.632 1339.58L100.612 1329.84L91.5066 1333.98L87.6459 1351.85L83.5666 1333.98L74.3882 1329.84L73.3684 1339.58L86.9903 1352.14L70.0904 1346.4L61.6404 1352.43L70.0904 1357.88L86.9903 1352.8L74.3882 1365.08V1374.67L83.5666 1370.67L87.6459 1353.45L91.5066 1370.67L100.612 1374.67Z" fill="#87E7EB"/>
</g>
<g filter="url(#filter2_d_601_9418)">
<path fill-rule="evenodd" clip-rule="evenodd" d="M87.5003 1252.84C90.0707 1247.26 94.979 1237.35 98.1356 1231.5C101.861 1224.59 105.334 1219.33 107.739 1215.68L107.739 1215.68L107.739 1215.68C108.673 1214.27 109.446 1213.1 110.009 1212.17C110.009 1212.17 106.294 1213.04 103.307 1214.5C101.171 1212.61 97.3099 1206.77 94.3476 1200.04C90.6187 1191.56 89.1983 1183.7 88.106 1177.66C87.8967 1176.5 87.6994 1175.41 87.5003 1174.39C87.3012 1175.41 87.104 1176.5 86.8948 1177.66L86.8946 1177.66L86.8945 1177.66C85.8023 1183.7 84.3818 1191.56 80.6529 1200.04C77.6907 1206.77 73.8298 1212.61 71.6931 1214.5C68.7064 1213.04 64.9914 1212.17 64.9914 1212.17C65.5551 1213.1 66.3279 1214.27 67.2618 1215.68L67.2619 1215.68C69.6667 1219.33 73.1399 1224.59 76.865 1231.5C80.0215 1237.35 84.9299 1247.26 87.5003 1252.84ZM87.5 1226.48C89.394 1223.65 93.2256 1220.29 95.1487 1218.78C88.5198 1205.2 87.5729 1193.35 87.5729 1193.35C87.5729 1193.35 86.553 1205.2 79.9242 1218.78C81.8473 1220.29 85.6061 1223.65 87.5 1226.48ZM160.815 1126.49C154.688 1127.06 143.623 1127.77 136.962 1127.97C129.102 1128.2 122.797 1127.82 118.431 1127.57C116.735 1127.47 115.332 1127.38 114.245 1127.36C114.245 1127.36 116.861 1130.13 119.617 1131.99C119.047 1134.78 115.913 1141.03 111.552 1146.96C106.062 1154.41 99.9493 1159.57 95.2492 1163.53L95.249 1163.53L95.2486 1163.53L95.2486 1163.53C94.3481 1164.29 93.4994 1165.01 92.717 1165.69C93.699 1165.35 94.7453 1164.98 95.8555 1164.58C101.649 1162.51 109.183 1159.81 118.406 1158.79C125.732 1157.99 132.731 1158.41 135.44 1159.31C135.673 1162.62 136.776 1166.27 136.776 1166.27C137.3 1165.32 137.929 1164.06 138.69 1162.55L138.69 1162.55C140.648 1158.65 143.477 1153.02 147.608 1146.35C151.109 1140.7 157.261 1131.5 160.815 1126.49ZM137.933 1139.66C134.526 1139.44 129.694 1137.81 127.42 1136.9C118.944 1149.42 109.138 1156.15 109.138 1156.15C109.138 1156.15 119.929 1151.12 135.04 1150.06C135.389 1147.64 136.422 1142.72 137.933 1139.66ZM147.608 1190.65C151.109 1196.3 157.261 1205.5 160.815 1210.51C154.688 1209.94 143.623 1209.23 136.962 1209.03C129.102 1208.8 122.796 1209.18 118.431 1209.43C116.735 1209.53 115.332 1209.62 114.245 1209.64C114.245 1209.64 116.861 1206.87 119.617 1205.01C119.047 1202.22 115.913 1195.97 111.551 1190.04C106.062 1182.59 99.9492 1177.43 95.2491 1173.47C94.3484 1172.71 93.4995 1171.99 92.7169 1171.31C93.6966 1171.65 94.7404 1172.02 95.8478 1172.42L95.851 1172.42L95.8512 1172.42L95.8522 1172.42L95.8533 1172.42L95.8554 1172.42C101.649 1174.49 109.183 1177.19 118.406 1178.21C125.732 1179.01 132.731 1178.59 135.44 1177.69C135.673 1174.38 136.776 1170.73 136.776 1170.73C137.299 1171.68 137.929 1172.94 138.689 1174.45L138.689 1174.45L138.689 1174.45C140.648 1178.35 143.477 1183.98 147.608 1190.65ZM135.077 1186.88C135.426 1189.3 136.422 1194.28 137.933 1197.34C134.526 1197.56 129.731 1199.13 127.456 1200.04C118.981 1187.52 109.211 1180.72 109.211 1180.72C109.211 1180.72 119.965 1185.82 135.077 1186.88ZM87.5 1084.16C84.9296 1089.74 80.0213 1099.65 76.8648 1105.5C73.1396 1112.41 69.6663 1117.67 67.2616 1121.32L67.2615 1121.32C66.3276 1122.73 65.5549 1123.9 64.9911 1124.83C64.9911 1124.83 68.7062 1123.96 71.6928 1122.5C73.8296 1124.39 77.6905 1130.23 80.6527 1136.96C84.3816 1145.44 85.802 1153.3 86.8943 1159.34C87.1036 1160.5 87.3009 1161.59 87.5 1162.61C87.6987 1161.59 87.8955 1160.51 88.1043 1159.35L88.1046 1159.35L88.1054 1159.34L88.1058 1159.34C89.198 1153.3 90.6185 1145.44 94.3474 1136.96C97.3096 1130.23 101.17 1124.39 103.307 1122.5C106.294 1123.96 110.009 1124.83 110.009 1124.83C109.445 1123.9 108.672 1122.73 107.738 1121.32C105.334 1117.67 101.861 1112.41 98.1353 1105.5C94.9788 1099.65 90.0705 1089.74 87.5 1084.16ZM87.4999 1110.52C85.6059 1113.35 81.7743 1116.71 79.8512 1118.22C86.4801 1131.8 87.4271 1143.65 87.4271 1143.65C87.4271 1143.65 88.4469 1131.8 95.0757 1118.22C93.1526 1116.71 89.3939 1113.35 87.4999 1110.52ZM38.0381 1209.03C31.3778 1209.23 20.313 1209.94 14.1855 1210.51C17.74 1205.5 23.8915 1196.3 27.3922 1190.65C31.5236 1183.98 34.3524 1178.35 36.311 1174.45L36.3111 1174.45L36.3111 1174.45C37.0717 1172.94 37.7011 1171.68 38.2245 1170.73C38.2245 1170.73 39.3272 1174.38 39.5607 1177.69C42.2698 1178.59 49.2686 1179.01 56.5949 1178.21C65.8174 1177.19 73.3516 1174.49 79.1451 1172.42C80.2553 1172.02 81.3016 1171.65 82.2836 1171.31C81.501 1171.99 80.6521 1172.71 79.7514 1173.47C75.0513 1177.43 68.939 1182.59 63.4491 1190.04C59.088 1195.97 55.9539 1202.22 55.3837 1205.01C58.1398 1206.87 60.756 1209.64 60.756 1209.64C59.6687 1209.62 58.2665 1209.53 56.572 1209.43L56.571 1209.43L56.5704 1209.43L56.5698 1209.43C52.204 1209.18 45.8985 1208.8 38.0381 1209.03ZM47.5803 1200.1C45.306 1199.19 40.4744 1197.56 37.0668 1197.34C38.5785 1194.28 39.6108 1189.36 39.9601 1186.94C55.0716 1185.88 65.8621 1180.85 65.8621 1180.85C65.8621 1180.85 56.056 1187.58 47.5803 1200.1ZM14.1852 1126.49C17.7396 1131.5 23.8912 1140.7 27.3918 1146.35C31.5233 1153.02 34.3521 1158.65 36.3107 1162.55C37.0713 1164.06 37.7007 1165.32 38.2242 1166.27C38.2242 1166.27 39.3268 1162.62 39.5603 1159.31C42.2694 1158.41 49.2682 1157.99 56.5945 1158.79C65.817 1159.81 73.3512 1162.51 79.1447 1164.58L79.1448 1164.58L79.1449 1164.58C80.2551 1164.98 81.3013 1165.35 82.2833 1165.69C81.5006 1165.01 80.6518 1164.29 79.7511 1163.53C75.051 1159.57 68.9386 1154.41 63.4487 1146.96C59.0876 1141.03 55.9536 1134.78 55.3834 1131.99C58.1395 1130.13 60.7556 1127.36 60.7556 1127.36C59.6679 1127.38 58.2649 1127.47 56.5694 1127.57C52.2037 1127.82 45.8981 1128.2 38.0378 1127.97C31.3774 1127.77 20.3126 1127.06 14.1852 1126.49ZM37.0668 1139.66C38.5785 1142.72 39.5744 1147.7 39.9236 1150.12C55.0351 1151.18 65.7891 1156.28 65.7891 1156.28C65.7891 1156.28 56.0196 1149.48 47.5439 1136.96C45.2695 1137.87 40.4744 1139.44 37.0668 1139.66ZM100.612 1190.67L101.632 1181.08L88.2286 1168.8L105.274 1173.88L113.069 1168.43L105.274 1162.4L88.2286 1168.14L101.632 1155.58L100.612 1145.84L91.5066 1149.98L87.6459 1167.85L83.5666 1149.98L74.3882 1145.84L73.3684 1155.58L86.9903 1168.14L70.0904 1162.4L61.6404 1168.43L70.0904 1173.88L86.9903 1168.8L74.3882 1181.08V1190.67L83.5666 1186.67L87.6459 1169.45L91.5066 1186.67L100.612 1190.67Z" fill="#87E7EB"/>
</g>
<g filter="url(#filter3_d_601_9418)">
<path fill-rule="evenodd" clip-rule="evenodd" d="M87.5003 1068.84C90.0707 1063.26 94.979 1053.35 98.1356 1047.5C101.861 1040.59 105.334 1035.33 107.739 1031.68L107.739 1031.68L107.739 1031.68C108.673 1030.27 109.446 1029.1 110.009 1028.17C110.009 1028.17 106.294 1029.04 103.307 1030.5C101.171 1028.61 97.3099 1022.77 94.3476 1016.04C90.6187 1007.56 89.1983 999.703 88.106 993.658C87.8967 992.5 87.6994 991.409 87.5003 990.392C87.3012 991.408 87.104 992.499 86.8948 993.657L86.8946 993.658L86.8945 993.658C85.8023 999.703 84.3818 1007.56 80.6529 1016.04C77.6907 1022.77 73.8298 1028.61 71.6931 1030.5C68.7064 1029.04 64.9914 1028.17 64.9914 1028.17C65.5551 1029.1 66.3279 1030.27 67.2618 1031.68L67.2619 1031.68C69.6667 1035.33 73.1399 1040.59 76.865 1047.5C80.0215 1053.35 84.9299 1063.26 87.5003 1068.84ZM87.5 1042.48C89.394 1039.65 93.2256 1036.29 95.1487 1034.78C88.5198 1021.2 87.5729 1009.35 87.5729 1009.35C87.5729 1009.35 86.553 1021.2 79.9242 1034.78C81.8473 1036.29 85.6061 1039.65 87.5 1042.48ZM160.815 942.491C154.688 943.056 143.623 943.769 136.962 943.965C129.102 944.197 122.797 943.824 118.431 943.566C116.735 943.465 115.332 943.382 114.245 943.359C114.245 943.359 116.861 946.134 119.617 947.989C119.047 950.78 115.913 957.033 111.552 962.957C106.062 970.415 99.9493 975.57 95.2492 979.534L95.249 979.534L95.2486 979.535L95.2486 979.535C94.3481 980.294 93.4994 981.01 92.717 981.69C93.699 981.354 94.7453 980.979 95.8555 980.581C101.649 978.505 109.183 975.805 118.406 974.794C125.732 973.99 132.731 974.411 135.44 975.314C135.673 978.621 136.776 982.268 136.776 982.268C137.3 981.317 137.929 980.064 138.69 978.55L138.69 978.55C140.648 974.651 143.477 969.02 147.608 962.349C151.109 956.697 157.261 947.499 160.815 942.491ZM137.933 955.663C134.526 955.441 129.694 953.807 127.42 952.9C118.944 965.418 109.138 972.154 109.138 972.154C109.138 972.154 119.929 967.118 135.04 966.059C135.389 963.642 136.422 958.715 137.933 955.663ZM147.608 1006.65C151.109 1012.3 157.261 1021.5 160.815 1026.51C154.688 1025.94 143.623 1025.23 136.962 1025.03C129.102 1024.8 122.796 1025.18 118.431 1025.43C116.735 1025.53 115.332 1025.62 114.245 1025.64C114.245 1025.64 116.861 1022.87 119.617 1021.01C119.047 1018.22 115.913 1011.97 111.551 1006.04C106.062 998.585 99.9492 993.43 95.2491 989.466C94.3484 988.706 93.4995 987.99 92.7169 987.31C93.6966 987.645 94.7404 988.019 95.8478 988.416L95.851 988.417L95.8512 988.417L95.8522 988.417L95.8533 988.418L95.8554 988.419C101.649 990.495 109.183 993.195 118.406 994.206C125.732 995.01 132.731 994.589 135.44 993.686C135.673 990.379 136.776 986.732 136.776 986.732C137.299 987.683 137.929 988.936 138.689 990.449L138.689 990.45L138.689 990.45C140.648 994.349 143.477 999.98 147.608 1006.65ZM135.077 1002.88C135.426 1005.3 136.422 1010.28 137.933 1013.34C134.526 1013.56 129.731 1015.13 127.456 1016.04C118.981 1003.52 109.211 996.72 109.211 996.72C109.211 996.72 119.965 1001.82 135.077 1002.88ZM87.5 900.158C84.9296 905.735 80.0213 915.652 76.8648 921.505C73.1396 928.412 69.6663 933.673 67.2616 937.316L67.2615 937.316C66.3276 938.731 65.5549 939.902 64.9911 940.83C64.9911 940.83 68.7062 939.958 71.6928 938.505C73.8296 940.394 77.6905 946.23 80.6527 952.962C84.3816 961.437 85.802 969.297 86.8943 975.342C87.1036 976.5 87.3009 977.591 87.5 978.608C87.6987 977.594 87.8955 976.505 88.1043 975.35L88.1046 975.348L88.1054 975.344L88.1058 975.342C89.198 969.297 90.6185 961.437 94.3474 952.962C97.3096 946.23 101.17 940.394 103.307 938.505C106.294 939.958 110.009 940.83 110.009 940.83C109.445 939.902 108.672 938.731 107.738 937.316C105.334 933.673 101.861 928.412 98.1353 921.505C94.9788 915.652 90.0705 905.735 87.5 900.158ZM87.4999 926.517C85.6059 929.351 81.7743 932.707 79.8512 934.218C86.4801 947.804 87.4271 959.646 87.4271 959.646C87.4271 959.646 88.4469 947.804 95.0757 934.218C93.1526 932.707 89.3939 929.351 87.4999 926.517ZM38.0381 1025.03C31.3778 1025.23 20.313 1025.94 14.1855 1026.51C17.74 1021.5 23.8915 1012.3 27.3922 1006.65C31.5236 999.98 34.3524 994.349 36.311 990.45L36.3111 990.45L36.3111 990.45C37.0717 988.936 37.7011 987.683 38.2245 986.732C38.2245 986.732 39.3272 990.379 39.5607 993.686C42.2698 994.589 49.2686 995.01 56.5949 994.206C65.8174 993.195 73.3516 990.495 79.1451 988.419C80.2553 988.021 81.3016 987.646 82.2836 987.31C81.501 987.99 80.6521 988.706 79.7514 989.466C75.0513 993.43 68.939 998.585 63.4491 1006.04C59.088 1011.97 55.9539 1018.22 55.3837 1021.01C58.1398 1022.87 60.756 1025.64 60.756 1025.64C59.6687 1025.62 58.2665 1025.53 56.572 1025.43L56.571 1025.43L56.5704 1025.43L56.5698 1025.43C52.204 1025.18 45.8985 1024.8 38.0381 1025.03ZM47.5803 1016.1C45.306 1015.19 40.4744 1013.56 37.0668 1013.34C38.5785 1010.28 39.6108 1005.36 39.9601 1002.94C55.0716 1001.88 65.8621 996.846 65.8621 996.846C65.8621 996.846 56.056 1003.58 47.5803 1016.1ZM14.1852 942.491C17.7396 947.499 23.8912 956.697 27.3918 962.349C31.5233 969.02 34.3521 974.651 36.3107 978.55C37.0713 980.064 37.7007 981.317 38.2242 982.268C38.2242 982.268 39.3268 978.621 39.5603 975.314C42.2694 974.411 49.2682 973.99 56.5945 974.794C65.817 975.805 73.3512 978.505 79.1447 980.581L79.1448 980.581L79.1449 980.581C80.2551 980.979 81.3013 981.354 82.2833 981.69C81.5006 981.01 80.6518 980.294 79.7511 979.534C75.051 975.57 68.9386 970.415 63.4487 962.957C59.0876 957.033 55.9536 950.78 55.3834 947.989C58.1395 946.134 60.7556 943.359 60.7556 943.359C59.6679 943.382 58.2649 943.465 56.5694 943.566C52.2037 943.824 45.8981 944.197 38.0378 943.965C31.3774 943.769 20.3126 943.056 14.1852 942.491ZM37.0668 955.662C38.5785 958.715 39.5744 963.705 39.9236 966.122C55.0351 967.181 65.7891 972.28 65.7891 972.28C65.7891 972.28 56.0196 965.481 47.5439 952.962C45.2695 953.87 40.4744 955.441 37.0668 955.662ZM100.612 1006.67L101.632 997.076L88.2286 984.798L105.274 989.884L113.069 984.435L105.274 978.405L88.2286 984.144L101.632 971.576L100.612 961.84L91.5066 965.982L87.6459 983.854L83.5666 965.982L74.3882 961.84L73.3684 971.576L86.9903 984.144L70.0904 978.405L61.6404 984.435L70.0904 989.884L86.9903 984.798L74.3882 997.076V1006.67L83.5666 1002.67L87.6459 985.452L91.5066 1002.67L100.612 1006.67Z" fill="#87E7EB"/>
</g>
<g filter="url(#filter4_d_601_9418)">
<path fill-rule="evenodd" clip-rule="evenodd" d="M87.5003 884.842C90.0707 879.265 94.979 869.348 98.1356 863.495C101.861 856.588 105.334 851.327 107.739 847.684L107.739 847.684L107.739 847.683C108.673 846.269 109.446 845.098 110.009 844.17C110.009 844.17 106.294 845.042 103.307 846.495C101.171 844.606 97.3099 838.77 94.3476 832.038C90.6187 823.563 89.1983 815.703 88.106 809.658C87.8967 808.5 87.6994 807.409 87.5003 806.392C87.3012 807.408 87.104 808.499 86.8948 809.657L86.8946 809.658L86.8945 809.658C85.8023 815.703 84.3818 823.563 80.6529 832.038C77.6907 838.77 73.8298 844.606 71.6931 846.495C68.7064 845.042 64.9914 844.17 64.9914 844.17C65.5551 845.098 66.3279 846.269 67.2618 847.684L67.2619 847.684C69.6667 851.327 73.1399 856.588 76.865 863.495C80.0215 869.348 84.9299 879.265 87.5003 884.842ZM87.5 858.483C89.394 855.649 93.2256 852.293 95.1487 850.782C88.5198 837.196 87.5729 825.354 87.5729 825.354C87.5729 825.354 86.553 837.196 79.9242 850.782C81.8473 852.293 85.6061 855.649 87.5 858.483ZM160.815 758.491C154.688 759.056 143.623 759.769 136.962 759.965C129.102 760.197 122.797 759.824 118.431 759.566C116.735 759.465 115.332 759.382 114.245 759.359C114.245 759.359 116.861 762.134 119.617 763.989C119.047 766.78 115.913 773.033 111.552 778.957C106.062 786.415 99.9493 791.57 95.2492 795.534L95.249 795.534L95.2486 795.535L95.2486 795.535C94.3481 796.294 93.4994 797.01 92.717 797.69C93.699 797.354 94.7453 796.979 95.8555 796.581C101.649 794.505 109.183 791.805 118.406 790.794C125.732 789.99 132.731 790.411 135.44 791.314C135.673 794.621 136.776 798.268 136.776 798.268C137.3 797.317 137.929 796.064 138.69 794.55L138.69 794.55C140.648 790.651 143.477 785.02 147.608 778.349C151.109 772.697 157.261 763.499 160.815 758.491ZM137.933 771.663C134.526 771.441 129.694 769.807 127.42 768.9C118.944 781.418 109.138 788.154 109.138 788.154C109.138 788.154 119.929 783.118 135.04 782.059C135.389 779.642 136.422 774.715 137.933 771.663ZM147.608 822.651C151.109 828.303 157.261 837.501 160.815 842.509C154.688 841.944 143.623 841.231 136.962 841.035C129.102 840.803 122.796 841.176 118.431 841.434C116.735 841.535 115.332 841.618 114.245 841.641C114.245 841.641 116.861 838.866 119.617 837.011C119.047 834.22 115.913 827.967 111.551 822.043C106.062 814.585 99.9492 809.43 95.2491 805.466C94.3484 804.706 93.4995 803.99 92.7169 803.31C93.6966 803.645 94.7404 804.019 95.8478 804.416L95.851 804.417L95.8512 804.417L95.8522 804.417L95.8533 804.418L95.8554 804.419C101.649 806.495 109.183 809.195 118.406 810.206C125.732 811.01 132.731 810.589 135.44 809.686C135.673 806.379 136.776 802.732 136.776 802.732C137.299 803.683 137.929 804.936 138.689 806.449L138.689 806.45L138.689 806.45C140.648 810.349 143.477 815.98 147.608 822.651ZM135.077 818.878C135.426 821.295 136.422 826.284 137.933 829.337C134.526 829.559 129.731 831.13 127.456 832.037C118.981 819.519 109.211 812.72 109.211 812.72C109.211 812.72 119.965 817.819 135.077 818.878ZM87.5 716.158C84.9296 721.735 80.0213 731.652 76.8648 737.505C73.1396 744.412 69.6663 749.673 67.2616 753.316L67.2615 753.316C66.3276 754.731 65.5549 755.902 64.9911 756.83C64.9911 756.83 68.7062 755.958 71.6928 754.505C73.8296 756.394 77.6905 762.23 80.6527 768.962C84.3816 777.437 85.802 785.297 86.8943 791.342C87.1036 792.5 87.3009 793.591 87.5 794.608C87.6987 793.594 87.8955 792.505 88.1043 791.35L88.1046 791.348L88.1054 791.344L88.1058 791.342C89.198 785.297 90.6185 777.437 94.3474 768.962C97.3096 762.23 101.17 756.394 103.307 754.505C106.294 755.958 110.009 756.83 110.009 756.83C109.445 755.902 108.672 754.731 107.738 753.316C105.334 749.673 101.861 744.412 98.1353 737.505C94.9788 731.652 90.0705 721.735 87.5 716.158ZM87.4999 742.517C85.6059 745.351 81.7743 748.707 79.8512 750.218C86.4801 763.804 87.4271 775.646 87.4271 775.646C87.4271 775.646 88.4469 763.804 95.0757 750.218C93.1526 748.707 89.3939 745.351 87.4999 742.517ZM38.0381 841.035C31.3778 841.231 20.313 841.944 14.1855 842.509C17.74 837.501 23.8915 828.303 27.3922 822.651C31.5236 815.98 34.3524 810.349 36.311 806.45L36.3111 806.45L36.3111 806.45C37.0717 804.936 37.7011 803.683 38.2245 802.732C38.2245 802.732 39.3272 806.379 39.5607 809.686C42.2698 810.589 49.2686 811.01 56.5949 810.206C65.8174 809.195 73.3516 806.495 79.1451 804.419C80.2553 804.021 81.3016 803.646 82.2836 803.31C81.501 803.99 80.6521 804.706 79.7514 805.466C75.0513 809.43 68.939 814.585 63.4491 822.043C59.088 827.967 55.9539 834.22 55.3837 837.01C58.1398 838.866 60.756 841.641 60.756 841.641C59.6687 841.618 58.2665 841.535 56.572 841.434L56.571 841.434L56.5704 841.434L56.5698 841.434C52.204 841.176 45.8985 840.803 38.0381 841.035ZM47.5803 832.1C45.306 831.193 40.4744 829.559 37.0668 829.337C38.5785 826.284 39.6108 821.358 39.9601 818.941C55.0716 817.882 65.8621 812.846 65.8621 812.846C65.8621 812.846 56.056 819.582 47.5803 832.1ZM14.1852 758.491C17.7396 763.499 23.8912 772.697 27.3918 778.349C31.5233 785.02 34.3521 790.651 36.3107 794.55C37.0713 796.064 37.7007 797.317 38.2242 798.268C38.2242 798.268 39.3268 794.621 39.5603 791.314C42.2694 790.411 49.2682 789.99 56.5945 790.794C65.817 791.805 73.3512 794.505 79.1447 796.581L79.1448 796.581L79.1449 796.581C80.2551 796.979 81.3013 797.354 82.2833 797.69C81.5006 797.01 80.6518 796.294 79.7511 795.534C75.051 791.57 68.9386 786.415 63.4487 778.957C59.0876 773.033 55.9536 766.78 55.3834 763.989C58.1395 762.134 60.7556 759.359 60.7556 759.359C59.6679 759.382 58.2649 759.465 56.5694 759.566C52.2037 759.824 45.8981 760.197 38.0378 759.965C31.3774 759.769 20.3126 759.056 14.1852 758.491ZM37.0668 771.662C38.5785 774.715 39.5744 779.705 39.9236 782.122C55.0351 783.181 65.7891 788.28 65.7891 788.28C65.7891 788.28 56.0196 781.481 47.5439 768.962C45.2695 769.87 40.4744 771.441 37.0668 771.662ZM100.612 822.666L101.632 813.076L88.2286 800.798L105.274 805.884L113.069 800.435L105.274 794.405L88.2286 800.144L101.632 787.576L100.612 777.84L91.5066 781.982L87.6459 799.854L83.5666 781.982L74.3882 777.84L73.3684 787.576L86.9903 800.144L70.0904 794.405L61.6404 800.435L70.0904 805.884L86.9903 800.798L74.3882 813.076V822.666L83.5666 818.67L87.6459 801.452L91.5066 818.67L100.612 822.666Z" fill="#87E7EB"/>
</g>
<g filter="url(#filter5_d_601_9418)">
<path fill-rule="evenodd" clip-rule="evenodd" d="M87.5003 700.842C90.0707 695.265 94.979 685.348 98.1356 679.495C101.861 672.588 105.334 667.327 107.739 663.684L107.739 663.684L107.739 663.683C108.673 662.269 109.446 661.098 110.009 660.17C110.009 660.17 106.294 661.042 103.307 662.495C101.171 660.606 97.3099 654.77 94.3476 648.038C90.6187 639.563 89.1983 631.703 88.106 625.658C87.8967 624.5 87.6994 623.409 87.5003 622.392C87.3012 623.408 87.104 624.499 86.8948 625.657L86.8946 625.658L86.8945 625.658C85.8023 631.703 84.3818 639.563 80.6529 648.038C77.6907 654.77 73.8298 660.606 71.6931 662.495C68.7064 661.042 64.9914 660.17 64.9914 660.17C65.5551 661.098 66.3279 662.269 67.2618 663.684L67.2619 663.684C69.6667 667.327 73.1399 672.588 76.865 679.495C80.0215 685.348 84.9299 695.265 87.5003 700.842ZM87.5 674.483C89.394 671.649 93.2256 668.293 95.1487 666.782C88.5198 653.196 87.5729 641.354 87.5729 641.354C87.5729 641.354 86.553 653.196 79.9242 666.782C81.8473 668.293 85.6061 671.649 87.5 674.483ZM160.815 574.491C154.688 575.056 143.623 575.769 136.962 575.965C129.102 576.197 122.797 575.824 118.431 575.566C116.735 575.465 115.332 575.382 114.245 575.359C114.245 575.359 116.861 578.134 119.617 579.989C119.047 582.78 115.913 589.033 111.552 594.957C106.062 602.415 99.9493 607.57 95.2492 611.534L95.249 611.534L95.2486 611.535L95.2486 611.535C94.3481 612.294 93.4994 613.01 92.717 613.69C93.699 613.354 94.7453 612.979 95.8555 612.581C101.649 610.505 109.183 607.805 118.406 606.794C125.732 605.99 132.731 606.411 135.44 607.314C135.673 610.621 136.776 614.268 136.776 614.268C137.3 613.317 137.929 612.064 138.69 610.55L138.69 610.55C140.648 606.651 143.477 601.02 147.608 594.349C151.109 588.697 157.261 579.499 160.815 574.491ZM137.933 587.663C134.526 587.441 129.694 585.807 127.42 584.9C118.944 597.418 109.138 604.154 109.138 604.154C109.138 604.154 119.929 599.118 135.04 598.059C135.389 595.642 136.422 590.715 137.933 587.663ZM147.608 638.651C151.109 644.303 157.261 653.501 160.815 658.509C154.688 657.944 143.623 657.231 136.962 657.035C129.102 656.803 122.796 657.176 118.431 657.434C116.735 657.535 115.332 657.618 114.245 657.641C114.245 657.641 116.861 654.866 119.617 653.011C119.047 650.22 115.913 643.967 111.551 638.043C106.062 630.585 99.9492 625.43 95.2491 621.466C94.3484 620.706 93.4995 619.99 92.7169 619.31C93.6966 619.645 94.7404 620.019 95.8478 620.416L95.851 620.417L95.8512 620.417L95.8522 620.417L95.8533 620.418L95.8554 620.419C101.649 622.495 109.183 625.195 118.406 626.206C125.732 627.01 132.731 626.589 135.44 625.686C135.673 622.379 136.776 618.732 136.776 618.732C137.299 619.683 137.929 620.936 138.689 622.449L138.689 622.45L138.689 622.45C140.648 626.349 143.477 631.98 147.608 638.651ZM135.077 634.878C135.426 637.295 136.422 642.284 137.933 645.337C134.526 645.559 129.731 647.13 127.456 648.037C118.981 635.519 109.211 628.72 109.211 628.72C109.211 628.72 119.965 633.819 135.077 634.878ZM87.5 532.158C84.9296 537.735 80.0213 547.652 76.8648 553.505C73.1396 560.412 69.6663 565.673 67.2616 569.316L67.2615 569.316C66.3276 570.731 65.5549 571.902 64.9911 572.83C64.9911 572.83 68.7062 571.958 71.6928 570.505C73.8296 572.394 77.6905 578.23 80.6527 584.962C84.3816 593.437 85.802 601.297 86.8943 607.342C87.1036 608.5 87.3009 609.591 87.5 610.608C87.6987 609.594 87.8955 608.505 88.1043 607.35L88.1046 607.348L88.1054 607.344L88.1058 607.342C89.198 601.297 90.6185 593.437 94.3474 584.962C97.3096 578.23 101.17 572.394 103.307 570.505C106.294 571.958 110.009 572.83 110.009 572.83C109.445 571.902 108.672 570.731 107.738 569.316C105.334 565.673 101.861 560.412 98.1353 553.505C94.9788 547.652 90.0705 537.735 87.5 532.158ZM87.4999 558.517C85.6059 561.351 81.7743 564.707 79.8512 566.218C86.4801 579.804 87.4271 591.646 87.4271 591.646C87.4271 591.646 88.4469 579.804 95.0757 566.218C93.1526 564.707 89.3939 561.351 87.4999 558.517ZM38.0381 657.035C31.3778 657.231 20.313 657.944 14.1855 658.509C17.74 653.501 23.8915 644.303 27.3922 638.651C31.5236 631.98 34.3524 626.349 36.311 622.45L36.3111 622.45L36.3111 622.45C37.0717 620.936 37.7011 619.683 38.2245 618.732C38.2245 618.732 39.3272 622.379 39.5607 625.686C42.2698 626.589 49.2686 627.01 56.5949 626.206C65.8174 625.195 73.3516 622.495 79.1451 620.419C80.2553 620.021 81.3016 619.646 82.2836 619.31C81.501 619.99 80.6521 620.706 79.7514 621.466C75.0513 625.43 68.939 630.585 63.4491 638.043C59.088 643.967 55.9539 650.22 55.3837 653.01C58.1398 654.866 60.756 657.641 60.756 657.641C59.6687 657.618 58.2665 657.535 56.572 657.434L56.571 657.434L56.5704 657.434L56.5698 657.434C52.204 657.176 45.8985 656.803 38.0381 657.035ZM47.5803 648.1C45.306 647.193 40.4744 645.559 37.0668 645.337C38.5785 642.284 39.6108 637.358 39.9601 634.941C55.0716 633.882 65.8621 628.846 65.8621 628.846C65.8621 628.846 56.056 635.582 47.5803 648.1ZM14.1852 574.491C17.7396 579.499 23.8912 588.697 27.3918 594.349C31.5233 601.02 34.3521 606.651 36.3107 610.55C37.0713 612.064 37.7007 613.317 38.2242 614.268C38.2242 614.268 39.3268 610.621 39.5603 607.314C42.2694 606.411 49.2682 605.99 56.5945 606.794C65.817 607.805 73.3512 610.505 79.1447 612.581L79.1448 612.581L79.1449 612.581C80.2551 612.979 81.3013 613.354 82.2833 613.69C81.5006 613.01 80.6518 612.294 79.7511 611.534C75.051 607.57 68.9386 602.415 63.4487 594.957C59.0876 589.033 55.9536 582.78 55.3834 579.989C58.1395 578.134 60.7556 575.359 60.7556 575.359C59.6679 575.382 58.2649 575.465 56.5694 575.566C52.2037 575.824 45.8981 576.197 38.0378 575.965C31.3774 575.769 20.3126 575.056 14.1852 574.491ZM37.0668 587.662C38.5785 590.715 39.5744 595.705 39.9236 598.122C55.0351 599.181 65.7891 604.28 65.7891 604.28C65.7891 604.28 56.0196 597.481 47.5439 584.962C45.2695 585.87 40.4744 587.441 37.0668 587.662ZM100.612 638.666L101.632 629.076L88.2286 616.798L105.274 621.884L113.069 616.435L105.274 610.405L88.2286 616.144L101.632 603.576L100.612 593.84L91.5066 597.982L87.6459 615.854L83.5666 597.982L74.3882 593.84L73.3684 603.576L86.9903 616.144L70.0904 610.405L61.6404 616.435L70.0904 621.884L86.9903 616.798L74.3882 629.076V638.666L83.5666 634.67L87.6459 617.452L91.5066 634.67L100.612 638.666Z" fill="#87E7EB"/>
</g>
<g filter="url(#filter6_d_601_9418)">
<path fill-rule="evenodd" clip-rule="evenodd" d="M87.5003 516.842C90.0707 511.265 94.979 501.348 98.1356 495.495C101.861 488.588 105.334 483.327 107.739 479.684L107.739 479.684L107.739 479.683C108.673 478.269 109.446 477.098 110.009 476.17C110.009 476.17 106.294 477.042 103.307 478.495C101.171 476.606 97.3099 470.77 94.3476 464.038C90.6187 455.563 89.1983 447.703 88.106 441.658C87.8967 440.5 87.6994 439.409 87.5003 438.392C87.3012 439.408 87.104 440.499 86.8948 441.657L86.8946 441.658L86.8945 441.658C85.8023 447.703 84.3818 455.563 80.6529 464.038C77.6907 470.77 73.8298 476.606 71.6931 478.495C68.7064 477.042 64.9914 476.17 64.9914 476.17C65.5551 477.098 66.3279 478.269 67.2618 479.684L67.2619 479.684C69.6667 483.327 73.1399 488.588 76.865 495.495C80.0215 501.348 84.9299 511.265 87.5003 516.842ZM87.5 490.483C89.394 487.649 93.2256 484.293 95.1487 482.782C88.5198 469.196 87.5729 457.354 87.5729 457.354C87.5729 457.354 86.553 469.196 79.9242 482.782C81.8473 484.293 85.6061 487.649 87.5 490.483ZM160.815 390.491C154.688 391.056 143.623 391.769 136.962 391.965C129.102 392.197 122.797 391.824 118.431 391.566C116.735 391.465 115.332 391.382 114.245 391.359C114.245 391.359 116.861 394.134 119.617 395.989C119.047 398.78 115.913 405.033 111.552 410.957C106.062 418.415 99.9493 423.57 95.2492 427.534L95.249 427.534L95.2486 427.535L95.2486 427.535C94.3481 428.294 93.4994 429.01 92.717 429.69C93.699 429.354 94.7453 428.979 95.8555 428.581C101.649 426.505 109.183 423.805 118.406 422.794C125.732 421.99 132.731 422.411 135.44 423.314C135.673 426.621 136.776 430.268 136.776 430.268C137.3 429.317 137.929 428.064 138.69 426.55L138.69 426.55C140.648 422.651 143.477 417.02 147.608 410.349C151.109 404.697 157.261 395.499 160.815 390.491ZM137.933 403.663C134.526 403.441 129.694 401.807 127.42 400.9C118.944 413.418 109.138 420.154 109.138 420.154C109.138 420.154 119.929 415.118 135.04 414.059C135.389 411.642 136.422 406.715 137.933 403.663ZM147.608 454.651C151.109 460.303 157.261 469.501 160.815 474.509C154.688 473.944 143.623 473.231 136.962 473.035C129.102 472.803 122.796 473.176 118.431 473.434C116.735 473.535 115.332 473.618 114.245 473.641C114.245 473.641 116.861 470.866 119.617 469.011C119.047 466.22 115.913 459.967 111.551 454.043C106.062 446.585 99.9492 441.43 95.2491 437.466C94.3484 436.706 93.4995 435.99 92.7169 435.31C93.6966 435.645 94.7404 436.019 95.8478 436.416L95.851 436.417L95.8512 436.417L95.8522 436.417L95.8533 436.418L95.8554 436.419C101.649 438.495 109.183 441.195 118.406 442.206C125.732 443.01 132.731 442.589 135.44 441.686C135.673 438.379 136.776 434.732 136.776 434.732C137.299 435.683 137.929 436.936 138.689 438.449L138.689 438.45L138.689 438.45C140.648 442.349 143.477 447.98 147.608 454.651ZM135.077 450.878C135.426 453.295 136.422 458.284 137.933 461.337C134.526 461.559 129.731 463.13 127.456 464.037C118.981 451.519 109.211 444.72 109.211 444.72C109.211 444.72 119.965 449.819 135.077 450.878ZM87.5 348.158C84.9296 353.735 80.0213 363.652 76.8648 369.505C73.1396 376.412 69.6663 381.673 67.2616 385.316L67.2615 385.316C66.3276 386.731 65.5549 387.902 64.9911 388.83C64.9911 388.83 68.7062 387.958 71.6928 386.505C73.8296 388.394 77.6905 394.23 80.6527 400.962C84.3816 409.437 85.802 417.297 86.8943 423.342C87.1036 424.5 87.3009 425.591 87.5 426.608C87.6987 425.594 87.8955 424.505 88.1043 423.35L88.1046 423.348L88.1054 423.344L88.1058 423.342C89.198 417.297 90.6185 409.437 94.3474 400.962C97.3096 394.23 101.17 388.394 103.307 386.505C106.294 387.958 110.009 388.83 110.009 388.83C109.445 387.902 108.672 386.731 107.738 385.316C105.334 381.673 101.861 376.412 98.1353 369.505C94.9788 363.652 90.0705 353.735 87.5 348.158ZM87.4999 374.517C85.6059 377.351 81.7743 380.707 79.8512 382.218C86.4801 395.804 87.4271 407.646 87.4271 407.646C87.4271 407.646 88.4469 395.804 95.0757 382.218C93.1526 380.707 89.3939 377.351 87.4999 374.517ZM38.0381 473.035C31.3778 473.231 20.313 473.944 14.1855 474.509C17.74 469.501 23.8915 460.303 27.3922 454.651C31.5236 447.98 34.3524 442.349 36.311 438.45L36.3111 438.45L36.3111 438.45C37.0717 436.936 37.7011 435.683 38.2245 434.732C38.2245 434.732 39.3272 438.379 39.5607 441.686C42.2698 442.589 49.2686 443.01 56.5949 442.206C65.8174 441.195 73.3516 438.495 79.1451 436.419C80.2553 436.021 81.3016 435.646 82.2836 435.31C81.501 435.99 80.6521 436.706 79.7514 437.466C75.0513 441.43 68.939 446.585 63.4491 454.043C59.088 459.967 55.9539 466.22 55.3837 469.01C58.1398 470.866 60.756 473.641 60.756 473.641C59.6687 473.618 58.2665 473.535 56.572 473.434L56.571 473.434L56.5704 473.434L56.5698 473.434C52.204 473.176 45.8985 472.803 38.0381 473.035ZM47.5803 464.1C45.306 463.193 40.4744 461.559 37.0668 461.337C38.5785 458.284 39.6108 453.358 39.9601 450.941C55.0716 449.882 65.8621 444.846 65.8621 444.846C65.8621 444.846 56.056 451.582 47.5803 464.1ZM14.1852 390.491C17.7396 395.499 23.8912 404.697 27.3918 410.349C31.5233 417.02 34.3521 422.651 36.3107 426.55C37.0713 428.064 37.7007 429.317 38.2242 430.268C38.2242 430.268 39.3268 426.621 39.5603 423.314C42.2694 422.411 49.2682 421.99 56.5945 422.794C65.817 423.805 73.3512 426.505 79.1447 428.581L79.1448 428.581L79.1449 428.581C80.2551 428.979 81.3013 429.354 82.2833 429.69C81.5006 429.01 80.6518 428.294 79.7511 427.534C75.051 423.57 68.9386 418.415 63.4487 410.957C59.0876 405.033 55.9536 398.78 55.3834 395.989C58.1395 394.134 60.7556 391.359 60.7556 391.359C59.6679 391.382 58.2649 391.465 56.5694 391.566C52.2037 391.824 45.8981 392.197 38.0378 391.965C31.3774 391.769 20.3126 391.056 14.1852 390.491ZM37.0668 403.662C38.5785 406.715 39.5744 411.705 39.9236 414.122C55.0351 415.181 65.7891 420.28 65.7891 420.28C65.7891 420.28 56.0196 413.481 47.5439 400.962C45.2695 401.87 40.4744 403.441 37.0668 403.662ZM100.612 454.666L101.632 445.076L88.2286 432.798L105.274 437.884L113.069 432.435L105.274 426.405L88.2286 432.144L101.632 419.576L100.612 409.84L91.5066 413.982L87.6459 431.854L83.5666 413.982L74.3882 409.84L73.3684 419.576L86.9903 432.144L70.0904 426.405L61.6404 432.435L70.0904 437.884L86.9903 432.798L74.3882 445.076V454.666L83.5666 450.67L87.6459 433.452L91.5066 450.67L100.612 454.666Z" fill="#87E7EB"/>
</g>
<g filter="url(#filter7_d_601_9418)">
<path fill-rule="evenodd" clip-rule="evenodd" d="M87.5003 332.842C90.0707 327.265 94.979 317.348 98.1356 311.495C101.861 304.588 105.334 299.327 107.739 295.684L107.739 295.684L107.739 295.683C108.673 294.269 109.446 293.098 110.009 292.17C110.009 292.17 106.294 293.042 103.307 294.495C101.171 292.606 97.3099 286.77 94.3476 280.038C90.6187 271.563 89.1983 263.703 88.106 257.658C87.8967 256.5 87.6994 255.409 87.5003 254.392C87.3012 255.408 87.104 256.499 86.8948 257.657L86.8946 257.658L86.8945 257.658C85.8023 263.703 84.3818 271.563 80.6529 280.038C77.6907 286.77 73.8298 292.606 71.6931 294.495C68.7064 293.042 64.9914 292.17 64.9914 292.17C65.5551 293.098 66.3279 294.269 67.2618 295.684L67.2619 295.684C69.6667 299.327 73.1399 304.588 76.865 311.495C80.0215 317.348 84.9299 327.265 87.5003 332.842ZM87.5 306.483C89.394 303.649 93.2256 300.293 95.1487 298.782C88.5198 285.196 87.5729 273.354 87.5729 273.354C87.5729 273.354 86.553 285.196 79.9242 298.782C81.8473 300.293 85.6061 303.649 87.5 306.483ZM160.815 206.491C154.688 207.056 143.623 207.769 136.962 207.965C129.102 208.197 122.797 207.824 118.431 207.566C116.735 207.465 115.332 207.382 114.245 207.359C114.245 207.359 116.861 210.134 119.617 211.989C119.047 214.78 115.913 221.033 111.552 226.957C106.062 234.415 99.9493 239.57 95.2492 243.534L95.249 243.534L95.2486 243.535L95.2486 243.535C94.3481 244.294 93.4994 245.01 92.717 245.69C93.699 245.354 94.7453 244.979 95.8555 244.581C101.649 242.505 109.183 239.805 118.406 238.794C125.732 237.99 132.731 238.411 135.44 239.314C135.673 242.621 136.776 246.268 136.776 246.268C137.3 245.317 137.929 244.064 138.69 242.55L138.69 242.55C140.648 238.651 143.477 233.02 147.608 226.349C151.109 220.697 157.261 211.499 160.815 206.491ZM137.933 219.663C134.526 219.441 129.694 217.807 127.42 216.9C118.944 229.418 109.138 236.154 109.138 236.154C109.138 236.154 119.929 231.118 135.04 230.059C135.389 227.642 136.422 222.715 137.933 219.663ZM147.608 270.651C151.109 276.303 157.261 285.501 160.815 290.509C154.688 289.944 143.623 289.231 136.962 289.035C129.102 288.803 122.796 289.176 118.431 289.434C116.735 289.535 115.332 289.618 114.245 289.641C114.245 289.641 116.861 286.866 119.617 285.011C119.047 282.22 115.913 275.967 111.551 270.043C106.062 262.585 99.9492 257.43 95.2491 253.466C94.3484 252.706 93.4995 251.99 92.7169 251.31C93.6966 251.645 94.7404 252.019 95.8478 252.416L95.851 252.417L95.8512 252.417L95.8522 252.417L95.8533 252.418L95.8554 252.419C101.649 254.495 109.183 257.195 118.406 258.206C125.732 259.01 132.731 258.589 135.44 257.686C135.673 254.379 136.776 250.732 136.776 250.732C137.299 251.683 137.929 252.936 138.689 254.449L138.689 254.45L138.689 254.45C140.648 258.349 143.477 263.98 147.608 270.651ZM135.077 266.878C135.426 269.295 136.422 274.284 137.933 277.337C134.526 277.559 129.731 279.13 127.456 280.037C118.981 267.519 109.211 260.72 109.211 260.72C109.211 260.72 119.965 265.819 135.077 266.878ZM87.5 164.158C84.9296 169.735 80.0213 179.652 76.8648 185.505C73.1396 192.412 69.6663 197.673 67.2616 201.316L67.2615 201.316C66.3276 202.731 65.5549 203.902 64.9911 204.83C64.9911 204.83 68.7062 203.958 71.6928 202.505C73.8296 204.394 77.6905 210.23 80.6527 216.962C84.3816 225.437 85.802 233.297 86.8943 239.342C87.1036 240.5 87.3009 241.591 87.5 242.608C87.6987 241.594 87.8955 240.505 88.1043 239.35L88.1046 239.348L88.1054 239.344L88.1058 239.342C89.198 233.297 90.6185 225.437 94.3474 216.962C97.3096 210.23 101.17 204.394 103.307 202.505C106.294 203.958 110.009 204.83 110.009 204.83C109.445 203.902 108.672 202.731 107.738 201.316C105.334 197.673 101.861 192.412 98.1353 185.505C94.9788 179.652 90.0705 169.735 87.5 164.158ZM87.4999 190.517C85.6059 193.351 81.7743 196.707 79.8512 198.218C86.4801 211.804 87.4271 223.646 87.4271 223.646C87.4271 223.646 88.4469 211.804 95.0757 198.218C93.1526 196.707 89.3939 193.351 87.4999 190.517ZM38.0381 289.035C31.3778 289.231 20.313 289.944 14.1855 290.509C17.74 285.501 23.8915 276.303 27.3922 270.651C31.5236 263.98 34.3524 258.349 36.311 254.45L36.3111 254.45L36.3111 254.45C37.0717 252.936 37.7011 251.683 38.2245 250.732C38.2245 250.732 39.3272 254.379 39.5607 257.686C42.2698 258.589 49.2686 259.01 56.5949 258.206C65.8174 257.195 73.3516 254.495 79.1451 252.419C80.2553 252.021 81.3016 251.646 82.2836 251.31C81.501 251.99 80.6521 252.706 79.7514 253.466C75.0513 257.43 68.939 262.585 63.4491 270.043C59.088 275.967 55.9539 282.22 55.3837 285.01C58.1398 286.866 60.756 289.641 60.756 289.641C59.6687 289.618 58.2665 289.535 56.572 289.434L56.571 289.434L56.5704 289.434L56.5698 289.434C52.204 289.176 45.8985 288.803 38.0381 289.035ZM47.5803 280.1C45.306 279.193 40.4744 277.559 37.0668 277.337C38.5785 274.284 39.6108 269.358 39.9601 266.941C55.0716 265.882 65.8621 260.846 65.8621 260.846C65.8621 260.846 56.056 267.582 47.5803 280.1ZM14.1852 206.491C17.7396 211.499 23.8912 220.697 27.3918 226.349C31.5233 233.02 34.3521 238.651 36.3107 242.55C37.0713 244.064 37.7007 245.317 38.2242 246.268C38.2242 246.268 39.3268 242.621 39.5603 239.314C42.2694 238.411 49.2682 237.99 56.5945 238.794C65.817 239.805 73.3512 242.505 79.1447 244.581L79.1448 244.581L79.1449 244.581C80.2551 244.979 81.3013 245.354 82.2833 245.69C81.5006 245.01 80.6518 244.294 79.7511 243.534C75.051 239.57 68.9386 234.415 63.4487 226.957C59.0876 221.033 55.9536 214.78 55.3834 211.989C58.1395 210.134 60.7556 207.359 60.7556 207.359C59.6679 207.382 58.2649 207.465 56.5694 207.566C52.2037 207.824 45.8981 208.197 38.0378 207.965C31.3774 207.769 20.3126 207.056 14.1852 206.491ZM37.0668 219.662C38.5785 222.715 39.5744 227.705 39.9236 230.122C55.0351 231.181 65.7891 236.28 65.7891 236.28C65.7891 236.28 56.0196 229.481 47.5439 216.962C45.2695 217.87 40.4744 219.441 37.0668 219.662ZM100.612 270.666L101.632 261.076L88.2286 248.798L105.274 253.884L113.069 248.435L105.274 242.405L88.2286 248.144L101.632 235.576L100.612 225.84L91.5066 229.982L87.6459 247.854L83.5666 229.982L74.3882 225.84L73.3684 235.576L86.9903 248.144L70.0904 242.405L61.6404 248.435L70.0904 253.884L86.9903 248.798L74.3882 261.076V270.666L83.5666 266.67L87.6459 249.452L91.5066 266.67L100.612 270.666Z" fill="#87E7EB"/>
</g>
<g filter="url(#filter8_d_601_9418)">
<path fill-rule="evenodd" clip-rule="evenodd" d="M87.5003 148.842C90.0707 143.265 94.979 133.348 98.1356 127.495C101.861 120.588 105.334 115.327 107.739 111.684L107.739 111.684L107.739 111.683C108.673 110.269 109.446 109.098 110.009 108.17C110.009 108.17 106.294 109.042 103.307 110.495C101.171 108.606 97.3099 102.77 94.3476 96.0377C90.6187 87.5633 89.1983 79.7028 88.106 73.6584C87.8967 72.5001 87.6994 71.4085 87.5003 70.3921C87.3012 71.4081 87.104 72.4993 86.8948 73.6571L86.8946 73.6581L86.8945 73.6584C85.8023 79.7028 84.3818 87.5633 80.6529 96.0377C77.6907 102.77 73.8298 108.606 71.6931 110.495C68.7064 109.042 64.9914 108.17 64.9914 108.17C65.5551 109.098 66.3279 110.269 67.2618 111.684L67.2619 111.684C69.6667 115.327 73.1399 120.588 76.865 127.495C80.0215 133.348 84.9299 143.265 87.5003 148.842ZM87.5 122.483C89.394 119.649 93.2256 116.293 95.1487 114.782C88.5198 101.196 87.5729 89.3539 87.5729 89.3539C87.5729 89.3539 86.553 101.196 79.9242 114.782C81.8473 116.293 85.6061 119.649 87.5 122.483ZM160.815 22.4911C154.688 23.056 143.623 23.7688 136.962 23.9651C129.102 24.1968 122.797 23.8238 118.431 23.5656C116.735 23.4654 115.332 23.3824 114.245 23.3588C114.245 23.3588 116.861 26.1342 119.617 27.9895C119.047 30.7801 115.913 37.0334 111.552 42.9574C106.062 50.4147 99.9493 55.5701 95.2492 59.5343L95.249 59.5344L95.2486 59.5348L95.2486 59.5348C94.3481 60.2943 93.4994 61.0101 92.717 61.6899C93.699 61.3542 94.7453 60.9792 95.8555 60.5814C101.649 58.5052 109.183 55.8053 118.406 54.7938C125.732 53.9902 132.731 54.4109 135.44 55.3138C135.673 58.6212 136.776 62.2677 136.776 62.2677C137.3 61.3168 137.929 60.064 138.69 58.5499L138.69 58.5498C140.648 54.6512 143.477 49.0203 147.608 42.3492C151.109 36.6966 157.261 27.4992 160.815 22.4911ZM137.933 35.6625C134.526 35.4413 129.694 33.8067 127.42 32.8995C118.944 45.4181 109.138 52.1542 109.138 52.1542C109.138 52.1542 119.929 47.1181 135.04 46.059C135.389 43.6416 136.422 38.7155 137.933 35.6625ZM147.608 86.6508C151.109 92.3034 157.261 101.501 160.815 106.509C154.688 105.944 143.623 105.231 136.962 105.035C129.102 104.803 122.796 105.176 118.431 105.434C116.735 105.535 115.332 105.618 114.245 105.641C114.245 105.641 116.861 102.866 119.617 101.011C119.047 98.2199 115.913 91.9666 111.551 86.0426C106.062 78.5853 99.9492 73.4299 95.2491 69.4657C94.3484 68.706 93.4995 67.9901 92.7169 67.3101C93.6966 67.6451 94.7404 68.0191 95.8478 68.4159L95.851 68.417L95.8512 68.4171L95.8522 68.4175L95.8533 68.4179L95.8554 68.4186C101.649 70.4948 109.183 73.1947 118.406 74.2062C125.732 75.0098 132.731 74.5891 135.44 73.6862C135.673 70.3788 136.776 66.7323 136.776 66.7323C137.299 67.6831 137.929 68.9356 138.689 70.4494L138.689 70.4501L138.689 70.4502C140.648 74.3488 143.477 79.9797 147.608 86.6508ZM135.077 82.8779C135.426 85.2953 136.422 90.2844 137.933 93.3374C134.526 93.5586 129.731 95.1303 127.456 96.0374C118.981 83.5189 109.211 76.7198 109.211 76.7198C109.211 76.7198 119.965 81.8188 135.077 82.8779ZM87.5 -19.8418C84.9296 -14.265 80.0213 -4.34824 76.8648 1.50458C73.1396 8.41185 69.6663 13.6733 67.2616 17.3162L67.2615 17.3163C66.3276 18.731 65.5549 19.9016 64.9911 20.8296C64.9911 20.8296 68.7062 19.9578 71.6928 18.5048C73.8296 20.3937 77.6905 26.2303 80.6527 32.9623C84.3816 41.4367 85.802 49.2972 86.8943 55.3416C87.1036 56.4999 87.3009 57.5915 87.5 58.6079C87.6987 57.5939 87.8955 56.505 88.1043 55.3498L88.1046 55.3483L88.1054 55.3436L88.1058 55.3416C89.198 49.2972 90.6185 41.4367 94.3474 32.9623C97.3096 26.2303 101.17 20.3937 103.307 18.5048C106.294 19.9578 110.009 20.8296 110.009 20.8296C109.445 19.9016 108.672 18.7309 107.738 17.3162C105.334 13.6734 101.861 8.41187 98.1353 1.50458C94.9788 -4.34824 90.0705 -14.265 87.5 -19.8418ZM87.4999 6.51741C85.6059 9.35078 81.7743 12.7072 79.8512 14.2184C86.4801 27.804 87.4271 39.6461 87.4271 39.6461C87.4271 39.6461 88.4469 27.804 95.0757 14.2184C93.1526 12.7072 89.3939 9.35078 87.4999 6.51741ZM38.0381 105.035C31.3778 105.231 20.313 105.944 14.1855 106.509C17.74 101.501 23.8915 92.3033 27.3922 86.6507C31.5236 79.9797 34.3524 74.3488 36.311 70.4502L36.3111 70.4501L36.3111 70.45C37.0717 68.9359 37.7011 67.6832 38.2245 66.7322C38.2245 66.7322 39.3272 70.3787 39.5607 73.6861C42.2698 74.5891 49.2686 75.0097 56.5949 74.2062C65.8174 73.1946 73.3516 70.4947 79.1451 68.4186C80.2553 68.0207 81.3016 67.6458 82.2836 67.31C81.501 67.99 80.6521 68.706 79.7514 69.4657C75.0513 73.4299 68.939 78.5852 63.4491 86.0425C59.088 91.9665 55.9539 98.2198 55.3837 101.01C58.1398 102.866 60.756 105.641 60.756 105.641C59.6687 105.618 58.2665 105.535 56.572 105.434L56.571 105.434L56.5704 105.434L56.5698 105.434C52.204 105.176 45.8985 104.803 38.0381 105.035ZM47.5803 96.1003C45.306 95.1932 40.4744 93.5585 37.0668 93.3373C38.5785 90.2844 39.6108 85.3582 39.9601 82.9408C55.0716 81.8817 65.8621 76.8457 65.8621 76.8457C65.8621 76.8457 56.056 83.5818 47.5803 96.1003ZM14.1852 22.491C17.7396 27.4992 23.8912 36.6966 27.3918 42.3492C31.5233 49.0202 34.3521 54.6512 36.3107 58.5498C37.0713 60.0639 37.7007 61.3167 38.2242 62.2677C38.2242 62.2677 39.3268 58.6212 39.5603 55.3138C42.2694 54.4108 49.2682 53.9902 56.5945 54.7938C65.817 55.8053 73.3512 58.5052 79.1447 60.5813L79.1448 60.5814L79.1449 60.5814C80.2551 60.9792 81.3013 61.3542 82.2833 61.6899C81.5006 61.0099 80.6518 60.294 79.7511 59.5343C75.051 55.5701 68.9386 50.4147 63.4487 42.9574C59.0876 37.0334 55.9536 30.7801 55.3834 27.9895C58.1395 26.1341 60.7556 23.3588 60.7556 23.3588C59.6679 23.3824 58.2649 23.4653 56.5694 23.5656C52.2037 23.8238 45.8981 24.1968 38.0378 23.9651C31.3774 23.7688 20.3126 23.056 14.1852 22.491ZM37.0668 35.6625C38.5785 38.7154 39.5744 43.7045 39.9236 46.1219C55.0351 47.181 65.7891 52.28 65.7891 52.28C65.7891 52.28 56.0196 45.481 47.5439 32.9624C45.2695 33.8696 40.4744 35.4413 37.0668 35.6625ZM100.612 86.6659L101.632 77.076L88.2286 64.798L105.274 69.8836L113.069 64.4348L105.274 58.4048L88.2286 64.1442L101.632 51.5756L100.612 41.8405L91.5066 45.9815L87.6459 63.8536L83.5666 45.9815L74.3882 41.8405L73.3684 51.5756L86.9903 64.1442L70.0904 58.4048L61.6404 64.4348L70.0904 69.8836L86.9903 64.798L74.3882 77.076V86.6659L83.5666 82.6701L87.6459 65.4519L91.5066 82.6701L100.612 86.6659Z" fill="#87E7EB"/>
</g>
</g>
</g>
<defs>
<filter id="filter0_d_601_9418" x="4.18518" y="1447.16" width="166.63" height="188.684" filterUnits="userSpaceOnUse" color-interpolation-filters="sRGB">
<feFlood flood-opacity="0" result="BackgroundImageFix"/>
<feColorMatrix in="SourceAlpha" type="matrix" values="0 0 0 0 0 0 0 0 0 0 0 0 0 0 0 0 0 0 127 0" result="hardAlpha"/>
<feOffset dy="5"/>
<feGaussianBlur stdDeviation="5"/>
<feComposite in2="hardAlpha" operator="out"/>
<feColorMatrix type="matrix" values="0 0 0 0 0 0 0 0 0 0 0 0 0 0 0 0 0 0 0.1 0"/>
<feBlend mode="normal" in2="BackgroundImageFix" result="effect1_dropShadow_601_9418"/>
<feBlend mode="normal" in="SourceGraphic" in2="effect1_dropShadow_601_9418" result="shape"/>
</filter>
<filter id="filter1_d_601_9418" x="4.18518" y="1263.16" width="166.63" height="188.684" filterUnits="userSpaceOnUse" color-interpolation-filters="sRGB">
<feFlood flood-opacity="0" result="BackgroundImageFix"/>
<feColorMatrix in="SourceAlpha" type="matrix" values="0 0 0 0 0 0 0 0 0 0 0 0 0 0 0 0 0 0 127 0" result="hardAlpha"/>
<feOffset dy="5"/>
<feGaussianBlur stdDeviation="5"/>
<feComposite in2="hardAlpha" operator="out"/>
<feColorMatrix type="matrix" values="0 0 0 0 0 0 0 0 0 0 0 0 0 0 0 0 0 0 0.1 0"/>
<feBlend mode="normal" in2="BackgroundImageFix" result="effect1_dropShadow_601_9418"/>
<feBlend mode="normal" in="SourceGraphic" in2="effect1_dropShadow_601_9418" result="shape"/>
</filter>
<filter id="filter2_d_601_9418" x="4.18518" y="1079.16" width="166.63" height="188.684" filterUnits="userSpaceOnUse" color-interpolation-filters="sRGB">
<feFlood flood-opacity="0" result="BackgroundImageFix"/>
<feColorMatrix in="SourceAlpha" type="matrix" values="0 0 0 0 0 0 0 0 0 0 0 0 0 0 0 0 0 0 127 0" result="hardAlpha"/>
<feOffset dy="5"/>
<feGaussianBlur stdDeviation="5"/>
<feComposite in2="hardAlpha" operator="out"/>
<feColorMatrix type="matrix" values="0 0 0 0 0 0 0 0 0 0 0 0 0 0 0 0 0 0 0.1 0"/>
<feBlend mode="normal" in2="BackgroundImageFix" result="effect1_dropShadow_601_9418"/>
<feBlend mode="normal" in="SourceGraphic" in2="effect1_dropShadow_601_9418" result="shape"/>
</filter>
<filter id="filter3_d_601_9418" x="4.18518" y="895.158" width="166.63" height="188.684" filterUnits="userSpaceOnUse" color-interpolation-filters="sRGB">
<feFlood flood-opacity="0" result="BackgroundImageFix"/>
<feColorMatrix in="SourceAlpha" type="matrix" values="0 0 0 0 0 0 0 0 0 0 0 0 0 0 0 0 0 0 127 0" result="hardAlpha"/>
<feOffset dy="5"/>
<feGaussianBlur stdDeviation="5"/>
<feComposite in2="hardAlpha" operator="out"/>
<feColorMatrix type="matrix" values="0 0 0 0 0 0 0 0 0 0 0 0 0 0 0 0 0 0 0.1 0"/>
<feBlend mode="normal" in2="BackgroundImageFix" result="effect1_dropShadow_601_9418"/>
<feBlend mode="normal" in="SourceGraphic" in2="effect1_dropShadow_601_9418" result="shape"/>
</filter>
<filter id="filter4_d_601_9418" x="4.18518" y="711.158" width="166.63" height="188.684" filterUnits="userSpaceOnUse" color-interpolation-filters="sRGB">
<feFlood flood-opacity="0" result="BackgroundImageFix"/>
<feColorMatrix in="SourceAlpha" type="matrix" values="0 0 0 0 0 0 0 0 0 0 0 0 0 0 0 0 0 0 127 0" result="hardAlpha"/>
<feOffset dy="5"/>
<feGaussianBlur stdDeviation="5"/>
<feComposite in2="hardAlpha" operator="out"/>
<feColorMatrix type="matrix" values="0 0 0 0 0 0 0 0 0 0 0 0 0 0 0 0 0 0 0.1 0"/>
<feBlend mode="normal" in2="BackgroundImageFix" result="effect1_dropShadow_601_9418"/>
<feBlend mode="normal" in="SourceGraphic" in2="effect1_dropShadow_601_9418" result="shape"/>
</filter>
<filter id="filter5_d_601_9418" x="4.18518" y="527.158" width="166.63" height="188.684" filterUnits="userSpaceOnUse" color-interpolation-filters="sRGB">
<feFlood flood-opacity="0" result="BackgroundImageFix"/>
<feColorMatrix in="SourceAlpha" type="matrix" values="0 0 0 0 0 0 0 0 0 0 0 0 0 0 0 0 0 0 127 0" result="hardAlpha"/>
<feOffset dy="5"/>
<feGaussianBlur stdDeviation="5"/>
<feComposite in2="hardAlpha" operator="out"/>
<feColorMatrix type="matrix" values="0 0 0 0 0 0 0 0 0 0 0 0 0 0 0 0 0 0 0.1 0"/>
<feBlend mode="normal" in2="BackgroundImageFix" result="effect1_dropShadow_601_9418"/>
<feBlend mode="normal" in="SourceGraphic" in2="effect1_dropShadow_601_9418" result="shape"/>
</filter>
<filter id="filter6_d_601_9418" x="4.18518" y="343.158" width="166.63" height="188.684" filterUnits="userSpaceOnUse" color-interpolation-filters="sRGB">
<feFlood flood-opacity="0" result="BackgroundImageFix"/>
<feColorMatrix in="SourceAlpha" type="matrix" values="0 0 0 0 0 0 0 0 0 0 0 0 0 0 0 0 0 0 127 0" result="hardAlpha"/>
<feOffset dy="5"/>
<feGaussianBlur stdDeviation="5"/>
<feComposite in2="hardAlpha" operator="out"/>
<feColorMatrix type="matrix" values="0 0 0 0 0 0 0 0 0 0 0 0 0 0 0 0 0 0 0.1 0"/>
<feBlend mode="normal" in2="BackgroundImageFix" result="effect1_dropShadow_601_9418"/>
<feBlend mode="normal" in="SourceGraphic" in2="effect1_dropShadow_601_9418" result="shape"/>
</filter>
<filter id="filter7_d_601_9418" x="4.18518" y="159.158" width="166.63" height="188.684" filterUnits="userSpaceOnUse" color-interpolation-filters="sRGB">
<feFlood flood-opacity="0" result="BackgroundImageFix"/>
<feColorMatrix in="SourceAlpha" type="matrix" values="0 0 0 0 0 0 0 0 0 0 0 0 0 0 0 0 0 0 127 0" result="hardAlpha"/>
<feOffset dy="5"/>
<feGaussianBlur stdDeviation="5"/>
<feComposite in2="hardAlpha" operator="out"/>
<feColorMatrix type="matrix" values="0 0 0 0 0 0 0 0 0 0 0 0 0 0 0 0 0 0 0.1 0"/>
<feBlend mode="normal" in2="BackgroundImageFix" result="effect1_dropShadow_601_9418"/>
<feBlend mode="normal" in="SourceGraphic" in2="effect1_dropShadow_601_9418" result="shape"/>
</filter>
<filter id="filter8_d_601_9418" x="4.18518" y="-24.8418" width="166.63" height="188.684" filterUnits="userSpaceOnUse" color-interpolation-filters="sRGB">
<feFlood flood-opacity="0" result="BackgroundImageFix"/>
<feColorMatrix in="SourceAlpha" type="matrix" values="0 0 0 0 0 0 0 0 0 0 0 0 0 0 0 0 0 0 127 0" result="hardAlpha"/>
<feOffset dy="5"/>
<feGaussianBlur stdDeviation="5"/>
<feComposite in2="hardAlpha" operator="out"/>
<feColorMatrix type="matrix" values="0 0 0 0 0 0 0 0 0 0 0 0 0 0 0 0 0 0 0.1 0"/>
<feBlend mode="normal" in2="BackgroundImageFix" result="effect1_dropShadow_601_9418"/>
<feBlend mode="normal" in="SourceGraphic" in2="effect1_dropShadow_601_9418" result="shape"/>
</filter>
</defs>
</svg>
