<svg width="80" height="1600" viewBox="0 0 80 1600" fill="none" xmlns="http://www.w3.org/2000/svg">
<g opacity="0.15">
<mask id="mask0_601_9387" style="mask-type:alpha" maskUnits="userSpaceOnUse" x="0" y="0" width="80" height="1600">
<rect width="80" height="1600" fill="#C4C4C4"/>
</mask>
<g mask="url(#mask0_601_9387)">
<g filter="url(#filter0_d_601_9387)">
<path fill-rule="evenodd" clip-rule="evenodd" d="M-7.50015 -20.8418C-10.0706 -15.265 -14.9789 -5.34824 -18.1354 0.504572C-21.8606 7.41186 -25.3339 12.6733 -27.7386 16.3162L-27.7387 16.3163L-27.739 16.3168C-28.6728 17.7313 -29.4454 18.9017 -30.0091 19.8296C-30.0091 19.8296 -26.294 18.9578 -23.3074 17.5048C-21.1706 19.3937 -17.3097 25.2303 -14.3475 31.9623C-10.6186 40.4367 -9.19815 48.2972 -8.10588 54.3416C-7.89657 55.4999 -7.6993 56.5915 -7.50015 57.6079C-7.30109 56.5919 -7.1039 55.5007 -6.89468 54.3429L-6.89449 54.3419L-6.89442 54.3416C-5.80216 48.2972 -4.3817 40.4367 -0.652786 31.9623C2.30942 25.2303 6.1703 19.3937 8.30707 17.5048C11.2937 18.9578 15.0087 19.8296 15.0087 19.8296C14.445 18.9016 13.6722 17.7309 12.7383 16.3162L12.7382 16.316C10.3335 12.6732 6.86025 7.41176 3.13512 0.504572C-0.0213776 -5.34824 -4.92974 -15.265 -7.50015 -20.8418ZM-7.49989 5.51741C-9.39384 8.35078 -13.2255 11.7072 -15.1485 13.2184C-8.51971 26.804 -7.57274 38.6461 -7.57274 38.6461C-7.57274 38.6461 -6.55292 26.804 0.0759201 13.2184C-1.84717 11.7072 -5.60594 8.35078 -7.49989 5.51741ZM-80.8149 105.509C-74.6875 104.944 -63.6227 104.231 -56.9623 104.035C-49.102 103.803 -42.7964 104.176 -38.4307 104.434C-36.7352 104.535 -35.3323 104.618 -34.2445 104.641C-34.2445 104.641 -36.8607 101.866 -39.6168 100.011C-39.0465 97.2199 -35.9125 90.9666 -31.5514 85.0426C-26.0615 77.5853 -19.9492 72.4299 -15.2491 68.4657L-15.2489 68.4656L-15.2485 68.4652L-15.2484 68.4652C-14.348 67.7057 -13.4993 66.9899 -12.7168 66.3101C-13.6989 66.6458 -14.7452 67.0208 -15.8554 67.4186C-21.6489 69.4948 -29.1831 72.1947 -38.4056 73.2062C-45.7319 74.0098 -52.7307 73.5891 -55.4398 72.6862C-55.6733 69.3788 -56.776 65.7323 -56.776 65.7323C-57.2994 66.6832 -57.9288 67.936 -58.6894 69.4501L-58.6894 69.4502C-60.648 73.3488 -63.4769 78.9797 -67.6083 85.6508C-71.109 91.3034 -77.2605 100.501 -80.8149 105.509ZM-57.9333 92.3375C-54.5257 92.5587 -49.6941 94.1933 -47.4198 95.1005C-38.9441 82.5819 -29.1381 75.8458 -29.1381 75.8458C-29.1381 75.8458 -39.9285 80.8819 -55.04 81.941C-55.3893 84.3584 -56.4216 89.2845 -57.9333 92.3375ZM-67.6082 41.3492C-71.1089 35.6966 -77.2604 26.4992 -80.8148 21.4911C-74.6874 22.056 -63.6226 22.7688 -56.9622 22.9651C-49.1019 23.1968 -42.7963 22.8238 -38.4306 22.5656C-36.7351 22.4654 -35.3322 22.3824 -34.2444 22.3588C-34.2444 22.3588 -36.8606 25.1342 -39.6166 26.9895C-39.0464 29.7801 -35.9124 36.0334 -31.5513 41.9574C-26.0614 49.4147 -19.9491 54.5701 -15.249 58.5343C-14.3482 59.294 -13.4994 60.0099 -12.7167 60.6899C-13.6965 60.3549 -14.7403 59.9809 -15.8477 59.5841L-15.8508 59.583L-15.8511 59.5829L-15.8521 59.5825L-15.8532 59.5821L-15.8553 59.5814C-21.6488 57.5052 -29.183 54.8053 -38.4055 53.7938C-45.7318 52.9902 -52.7306 53.4109 -55.4397 54.3138C-55.6732 57.6212 -56.7758 61.2677 -56.7758 61.2677C-57.2992 60.3169 -57.9285 59.0644 -58.6889 57.5506L-58.6893 57.5499L-58.6893 57.5498C-60.6479 53.6512 -63.4768 48.0203 -67.6082 41.3492ZM-55.0765 45.1221C-55.4258 42.7047 -56.4217 37.7156 -57.9333 34.6626C-54.5257 34.4414 -49.7306 32.8697 -47.4563 31.9626C-38.9806 44.4811 -29.211 51.2802 -29.211 51.2802C-29.211 51.2802 -39.965 46.1812 -55.0765 45.1221ZM-7.49992 147.842C-4.9295 142.265 -0.0211411 132.348 3.13535 126.495C6.86054 119.588 10.3338 114.327 12.7385 110.684L12.7386 110.684C13.6725 109.269 14.4452 108.098 15.009 107.17C15.009 107.17 11.2939 108.042 8.3073 109.495C6.17054 107.606 2.30966 101.77 -0.65255 95.0377C-4.38146 86.5633 -5.80192 78.7028 -6.89419 72.6584C-7.1035 71.5001 -7.30077 70.4085 -7.49992 69.3921C-7.69859 70.4061 -7.89538 71.495 -8.10416 72.6502L-8.10443 72.6517L-8.10528 72.6564L-8.10564 72.6584C-9.19791 78.7028 -10.6184 86.5633 -14.3473 95.0377C-17.3095 101.77 -21.1704 107.606 -23.3071 109.495C-26.2938 108.042 -30.0088 107.17 -30.0088 107.17C-29.4451 108.098 -28.6723 109.269 -27.7384 110.684C-25.3336 114.327 -21.8604 119.588 -18.1352 126.495C-14.9787 132.348 -10.0703 142.265 -7.49992 147.842ZM-7.49978 121.483C-5.60583 118.649 -1.77422 115.293 0.14888 113.782C-6.47996 100.196 -7.42693 88.3539 -7.42693 88.3539C-7.42693 88.3539 -8.44675 100.196 -15.0756 113.782C-13.1525 115.293 -9.39373 118.649 -7.49978 121.483ZM41.962 22.9652C48.6223 22.7689 59.6872 22.0561 65.8146 21.4911C62.2601 26.4993 56.1086 35.6967 52.6079 41.3493C48.4765 48.0203 45.6477 53.6512 43.6891 57.5498L43.6891 57.5499L43.689 57.55C42.9284 59.0641 42.299 60.3168 41.7756 61.2678C41.7756 61.2678 40.673 57.6213 40.4394 54.3139C37.7303 53.4109 30.7315 52.9903 23.4053 53.7938C14.1827 54.8054 6.64851 57.5053 0.855034 59.5814C-0.255196 59.9793 -1.30151 60.3542 -2.28352 60.69C-1.50085 60.01 -0.652 59.294 0.248711 58.5343C4.94881 54.5701 11.0611 49.4148 16.551 41.9575C20.9121 36.0335 24.0462 29.7802 24.6164 26.9895C21.8603 25.1342 19.2441 22.3589 19.2441 22.3589C20.3314 22.3824 21.7336 22.4654 23.4281 22.5656L23.4291 22.5656L23.4297 22.5657L23.4304 22.5657C27.7961 22.8239 34.1017 23.1968 41.962 22.9652ZM32.4198 31.8997C34.6941 32.8068 39.5257 34.4415 42.9333 34.6627C41.4216 37.7156 40.3893 42.6418 40.04 45.0592C24.9285 46.1183 14.1381 51.1543 14.1381 51.1543C14.1381 51.1543 23.9441 44.4182 32.4198 31.8997ZM65.8149 105.509C62.2605 100.501 56.109 91.3034 52.6083 85.6508C48.4769 78.9798 45.648 73.3488 43.6894 69.4502C42.9288 67.9361 42.2994 66.6833 41.7759 65.7323C41.7759 65.7323 40.6733 69.3788 40.4398 72.6862C37.7307 73.5892 30.7319 74.0098 23.4056 73.2062C14.1831 72.1947 6.64887 69.4948 0.855408 67.4187L0.855339 67.4186L0.85527 67.4186C-0.254929 67.0208 -1.30119 66.6458 -2.28316 66.3101C-1.5005 66.9901 -0.651665 67.706 0.249046 68.4657C4.94916 72.4299 11.0615 77.5853 16.5514 85.0426C20.9125 90.9666 24.0465 97.2199 24.6167 100.011C21.8607 101.866 19.2445 104.641 19.2445 104.641C20.3323 104.618 21.7352 104.535 23.4307 104.434C27.7964 104.176 34.102 103.803 41.9623 104.035C48.6227 104.231 59.6875 104.944 65.8149 105.509ZM42.9333 92.3375C41.4216 89.2846 40.4258 84.2955 40.0765 81.8781C24.965 80.819 14.211 75.72 14.211 75.72C14.211 75.72 23.9805 82.519 32.4563 95.0376C34.7306 94.1304 39.5257 92.5587 42.9333 92.3375ZM-20.612 41.3341L-21.6318 50.924L-8.22849 63.202L-25.2741 58.1164L-33.0684 63.5652L-25.2741 69.5952L-8.22849 63.8558L-21.6318 76.4244L-20.612 86.1595L-11.5065 82.0185L-7.64574 64.1464L-3.56645 82.0185L5.61194 86.1595L6.63176 76.4244L-6.99014 63.8558L9.90975 69.5952L18.3597 63.5652L9.90975 58.1164L-6.99014 63.202L5.61194 50.924V41.3341L-3.56645 45.3299L-7.64574 62.5481L-11.5065 45.3299L-20.612 41.3341Z" fill="#87E7EB"/>
</g>
<g filter="url(#filter1_d_601_9387)">
<path fill-rule="evenodd" clip-rule="evenodd" d="M-7.50015 163.158C-10.0706 168.735 -14.9789 178.652 -18.1354 184.505C-21.8606 191.412 -25.3339 196.673 -27.7386 200.316L-27.7387 200.316L-27.739 200.317C-28.6728 201.731 -29.4454 202.902 -30.0091 203.83C-30.0091 203.83 -26.294 202.958 -23.3074 201.505C-21.1706 203.394 -17.3097 209.23 -14.3475 215.962C-10.6186 224.437 -9.19815 232.297 -8.10588 238.342C-7.89657 239.5 -7.6993 240.591 -7.50015 241.608C-7.30109 240.592 -7.1039 239.501 -6.89468 238.343L-6.89449 238.342L-6.89442 238.342C-5.80216 232.297 -4.3817 224.437 -0.652786 215.962C2.30942 209.23 6.1703 203.394 8.30707 201.505C11.2937 202.958 15.0087 203.83 15.0087 203.83C14.445 202.902 13.6722 201.731 12.7383 200.316L12.7382 200.316C10.3335 196.673 6.86025 191.412 3.13512 184.505C-0.0213776 178.652 -4.92974 168.735 -7.50015 163.158ZM-7.49989 189.517C-9.39384 192.351 -13.2255 195.707 -15.1485 197.218C-8.51971 210.804 -7.57274 222.646 -7.57274 222.646C-7.57274 222.646 -6.55292 210.804 0.0759201 197.218C-1.84717 195.707 -5.60594 192.351 -7.49989 189.517ZM-80.8149 289.509C-74.6875 288.944 -63.6227 288.231 -56.9623 288.035C-49.102 287.803 -42.7964 288.176 -38.4307 288.434C-36.7352 288.535 -35.3323 288.618 -34.2445 288.641C-34.2445 288.641 -36.8607 285.866 -39.6168 284.011C-39.0465 281.22 -35.9125 274.967 -31.5514 269.043C-26.0615 261.585 -19.9492 256.43 -15.2491 252.466L-15.2489 252.466L-15.2485 252.465L-15.2484 252.465C-14.348 251.706 -13.4993 250.99 -12.7168 250.31C-13.6989 250.646 -14.7452 251.021 -15.8554 251.419C-21.6489 253.495 -29.1831 256.195 -38.4056 257.206C-45.7319 258.01 -52.7307 257.589 -55.4398 256.686C-55.6733 253.379 -56.776 249.732 -56.776 249.732C-57.2994 250.683 -57.9288 251.936 -58.6894 253.45L-58.6894 253.45C-60.648 257.349 -63.4769 262.98 -67.6083 269.651C-71.109 275.303 -77.2605 284.501 -80.8149 289.509ZM-57.9333 276.337C-54.5257 276.559 -49.6941 278.193 -47.4198 279.1C-38.9441 266.582 -29.1381 259.846 -29.1381 259.846C-29.1381 259.846 -39.9285 264.882 -55.04 265.941C-55.3893 268.358 -56.4216 273.285 -57.9333 276.337ZM-67.6082 225.349C-71.1089 219.697 -77.2604 210.499 -80.8148 205.491C-74.6874 206.056 -63.6226 206.769 -56.9622 206.965C-49.1019 207.197 -42.7963 206.824 -38.4306 206.566C-36.7351 206.465 -35.3322 206.382 -34.2444 206.359C-34.2444 206.359 -36.8606 209.134 -39.6166 210.989C-39.0464 213.78 -35.9124 220.033 -31.5513 225.957C-26.0614 233.415 -19.9491 238.57 -15.249 242.534C-14.3482 243.294 -13.4994 244.01 -12.7167 244.69C-13.6965 244.355 -14.7403 243.981 -15.8477 243.584L-15.8508 243.583L-15.8511 243.583L-15.8521 243.583L-15.8532 243.582L-15.8553 243.581C-21.6488 241.505 -29.183 238.805 -38.4055 237.794C-45.7318 236.99 -52.7306 237.411 -55.4397 238.314C-55.6732 241.621 -56.7758 245.268 -56.7758 245.268C-57.2992 244.317 -57.9285 243.064 -58.6889 241.551L-58.6893 241.55L-58.6893 241.55C-60.6479 237.651 -63.4768 232.02 -67.6082 225.349ZM-55.0765 229.122C-55.4258 226.705 -56.4217 221.716 -57.9333 218.663C-54.5257 218.441 -49.7306 216.87 -47.4563 215.963C-38.9806 228.481 -29.211 235.28 -29.211 235.28C-29.211 235.28 -39.965 230.181 -55.0765 229.122ZM-7.49992 331.842C-4.9295 326.265 -0.0211411 316.348 3.13535 310.495C6.86054 303.588 10.3338 298.327 12.7385 294.684L12.7386 294.684C13.6725 293.269 14.4452 292.098 15.009 291.17C15.009 291.17 11.2939 292.042 8.3073 293.495C6.17054 291.606 2.30966 285.77 -0.65255 279.038C-4.38146 270.563 -5.80192 262.703 -6.89419 256.658C-7.1035 255.5 -7.30077 254.409 -7.49992 253.392C-7.69859 254.406 -7.89538 255.495 -8.10416 256.65L-8.10443 256.652L-8.10528 256.656L-8.10564 256.658C-9.19791 262.703 -10.6184 270.563 -14.3473 279.038C-17.3095 285.77 -21.1704 291.606 -23.3071 293.495C-26.2938 292.042 -30.0088 291.17 -30.0088 291.17C-29.4451 292.098 -28.6723 293.269 -27.7384 294.684C-25.3336 298.327 -21.8604 303.588 -18.1352 310.495C-14.9787 316.348 -10.0703 326.265 -7.49992 331.842ZM-7.49978 305.483C-5.60583 302.649 -1.77422 299.293 0.14888 297.782C-6.47996 284.196 -7.42693 272.354 -7.42693 272.354C-7.42693 272.354 -8.44675 284.196 -15.0756 297.782C-13.1525 299.293 -9.39373 302.649 -7.49978 305.483ZM41.962 206.965C48.6223 206.769 59.6872 206.056 65.8146 205.491C62.2601 210.499 56.1086 219.697 52.6079 225.349C48.4765 232.02 45.6477 237.651 43.6891 241.55L43.6891 241.55L43.689 241.55C42.9284 243.064 42.299 244.317 41.7756 245.268C41.7756 245.268 40.673 241.621 40.4394 238.314C37.7303 237.411 30.7315 236.99 23.4053 237.794C14.1827 238.805 6.64851 241.505 0.855034 243.581C-0.255196 243.979 -1.30151 244.354 -2.28352 244.69C-1.50085 244.01 -0.652 243.294 0.248711 242.534C4.94881 238.57 11.0611 233.415 16.551 225.957C20.9121 220.033 24.0462 213.78 24.6164 210.99C21.8603 209.134 19.2441 206.359 19.2441 206.359C20.3314 206.382 21.7336 206.465 23.4281 206.566L23.4291 206.566L23.4297 206.566L23.4304 206.566C27.7961 206.824 34.1017 207.197 41.962 206.965ZM32.4198 215.9C34.6941 216.807 39.5257 218.441 42.9333 218.663C41.4216 221.716 40.3893 226.642 40.04 229.059C24.9285 230.118 14.1381 235.154 14.1381 235.154C14.1381 235.154 23.9441 228.418 32.4198 215.9ZM65.8149 289.509C62.2605 284.501 56.109 275.303 52.6083 269.651C48.4769 262.98 45.648 257.349 43.6894 253.45C42.9288 251.936 42.2994 250.683 41.7759 249.732C41.7759 249.732 40.6733 253.379 40.4398 256.686C37.7307 257.589 30.7319 258.01 23.4056 257.206C14.1831 256.195 6.64887 253.495 0.855408 251.419L0.855339 251.419L0.85527 251.419C-0.254929 251.021 -1.30119 250.646 -2.28316 250.31C-1.5005 250.99 -0.651665 251.706 0.249046 252.466C4.94916 256.43 11.0615 261.585 16.5514 269.043C20.9125 274.967 24.0465 281.22 24.6167 284.011C21.8607 285.866 19.2445 288.641 19.2445 288.641C20.3323 288.618 21.7352 288.535 23.4307 288.434C27.7964 288.176 34.102 287.803 41.9623 288.035C48.6227 288.231 59.6875 288.944 65.8149 289.509ZM42.9333 276.338C41.4216 273.285 40.4258 268.295 40.0765 265.878C24.965 264.819 14.211 259.72 14.211 259.72C14.211 259.72 23.9805 266.519 32.4563 279.038C34.7306 278.13 39.5257 276.559 42.9333 276.338ZM-20.612 225.334L-21.6318 234.924L-8.22849 247.202L-25.2741 242.116L-33.0684 247.565L-25.2741 253.595L-8.22849 247.856L-21.6318 260.424L-20.612 270.16L-11.5065 266.018L-7.64574 248.146L-3.56645 266.018L5.61194 270.16L6.63176 260.424L-6.99014 247.856L9.90975 253.595L18.3597 247.565L9.90975 242.116L-6.99014 247.202L5.61194 234.924V225.334L-3.56645 229.33L-7.64574 246.548L-11.5065 229.33L-20.612 225.334Z" fill="#87E7EB"/>
</g>
<g filter="url(#filter2_d_601_9387)">
<path fill-rule="evenodd" clip-rule="evenodd" d="M-7.50015 347.158C-10.0706 352.735 -14.9789 362.652 -18.1354 368.505C-21.8606 375.412 -25.3339 380.673 -27.7386 384.316L-27.7387 384.316L-27.739 384.317C-28.6728 385.731 -29.4454 386.902 -30.0091 387.83C-30.0091 387.83 -26.294 386.958 -23.3074 385.505C-21.1706 387.394 -17.3097 393.23 -14.3475 399.962C-10.6186 408.437 -9.19815 416.297 -8.10588 422.342C-7.89657 423.5 -7.6993 424.591 -7.50015 425.608C-7.30109 424.592 -7.1039 423.501 -6.89468 422.343L-6.89449 422.342L-6.89442 422.342C-5.80216 416.297 -4.3817 408.437 -0.652786 399.962C2.30942 393.23 6.1703 387.394 8.30707 385.505C11.2937 386.958 15.0087 387.83 15.0087 387.83C14.445 386.902 13.6722 385.731 12.7383 384.316L12.7382 384.316C10.3335 380.673 6.86025 375.412 3.13512 368.505C-0.0213776 362.652 -4.92974 352.735 -7.50015 347.158ZM-7.49989 373.517C-9.39384 376.351 -13.2255 379.707 -15.1485 381.218C-8.51971 394.804 -7.57274 406.646 -7.57274 406.646C-7.57274 406.646 -6.55292 394.804 0.0759201 381.218C-1.84717 379.707 -5.60594 376.351 -7.49989 373.517ZM-80.8149 473.509C-74.6875 472.944 -63.6227 472.231 -56.9623 472.035C-49.102 471.803 -42.7964 472.176 -38.4307 472.434C-36.7352 472.535 -35.3323 472.618 -34.2445 472.641C-34.2445 472.641 -36.8607 469.866 -39.6168 468.011C-39.0465 465.22 -35.9125 458.967 -31.5514 453.043C-26.0615 445.585 -19.9492 440.43 -15.2491 436.466L-15.2489 436.466L-15.2485 436.465L-15.2484 436.465C-14.348 435.706 -13.4993 434.99 -12.7168 434.31C-13.6989 434.646 -14.7452 435.021 -15.8554 435.419C-21.6489 437.495 -29.1831 440.195 -38.4056 441.206C-45.7319 442.01 -52.7307 441.589 -55.4398 440.686C-55.6733 437.379 -56.776 433.732 -56.776 433.732C-57.2994 434.683 -57.9288 435.936 -58.6894 437.45L-58.6894 437.45C-60.648 441.349 -63.4769 446.98 -67.6083 453.651C-71.109 459.303 -77.2605 468.501 -80.8149 473.509ZM-57.9333 460.337C-54.5257 460.559 -49.6941 462.193 -47.4198 463.1C-38.9441 450.582 -29.1381 443.846 -29.1381 443.846C-29.1381 443.846 -39.9285 448.882 -55.04 449.941C-55.3893 452.358 -56.4216 457.285 -57.9333 460.337ZM-67.6082 409.349C-71.1089 403.697 -77.2604 394.499 -80.8148 389.491C-74.6874 390.056 -63.6226 390.769 -56.9622 390.965C-49.1019 391.197 -42.7963 390.824 -38.4306 390.566C-36.7351 390.465 -35.3322 390.382 -34.2444 390.359C-34.2444 390.359 -36.8606 393.134 -39.6166 394.989C-39.0464 397.78 -35.9124 404.033 -31.5513 409.957C-26.0614 417.415 -19.9491 422.57 -15.249 426.534C-14.3482 427.294 -13.4994 428.01 -12.7167 428.69C-13.6965 428.355 -14.7403 427.981 -15.8477 427.584L-15.8508 427.583L-15.8511 427.583L-15.8521 427.583L-15.8532 427.582L-15.8553 427.581C-21.6488 425.505 -29.183 422.805 -38.4055 421.794C-45.7318 420.99 -52.7306 421.411 -55.4397 422.314C-55.6732 425.621 -56.7758 429.268 -56.7758 429.268C-57.2992 428.317 -57.9285 427.064 -58.6889 425.551L-58.6893 425.55L-58.6893 425.55C-60.6479 421.651 -63.4768 416.02 -67.6082 409.349ZM-55.0765 413.122C-55.4258 410.705 -56.4217 405.716 -57.9333 402.663C-54.5257 402.441 -49.7306 400.87 -47.4563 399.963C-38.9806 412.481 -29.211 419.28 -29.211 419.28C-29.211 419.28 -39.965 414.181 -55.0765 413.122ZM-7.49992 515.842C-4.9295 510.265 -0.0211411 500.348 3.13535 494.495C6.86054 487.588 10.3338 482.327 12.7385 478.684L12.7386 478.684C13.6725 477.269 14.4452 476.098 15.009 475.17C15.009 475.17 11.2939 476.042 8.3073 477.495C6.17054 475.606 2.30966 469.77 -0.65255 463.038C-4.38146 454.563 -5.80192 446.703 -6.89419 440.658C-7.1035 439.5 -7.30077 438.409 -7.49992 437.392C-7.69859 438.406 -7.89538 439.495 -8.10416 440.65L-8.10443 440.652L-8.10528 440.656L-8.10564 440.658C-9.19791 446.703 -10.6184 454.563 -14.3473 463.038C-17.3095 469.77 -21.1704 475.606 -23.3071 477.495C-26.2938 476.042 -30.0088 475.17 -30.0088 475.17C-29.4451 476.098 -28.6723 477.269 -27.7384 478.684C-25.3336 482.327 -21.8604 487.588 -18.1352 494.495C-14.9787 500.348 -10.0703 510.265 -7.49992 515.842ZM-7.49978 489.483C-5.60583 486.649 -1.77422 483.293 0.14888 481.782C-6.47996 468.196 -7.42693 456.354 -7.42693 456.354C-7.42693 456.354 -8.44675 468.196 -15.0756 481.782C-13.1525 483.293 -9.39373 486.649 -7.49978 489.483ZM41.962 390.965C48.6223 390.769 59.6872 390.056 65.8146 389.491C62.2601 394.499 56.1086 403.697 52.6079 409.349C48.4765 416.02 45.6477 421.651 43.6891 425.55L43.6891 425.55L43.689 425.55C42.9284 427.064 42.299 428.317 41.7756 429.268C41.7756 429.268 40.673 425.621 40.4394 422.314C37.7303 421.411 30.7315 420.99 23.4053 421.794C14.1827 422.805 6.64851 425.505 0.855034 427.581C-0.255196 427.979 -1.30151 428.354 -2.28352 428.69C-1.50085 428.01 -0.652 427.294 0.248711 426.534C4.94881 422.57 11.0611 417.415 16.551 409.957C20.9121 404.033 24.0462 397.78 24.6164 394.99C21.8603 393.134 19.2441 390.359 19.2441 390.359C20.3314 390.382 21.7336 390.465 23.4281 390.566L23.4291 390.566L23.4297 390.566L23.4304 390.566C27.7961 390.824 34.1017 391.197 41.962 390.965ZM32.4198 399.9C34.6941 400.807 39.5257 402.441 42.9333 402.663C41.4216 405.716 40.3893 410.642 40.04 413.059C24.9285 414.118 14.1381 419.154 14.1381 419.154C14.1381 419.154 23.9441 412.418 32.4198 399.9ZM65.8149 473.509C62.2605 468.501 56.109 459.303 52.6083 453.651C48.4769 446.98 45.648 441.349 43.6894 437.45C42.9288 435.936 42.2994 434.683 41.7759 433.732C41.7759 433.732 40.6733 437.379 40.4398 440.686C37.7307 441.589 30.7319 442.01 23.4056 441.206C14.1831 440.195 6.64887 437.495 0.855408 435.419L0.855339 435.419L0.85527 435.419C-0.254929 435.021 -1.30119 434.646 -2.28316 434.31C-1.5005 434.99 -0.651665 435.706 0.249046 436.466C4.94916 440.43 11.0615 445.585 16.5514 453.043C20.9125 458.967 24.0465 465.22 24.6167 468.011C21.8607 469.866 19.2445 472.641 19.2445 472.641C20.3323 472.618 21.7352 472.535 23.4307 472.434C27.7964 472.176 34.102 471.803 41.9623 472.035C48.6227 472.231 59.6875 472.944 65.8149 473.509ZM42.9333 460.338C41.4216 457.285 40.4258 452.295 40.0765 449.878C24.965 448.819 14.211 443.72 14.211 443.72C14.211 443.72 23.9805 450.519 32.4563 463.038C34.7306 462.13 39.5257 460.559 42.9333 460.338ZM-20.612 409.334L-21.6318 418.924L-8.22849 431.202L-25.2741 426.116L-33.0684 431.565L-25.2741 437.595L-8.22849 431.856L-21.6318 444.424L-20.612 454.16L-11.5065 450.018L-7.64574 432.146L-3.56645 450.018L5.61194 454.16L6.63176 444.424L-6.99014 431.856L9.90975 437.595L18.3597 431.565L9.90975 426.116L-6.99014 431.202L5.61194 418.924V409.334L-3.56645 413.33L-7.64574 430.548L-11.5065 413.33L-20.612 409.334Z" fill="#87E7EB"/>
</g>
<g filter="url(#filter3_d_601_9387)">
<path fill-rule="evenodd" clip-rule="evenodd" d="M-7.50015 531.158C-10.0706 536.735 -14.9789 546.652 -18.1354 552.505C-21.8606 559.412 -25.3339 564.673 -27.7386 568.316L-27.7387 568.316L-27.739 568.317C-28.6728 569.731 -29.4454 570.902 -30.0091 571.83C-30.0091 571.83 -26.294 570.958 -23.3074 569.505C-21.1706 571.394 -17.3097 577.23 -14.3475 583.962C-10.6186 592.437 -9.19815 600.297 -8.10588 606.342C-7.89657 607.5 -7.6993 608.591 -7.50015 609.608C-7.30109 608.592 -7.1039 607.501 -6.89468 606.343L-6.89449 606.342L-6.89442 606.342C-5.80216 600.297 -4.3817 592.437 -0.652786 583.962C2.30942 577.23 6.1703 571.394 8.30707 569.505C11.2937 570.958 15.0087 571.83 15.0087 571.83C14.445 570.902 13.6722 569.731 12.7383 568.316L12.7382 568.316C10.3335 564.673 6.86025 559.412 3.13512 552.505C-0.0213776 546.652 -4.92974 536.735 -7.50015 531.158ZM-7.49989 557.517C-9.39384 560.351 -13.2255 563.707 -15.1485 565.218C-8.51971 578.804 -7.57274 590.646 -7.57274 590.646C-7.57274 590.646 -6.55292 578.804 0.0759201 565.218C-1.84717 563.707 -5.60594 560.351 -7.49989 557.517ZM-80.8149 657.509C-74.6875 656.944 -63.6227 656.231 -56.9623 656.035C-49.102 655.803 -42.7964 656.176 -38.4307 656.434C-36.7352 656.535 -35.3323 656.618 -34.2445 656.641C-34.2445 656.641 -36.8607 653.866 -39.6168 652.011C-39.0465 649.22 -35.9125 642.967 -31.5514 637.043C-26.0615 629.585 -19.9492 624.43 -15.2491 620.466L-15.2489 620.466L-15.2485 620.465L-15.2484 620.465C-14.348 619.706 -13.4993 618.99 -12.7168 618.31C-13.6989 618.646 -14.7452 619.021 -15.8554 619.419C-21.6489 621.495 -29.1831 624.195 -38.4056 625.206C-45.7319 626.01 -52.7307 625.589 -55.4398 624.686C-55.6733 621.379 -56.776 617.732 -56.776 617.732C-57.2994 618.683 -57.9288 619.936 -58.6894 621.45L-58.6894 621.45C-60.648 625.349 -63.4769 630.98 -67.6083 637.651C-71.109 643.303 -77.2605 652.501 -80.8149 657.509ZM-57.9333 644.337C-54.5257 644.559 -49.6941 646.193 -47.4198 647.1C-38.9441 634.582 -29.1381 627.846 -29.1381 627.846C-29.1381 627.846 -39.9285 632.882 -55.04 633.941C-55.3893 636.358 -56.4216 641.285 -57.9333 644.337ZM-67.6082 593.349C-71.1089 587.697 -77.2604 578.499 -80.8148 573.491C-74.6874 574.056 -63.6226 574.769 -56.9622 574.965C-49.1019 575.197 -42.7963 574.824 -38.4306 574.566C-36.7351 574.465 -35.3322 574.382 -34.2444 574.359C-34.2444 574.359 -36.8606 577.134 -39.6166 578.989C-39.0464 581.78 -35.9124 588.033 -31.5513 593.957C-26.0614 601.415 -19.9491 606.57 -15.249 610.534C-14.3482 611.294 -13.4994 612.01 -12.7167 612.69C-13.6965 612.355 -14.7403 611.981 -15.8477 611.584L-15.8508 611.583L-15.8511 611.583L-15.8521 611.583L-15.8532 611.582L-15.8553 611.581C-21.6488 609.505 -29.183 606.805 -38.4055 605.794C-45.7318 604.99 -52.7306 605.411 -55.4397 606.314C-55.6732 609.621 -56.7758 613.268 -56.7758 613.268C-57.2992 612.317 -57.9285 611.064 -58.6889 609.551L-58.6893 609.55L-58.6893 609.55C-60.6479 605.651 -63.4768 600.02 -67.6082 593.349ZM-55.0765 597.122C-55.4258 594.705 -56.4217 589.716 -57.9333 586.663C-54.5257 586.441 -49.7306 584.87 -47.4563 583.963C-38.9806 596.481 -29.211 603.28 -29.211 603.28C-29.211 603.28 -39.965 598.181 -55.0765 597.122ZM-7.49992 699.842C-4.9295 694.265 -0.0211411 684.348 3.13535 678.495C6.86054 671.588 10.3338 666.327 12.7385 662.684L12.7386 662.684C13.6725 661.269 14.4452 660.098 15.009 659.17C15.009 659.17 11.2939 660.042 8.3073 661.495C6.17054 659.606 2.30966 653.77 -0.65255 647.038C-4.38146 638.563 -5.80192 630.703 -6.89419 624.658C-7.1035 623.5 -7.30077 622.409 -7.49992 621.392C-7.69859 622.406 -7.89538 623.495 -8.10416 624.65L-8.10443 624.652L-8.10528 624.656L-8.10564 624.658C-9.19791 630.703 -10.6184 638.563 -14.3473 647.038C-17.3095 653.77 -21.1704 659.606 -23.3071 661.495C-26.2938 660.042 -30.0088 659.17 -30.0088 659.17C-29.4451 660.098 -28.6723 661.269 -27.7384 662.684C-25.3336 666.327 -21.8604 671.588 -18.1352 678.495C-14.9787 684.348 -10.0703 694.265 -7.49992 699.842ZM-7.49978 673.483C-5.60583 670.649 -1.77422 667.293 0.14888 665.782C-6.47996 652.196 -7.42693 640.354 -7.42693 640.354C-7.42693 640.354 -8.44675 652.196 -15.0756 665.782C-13.1525 667.293 -9.39373 670.649 -7.49978 673.483ZM41.962 574.965C48.6223 574.769 59.6872 574.056 65.8146 573.491C62.2601 578.499 56.1086 587.697 52.6079 593.349C48.4765 600.02 45.6477 605.651 43.6891 609.55L43.6891 609.55L43.689 609.55C42.9284 611.064 42.299 612.317 41.7756 613.268C41.7756 613.268 40.673 609.621 40.4394 606.314C37.7303 605.411 30.7315 604.99 23.4053 605.794C14.1827 606.805 6.64851 609.505 0.855034 611.581C-0.255196 611.979 -1.30151 612.354 -2.28352 612.69C-1.50085 612.01 -0.652 611.294 0.248711 610.534C4.94881 606.57 11.0611 601.415 16.551 593.957C20.9121 588.033 24.0462 581.78 24.6164 578.99C21.8603 577.134 19.2441 574.359 19.2441 574.359C20.3314 574.382 21.7336 574.465 23.4281 574.566L23.4291 574.566L23.4297 574.566L23.4304 574.566C27.7961 574.824 34.1017 575.197 41.962 574.965ZM32.4198 583.9C34.6941 584.807 39.5257 586.441 42.9333 586.663C41.4216 589.716 40.3893 594.642 40.04 597.059C24.9285 598.118 14.1381 603.154 14.1381 603.154C14.1381 603.154 23.9441 596.418 32.4198 583.9ZM65.8149 657.509C62.2605 652.501 56.109 643.303 52.6083 637.651C48.4769 630.98 45.648 625.349 43.6894 621.45C42.9288 619.936 42.2994 618.683 41.7759 617.732C41.7759 617.732 40.6733 621.379 40.4398 624.686C37.7307 625.589 30.7319 626.01 23.4056 625.206C14.1831 624.195 6.64887 621.495 0.855408 619.419L0.855339 619.419L0.85527 619.419C-0.254929 619.021 -1.30119 618.646 -2.28316 618.31C-1.5005 618.99 -0.651665 619.706 0.249046 620.466C4.94916 624.43 11.0615 629.585 16.5514 637.043C20.9125 642.967 24.0465 649.22 24.6167 652.011C21.8607 653.866 19.2445 656.641 19.2445 656.641C20.3323 656.618 21.7352 656.535 23.4307 656.434C27.7964 656.176 34.102 655.803 41.9623 656.035C48.6227 656.231 59.6875 656.944 65.8149 657.509ZM42.9333 644.338C41.4216 641.285 40.4258 636.295 40.0765 633.878C24.965 632.819 14.211 627.72 14.211 627.72C14.211 627.72 23.9805 634.519 32.4563 647.038C34.7306 646.13 39.5257 644.559 42.9333 644.338ZM-20.612 593.334L-21.6318 602.924L-8.22849 615.202L-25.2741 610.116L-33.0684 615.565L-25.2741 621.595L-8.22849 615.856L-21.6318 628.424L-20.612 638.16L-11.5065 634.018L-7.64574 616.146L-3.56645 634.018L5.61194 638.16L6.63176 628.424L-6.99014 615.856L9.90975 621.595L18.3597 615.565L9.90975 610.116L-6.99014 615.202L5.61194 602.924V593.334L-3.56645 597.33L-7.64574 614.548L-11.5065 597.33L-20.612 593.334Z" fill="#87E7EB"/>
</g>
<g filter="url(#filter4_d_601_9387)">
<path fill-rule="evenodd" clip-rule="evenodd" d="M-7.50015 715.158C-10.0706 720.735 -14.9789 730.652 -18.1354 736.505C-21.8606 743.412 -25.3339 748.673 -27.7386 752.316L-27.7387 752.316L-27.739 752.317C-28.6728 753.731 -29.4454 754.902 -30.0091 755.83C-30.0091 755.83 -26.294 754.958 -23.3074 753.505C-21.1706 755.394 -17.3097 761.23 -14.3475 767.962C-10.6186 776.437 -9.19815 784.297 -8.10588 790.342C-7.89657 791.5 -7.6993 792.591 -7.50015 793.608C-7.30109 792.592 -7.1039 791.501 -6.89468 790.343L-6.89449 790.342L-6.89442 790.342C-5.80216 784.297 -4.3817 776.437 -0.652786 767.962C2.30942 761.23 6.1703 755.394 8.30707 753.505C11.2937 754.958 15.0087 755.83 15.0087 755.83C14.445 754.902 13.6722 753.731 12.7383 752.316L12.7382 752.316C10.3335 748.673 6.86025 743.412 3.13512 736.505C-0.0213776 730.652 -4.92974 720.735 -7.50015 715.158ZM-7.49989 741.517C-9.39384 744.351 -13.2255 747.707 -15.1485 749.218C-8.51971 762.804 -7.57274 774.646 -7.57274 774.646C-7.57274 774.646 -6.55292 762.804 0.0759201 749.218C-1.84717 747.707 -5.60594 744.351 -7.49989 741.517ZM-80.8149 841.509C-74.6875 840.944 -63.6227 840.231 -56.9623 840.035C-49.102 839.803 -42.7964 840.176 -38.4307 840.434C-36.7352 840.535 -35.3323 840.618 -34.2445 840.641C-34.2445 840.641 -36.8607 837.866 -39.6168 836.011C-39.0465 833.22 -35.9125 826.967 -31.5514 821.043C-26.0615 813.585 -19.9492 808.43 -15.2491 804.466L-15.2489 804.466L-15.2485 804.465L-15.2484 804.465C-14.348 803.706 -13.4993 802.99 -12.7168 802.31C-13.6989 802.646 -14.7452 803.021 -15.8554 803.419C-21.6489 805.495 -29.1831 808.195 -38.4056 809.206C-45.7319 810.01 -52.7307 809.589 -55.4398 808.686C-55.6733 805.379 -56.776 801.732 -56.776 801.732C-57.2994 802.683 -57.9288 803.936 -58.6894 805.45L-58.6894 805.45C-60.648 809.349 -63.4769 814.98 -67.6083 821.651C-71.109 827.303 -77.2605 836.501 -80.8149 841.509ZM-57.9333 828.337C-54.5257 828.559 -49.6941 830.193 -47.4198 831.1C-38.9441 818.582 -29.1381 811.846 -29.1381 811.846C-29.1381 811.846 -39.9285 816.882 -55.04 817.941C-55.3893 820.358 -56.4216 825.285 -57.9333 828.337ZM-67.6082 777.349C-71.1089 771.697 -77.2604 762.499 -80.8148 757.491C-74.6874 758.056 -63.6226 758.769 -56.9622 758.965C-49.1019 759.197 -42.7963 758.824 -38.4306 758.566C-36.7351 758.465 -35.3322 758.382 -34.2444 758.359C-34.2444 758.359 -36.8606 761.134 -39.6166 762.989C-39.0464 765.78 -35.9124 772.033 -31.5513 777.957C-26.0614 785.415 -19.9491 790.57 -15.249 794.534C-14.3482 795.294 -13.4994 796.01 -12.7167 796.69C-13.6965 796.355 -14.7403 795.981 -15.8477 795.584L-15.8508 795.583L-15.8511 795.583L-15.8521 795.583L-15.8532 795.582L-15.8553 795.581C-21.6488 793.505 -29.183 790.805 -38.4055 789.794C-45.7318 788.99 -52.7306 789.411 -55.4397 790.314C-55.6732 793.621 -56.7758 797.268 -56.7758 797.268C-57.2992 796.317 -57.9285 795.064 -58.6889 793.551L-58.6893 793.55L-58.6893 793.55C-60.6479 789.651 -63.4768 784.02 -67.6082 777.349ZM-55.0765 781.122C-55.4258 778.705 -56.4217 773.716 -57.9333 770.663C-54.5257 770.441 -49.7306 768.87 -47.4563 767.963C-38.9806 780.481 -29.211 787.28 -29.211 787.28C-29.211 787.28 -39.965 782.181 -55.0765 781.122ZM-7.49992 883.842C-4.9295 878.265 -0.0211411 868.348 3.13535 862.495C6.86054 855.588 10.3338 850.327 12.7385 846.684L12.7386 846.684C13.6725 845.269 14.4452 844.098 15.009 843.17C15.009 843.17 11.2939 844.042 8.3073 845.495C6.17054 843.606 2.30966 837.77 -0.65255 831.038C-4.38146 822.563 -5.80192 814.703 -6.89419 808.658C-7.1035 807.5 -7.30077 806.409 -7.49992 805.392C-7.69859 806.406 -7.89538 807.495 -8.10416 808.65L-8.10443 808.652L-8.10528 808.656L-8.10564 808.658C-9.19791 814.703 -10.6184 822.563 -14.3473 831.038C-17.3095 837.77 -21.1704 843.606 -23.3071 845.495C-26.2938 844.042 -30.0088 843.17 -30.0088 843.17C-29.4451 844.098 -28.6723 845.269 -27.7384 846.684C-25.3336 850.327 -21.8604 855.588 -18.1352 862.495C-14.9787 868.348 -10.0703 878.265 -7.49992 883.842ZM-7.49978 857.483C-5.60583 854.649 -1.77422 851.293 0.14888 849.782C-6.47996 836.196 -7.42693 824.354 -7.42693 824.354C-7.42693 824.354 -8.44675 836.196 -15.0756 849.782C-13.1525 851.293 -9.39373 854.649 -7.49978 857.483ZM41.962 758.965C48.6223 758.769 59.6872 758.056 65.8146 757.491C62.2601 762.499 56.1086 771.697 52.6079 777.349C48.4765 784.02 45.6477 789.651 43.6891 793.55L43.6891 793.55L43.689 793.55C42.9284 795.064 42.299 796.317 41.7756 797.268C41.7756 797.268 40.673 793.621 40.4394 790.314C37.7303 789.411 30.7315 788.99 23.4053 789.794C14.1827 790.805 6.64851 793.505 0.855034 795.581C-0.255196 795.979 -1.30151 796.354 -2.28352 796.69C-1.50085 796.01 -0.652 795.294 0.248711 794.534C4.94881 790.57 11.0611 785.415 16.551 777.957C20.9121 772.033 24.0462 765.78 24.6164 762.99C21.8603 761.134 19.2441 758.359 19.2441 758.359C20.3314 758.382 21.7336 758.465 23.4281 758.566L23.4291 758.566L23.4297 758.566L23.4304 758.566C27.7961 758.824 34.1017 759.197 41.962 758.965ZM32.4198 767.9C34.6941 768.807 39.5257 770.441 42.9333 770.663C41.4216 773.716 40.3893 778.642 40.04 781.059C24.9285 782.118 14.1381 787.154 14.1381 787.154C14.1381 787.154 23.9441 780.418 32.4198 767.9ZM65.8149 841.509C62.2605 836.501 56.109 827.303 52.6083 821.651C48.4769 814.98 45.648 809.349 43.6894 805.45C42.9288 803.936 42.2994 802.683 41.7759 801.732C41.7759 801.732 40.6733 805.379 40.4398 808.686C37.7307 809.589 30.7319 810.01 23.4056 809.206C14.1831 808.195 6.64887 805.495 0.855408 803.419L0.855339 803.419L0.85527 803.419C-0.254929 803.021 -1.30119 802.646 -2.28316 802.31C-1.5005 802.99 -0.651665 803.706 0.249046 804.466C4.94916 808.43 11.0615 813.585 16.5514 821.043C20.9125 826.967 24.0465 833.22 24.6167 836.011C21.8607 837.866 19.2445 840.641 19.2445 840.641C20.3323 840.618 21.7352 840.535 23.4307 840.434C27.7964 840.176 34.102 839.803 41.9623 840.035C48.6227 840.231 59.6875 840.944 65.8149 841.509ZM42.9333 828.338C41.4216 825.285 40.4258 820.295 40.0765 817.878C24.965 816.819 14.211 811.72 14.211 811.72C14.211 811.72 23.9805 818.519 32.4563 831.038C34.7306 830.13 39.5257 828.559 42.9333 828.338ZM-20.612 777.334L-21.6318 786.924L-8.22849 799.202L-25.2741 794.116L-33.0684 799.565L-25.2741 805.595L-8.22849 799.856L-21.6318 812.424L-20.612 822.16L-11.5065 818.018L-7.64574 800.146L-3.56645 818.018L5.61194 822.16L6.63176 812.424L-6.99014 799.856L9.90975 805.595L18.3597 799.565L9.90975 794.116L-6.99014 799.202L5.61194 786.924V777.334L-3.56645 781.33L-7.64574 798.548L-11.5065 781.33L-20.612 777.334Z" fill="#87E7EB"/>
</g>
<g filter="url(#filter5_d_601_9387)">
<path fill-rule="evenodd" clip-rule="evenodd" d="M-7.50015 899.158C-10.0706 904.735 -14.9789 914.652 -18.1354 920.505C-21.8606 927.412 -25.3339 932.673 -27.7386 936.316L-27.7387 936.316L-27.739 936.317C-28.6728 937.731 -29.4454 938.902 -30.0091 939.83C-30.0091 939.83 -26.294 938.958 -23.3074 937.505C-21.1706 939.394 -17.3097 945.23 -14.3475 951.962C-10.6186 960.437 -9.19815 968.297 -8.10588 974.342C-7.89657 975.5 -7.6993 976.591 -7.50015 977.608C-7.30109 976.592 -7.1039 975.501 -6.89468 974.343L-6.89449 974.342L-6.89442 974.342C-5.80216 968.297 -4.3817 960.437 -0.652786 951.962C2.30942 945.23 6.1703 939.394 8.30707 937.505C11.2937 938.958 15.0087 939.83 15.0087 939.83C14.445 938.902 13.6722 937.731 12.7383 936.316L12.7382 936.316C10.3335 932.673 6.86025 927.412 3.13512 920.505C-0.0213776 914.652 -4.92974 904.735 -7.50015 899.158ZM-7.49989 925.517C-9.39384 928.351 -13.2255 931.707 -15.1485 933.218C-8.51971 946.804 -7.57274 958.646 -7.57274 958.646C-7.57274 958.646 -6.55292 946.804 0.0759201 933.218C-1.84717 931.707 -5.60594 928.351 -7.49989 925.517ZM-80.8149 1025.51C-74.6875 1024.94 -63.6227 1024.23 -56.9623 1024.03C-49.102 1023.8 -42.7964 1024.18 -38.4307 1024.43C-36.7352 1024.53 -35.3323 1024.62 -34.2445 1024.64C-34.2445 1024.64 -36.8607 1021.87 -39.6168 1020.01C-39.0465 1017.22 -35.9125 1010.97 -31.5514 1005.04C-26.0615 997.585 -19.9492 992.43 -15.2491 988.466L-15.2489 988.466L-15.2485 988.465L-15.2484 988.465C-14.348 987.706 -13.4993 986.99 -12.7168 986.31C-13.6989 986.646 -14.7452 987.021 -15.8554 987.419C-21.6489 989.495 -29.1831 992.195 -38.4056 993.206C-45.7319 994.01 -52.7307 993.589 -55.4398 992.686C-55.6733 989.379 -56.776 985.732 -56.776 985.732C-57.2994 986.683 -57.9288 987.936 -58.6894 989.45L-58.6894 989.45C-60.648 993.349 -63.4769 998.98 -67.6083 1005.65C-71.109 1011.3 -77.2605 1020.5 -80.8149 1025.51ZM-57.9333 1012.34C-54.5257 1012.56 -49.6941 1014.19 -47.4198 1015.1C-38.9441 1002.58 -29.1381 995.846 -29.1381 995.846C-29.1381 995.846 -39.9285 1000.88 -55.04 1001.94C-55.3893 1004.36 -56.4216 1009.28 -57.9333 1012.34ZM-67.6082 961.349C-71.1089 955.697 -77.2604 946.499 -80.8148 941.491C-74.6874 942.056 -63.6226 942.769 -56.9622 942.965C-49.1019 943.197 -42.7963 942.824 -38.4306 942.566C-36.7351 942.465 -35.3322 942.382 -34.2444 942.359C-34.2444 942.359 -36.8606 945.134 -39.6166 946.989C-39.0464 949.78 -35.9124 956.033 -31.5513 961.957C-26.0614 969.415 -19.9491 974.57 -15.249 978.534C-14.3482 979.294 -13.4994 980.01 -12.7167 980.69C-13.6965 980.355 -14.7403 979.981 -15.8477 979.584L-15.8508 979.583L-15.8511 979.583L-15.8521 979.583L-15.8532 979.582L-15.8553 979.581C-21.6488 977.505 -29.183 974.805 -38.4055 973.794C-45.7318 972.99 -52.7306 973.411 -55.4397 974.314C-55.6732 977.621 -56.7758 981.268 -56.7758 981.268C-57.2992 980.317 -57.9285 979.064 -58.6889 977.551L-58.6893 977.55L-58.6893 977.55C-60.6479 973.651 -63.4768 968.02 -67.6082 961.349ZM-55.0765 965.122C-55.4258 962.705 -56.4217 957.716 -57.9333 954.663C-54.5257 954.441 -49.7306 952.87 -47.4563 951.963C-38.9806 964.481 -29.211 971.28 -29.211 971.28C-29.211 971.28 -39.965 966.181 -55.0765 965.122ZM-7.49992 1067.84C-4.9295 1062.26 -0.0211411 1052.35 3.13535 1046.5C6.86054 1039.59 10.3338 1034.33 12.7385 1030.68L12.7386 1030.68C13.6725 1029.27 14.4452 1028.1 15.009 1027.17C15.009 1027.17 11.2939 1028.04 8.3073 1029.5C6.17054 1027.61 2.30966 1021.77 -0.65255 1015.04C-4.38146 1006.56 -5.80192 998.703 -6.89419 992.658C-7.1035 991.5 -7.30077 990.409 -7.49992 989.392C-7.69859 990.406 -7.89538 991.495 -8.10416 992.65L-8.10443 992.652L-8.10528 992.656L-8.10564 992.658C-9.19791 998.703 -10.6184 1006.56 -14.3473 1015.04C-17.3095 1021.77 -21.1704 1027.61 -23.3071 1029.5C-26.2938 1028.04 -30.0088 1027.17 -30.0088 1027.17C-29.4451 1028.1 -28.6723 1029.27 -27.7384 1030.68C-25.3336 1034.33 -21.8604 1039.59 -18.1352 1046.5C-14.9787 1052.35 -10.0703 1062.26 -7.49992 1067.84ZM-7.49978 1041.48C-5.60583 1038.65 -1.77422 1035.29 0.14888 1033.78C-6.47996 1020.2 -7.42693 1008.35 -7.42693 1008.35C-7.42693 1008.35 -8.44675 1020.2 -15.0756 1033.78C-13.1525 1035.29 -9.39373 1038.65 -7.49978 1041.48ZM41.962 942.965C48.6223 942.769 59.6872 942.056 65.8146 941.491C62.2601 946.499 56.1086 955.697 52.6079 961.349C48.4765 968.02 45.6477 973.651 43.6891 977.55L43.6891 977.55L43.689 977.55C42.9284 979.064 42.299 980.317 41.7756 981.268C41.7756 981.268 40.673 977.621 40.4394 974.314C37.7303 973.411 30.7315 972.99 23.4053 973.794C14.1827 974.805 6.64851 977.505 0.855034 979.581C-0.255196 979.979 -1.30151 980.354 -2.28352 980.69C-1.50085 980.01 -0.652 979.294 0.248711 978.534C4.94881 974.57 11.0611 969.415 16.551 961.957C20.9121 956.033 24.0462 949.78 24.6164 946.99C21.8603 945.134 19.2441 942.359 19.2441 942.359C20.3314 942.382 21.7336 942.465 23.4281 942.566L23.4291 942.566L23.4297 942.566L23.4304 942.566C27.7961 942.824 34.1017 943.197 41.962 942.965ZM32.4198 951.9C34.6941 952.807 39.5257 954.441 42.9333 954.663C41.4216 957.716 40.3893 962.642 40.04 965.059C24.9285 966.118 14.1381 971.154 14.1381 971.154C14.1381 971.154 23.9441 964.418 32.4198 951.9ZM65.8149 1025.51C62.2605 1020.5 56.109 1011.3 52.6083 1005.65C48.4769 998.98 45.648 993.349 43.6894 989.45C42.9288 987.936 42.2994 986.683 41.7759 985.732C41.7759 985.732 40.6733 989.379 40.4398 992.686C37.7307 993.589 30.7319 994.01 23.4056 993.206C14.1831 992.195 6.64887 989.495 0.855408 987.419L0.855339 987.419L0.85527 987.419C-0.254929 987.021 -1.30119 986.646 -2.28316 986.31C-1.5005 986.99 -0.651665 987.706 0.249046 988.466C4.94916 992.43 11.0615 997.585 16.5514 1005.04C20.9125 1010.97 24.0465 1017.22 24.6167 1020.01C21.8607 1021.87 19.2445 1024.64 19.2445 1024.64C20.3323 1024.62 21.7352 1024.53 23.4307 1024.43C27.7964 1024.18 34.102 1023.8 41.9623 1024.03C48.6227 1024.23 59.6875 1024.94 65.8149 1025.51ZM42.9333 1012.34C41.4216 1009.28 40.4258 1004.3 40.0765 1001.88C24.965 1000.82 14.211 995.72 14.211 995.72C14.211 995.72 23.9805 1002.52 32.4563 1015.04C34.7306 1014.13 39.5257 1012.56 42.9333 1012.34ZM-20.612 961.334L-21.6318 970.924L-8.22849 983.202L-25.2741 978.116L-33.0684 983.565L-25.2741 989.595L-8.22849 983.856L-21.6318 996.424L-20.612 1006.16L-11.5065 1002.02L-7.64574 984.146L-3.56645 1002.02L5.61194 1006.16L6.63176 996.424L-6.99014 983.856L9.90975 989.595L18.3597 983.565L9.90975 978.116L-6.99014 983.202L5.61194 970.924V961.334L-3.56645 965.33L-7.64574 982.548L-11.5065 965.33L-20.612 961.334Z" fill="#87E7EB"/>
</g>
<g filter="url(#filter6_d_601_9387)">
<path fill-rule="evenodd" clip-rule="evenodd" d="M-7.50015 1083.16C-10.0706 1088.74 -14.9789 1098.65 -18.1354 1104.5C-21.8606 1111.41 -25.3339 1116.67 -27.7386 1120.32L-27.7387 1120.32L-27.739 1120.32C-28.6728 1121.73 -29.4454 1122.9 -30.0091 1123.83C-30.0091 1123.83 -26.294 1122.96 -23.3074 1121.5C-21.1706 1123.39 -17.3097 1129.23 -14.3475 1135.96C-10.6186 1144.44 -9.19815 1152.3 -8.10588 1158.34C-7.89657 1159.5 -7.6993 1160.59 -7.50015 1161.61C-7.30109 1160.59 -7.1039 1159.5 -6.89468 1158.34L-6.89449 1158.34L-6.89442 1158.34C-5.80216 1152.3 -4.3817 1144.44 -0.652786 1135.96C2.30942 1129.23 6.1703 1123.39 8.30707 1121.5C11.2937 1122.96 15.0087 1123.83 15.0087 1123.83C14.445 1122.9 13.6722 1121.73 12.7383 1120.32L12.7382 1120.32C10.3335 1116.67 6.86025 1111.41 3.13512 1104.5C-0.0213776 1098.65 -4.92974 1088.74 -7.50015 1083.16ZM-7.49989 1109.52C-9.39384 1112.35 -13.2255 1115.71 -15.1485 1117.22C-8.51971 1130.8 -7.57274 1142.65 -7.57274 1142.65C-7.57274 1142.65 -6.55292 1130.8 0.0759201 1117.22C-1.84717 1115.71 -5.60594 1112.35 -7.49989 1109.52ZM-80.8149 1209.51C-74.6875 1208.94 -63.6227 1208.23 -56.9623 1208.03C-49.102 1207.8 -42.7964 1208.18 -38.4307 1208.43C-36.7352 1208.53 -35.3323 1208.62 -34.2445 1208.64C-34.2445 1208.64 -36.8607 1205.87 -39.6168 1204.01C-39.0465 1201.22 -35.9125 1194.97 -31.5514 1189.04C-26.0615 1181.59 -19.9492 1176.43 -15.2491 1172.47L-15.2489 1172.47L-15.2485 1172.47L-15.2484 1172.47C-14.348 1171.71 -13.4993 1170.99 -12.7168 1170.31C-13.6989 1170.65 -14.7452 1171.02 -15.8554 1171.42C-21.6489 1173.49 -29.1831 1176.19 -38.4056 1177.21C-45.7319 1178.01 -52.7307 1177.59 -55.4398 1176.69C-55.6733 1173.38 -56.776 1169.73 -56.776 1169.73C-57.2994 1170.68 -57.9288 1171.94 -58.6894 1173.45L-58.6894 1173.45C-60.648 1177.35 -63.4769 1182.98 -67.6083 1189.65C-71.109 1195.3 -77.2605 1204.5 -80.8149 1209.51ZM-57.9333 1196.34C-54.5257 1196.56 -49.6941 1198.19 -47.4198 1199.1C-38.9441 1186.58 -29.1381 1179.85 -29.1381 1179.85C-29.1381 1179.85 -39.9285 1184.88 -55.04 1185.94C-55.3893 1188.36 -56.4216 1193.28 -57.9333 1196.34ZM-67.6082 1145.35C-71.1089 1139.7 -77.2604 1130.5 -80.8148 1125.49C-74.6874 1126.06 -63.6226 1126.77 -56.9622 1126.97C-49.1019 1127.2 -42.7963 1126.82 -38.4306 1126.57C-36.7351 1126.47 -35.3322 1126.38 -34.2444 1126.36C-34.2444 1126.36 -36.8606 1129.13 -39.6166 1130.99C-39.0464 1133.78 -35.9124 1140.03 -31.5513 1145.96C-26.0614 1153.41 -19.9491 1158.57 -15.249 1162.53C-14.3482 1163.29 -13.4994 1164.01 -12.7167 1164.69C-13.6965 1164.35 -14.7403 1163.98 -15.8477 1163.58L-15.8508 1163.58L-15.8511 1163.58L-15.8521 1163.58L-15.8532 1163.58L-15.8553 1163.58C-21.6488 1161.51 -29.183 1158.81 -38.4055 1157.79C-45.7318 1156.99 -52.7306 1157.41 -55.4397 1158.31C-55.6732 1161.62 -56.7758 1165.27 -56.7758 1165.27C-57.2992 1164.32 -57.9285 1163.06 -58.6889 1161.55L-58.6893 1161.55L-58.6893 1161.55C-60.6479 1157.65 -63.4768 1152.02 -67.6082 1145.35ZM-55.0765 1149.12C-55.4258 1146.7 -56.4217 1141.72 -57.9333 1138.66C-54.5257 1138.44 -49.7306 1136.87 -47.4563 1135.96C-38.9806 1148.48 -29.211 1155.28 -29.211 1155.28C-29.211 1155.28 -39.965 1150.18 -55.0765 1149.12ZM-7.49992 1251.84C-4.9295 1246.26 -0.0211411 1236.35 3.13535 1230.5C6.86054 1223.59 10.3338 1218.33 12.7385 1214.68L12.7386 1214.68C13.6725 1213.27 14.4452 1212.1 15.009 1211.17C15.009 1211.17 11.2939 1212.04 8.3073 1213.5C6.17054 1211.61 2.30966 1205.77 -0.65255 1199.04C-4.38146 1190.56 -5.80192 1182.7 -6.89419 1176.66C-7.1035 1175.5 -7.30077 1174.41 -7.49992 1173.39C-7.69859 1174.41 -7.89538 1175.49 -8.10416 1176.65L-8.10443 1176.65L-8.10528 1176.66L-8.10564 1176.66C-9.19791 1182.7 -10.6184 1190.56 -14.3473 1199.04C-17.3095 1205.77 -21.1704 1211.61 -23.3071 1213.5C-26.2938 1212.04 -30.0088 1211.17 -30.0088 1211.17C-29.4451 1212.1 -28.6723 1213.27 -27.7384 1214.68C-25.3336 1218.33 -21.8604 1223.59 -18.1352 1230.5C-14.9787 1236.35 -10.0703 1246.26 -7.49992 1251.84ZM-7.49978 1225.48C-5.60583 1222.65 -1.77422 1219.29 0.14888 1217.78C-6.47996 1204.2 -7.42693 1192.35 -7.42693 1192.35C-7.42693 1192.35 -8.44675 1204.2 -15.0756 1217.78C-13.1525 1219.29 -9.39373 1222.65 -7.49978 1225.48ZM41.962 1126.97C48.6223 1126.77 59.6872 1126.06 65.8146 1125.49C62.2601 1130.5 56.1086 1139.7 52.6079 1145.35C48.4765 1152.02 45.6477 1157.65 43.6891 1161.55L43.6891 1161.55L43.689 1161.55C42.9284 1163.06 42.299 1164.32 41.7756 1165.27C41.7756 1165.27 40.673 1161.62 40.4394 1158.31C37.7303 1157.41 30.7315 1156.99 23.4053 1157.79C14.1827 1158.81 6.64851 1161.51 0.855034 1163.58C-0.255196 1163.98 -1.30151 1164.35 -2.28352 1164.69C-1.50085 1164.01 -0.652 1163.29 0.248711 1162.53C4.94881 1158.57 11.0611 1153.41 16.551 1145.96C20.9121 1140.03 24.0462 1133.78 24.6164 1130.99C21.8603 1129.13 19.2441 1126.36 19.2441 1126.36C20.3314 1126.38 21.7336 1126.47 23.4281 1126.57L23.4291 1126.57L23.4297 1126.57L23.4304 1126.57C27.7961 1126.82 34.1017 1127.2 41.962 1126.97ZM32.4198 1135.9C34.6941 1136.81 39.5257 1138.44 42.9333 1138.66C41.4216 1141.72 40.3893 1146.64 40.04 1149.06C24.9285 1150.12 14.1381 1155.15 14.1381 1155.15C14.1381 1155.15 23.9441 1148.42 32.4198 1135.9ZM65.8149 1209.51C62.2605 1204.5 56.109 1195.3 52.6083 1189.65C48.4769 1182.98 45.648 1177.35 43.6894 1173.45C42.9288 1171.94 42.2994 1170.68 41.7759 1169.73C41.7759 1169.73 40.6733 1173.38 40.4398 1176.69C37.7307 1177.59 30.7319 1178.01 23.4056 1177.21C14.1831 1176.19 6.64887 1173.49 0.855408 1171.42L0.855339 1171.42L0.85527 1171.42C-0.254929 1171.02 -1.30119 1170.65 -2.28316 1170.31C-1.5005 1170.99 -0.651665 1171.71 0.249046 1172.47C4.94916 1176.43 11.0615 1181.59 16.5514 1189.04C20.9125 1194.97 24.0465 1201.22 24.6167 1204.01C21.8607 1205.87 19.2445 1208.64 19.2445 1208.64C20.3323 1208.62 21.7352 1208.53 23.4307 1208.43C27.7964 1208.18 34.102 1207.8 41.9623 1208.03C48.6227 1208.23 59.6875 1208.94 65.8149 1209.51ZM42.9333 1196.34C41.4216 1193.28 40.4258 1188.3 40.0765 1185.88C24.965 1184.82 14.211 1179.72 14.211 1179.72C14.211 1179.72 23.9805 1186.52 32.4563 1199.04C34.7306 1198.13 39.5257 1196.56 42.9333 1196.34ZM-20.612 1145.33L-21.6318 1154.92L-8.22849 1167.2L-25.2741 1162.12L-33.0684 1167.57L-25.2741 1173.6L-8.22849 1167.86L-21.6318 1180.42L-20.612 1190.16L-11.5065 1186.02L-7.64574 1168.15L-3.56645 1186.02L5.61194 1190.16L6.63176 1180.42L-6.99014 1167.86L9.90975 1173.6L18.3597 1167.57L9.90975 1162.12L-6.99014 1167.2L5.61194 1154.92V1145.33L-3.56645 1149.33L-7.64574 1166.55L-11.5065 1149.33L-20.612 1145.33Z" fill="#87E7EB"/>
</g>
<g filter="url(#filter7_d_601_9387)">
<path fill-rule="evenodd" clip-rule="evenodd" d="M-7.50015 1267.16C-10.0706 1272.74 -14.9789 1282.65 -18.1354 1288.5C-21.8606 1295.41 -25.3339 1300.67 -27.7386 1304.32L-27.7387 1304.32L-27.739 1304.32C-28.6728 1305.73 -29.4454 1306.9 -30.0091 1307.83C-30.0091 1307.83 -26.294 1306.96 -23.3074 1305.5C-21.1706 1307.39 -17.3097 1313.23 -14.3475 1319.96C-10.6186 1328.44 -9.19815 1336.3 -8.10588 1342.34C-7.89657 1343.5 -7.6993 1344.59 -7.50015 1345.61C-7.30109 1344.59 -7.1039 1343.5 -6.89468 1342.34L-6.89449 1342.34L-6.89442 1342.34C-5.80216 1336.3 -4.3817 1328.44 -0.652786 1319.96C2.30942 1313.23 6.1703 1307.39 8.30707 1305.5C11.2937 1306.96 15.0087 1307.83 15.0087 1307.83C14.445 1306.9 13.6722 1305.73 12.7383 1304.32L12.7382 1304.32C10.3335 1300.67 6.86025 1295.41 3.13512 1288.5C-0.0213776 1282.65 -4.92974 1272.74 -7.50015 1267.16ZM-7.49989 1293.52C-9.39384 1296.35 -13.2255 1299.71 -15.1485 1301.22C-8.51971 1314.8 -7.57274 1326.65 -7.57274 1326.65C-7.57274 1326.65 -6.55292 1314.8 0.0759201 1301.22C-1.84717 1299.71 -5.60594 1296.35 -7.49989 1293.52ZM-80.8149 1393.51C-74.6875 1392.94 -63.6227 1392.23 -56.9623 1392.03C-49.102 1391.8 -42.7964 1392.18 -38.4307 1392.43C-36.7352 1392.53 -35.3323 1392.62 -34.2445 1392.64C-34.2445 1392.64 -36.8607 1389.87 -39.6168 1388.01C-39.0465 1385.22 -35.9125 1378.97 -31.5514 1373.04C-26.0615 1365.59 -19.9492 1360.43 -15.2491 1356.47L-15.2489 1356.47L-15.2485 1356.47L-15.2484 1356.47C-14.348 1355.71 -13.4993 1354.99 -12.7168 1354.31C-13.6989 1354.65 -14.7452 1355.02 -15.8554 1355.42C-21.6489 1357.49 -29.1831 1360.19 -38.4056 1361.21C-45.7319 1362.01 -52.7307 1361.59 -55.4398 1360.69C-55.6733 1357.38 -56.776 1353.73 -56.776 1353.73C-57.2994 1354.68 -57.9288 1355.94 -58.6894 1357.45L-58.6894 1357.45C-60.648 1361.35 -63.4769 1366.98 -67.6083 1373.65C-71.109 1379.3 -77.2605 1388.5 -80.8149 1393.51ZM-57.9333 1380.34C-54.5257 1380.56 -49.6941 1382.19 -47.4198 1383.1C-38.9441 1370.58 -29.1381 1363.85 -29.1381 1363.85C-29.1381 1363.85 -39.9285 1368.88 -55.04 1369.94C-55.3893 1372.36 -56.4216 1377.28 -57.9333 1380.34ZM-67.6082 1329.35C-71.1089 1323.7 -77.2604 1314.5 -80.8148 1309.49C-74.6874 1310.06 -63.6226 1310.77 -56.9622 1310.97C-49.1019 1311.2 -42.7963 1310.82 -38.4306 1310.57C-36.7351 1310.47 -35.3322 1310.38 -34.2444 1310.36C-34.2444 1310.36 -36.8606 1313.13 -39.6166 1314.99C-39.0464 1317.78 -35.9124 1324.03 -31.5513 1329.96C-26.0614 1337.41 -19.9491 1342.57 -15.249 1346.53C-14.3482 1347.29 -13.4994 1348.01 -12.7167 1348.69C-13.6965 1348.35 -14.7403 1347.98 -15.8477 1347.58L-15.8508 1347.58L-15.8511 1347.58L-15.8521 1347.58L-15.8532 1347.58L-15.8553 1347.58C-21.6488 1345.51 -29.183 1342.81 -38.4055 1341.79C-45.7318 1340.99 -52.7306 1341.41 -55.4397 1342.31C-55.6732 1345.62 -56.7758 1349.27 -56.7758 1349.27C-57.2992 1348.32 -57.9285 1347.06 -58.6889 1345.55L-58.6893 1345.55L-58.6893 1345.55C-60.6479 1341.65 -63.4768 1336.02 -67.6082 1329.35ZM-55.0765 1333.12C-55.4258 1330.7 -56.4217 1325.72 -57.9333 1322.66C-54.5257 1322.44 -49.7306 1320.87 -47.4563 1319.96C-38.9806 1332.48 -29.211 1339.28 -29.211 1339.28C-29.211 1339.28 -39.965 1334.18 -55.0765 1333.12ZM-7.49992 1435.84C-4.9295 1430.26 -0.0211411 1420.35 3.13535 1414.5C6.86054 1407.59 10.3338 1402.33 12.7385 1398.68L12.7386 1398.68C13.6725 1397.27 14.4452 1396.1 15.009 1395.17C15.009 1395.17 11.2939 1396.04 8.3073 1397.5C6.17054 1395.61 2.30966 1389.77 -0.65255 1383.04C-4.38146 1374.56 -5.80192 1366.7 -6.89419 1360.66C-7.1035 1359.5 -7.30077 1358.41 -7.49992 1357.39C-7.69859 1358.41 -7.89538 1359.49 -8.10416 1360.65L-8.10443 1360.65L-8.10528 1360.66L-8.10564 1360.66C-9.19791 1366.7 -10.6184 1374.56 -14.3473 1383.04C-17.3095 1389.77 -21.1704 1395.61 -23.3071 1397.5C-26.2938 1396.04 -30.0088 1395.17 -30.0088 1395.17C-29.4451 1396.1 -28.6723 1397.27 -27.7384 1398.68C-25.3336 1402.33 -21.8604 1407.59 -18.1352 1414.5C-14.9787 1420.35 -10.0703 1430.26 -7.49992 1435.84ZM-7.49978 1409.48C-5.60583 1406.65 -1.77422 1403.29 0.14888 1401.78C-6.47996 1388.2 -7.42693 1376.35 -7.42693 1376.35C-7.42693 1376.35 -8.44675 1388.2 -15.0756 1401.78C-13.1525 1403.29 -9.39373 1406.65 -7.49978 1409.48ZM41.962 1310.97C48.6223 1310.77 59.6872 1310.06 65.8146 1309.49C62.2601 1314.5 56.1086 1323.7 52.6079 1329.35C48.4765 1336.02 45.6477 1341.65 43.6891 1345.55L43.6891 1345.55L43.689 1345.55C42.9284 1347.06 42.299 1348.32 41.7756 1349.27C41.7756 1349.27 40.673 1345.62 40.4394 1342.31C37.7303 1341.41 30.7315 1340.99 23.4053 1341.79C14.1827 1342.81 6.64851 1345.51 0.855034 1347.58C-0.255196 1347.98 -1.30151 1348.35 -2.28352 1348.69C-1.50085 1348.01 -0.652 1347.29 0.248711 1346.53C4.94881 1342.57 11.0611 1337.41 16.551 1329.96C20.9121 1324.03 24.0462 1317.78 24.6164 1314.99C21.8603 1313.13 19.2441 1310.36 19.2441 1310.36C20.3314 1310.38 21.7336 1310.47 23.4281 1310.57L23.4291 1310.57L23.4297 1310.57L23.4304 1310.57C27.7961 1310.82 34.1017 1311.2 41.962 1310.97ZM32.4198 1319.9C34.6941 1320.81 39.5257 1322.44 42.9333 1322.66C41.4216 1325.72 40.3893 1330.64 40.04 1333.06C24.9285 1334.12 14.1381 1339.15 14.1381 1339.15C14.1381 1339.15 23.9441 1332.42 32.4198 1319.9ZM65.8149 1393.51C62.2605 1388.5 56.109 1379.3 52.6083 1373.65C48.4769 1366.98 45.648 1361.35 43.6894 1357.45C42.9288 1355.94 42.2994 1354.68 41.7759 1353.73C41.7759 1353.73 40.6733 1357.38 40.4398 1360.69C37.7307 1361.59 30.7319 1362.01 23.4056 1361.21C14.1831 1360.19 6.64887 1357.49 0.855408 1355.42L0.855339 1355.42L0.85527 1355.42C-0.254929 1355.02 -1.30119 1354.65 -2.28316 1354.31C-1.5005 1354.99 -0.651665 1355.71 0.249046 1356.47C4.94916 1360.43 11.0615 1365.59 16.5514 1373.04C20.9125 1378.97 24.0465 1385.22 24.6167 1388.01C21.8607 1389.87 19.2445 1392.64 19.2445 1392.64C20.3323 1392.62 21.7352 1392.53 23.4307 1392.43C27.7964 1392.18 34.102 1391.8 41.9623 1392.03C48.6227 1392.23 59.6875 1392.94 65.8149 1393.51ZM42.9333 1380.34C41.4216 1377.28 40.4258 1372.3 40.0765 1369.88C24.965 1368.82 14.211 1363.72 14.211 1363.72C14.211 1363.72 23.9805 1370.52 32.4563 1383.04C34.7306 1382.13 39.5257 1380.56 42.9333 1380.34ZM-20.612 1329.33L-21.6318 1338.92L-8.22849 1351.2L-25.2741 1346.12L-33.0684 1351.57L-25.2741 1357.6L-8.22849 1351.86L-21.6318 1364.42L-20.612 1374.16L-11.5065 1370.02L-7.64574 1352.15L-3.56645 1370.02L5.61194 1374.16L6.63176 1364.42L-6.99014 1351.86L9.90975 1357.6L18.3597 1351.57L9.90975 1346.12L-6.99014 1351.2L5.61194 1338.92V1329.33L-3.56645 1333.33L-7.64574 1350.55L-11.5065 1333.33L-20.612 1329.33Z" fill="#87E7EB"/>
</g>
<g filter="url(#filter8_d_601_9387)">
<path fill-rule="evenodd" clip-rule="evenodd" d="M-7.50015 1451.16C-10.0706 1456.74 -14.9789 1466.65 -18.1354 1472.5C-21.8606 1479.41 -25.3339 1484.67 -27.7386 1488.32L-27.7387 1488.32L-27.739 1488.32C-28.6728 1489.73 -29.4454 1490.9 -30.0091 1491.83C-30.0091 1491.83 -26.294 1490.96 -23.3074 1489.5C-21.1706 1491.39 -17.3097 1497.23 -14.3475 1503.96C-10.6186 1512.44 -9.19815 1520.3 -8.10588 1526.34C-7.89657 1527.5 -7.6993 1528.59 -7.50015 1529.61C-7.30109 1528.59 -7.1039 1527.5 -6.89468 1526.34L-6.89449 1526.34L-6.89442 1526.34C-5.80216 1520.3 -4.3817 1512.44 -0.652786 1503.96C2.30942 1497.23 6.1703 1491.39 8.30707 1489.5C11.2937 1490.96 15.0087 1491.83 15.0087 1491.83C14.445 1490.9 13.6722 1489.73 12.7383 1488.32L12.7382 1488.32C10.3335 1484.67 6.86025 1479.41 3.13512 1472.5C-0.0213776 1466.65 -4.92974 1456.74 -7.50015 1451.16ZM-7.49989 1477.52C-9.39384 1480.35 -13.2255 1483.71 -15.1485 1485.22C-8.51971 1498.8 -7.57274 1510.65 -7.57274 1510.65C-7.57274 1510.65 -6.55292 1498.8 0.0759201 1485.22C-1.84717 1483.71 -5.60594 1480.35 -7.49989 1477.52ZM-80.8149 1577.51C-74.6875 1576.94 -63.6227 1576.23 -56.9623 1576.03C-49.102 1575.8 -42.7964 1576.18 -38.4307 1576.43C-36.7352 1576.53 -35.3323 1576.62 -34.2445 1576.64C-34.2445 1576.64 -36.8607 1573.87 -39.6168 1572.01C-39.0465 1569.22 -35.9125 1562.97 -31.5514 1557.04C-26.0615 1549.59 -19.9492 1544.43 -15.2491 1540.47L-15.2489 1540.47L-15.2485 1540.47L-15.2484 1540.47C-14.348 1539.71 -13.4993 1538.99 -12.7168 1538.31C-13.6989 1538.65 -14.7452 1539.02 -15.8554 1539.42C-21.6489 1541.49 -29.1831 1544.19 -38.4056 1545.21C-45.7319 1546.01 -52.7307 1545.59 -55.4398 1544.69C-55.6733 1541.38 -56.776 1537.73 -56.776 1537.73C-57.2994 1538.68 -57.9288 1539.94 -58.6894 1541.45L-58.6894 1541.45C-60.648 1545.35 -63.4769 1550.98 -67.6083 1557.65C-71.109 1563.3 -77.2605 1572.5 -80.8149 1577.51ZM-57.9333 1564.34C-54.5257 1564.56 -49.6941 1566.19 -47.4198 1567.1C-38.9441 1554.58 -29.1381 1547.85 -29.1381 1547.85C-29.1381 1547.85 -39.9285 1552.88 -55.04 1553.94C-55.3893 1556.36 -56.4216 1561.28 -57.9333 1564.34ZM-67.6082 1513.35C-71.1089 1507.7 -77.2604 1498.5 -80.8148 1493.49C-74.6874 1494.06 -63.6226 1494.77 -56.9622 1494.97C-49.1019 1495.2 -42.7963 1494.82 -38.4306 1494.57C-36.7351 1494.47 -35.3322 1494.38 -34.2444 1494.36C-34.2444 1494.36 -36.8606 1497.13 -39.6166 1498.99C-39.0464 1501.78 -35.9124 1508.03 -31.5513 1513.96C-26.0614 1521.41 -19.9491 1526.57 -15.249 1530.53C-14.3482 1531.29 -13.4994 1532.01 -12.7167 1532.69C-13.6965 1532.35 -14.7403 1531.98 -15.8477 1531.58L-15.8508 1531.58L-15.8511 1531.58L-15.8521 1531.58L-15.8532 1531.58L-15.8553 1531.58C-21.6488 1529.51 -29.183 1526.81 -38.4055 1525.79C-45.7318 1524.99 -52.7306 1525.41 -55.4397 1526.31C-55.6732 1529.62 -56.7758 1533.27 -56.7758 1533.27C-57.2992 1532.32 -57.9285 1531.06 -58.6889 1529.55L-58.6893 1529.55L-58.6893 1529.55C-60.6479 1525.65 -63.4768 1520.02 -67.6082 1513.35ZM-55.0765 1517.12C-55.4258 1514.7 -56.4217 1509.72 -57.9333 1506.66C-54.5257 1506.44 -49.7306 1504.87 -47.4563 1503.96C-38.9806 1516.48 -29.211 1523.28 -29.211 1523.28C-29.211 1523.28 -39.965 1518.18 -55.0765 1517.12ZM-7.49992 1619.84C-4.9295 1614.26 -0.0211411 1604.35 3.13535 1598.5C6.86054 1591.59 10.3338 1586.33 12.7385 1582.68L12.7386 1582.68C13.6725 1581.27 14.4452 1580.1 15.009 1579.17C15.009 1579.17 11.2939 1580.04 8.3073 1581.5C6.17054 1579.61 2.30966 1573.77 -0.65255 1567.04C-4.38146 1558.56 -5.80192 1550.7 -6.89419 1544.66C-7.1035 1543.5 -7.30077 1542.41 -7.49992 1541.39C-7.69859 1542.41 -7.89538 1543.49 -8.10416 1544.65L-8.10443 1544.65L-8.10528 1544.66L-8.10564 1544.66C-9.19791 1550.7 -10.6184 1558.56 -14.3473 1567.04C-17.3095 1573.77 -21.1704 1579.61 -23.3071 1581.5C-26.2938 1580.04 -30.0088 1579.17 -30.0088 1579.17C-29.4451 1580.1 -28.6723 1581.27 -27.7384 1582.68C-25.3336 1586.33 -21.8604 1591.59 -18.1352 1598.5C-14.9787 1604.35 -10.0703 1614.26 -7.49992 1619.84ZM-7.49978 1593.48C-5.60583 1590.65 -1.77422 1587.29 0.14888 1585.78C-6.47996 1572.2 -7.42693 1560.35 -7.42693 1560.35C-7.42693 1560.35 -8.44675 1572.2 -15.0756 1585.78C-13.1525 1587.29 -9.39373 1590.65 -7.49978 1593.48ZM41.962 1494.97C48.6223 1494.77 59.6872 1494.06 65.8146 1493.49C62.2601 1498.5 56.1086 1507.7 52.6079 1513.35C48.4765 1520.02 45.6477 1525.65 43.6891 1529.55L43.6891 1529.55L43.689 1529.55C42.9284 1531.06 42.299 1532.32 41.7756 1533.27C41.7756 1533.27 40.673 1529.62 40.4394 1526.31C37.7303 1525.41 30.7315 1524.99 23.4053 1525.79C14.1827 1526.81 6.64851 1529.51 0.855034 1531.58C-0.255196 1531.98 -1.30151 1532.35 -2.28352 1532.69C-1.50085 1532.01 -0.652 1531.29 0.248711 1530.53C4.94881 1526.57 11.0611 1521.41 16.551 1513.96C20.9121 1508.03 24.0462 1501.78 24.6164 1498.99C21.8603 1497.13 19.2441 1494.36 19.2441 1494.36C20.3314 1494.38 21.7336 1494.47 23.4281 1494.57L23.4291 1494.57L23.4297 1494.57L23.4304 1494.57C27.7961 1494.82 34.1017 1495.2 41.962 1494.97ZM32.4198 1503.9C34.6941 1504.81 39.5257 1506.44 42.9333 1506.66C41.4216 1509.72 40.3893 1514.64 40.04 1517.06C24.9285 1518.12 14.1381 1523.15 14.1381 1523.15C14.1381 1523.15 23.9441 1516.42 32.4198 1503.9ZM65.8149 1577.51C62.2605 1572.5 56.109 1563.3 52.6083 1557.65C48.4769 1550.98 45.648 1545.35 43.6894 1541.45C42.9288 1539.94 42.2994 1538.68 41.7759 1537.73C41.7759 1537.73 40.6733 1541.38 40.4398 1544.69C37.7307 1545.59 30.7319 1546.01 23.4056 1545.21C14.1831 1544.19 6.64887 1541.49 0.855408 1539.42L0.855339 1539.42L0.85527 1539.42C-0.254929 1539.02 -1.30119 1538.65 -2.28316 1538.31C-1.5005 1538.99 -0.651665 1539.71 0.249046 1540.47C4.94916 1544.43 11.0615 1549.59 16.5514 1557.04C20.9125 1562.97 24.0465 1569.22 24.6167 1572.01C21.8607 1573.87 19.2445 1576.64 19.2445 1576.64C20.3323 1576.62 21.7352 1576.53 23.4307 1576.43C27.7964 1576.18 34.102 1575.8 41.9623 1576.03C48.6227 1576.23 59.6875 1576.94 65.8149 1577.51ZM42.9333 1564.34C41.4216 1561.28 40.4258 1556.3 40.0765 1553.88C24.965 1552.82 14.211 1547.72 14.211 1547.72C14.211 1547.72 23.9805 1554.52 32.4563 1567.04C34.7306 1566.13 39.5257 1564.56 42.9333 1564.34ZM-20.612 1513.33L-21.6318 1522.92L-8.22849 1535.2L-25.2741 1530.12L-33.0684 1535.57L-25.2741 1541.6L-8.22849 1535.86L-21.6318 1548.42L-20.612 1558.16L-11.5065 1554.02L-7.64574 1536.15L-3.56645 1554.02L5.61194 1558.16L6.63176 1548.42L-6.99014 1535.86L9.90975 1541.6L18.3597 1535.57L9.90975 1530.12L-6.99014 1535.2L5.61194 1522.92V1513.33L-3.56645 1517.33L-7.64574 1534.55L-11.5065 1517.33L-20.612 1513.33Z" fill="#87E7EB"/>
</g>
</g>
</g>
<defs>
<filter id="filter0_d_601_9387" x="-90.8149" y="-25.8418" width="166.63" height="188.684" filterUnits="userSpaceOnUse" color-interpolation-filters="sRGB">
<feFlood flood-opacity="0" result="BackgroundImageFix"/>
<feColorMatrix in="SourceAlpha" type="matrix" values="0 0 0 0 0 0 0 0 0 0 0 0 0 0 0 0 0 0 127 0" result="hardAlpha"/>
<feOffset dy="5"/>
<feGaussianBlur stdDeviation="5"/>
<feComposite in2="hardAlpha" operator="out"/>
<feColorMatrix type="matrix" values="0 0 0 0 0 0 0 0 0 0 0 0 0 0 0 0 0 0 0.1 0"/>
<feBlend mode="normal" in2="BackgroundImageFix" result="effect1_dropShadow_601_9387"/>
<feBlend mode="normal" in="SourceGraphic" in2="effect1_dropShadow_601_9387" result="shape"/>
</filter>
<filter id="filter1_d_601_9387" x="-90.8149" y="158.158" width="166.63" height="188.684" filterUnits="userSpaceOnUse" color-interpolation-filters="sRGB">
<feFlood flood-opacity="0" result="BackgroundImageFix"/>
<feColorMatrix in="SourceAlpha" type="matrix" values="0 0 0 0 0 0 0 0 0 0 0 0 0 0 0 0 0 0 127 0" result="hardAlpha"/>
<feOffset dy="5"/>
<feGaussianBlur stdDeviation="5"/>
<feComposite in2="hardAlpha" operator="out"/>
<feColorMatrix type="matrix" values="0 0 0 0 0 0 0 0 0 0 0 0 0 0 0 0 0 0 0.1 0"/>
<feBlend mode="normal" in2="BackgroundImageFix" result="effect1_dropShadow_601_9387"/>
<feBlend mode="normal" in="SourceGraphic" in2="effect1_dropShadow_601_9387" result="shape"/>
</filter>
<filter id="filter2_d_601_9387" x="-90.8149" y="342.158" width="166.63" height="188.684" filterUnits="userSpaceOnUse" color-interpolation-filters="sRGB">
<feFlood flood-opacity="0" result="BackgroundImageFix"/>
<feColorMatrix in="SourceAlpha" type="matrix" values="0 0 0 0 0 0 0 0 0 0 0 0 0 0 0 0 0 0 127 0" result="hardAlpha"/>
<feOffset dy="5"/>
<feGaussianBlur stdDeviation="5"/>
<feComposite in2="hardAlpha" operator="out"/>
<feColorMatrix type="matrix" values="0 0 0 0 0 0 0 0 0 0 0 0 0 0 0 0 0 0 0.1 0"/>
<feBlend mode="normal" in2="BackgroundImageFix" result="effect1_dropShadow_601_9387"/>
<feBlend mode="normal" in="SourceGraphic" in2="effect1_dropShadow_601_9387" result="shape"/>
</filter>
<filter id="filter3_d_601_9387" x="-90.8149" y="526.158" width="166.63" height="188.684" filterUnits="userSpaceOnUse" color-interpolation-filters="sRGB">
<feFlood flood-opacity="0" result="BackgroundImageFix"/>
<feColorMatrix in="SourceAlpha" type="matrix" values="0 0 0 0 0 0 0 0 0 0 0 0 0 0 0 0 0 0 127 0" result="hardAlpha"/>
<feOffset dy="5"/>
<feGaussianBlur stdDeviation="5"/>
<feComposite in2="hardAlpha" operator="out"/>
<feColorMatrix type="matrix" values="0 0 0 0 0 0 0 0 0 0 0 0 0 0 0 0 0 0 0.1 0"/>
<feBlend mode="normal" in2="BackgroundImageFix" result="effect1_dropShadow_601_9387"/>
<feBlend mode="normal" in="SourceGraphic" in2="effect1_dropShadow_601_9387" result="shape"/>
</filter>
<filter id="filter4_d_601_9387" x="-90.8149" y="710.158" width="166.63" height="188.684" filterUnits="userSpaceOnUse" color-interpolation-filters="sRGB">
<feFlood flood-opacity="0" result="BackgroundImageFix"/>
<feColorMatrix in="SourceAlpha" type="matrix" values="0 0 0 0 0 0 0 0 0 0 0 0 0 0 0 0 0 0 127 0" result="hardAlpha"/>
<feOffset dy="5"/>
<feGaussianBlur stdDeviation="5"/>
<feComposite in2="hardAlpha" operator="out"/>
<feColorMatrix type="matrix" values="0 0 0 0 0 0 0 0 0 0 0 0 0 0 0 0 0 0 0.1 0"/>
<feBlend mode="normal" in2="BackgroundImageFix" result="effect1_dropShadow_601_9387"/>
<feBlend mode="normal" in="SourceGraphic" in2="effect1_dropShadow_601_9387" result="shape"/>
</filter>
<filter id="filter5_d_601_9387" x="-90.8149" y="894.158" width="166.63" height="188.684" filterUnits="userSpaceOnUse" color-interpolation-filters="sRGB">
<feFlood flood-opacity="0" result="BackgroundImageFix"/>
<feColorMatrix in="SourceAlpha" type="matrix" values="0 0 0 0 0 0 0 0 0 0 0 0 0 0 0 0 0 0 127 0" result="hardAlpha"/>
<feOffset dy="5"/>
<feGaussianBlur stdDeviation="5"/>
<feComposite in2="hardAlpha" operator="out"/>
<feColorMatrix type="matrix" values="0 0 0 0 0 0 0 0 0 0 0 0 0 0 0 0 0 0 0.1 0"/>
<feBlend mode="normal" in2="BackgroundImageFix" result="effect1_dropShadow_601_9387"/>
<feBlend mode="normal" in="SourceGraphic" in2="effect1_dropShadow_601_9387" result="shape"/>
</filter>
<filter id="filter6_d_601_9387" x="-90.8149" y="1078.16" width="166.63" height="188.684" filterUnits="userSpaceOnUse" color-interpolation-filters="sRGB">
<feFlood flood-opacity="0" result="BackgroundImageFix"/>
<feColorMatrix in="SourceAlpha" type="matrix" values="0 0 0 0 0 0 0 0 0 0 0 0 0 0 0 0 0 0 127 0" result="hardAlpha"/>
<feOffset dy="5"/>
<feGaussianBlur stdDeviation="5"/>
<feComposite in2="hardAlpha" operator="out"/>
<feColorMatrix type="matrix" values="0 0 0 0 0 0 0 0 0 0 0 0 0 0 0 0 0 0 0.1 0"/>
<feBlend mode="normal" in2="BackgroundImageFix" result="effect1_dropShadow_601_9387"/>
<feBlend mode="normal" in="SourceGraphic" in2="effect1_dropShadow_601_9387" result="shape"/>
</filter>
<filter id="filter7_d_601_9387" x="-90.8149" y="1262.16" width="166.63" height="188.684" filterUnits="userSpaceOnUse" color-interpolation-filters="sRGB">
<feFlood flood-opacity="0" result="BackgroundImageFix"/>
<feColorMatrix in="SourceAlpha" type="matrix" values="0 0 0 0 0 0 0 0 0 0 0 0 0 0 0 0 0 0 127 0" result="hardAlpha"/>
<feOffset dy="5"/>
<feGaussianBlur stdDeviation="5"/>
<feComposite in2="hardAlpha" operator="out"/>
<feColorMatrix type="matrix" values="0 0 0 0 0 0 0 0 0 0 0 0 0 0 0 0 0 0 0.1 0"/>
<feBlend mode="normal" in2="BackgroundImageFix" result="effect1_dropShadow_601_9387"/>
<feBlend mode="normal" in="SourceGraphic" in2="effect1_dropShadow_601_9387" result="shape"/>
</filter>
<filter id="filter8_d_601_9387" x="-90.8149" y="1446.16" width="166.63" height="188.684" filterUnits="userSpaceOnUse" color-interpolation-filters="sRGB">
<feFlood flood-opacity="0" result="BackgroundImageFix"/>
<feColorMatrix in="SourceAlpha" type="matrix" values="0 0 0 0 0 0 0 0 0 0 0 0 0 0 0 0 0 0 127 0" result="hardAlpha"/>
<feOffset dy="5"/>
<feGaussianBlur stdDeviation="5"/>
<feComposite in2="hardAlpha" operator="out"/>
<feColorMatrix type="matrix" values="0 0 0 0 0 0 0 0 0 0 0 0 0 0 0 0 0 0 0.1 0"/>
<feBlend mode="normal" in2="BackgroundImageFix" result="effect1_dropShadow_601_9387"/>
<feBlend mode="normal" in="SourceGraphic" in2="effect1_dropShadow_601_9387" result="shape"/>
</filter>
</defs>
</svg>
