<svg width="17" height="336" viewBox="0 0 17 336" fill="none" xmlns="http://www.w3.org/2000/svg">
<g opacity="0.15">
<mask id="mask0_1230_10704" style="mask-type:alpha" maskUnits="userSpaceOnUse" x="0" y="0" width="17" height="336">
<rect x="17" y="336" width="16.8" height="336" transform="rotate(180 17 336)" fill="#C4C4C4"/>
</mask>
<g mask="url(#mask0_1230_10704)">
<g filter="url(#filter0_d_1230_10704)">
<path fill-rule="evenodd" clip-rule="evenodd" d="M18.5749 301.736C19.1147 300.565 20.1455 298.483 20.8083 297.254C21.5906 295.803 22.32 294.698 22.825 293.933L22.825 293.933C23.0211 293.636 23.1834 293.39 23.3018 293.195C23.3018 293.195 22.5216 293.378 21.8945 293.684C21.4457 293.287 20.635 292.061 20.0129 290.647C19.2298 288.868 18.9315 287.217 18.7021 285.948L18.7021 285.948L18.7021 285.948L18.7021 285.948L18.7021 285.948C18.6582 285.705 18.6168 285.475 18.5749 285.262C18.5331 285.475 18.4917 285.705 18.4477 285.948C18.2184 287.217 17.9201 288.868 17.137 290.647C16.5149 292.061 15.7041 293.287 15.2554 293.684C14.6282 293.378 13.8481 293.195 13.8481 293.195C13.9665 293.39 14.1287 293.636 14.3249 293.933C14.8299 294.698 15.5592 295.803 16.3415 297.254C17.0044 298.483 18.0352 300.565 18.5749 301.736ZM18.5749 296.201C18.9727 295.606 19.7773 294.901 20.1812 294.584C18.7891 291.731 18.5902 289.244 18.5902 289.244C18.5902 289.244 18.3761 291.731 16.984 294.584C17.3879 294.901 18.1772 295.606 18.5749 296.201ZM33.9711 275.202C32.6843 275.321 30.3607 275.471 28.962 275.512C27.3113 275.561 25.9872 275.482 25.0704 275.428C24.7143 275.407 24.4197 275.39 24.1913 275.385C24.1913 275.385 24.7407 275.967 25.3194 276.357C25.1997 276.943 24.5415 278.256 23.6257 279.5C22.4728 281.066 21.1893 282.149 20.2022 282.981L20.202 282.982L20.2018 282.982C20.0128 283.141 19.8347 283.291 19.6705 283.434C19.8767 283.364 20.0964 283.285 20.3295 283.201L20.3296 283.201C21.5462 282.765 23.1284 282.198 25.0651 281.986C26.6036 281.817 28.0734 281.906 28.6423 282.095C28.6913 282.79 28.9229 283.556 28.9229 283.556C29.0328 283.356 29.165 283.093 29.3247 282.775C29.736 281.956 30.3301 280.774 31.1977 279.373C31.9328 278.186 33.2246 276.254 33.9711 275.202ZM29.1659 277.968C28.4503 277.922 27.4357 277.579 26.9581 277.388C25.1782 280.017 23.1189 281.432 23.1189 281.432C23.1189 281.432 25.3849 280.374 28.5583 280.152C28.6317 279.644 28.8485 278.61 29.1659 277.968ZM31.1976 288.676C31.9328 289.863 33.2246 291.795 33.971 292.846C32.6843 292.728 30.3607 292.578 28.962 292.537C27.3113 292.488 25.9871 292.566 25.0703 292.621L25.0703 292.621C24.7142 292.642 24.4197 292.659 24.1912 292.664C24.1912 292.664 24.7406 292.081 25.3194 291.692C25.1997 291.106 24.5415 289.792 23.6257 288.548C22.4728 286.982 21.1892 285.9 20.2022 285.067L20.202 285.067L20.201 285.066C20.0123 284.907 19.8344 284.757 19.6704 284.615C19.8763 284.685 20.0955 284.764 20.3282 284.847L20.3283 284.847L20.3283 284.847L20.3286 284.847L20.3291 284.847L20.3295 284.847C21.5461 285.283 23.1283 285.85 25.0651 286.063C26.6036 286.232 28.0733 286.143 28.6422 285.954C28.6913 285.259 28.9228 284.493 28.9228 284.493C29.0328 284.693 29.1649 284.956 29.3247 285.274L29.3247 285.274C29.736 286.093 30.33 287.275 31.1976 288.676ZM28.5659 287.884C28.6392 288.391 28.8484 289.439 29.1658 290.08C28.4502 290.127 27.4433 290.457 26.9656 290.647C25.1857 288.018 23.1341 286.59 23.1341 286.59C23.1341 286.59 25.3925 287.661 28.5659 287.884ZM18.5749 266.313C18.0351 267.484 17.0043 269.566 16.3415 270.795C15.5592 272.246 14.8298 273.351 14.3248 274.116L14.3247 274.116L14.3246 274.116L14.3244 274.117C14.1284 274.413 13.9663 274.659 13.848 274.854C13.848 274.854 14.6282 274.671 15.2554 274.366C15.7041 274.762 16.5149 275.988 17.1369 277.402C17.92 279.181 18.2183 280.832 18.4477 282.101L18.4477 282.101L18.4477 282.101L18.4477 282.101L18.4477 282.101C18.4916 282.345 18.5331 282.574 18.5749 282.787C18.6167 282.574 18.6581 282.344 18.7021 282.101C18.9315 280.832 19.2298 279.181 20.0128 277.402C20.6349 275.988 21.4457 274.762 21.8944 274.366C22.5216 274.671 23.3018 274.854 23.3018 274.854C23.1834 274.659 23.0211 274.413 22.825 274.116C22.32 273.351 21.5906 272.246 20.8083 270.795C20.1454 269.566 19.1147 267.484 18.5749 266.313ZM18.5748 271.848C18.1771 272.443 17.3725 273.148 16.9686 273.466C18.3607 276.319 18.5595 278.805 18.5595 278.805C18.5595 278.805 18.7737 276.319 20.1658 273.466C19.7619 273.148 18.9726 272.443 18.5748 271.848ZM8.18783 292.536C6.78916 292.578 4.46554 292.727 3.17879 292.846C3.92521 291.794 5.21704 289.863 5.95219 288.676C6.81978 287.275 7.41384 286.092 7.82514 285.274C7.98488 284.956 8.11705 284.693 8.22697 284.493C8.22697 284.493 8.45852 285.259 8.50757 285.953C9.07648 286.143 10.5462 286.231 12.0847 286.062C14.0215 285.85 15.6037 285.283 16.8203 284.847C17.0534 284.763 17.2732 284.685 17.4794 284.614C17.315 284.757 17.1368 284.907 16.9476 285.067C15.9606 285.899 14.677 286.982 13.5241 288.548C12.6083 289.792 11.9502 291.105 11.8304 291.691C12.4092 292.081 12.9586 292.664 12.9586 292.664C12.7301 292.659 12.4355 292.641 12.0795 292.62C11.1627 292.566 9.8385 292.488 8.18783 292.536ZM10.1917 290.66C9.71408 290.47 8.69946 290.126 7.98386 290.08C8.30131 289.439 8.5181 288.404 8.59144 287.897C11.7649 287.674 14.0309 286.617 14.0309 286.617C14.0309 286.617 11.9716 288.031 10.1917 290.66ZM3.1787 275.203C3.92513 276.255 5.21696 278.186 5.9521 279.373C6.81968 280.774 7.41374 281.957 7.82504 282.775L7.82506 282.775C7.98479 283.093 8.11697 283.357 8.22689 283.556C8.22689 283.556 8.45844 282.79 8.50748 282.096C9.0764 281.906 10.5461 281.818 12.0847 281.987C14.0214 282.199 15.6036 282.766 16.8202 283.202L16.8203 283.202C17.0534 283.286 17.2731 283.364 17.4793 283.435C17.315 283.292 17.1367 283.142 16.9475 282.982C15.9605 282.15 14.6769 281.067 13.5241 279.501C12.6082 278.257 11.9501 276.944 11.8303 276.358C12.4091 275.968 12.9585 275.385 12.9585 275.385C12.7301 275.39 12.4355 275.408 12.0794 275.429C11.1626 275.483 9.83842 275.561 8.18775 275.513C6.78908 275.471 4.46546 275.322 3.1787 275.203ZM7.98393 277.969C8.30138 278.61 8.51052 279.658 8.58386 280.166C11.7573 280.388 14.0156 281.459 14.0156 281.459C14.0156 281.459 11.964 280.031 10.1841 277.402C9.7065 277.593 8.69953 277.923 7.98393 277.969ZM21.3284 288.679L21.5426 286.666L18.7279 284.087L22.3075 285.155L23.9443 284.011L22.3075 282.745L18.7279 283.95L21.5426 281.31L21.3284 279.266L19.4163 280.136L18.6055 283.889L17.7489 280.136L15.8214 279.266L15.6072 281.31L18.4678 283.95L14.9189 282.745L13.1444 284.011L14.9189 285.155L18.4678 284.087L15.8214 286.666V288.679L17.7489 287.84L18.6055 284.224L19.4163 287.84L21.3284 288.679Z" fill="#87E7EB"/>
</g>
<g filter="url(#filter1_d_1230_10704)">
<path fill-rule="evenodd" clip-rule="evenodd" d="M18.5749 263.097C19.1147 261.926 20.1455 259.843 20.8083 258.614C21.5906 257.163 22.32 256.058 22.825 255.294L22.825 255.293C23.0211 254.996 23.1834 254.751 23.3018 254.556C23.3018 254.556 22.5216 254.739 21.8945 255.044C21.4457 254.647 20.635 253.422 20.0129 252.008C19.2298 250.228 18.9315 248.577 18.7021 247.308L18.7021 247.308L18.7021 247.308L18.7021 247.308L18.7021 247.308C18.6582 247.065 18.6168 246.836 18.5749 246.622C18.5331 246.836 18.4917 247.065 18.4477 247.308C18.2184 248.577 17.9201 250.228 17.137 252.008C16.5149 253.422 15.7041 254.647 15.2554 255.044C14.6282 254.739 13.8481 254.556 13.8481 254.556C13.9665 254.751 14.1287 254.996 14.3249 255.293C14.8299 256.058 15.5592 257.163 16.3415 258.614C17.0044 259.843 18.0352 261.926 18.5749 263.097ZM18.5749 257.561C18.9727 256.966 19.7773 256.261 20.1812 255.944C18.7891 253.091 18.5902 250.604 18.5902 250.604C18.5902 250.604 18.3761 253.091 16.984 255.944C17.3879 256.261 18.1772 256.966 18.5749 257.561ZM33.9711 236.563C32.6843 236.681 30.3607 236.831 28.962 236.872C27.3113 236.921 25.9872 236.843 25.0704 236.788C24.7143 236.767 24.4197 236.75 24.1913 236.745C24.1913 236.745 24.7407 237.328 25.3194 237.717C25.1997 238.303 24.5415 239.617 23.6257 240.861C22.4728 242.427 21.1893 243.509 20.2022 244.342L20.202 244.342L20.2018 244.342C20.0128 244.502 19.8347 244.652 19.6705 244.795C19.8767 244.724 20.0964 244.645 20.3295 244.562L20.3296 244.562C21.5462 244.126 23.1284 243.559 25.0651 243.346C26.6036 243.178 28.0734 243.266 28.6423 243.456C28.6913 244.15 28.9229 244.916 28.9229 244.916C29.0328 244.716 29.165 244.453 29.3247 244.135C29.736 243.316 30.3301 242.134 31.1977 240.733C31.9328 239.546 33.2246 237.614 33.9711 236.563ZM29.1659 239.329C28.4503 239.282 27.4357 238.939 26.9581 238.749C25.1782 241.377 23.1189 242.792 23.1189 242.792C23.1189 242.792 25.3849 241.734 28.5583 241.512C28.6317 241.004 28.8485 239.97 29.1659 239.329ZM31.1976 250.036C31.9328 251.224 33.2246 253.155 33.971 254.207C32.6843 254.088 30.3607 253.938 28.962 253.897C27.3113 253.848 25.9871 253.927 25.0703 253.981L25.0703 253.981C24.7142 254.002 24.4197 254.02 24.1912 254.024C24.1912 254.024 24.7406 253.442 25.3194 253.052C25.1997 252.466 24.5415 251.153 23.6257 249.909C22.4728 248.343 21.1892 247.26 20.2022 246.428L20.202 246.427L20.201 246.427C20.0123 246.267 19.8344 246.117 19.6704 245.975C19.8763 246.045 20.0955 246.124 20.3282 246.207L20.3283 246.207L20.3283 246.207L20.3286 246.207L20.3291 246.208L20.3295 246.208C21.5461 246.644 23.1283 247.211 25.0651 247.423C26.6036 247.592 28.0733 247.504 28.6422 247.314C28.6913 246.619 28.9228 245.854 28.9228 245.854C29.0328 246.053 29.1649 246.316 29.3247 246.634L29.3247 246.634C29.736 247.453 30.33 248.636 31.1976 250.036ZM28.5659 249.244C28.6392 249.752 28.8484 250.799 29.1658 251.44C28.4502 251.487 27.4433 251.817 26.9656 252.008C25.1857 249.379 23.1341 247.951 23.1341 247.951C23.1341 247.951 25.3925 249.022 28.5659 249.244ZM18.5749 227.673C18.0351 228.844 17.0043 230.927 16.3415 232.156C15.5592 233.606 14.8298 234.711 14.3248 235.476L14.3247 235.476L14.3246 235.477L14.3244 235.477C14.1284 235.774 13.9663 236.019 13.848 236.214C13.848 236.214 14.6282 236.031 15.2554 235.726C15.7041 236.123 16.5149 237.348 17.1369 238.762C17.92 240.542 18.2183 242.192 18.4477 243.462L18.4477 243.462L18.4477 243.462L18.4477 243.462L18.4477 243.462C18.4916 243.705 18.5331 243.934 18.5749 244.148C18.6167 243.934 18.6581 243.705 18.7021 243.462C18.9315 242.192 19.2298 240.542 20.0128 238.762C20.6349 237.348 21.4457 236.123 21.8944 235.726C22.5216 236.031 23.3018 236.214 23.3018 236.214C23.1834 236.019 23.0211 235.773 22.825 235.476C22.32 234.711 21.5906 233.606 20.8083 232.156C20.1454 230.927 19.1147 228.844 18.5749 227.673ZM18.5748 233.209C18.1771 233.804 17.3725 234.509 16.9686 234.826C18.3607 237.679 18.5595 240.166 18.5595 240.166C18.5595 240.166 18.7737 237.679 20.1658 234.826C19.7619 234.509 18.9726 233.804 18.5748 233.209ZM8.18783 253.897C6.78916 253.938 4.46554 254.088 3.17879 254.206C3.92521 253.155 5.21704 251.223 5.95219 250.036C6.81978 248.635 7.41384 247.453 7.82514 246.634C7.98488 246.316 8.11705 246.053 8.22697 245.853C8.22697 245.853 8.45852 246.619 8.50757 247.313C9.07648 247.503 10.5462 247.591 12.0847 247.423C14.0215 247.21 15.6037 246.643 16.8203 246.207C17.0534 246.124 17.2732 246.045 17.4794 245.974C17.315 246.117 17.1368 246.268 16.9476 246.427C15.9606 247.26 14.677 248.342 13.5241 249.908C12.6083 251.152 11.9502 252.466 11.8304 253.052C12.4092 253.441 12.9586 254.024 12.9586 254.024C12.7301 254.019 12.4355 254.002 12.0795 253.981C11.1627 253.926 9.8385 253.848 8.18783 253.897ZM10.1917 252.02C9.71408 251.83 8.69946 251.487 7.98386 251.44C8.30131 250.799 8.5181 249.765 8.59144 249.257C11.7649 249.035 14.0309 247.977 14.0309 247.977C14.0309 247.977 11.9716 249.392 10.1917 252.02ZM3.1787 236.563C3.92513 237.615 5.21696 239.547 5.9521 240.734C6.81968 242.135 7.41374 243.317 7.82504 244.136L7.82506 244.136C7.98479 244.454 8.11697 244.717 8.22689 244.917C8.22689 244.917 8.45844 244.151 8.50748 243.456C9.0764 243.267 10.5461 243.178 12.0847 243.347C14.0214 243.559 15.6036 244.126 16.8202 244.562L16.8203 244.562C17.0534 244.646 17.2731 244.725 17.4793 244.795C17.315 244.652 17.1367 244.502 16.9475 244.343C15.9605 243.51 14.6769 242.427 13.5241 240.861C12.6082 239.617 11.9501 238.304 11.8303 237.718C12.4091 237.329 12.9585 236.746 12.9585 236.746C12.7301 236.751 12.4355 236.768 12.0794 236.789C11.1626 236.843 9.83842 236.922 8.18775 236.873C6.78908 236.832 4.46546 236.682 3.1787 236.563ZM7.98393 239.329C8.30138 239.971 8.51052 241.018 8.58386 241.526C11.7573 241.748 14.0156 242.819 14.0156 242.819C14.0156 242.819 11.964 241.391 10.1841 238.762C9.7065 238.953 8.69953 239.283 7.98393 239.329ZM21.3284 250.04L21.5426 248.026L18.7279 245.448L22.3075 246.515L23.9443 245.371L22.3075 244.105L18.7279 245.31L21.5426 242.671L21.3284 240.626L19.4163 241.496L18.6055 245.249L17.7489 241.496L15.8214 240.626L15.6072 242.671L18.4678 245.31L14.9189 244.105L13.1444 245.371L14.9189 246.515L18.4678 245.448L15.8214 248.026V250.04L17.7489 249.201L18.6055 245.585L19.4163 249.201L21.3284 250.04Z" fill="#87E7EB"/>
</g>
<g filter="url(#filter2_d_1230_10704)">
<path fill-rule="evenodd" clip-rule="evenodd" d="M18.5749 224.457C19.1147 223.286 20.1455 221.203 20.8083 219.974C21.5906 218.524 22.32 217.419 22.825 216.654L22.825 216.654C23.0211 216.357 23.1834 216.111 23.3018 215.916C23.3018 215.916 22.5216 216.099 21.8945 216.404C21.4457 216.008 20.635 214.782 20.0129 213.368C19.2298 211.589 18.9315 209.938 18.7021 208.669L18.7021 208.668L18.7021 208.668L18.7021 208.668L18.7021 208.668C18.6582 208.425 18.6168 208.196 18.5749 207.983C18.5331 208.196 18.4917 208.425 18.4477 208.669C18.2184 209.938 17.9201 211.589 17.137 213.368C16.5149 214.782 15.7041 216.008 15.2554 216.404C14.6282 216.099 13.8481 215.916 13.8481 215.916C13.9665 216.111 14.1287 216.357 14.3249 216.654C14.8299 217.419 15.5592 218.524 16.3415 219.974C17.0044 221.203 18.0352 223.286 18.5749 224.457ZM18.5749 218.922C18.9727 218.327 19.7773 217.622 20.1812 217.304C18.7891 214.451 18.5902 211.965 18.5902 211.965C18.5902 211.965 18.3761 214.451 16.984 217.304C17.3879 217.622 18.1772 218.327 18.5749 218.922ZM33.9711 197.923C32.6843 198.042 30.3607 198.191 28.962 198.233C27.3113 198.281 25.9872 198.203 25.0704 198.149C24.7143 198.128 24.4197 198.11 24.1913 198.105C24.1913 198.105 24.7407 198.688 25.3194 199.078C25.1997 199.664 24.5415 200.977 23.6257 202.221C22.4728 203.787 21.1893 204.87 20.2022 205.702L20.202 205.702L20.2018 205.703C20.0128 205.862 19.8347 206.012 19.6705 206.155C19.8767 206.084 20.0964 206.006 20.3295 205.922L20.3296 205.922C21.5462 205.486 23.1284 204.919 25.0651 204.707C26.6036 204.538 28.0734 204.626 28.6423 204.816C28.6913 205.51 28.9229 206.276 28.9229 206.276C29.0328 206.077 29.165 205.813 29.3247 205.495C29.736 204.677 30.3301 203.494 31.1977 202.093C31.9328 200.906 33.2246 198.975 33.9711 197.923ZM29.1659 200.689C28.4503 200.643 27.4357 200.299 26.9581 200.109C25.1782 202.738 23.1189 204.152 23.1189 204.152C23.1189 204.152 25.3849 203.095 28.5583 202.872C28.6317 202.365 28.8485 201.33 29.1659 200.689ZM31.1976 211.397C31.9328 212.584 33.2246 214.515 33.971 215.567C32.6843 215.448 30.3607 215.299 28.962 215.257C27.3113 215.209 25.9871 215.287 25.0703 215.341L25.0703 215.341C24.7142 215.362 24.4197 215.38 24.1912 215.385C24.1912 215.385 24.7406 214.802 25.3194 214.412C25.1997 213.826 24.5415 212.513 23.6257 211.269C22.4728 209.703 21.1892 208.62 20.2022 207.788L20.202 207.788L20.201 207.787C20.0123 207.628 19.8344 207.478 19.6704 207.335C19.8763 207.406 20.0955 207.484 20.3282 207.568L20.3283 207.568L20.3283 207.568L20.3286 207.568L20.3291 207.568L20.3295 207.568C21.5461 208.004 23.1283 208.571 25.0651 208.783C26.6036 208.952 28.0733 208.864 28.6422 208.674C28.6913 207.98 28.9228 207.214 28.9228 207.214C29.0328 207.414 29.1649 207.677 29.3247 207.995L29.3247 207.995C29.736 208.813 30.33 209.996 31.1976 211.397ZM28.5659 210.604C28.6392 211.112 28.8484 212.16 29.1658 212.801C28.4502 212.847 27.4433 213.177 26.9656 213.368C25.1857 210.739 23.1341 209.311 23.1341 209.311C23.1341 209.311 25.3925 210.382 28.5659 210.604ZM18.5749 189.033C18.0351 190.205 17.0043 192.287 16.3415 193.516C15.5592 194.967 14.8298 196.072 14.3248 196.837L14.3247 196.837L14.3246 196.837L14.3244 196.837C14.1284 197.134 13.9663 197.38 13.848 197.574C13.848 197.574 14.6282 197.391 15.2554 197.086C15.7041 197.483 16.5149 198.709 17.1369 200.122C17.92 201.902 18.2183 203.553 18.4477 204.822L18.4477 204.822L18.4477 204.822L18.4477 204.822L18.4477 204.822C18.4916 205.065 18.5331 205.294 18.5749 205.508C18.6167 205.294 18.6581 205.065 18.7021 204.822C18.9315 203.553 19.2298 201.902 20.0128 200.122C20.6349 198.709 21.4457 197.483 21.8944 197.086C22.5216 197.391 23.3018 197.574 23.3018 197.574C23.1834 197.38 23.0211 197.134 22.825 196.837C22.32 196.072 21.5906 194.967 20.8083 193.516C20.1454 192.287 19.1147 190.205 18.5749 189.033ZM18.5748 194.569C18.1771 195.164 17.3725 195.869 16.9686 196.186C18.3607 199.039 18.5595 201.526 18.5595 201.526C18.5595 201.526 18.7737 199.039 20.1658 196.186C19.7619 195.869 18.9726 195.164 18.5748 194.569ZM8.18783 215.257C6.78916 215.298 4.46554 215.448 3.17879 215.567C3.92521 214.515 5.21704 212.583 5.95219 211.396C6.81978 209.995 7.41384 208.813 7.82514 207.994C7.98488 207.676 8.11705 207.413 8.22697 207.214C8.22697 207.214 8.45852 207.979 8.50757 208.674C9.07648 208.863 10.5462 208.952 12.0847 208.783C14.0215 208.571 15.6037 208.004 16.8203 207.568C17.0534 207.484 17.2732 207.405 17.4794 207.335C17.315 207.478 17.1368 207.628 16.9476 207.788C15.9606 208.62 14.677 209.703 13.5241 211.269C12.6083 212.513 11.9502 213.826 11.8304 214.412C12.4092 214.802 12.9586 215.384 12.9586 215.384C12.7301 215.379 12.4355 215.362 12.0795 215.341C11.1627 215.287 9.8385 215.208 8.18783 215.257ZM10.1917 213.381C9.71408 213.19 8.69946 212.847 7.98386 212.801C8.30131 212.159 8.5181 211.125 8.59144 210.617C11.7649 210.395 14.0309 209.337 14.0309 209.337C14.0309 209.337 11.9716 210.752 10.1917 213.381ZM3.1787 197.924C3.92513 198.976 5.21696 200.907 5.9521 202.094C6.81968 203.495 7.41374 204.677 7.82504 205.496L7.82506 205.496C7.98479 205.814 8.11697 206.077 8.22689 206.277C8.22689 206.277 8.45844 205.511 8.50748 204.817C9.0764 204.627 10.5461 204.539 12.0847 204.707C14.0214 204.92 15.6036 205.487 16.8202 205.923L16.8203 205.923C17.0534 206.006 17.2731 206.085 17.4793 206.156C17.315 206.013 17.1367 205.862 16.9475 205.703C15.9605 204.87 14.6769 203.788 13.5241 202.222C12.6082 200.978 11.9501 199.665 11.8303 199.078C12.4091 198.689 12.9585 198.106 12.9585 198.106C12.7301 198.111 12.4355 198.128 12.0794 198.149C11.1626 198.204 9.83842 198.282 8.18775 198.233C6.78908 198.192 4.46546 198.042 3.1787 197.924ZM7.98393 200.69C8.30138 201.331 8.51052 202.379 8.58386 202.886C11.7573 203.109 14.0156 204.18 14.0156 204.18C14.0156 204.18 11.964 202.752 10.1841 200.123C9.7065 200.313 8.69953 200.643 7.98393 200.69ZM21.3284 211.4L21.5426 209.386L18.7279 206.808L22.3075 207.876L23.9443 206.732L22.3075 205.465L18.7279 206.671L21.5426 204.031L21.3284 201.987L19.4163 202.856L18.6055 206.61L17.7489 202.856L15.8214 201.987L15.6072 204.031L18.4678 206.671L14.9189 205.465L13.1444 206.732L14.9189 207.876L18.4678 206.808L15.8214 209.386V211.4L17.7489 210.561L18.6055 206.945L19.4163 210.561L21.3284 211.4Z" fill="#87E7EB"/>
</g>
<g filter="url(#filter3_d_1230_10704)">
<path fill-rule="evenodd" clip-rule="evenodd" d="M18.5749 185.816C19.1147 184.645 20.1455 182.563 20.8083 181.334C21.5906 179.883 22.32 178.778 22.825 178.013L22.825 178.013C23.0211 177.716 23.1834 177.47 23.3018 177.275C23.3018 177.275 22.5216 177.458 21.8945 177.764C21.4457 177.367 20.635 176.141 20.0129 174.728C19.2298 172.948 18.9315 171.297 18.7021 170.028L18.7021 170.028L18.7021 170.028L18.7021 170.028L18.7021 170.028C18.6582 169.785 18.6168 169.555 18.5749 169.342C18.5331 169.555 18.4917 169.785 18.4477 170.028C18.2184 171.297 17.9201 172.948 17.137 174.728C16.5149 176.141 15.7041 177.367 15.2554 177.764C14.6282 177.458 13.8481 177.275 13.8481 177.275C13.9665 177.47 14.1287 177.716 14.3249 178.013C14.8299 178.778 15.5592 179.883 16.3415 181.334C17.0044 182.563 18.0352 184.645 18.5749 185.816ZM18.5749 180.281C18.9727 179.686 19.7773 178.981 20.1812 178.664C18.7891 175.811 18.5902 173.324 18.5902 173.324C18.5902 173.324 18.3761 175.811 16.984 178.664C17.3879 178.981 18.1772 179.686 18.5749 180.281ZM33.9711 159.282C32.6843 159.401 30.3607 159.551 28.962 159.592C27.3113 159.641 25.9872 159.562 25.0704 159.508C24.7143 159.487 24.4197 159.47 24.1913 159.465C24.1913 159.465 24.7407 160.048 25.3194 160.437C25.1997 161.023 24.5415 162.336 23.6257 163.58C22.4728 165.146 21.1893 166.229 20.2022 167.062L20.202 167.062L20.2018 167.062C20.0128 167.221 19.8347 167.372 19.6705 167.514C19.8767 167.444 20.0964 167.365 20.3295 167.281L20.3296 167.281C21.5462 166.845 23.1284 166.278 25.0651 166.066C26.6036 165.897 28.0734 165.986 28.6423 166.175C28.6913 166.87 28.9229 167.636 28.9229 167.636C29.0328 167.436 29.165 167.173 29.3247 166.855C29.736 166.036 30.3301 164.854 31.1977 163.453C31.9328 162.266 33.2246 160.334 33.9711 159.282ZM29.1659 162.048C28.4503 162.002 27.4357 161.659 26.9581 161.468C25.1782 164.097 23.1189 165.512 23.1189 165.512C23.1189 165.512 25.3849 164.454 28.5583 164.232C28.6317 163.724 28.8485 162.69 29.1659 162.048ZM31.1976 172.756C31.9328 173.943 33.2246 175.875 33.971 176.926C32.6843 176.808 30.3607 176.658 28.962 176.617C27.3113 176.568 25.9871 176.647 25.0703 176.701L25.0703 176.701C24.7142 176.722 24.4197 176.739 24.1912 176.744C24.1912 176.744 24.7406 176.161 25.3194 175.772C25.1997 175.186 24.5415 173.873 23.6257 172.628C22.4728 171.062 21.1892 169.98 20.2022 169.147L20.202 169.147L20.201 169.146C20.0123 168.987 19.8344 168.837 19.6704 168.695C19.8763 168.765 20.0955 168.844 20.3282 168.927L20.3283 168.927L20.3283 168.927L20.3286 168.927L20.3291 168.927L20.3295 168.927C21.5461 169.363 23.1283 169.93 25.0651 170.143C26.6036 170.312 28.0733 170.223 28.6422 170.034C28.6913 169.339 28.9228 168.573 28.9228 168.573C29.0328 168.773 29.1649 169.036 29.3247 169.354L29.3247 169.354C29.736 170.173 30.33 171.355 31.1976 172.756ZM28.5659 171.964C28.6392 172.471 28.8484 173.519 29.1658 174.16C28.4502 174.207 27.4433 174.537 26.9656 174.727C25.1857 172.098 23.1341 170.671 23.1341 170.671C23.1341 170.671 25.3925 171.741 28.5659 171.964ZM18.5749 150.393C18.0351 151.564 17.0043 153.646 16.3415 154.876C15.5592 156.326 14.8298 157.431 14.3248 158.196L14.3247 158.196L14.3246 158.196L14.3244 158.197C14.1284 158.493 13.9663 158.739 13.848 158.934C13.848 158.934 14.6282 158.751 15.2554 158.446C15.7041 158.842 16.5149 160.068 17.1369 161.482C17.92 163.261 18.2183 164.912 18.4477 166.181L18.4477 166.181L18.4477 166.181L18.4477 166.181L18.4477 166.181C18.4916 166.425 18.5331 166.654 18.5749 166.867C18.6167 166.654 18.6581 166.425 18.7021 166.181C18.9315 164.912 19.2298 163.261 20.0128 161.482C20.6349 160.068 21.4457 158.842 21.8944 158.446C22.5216 158.751 23.3018 158.934 23.3018 158.934C23.1834 158.739 23.0211 158.493 22.825 158.196C22.32 157.431 21.5906 156.326 20.8083 154.876C20.1454 153.646 19.1147 151.564 18.5749 150.393ZM18.5748 155.929C18.1771 156.524 17.3725 157.228 16.9686 157.546C18.3607 160.399 18.5595 162.886 18.5595 162.886C18.5595 162.886 18.7737 160.399 20.1658 157.546C19.7619 157.228 18.9726 156.524 18.5748 155.929ZM8.18783 176.616C6.78916 176.658 4.46554 176.807 3.17879 176.926C3.92521 175.874 5.21704 173.943 5.95219 172.756C6.81978 171.355 7.41384 170.172 7.82514 169.354C7.98488 169.036 8.11705 168.773 8.22697 168.573C8.22697 168.573 8.45852 169.339 8.50757 170.033C9.07648 170.223 10.5462 170.311 12.0847 170.142C14.0215 169.93 15.6037 169.363 16.8203 168.927C17.0534 168.843 17.2732 168.765 17.4794 168.694C17.315 168.837 17.1368 168.987 16.9476 169.147C15.9606 169.979 14.677 171.062 13.5241 172.628C12.6083 173.872 11.9502 175.185 11.8304 175.771C12.4092 176.161 12.9586 176.744 12.9586 176.744C12.7301 176.739 12.4355 176.721 12.0795 176.7C11.1627 176.646 9.8385 176.568 8.18783 176.616ZM10.1917 174.74C9.71408 174.55 8.69946 174.206 7.98386 174.16C8.30131 173.519 8.5181 172.484 8.59144 171.977C11.7649 171.754 14.0309 170.697 14.0309 170.697C14.0309 170.697 11.9716 172.111 10.1917 174.74ZM3.1787 159.283C3.92513 160.335 5.21696 162.266 5.9521 163.453C6.81968 164.854 7.41374 166.037 7.82504 166.855L7.82506 166.856C7.98479 167.174 8.11697 167.437 8.22689 167.636C8.22689 167.636 8.45844 166.871 8.50748 166.176C9.0764 165.986 10.5461 165.898 12.0847 166.067C14.0214 166.279 15.6036 166.846 16.8202 167.282L16.8203 167.282C17.0534 167.366 17.2731 167.444 17.4793 167.515C17.315 167.372 17.1367 167.222 16.9475 167.062C15.9605 166.23 14.6769 165.147 13.5241 163.581C12.6082 162.337 11.9501 161.024 11.8303 160.438C12.4091 160.048 12.9585 159.465 12.9585 159.465C12.7301 159.47 12.4355 159.488 12.0794 159.509C11.1626 159.563 9.83842 159.641 8.18775 159.593C6.78908 159.552 4.46546 159.402 3.1787 159.283ZM7.98393 162.049C8.30138 162.69 8.51052 163.738 8.58386 164.246C11.7573 164.468 14.0156 165.539 14.0156 165.539C14.0156 165.539 11.964 164.111 10.1841 161.482C9.7065 161.673 8.69953 162.003 7.98393 162.049ZM21.3284 172.759L21.5426 170.746L18.7279 168.167L22.3075 169.235L23.9443 168.091L22.3075 166.825L18.7279 168.03L21.5426 165.391L21.3284 163.346L19.4163 164.216L18.6055 167.969L17.7489 164.216L15.8214 163.346L15.6072 165.391L18.4678 168.03L14.9189 166.825L13.1444 168.091L14.9189 169.235L18.4678 168.167L15.8214 170.746V172.759L17.7489 171.92L18.6055 168.305L19.4163 171.92L21.3284 172.759Z" fill="#87E7EB"/>
</g>
<g filter="url(#filter4_d_1230_10704)">
<path fill-rule="evenodd" clip-rule="evenodd" d="M18.5749 147.177C19.1147 146.006 20.1455 143.923 20.8083 142.694C21.5906 141.243 22.32 140.139 22.825 139.374L22.825 139.374C23.0211 139.076 23.1834 138.831 23.3018 138.636C23.3018 138.636 22.5216 138.819 21.8945 139.124C21.4457 138.727 20.635 137.502 20.0129 136.088C19.2298 134.308 18.9315 132.658 18.7021 131.388L18.7021 131.388L18.7021 131.388L18.7021 131.388L18.7021 131.388C18.6582 131.145 18.6168 130.916 18.5749 130.702C18.5331 130.916 18.4917 131.145 18.4477 131.388C18.2184 132.658 17.9201 134.308 17.137 136.088C16.5149 137.502 15.7041 138.727 15.2554 139.124C14.6282 138.819 13.8481 138.636 13.8481 138.636C13.9665 138.831 14.1287 139.076 14.3249 139.374C14.8299 140.139 15.5592 141.243 16.3415 142.694C17.0044 143.923 18.0352 146.006 18.5749 147.177ZM18.5749 141.641C18.9727 141.046 19.7773 140.341 20.1812 140.024C18.7891 137.171 18.5902 134.684 18.5902 134.684C18.5902 134.684 18.3761 137.171 16.984 140.024C17.3879 140.341 18.1772 141.046 18.5749 141.641ZM33.9711 120.643C32.6843 120.761 30.3607 120.911 28.962 120.952C27.3113 121.001 25.9872 120.923 25.0704 120.869C24.7143 120.847 24.4197 120.83 24.1913 120.825C24.1913 120.825 24.7407 121.408 25.3194 121.798C25.1997 122.384 24.5415 123.697 23.6257 124.941C22.4728 126.507 21.1893 127.589 20.2022 128.422L20.202 128.422L20.2018 128.422C20.0128 128.582 19.8347 128.732 19.6705 128.875C19.8767 128.804 20.0964 128.725 20.3295 128.642L20.3296 128.642C21.5462 128.206 23.1284 127.639 25.0651 127.426C26.6036 127.258 28.0734 127.346 28.6423 127.536C28.6913 128.23 28.9229 128.996 28.9229 128.996C29.0328 128.796 29.165 128.533 29.3247 128.215C29.736 127.396 30.3301 126.214 31.1977 124.813C31.9328 123.626 33.2246 121.695 33.9711 120.643ZM29.1659 123.409C28.4503 123.362 27.4357 123.019 26.9581 122.829C25.1782 125.458 23.1189 126.872 23.1189 126.872C23.1189 126.872 25.3849 125.815 28.5583 125.592C28.6317 125.084 28.8485 124.05 29.1659 123.409ZM31.1976 134.117C31.9328 135.304 33.2246 137.235 33.971 138.287C32.6843 138.168 30.3607 138.018 28.962 137.977C27.3113 137.929 25.9871 138.007 25.0703 138.061L25.0703 138.061C24.7142 138.082 24.4197 138.1 24.1912 138.105C24.1912 138.105 24.7406 137.522 25.3194 137.132C25.1997 136.546 24.5415 135.233 23.6257 133.989C22.4728 132.423 21.1892 131.34 20.2022 130.508L20.202 130.508L20.201 130.507C20.0123 130.348 19.8344 130.198 19.6704 130.055C19.8763 130.125 20.0955 130.204 20.3282 130.287L20.3283 130.287L20.3283 130.287L20.3286 130.287L20.3291 130.288L20.3295 130.288C21.5461 130.724 23.1283 131.291 25.0651 131.503C26.6036 131.672 28.0733 131.584 28.6422 131.394C28.6913 130.699 28.9228 129.934 28.9228 129.934C29.0328 130.133 29.1649 130.396 29.3247 130.714L29.3247 130.714C29.736 131.533 30.33 132.716 31.1976 134.117ZM28.5659 133.324C28.6392 133.832 28.8484 134.879 29.1658 135.521C28.4502 135.567 27.4433 135.897 26.9656 136.088C25.1857 133.459 23.1341 132.031 23.1341 132.031C23.1341 132.031 25.3925 133.102 28.5659 133.324ZM18.5749 111.753C18.0351 112.924 17.0043 115.007 16.3415 116.236C15.5592 117.686 14.8298 118.791 14.3248 119.556L14.3247 119.556L14.3246 119.557L14.3244 119.557C14.1284 119.854 13.9663 120.099 13.848 120.294C13.848 120.294 14.6282 120.111 15.2554 119.806C15.7041 120.203 16.5149 121.428 17.1369 122.842C17.92 124.622 18.2183 126.272 18.4477 127.542L18.4477 127.542L18.4477 127.542L18.4477 127.542L18.4477 127.542C18.4916 127.785 18.5331 128.014 18.5749 128.228C18.6167 128.014 18.6581 127.785 18.7021 127.542C18.9315 126.272 19.2298 124.622 20.0128 122.842C20.6349 121.428 21.4457 120.203 21.8944 119.806C22.5216 120.111 23.3018 120.294 23.3018 120.294C23.1834 120.099 23.0211 119.853 22.825 119.556C22.32 118.791 21.5906 117.686 20.8083 116.236C20.1454 115.007 19.1147 112.924 18.5749 111.753ZM18.5748 117.289C18.1771 117.884 17.3725 118.589 16.9686 118.906C18.3607 121.759 18.5595 124.246 18.5595 124.246C18.5595 124.246 18.7737 121.759 20.1658 118.906C19.7619 118.589 18.9726 117.884 18.5748 117.289ZM8.18783 137.977C6.78916 138.018 4.46554 138.168 3.17879 138.286C3.92521 137.235 5.21704 135.303 5.95219 134.116C6.81978 132.715 7.41384 131.533 7.82514 130.714C7.98488 130.396 8.11705 130.133 8.22697 129.933C8.22697 129.933 8.45852 130.699 8.50757 131.394C9.07648 131.583 10.5462 131.672 12.0847 131.503C14.0215 131.29 15.6037 130.723 16.8203 130.287C17.0534 130.204 17.2732 130.125 17.4794 130.055C17.315 130.197 17.1368 130.348 16.9476 130.507C15.9606 131.34 14.677 132.422 13.5241 133.988C12.6083 135.232 11.9502 136.546 11.8304 137.132C12.4092 137.521 12.9586 138.104 12.9586 138.104C12.7301 138.099 12.4355 138.082 12.0795 138.061C11.1627 138.006 9.8385 137.928 8.18783 137.977ZM10.1917 136.101C9.71408 135.91 8.69946 135.567 7.98386 135.52C8.30131 134.879 8.5181 133.845 8.59144 133.337C11.7649 133.115 14.0309 132.057 14.0309 132.057C14.0309 132.057 11.9716 133.472 10.1917 136.101ZM3.1787 120.644C3.92513 121.695 5.21696 123.627 5.9521 124.814C6.81968 126.215 7.41374 127.397 7.82504 128.216L7.82506 128.216C7.98479 128.534 8.11697 128.797 8.22689 128.997C8.22689 128.997 8.45844 128.231 8.50748 127.536C9.0764 127.347 10.5461 127.258 12.0847 127.427C14.0214 127.64 15.6036 128.207 16.8202 128.643L16.8203 128.643C17.0534 128.726 17.2731 128.805 17.4793 128.875C17.315 128.733 17.1367 128.582 16.9475 128.423C15.9605 127.59 14.6769 126.508 13.5241 124.941C12.6082 123.697 11.9501 122.384 11.8303 121.798C12.4091 121.409 12.9585 120.826 12.9585 120.826C12.7301 120.831 12.4355 120.848 12.0794 120.869C11.1626 120.923 9.83842 121.002 8.18775 120.953C6.78908 120.912 4.46546 120.762 3.1787 120.644ZM7.98393 123.41C8.30138 124.051 8.51052 125.098 8.58386 125.606C11.7573 125.828 14.0156 126.899 14.0156 126.899C14.0156 126.899 11.964 125.471 10.1841 122.843C9.7065 123.033 8.69953 123.363 7.98393 123.41ZM21.3284 134.12L21.5426 132.106L18.7279 129.528L22.3075 130.596L23.9443 129.451L22.3075 128.185L18.7279 129.39L21.5426 126.751L21.3284 124.706L19.4163 125.576L18.6055 129.329L17.7489 125.576L15.8214 124.706L15.6072 126.751L18.4678 129.39L14.9189 128.185L13.1444 129.451L14.9189 130.596L18.4678 129.528L15.8214 132.106V134.12L17.7489 133.281L18.6055 129.665L19.4163 133.281L21.3284 134.12Z" fill="#87E7EB"/>
</g>
<g filter="url(#filter5_d_1230_10704)">
<path fill-rule="evenodd" clip-rule="evenodd" d="M18.5749 108.537C19.1147 107.366 20.1455 105.283 20.8083 104.054C21.5906 102.604 22.32 101.499 22.825 100.734L22.825 100.734C23.0211 100.437 23.1834 100.191 23.3018 99.9961C23.3018 99.9961 22.5216 100.179 21.8945 100.484C21.4457 100.088 20.635 98.862 20.0129 97.4482C19.2298 95.6686 18.9315 94.0179 18.7021 92.7486L18.7021 92.7486L18.7021 92.7486L18.7021 92.7485L18.7021 92.7485C18.6582 92.5053 18.6168 92.2761 18.5749 92.0626C18.5331 92.2761 18.4917 92.5053 18.4477 92.7486C18.2184 94.0179 17.9201 95.6686 17.137 97.4482C16.5149 98.862 15.7041 100.088 15.2554 100.484C14.6282 100.179 13.8481 99.9961 13.8481 99.9961C13.9665 100.191 14.1287 100.437 14.3249 100.734C14.8299 101.499 15.5592 102.604 16.3415 104.054C17.0044 105.283 18.0352 107.366 18.5749 108.537ZM18.5749 103.002C18.9727 102.407 19.7773 101.702 20.1812 101.384C18.7891 98.5314 18.5902 96.0446 18.5902 96.0446C18.5902 96.0446 18.3761 98.5314 16.984 101.384C17.3879 101.702 18.1772 102.407 18.5749 103.002ZM33.9711 82.0032C32.6843 82.1218 30.3607 82.2715 28.962 82.3127C27.3113 82.3614 25.9872 82.2831 25.0704 82.2289C24.7143 82.2078 24.4197 82.1904 24.1913 82.1854C24.1913 82.1854 24.7407 82.7682 25.3194 83.1579C25.1997 83.7439 24.5415 85.0571 23.6257 86.3011C22.4728 87.8672 21.1893 88.9498 20.2022 89.7823L20.202 89.7825L20.2018 89.7826C20.0128 89.942 19.8347 90.0923 19.6705 90.235C19.8767 90.1644 20.0964 90.0857 20.3295 90.0022L20.3296 90.0022C21.5462 89.5662 23.1284 88.9992 25.0651 88.7868C26.6036 88.618 28.0734 88.7064 28.6423 88.896C28.6913 89.5905 28.9229 90.3563 28.9229 90.3563C29.0328 90.1566 29.165 89.8935 29.3247 89.5755C29.736 88.7568 30.3301 87.5743 31.1977 86.1734C31.9328 84.9864 33.2246 83.0549 33.9711 82.0032ZM29.1659 84.7692C28.4503 84.7227 27.4357 84.3795 26.9581 84.189C25.1782 86.8179 23.1189 88.2324 23.1189 88.2324C23.1189 88.2324 25.3849 87.1749 28.5583 86.9525C28.6317 86.4448 28.8485 85.4103 29.1659 84.7692ZM31.1976 95.4769C31.9328 96.664 33.2246 98.5954 33.971 99.6471C32.6843 99.5285 30.3607 99.3788 28.962 99.3376C27.3113 99.2889 25.9871 99.3672 25.0703 99.4215L25.0703 99.4215C24.7142 99.4425 24.4197 99.4599 24.1912 99.4649C24.1912 99.4649 24.7406 98.8821 25.3194 98.4925C25.1997 97.9064 24.5415 96.5932 23.6257 95.3492C22.4728 93.7832 21.1892 92.7005 20.2022 91.868L20.202 91.8679L20.201 91.867C20.0123 91.7079 19.8344 91.5579 19.6704 91.4154C19.8763 91.4857 20.0955 91.5643 20.3282 91.6477L20.3283 91.6477L20.3283 91.6477L20.3286 91.6478L20.3291 91.648L20.3295 91.6482C21.5461 92.0841 23.1283 92.6511 25.0651 92.8636C26.6036 93.0323 28.0733 92.944 28.6422 92.7543C28.6913 92.0598 28.9228 91.294 28.9228 91.294C29.0328 91.4937 29.1649 91.7568 29.3247 92.0748L29.3247 92.0748C29.736 92.8935 30.33 94.076 31.1976 95.4769ZM28.5659 94.6844C28.6392 95.1921 28.8484 96.2398 29.1658 96.8809C28.4502 96.9274 27.4433 97.2574 26.9656 97.4479C25.1857 94.819 23.1341 93.3912 23.1341 93.3912C23.1341 93.3912 25.3925 94.462 28.5659 94.6844ZM18.5749 73.1135C18.0351 74.2847 17.0043 76.3672 16.3415 77.5963C15.5592 79.0468 14.8298 80.1517 14.3248 80.9167L14.3247 80.9168L14.3246 80.917L14.3244 80.9174C14.1284 81.2142 13.9663 81.4598 13.848 81.6545C13.848 81.6545 14.6282 81.4715 15.2554 81.1663C15.7041 81.563 16.5149 82.7887 17.1369 84.2024C17.92 85.982 18.2183 87.6327 18.4477 88.902L18.4477 88.9021L18.4477 88.9021L18.4477 88.9021L18.4477 88.9021C18.4916 89.1453 18.5331 89.3745 18.5749 89.588C18.6167 89.3745 18.6581 89.1453 18.7021 88.902C18.9315 87.6327 19.2298 85.982 20.0128 84.2024C20.6349 82.7887 21.4457 81.563 21.8944 81.1663C22.5216 81.4715 23.3018 81.6545 23.3018 81.6545C23.1834 81.4596 23.0211 81.2138 22.825 80.9167C22.32 80.1517 21.5906 79.0468 20.8083 77.5963C20.1454 76.3672 19.1147 74.2847 18.5749 73.1135ZM18.5748 78.6492C18.1771 79.2442 17.3725 79.9491 16.9686 80.2664C18.3607 83.1194 18.5595 85.6063 18.5595 85.6063C18.5595 85.6063 18.7737 83.1194 20.1658 80.2664C19.7619 79.9491 18.9726 79.2442 18.5748 78.6492ZM8.18783 99.3371C6.78916 99.3784 4.46554 99.528 3.17879 99.6467C3.92521 98.595 5.21704 96.6635 5.95219 95.4765C6.81978 94.0756 7.41384 92.8931 7.82514 92.0743C7.98488 91.7564 8.11705 91.4933 8.22697 91.2936C8.22697 91.2936 8.45852 92.0594 8.50757 92.7539C9.07648 92.9435 10.5462 93.0319 12.0847 92.8631C14.0215 92.6507 15.6037 92.0837 16.8203 91.6477C17.0534 91.5642 17.2732 91.4854 17.4794 91.4149C17.315 91.5577 17.1368 91.7081 16.9476 91.8676C15.9606 92.7001 14.677 93.7827 13.5241 95.3487C12.6083 96.5928 11.9502 97.906 11.8304 98.492C12.4092 98.8816 12.9586 99.4644 12.9586 99.4644C12.7301 99.4595 12.4355 99.4421 12.0795 99.421C11.1627 99.3668 9.8385 99.2885 8.18783 99.3371ZM10.1917 97.4609C9.71408 97.2704 8.69946 96.9271 7.98386 96.8807C8.30131 96.2396 8.5181 95.2051 8.59144 94.6974C11.7649 94.475 14.0309 93.4174 14.0309 93.4174C14.0309 93.4174 11.9716 94.832 10.1917 97.4609ZM3.1787 82.0039C3.92513 83.0556 5.21696 84.9871 5.9521 86.1741C6.81968 87.575 7.41374 88.7575 7.82504 89.5762L7.82506 89.5762C7.98479 89.8942 8.11697 90.1573 8.22689 90.357C8.22689 90.357 8.45844 89.5912 8.50748 88.8967C9.0764 88.7071 10.5461 88.6187 12.0847 88.7875C14.0214 88.9999 15.6036 89.5669 16.8202 90.0029L16.8203 90.0029C17.0534 90.0864 17.2731 90.1652 17.4793 90.2357C17.315 90.0929 17.1367 89.9425 16.9475 89.783C15.9605 88.9505 14.6769 87.8679 13.5241 86.3018C12.6082 85.0578 11.9501 83.7446 11.8303 83.1586C12.4091 82.769 12.9585 82.1861 12.9585 82.1861C12.7301 82.1911 12.4355 82.2085 12.0794 82.2296C11.1626 82.2838 9.83842 82.3621 8.18775 82.3134C6.78908 82.2722 4.46546 82.1225 3.1787 82.0039ZM7.98393 84.7699C8.30138 85.411 8.51052 86.4587 8.58386 86.9664C11.7573 87.1888 14.0156 88.2596 14.0156 88.2596C14.0156 88.2596 11.964 86.8318 10.1841 84.2029C9.7065 84.3934 8.69953 84.7234 7.98393 84.7699ZM21.3284 95.4802L21.5426 93.4663L18.7279 90.8879L22.3075 91.9559L23.9443 90.8116L22.3075 89.5453L18.7279 90.7506L21.5426 88.1112L21.3284 86.0668L19.4163 86.9365L18.6055 90.6896L17.7489 86.9365L15.8214 86.0668L15.6072 88.1112L18.4678 90.7506L14.9189 89.5453L13.1444 90.8116L14.9189 91.9559L18.4678 90.8879L15.8214 93.4663V95.4802L17.7489 94.6411L18.6055 91.0252L19.4163 94.6411L21.3284 95.4802Z" fill="#87E7EB"/>
</g>
<g filter="url(#filter6_d_1230_10704)">
<path fill-rule="evenodd" clip-rule="evenodd" d="M18.5749 69.8965C19.1147 68.7253 20.1455 66.6428 20.8083 65.4137C21.5906 63.9632 22.32 62.8583 22.825 62.0933L22.825 62.0933C23.0211 61.7962 23.1834 61.5504 23.3018 61.3555C23.3018 61.3555 22.5216 61.5385 21.8945 61.8437C21.4457 61.447 20.635 60.2213 20.0129 58.8076C19.2298 57.028 18.9315 55.3773 18.7021 54.108L18.7021 54.1079L18.7021 54.1079L18.7021 54.1079L18.7021 54.1079C18.6582 53.8647 18.6168 53.6355 18.5749 53.422C18.5331 53.6355 18.4917 53.8647 18.4477 54.108C18.2184 55.3773 17.9201 57.028 17.137 58.8076C16.5149 60.2213 15.7041 61.447 15.2554 61.8437C14.6282 61.5385 13.8481 61.3555 13.8481 61.3555C13.9665 61.5504 14.1287 61.7962 14.3249 62.0933C14.8299 62.8583 15.5592 63.9632 16.3415 65.4137C17.0044 66.6428 18.0352 68.7253 18.5749 69.8965ZM18.5749 64.361C18.9727 63.766 19.7773 63.0611 20.1812 62.7438C18.7891 59.8908 18.5902 57.404 18.5902 57.404C18.5902 57.404 18.3761 59.8908 16.984 62.7438C17.3879 63.0611 18.1772 63.766 18.5749 64.361ZM33.9711 43.3626C32.6843 43.4812 30.3607 43.6309 28.962 43.6721C27.3113 43.7208 25.9872 43.6425 25.0704 43.5882C24.7143 43.5672 24.4197 43.5497 24.1913 43.5448C24.1913 43.5448 24.7407 44.1276 25.3194 44.5172C25.1997 45.1033 24.5415 46.4165 23.6257 47.6605C22.4728 49.2265 21.1893 50.3092 20.2022 51.1416L20.202 51.1419L20.2018 51.142C20.0128 51.3014 19.8347 51.4516 19.6705 51.5943C19.8767 51.5238 20.0964 51.4451 20.3295 51.3615L20.3296 51.3615C21.5462 50.9255 23.1284 50.3586 25.0651 50.1461C26.6036 49.9774 28.0734 50.0657 28.6423 50.2554C28.6913 50.9499 28.9229 51.7157 28.9229 51.7157C29.0328 51.516 29.165 51.2529 29.3247 50.9349C29.736 50.1162 30.3301 48.9337 31.1977 47.5328C31.9328 46.3457 33.2246 44.4143 33.9711 43.3626ZM29.1659 46.1286C28.4503 46.0821 27.4357 45.7388 26.9581 45.5483C25.1782 48.1772 23.1189 49.5918 23.1189 49.5918C23.1189 49.5918 25.3849 48.5342 28.5583 48.3118C28.6317 47.8042 28.8485 46.7697 29.1659 46.1286ZM31.1976 56.8363C31.9328 58.0233 33.2246 59.9548 33.971 61.0065C32.6843 60.8879 30.3607 60.7382 28.962 60.697C27.3113 60.6483 25.9871 60.7266 25.0703 60.7808L25.0703 60.7808C24.7142 60.8019 24.4197 60.8193 24.1912 60.8243C24.1912 60.8243 24.7406 60.2414 25.3194 59.8518C25.1997 59.2658 24.5415 57.9526 23.6257 56.7086C22.4728 55.1425 21.1892 54.0599 20.2022 53.2274L20.202 53.2272L20.201 53.2264C20.0123 53.0672 19.8344 52.9172 19.6704 52.7747C19.8763 52.8451 20.0955 52.9237 20.3282 53.0071L20.3283 53.0071L20.3283 53.0071L20.3286 53.0072L20.3291 53.0074L20.3295 53.0075C21.5461 53.4435 23.1283 54.0105 25.0651 54.2229C26.6036 54.3917 28.0733 54.3033 28.6422 54.1137C28.6913 53.4192 28.9228 52.6534 28.9228 52.6534C29.0328 52.8531 29.1649 53.1162 29.3247 53.4342L29.3247 53.4342C29.736 54.2529 30.33 55.4354 31.1976 56.8363ZM28.5659 56.0438C28.6392 56.5515 28.8484 57.5992 29.1658 58.2403C28.4502 58.2868 27.4433 58.6168 26.9656 58.8073C25.1857 56.1784 23.1341 54.7506 23.1341 54.7506C23.1341 54.7506 25.3925 55.8214 28.5659 56.0438ZM18.5749 34.4729C18.0351 35.644 17.0043 37.7266 16.3415 38.9556C15.5592 40.4062 14.8298 41.5111 14.3248 42.2761L14.3247 42.2762L14.3246 42.2764L14.3244 42.2768C14.1284 42.5736 13.9663 42.8192 13.848 43.0139C13.848 43.0139 14.6282 42.8308 15.2554 42.5257C15.7041 42.9224 16.5149 44.148 17.1369 45.5618C17.92 47.3414 18.2183 48.9921 18.4477 50.2614L18.4477 50.2614L18.4477 50.2614L18.4477 50.2615L18.4477 50.2615C18.4916 50.5047 18.5331 50.7339 18.5749 50.9473C18.6167 50.7339 18.6581 50.5047 18.7021 50.2614C18.9315 48.9921 19.2298 47.3414 20.0128 45.5618C20.6349 44.148 21.4457 42.9224 21.8944 42.5257C22.5216 42.8308 23.3018 43.0139 23.3018 43.0139C23.1834 42.819 23.0211 42.5732 22.825 42.2761C22.32 41.5111 21.5906 40.4062 20.8083 38.9556C20.1454 37.7266 19.1147 35.644 18.5749 34.4729ZM18.5748 40.0086C18.1771 40.6036 17.3725 41.3085 16.9686 41.6258C18.3607 44.4788 18.5595 46.9656 18.5595 46.9656C18.5595 46.9656 18.7737 44.4788 20.1658 41.6258C19.7619 41.3085 18.9726 40.6036 18.5748 40.0086ZM8.18783 60.6965C6.78916 60.7377 4.46554 60.8874 3.17879 61.0061C3.92521 59.9543 5.21704 58.0229 5.95219 56.8358C6.81978 55.4349 7.41384 54.2524 7.82514 53.4337C7.98488 53.1158 8.11705 52.8527 8.22697 52.653C8.22697 52.653 8.45852 53.4187 8.50757 54.1133C9.07648 54.3029 10.5462 54.3912 12.0847 54.2225C14.0215 54.0101 15.6037 53.4431 16.8203 53.0071C17.0534 52.9235 17.2732 52.8448 17.4794 52.7743C17.315 52.9171 17.1368 53.0674 16.9476 53.227C15.9606 54.0595 14.677 55.1421 13.5241 56.7081C12.6083 57.9522 11.9502 59.2654 11.8304 59.8514C12.4092 60.241 12.9586 60.8238 12.9586 60.8238C12.7301 60.8189 12.4355 60.8015 12.0795 60.7804C11.1627 60.7262 9.8385 60.6479 8.18783 60.6965ZM10.1917 58.8203C9.71408 58.6298 8.69946 58.2865 7.98386 58.2401C8.30131 57.5989 8.5181 56.5644 8.59144 56.0568C11.7649 55.8344 14.0309 54.7768 14.0309 54.7768C14.0309 54.7768 11.9716 56.1914 10.1917 58.8203ZM3.1787 43.3633C3.92513 44.415 5.21696 46.3464 5.9521 47.5335C6.81968 48.9344 7.41374 50.1169 7.82504 50.9356L7.82506 50.9356C7.98479 51.2536 8.11697 51.5167 8.22689 51.7164C8.22689 51.7164 8.45844 50.9506 8.50748 50.2561C9.0764 50.0664 10.5461 49.9781 12.0847 50.1469C14.0214 50.3593 15.6036 50.9263 16.8202 51.3622L16.8203 51.3623C17.0534 51.4458 17.2731 51.5245 17.4793 51.595C17.315 51.4522 17.1367 51.3019 16.9475 51.1424C15.9605 50.3099 14.6769 49.2273 13.5241 47.6612C12.6082 46.4172 11.9501 45.104 11.8303 44.5179C12.4091 44.1283 12.9585 43.5455 12.9585 43.5455C12.7301 43.5505 12.4355 43.5679 12.0794 43.5889C11.1626 43.6432 9.83842 43.7215 8.18775 43.6728C6.78908 43.6316 4.46546 43.4819 3.1787 43.3633ZM7.98393 46.1293C8.30138 46.7704 8.51052 47.8181 8.58386 48.3257C11.7573 48.5482 14.0156 49.619 14.0156 49.619C14.0156 49.619 11.964 48.1912 10.1841 45.5623C9.7065 45.7528 8.69953 46.0828 7.98393 46.1293ZM21.3284 56.8395L21.5426 54.8257L18.7279 52.2473L22.3075 53.3153L23.9443 52.171L22.3075 50.9047L18.7279 52.11L21.5426 49.4706L21.3284 47.4262L19.4163 48.2958L18.6055 52.049L17.7489 48.2958L15.8214 47.4262L15.6072 49.4706L18.4678 52.11L14.9189 50.9047L13.1444 52.171L14.9189 53.3153L18.4678 52.2473L15.8214 54.8257V56.8395L17.7489 56.0004L18.6055 52.3846L19.4163 56.0004L21.3284 56.8395Z" fill="#87E7EB"/>
</g>
<g filter="url(#filter7_d_1230_10704)">
<path fill-rule="evenodd" clip-rule="evenodd" d="M18.5749 31.2568C19.1147 30.0857 20.1455 28.0032 20.8083 26.7741C21.5906 25.3236 22.32 24.2187 22.825 23.4537L22.825 23.4536C23.0211 23.1565 23.1834 22.9107 23.3018 22.7158C23.3018 22.7158 22.5216 22.8989 21.8945 23.204C21.4457 22.8074 20.635 21.5817 20.0129 20.168C19.2298 18.3883 18.9315 16.7376 18.7021 15.4683L18.7021 15.4683L18.7021 15.4683L18.7021 15.4683L18.7021 15.4682C18.6582 15.225 18.6168 14.9958 18.5749 14.7824C18.5331 14.9958 18.4917 15.2251 18.4477 15.4683C18.2184 16.7376 17.9201 18.3883 17.137 20.168C16.5149 21.5817 15.7041 22.8074 15.2554 23.204C14.6282 22.8989 13.8481 22.7158 13.8481 22.7158C13.9665 22.9107 14.1287 23.1565 14.3249 23.4536C14.8299 24.2186 15.5592 25.3236 16.3415 26.7741C17.0044 28.0032 18.0352 30.0857 18.5749 31.2568ZM18.5749 25.7213C18.9727 25.1263 19.7773 24.4215 20.1812 24.1041C18.7891 21.2512 18.5902 18.7643 18.5902 18.7643C18.5902 18.7643 18.3761 21.2512 16.984 24.1041C17.3879 24.4215 18.1772 25.1263 18.5749 25.7213ZM33.9711 4.72292C32.6843 4.84156 30.3607 4.99124 28.962 5.03247C27.3113 5.08112 25.9872 5.0028 25.0704 4.94858C24.7143 4.92752 24.4197 4.9101 24.1913 4.90516C24.1913 4.90516 24.7407 5.48797 25.3194 5.87759C25.1997 6.46362 24.5415 7.77681 23.6257 9.02085C22.4728 10.5869 21.1893 11.6695 20.2022 12.502L20.202 12.5022L20.2018 12.5024C20.0128 12.6618 19.8347 12.812 19.6705 12.9547C19.8767 12.8842 20.0964 12.8054 20.3295 12.7219L20.3296 12.7219C21.5462 12.2859 23.1284 11.7189 25.0651 11.5065C26.6036 11.3377 28.0734 11.4261 28.6423 11.6157C28.6913 12.3102 28.9229 13.076 28.9229 13.076C29.0328 12.8763 29.165 12.6132 29.3247 12.2953C29.736 11.4766 30.3301 10.2941 31.1977 8.89314C31.9328 7.70608 33.2246 5.77463 33.9711 4.72292ZM29.1659 7.48893C28.4503 7.44247 27.4357 7.09919 26.9581 6.9087C25.1782 9.53759 23.1189 10.9522 23.1189 10.9522C23.1189 10.9522 25.3849 9.8946 28.5583 9.67218C28.6317 9.16454 28.8485 8.13004 29.1659 7.48893ZM31.1976 18.1966C31.9328 19.3837 33.2246 21.3151 33.971 22.3668C32.6843 22.2482 30.3607 22.0985 28.962 22.0573C27.3113 22.0087 25.9871 22.087 25.0703 22.1412L25.0703 22.1412C24.7142 22.1622 24.4197 22.1797 24.1912 22.1846C24.1912 22.1846 24.7406 21.6018 25.3194 21.2122C25.1997 20.6261 24.5415 19.313 23.6257 18.0689C22.4728 16.5029 21.1892 15.4203 20.2022 14.5878L20.202 14.5876L20.201 14.5867C20.0123 14.4276 19.8344 14.2776 19.6704 14.1351C19.8763 14.2055 20.0955 14.284 20.3282 14.3674L20.3283 14.3674L20.3283 14.3675L20.3286 14.3675L20.3291 14.3677L20.3295 14.3679C21.5461 14.8039 23.1283 15.3709 25.0651 15.5833C26.6036 15.752 28.0733 15.6637 28.6422 15.4741C28.6913 14.7795 28.9228 14.0137 28.9228 14.0137C29.0328 14.2135 29.1649 14.4765 29.3247 14.7945L29.3247 14.7945C29.736 15.6132 30.33 16.7957 31.1976 18.1966ZM28.5659 17.4042C28.6392 17.9118 28.8484 18.9595 29.1658 19.6007C28.4502 19.6471 27.4433 19.9772 26.9656 20.1677C25.1857 17.5388 23.1341 16.111 23.1341 16.111C23.1341 16.111 25.3925 17.1818 28.5659 17.4042ZM18.5749 -4.16674C18.0351 -2.99561 17.0043 -0.913097 16.3415 0.315994C15.5592 1.76653 14.8298 2.87144 14.3248 3.63643L14.3247 3.63657L14.3246 3.63674L14.3244 3.6371C14.1284 3.9339 13.9663 4.17951 13.848 4.37426C13.848 4.37426 14.6282 4.19118 15.2554 3.88604C15.7041 4.28272 16.5149 5.50839 17.1369 6.92211C17.92 8.70174 18.2183 10.3524 18.4477 11.6218L18.4477 11.6218L18.4477 11.6218L18.4477 11.6218L18.4477 11.6218C18.4916 11.8651 18.5331 12.0943 18.5749 12.3077C18.6167 12.0942 18.6581 11.865 18.7021 11.6218C18.9315 10.3524 19.2298 8.70174 20.0128 6.92211C20.6349 5.50839 21.4457 4.28272 21.8944 3.88604C22.5216 4.19118 23.3018 4.37426 23.3018 4.37426C23.1834 4.17936 23.0211 3.93353 22.825 3.63643C22.32 2.87143 21.5906 1.76652 20.8083 0.315994C20.1454 -0.913097 19.1147 -2.99561 18.5749 -4.16674ZM18.5748 1.36896C18.1771 1.96396 17.3725 2.66882 16.9686 2.98616C18.3607 5.83915 18.5595 8.32598 18.5595 8.32598C18.5595 8.32598 18.7737 5.83915 20.1658 2.98616C19.7619 2.66882 18.9726 1.96396 18.5748 1.36896ZM8.18783 22.0569C6.78916 22.0981 4.46554 22.2478 3.17879 22.3664C3.92521 21.3147 5.21704 19.3832 5.95219 18.1962C6.81978 16.7953 7.41384 15.6128 7.82514 14.7941C7.98488 14.4761 8.11705 14.213 8.22697 14.0133C8.22697 14.0133 8.45852 14.7791 8.50757 15.4736C9.07648 15.6633 10.5462 15.7516 12.0847 15.5828C14.0215 15.3704 15.6037 14.8034 16.8203 14.3674C17.0534 14.2839 17.2732 14.2052 17.4794 14.1346C17.315 14.2774 17.1368 14.4278 16.9476 14.5873C15.9606 15.4198 14.677 16.5024 13.5241 18.0685C12.6083 19.3125 11.9502 20.6257 11.8304 21.2117C12.4092 21.6014 12.9586 22.1842 12.9586 22.1842C12.7301 22.1792 12.4355 22.1618 12.0795 22.1407C11.1627 22.0865 9.8385 22.0082 8.18783 22.0569ZM10.1917 20.1806C9.71408 19.9901 8.69946 19.6469 7.98386 19.6004C8.30131 18.9593 8.5181 17.9248 8.59144 17.4171C11.7649 17.1947 14.0309 16.1372 14.0309 16.1372C14.0309 16.1372 11.9716 17.5517 10.1917 20.1806ZM3.1787 4.72363C3.92513 5.77534 5.21696 7.70679 5.9521 8.89384C6.81968 10.2947 7.41374 11.4772 7.82504 12.2959L7.82506 12.296C7.98479 12.6139 8.11697 12.877 8.22689 13.0767C8.22689 13.0767 8.45844 12.311 8.50748 11.6164C9.0764 11.4268 10.5461 11.3385 12.0847 11.5072C14.0214 11.7196 15.6036 12.2866 16.8202 12.7226L16.8203 12.7226C17.0534 12.8062 17.2731 12.8849 17.4793 12.9554C17.315 12.8126 17.1367 12.6622 16.9475 12.5027C15.9605 11.6702 14.6769 10.5876 13.5241 9.02157C12.6082 7.77753 11.9501 6.46433 11.8303 5.8783C12.4091 5.48868 12.9585 4.90587 12.9585 4.90587C12.7301 4.91081 12.4355 4.92823 12.0794 4.94929C11.1626 5.00351 9.83842 5.08183 8.18775 5.03318C6.78908 4.99195 4.46546 4.84227 3.1787 4.72363ZM7.98393 7.48962C8.30138 8.13073 8.51052 9.17845 8.58386 9.6861C11.7573 9.90851 14.0156 10.9793 14.0156 10.9793C14.0156 10.9793 11.964 9.55151 10.1841 6.92261C9.7065 7.11311 8.69953 7.44316 7.98393 7.48962ZM21.3284 18.1999L21.5426 16.186L18.7279 13.6077L22.3075 14.6756L23.9443 13.5314L22.3075 12.2651L18.7279 13.4703L21.5426 10.831L21.3284 8.78656L19.4163 9.65619L18.6055 13.4093L17.7489 9.65619L15.8214 8.78656L15.6072 10.831L18.4678 13.4703L14.9189 12.2651L13.1444 13.5314L14.9189 14.6756L18.4678 13.6077L15.8214 16.186V18.1999L17.7489 17.3608L18.6055 13.745L19.4163 17.3608L21.3284 18.1999Z" fill="#87E7EB"/>
</g>
</g>
</g>
<defs>
<filter id="filter0_d_1230_10704" x="2.73771" y="266.092" width="31.6744" height="36.3058" filterUnits="userSpaceOnUse" color-interpolation-filters="sRGB">
<feFlood flood-opacity="0" result="BackgroundImageFix"/>
<feColorMatrix in="SourceAlpha" type="matrix" values="0 0 0 0 0 0 0 0 0 0 0 0 0 0 0 0 0 0 127 0" result="hardAlpha"/>
<feOffset dy="0.2205"/>
<feGaussianBlur stdDeviation="0.2205"/>
<feComposite in2="hardAlpha" operator="out"/>
<feColorMatrix type="matrix" values="0 0 0 0 0 0 0 0 0 0 0 0 0 0 0 0 0 0 0.1 0"/>
<feBlend mode="normal" in2="BackgroundImageFix" result="effect1_dropShadow_1230_10704"/>
<feBlend mode="normal" in="SourceGraphic" in2="effect1_dropShadow_1230_10704" result="shape"/>
</filter>
<filter id="filter1_d_1230_10704" x="2.73771" y="227.452" width="31.6744" height="36.3058" filterUnits="userSpaceOnUse" color-interpolation-filters="sRGB">
<feFlood flood-opacity="0" result="BackgroundImageFix"/>
<feColorMatrix in="SourceAlpha" type="matrix" values="0 0 0 0 0 0 0 0 0 0 0 0 0 0 0 0 0 0 127 0" result="hardAlpha"/>
<feOffset dy="0.2205"/>
<feGaussianBlur stdDeviation="0.2205"/>
<feComposite in2="hardAlpha" operator="out"/>
<feColorMatrix type="matrix" values="0 0 0 0 0 0 0 0 0 0 0 0 0 0 0 0 0 0 0.1 0"/>
<feBlend mode="normal" in2="BackgroundImageFix" result="effect1_dropShadow_1230_10704"/>
<feBlend mode="normal" in="SourceGraphic" in2="effect1_dropShadow_1230_10704" result="shape"/>
</filter>
<filter id="filter2_d_1230_10704" x="2.73771" y="188.813" width="31.6744" height="36.3058" filterUnits="userSpaceOnUse" color-interpolation-filters="sRGB">
<feFlood flood-opacity="0" result="BackgroundImageFix"/>
<feColorMatrix in="SourceAlpha" type="matrix" values="0 0 0 0 0 0 0 0 0 0 0 0 0 0 0 0 0 0 127 0" result="hardAlpha"/>
<feOffset dy="0.2205"/>
<feGaussianBlur stdDeviation="0.2205"/>
<feComposite in2="hardAlpha" operator="out"/>
<feColorMatrix type="matrix" values="0 0 0 0 0 0 0 0 0 0 0 0 0 0 0 0 0 0 0.1 0"/>
<feBlend mode="normal" in2="BackgroundImageFix" result="effect1_dropShadow_1230_10704"/>
<feBlend mode="normal" in="SourceGraphic" in2="effect1_dropShadow_1230_10704" result="shape"/>
</filter>
<filter id="filter3_d_1230_10704" x="2.73771" y="150.172" width="31.6744" height="36.3058" filterUnits="userSpaceOnUse" color-interpolation-filters="sRGB">
<feFlood flood-opacity="0" result="BackgroundImageFix"/>
<feColorMatrix in="SourceAlpha" type="matrix" values="0 0 0 0 0 0 0 0 0 0 0 0 0 0 0 0 0 0 127 0" result="hardAlpha"/>
<feOffset dy="0.2205"/>
<feGaussianBlur stdDeviation="0.2205"/>
<feComposite in2="hardAlpha" operator="out"/>
<feColorMatrix type="matrix" values="0 0 0 0 0 0 0 0 0 0 0 0 0 0 0 0 0 0 0.1 0"/>
<feBlend mode="normal" in2="BackgroundImageFix" result="effect1_dropShadow_1230_10704"/>
<feBlend mode="normal" in="SourceGraphic" in2="effect1_dropShadow_1230_10704" result="shape"/>
</filter>
<filter id="filter4_d_1230_10704" x="2.73771" y="111.532" width="31.6744" height="36.3058" filterUnits="userSpaceOnUse" color-interpolation-filters="sRGB">
<feFlood flood-opacity="0" result="BackgroundImageFix"/>
<feColorMatrix in="SourceAlpha" type="matrix" values="0 0 0 0 0 0 0 0 0 0 0 0 0 0 0 0 0 0 127 0" result="hardAlpha"/>
<feOffset dy="0.2205"/>
<feGaussianBlur stdDeviation="0.2205"/>
<feComposite in2="hardAlpha" operator="out"/>
<feColorMatrix type="matrix" values="0 0 0 0 0 0 0 0 0 0 0 0 0 0 0 0 0 0 0.1 0"/>
<feBlend mode="normal" in2="BackgroundImageFix" result="effect1_dropShadow_1230_10704"/>
<feBlend mode="normal" in="SourceGraphic" in2="effect1_dropShadow_1230_10704" result="shape"/>
</filter>
<filter id="filter5_d_1230_10704" x="2.73771" y="72.8928" width="31.6744" height="36.3058" filterUnits="userSpaceOnUse" color-interpolation-filters="sRGB">
<feFlood flood-opacity="0" result="BackgroundImageFix"/>
<feColorMatrix in="SourceAlpha" type="matrix" values="0 0 0 0 0 0 0 0 0 0 0 0 0 0 0 0 0 0 127 0" result="hardAlpha"/>
<feOffset dy="0.2205"/>
<feGaussianBlur stdDeviation="0.2205"/>
<feComposite in2="hardAlpha" operator="out"/>
<feColorMatrix type="matrix" values="0 0 0 0 0 0 0 0 0 0 0 0 0 0 0 0 0 0 0.1 0"/>
<feBlend mode="normal" in2="BackgroundImageFix" result="effect1_dropShadow_1230_10704"/>
<feBlend mode="normal" in="SourceGraphic" in2="effect1_dropShadow_1230_10704" result="shape"/>
</filter>
<filter id="filter6_d_1230_10704" x="2.73771" y="34.2522" width="31.6744" height="36.3058" filterUnits="userSpaceOnUse" color-interpolation-filters="sRGB">
<feFlood flood-opacity="0" result="BackgroundImageFix"/>
<feColorMatrix in="SourceAlpha" type="matrix" values="0 0 0 0 0 0 0 0 0 0 0 0 0 0 0 0 0 0 127 0" result="hardAlpha"/>
<feOffset dy="0.2205"/>
<feGaussianBlur stdDeviation="0.2205"/>
<feComposite in2="hardAlpha" operator="out"/>
<feColorMatrix type="matrix" values="0 0 0 0 0 0 0 0 0 0 0 0 0 0 0 0 0 0 0.1 0"/>
<feBlend mode="normal" in2="BackgroundImageFix" result="effect1_dropShadow_1230_10704"/>
<feBlend mode="normal" in="SourceGraphic" in2="effect1_dropShadow_1230_10704" result="shape"/>
</filter>
<filter id="filter7_d_1230_10704" x="2.73771" y="-4.38749" width="31.6744" height="36.3058" filterUnits="userSpaceOnUse" color-interpolation-filters="sRGB">
<feFlood flood-opacity="0" result="BackgroundImageFix"/>
<feColorMatrix in="SourceAlpha" type="matrix" values="0 0 0 0 0 0 0 0 0 0 0 0 0 0 0 0 0 0 127 0" result="hardAlpha"/>
<feOffset dy="0.2205"/>
<feGaussianBlur stdDeviation="0.2205"/>
<feComposite in2="hardAlpha" operator="out"/>
<feColorMatrix type="matrix" values="0 0 0 0 0 0 0 0 0 0 0 0 0 0 0 0 0 0 0.1 0"/>
<feBlend mode="normal" in2="BackgroundImageFix" result="effect1_dropShadow_1230_10704"/>
<feBlend mode="normal" in="SourceGraphic" in2="effect1_dropShadow_1230_10704" result="shape"/>
</filter>
</defs>
</svg>
