<svg width="17" height="336" viewBox="0 0 17 336" fill="none" xmlns="http://www.w3.org/2000/svg">
<g opacity="0.15">
<mask id="mask0_1230_10693" style="mask-type:alpha" maskUnits="userSpaceOnUse" x="0" y="0" width="17" height="336">
<rect width="16.8" height="336" fill="#C4C4C4"/>
</mask>
<g mask="url(#mask0_1230_10693)">
<g filter="url(#filter0_d_1230_10693)">
<path fill-rule="evenodd" clip-rule="evenodd" d="M-1.57496 -4.37693C-2.11475 -3.2058 -3.1455 -1.12329 -3.80837 0.105803C-4.59064 1.5563 -5.32001 2.66119 -5.825 3.42618L-5.82503 3.42622L-5.82504 3.42624C-6.02116 3.72334 -6.18344 3.96917 -6.30183 4.16406C-6.30183 4.16406 -5.52167 3.98099 -4.89448 3.67585C-4.44576 4.07253 -3.63497 5.2982 -3.01291 6.71192C-2.22984 8.49155 -1.93154 10.1423 -1.70216 11.4116C-1.65821 11.6548 -1.61678 11.8841 -1.57496 12.0975C-1.53314 11.8841 -1.49172 11.6548 -1.44776 11.4116C-1.21838 10.1423 -0.920088 8.49155 -0.137014 6.71192C0.485048 5.2982 1.29583 4.07253 1.74455 3.67585C2.37174 3.98099 3.15191 4.16406 3.15191 4.16406C3.03352 3.96917 2.87124 3.72334 2.67511 3.42624L2.6751 3.42622C2.1701 2.66123 1.44073 1.55632 0.658445 0.105803C-0.00441933 -1.12329 -1.03517 -3.2058 -1.57496 -4.37693ZM-1.5749 1.1585C-1.97263 1.75351 -2.77727 2.45837 -3.18112 2.77571C-1.78907 5.6287 -1.5902 8.11553 -1.5902 8.11553C-1.5902 8.11553 -1.37604 5.6287 0.016016 2.77571C-0.387835 2.45837 -1.17717 1.75351 -1.5749 1.1585ZM-16.9711 22.1567C-15.6843 22.038 -13.3607 21.8884 -11.962 21.8471C-10.3113 21.7985 -8.98717 21.8768 -8.07037 21.931L-8.07009 21.931L-8.06962 21.9311L-8.06952 21.9311C-7.71384 21.9521 -7.41952 21.9695 -7.19127 21.9744C-7.19127 21.9744 -7.74067 21.3916 -8.31944 21.002C-8.1997 20.416 -7.54155 19.1028 -6.62572 17.8587C-5.47284 16.2927 -4.18925 15.2101 -3.20223 14.3776L-3.20197 14.3774L-3.20189 14.3773L-3.20115 14.3767C-3.0124 14.2175 -2.83451 14.0674 -2.67046 13.9249C-2.87639 13.9953 -3.09578 14.0739 -3.32856 14.1574L-3.32863 14.1574L-3.32914 14.1576L-3.32956 14.1577C-4.54619 14.5937 -6.12837 15.1607 -8.06511 15.3731C-9.60363 15.5418 -11.0734 15.4535 -11.6423 15.2639C-11.6913 14.5693 -11.9229 13.8036 -11.9229 13.8036C-12.0328 14.0032 -12.1649 14.2662 -12.3245 14.584L-12.3246 14.5841L-12.3247 14.5842L-12.3247 14.5842L-12.3247 14.5843C-12.736 15.4031 -13.3301 16.5855 -14.1977 17.9865C-14.9328 19.1735 -16.2246 21.105 -16.9711 22.1567ZM-12.1659 19.3907C-11.4503 19.4372 -10.4357 19.7805 -9.95808 19.9709C-8.17818 17.3421 -6.11892 15.9275 -6.11892 15.9275C-6.11892 15.9275 -8.38491 16.985 -11.5583 17.2075C-11.6317 17.7151 -11.8485 18.7496 -12.1659 19.3907ZM-14.1976 8.6832C-14.9328 7.49615 -16.2246 5.5647 -16.971 4.51299C-15.6843 4.63163 -13.3607 4.78131 -11.962 4.82254C-10.3113 4.87119 -8.98716 4.79287 -8.07036 4.73865L-8.0703 4.73865C-7.71426 4.71759 -7.41967 4.70017 -7.19125 4.69522C-7.19125 4.69522 -7.74064 5.27804 -8.31942 5.66765C-8.19968 6.25369 -7.54153 7.56688 -6.6257 8.81092C-5.47282 10.377 -4.18923 11.4596 -3.20221 12.2921C-3.01306 12.4516 -2.8348 12.6019 -2.67044 12.7448C-2.87636 12.6743 -3.09574 12.5957 -3.3285 12.5123L-3.32879 12.5122L-3.32937 12.512L-3.32954 12.512C-4.54617 12.076 -6.12835 11.509 -8.06509 11.2966C-9.60361 11.1278 -11.0734 11.2161 -11.6423 11.4058C-11.6913 12.1003 -11.9229 12.8661 -11.9229 12.8661C-12.0328 12.6664 -12.165 12.4033 -12.3247 12.0853C-12.736 11.2666 -13.3301 10.0841 -14.1976 8.6832ZM-11.5659 9.47562C-11.6393 8.96797 -11.8484 7.92025 -12.1658 7.27914C-11.4502 7.23269 -10.4433 6.90263 -9.96566 6.71213C-8.18576 9.34103 -6.13415 10.7688 -6.13415 10.7688C-6.13415 10.7688 -8.39249 9.69803 -11.5659 9.47562ZM-1.57491 31.0466C-1.03512 29.8755 -0.00436974 27.793 0.658495 26.5639C1.44079 25.1134 2.17017 24.0084 2.67516 23.2435C2.87129 22.9463 3.03357 22.7005 3.15196 22.5056C3.15196 22.5056 2.37179 22.6887 1.7446 22.9938C1.29588 22.5972 0.4851 21.3715 -0.136965 19.9578C-0.920036 18.1781 -1.21833 16.5274 -1.44771 15.2581C-1.49166 15.0149 -1.53309 14.7856 -1.57491 14.5722C-1.61673 14.7856 -1.65815 15.0148 -1.7021 15.2581L-1.70211 15.2581L-1.70211 15.2581L-1.70211 15.2581L-1.70211 15.2581C-1.93149 16.5274 -2.22979 18.1781 -3.01286 19.9578C-3.63492 21.3715 -4.44571 22.5972 -4.89443 22.9938C-5.52162 22.6887 -6.30178 22.5056 -6.30178 22.5056C-6.18339 22.7005 -6.02111 22.9464 -5.82498 23.2435C-5.31999 24.0084 -4.59061 25.1134 -3.80832 26.5639C-3.14545 27.793 -2.1147 29.8755 -1.57491 31.0466ZM-1.57488 25.5112C-1.17715 24.9162 -0.372517 24.2114 0.031332 23.894C-1.36072 21.041 -1.55959 18.5542 -1.55959 18.5542C-1.55959 18.5542 -1.77375 21.041 -3.1658 23.894C-2.76195 24.2114 -1.97261 24.9162 -1.57488 25.5112ZM8.81209 4.82249C10.2108 4.78127 12.5344 4.63159 13.8211 4.51295C13.0747 5.56466 11.7829 7.49611 11.0477 8.68316C10.1802 10.084 9.58611 11.2665 9.17481 12.0852L9.17478 12.0853L9.17474 12.0854L9.17461 12.0856L9.17458 12.0857C9.01493 12.4035 8.88282 12.6664 8.77295 12.866C8.77295 12.866 8.5414 12.1003 8.49236 11.4057C7.92344 11.2161 6.4537 11.1278 4.91518 11.2965C2.97844 11.5089 1.39626 12.0759 0.179626 12.5119C-0.0535202 12.5955 -0.273245 12.6742 -0.479465 12.7447C-0.315105 12.6019 -0.136848 12.4516 0.0522995 12.292C1.03932 11.4595 2.32291 10.3769 3.47579 8.81088C4.39162 7.56684 5.04977 6.25365 5.16951 5.66761C4.59074 5.278 4.04134 4.69518 4.04134 4.69518C4.26976 4.70012 4.56436 4.71755 4.9204 4.7386L4.92045 4.73861C5.83725 4.79283 7.16142 4.87115 8.81209 4.82249ZM6.80823 6.6986C7.28584 6.8891 8.30047 7.23238 9.01607 7.27884C8.69862 7.91995 8.48182 8.95444 8.40848 9.46209C5.23506 9.68451 2.96907 10.7421 2.96907 10.7421C2.96907 10.7421 5.02833 9.3275 6.80823 6.6986ZM13.8212 22.1567C13.0748 21.105 11.783 19.1735 11.0478 17.9865C10.1802 16.5856 9.58618 15.4031 9.17488 14.5844L9.17485 14.5844C9.01512 14.2664 8.88295 14.0033 8.77302 13.8036C8.77302 13.8036 8.54147 14.5694 8.49243 15.2639C7.92352 15.4535 6.45377 15.5419 4.91525 15.3731C2.97852 15.1607 1.39633 14.5937 0.179699 14.1577L0.179522 14.1577L0.179132 14.1575C-0.0538044 14.0741 -0.273338 13.9954 -0.479393 13.9249C-0.315033 14.0677 -0.136776 14.2181 0.052372 14.3776C1.0394 15.2101 2.32299 16.2927 3.47586 17.8588C4.3917 19.1028 5.04984 20.416 5.16959 21.002C4.59081 21.3916 4.04142 21.9745 4.04142 21.9745C4.26968 21.9695 4.56402 21.9521 4.91973 21.9311L4.92024 21.9311L4.92052 21.931C5.83732 21.8768 7.1615 21.7985 8.81216 21.8472C10.2108 21.8884 12.5345 22.0381 13.8212 22.1567ZM9.01598 19.3907C8.69854 18.7496 8.4894 17.7019 8.41606 17.1943C5.24264 16.9719 2.9843 15.9011 2.9843 15.9011C2.9843 15.9011 5.03591 17.3289 6.8158 19.9578C7.29342 19.7673 8.30039 19.4372 9.01598 19.3907ZM-4.32845 8.67999L-4.54261 10.6939L-1.72791 13.2722L-5.30748 12.2043L-6.94429 13.3485L-5.30748 14.6148L-1.72791 13.4095L-4.54261 16.0489L-4.32845 18.0933L-2.41629 17.2237L-1.60553 13.4706L-0.74888 17.2237L1.17858 18.0933L1.39274 16.0489L-1.46785 13.4095L2.08112 14.6148L3.85561 13.3485L2.08112 12.2043L-1.46785 13.2722L1.17858 10.6939V8.67999L-0.74888 9.51911L-1.60553 13.1349L-2.41629 9.51911L-4.32845 8.67999Z" fill="#87E7EB"/>
</g>
<g filter="url(#filter1_d_1230_10693)">
<path fill-rule="evenodd" clip-rule="evenodd" d="M-1.57494 34.2637C-2.11473 35.4348 -3.14548 37.5173 -3.80835 38.7464C-4.59063 40.1969 -5.32001 41.3019 -5.82501 42.0668L-5.82502 42.0669C-6.02114 42.364 -6.18342 42.6098 -6.30181 42.8047C-6.30181 42.8047 -5.52165 42.6216 -4.89446 42.3165C-4.44574 42.7132 -3.63495 43.9388 -3.01289 45.3525C-2.22982 47.1322 -1.93152 48.7829 -1.70214 50.0522L-1.70214 50.0522L-1.70214 50.0522L-1.70214 50.0522L-1.70213 50.0523C-1.65818 50.2955 -1.61676 50.5247 -1.57494 50.7381C-1.53312 50.5247 -1.49169 50.2954 -1.44774 50.0522C-1.21836 48.7829 -0.920067 47.1322 -0.136995 45.3525C0.485069 43.9388 1.29585 42.7132 1.74458 42.3165C2.37177 42.6216 3.15193 42.8047 3.15193 42.8047C3.03354 42.6098 2.87126 42.364 2.67513 42.0669C2.17014 41.3019 1.44076 40.197 0.658466 38.7464C-0.00439835 37.5173 -1.03515 35.4348 -1.57494 34.2637ZM-1.57494 39.7992C-1.97267 40.3942 -2.77731 41.099 -3.18116 41.4164C-1.78911 44.2694 -1.59024 46.7562 -1.59024 46.7562C-1.59024 46.7562 -1.37608 44.2694 0.015974 41.4164C-0.387873 41.099 -1.17721 40.3942 -1.57494 39.7992ZM-16.9711 60.7976C-15.6843 60.679 -13.3607 60.5293 -11.962 60.488C-10.3113 60.4394 -8.98717 60.5177 -8.07037 60.5719C-7.71431 60.593 -7.4197 60.6104 -7.19127 60.6154C-7.19127 60.6154 -7.74066 60.0325 -8.31944 59.6429C-8.1997 59.0569 -7.54155 57.7437 -6.62572 56.4997C-5.47284 54.9336 -4.18925 53.851 -3.20223 53.0185L-3.20198 53.0183L-3.20178 53.0181C-3.0128 52.8587 -2.83469 52.7085 -2.67046 52.5658C-2.87667 52.6363 -3.09638 52.7151 -3.32951 52.7986L-3.32955 52.7986C-4.54618 53.2346 -6.12837 53.8016 -8.0651 54.014C-9.60363 54.1828 -11.0734 54.0944 -11.6423 53.9048C-11.6913 53.2103 -11.9229 52.4445 -11.9229 52.4445C-12.0328 52.6442 -12.165 52.9073 -12.3247 53.2252C-12.736 54.044 -13.3301 55.2265 -14.1977 56.6274C-14.9328 57.8144 -16.2246 59.7459 -16.9711 60.7976ZM-12.1659 58.0316C-11.4503 58.078 -10.4357 58.4213 -9.95808 58.6118C-8.17818 55.9829 -6.11892 54.5683 -6.11892 54.5683C-6.11892 54.5683 -8.38491 55.6259 -11.5583 55.8483C-11.6317 56.356 -11.8485 57.3905 -12.1659 58.0316ZM-14.1976 47.3239C-14.9328 46.1368 -16.2246 44.2054 -16.971 43.1537C-15.6843 43.2723 -13.3607 43.422 -11.962 43.4632C-10.3113 43.5119 -8.98713 43.4335 -8.07033 43.3793L-8.07028 43.3793C-7.71425 43.3583 -7.41965 43.3408 -7.19123 43.3359C-7.19123 43.3359 -7.74062 43.9187 -8.3194 44.3083C-8.19966 44.8944 -7.54151 46.2076 -6.62568 47.4516C-5.4728 49.0176 -4.18921 50.1003 -3.20218 50.9327L-3.20196 50.9329L-3.20095 50.9338C-3.01226 51.0929 -2.83442 51.2429 -2.67042 51.3854C-2.87625 51.315 -3.09554 51.2365 -3.3282 51.1531L-3.3283 51.1531L-3.32832 51.1531L-3.32859 51.153L-3.32909 51.1528L-3.32952 51.1526C-4.54615 50.7166 -6.12833 50.1496 -8.06507 49.9372C-9.60359 49.7685 -11.0733 49.8568 -11.6422 50.0464C-11.6913 50.741 -11.9228 51.5068 -11.9228 51.5068C-12.0328 51.3071 -12.1649 51.044 -12.3247 50.726L-12.3247 50.726C-12.736 49.9073 -13.33 48.7248 -14.1976 47.3239ZM-11.5659 48.1163C-11.6392 47.6087 -11.8484 46.561 -12.1658 45.9199C-11.4502 45.8734 -10.4433 45.5433 -9.96564 45.3528C-8.18574 47.9817 -6.13413 49.4095 -6.13413 49.4095C-6.13413 49.4095 -8.39247 48.3387 -11.5659 48.1163ZM-1.57489 69.6872C-1.0351 68.5161 -0.00434303 66.4336 0.658522 65.2045C1.44081 63.754 2.1702 62.6491 2.67519 61.8841L2.67528 61.8839L2.6754 61.8838L2.67563 61.8834C2.87156 61.5866 3.03368 61.341 3.15198 61.1463C3.15198 61.1463 2.37182 61.3293 1.74463 61.6345C1.29591 61.2378 0.485126 60.0121 -0.136938 58.5984C-0.92001 56.8188 -1.2183 55.1681 -1.44768 53.8988L-1.44768 53.8987L-1.44769 53.8987L-1.44769 53.8987L-1.44769 53.8987C-1.49164 53.6555 -1.53307 53.4262 -1.57488 53.2128C-1.6167 53.4263 -1.65813 53.6555 -1.70209 53.8987C-1.93146 55.1681 -2.22976 56.8188 -3.01283 58.5984C-3.6349 60.0121 -4.44568 61.2378 -4.8944 61.6345C-5.52159 61.3293 -6.30175 61.1463 -6.30175 61.1463C-6.18336 61.3411 -6.02108 61.587 -5.82496 61.8841C-5.31996 62.6491 -4.59058 63.754 -3.80829 65.2045C-3.14543 66.4336 -2.11467 68.5161 -1.57489 69.6872ZM-1.57485 64.1516C-1.17712 63.5565 -0.37248 62.8517 0.0313683 62.5343C-1.36069 59.6814 -1.55955 57.1945 -1.55955 57.1945C-1.55955 57.1945 -1.77371 59.6814 -3.16577 62.5343C-2.76192 62.8517 -1.97258 63.5565 -1.57485 64.1516ZM8.81217 43.4636C10.2108 43.4224 12.5345 43.2727 13.8212 43.1541C13.0748 44.2058 11.783 46.1373 11.0478 47.3243C10.1802 48.7252 9.58616 49.9077 9.17486 50.7264C9.01512 51.0444 8.88295 51.3075 8.77303 51.5072C8.77303 51.5072 8.54148 50.7414 8.49243 50.0469C7.92352 49.8573 6.45377 49.7689 4.91525 49.9377C2.97852 50.1501 1.39634 50.7171 0.179707 51.1531C-0.0534439 51.2366 -0.273167 51.3154 -0.479389 51.3859C-0.315029 51.2431 -0.136772 51.0927 0.0523758 50.9332C1.0394 50.1007 2.32299 49.0181 3.47587 47.452C4.3917 46.208 5.04985 44.8948 5.16959 44.3088C4.59081 43.9191 4.04142 43.3363 4.04142 43.3363C4.26985 43.3413 4.56447 43.3587 4.92052 43.3798C5.83733 43.434 7.1615 43.5123 8.81217 43.4636ZM6.8083 45.3399C7.28592 45.5304 8.30054 45.8737 9.01614 45.9201C8.69869 46.5612 8.4819 47.5957 8.40856 48.1034C5.23513 48.3258 2.96914 49.3833 2.96914 49.3833C2.96914 49.3833 5.0284 47.9688 6.8083 45.3399ZM13.8213 60.7969C13.0749 59.7452 11.783 57.8137 11.0479 56.6267C10.1803 55.2258 9.58626 54.0433 9.17496 53.2246L9.17494 53.2245C9.01521 52.9066 8.88303 52.6435 8.77311 52.4438C8.77311 52.4438 8.54156 53.2095 8.49252 53.9041C7.9236 54.0937 6.45386 54.182 4.91534 54.0133C2.97861 53.8009 1.39642 53.2339 0.17979 52.7979L0.179739 52.7979C-0.0533905 52.7144 -0.273102 52.6356 -0.479309 52.5651C-0.314951 52.7079 -0.136696 52.8583 0.0524521 53.0178C1.03948 53.8503 2.32307 54.9329 3.47595 56.4989C4.39178 57.743 5.04993 59.0562 5.16967 59.6422C4.5909 60.0318 4.0415 60.6146 4.0415 60.6146C4.26993 60.6097 4.56454 60.5923 4.9206 60.5712C5.8374 60.517 7.16158 60.4387 8.81225 60.4873C10.2109 60.5286 12.5345 60.6782 13.8213 60.7969ZM9.01607 58.0309C8.69862 57.3898 8.48948 56.3421 8.41614 55.8344C5.24272 55.612 2.98438 54.5412 2.98438 54.5412C2.98438 54.5412 5.03599 55.969 6.81589 58.5979C7.2935 58.4074 8.30047 58.0773 9.01607 58.0309ZM-4.32843 47.3206L-4.54259 49.3345L-1.72788 51.9129L-5.30746 50.8449L-6.94427 51.9891L-5.30746 53.2554L-1.72788 52.0502L-4.54259 54.6896L-4.32843 56.7339L-2.41626 55.8643L-1.60551 52.1112L-0.748857 55.8643L1.1786 56.7339L1.39277 54.6896L-1.46783 52.0502L2.08114 53.2554L3.85563 51.9891L2.08114 50.8449L-1.46783 51.9129L1.1786 49.3345V47.3206L-0.748857 48.1597L-1.60551 51.7755L-2.41626 48.1597L-4.32843 47.3206Z" fill="#87E7EB"/>
</g>
<g filter="url(#filter2_d_1230_10693)">
<path fill-rule="evenodd" clip-rule="evenodd" d="M-1.57494 72.9033C-2.11473 74.0745 -3.14548 76.157 -3.80835 77.3861C-4.59063 78.8366 -5.32001 79.9415 -5.82501 80.7065L-5.82502 80.7065C-6.02114 81.0036 -6.18342 81.2494 -6.30181 81.4443C-6.30181 81.4443 -5.52165 81.2613 -4.89446 80.9561C-4.44574 81.3528 -3.63495 82.5785 -3.01289 83.9922C-2.22982 85.7718 -1.93152 87.4225 -1.70214 88.6918L-1.70214 88.6919L-1.70214 88.6919L-1.70214 88.6919L-1.70213 88.6919C-1.65818 88.9351 -1.61676 89.1643 -1.57494 89.3778C-1.53312 89.1643 -1.49169 88.9351 -1.44774 88.6918C-1.21836 87.4225 -0.920067 85.7718 -0.136995 83.9922C0.485069 82.5785 1.29585 81.3528 1.74458 80.9561C2.37177 81.2613 3.15193 81.4443 3.15193 81.4443C3.03354 81.2494 2.87126 81.0036 2.67513 80.7065C2.17014 79.9415 1.44076 78.8366 0.658466 77.3861C-0.00439835 76.157 -1.03515 74.0745 -1.57494 72.9033ZM-1.57494 78.4388C-1.97267 79.0338 -2.77731 79.7387 -3.18116 80.056C-1.78911 82.909 -1.59024 85.3958 -1.59024 85.3958C-1.59024 85.3958 -1.37608 82.909 0.015974 80.056C-0.387873 79.7387 -1.17721 79.0338 -1.57494 78.4388ZM-16.9711 99.4372C-15.6843 99.3186 -13.3607 99.1689 -11.962 99.1277C-10.3113 99.079 -8.98717 99.1574 -8.07037 99.2116C-7.71431 99.2326 -7.4197 99.2501 -7.19127 99.255C-7.19127 99.255 -7.74066 98.6722 -8.31944 98.2826C-8.1997 97.6965 -7.54155 96.3833 -6.62572 95.1393C-5.47284 93.5733 -4.18925 92.4906 -3.20223 91.6582L-3.20198 91.6579L-3.20178 91.6578C-3.0128 91.4984 -2.83469 91.3482 -2.67046 91.2055C-2.87667 91.276 -3.09638 91.3547 -3.32951 91.4383L-3.32955 91.4383C-4.54618 91.8743 -6.12837 92.4412 -8.0651 92.6537C-9.60363 92.8224 -11.0734 92.7341 -11.6423 92.5445C-11.6913 91.8499 -11.9229 91.0841 -11.9229 91.0841C-12.0328 91.2838 -12.165 91.5469 -12.3247 91.8649C-12.736 92.6836 -13.3301 93.8661 -14.1977 95.267C-14.9328 96.4541 -16.2246 98.3855 -16.9711 99.4372ZM-12.1659 96.6712C-11.4503 96.7177 -10.4357 97.061 -9.95808 97.2515C-8.17818 94.6226 -6.11892 93.208 -6.11892 93.208C-6.11892 93.208 -8.38491 94.2656 -11.5583 94.488C-11.6317 94.9956 -11.8485 96.0301 -12.1659 96.6712ZM-14.1976 85.9635C-14.9328 84.7765 -16.2246 82.845 -16.971 81.7933C-15.6843 81.9119 -13.3607 82.0616 -11.962 82.1029C-10.3113 82.1515 -8.98713 82.0732 -8.07033 82.019L-8.07028 82.019C-7.71425 81.9979 -7.41965 81.9805 -7.19123 81.9755C-7.19123 81.9755 -7.74062 82.5584 -8.3194 82.948C-8.19966 83.534 -7.54151 84.8472 -6.62568 86.0912C-5.4728 87.6573 -4.18921 88.7399 -3.20218 89.5724L-3.20196 89.5726L-3.20095 89.5734C-3.01226 89.7326 -2.83442 89.8826 -2.67042 90.0251C-2.87625 89.9547 -3.09554 89.8761 -3.3282 89.7927L-3.3283 89.7927L-3.32832 89.7927L-3.32859 89.7926L-3.32909 89.7924L-3.32952 89.7923C-4.54615 89.3563 -6.12833 88.7893 -8.06507 88.5769C-9.60359 88.4081 -11.0733 88.4965 -11.6422 88.6861C-11.6913 89.3806 -11.9228 90.1464 -11.9228 90.1464C-12.0328 89.9467 -12.1649 89.6836 -12.3247 89.3656L-12.3247 89.3656C-12.736 88.5469 -13.33 87.3644 -14.1976 85.9635ZM-11.5659 86.756C-11.6392 86.2483 -11.8484 85.2006 -12.1658 84.5595C-11.4502 84.513 -10.4433 84.183 -9.96564 83.9925C-8.18574 86.6214 -6.13413 88.0492 -6.13413 88.0492C-6.13413 88.0492 -8.39247 86.9784 -11.5659 86.756ZM-1.57489 108.327C-1.0351 107.156 -0.00434303 105.073 0.658522 103.844C1.44081 102.394 2.1702 101.289 2.67519 100.524L2.67528 100.524L2.6754 100.523L2.67563 100.523C2.87156 100.226 3.03368 99.9806 3.15198 99.7859C3.15198 99.7859 2.37182 99.969 1.74463 100.274C1.29591 99.8774 0.485126 98.6518 -0.136938 97.238C-0.92001 95.4584 -1.2183 93.8077 -1.44768 92.5384L-1.44768 92.5384L-1.44769 92.5384L-1.44769 92.5383L-1.44769 92.5383C-1.49164 92.2951 -1.53307 92.0659 -1.57488 91.8525C-1.6167 92.0659 -1.65813 92.2952 -1.70209 92.5384C-1.93146 93.8077 -2.22976 95.4584 -3.01283 97.238C-3.6349 98.6518 -4.44568 99.8774 -4.8944 100.274C-5.52159 99.969 -6.30175 99.7859 -6.30175 99.7859C-6.18336 99.9808 -6.02108 100.227 -5.82496 100.524C-5.31996 101.289 -4.59058 102.394 -3.80829 103.844C-3.14543 105.073 -2.11467 107.156 -1.57489 108.327ZM-1.57485 102.791C-1.17712 102.196 -0.37248 101.491 0.0313683 101.174C-1.36069 98.321 -1.55955 95.8342 -1.55955 95.8342C-1.55955 95.8342 -1.77371 98.321 -3.16577 101.174C-2.76192 101.491 -1.97258 102.196 -1.57485 102.791ZM8.81217 82.1033C10.2108 82.0621 12.5345 81.9124 13.8212 81.7937C13.0748 82.8455 11.783 84.7769 11.0478 85.964C10.1802 87.3649 9.58616 88.5474 9.17486 89.3661C9.01512 89.684 8.88295 89.9471 8.77303 90.1468C8.77303 90.1468 8.54148 89.3811 8.49243 88.6865C7.92352 88.4969 6.45377 88.4086 4.91525 88.5773C2.97852 88.7897 1.39634 89.3567 0.179707 89.7927C-0.0534439 89.8763 -0.273167 89.955 -0.479389 90.0255C-0.315029 89.8827 -0.136772 89.7324 0.0523758 89.5728C1.0394 88.7403 2.32299 87.6577 3.47587 86.0917C4.3917 84.8476 5.04985 83.5344 5.16959 82.9484C4.59081 82.5588 4.04142 81.976 4.04142 81.976C4.26985 81.9809 4.56447 81.9983 4.92052 82.0194C5.83733 82.0736 7.1615 82.1519 8.81217 82.1033ZM6.8083 83.9795C7.28592 84.17 8.30054 84.5133 9.01614 84.5598C8.69869 85.2009 8.4819 86.2354 8.40856 86.743C5.23513 86.9654 2.96914 88.023 2.96914 88.023C2.96914 88.023 5.0284 86.6084 6.8083 83.9795ZM13.8213 99.4365C13.0749 98.3848 11.783 96.4534 11.0479 95.2663C10.1803 93.8654 9.58626 92.6829 9.17496 91.8642L9.17494 91.8642C9.01521 91.5462 8.88303 91.2831 8.77311 91.0834C8.77311 91.0834 8.54156 91.8492 8.49252 92.5437C7.9236 92.7334 6.45386 92.8217 4.91534 92.653C2.97861 92.4405 1.39642 91.8736 0.17979 91.4376L0.179739 91.4375C-0.0533905 91.354 -0.273102 91.2753 -0.479309 91.2048C-0.314951 91.3476 -0.136696 91.4979 0.0524521 91.6574C1.03948 92.4899 2.32307 93.5726 3.47595 95.1386C4.39178 96.3826 5.04993 97.6958 5.16967 98.2819C4.5909 98.6715 4.0415 99.2543 4.0415 99.2543C4.26993 99.2493 4.56454 99.2319 4.9206 99.2109C5.8374 99.1566 7.16158 99.0783 8.81225 99.127C10.2109 99.1682 12.5345 99.3179 13.8213 99.4365ZM9.01607 96.6705C8.69862 96.0294 8.48948 94.9817 8.41614 94.4741C5.24272 94.2516 2.98438 93.1809 2.98438 93.1809C2.98438 93.1809 5.03599 94.6086 6.81589 97.2375C7.2935 97.047 8.30047 96.717 9.01607 96.6705ZM-4.32843 85.9603L-4.54259 87.9741L-1.72788 90.5525L-5.30746 89.4845L-6.94427 90.6288L-5.30746 91.8951L-1.72788 90.6898L-4.54259 93.3292L-4.32843 95.3736L-2.41626 94.504L-1.60551 90.7508L-0.748857 94.504L1.1786 95.3736L1.39277 93.3292L-1.46783 90.6898L2.08114 91.8951L3.85563 90.6288L2.08114 89.4845L-1.46783 90.5525L1.1786 87.9741V85.9603L-0.748857 86.7994L-1.60551 90.4152L-2.41626 86.7994L-4.32843 85.9603Z" fill="#87E7EB"/>
</g>
<g filter="url(#filter3_d_1230_10693)">
<path fill-rule="evenodd" clip-rule="evenodd" d="M-1.57494 111.543C-2.11473 112.714 -3.14548 114.797 -3.80835 116.026C-4.59063 117.476 -5.32001 118.581 -5.82501 119.346L-5.82502 119.346C-6.02114 119.643 -6.18342 119.889 -6.30181 120.084C-6.30181 120.084 -5.52165 119.901 -4.89446 119.596C-4.44574 119.992 -3.63495 121.218 -3.01289 122.632C-2.22982 124.411 -1.93152 126.062 -1.70214 127.331L-1.70214 127.332L-1.70214 127.332L-1.70214 127.332L-1.70213 127.332C-1.65818 127.575 -1.61676 127.804 -1.57494 128.017C-1.53312 127.804 -1.49169 127.575 -1.44774 127.331C-1.21836 126.062 -0.920067 124.411 -0.136995 122.632C0.485069 121.218 1.29585 119.992 1.74458 119.596C2.37177 119.901 3.15193 120.084 3.15193 120.084C3.03354 119.889 2.87126 119.643 2.67513 119.346C2.17014 118.581 1.44076 117.476 0.658466 116.026C-0.00439835 114.797 -1.03515 112.714 -1.57494 111.543ZM-1.57494 117.078C-1.97267 117.673 -2.77731 118.378 -3.18116 118.696C-1.78911 121.549 -1.59024 124.035 -1.59024 124.035C-1.59024 124.035 -1.37608 121.549 0.015974 118.696C-0.387873 118.378 -1.17721 117.673 -1.57494 117.078ZM-16.9711 138.077C-15.6843 137.958 -13.3607 137.809 -11.962 137.767C-10.3113 137.719 -8.98717 137.797 -8.07037 137.851C-7.71431 137.872 -7.4197 137.89 -7.19127 137.895C-7.19127 137.895 -7.74066 137.312 -8.31944 136.922C-8.1997 136.336 -7.54155 135.023 -6.62572 133.779C-5.47284 132.213 -4.18925 131.13 -3.20223 130.298L-3.20198 130.298L-3.20178 130.297C-3.0128 130.138 -2.83469 129.988 -2.67046 129.845C-2.87667 129.916 -3.09638 129.994 -3.32951 130.078L-3.32955 130.078C-4.54618 130.514 -6.12837 131.081 -8.0651 131.293C-9.60363 131.462 -11.0734 131.374 -11.6423 131.184C-11.6913 130.49 -11.9229 129.724 -11.9229 129.724C-12.0328 129.923 -12.165 130.187 -12.3247 130.505C-12.736 131.323 -13.3301 132.506 -14.1977 133.907C-14.9328 135.094 -16.2246 137.025 -16.9711 138.077ZM-12.1659 135.311C-11.4503 135.357 -10.4357 135.701 -9.95808 135.891C-8.17818 133.262 -6.11892 131.848 -6.11892 131.848C-6.11892 131.848 -8.38491 132.905 -11.5583 133.128C-11.6317 133.635 -11.8485 134.67 -12.1659 135.311ZM-14.1976 124.603C-14.9328 123.416 -16.2246 121.485 -16.971 120.433C-15.6843 120.552 -13.3607 120.701 -11.962 120.743C-10.3113 120.791 -8.98713 120.713 -8.07033 120.659L-8.07028 120.659C-7.71425 120.638 -7.41965 120.62 -7.19123 120.615C-7.19123 120.615 -7.74062 121.198 -8.3194 121.588C-8.19966 122.174 -7.54151 123.487 -6.62568 124.731C-5.4728 126.297 -4.18921 127.38 -3.20218 128.212L-3.20196 128.212L-3.20095 128.213C-3.01226 128.372 -2.83442 128.522 -2.67042 128.665C-2.87625 128.594 -3.09554 128.516 -3.3282 128.432L-3.3283 128.432L-3.32832 128.432L-3.32859 128.432L-3.32909 128.432L-3.32952 128.432C-4.54615 127.996 -6.12833 127.429 -8.06507 127.217C-9.60359 127.048 -11.0733 127.136 -11.6422 127.326C-11.6913 128.02 -11.9228 128.786 -11.9228 128.786C-12.0328 128.586 -12.1649 128.323 -12.3247 128.005L-12.3247 128.005C-12.736 127.187 -13.33 126.004 -14.1976 124.603ZM-11.5659 125.396C-11.6392 124.888 -11.8484 123.84 -12.1658 123.199C-11.4502 123.153 -10.4433 122.823 -9.96564 122.632C-8.18574 125.261 -6.13413 126.689 -6.13413 126.689C-6.13413 126.689 -8.39247 125.618 -11.5659 125.396ZM-1.57489 146.967C-1.0351 145.795 -0.00434303 143.713 0.658522 142.484C1.44081 141.033 2.1702 139.928 2.67519 139.163L2.67528 139.163L2.6754 139.163L2.67563 139.163C2.87156 138.866 3.03368 138.62 3.15198 138.426C3.15198 138.426 2.37182 138.609 1.74463 138.914C1.29591 138.517 0.485126 137.291 -0.136938 135.878C-0.92001 134.098 -1.2183 132.447 -1.44768 131.178L-1.44768 131.178L-1.44769 131.178L-1.44769 131.178L-1.44769 131.178C-1.49164 130.935 -1.53307 130.706 -1.57488 130.492C-1.6167 130.706 -1.65813 130.935 -1.70209 131.178C-1.93146 132.447 -2.22976 134.098 -3.01283 135.878C-3.6349 137.291 -4.44568 138.517 -4.8944 138.914C-5.52159 138.609 -6.30175 138.426 -6.30175 138.426C-6.18336 138.62 -6.02108 138.866 -5.82496 139.163C-5.31996 139.928 -4.59058 141.033 -3.80829 142.484C-3.14543 143.713 -2.11467 145.795 -1.57489 146.967ZM-1.57485 141.431C-1.17712 140.836 -0.37248 140.131 0.0313683 139.814C-1.36069 136.961 -1.55955 134.474 -1.55955 134.474C-1.55955 134.474 -1.77371 136.961 -3.16577 139.814C-2.76192 140.131 -1.97258 140.836 -1.57485 141.431ZM8.81217 120.743C10.2108 120.702 12.5345 120.552 13.8212 120.433C13.0748 121.485 11.783 123.417 11.0478 124.604C10.1802 126.005 9.58616 127.187 9.17486 128.006C9.01512 128.324 8.88295 128.587 8.77303 128.786C8.77303 128.786 8.54148 128.021 8.49243 127.326C7.92352 127.137 6.45377 127.048 4.91525 127.217C2.97852 127.429 1.39634 127.996 0.179707 128.432C-0.0534439 128.516 -0.273167 128.595 -0.479389 128.665C-0.315029 128.522 -0.136772 128.372 0.0523758 128.212C1.0394 127.38 2.32299 126.297 3.47587 124.731C4.3917 123.487 5.04985 122.174 5.16959 121.588C4.59081 121.198 4.04142 120.616 4.04142 120.616C4.26985 120.621 4.56447 120.638 4.92052 120.659C5.83733 120.713 7.1615 120.792 8.81217 120.743ZM6.8083 122.619C7.28592 122.81 8.30054 123.153 9.01614 123.199C8.69869 123.841 8.4819 124.875 8.40856 125.383C5.23513 125.605 2.96914 126.663 2.96914 126.663C2.96914 126.663 5.0284 125.248 6.8083 122.619ZM13.8213 138.076C13.0749 137.024 11.783 135.093 11.0479 133.906C10.1803 132.505 9.58626 131.323 9.17496 130.504L9.17494 130.504C9.01521 130.186 8.88303 129.923 8.77311 129.723C8.77311 129.723 8.54156 130.489 8.49252 131.183C7.9236 131.373 6.45386 131.461 4.91534 131.293C2.97861 131.08 1.39642 130.513 0.17979 130.077L0.179739 130.077C-0.0533905 129.994 -0.273102 129.915 -0.479309 129.844C-0.314951 129.987 -0.136696 130.138 0.0524521 130.297C1.03948 131.13 2.32307 132.212 3.47595 133.778C4.39178 135.022 5.04993 136.335 5.16967 136.922C4.5909 137.311 4.0415 137.894 4.0415 137.894C4.26993 137.889 4.56454 137.872 4.9206 137.851C5.8374 137.796 7.16158 137.718 8.81225 137.767C10.2109 137.808 12.5345 137.958 13.8213 138.076ZM9.01607 135.31C8.69862 134.669 8.48948 133.621 8.41614 133.114C5.24272 132.891 2.98438 131.82 2.98438 131.82C2.98438 131.82 5.03599 133.248 6.81589 135.877C7.2935 135.687 8.30047 135.357 9.01607 135.31ZM-4.32843 124.6L-4.54259 126.614L-1.72788 129.192L-5.30746 128.124L-6.94427 129.268L-5.30746 130.535L-1.72788 129.329L-4.54259 131.969L-4.32843 134.013L-2.41626 133.144L-1.60551 129.39L-0.748857 133.144L1.1786 134.013L1.39277 131.969L-1.46783 129.329L2.08114 130.535L3.85563 129.268L2.08114 128.124L-1.46783 129.192L1.1786 126.614V124.6L-0.748857 125.439L-1.60551 129.055L-2.41626 125.439L-4.32843 124.6Z" fill="#87E7EB"/>
</g>
<g filter="url(#filter4_d_1230_10693)">
<path fill-rule="evenodd" clip-rule="evenodd" d="M-1.57494 150.184C-2.11473 151.355 -3.14548 153.437 -3.80835 154.666C-4.59063 156.117 -5.32001 157.222 -5.82501 157.987L-5.82502 157.987C-6.02114 158.284 -6.18342 158.53 -6.30181 158.725C-6.30181 158.725 -5.52165 158.542 -4.89446 158.236C-4.44574 158.633 -3.63495 159.859 -3.01289 161.272C-2.22982 163.052 -1.93152 164.703 -1.70214 165.972L-1.70214 165.972L-1.70214 165.972L-1.70214 165.972L-1.70213 165.972C-1.65818 166.215 -1.61676 166.445 -1.57494 166.658C-1.53312 166.445 -1.49169 166.215 -1.44774 165.972C-1.21836 164.703 -0.920067 163.052 -0.136995 161.272C0.485069 159.859 1.29585 158.633 1.74458 158.236C2.37177 158.542 3.15193 158.725 3.15193 158.725C3.03354 158.53 2.87126 158.284 2.67513 157.987C2.17014 157.222 1.44076 156.117 0.658466 154.666C-0.00439835 153.437 -1.03515 151.355 -1.57494 150.184ZM-1.57494 155.719C-1.97267 156.314 -2.77731 157.019 -3.18116 157.336C-1.78911 160.189 -1.59024 162.676 -1.59024 162.676C-1.59024 162.676 -1.37608 160.189 0.015974 157.336C-0.387873 157.019 -1.17721 156.314 -1.57494 155.719ZM-16.9711 176.718C-15.6843 176.599 -13.3607 176.449 -11.962 176.408C-10.3113 176.359 -8.98717 176.438 -8.07037 176.492C-7.71431 176.513 -7.4197 176.53 -7.19127 176.535C-7.19127 176.535 -7.74066 175.952 -8.31944 175.563C-8.1997 174.977 -7.54155 173.664 -6.62572 172.42C-5.47284 170.854 -4.18925 169.771 -3.20223 168.938L-3.20198 168.938L-3.20178 168.938C-3.0128 168.779 -2.83469 168.628 -2.67046 168.486C-2.87667 168.556 -3.09638 168.635 -3.32951 168.719L-3.32955 168.719C-4.54618 169.155 -6.12837 169.722 -8.0651 169.934C-9.60363 170.103 -11.0734 170.014 -11.6423 169.825C-11.6913 169.13 -11.9229 168.364 -11.9229 168.364C-12.0328 168.564 -12.165 168.827 -12.3247 169.145C-12.736 169.964 -13.3301 171.146 -14.1977 172.547C-14.9328 173.734 -16.2246 175.666 -16.9711 176.718ZM-12.1659 173.952C-11.4503 173.998 -10.4357 174.341 -9.95808 174.532C-8.17818 171.903 -6.11892 170.488 -6.11892 170.488C-6.11892 170.488 -8.38491 171.546 -11.5583 171.768C-11.6317 172.276 -11.8485 173.31 -12.1659 173.952ZM-14.1976 163.244C-14.9328 162.057 -16.2246 160.125 -16.971 159.074C-15.6843 159.192 -13.3607 159.342 -11.962 159.383C-10.3113 159.432 -8.98713 159.353 -8.07033 159.299L-8.07028 159.299C-7.71425 159.278 -7.41965 159.261 -7.19123 159.256C-7.19123 159.256 -7.74062 159.839 -8.3194 160.228C-8.19966 160.814 -7.54151 162.127 -6.62568 163.372C-5.4728 164.938 -4.18921 166.02 -3.20218 166.853L-3.20196 166.853L-3.20095 166.854C-3.01226 167.013 -2.83442 167.163 -2.67042 167.305C-2.87625 167.235 -3.09554 167.156 -3.3282 167.073L-3.3283 167.073L-3.32832 167.073L-3.32859 167.073L-3.32909 167.073L-3.32952 167.073C-4.54615 166.637 -6.12833 166.07 -8.06507 165.857C-9.60359 165.688 -11.0733 165.777 -11.6422 165.966C-11.6913 166.661 -11.9228 167.427 -11.9228 167.427C-12.0328 167.227 -12.1649 166.964 -12.3247 166.646L-12.3247 166.646C-12.736 165.827 -13.33 164.645 -14.1976 163.244ZM-11.5659 164.036C-11.6392 163.529 -11.8484 162.481 -12.1658 161.84C-11.4502 161.793 -10.4433 161.463 -9.96564 161.273C-8.18574 163.902 -6.13413 165.329 -6.13413 165.329C-6.13413 165.329 -8.39247 164.259 -11.5659 164.036ZM-1.57489 185.607C-1.0351 184.436 -0.00434303 182.354 0.658522 181.124C1.44081 179.674 2.1702 178.569 2.67519 177.804L2.67528 177.804L2.6754 177.804L2.67563 177.803C2.87156 177.507 3.03368 177.261 3.15198 177.066C3.15198 177.066 2.37182 177.249 1.74463 177.554C1.29591 177.158 0.485126 175.932 -0.136938 174.518C-0.92001 172.739 -1.2183 171.088 -1.44768 169.819L-1.44768 169.819L-1.44769 169.819L-1.44769 169.819L-1.44769 169.819C-1.49164 169.575 -1.53307 169.346 -1.57488 169.133C-1.6167 169.346 -1.65813 169.575 -1.70209 169.819C-1.93146 171.088 -2.22976 172.739 -3.01283 174.518C-3.6349 175.932 -4.44568 177.158 -4.8944 177.554C-5.52159 177.249 -6.30175 177.066 -6.30175 177.066C-6.18336 177.261 -6.02108 177.507 -5.82496 177.804C-5.31996 178.569 -4.59058 179.674 -3.80829 181.124C-3.14543 182.354 -2.11467 184.436 -1.57489 185.607ZM-1.57485 180.071C-1.17712 179.476 -0.37248 178.772 0.0313683 178.454C-1.36069 175.601 -1.55955 173.114 -1.55955 173.114C-1.55955 173.114 -1.77371 175.601 -3.16577 178.454C-2.76192 178.772 -1.97258 179.476 -1.57485 180.071ZM8.81217 159.384C10.2108 159.342 12.5345 159.193 13.8212 159.074C13.0748 160.126 11.783 162.057 11.0478 163.244C10.1802 164.645 9.58616 165.828 9.17486 166.646C9.01512 166.964 8.88295 167.227 8.77303 167.427C8.77303 167.427 8.54148 166.661 8.49243 165.967C7.92352 165.777 6.45377 165.689 4.91525 165.858C2.97852 166.07 1.39634 166.637 0.179707 167.073C-0.0534439 167.157 -0.273167 167.235 -0.479389 167.306C-0.315029 167.163 -0.136772 167.013 0.0523758 166.853C1.0394 166.021 2.32299 164.938 3.47587 163.372C4.3917 162.128 5.04985 160.815 5.16959 160.229C4.59081 159.839 4.04142 159.256 4.04142 159.256C4.26985 159.261 4.56447 159.279 4.92052 159.3C5.83733 159.354 7.1615 159.432 8.81217 159.384ZM6.8083 161.26C7.28592 161.45 8.30054 161.794 9.01614 161.84C8.69869 162.481 8.4819 163.516 8.40856 164.023C5.23513 164.246 2.96914 165.303 2.96914 165.303C2.96914 165.303 5.0284 163.889 6.8083 161.26ZM13.8213 176.717C13.0749 175.665 11.783 173.734 11.0479 172.547C10.1803 171.146 9.58626 169.963 9.17496 169.145L9.17494 169.144C9.01521 168.826 8.88303 168.563 8.77311 168.364C8.77311 168.364 8.54156 169.129 8.49252 169.824C7.9236 170.014 6.45386 170.102 4.91534 169.933C2.97861 169.721 1.39642 169.154 0.17979 168.718L0.179739 168.718C-0.0533905 168.634 -0.273102 168.556 -0.479309 168.485C-0.314951 168.628 -0.136696 168.778 0.0524521 168.938C1.03948 169.77 2.32307 170.853 3.47595 172.419C4.39178 173.663 5.04993 174.976 5.16967 175.562C4.5909 175.952 4.0415 176.535 4.0415 176.535C4.26993 176.53 4.56454 176.512 4.9206 176.491C5.8374 176.437 7.16158 176.359 8.81225 176.407C10.2109 176.448 12.5345 176.598 13.8213 176.717ZM9.01607 173.951C8.69862 173.31 8.48948 172.262 8.41614 171.754C5.24272 171.532 2.98438 170.461 2.98438 170.461C2.98438 170.461 5.03599 171.889 6.81589 174.518C7.2935 174.327 8.30047 173.997 9.01607 173.951ZM-4.32843 163.241L-4.54259 165.254L-1.72788 167.833L-5.30746 166.765L-6.94427 167.909L-5.30746 169.175L-1.72788 167.97L-4.54259 170.609L-4.32843 172.654L-2.41626 171.784L-1.60551 168.031L-0.748857 171.784L1.1786 172.654L1.39277 170.609L-1.46783 167.97L2.08114 169.175L3.85563 167.909L2.08114 166.765L-1.46783 167.833L1.1786 165.254V163.241L-0.748857 164.08L-1.60551 167.695L-2.41626 164.08L-4.32843 163.241Z" fill="#87E7EB"/>
</g>
<g filter="url(#filter5_d_1230_10693)">
<path fill-rule="evenodd" clip-rule="evenodd" d="M-1.57494 188.823C-2.11473 189.994 -3.14548 192.077 -3.80835 193.306C-4.59063 194.757 -5.32001 195.861 -5.82501 196.626L-5.82502 196.626C-6.02114 196.924 -6.18342 197.169 -6.30181 197.364C-6.30181 197.364 -5.52165 197.181 -4.89446 196.876C-4.44574 197.273 -3.63495 198.498 -3.01289 199.912C-2.22982 201.692 -1.93152 203.342 -1.70214 204.612L-1.70214 204.612L-1.70214 204.612L-1.70214 204.612L-1.70213 204.612C-1.65818 204.855 -1.61676 205.084 -1.57494 205.298C-1.53312 205.084 -1.49169 204.855 -1.44774 204.612C-1.21836 203.342 -0.920067 201.692 -0.136995 199.912C0.485069 198.498 1.29585 197.273 1.74458 196.876C2.37177 197.181 3.15193 197.364 3.15193 197.364C3.03354 197.169 2.87126 196.924 2.67513 196.626C2.17014 195.861 1.44076 194.757 0.658466 193.306C-0.00439835 192.077 -1.03515 189.994 -1.57494 188.823ZM-1.57494 194.359C-1.97267 194.954 -2.77731 195.659 -3.18116 195.976C-1.78911 198.829 -1.59024 201.316 -1.59024 201.316C-1.59024 201.316 -1.37608 198.829 0.015974 195.976C-0.387873 195.659 -1.17721 194.954 -1.57494 194.359ZM-16.9711 215.357C-15.6843 215.239 -13.3607 215.089 -11.962 215.048C-10.3113 214.999 -8.98717 215.077 -8.07037 215.131C-7.71431 215.153 -7.4197 215.17 -7.19127 215.175C-7.19127 215.175 -7.74066 214.592 -8.31944 214.202C-8.1997 213.616 -7.54155 212.303 -6.62572 211.059C-5.47284 209.493 -4.18925 208.411 -3.20223 207.578L-3.20198 207.578L-3.20178 207.578C-3.0128 207.418 -2.83469 207.268 -2.67046 207.125C-2.87667 207.196 -3.09638 207.275 -3.32951 207.358L-3.32955 207.358C-4.54618 207.794 -6.12837 208.361 -8.0651 208.574C-9.60363 208.742 -11.0734 208.654 -11.6423 208.464C-11.6913 207.77 -11.9229 207.004 -11.9229 207.004C-12.0328 207.204 -12.165 207.467 -12.3247 207.785C-12.736 208.604 -13.3301 209.786 -14.1977 211.187C-14.9328 212.374 -16.2246 214.305 -16.9711 215.357ZM-12.1659 212.591C-11.4503 212.638 -10.4357 212.981 -9.95808 213.171C-8.17818 210.542 -6.11892 209.128 -6.11892 209.128C-6.11892 209.128 -8.38491 210.185 -11.5583 210.408C-11.6317 210.916 -11.8485 211.95 -12.1659 212.591ZM-14.1976 201.883C-14.9328 200.696 -16.2246 198.765 -16.971 197.713C-15.6843 197.832 -13.3607 197.982 -11.962 198.023C-10.3113 198.071 -8.98713 197.993 -8.07033 197.939L-8.07028 197.939C-7.71425 197.918 -7.41965 197.9 -7.19123 197.895C-7.19123 197.895 -7.74062 198.478 -8.3194 198.868C-8.19966 199.454 -7.54151 200.767 -6.62568 202.011C-5.4728 203.577 -4.18921 204.66 -3.20218 205.492L-3.20196 205.492L-3.20095 205.493C-3.01226 205.652 -2.83442 205.802 -2.67042 205.945C-2.87625 205.875 -3.09554 205.796 -3.3282 205.713L-3.3283 205.713L-3.32832 205.713L-3.32859 205.713L-3.32909 205.712L-3.32952 205.712C-4.54615 205.276 -6.12833 204.709 -8.06507 204.497C-9.60359 204.328 -11.0733 204.416 -11.6422 204.606C-11.6913 205.301 -11.9228 206.066 -11.9228 206.066C-12.0328 205.867 -12.1649 205.604 -12.3247 205.286L-12.3247 205.286C-12.736 204.467 -13.33 203.284 -14.1976 201.883ZM-11.5659 202.676C-11.6392 202.168 -11.8484 201.121 -12.1658 200.479C-11.4502 200.433 -10.4433 200.103 -9.96564 199.912C-8.18574 202.541 -6.13413 203.969 -6.13413 203.969C-6.13413 203.969 -8.39247 202.898 -11.5659 202.676ZM-1.57489 224.247C-1.0351 223.076 -0.00434303 220.993 0.658522 219.764C1.44081 218.314 2.1702 217.209 2.67519 216.444L2.67528 216.444L2.6754 216.443L2.67563 216.443C2.87156 216.146 3.03368 215.901 3.15198 215.706C3.15198 215.706 2.37182 215.889 1.74463 216.194C1.29591 215.797 0.485126 214.572 -0.136938 213.158C-0.92001 211.378 -1.2183 209.728 -1.44768 208.458L-1.44768 208.458L-1.44769 208.458L-1.44769 208.458L-1.44769 208.458C-1.49164 208.215 -1.53307 207.986 -1.57488 207.772C-1.6167 207.986 -1.65813 208.215 -1.70209 208.458C-1.93146 209.728 -2.22976 211.378 -3.01283 213.158C-3.6349 214.572 -4.44568 215.797 -4.8944 216.194C-5.52159 215.889 -6.30175 215.706 -6.30175 215.706C-6.18336 215.901 -6.02108 216.147 -5.82496 216.444C-5.31996 217.209 -4.59058 218.314 -3.80829 219.764C-3.14543 220.993 -2.11467 223.076 -1.57489 224.247ZM-1.57485 218.711C-1.17712 218.116 -0.37248 217.411 0.0313683 217.094C-1.36069 214.241 -1.55955 211.754 -1.55955 211.754C-1.55955 211.754 -1.77371 214.241 -3.16577 217.094C-2.76192 217.411 -1.97258 218.116 -1.57485 218.711ZM8.81217 198.023C10.2108 197.982 12.5345 197.832 13.8212 197.714C13.0748 198.765 11.783 200.697 11.0478 201.884C10.1802 203.285 9.58616 204.467 9.17486 205.286C9.01512 205.604 8.88295 205.867 8.77303 206.067C8.77303 206.067 8.54148 205.301 8.49243 204.606C7.92352 204.417 6.45377 204.328 4.91525 204.497C2.97852 204.71 1.39634 205.277 0.179707 205.713C-0.0534439 205.796 -0.273167 205.875 -0.479389 205.945C-0.315029 205.803 -0.136772 205.652 0.0523758 205.493C1.0394 204.66 2.32299 203.578 3.47587 202.012C4.3917 200.768 5.04985 199.454 5.16959 198.868C4.59081 198.479 4.04142 197.896 4.04142 197.896C4.26985 197.901 4.56447 197.918 4.92052 197.939C5.83733 197.994 7.1615 198.072 8.81217 198.023ZM6.8083 199.899C7.28592 200.09 8.30054 200.433 9.01614 200.48C8.69869 201.121 8.4819 202.155 8.40856 202.663C5.23513 202.885 2.96914 203.943 2.96914 203.943C2.96914 203.943 5.0284 202.528 6.8083 199.899ZM13.8213 215.356C13.0749 214.305 11.783 212.373 11.0479 211.186C10.1803 209.785 9.58626 208.603 9.17496 207.784L9.17494 207.784C9.01521 207.466 8.88303 207.203 8.77311 207.003C8.77311 207.003 8.54156 207.769 8.49252 208.464C7.9236 208.653 6.45386 208.742 4.91534 208.573C2.97861 208.36 1.39642 207.793 0.17979 207.357L0.179739 207.357C-0.0533905 207.274 -0.273102 207.195 -0.479309 207.125C-0.314951 207.267 -0.136696 207.418 0.0524521 207.577C1.03948 208.41 2.32307 209.492 3.47595 211.059C4.39178 212.303 5.04993 213.616 5.16967 214.202C4.5909 214.591 4.0415 215.174 4.0415 215.174C4.26993 215.169 4.56454 215.152 4.9206 215.131C5.8374 215.077 7.16158 214.998 8.81225 215.047C10.2109 215.088 12.5345 215.238 13.8213 215.356ZM9.01607 212.59C8.69862 211.949 8.48948 210.902 8.41614 210.394C5.24272 210.172 2.98438 209.101 2.98438 209.101C2.98438 209.101 5.03599 210.529 6.81589 213.157C7.2935 212.967 8.30047 212.637 9.01607 212.59ZM-4.32843 201.88L-4.54259 203.894L-1.72788 206.472L-5.30746 205.404L-6.94427 206.549L-5.30746 207.815L-1.72788 206.61L-4.54259 209.249L-4.32843 211.294L-2.41626 210.424L-1.60551 206.671L-0.748857 210.424L1.1786 211.294L1.39277 209.249L-1.46783 206.61L2.08114 207.815L3.85563 206.549L2.08114 205.404L-1.46783 206.472L1.1786 203.894V201.88L-0.748857 202.719L-1.60551 206.335L-2.41626 202.719L-4.32843 201.88Z" fill="#87E7EB"/>
</g>
<g filter="url(#filter6_d_1230_10693)">
<path fill-rule="evenodd" clip-rule="evenodd" d="M-1.57494 227.463C-2.11473 228.634 -3.14548 230.717 -3.80835 231.946C-4.59063 233.396 -5.32001 234.501 -5.82501 235.266L-5.82502 235.266C-6.02114 235.563 -6.18342 235.809 -6.30181 236.004C-6.30181 236.004 -5.52165 235.821 -4.89446 235.516C-4.44574 235.912 -3.63495 237.138 -3.01289 238.552C-2.22982 240.331 -1.93152 241.982 -1.70214 243.251L-1.70214 243.251L-1.70214 243.251L-1.70214 243.251L-1.70213 243.251C-1.65818 243.495 -1.61676 243.724 -1.57494 243.937C-1.53312 243.724 -1.49169 243.495 -1.44774 243.251C-1.21836 241.982 -0.920067 240.331 -0.136995 238.552C0.485069 237.138 1.29585 235.912 1.74458 235.516C2.37177 235.821 3.15193 236.004 3.15193 236.004C3.03354 235.809 2.87126 235.563 2.67513 235.266C2.17014 234.501 1.44076 233.396 0.658466 231.946C-0.00439835 230.717 -1.03515 228.634 -1.57494 227.463ZM-1.57494 232.998C-1.97267 233.593 -2.77731 234.298 -3.18116 234.616C-1.78911 237.469 -1.59024 239.955 -1.59024 239.955C-1.59024 239.955 -1.37608 237.469 0.015974 234.616C-0.387873 234.298 -1.17721 233.593 -1.57494 232.998ZM-16.9711 253.997C-15.6843 253.878 -13.3607 253.728 -11.962 253.687C-10.3113 253.639 -8.98717 253.717 -8.07037 253.771C-7.71431 253.792 -7.4197 253.81 -7.19127 253.815C-7.19127 253.815 -7.74066 253.232 -8.31944 252.842C-8.1997 252.256 -7.54155 250.943 -6.62572 249.699C-5.47284 248.133 -4.18925 247.05 -3.20223 246.218L-3.20198 246.218L-3.20178 246.217C-3.0128 246.058 -2.83469 245.908 -2.67046 245.765C-2.87667 245.836 -3.09638 245.914 -3.32951 245.998L-3.32955 245.998C-4.54618 246.434 -6.12837 247.001 -8.0651 247.213C-9.60363 247.382 -11.0734 247.294 -11.6423 247.104C-11.6913 246.409 -11.9229 245.644 -11.9229 245.644C-12.0328 245.843 -12.165 246.107 -12.3247 246.424C-12.736 247.243 -13.3301 248.426 -14.1977 249.827C-14.9328 251.014 -16.2246 252.945 -16.9711 253.997ZM-12.1659 251.231C-11.4503 251.277 -10.4357 251.621 -9.95808 251.811C-8.17818 249.182 -6.11892 247.768 -6.11892 247.768C-6.11892 247.768 -8.38491 248.825 -11.5583 249.048C-11.6317 249.555 -11.8485 250.59 -12.1659 251.231ZM-14.1976 240.523C-14.9328 239.336 -16.2246 237.405 -16.971 236.353C-15.6843 236.472 -13.3607 236.621 -11.962 236.662C-10.3113 236.711 -8.98713 236.633 -8.07033 236.579L-8.07028 236.579C-7.71425 236.557 -7.41965 236.54 -7.19123 236.535C-7.19123 236.535 -7.74062 237.118 -8.3194 237.508C-8.19966 238.094 -7.54151 239.407 -6.62568 240.651C-5.4728 242.217 -4.18921 243.299 -3.20218 244.132L-3.20196 244.132L-3.20095 244.133C-3.01226 244.292 -2.83442 244.442 -2.67042 244.585C-2.87625 244.514 -3.09554 244.436 -3.3282 244.352L-3.3283 244.352L-3.32832 244.352L-3.32859 244.352L-3.32909 244.352L-3.32952 244.352C-4.54615 243.916 -6.12833 243.349 -8.06507 243.136C-9.60359 242.968 -11.0733 243.056 -11.6422 243.246C-11.6913 243.94 -11.9228 244.706 -11.9228 244.706C-12.0328 244.506 -12.1649 244.243 -12.3247 243.925L-12.3247 243.925C-12.736 243.106 -13.33 241.924 -14.1976 240.523ZM-11.5659 241.316C-11.6392 240.808 -11.8484 239.76 -12.1658 239.119C-11.4502 239.073 -10.4433 238.743 -9.96564 238.552C-8.18574 241.181 -6.13413 242.609 -6.13413 242.609C-6.13413 242.609 -8.39247 241.538 -11.5659 241.316ZM-1.57489 262.886C-1.0351 261.715 -0.00434303 259.633 0.658522 258.404C1.44081 256.953 2.1702 255.848 2.67519 255.083L2.67528 255.083L2.6754 255.083L2.67563 255.083C2.87156 254.786 3.03368 254.54 3.15198 254.345C3.15198 254.345 2.37182 254.529 1.74463 254.834C1.29591 254.437 0.485126 253.211 -0.136938 251.798C-0.92001 250.018 -1.2183 248.367 -1.44768 247.098L-1.44768 247.098L-1.44769 247.098L-1.44769 247.098L-1.44769 247.098C-1.49164 246.855 -1.53307 246.625 -1.57488 246.412C-1.6167 246.625 -1.65813 246.855 -1.70209 247.098C-1.93146 248.367 -2.22976 250.018 -3.01283 251.798C-3.6349 253.211 -4.44568 254.437 -4.8944 254.834C-5.52159 254.529 -6.30175 254.345 -6.30175 254.345C-6.18336 254.54 -6.02108 254.786 -5.82496 255.083C-5.31996 255.848 -4.59058 256.953 -3.80829 258.404C-3.14543 259.633 -2.11467 261.715 -1.57489 262.886ZM-1.57485 257.351C-1.17712 256.756 -0.37248 256.051 0.0313683 255.734C-1.36069 252.881 -1.55955 250.394 -1.55955 250.394C-1.55955 250.394 -1.77371 252.881 -3.16577 255.734C-2.76192 256.051 -1.97258 256.756 -1.57485 257.351ZM8.81217 236.663C10.2108 236.622 12.5345 236.472 13.8212 236.353C13.0748 237.405 11.783 239.336 11.0478 240.524C10.1802 241.924 9.58616 243.107 9.17486 243.926C9.01512 244.244 8.88295 244.507 8.77303 244.706C8.77303 244.706 8.54148 243.941 8.49243 243.246C7.92352 243.056 6.45377 242.968 4.91525 243.137C2.97852 243.349 1.39634 243.916 0.179707 244.352C-0.0534439 244.436 -0.273167 244.515 -0.479389 244.585C-0.315029 244.442 -0.136772 244.292 0.0523758 244.132C1.0394 243.3 2.32299 242.217 3.47587 240.651C4.3917 239.407 5.04985 238.094 5.16959 237.508C4.59081 237.118 4.04142 236.536 4.04142 236.536C4.26985 236.54 4.56447 236.558 4.92052 236.579C5.83733 236.633 7.1615 236.712 8.81217 236.663ZM6.8083 238.539C7.28592 238.73 8.30054 239.073 9.01614 239.119C8.69869 239.76 8.4819 240.795 8.40856 241.303C5.23513 241.525 2.96914 242.583 2.96914 242.583C2.96914 242.583 5.0284 241.168 6.8083 238.539ZM13.8213 253.996C13.0749 252.944 11.783 251.013 11.0479 249.826C10.1803 248.425 9.58626 247.243 9.17496 246.424L9.17494 246.424C9.01521 246.106 8.88303 245.843 8.77311 245.643C8.77311 245.643 8.54156 246.409 8.49252 247.103C7.9236 247.293 6.45386 247.381 4.91534 247.213C2.97861 247 1.39642 246.433 0.17979 245.997L0.179739 245.997C-0.0533905 245.914 -0.273102 245.835 -0.479309 245.764C-0.314951 245.907 -0.136696 246.057 0.0524521 246.217C1.03948 247.049 2.32307 248.132 3.47595 249.698C4.39178 250.942 5.04993 252.255 5.16967 252.841C4.5909 253.231 4.0415 253.814 4.0415 253.814C4.26993 253.809 4.56454 253.791 4.9206 253.77C5.8374 253.716 7.16158 253.638 8.81225 253.687C10.2109 253.728 12.5345 253.877 13.8213 253.996ZM9.01607 251.23C8.69862 250.589 8.48948 249.541 8.41614 249.034C5.24272 248.811 2.98438 247.74 2.98438 247.74C2.98438 247.74 5.03599 249.168 6.81589 251.797C7.2935 251.607 8.30047 251.277 9.01607 251.23ZM-4.32843 240.52L-4.54259 242.534L-1.72788 245.112L-5.30746 244.044L-6.94427 245.188L-5.30746 246.455L-1.72788 245.249L-4.54259 247.889L-4.32843 249.933L-2.41626 249.064L-1.60551 245.31L-0.748857 249.064L1.1786 249.933L1.39277 247.889L-1.46783 245.249L2.08114 246.455L3.85563 245.188L2.08114 244.044L-1.46783 245.112L1.1786 242.534V240.52L-0.748857 241.359L-1.60551 244.975L-2.41626 241.359L-4.32843 240.52Z" fill="#87E7EB"/>
</g>
<g filter="url(#filter7_d_1230_10693)">
<path fill-rule="evenodd" clip-rule="evenodd" d="M-1.57494 266.104C-2.11473 267.275 -3.14548 269.357 -3.80835 270.586C-4.59063 272.037 -5.32001 273.142 -5.82501 273.907L-5.82502 273.907C-6.02114 274.204 -6.18342 274.45 -6.30181 274.645C-6.30181 274.645 -5.52165 274.461 -4.89446 274.156C-4.44574 274.553 -3.63495 275.779 -3.01289 277.192C-2.22982 278.972 -1.93152 280.623 -1.70214 281.892L-1.70214 281.892L-1.70214 281.892L-1.70214 281.892L-1.70213 281.892C-1.65818 282.135 -1.61676 282.365 -1.57494 282.578C-1.53312 282.365 -1.49169 282.135 -1.44774 281.892C-1.21836 280.623 -0.920067 278.972 -0.136995 277.192C0.485069 275.779 1.29585 274.553 1.74458 274.156C2.37177 274.461 3.15193 274.645 3.15193 274.645C3.03354 274.45 2.87126 274.204 2.67513 273.907C2.17014 273.142 1.44076 272.037 0.658466 270.586C-0.00439835 269.357 -1.03515 267.275 -1.57494 266.104ZM-1.57494 271.639C-1.97267 272.234 -2.77731 272.939 -3.18116 273.256C-1.78911 276.109 -1.59024 278.596 -1.59024 278.596C-1.59024 278.596 -1.37608 276.109 0.015974 273.256C-0.387873 272.939 -1.17721 272.234 -1.57494 271.639ZM-16.9711 292.637C-15.6843 292.519 -13.3607 292.369 -11.962 292.328C-10.3113 292.279 -8.98717 292.358 -8.07037 292.412C-7.71431 292.433 -7.4197 292.45 -7.19127 292.455C-7.19127 292.455 -7.74066 291.872 -8.31944 291.483C-8.1997 290.897 -7.54155 289.584 -6.62572 288.339C-5.47284 286.773 -4.18925 285.691 -3.20223 284.858L-3.20198 284.858L-3.20178 284.858C-3.0128 284.699 -2.83469 284.548 -2.67046 284.406C-2.87667 284.476 -3.09638 284.555 -3.32951 284.638L-3.32955 284.638C-4.54618 285.074 -6.12837 285.641 -8.0651 285.854C-9.60363 286.023 -11.0734 285.934 -11.6423 285.745C-11.6913 285.05 -11.9229 284.284 -11.9229 284.284C-12.0328 284.484 -12.165 284.747 -12.3247 285.065C-12.736 285.884 -13.3301 287.066 -14.1977 288.467C-14.9328 289.654 -16.2246 291.586 -16.9711 292.637ZM-12.1659 289.871C-11.4503 289.918 -10.4357 290.261 -9.95808 290.452C-8.17818 287.823 -6.11892 286.408 -6.11892 286.408C-6.11892 286.408 -8.38491 287.466 -11.5583 287.688C-11.6317 288.196 -11.8485 289.23 -12.1659 289.871ZM-14.1976 279.164C-14.9328 277.977 -16.2246 276.045 -16.971 274.994C-15.6843 275.112 -13.3607 275.262 -11.962 275.303C-10.3113 275.352 -8.98713 275.273 -8.07033 275.219L-8.07028 275.219C-7.71425 275.198 -7.41965 275.181 -7.19123 275.176C-7.19123 275.176 -7.74062 275.759 -8.3194 276.148C-8.19966 276.734 -7.54151 278.047 -6.62568 279.291C-5.4728 280.857 -4.18921 281.94 -3.20218 282.773L-3.20196 282.773L-3.20095 282.774C-3.01226 282.933 -2.83442 283.083 -2.67042 283.225C-2.87625 283.155 -3.09554 283.076 -3.3282 282.993L-3.3283 282.993L-3.32832 282.993L-3.32859 282.993L-3.32909 282.993L-3.32952 282.992C-4.54615 282.556 -6.12833 281.989 -8.06507 281.777C-9.60359 281.608 -11.0733 281.697 -11.6422 281.886C-11.6913 282.581 -11.9228 283.347 -11.9228 283.347C-12.0328 283.147 -12.1649 282.884 -12.3247 282.566L-12.3247 282.566C-12.736 281.747 -13.33 280.565 -14.1976 279.164ZM-11.5659 279.956C-11.6392 279.449 -11.8484 278.401 -12.1658 277.76C-11.4502 277.713 -10.4433 277.383 -9.96564 277.193C-8.18574 279.822 -6.13413 281.249 -6.13413 281.249C-6.13413 281.249 -8.39247 280.179 -11.5659 279.956ZM-1.57489 301.527C-1.0351 300.356 -0.00434303 298.273 0.658522 297.044C1.44081 295.594 2.1702 294.489 2.67519 293.724L2.67528 293.724L2.6754 293.724L2.67563 293.723C2.87156 293.426 3.03368 293.181 3.15198 292.986C3.15198 292.986 2.37182 293.169 1.74463 293.474C1.29591 293.078 0.485126 291.852 -0.136938 290.438C-0.92001 288.659 -1.2183 287.008 -1.44768 285.739L-1.44768 285.739L-1.44769 285.739L-1.44769 285.739L-1.44769 285.739C-1.49164 285.495 -1.53307 285.266 -1.57488 285.053C-1.6167 285.266 -1.65813 285.495 -1.70209 285.739C-1.93146 287.008 -2.22976 288.659 -3.01283 290.438C-3.6349 291.852 -4.44568 293.078 -4.8944 293.474C-5.52159 293.169 -6.30175 292.986 -6.30175 292.986C-6.18336 293.181 -6.02108 293.427 -5.82496 293.724C-5.31996 294.489 -4.59058 295.594 -3.80829 297.044C-3.14543 298.273 -2.11467 300.356 -1.57489 301.527ZM-1.57485 295.991C-1.17712 295.396 -0.37248 294.692 0.0313683 294.374C-1.36069 291.521 -1.55955 289.034 -1.55955 289.034C-1.55955 289.034 -1.77371 291.521 -3.16577 294.374C-2.76192 294.692 -1.97258 295.396 -1.57485 295.991ZM8.81217 275.303C10.2108 275.262 12.5345 275.113 13.8212 274.994C13.0748 276.046 11.783 277.977 11.0478 279.164C10.1802 280.565 9.58616 281.748 9.17486 282.566C9.01512 282.884 8.88295 283.147 8.77303 283.347C8.77303 283.347 8.54148 282.581 8.49243 281.887C7.92352 281.697 6.45377 281.609 4.91525 281.778C2.97852 281.99 1.39634 282.557 0.179707 282.993C-0.0534439 283.076 -0.273167 283.155 -0.479389 283.226C-0.315029 283.083 -0.136772 282.933 0.0523758 282.773C1.0394 281.941 2.32299 280.858 3.47587 279.292C4.3917 278.048 5.04985 276.735 5.16959 276.149C4.59081 275.759 4.04142 275.176 4.04142 275.176C4.26985 275.181 4.56447 275.199 4.92052 275.22C5.83733 275.274 7.1615 275.352 8.81217 275.303ZM6.8083 277.18C7.28592 277.37 8.30054 277.713 9.01614 277.76C8.69869 278.401 8.4819 279.436 8.40856 279.943C5.23513 280.166 2.96914 281.223 2.96914 281.223C2.96914 281.223 5.0284 279.809 6.8083 277.18ZM13.8213 292.637C13.0749 291.585 11.783 289.654 11.0479 288.467C10.1803 287.066 9.58626 285.883 9.17496 285.064L9.17494 285.064C9.01521 284.746 8.88303 284.483 8.77311 284.284C8.77311 284.284 8.54156 285.049 8.49252 285.744C7.9236 285.934 6.45386 286.022 4.91534 285.853C2.97861 285.641 1.39642 285.074 0.17979 284.638L0.179739 284.638C-0.0533905 284.554 -0.273102 284.475 -0.479309 284.405C-0.314951 284.548 -0.136696 284.698 0.0524521 284.858C1.03948 285.69 2.32307 286.773 3.47595 288.339C4.39178 289.583 5.04993 290.896 5.16967 291.482C4.5909 291.872 4.0415 292.454 4.0415 292.454C4.26993 292.45 4.56454 292.432 4.9206 292.411C5.8374 292.357 7.16158 292.279 8.81225 292.327C10.2109 292.368 12.5345 292.518 13.8213 292.637ZM9.01607 289.871C8.69862 289.23 8.48948 288.182 8.41614 287.674C5.24272 287.452 2.98438 286.381 2.98438 286.381C2.98438 286.381 5.03599 287.809 6.81589 290.438C7.2935 290.247 8.30047 289.917 9.01607 289.871ZM-4.32843 279.16L-4.54259 281.174L-1.72788 283.753L-5.30746 282.685L-6.94427 283.829L-5.30746 285.095L-1.72788 283.89L-4.54259 286.529L-4.32843 288.574L-2.41626 287.704L-1.60551 283.951L-0.748857 287.704L1.1786 288.574L1.39277 286.529L-1.46783 283.89L2.08114 285.095L3.85563 283.829L2.08114 282.685L-1.46783 283.753L1.1786 281.174V279.16L-0.748857 280L-1.60551 283.615L-2.41626 280L-4.32843 279.16Z" fill="#87E7EB"/>
</g>
<g filter="url(#filter8_d_1230_10693)">
<path fill-rule="evenodd" clip-rule="evenodd" d="M-1.57494 304.743C-2.11473 305.914 -3.14548 307.997 -3.80835 309.226C-4.59063 310.676 -5.32001 311.781 -5.82501 312.546L-5.82502 312.546C-6.02114 312.843 -6.18342 313.089 -6.30181 313.284C-6.30181 313.284 -5.52165 313.101 -4.89446 312.796C-4.44574 313.193 -3.63495 314.418 -3.01289 315.832C-2.22982 317.612 -1.93152 319.262 -1.70214 320.532L-1.70214 320.532L-1.70214 320.532L-1.70214 320.532L-1.70213 320.532C-1.65818 320.775 -1.61676 321.004 -1.57494 321.218C-1.53312 321.004 -1.49169 320.775 -1.44774 320.532C-1.21836 319.262 -0.920067 317.612 -0.136995 315.832C0.485069 314.418 1.29585 313.193 1.74458 312.796C2.37177 313.101 3.15193 313.284 3.15193 313.284C3.03354 313.089 2.87126 312.843 2.67513 312.546C2.17014 311.781 1.44076 310.676 0.658466 309.226C-0.00439835 307.997 -1.03515 305.914 -1.57494 304.743ZM-1.57494 310.279C-1.97267 310.874 -2.77731 311.579 -3.18116 311.896C-1.78911 314.749 -1.59024 317.236 -1.59024 317.236C-1.59024 317.236 -1.37608 314.749 0.015974 311.896C-0.387873 311.579 -1.17721 310.874 -1.57494 310.279ZM-16.9711 331.277C-15.6843 331.158 -13.3607 331.009 -11.962 330.968C-10.3113 330.919 -8.98717 330.997 -8.07037 331.051C-7.71431 331.072 -7.4197 331.09 -7.19127 331.095C-7.19127 331.095 -7.74066 330.512 -8.31944 330.122C-8.1997 329.536 -7.54155 328.223 -6.62572 326.979C-5.47284 325.413 -4.18925 324.33 -3.20223 323.498L-3.20198 323.498L-3.20178 323.498C-3.0128 323.338 -2.83469 323.188 -2.67046 323.045C-2.87667 323.116 -3.09638 323.195 -3.32951 323.278L-3.32955 323.278C-4.54618 323.714 -6.12837 324.281 -8.0651 324.494C-9.60363 324.662 -11.0734 324.574 -11.6423 324.384C-11.6913 323.69 -11.9229 322.924 -11.9229 322.924C-12.0328 323.124 -12.165 323.387 -12.3247 323.705C-12.736 324.523 -13.3301 325.706 -14.1977 327.107C-14.9328 328.294 -16.2246 330.225 -16.9711 331.277ZM-12.1659 328.511C-11.4503 328.558 -10.4357 328.901 -9.95808 329.091C-8.17818 326.462 -6.11892 325.048 -6.11892 325.048C-6.11892 325.048 -8.38491 326.105 -11.5583 326.328C-11.6317 326.835 -11.8485 327.87 -12.1659 328.511ZM-14.1976 317.803C-14.9328 316.616 -16.2246 314.685 -16.971 313.633C-15.6843 313.752 -13.3607 313.901 -11.962 313.943C-10.3113 313.991 -8.98713 313.913 -8.07033 313.859L-8.07028 313.859C-7.71425 313.838 -7.41965 313.82 -7.19123 313.815C-7.19123 313.815 -7.74062 314.398 -8.3194 314.788C-8.19966 315.374 -7.54151 316.687 -6.62568 317.931C-5.4728 319.497 -4.18921 320.58 -3.20218 321.412L-3.20196 321.412L-3.20095 321.413C-3.01226 321.572 -2.83442 321.722 -2.67042 321.865C-2.87625 321.795 -3.09554 321.716 -3.3282 321.633L-3.3283 321.633L-3.32832 321.633L-3.32859 321.632L-3.32909 321.632L-3.32952 321.632C-4.54615 321.196 -6.12833 320.629 -8.06507 320.417C-9.60359 320.248 -11.0733 320.336 -11.6422 320.526C-11.6913 321.22 -11.9228 321.986 -11.9228 321.986C-12.0328 321.787 -12.1649 321.523 -12.3247 321.205L-12.3247 321.205C-12.736 320.387 -13.33 319.204 -14.1976 317.803ZM-11.5659 318.596C-11.6392 318.088 -11.8484 317.04 -12.1658 316.399C-11.4502 316.353 -10.4433 316.023 -9.96564 315.832C-8.18574 318.461 -6.13413 319.889 -6.13413 319.889C-6.13413 319.889 -8.39247 318.818 -11.5659 318.596ZM-1.57489 340.167C-1.0351 338.996 -0.00434303 336.913 0.658522 335.684C1.44081 334.233 2.1702 333.129 2.67519 332.364L2.67528 332.363L2.6754 332.363L2.67563 332.363C2.87156 332.066 3.03368 331.82 3.15198 331.626C3.15198 331.626 2.37182 331.809 1.74463 332.114C1.29591 331.717 0.485126 330.492 -0.136938 329.078C-0.92001 327.298 -1.2183 325.648 -1.44768 324.378L-1.44768 324.378L-1.44769 324.378L-1.44769 324.378L-1.44769 324.378C-1.49164 324.135 -1.53307 323.906 -1.57488 323.692C-1.6167 323.906 -1.65813 324.135 -1.70209 324.378C-1.93146 325.648 -2.22976 327.298 -3.01283 329.078C-3.6349 330.492 -4.44568 331.717 -4.8944 332.114C-5.52159 331.809 -6.30175 331.626 -6.30175 331.626C-6.18336 331.821 -6.02108 332.066 -5.82496 332.364C-5.31996 333.129 -4.59058 334.233 -3.80829 335.684C-3.14543 336.913 -2.11467 338.996 -1.57489 340.167ZM-1.57485 334.631C-1.17712 334.036 -0.37248 333.331 0.0313683 333.014C-1.36069 330.161 -1.55955 327.674 -1.55955 327.674C-1.55955 327.674 -1.77371 330.161 -3.16577 333.014C-2.76192 333.331 -1.97258 334.036 -1.57485 334.631ZM8.81217 313.943C10.2108 313.902 12.5345 313.752 13.8212 313.634C13.0748 314.685 11.783 316.617 11.0478 317.804C10.1802 319.205 9.58616 320.387 9.17486 321.206C9.01512 321.524 8.88295 321.787 8.77303 321.987C8.77303 321.987 8.54148 321.221 8.49243 320.526C7.92352 320.337 6.45377 320.248 4.91525 320.417C2.97852 320.63 1.39634 321.197 0.179707 321.633C-0.0534439 321.716 -0.273167 321.795 -0.479389 321.865C-0.315029 321.723 -0.136772 321.572 0.0523758 321.413C1.0394 320.58 2.32299 319.498 3.47587 317.932C4.3917 316.687 5.04985 315.374 5.16959 314.788C4.59081 314.399 4.04142 313.816 4.04142 313.816C4.26985 313.821 4.56447 313.838 4.92052 313.859C5.83733 313.913 7.1615 313.992 8.81217 313.943ZM6.8083 315.819C7.28592 316.01 8.30054 316.353 9.01614 316.4C8.69869 317.041 8.4819 318.075 8.40856 318.583C5.23513 318.805 2.96914 319.863 2.96914 319.863C2.96914 319.863 5.0284 318.448 6.8083 315.819ZM13.8213 331.276C13.0749 330.225 11.783 328.293 11.0479 327.106C10.1803 325.705 9.58626 324.523 9.17496 323.704L9.17494 323.704C9.01521 323.386 8.88303 323.123 8.77311 322.923C8.77311 322.923 8.54156 323.689 8.49252 324.384C7.9236 324.573 6.45386 324.662 4.91534 324.493C2.97861 324.28 1.39642 323.713 0.17979 323.277L0.179739 323.277C-0.0533905 323.194 -0.273102 323.115 -0.479309 323.045C-0.314951 323.187 -0.136696 323.338 0.0524521 323.497C1.03948 324.33 2.32307 325.412 3.47595 326.978C4.39178 328.222 5.04993 329.536 5.16967 330.122C4.5909 330.511 4.0415 331.094 4.0415 331.094C4.26993 331.089 4.56454 331.072 4.9206 331.051C5.8374 330.996 7.16158 330.918 8.81225 330.967C10.2109 331.008 12.5345 331.158 13.8213 331.276ZM9.01607 328.51C8.69862 327.869 8.48948 326.822 8.41614 326.314C5.24272 326.091 2.98438 325.021 2.98438 325.021C2.98438 325.021 5.03599 326.448 6.81589 329.077C7.2935 328.887 8.30047 328.557 9.01607 328.51ZM-4.32843 317.8L-4.54259 319.814L-1.72788 322.392L-5.30746 321.324L-6.94427 322.469L-5.30746 323.735L-1.72788 322.53L-4.54259 325.169L-4.32843 327.213L-2.41626 326.344L-1.60551 322.591L-0.748857 326.344L1.1786 327.213L1.39277 325.169L-1.46783 322.53L2.08114 323.735L3.85563 322.469L2.08114 321.324L-1.46783 322.392L1.1786 319.814V317.8L-0.748857 318.639L-1.60551 322.255L-2.41626 318.639L-4.32843 317.8Z" fill="#87E7EB"/>
</g>
</g>
</g>
<defs>
<filter id="filter0_d_1230_10693" x="-19.0711" y="-5.42695" width="34.9922" height="39.6238" filterUnits="userSpaceOnUse" color-interpolation-filters="sRGB">
<feFlood flood-opacity="0" result="BackgroundImageFix"/>
<feColorMatrix in="SourceAlpha" type="matrix" values="0 0 0 0 0 0 0 0 0 0 0 0 0 0 0 0 0 0 127 0" result="hardAlpha"/>
<feOffset dy="1.05"/>
<feGaussianBlur stdDeviation="1.05"/>
<feComposite in2="hardAlpha" operator="out"/>
<feColorMatrix type="matrix" values="0 0 0 0 0 0 0 0 0 0 0 0 0 0 0 0 0 0 0.1 0"/>
<feBlend mode="normal" in2="BackgroundImageFix" result="effect1_dropShadow_1230_10693"/>
<feBlend mode="normal" in="SourceGraphic" in2="effect1_dropShadow_1230_10693" result="shape"/>
</filter>
<filter id="filter1_d_1230_10693" x="-17.4121" y="34.0432" width="31.6744" height="36.3058" filterUnits="userSpaceOnUse" color-interpolation-filters="sRGB">
<feFlood flood-opacity="0" result="BackgroundImageFix"/>
<feColorMatrix in="SourceAlpha" type="matrix" values="0 0 0 0 0 0 0 0 0 0 0 0 0 0 0 0 0 0 127 0" result="hardAlpha"/>
<feOffset dy="0.2205"/>
<feGaussianBlur stdDeviation="0.2205"/>
<feComposite in2="hardAlpha" operator="out"/>
<feColorMatrix type="matrix" values="0 0 0 0 0 0 0 0 0 0 0 0 0 0 0 0 0 0 0.1 0"/>
<feBlend mode="normal" in2="BackgroundImageFix" result="effect1_dropShadow_1230_10693"/>
<feBlend mode="normal" in="SourceGraphic" in2="effect1_dropShadow_1230_10693" result="shape"/>
</filter>
<filter id="filter2_d_1230_10693" x="-17.4121" y="72.6828" width="31.6744" height="36.3058" filterUnits="userSpaceOnUse" color-interpolation-filters="sRGB">
<feFlood flood-opacity="0" result="BackgroundImageFix"/>
<feColorMatrix in="SourceAlpha" type="matrix" values="0 0 0 0 0 0 0 0 0 0 0 0 0 0 0 0 0 0 127 0" result="hardAlpha"/>
<feOffset dy="0.2205"/>
<feGaussianBlur stdDeviation="0.2205"/>
<feComposite in2="hardAlpha" operator="out"/>
<feColorMatrix type="matrix" values="0 0 0 0 0 0 0 0 0 0 0 0 0 0 0 0 0 0 0.1 0"/>
<feBlend mode="normal" in2="BackgroundImageFix" result="effect1_dropShadow_1230_10693"/>
<feBlend mode="normal" in="SourceGraphic" in2="effect1_dropShadow_1230_10693" result="shape"/>
</filter>
<filter id="filter3_d_1230_10693" x="-17.4121" y="111.322" width="31.6744" height="36.3058" filterUnits="userSpaceOnUse" color-interpolation-filters="sRGB">
<feFlood flood-opacity="0" result="BackgroundImageFix"/>
<feColorMatrix in="SourceAlpha" type="matrix" values="0 0 0 0 0 0 0 0 0 0 0 0 0 0 0 0 0 0 127 0" result="hardAlpha"/>
<feOffset dy="0.2205"/>
<feGaussianBlur stdDeviation="0.2205"/>
<feComposite in2="hardAlpha" operator="out"/>
<feColorMatrix type="matrix" values="0 0 0 0 0 0 0 0 0 0 0 0 0 0 0 0 0 0 0.1 0"/>
<feBlend mode="normal" in2="BackgroundImageFix" result="effect1_dropShadow_1230_10693"/>
<feBlend mode="normal" in="SourceGraphic" in2="effect1_dropShadow_1230_10693" result="shape"/>
</filter>
<filter id="filter4_d_1230_10693" x="-17.4121" y="149.963" width="31.6744" height="36.3058" filterUnits="userSpaceOnUse" color-interpolation-filters="sRGB">
<feFlood flood-opacity="0" result="BackgroundImageFix"/>
<feColorMatrix in="SourceAlpha" type="matrix" values="0 0 0 0 0 0 0 0 0 0 0 0 0 0 0 0 0 0 127 0" result="hardAlpha"/>
<feOffset dy="0.2205"/>
<feGaussianBlur stdDeviation="0.2205"/>
<feComposite in2="hardAlpha" operator="out"/>
<feColorMatrix type="matrix" values="0 0 0 0 0 0 0 0 0 0 0 0 0 0 0 0 0 0 0.1 0"/>
<feBlend mode="normal" in2="BackgroundImageFix" result="effect1_dropShadow_1230_10693"/>
<feBlend mode="normal" in="SourceGraphic" in2="effect1_dropShadow_1230_10693" result="shape"/>
</filter>
<filter id="filter5_d_1230_10693" x="-17.4121" y="188.603" width="31.6744" height="36.3058" filterUnits="userSpaceOnUse" color-interpolation-filters="sRGB">
<feFlood flood-opacity="0" result="BackgroundImageFix"/>
<feColorMatrix in="SourceAlpha" type="matrix" values="0 0 0 0 0 0 0 0 0 0 0 0 0 0 0 0 0 0 127 0" result="hardAlpha"/>
<feOffset dy="0.2205"/>
<feGaussianBlur stdDeviation="0.2205"/>
<feComposite in2="hardAlpha" operator="out"/>
<feColorMatrix type="matrix" values="0 0 0 0 0 0 0 0 0 0 0 0 0 0 0 0 0 0 0.1 0"/>
<feBlend mode="normal" in2="BackgroundImageFix" result="effect1_dropShadow_1230_10693"/>
<feBlend mode="normal" in="SourceGraphic" in2="effect1_dropShadow_1230_10693" result="shape"/>
</filter>
<filter id="filter6_d_1230_10693" x="-17.4121" y="227.242" width="31.6744" height="36.3058" filterUnits="userSpaceOnUse" color-interpolation-filters="sRGB">
<feFlood flood-opacity="0" result="BackgroundImageFix"/>
<feColorMatrix in="SourceAlpha" type="matrix" values="0 0 0 0 0 0 0 0 0 0 0 0 0 0 0 0 0 0 127 0" result="hardAlpha"/>
<feOffset dy="0.2205"/>
<feGaussianBlur stdDeviation="0.2205"/>
<feComposite in2="hardAlpha" operator="out"/>
<feColorMatrix type="matrix" values="0 0 0 0 0 0 0 0 0 0 0 0 0 0 0 0 0 0 0.1 0"/>
<feBlend mode="normal" in2="BackgroundImageFix" result="effect1_dropShadow_1230_10693"/>
<feBlend mode="normal" in="SourceGraphic" in2="effect1_dropShadow_1230_10693" result="shape"/>
</filter>
<filter id="filter7_d_1230_10693" x="-17.4121" y="265.883" width="31.6744" height="36.3058" filterUnits="userSpaceOnUse" color-interpolation-filters="sRGB">
<feFlood flood-opacity="0" result="BackgroundImageFix"/>
<feColorMatrix in="SourceAlpha" type="matrix" values="0 0 0 0 0 0 0 0 0 0 0 0 0 0 0 0 0 0 127 0" result="hardAlpha"/>
<feOffset dy="0.2205"/>
<feGaussianBlur stdDeviation="0.2205"/>
<feComposite in2="hardAlpha" operator="out"/>
<feColorMatrix type="matrix" values="0 0 0 0 0 0 0 0 0 0 0 0 0 0 0 0 0 0 0.1 0"/>
<feBlend mode="normal" in2="BackgroundImageFix" result="effect1_dropShadow_1230_10693"/>
<feBlend mode="normal" in="SourceGraphic" in2="effect1_dropShadow_1230_10693" result="shape"/>
</filter>
<filter id="filter8_d_1230_10693" x="-17.4121" y="304.523" width="31.6744" height="36.3058" filterUnits="userSpaceOnUse" color-interpolation-filters="sRGB">
<feFlood flood-opacity="0" result="BackgroundImageFix"/>
<feColorMatrix in="SourceAlpha" type="matrix" values="0 0 0 0 0 0 0 0 0 0 0 0 0 0 0 0 0 0 127 0" result="hardAlpha"/>
<feOffset dy="0.2205"/>
<feGaussianBlur stdDeviation="0.2205"/>
<feComposite in2="hardAlpha" operator="out"/>
<feColorMatrix type="matrix" values="0 0 0 0 0 0 0 0 0 0 0 0 0 0 0 0 0 0 0.1 0"/>
<feBlend mode="normal" in2="BackgroundImageFix" result="effect1_dropShadow_1230_10693"/>
<feBlend mode="normal" in="SourceGraphic" in2="effect1_dropShadow_1230_10693" result="shape"/>
</filter>
</defs>
</svg>
