<svg width="92" height="90" viewBox="0 0 92 90" fill="none" xmlns="http://www.w3.org/2000/svg">
<path d="M44.7178 27.9937C44.7178 30.0943 42.4739 31.8582 41.3519 32.4776C40.8978 30.4982 38.2425 26.5395 31.2544 26.5395C22.5192 26.5395 15.5871 33.1239 15.5871 43.869C15.5871 56.553 23.5085 61.8994 34.9007 66.6517C40.7108 69.0754 44.3571 72.7514 46.0801 75.8618C47.8031 72.7514 51.4495 69.0754 57.2596 66.6517C68.6518 61.8994 76.4129 56.4722 76.4129 43.7882C76.4129 33.0431 69.6411 26.5395 60.9059 26.5395C53.9178 26.5395 51.2625 30.4982 50.8084 32.4776C49.6864 31.8582 47.4425 30.0943 47.4425 27.9937C47.4425 25.3681 54.8153 20.6822 60.9059 20.6822C65.7784 20.6822 72.82 25.1526 75.7317 27.3878C75.4913 25.5027 75.8519 21.2397 79.2178 19.2684C82.5836 17.2971 87.2184 17.7469 89.115 18.2181C88.8612 20.7765 87.6484 26.3133 84.8275 27.9937C82.0066 29.6742 78.4698 29.3133 77.054 28.9228C78.0691 30.0943 80.2195 33.4794 81.3415 37.9713C82.4634 42.4632 82.1562 46.8178 81.8624 48.4336C82.597 47.6391 84.5551 46.1311 86.5105 46.4542C88.4659 46.7774 90.9849 49.4704 92 50.7765C90.7578 51.8806 87.6324 53.8707 85.0679 52.9982C82.5035 52.1257 81.7822 50.6149 81.7422 49.9686C81.3815 53.0655 79.0895 60.6571 72.1655 65.9246C63.5105 72.509 59.7044 73.3569 55.9774 75.8618C53.3328 77.6392 48.324 82.7693 46 90C43.676 82.7693 38.8275 77.6391 36.1829 75.8618C32.4558 73.3569 28.6498 72.509 19.9948 65.9246C13.0707 60.6571 10.6185 53.1463 10.2578 50.0494C10.2178 50.6957 9.49652 52.2065 6.93206 53.079C4.3676 53.9515 1.24216 51.9614 0 50.8573C1.0151 49.5512 3.53415 46.8582 5.48955 46.535C7.44495 46.2119 9.40302 47.7199 10.1376 48.5144C9.84379 46.8986 9.53659 42.544 10.6585 38.0521C11.7805 33.5602 14.0912 30.0943 15.1063 28.9228C13.6905 29.3133 10.1537 29.6742 7.33275 27.9937C4.51185 26.3133 3.29907 20.7765 3.0453 18.2181C4.94193 17.7469 9.57666 17.2971 12.9425 19.2684C16.3084 21.2397 16.669 25.5027 16.4286 27.3878C19.3403 25.1526 26.3819 20.6822 31.2544 20.6822C37.3449 20.6822 44.7178 25.3681 44.7178 27.9937Z" fill="#8DE329"/>
<path d="M39.1079 13.3303C39.1079 8.06284 43.7026 2.24865 45.9999 0C48.3106 2.06014 52.9319 7.61041 52.9319 13.3303C52.9319 19.0503 48.3106 22.7424 45.9999 23.8734C43.7026 22.5539 39.1079 18.5978 39.1079 13.3303Z" fill="#8DE329"/>
<path d="M30.5331 44.4344C30.5331 37.3895 36.7305 36.4093 39.8292 36.7998C39.3484 35.3456 37.946 31.912 31.5749 31.912C26.1655 31.912 21.4773 35.9515 21.4773 41.0413C21.4773 45.8079 24.0418 48.1104 25.5244 49.9281C24.763 49.8204 22.9359 49.8878 21.7177 51.0188C20.4996 52.1499 20.1684 53.6714 20.155 54.2908C20.8362 53.7657 22.0383 52.7154 24.8031 52.7154C27.4076 52.7154 31.3345 54.9775 34.7003 57.0377C37.393 58.6858 40.1231 60.0404 41.1515 60.5116C37.4251 57.5224 30.5331 49.807 30.5331 44.4344Z" fill="#8DE329"/>
<path d="M61.587 44.4344C61.587 37.3895 55.3896 36.4093 52.2909 36.7998C52.7717 35.3456 54.1742 31.912 60.5452 31.912C65.9546 31.912 70.6428 35.9515 70.6428 41.0413C70.6428 45.8079 68.0783 48.1104 66.5958 49.9281C67.3571 49.8204 69.1843 49.8878 70.4024 51.0188C71.6205 52.1499 71.9517 53.6714 71.9651 54.2908C71.2839 53.7657 70.0818 52.7154 67.317 52.7154C64.7125 52.7154 60.7856 54.9775 57.4198 57.0377C54.7271 58.6858 51.997 60.0404 50.9686 60.5116C54.6951 57.5224 61.587 49.807 61.587 44.4344Z" fill="#8DE329"/>
</svg>
