<svg width="27" height="27" viewBox="0 0 27 27" fill="none" xmlns="http://www.w3.org/2000/svg">
<g filter="url(#filter0_d_1230_10824)">
<path fill-rule="evenodd" clip-rule="evenodd" d="M9.19501 5.66835C9.19501 3.83949 9.82501 2.46076 10.14 2C8.98501 2 6.67501 3.59494 6.67501 6.46582C6.67501 10.0385 11.2425 11.7823 12.555 11.7823C12.397 11.6023 12.2167 11.4096 12.0236 11.2032C10.8476 9.94625 9.19501 8.17992 9.19501 5.66835ZM17.7525 5.66835C17.7525 3.83949 17.1225 2.46076 16.8075 2C17.9625 2 20.2725 3.59494 20.2725 6.46582C20.2725 10.0385 15.705 11.7823 14.3925 11.7823C14.5504 11.6024 14.7306 11.4098 14.9237 11.2034L14.9237 11.2034L14.9239 11.2032L14.9239 11.2032C16.0999 9.94624 17.7525 8.17992 17.7525 5.66835ZM3.315 9.28359C3.7875 10.1874 4.8375 11.8355 6.36 12.4735C7.32351 12.8772 7.71932 12.8764 8.26596 12.8753C8.5831 12.8746 8.95101 12.8739 9.51 12.9519C11.3772 13.2127 12.3975 14.2279 12.3975 15.4507C12.3975 16.6735 11.61 17.1519 10.98 17.1519C10.476 17.1519 10.105 16.5494 9.9825 16.2481C10.56 16.2127 11.7675 15.9823 11.7675 15.1317C11.7675 14.4405 11.4 13.9089 10.56 13.9089C10.1888 13.9089 9.80944 14.0976 9.34881 14.3267C8.63685 14.6809 7.73068 15.1317 6.36 15.1317C4.4175 15.1317 3 13.1114 3 11.5697C3 10.3362 3.21 9.53169 3.315 9.28359ZM20.64 12.4735C22.1625 11.8355 23.2125 10.1874 23.685 9.28359C23.79 9.53169 24 10.3362 24 11.5697C24 13.1114 22.5825 15.1317 20.64 15.1317C19.2693 15.1317 18.3632 14.6809 17.6512 14.3267C17.1906 14.0976 16.8112 13.9089 16.44 13.9089C15.6 13.9089 15.2325 14.4405 15.2325 15.1317C15.2325 15.9823 16.44 16.2127 17.0175 16.2481C16.895 16.5494 16.524 17.1519 16.02 17.1519C15.39 17.1519 14.6025 16.6735 14.6025 15.4507C14.6025 14.2279 15.6228 13.2127 17.49 12.9519C18.049 12.8739 18.4169 12.8746 18.734 12.8753C19.2807 12.8764 19.6765 12.8772 20.64 12.4735ZM5.52005 5.08311C5.64255 6.27045 6.30532 8.86786 7.77755 10.0274C9.12145 11.0859 9.74865 11.3947 10.4708 11.7503C10.7642 11.8948 11.0733 12.047 11.4525 12.2603C12.345 12.7624 13.08 13.4831 13.5525 14.3337C14.025 13.4831 14.76 12.7624 15.6525 12.2603C16.0318 12.047 16.3409 11.8948 16.6343 11.7503L16.6343 11.7503C17.3564 11.3947 17.9837 11.0859 19.3276 10.0274C20.7998 8.86786 21.4626 6.27045 21.5851 5.08311C22.4426 6.53628 23.37 9.49577 21.48 11.1439C20.5775 11.9309 19.6933 12.0926 18.5983 12.2928C17.8977 12.4209 17.1108 12.5648 16.1775 12.8983C15.285 13.2173 13.9201 14.3337 13.9201 15.716C13.9201 16.7793 14.8457 17.7894 16.0201 17.7894C16.0332 17.7894 16.0594 17.7662 16.0988 17.7313C16.2169 17.6266 16.4532 17.4173 16.8075 17.4173C17.28 17.4173 17.5425 17.5768 17.5425 17.5768C17 17.9844 16.0172 18.9829 15.2326 20.0755C14.581 20.9828 14.0663 21.9967 13.762 22.5961L13.7619 22.5962L13.7619 22.5962C13.674 22.7695 13.6036 22.9082 13.5525 22.9996C13.5015 22.9082 13.4311 22.7695 13.3432 22.5962L13.3432 22.5962L13.3431 22.5961C13.0388 21.9967 12.5241 20.9828 11.8725 20.0755C11.0879 18.9829 10.105 17.9844 9.56255 17.5768C9.56255 17.5768 9.82505 17.4173 10.2975 17.4173C10.6519 17.4173 10.8882 17.6266 11.0063 17.7313L11.0063 17.7313C11.0457 17.7662 11.0719 17.7894 11.085 17.7894C12.2594 17.7894 13.185 16.7793 13.185 15.716C13.185 14.3337 11.82 13.2173 10.9275 12.8983C9.99433 12.5648 9.20744 12.4209 8.50683 12.2928C7.41181 12.0926 6.5276 11.9309 5.62505 11.1439C3.73505 9.49577 4.66255 6.53628 5.52005 5.08311ZM11.7675 18.6401C12.0475 18.587 12.5025 18.4806 12.87 18.1085C13.1294 17.8458 13.2755 17.6096 13.382 17.4373C13.4264 17.3655 13.464 17.3048 13.5 17.2578C13.5289 17.2954 13.5617 17.3419 13.5997 17.3959L13.5998 17.396L13.5998 17.396C13.7231 17.5709 13.9018 17.8241 14.1825 18.1085C14.55 18.4806 15.005 18.587 15.285 18.6401C15.04 18.6756 14.4765 18.7252 14.1825 18.6401C13.8885 18.5551 13.5875 18.3211 13.5 18.2148C13.4125 18.3211 13.164 18.5551 12.87 18.6401C12.576 18.7252 12.0125 18.6756 11.7675 18.6401ZM13.1325 19.2249C13.3425 19.0654 13.5 18.8527 13.5 18.8527C13.5 18.8527 13.605 19.0654 13.815 19.2249C14.0775 19.4243 14.3925 19.5439 14.3925 19.5439C14.3925 19.5439 14.0775 19.8097 13.815 20.235C13.5525 20.6603 13.5 21.0856 13.5 21.0856C13.5 21.0856 13.395 20.6603 13.1325 20.235C12.87 19.8097 12.555 19.5439 12.555 19.5439C12.555 19.5439 12.87 19.4243 13.1325 19.2249Z" fill="#00D6A1"/>
</g>
<defs>
<filter id="filter0_d_1230_10824" x="0.8875" y="0.94375" width="25.225" height="25.225" filterUnits="userSpaceOnUse" color-interpolation-filters="sRGB">
<feFlood flood-opacity="0" result="BackgroundImageFix"/>
<feColorMatrix in="SourceAlpha" type="matrix" values="0 0 0 0 0 0 0 0 0 0 0 0 0 0 0 0 0 0 127 0" result="hardAlpha"/>
<feOffset dy="1.05625"/>
<feGaussianBlur stdDeviation="1.05625"/>
<feComposite in2="hardAlpha" operator="out"/>
<feColorMatrix type="matrix" values="0 0 0 0 0 0 0 0 0 0 0 0 0 0 0 0 0 0 0.1 0"/>
<feBlend mode="normal" in2="BackgroundImageFix" result="effect1_dropShadow_1230_10824"/>
<feBlend mode="normal" in="SourceGraphic" in2="effect1_dropShadow_1230_10824" result="shape"/>
</filter>
</defs>
</svg>
