<svg width="29" height="29" viewBox="0 0 29 29" fill="none" xmlns="http://www.w3.org/2000/svg">
<g id="Icon_Commission 1" clip-path="url(#clip0_2416_20150)">
<path id="Vector" opacity="0.4" d="M29 14.5016L27.7095 13.8114C25.5191 12.6389 23.4802 11.2029 21.6384 9.5354C21.7747 8.89595 21.9356 8.2623 22.1255 7.633L22.4561 6.54695L21.3686 6.8761C20.7408 7.06605 20.1057 7.227 19.4677 7.36475C17.7998 5.5224 16.3633 3.48308 15.1902 1.29215L14.5 0.00164795L13.8098 1.29215C12.6377 3.48334 11.2017 5.52273 9.53375 7.36475C8.89575 7.227 8.26065 7.06605 7.6328 6.8761L6.5453 6.54695L6.87445 7.633C7.06585 8.2623 7.2268 8.89595 7.3631 9.5354C5.52122 11.2029 3.48238 12.6389 1.29195 13.8114L0 14.5016L1.29195 15.1918C3.48238 16.3644 5.52122 17.8004 7.3631 19.4679C7.2268 20.1073 7.06585 20.741 6.87445 21.3703L6.5453 22.4563L7.6328 22.1272C8.26065 21.9358 8.89575 21.7763 9.53375 21.6385C11.2017 23.4806 12.6377 25.52 13.8098 27.7111L14.5 29.0016L15.1902 27.7111C16.3633 25.5202 17.7998 23.4809 19.4677 21.6385C20.1057 21.7835 20.7408 21.9358 21.3686 22.1272L22.4561 22.4563L22.1255 21.3703C21.9356 20.741 21.7747 20.1073 21.6384 19.4679C23.4802 17.8004 25.5191 16.3644 27.7095 15.1918L29 14.5016Z" fill="#231F20"/>
<path id="Vector_2" d="M21.2788 8.31866L21.5688 7.35297L20.6031 7.64297C16.6226 8.85088 12.3732 8.85088 8.3927 7.64297L7.427 7.35297L7.717 8.31866C8.92343 12.2994 8.92343 16.5484 7.717 20.5291L7.427 21.4963L8.3927 21.2063C12.3732 19.9984 16.6226 19.9984 20.6031 21.2063L21.5688 21.4963L21.2788 20.5291C20.0709 16.5486 20.0709 12.2992 21.2788 8.31866Z" fill="#AD8CE9"/>
<path id="Vector_3" d="M14.4999 1.53552L13.8866 2.68392C11.359 7.41144 7.48677 11.2836 2.75925 13.8112L1.6123 14.4246L2.75925 15.0379C7.48677 17.5655 11.359 21.4377 13.8866 26.1652L14.4999 27.3136L15.1147 26.1652C17.6423 21.4377 21.5145 17.5655 26.242 15.0379L27.389 14.4246L26.242 13.8112C21.5145 11.2836 17.6423 7.41144 15.1147 2.68392L14.4999 1.53552Z" fill="#C1A1FF"/>
<path id="Vector_4" d="M22.5735 13.9214C19.3227 12.1844 16.6603 9.52202 14.9233 6.27122L14.5013 5.48242L14.0794 6.27122C12.3424 9.52202 9.67998 12.1844 6.42918 13.9214L5.64038 14.3564L6.42918 14.7784C9.67998 16.5154 12.3424 19.1778 14.0794 22.4286L14.5013 23.2174L14.9233 22.4286C16.6603 19.1778 19.3227 16.5154 22.5735 14.7784L23.3623 14.3564L22.5735 13.9214Z" fill="#5E468B"/>
<path id="Vector_5" d="M16.1501 20.4465C17.008 19.2331 18.0079 18.1267 19.1284 17.1506L14.5014 11.9988L9.87305 17.1463C10.9939 18.1236 11.9938 19.2315 12.8513 20.4465C13.9504 20.3962 15.05 20.3962 16.1501 20.4465Z" fill="#A67AFF"/>
<path id="Vector_6" d="M11.384 18.6209C12.4369 19.7705 13.342 21.0472 14.0781 22.4214L14.4986 23.2102L14.9206 22.4214C15.6581 21.047 16.5646 19.7703 17.619 18.6209L14.503 15.1569L11.384 18.6209Z" fill="#E4D8FF"/>
</g>
<defs>
<clipPath id="clip0_2416_20150">
<rect width="29" height="29" fill="white"/>
</clipPath>
</defs>
</svg>
